<?xml version="1.0" standalone="no"?><!DOCTYPE svg PUBLIC "-//W3C//DTD SVG 1.1//EN" "http://www.w3.org/Graphics/SVG/1.1/DTD/svg11.dtd" ><svg xmlns="http://www.w3.org/2000/svg" xmlns:xlink="http://www.w3.org/1999/xlink" version="1.1" viewBox="-10 0 692 1000"><g transform="matrix(1 0 0 -1 0 800)"><path stroke="black" fill="none" d="M 554.99994 928.1948 l 0.0 -132.59332 l -254.19943 552.1994 l 12.799103 21.79834 l 1.0968018 -43.599243 l -26.69342 0.0 l 53.39633 0.0 l -2.1998596 87.1991 l -12.799072 -21.79834 l 25.600159 43.60022 l 12.799072 21.798462 l 38.40088 65.40137 l 12.799072 21.798462 l -25.60559 -43.609497 l -12.791229 -21.785156 l 75.59732 65.39526 l 37.201447 0.00012207031 l 37.1976 0.0 l 27.400879 -218.0 l 0.0 0.0 l 0.0 0.0 l 0.0 0.0 l -26.695496 0.0 l -26.720032 0.0 l -26.726227 0.0 l -26.643066 0.0 l -53.42758 0.0 l -26.68158 0.0 l 53.387634 0.0 l 133.50635 -132.60498 l 0.0 -132.59326 l 46.998474 483.19824 l -37.19757 0.0 l 74.39911 -0.00012207031 l 37.201538 0.00012207031 l 37.19757 0.0 l 37.202393 0.0 l 37.19763 0.0 l 0.00091552734 -154.39978 l 0.0 -154.40613 l 0.0 -154.39209 l 6.1035156e-05 -308.79614 l 0.0 154.39221 l 0.0 -463.19214 l -6.1035156e-05 154.39215 l -6.1035156e-05 -308.79874 l -0.00048828125 -154.3996 l -46.61084 -154.39969 l -23.284302 -1.6989361e-09 l -23.301758 4.8283255e-08 l 93.19409 -2.003435e-08 l -23.2948 -1.1892553e-08 l -93.204895 1.7676939e-07 l -23.293945 2.545894e-07 l -23.306213 -3.708119e-07 l -23.294495 -3.4258846e-08 l -46.601562 1.929653e-06 l 23.2984 1.4945763e-06 l -23.299194 662.98285 l 0.0 -132.57794 l 0.0 -132.60165 l 0.0 -132.62012 l 0.0 -132.57764 " /> </g> </svg>