<?xml version="1.0" standalone="no"?><!DOCTYPE svg PUBLIC "-//W3C//DTD SVG 1.1//EN" "http://www.w3.org/Graphics/SVG/1.1/DTD/svg11.dtd" ><svg xmlns="http://www.w3.org/2000/svg" xmlns:xlink="http://www.w3.org/1999/xlink" version="1.1" viewBox="-10 0 692 1000"><g transform="matrix(1 0 0 -1 0 800)"><path stroke="black" fill="none" d="M 554.99005 927.48535 l 0.008972168 -129.50568 l -253.93323 551.9574 l 12.366425 21.061523 l -0.36065674 -43.27295 l -23.660767 -0.00012207031 l 51.70685 0.00024414062 l -2.1400757 86.78735 l -12.368225 -21.068115 l 25.668701 43.713257 l 12.381744 21.087524 l 38.806488 66.09009 l 12.364929 21.060059 l -28.195435 -48.036377 l -8.739441 -14.880493 l 74.37204 63.16577 l 37.861633 0.07507324 l 36.091675 0.0017089844 l 26.741333 -217.99622 l 0.0 0.0 l -0.13043213 0.0 l -23.40741 0.0 l -36.00418 0.0 l -38.867462 0.0 l -1.0320435 0.0 l -65.449036 0.0 l -18.158997 0.0 l 47.66281 0.0 l 136.44046 -134.96594 l 0.0012207031 -129.43213 l 46.303345 482.39343 l -36.083557 0.0014648438 l 73.9906 -0.060302734 l 37.898743 0.055664062 l 36.085938 0.0024414062 l 38.31427 -0.0087890625 l 36.09015 0.0045166016 l 0.4229126 -154.2583 l 0.023925781 -157.26306 l -0.008361816 -150.76282 l 0.033691406 -306.97717 l -0.013916016 150.76898 l -0.0004272461 -459.56778 l -0.0107421875 150.76523 l -0.035888672 -308.2267 l -0.22033691 -154.21239 l -51.659607 -154.25627 l -15.982727 -7.876988e-07 l -24.12738 2.239952e-05 l 90.44049 -9.293137e-06 l -20.869507 -5.5176424e-06 l -95.467834 8.200911e-05 l -2.2410889 0.00014838927 l -18.264282 -3.0277792e-05 l -26.19574 -0.00017203124 l -20.743835 -1.5894228e-05 l -47.3136 0.00089522667 l 22.569519 0.00069338013 l -22.92865 655.0507 l 0.0 -122.39435 l 6.1035156e-05 -133.35303 l -0.010375977 -141.93701 l 0.0028686523 -122.21973 " /> </g> </svg>