<?xml version="1.0" standalone="no"?><!DOCTYPE svg PUBLIC "-//W3C//DTD SVG 1.1//EN" "http://www.w3.org/Graphics/SVG/1.1/DTD/svg11.dtd" ><svg xmlns="http://www.w3.org/2000/svg" xmlns:xlink="http://www.w3.org/1999/xlink" version="1.1" viewBox="-10 0 692 1000"><g transform="matrix(1 0 0 -1 0 800)"><path stroke="black" fill="none" d="M 87.0 782.0 l 0.0 0.0 l 1.7200012 72.31 l 454.69376 -74.91156 l 0.0 0.0 l -440.93375 210.59155 l 12.039993 63.369995 l 15.480003 60.390015 l 18.919998 57.410034 l 22.36 54.42993 l 25.800003 51.450073 l 111.69643 84.30054 l 0.0 0.0 l 40.383087 -34.77722 l 0.0 0.0 l -91.38953 36.75659 l 32.75 33.83008 l 38.373962 1.8189697 l 0.0 0.0 l 37.65793 60.924805 l 0.0 0.0 l 44.756042 75.20679 l 0.0 0.0 l 23.212067 -42.430542 l 24.704803 40.375732 l 59.531555 8.599365 l 0.0 0.0 l -47.00412 -215.60876 l 0.0 0.0 l 80.43875 -213.11755 l 0.0 0.0 l 23.27472 429.06775 l 0.0 0.0 l 64.31128 -6.609375 l 63.38379 5.2436523 l 0.0 0.0 l 17.809204 -49.940796 l 56.830994 47.20935 l 0.0 0.0 l 12.41626 -130.34094 l 40.70276 17.461548 l 34.049988 -29.849976 l 32.75 -33.83008 l 0.0 0.0 l 32.680054 -45.589966 l -127.67566 -186.99182 l 0.0 0.0 l 182.71564 86.27185 l 22.359985 -55.130005 l 18.919983 -58.31006 l 15.47998 -61.48999 l 12.040039 -64.66998 l 8.599976 -67.849976 l 5.160034 -71.03003 l 0.0 0.0 l -256.12732 43.824097 l 0.0 0.0 l 249.24731 -188.7041 l -8.599976 -67.69995 l -12.040039 -64.54004 l -15.47998 -61.379974 l -218.29169 72.331635 l 0.0 0.0 l 177.01166 -185.61163 l -25.799988 -51.900024 l -29.23999 -48.73999 l 0.0 0.0 l -31.440002 -37.809998 l -32.71997 -33.83 l -34.0 -29.850006 l -41.898926 81.149796 l 0.0 0.0 l -29.941101 -128.90979 l -3.675476 -134.61783 l 0.0 0.0 l -73.284546 102.77783 l -40.399963 -9.949997 l -6.3692627 -92.43887 l 0.0 0.0 l -40.71234 0.072955966 l 0.0 0.0 l -39.196716 455.62952 l 0.0 0.0 l -11.780823 -334.73584 l -68.84088 -16.587769 l -39.25998 13.930008 l -38.02002 17.909988 l -36.78 21.890015 l -35.539978 25.869995 l -34.30002 29.850006 l -33.059998 33.829987 l 0.0 0.0 l -32.679993 45.679993 l -29.240005 49.04001 l -25.800003 52.399994 l -22.36 55.76001 l -18.919998 59.119995 l -15.479996 62.47998 l -12.040001 65.84003 l -8.599998 69.20001 l -5.1600037 72.56 " /> </g> </svg>