<?xml version="1.0" standalone="no"?><!DOCTYPE svg PUBLIC "-//W3C//DTD SVG 1.1//EN" "http://www.w3.org/Graphics/SVG/1.1/DTD/svg11.dtd" ><svg xmlns="http://www.w3.org/2000/svg" xmlns:xlink="http://www.w3.org/1999/xlink" version="1.1" viewBox="-10 0 692 1000"><g transform="matrix(1 0 0 -1 0 800)"><path stroke="black" fill="none" d="M 554.99915 928.13873 l 0.00079345703 -132.33453 l -254.17712 552.17914 l 12.762817 21.736572 l 0.9746704 -43.5719 l -26.43927 0.0 l 53.25476 0.0 l -2.1948853 87.16455 l -12.762939 -21.73706 l 25.605896 43.60962 l 12.764099 21.738892 l 38.434875 65.45911 l 12.762695 21.736572 l -25.822662 -43.98047 l -12.45163 -21.20642 l 75.49463 65.20825 l 37.256744 0.0064697266 l 37.10489 0.00012207031 l 27.426758 -217.99963 l 0.0 0.0 l -0.00012207031 0.0 l -0.0006713867 0.0 l -26.51117 0.0 l -27.498138 0.0 l -27.743805 0.0 l -24.434082 0.0 l -54.49762 0.0 l -25.967285 0.0 l 52.907837 0.0 l 133.75226 -132.80286 l 0.00012207031 -132.32825 l 46.940186 483.13074 l -37.104248 0.00012207031 l 74.36493 -0.0052490234 l 37.25995 0.004760742 l 37.10437 0.00024414062 l 37.295654 -0.0007324219 l 37.104797 0.00036621094 l 0.036254883 -154.38782 l 0.0020751953 -154.64563 l -0.0007324219 -154.08789 l 0.0028686523 -308.64368 l -0.001159668 154.0885 l -6.1035156e-05 -462.88837 l -0.00091552734 154.0882 l -0.003112793 -308.75082 l -0.018859863 -154.38391 l -47.034058 -154.38766 l -22.672302 -6.7575456e-08 l -23.370972 1.9215768e-06 l 92.96326 -7.972267e-07 l -23.09143 -4.7333742e-07 l -93.39459 7.0352653e-06 l -23.060242 1.0132368e-05 l -23.5484 -1.47579485e-05 l -23.080688 -1.3635072e-06 l -46.661255 7.6798315e-05 l 23.237305 5.9482627e-05 l -23.268127 662.31805 l 0.0 -131.72449 l 0.0 -132.66458 l -0.0008544922 -133.40097 l 0.00018310547 -131.70953 " /> </g> </svg>