<?xml version="1.0" standalone="no"?><!DOCTYPE svg PUBLIC "-//W3C//DTD SVG 1.1//EN" "http://www.w3.org/Graphics/SVG/1.1/DTD/svg11.dtd" ><svg xmlns="http://www.w3.org/2000/svg" xmlns:xlink="http://www.w3.org/1999/xlink" version="1.1" viewBox="-10 0 692 1000"><g transform="matrix(1 0 0 -1 0 800)"><path stroke="black" fill="none" d="M 554.884 919.869 l 0.10424805 -96.53058 l -251.08978 549.37335 l 7.7456055 13.192139 l -15.921448 -39.787476 l -0.22824097 -0.00012207031 l 42.614136 0.0012207031 l -1.5011902 82.390015 l -7.767029 -13.269897 l 26.400665 44.9209 l 7.92453 13.495117 l 43.13861 73.44507 l 7.7283325 13.17395 l -32.85492 -56.553955 l 0.0 0.0 l 72.81955 59.45459 l 44.912384 0.87609863 l 24.280457 0.01977539 l 9.555481 -217.95618 l 0.0 0.0 l -72.983795 0.0 l 0.0 0.0 l -81.08618 0.0 l 0.0 0.0 l 8.74292 0.0 l 167.77695 -160.18042 l 0.014160156 -95.67151 l 38.87909 473.79773 l -24.185547 0.017456055 l 69.62677 -0.7030029 l 45.345642 0.64868164 l 24.213745 0.029052734 l 50.188538 -0.10290527 l 24.26294 0.051879883 l 4.9298096 -152.74731 l 0.27844238 -187.7738 l -0.09753418 -112.00305 l 0.39337158 -287.55096 l -0.1628418 112.07367 l -0.0048217773 -420.86032 l -0.12536621 112.03024 l -0.41815186 -302.1175 l 0.0078125 -0.5683594 l -2.576355 -151.64493 l -70.39813 -152.72447 l 0.0 0.0 l -6.1289062 0.00017869554 l 61.032837 -0.00010833063 l -0.45947266 -1.4876045e-05 l -105.15802 0.0022480895 l 0.0 0.0 l -0.12609863 5.1383395e-05 l -56.63855 -0.0020214752 l -0.31933594 -2.1760003e-05 l -48.102478 0.010272001 l 0.16082764 0.0003921818 l 14.623962 0.00769045 l -18.971191 570.3362 l -6.1035156e-05 -13.634705 l 0.00091552734 -141.37769 l -0.121032715 -241.43994 l 0.03326416 -11.59874 " /> </g> </svg>