<?xml version="1.0" standalone="no"?><!DOCTYPE svg PUBLIC "-//W3C//DTD SVG 1.1//EN" "http://www.w3.org/Graphics/SVG/1.1/DTD/svg11.dtd" ><svg xmlns="http://www.w3.org/2000/svg" xmlns:xlink="http://www.w3.org/1999/xlink" version="1.1" viewBox="-10 0 692 1000"><g transform="matrix(1 0 0 -1 0 800)"><path stroke="black" fill="none" d="M 554.99976 928.1821 l 0.00024414062 -132.52222 l -254.19333 552.1939 l 12.789124 21.781372 l 1.0632935 -43.591797 l -26.623627 0.0 l 53.357452 0.0 l -2.1985168 87.189575 l -12.789124 -21.781494 l 25.601715 43.602783 l 12.78949 21.782104 l 38.410187 65.41724 l 12.789093 21.781494 l -25.665222 -43.711426 l -12.697937 -21.62622 l 75.56912 65.34387 l 37.216614 0.001953125 l 37.17212 0.0 l 27.409485 -217.99988 l 0.0 0.0 l 0.0 0.0 l -6.1035156e-05 0.0 l -26.646484 0.0 l -26.933777 0.0 l -27.005707 0.0 l -26.036316 0.0 l -53.721497 0.0 l -26.485382 0.0 l 53.25583 0.0 l 133.57388 -132.6593 l 6.1035156e-05 -132.52051 l 46.982483 483.1797 l -37.171997 0.0 l 74.38977 -0.0014648438 l 37.21753 0.0013427734 l 37.171997 0.00012207031 l 37.228027 -0.00024414062 l 37.17212 0.00012207031 l 0.010620117 -154.39648 l 0.00061035156 -154.47192 l -0.00024414062 -154.30847 l 0.0008544922 -308.75427 l -0.00036621094 154.30878 l 0.0 -463.10873 l -0.00024414062 154.30869 l -0.00091552734 -308.7856 l -0.005554199 -154.39528 l -46.72711 -154.39638 l -23.11615 -1.9790605e-08 l -23.3208 5.6281715e-07 l 93.13068 -2.3350367e-07 l -23.238892 -1.386361e-07 l -93.25702 2.0605803e-06 l -23.229797 2.967703e-06 l -23.372742 -4.3225045e-06 l -23.235718 -3.9936276e-07 l -46.61798 2.2493703e-05 l 23.281616 1.7422062e-05 l -23.29065 662.80023 l 0.0 -132.34357 l 0.0 -132.6189 l -0.00024414062 -132.8346 l 6.1035156e-05 -132.3392 " /> </g> </svg>