<?xml version="1.0" standalone="no"?><!DOCTYPE svg PUBLIC "-//W3C//DTD SVG 1.1//EN" "http://www.w3.org/Graphics/SVG/1.1/DTD/svg11.dtd" ><svg xmlns="http://www.w3.org/2000/svg" xmlns:xlink="http://www.w3.org/1999/xlink" version="1.1" viewBox="-10 0 692 1000"><g transform="matrix(1 0 0 -1 0 800)"><path stroke="black" fill="none" d="M 554.9971 927.9907 l 0.0026245117 -131.69366 l -254.12189 552.12897 l 12.673035 21.583618 l 0.67214966 -43.50415 l -25.809814 -0.00012207031 l 52.904083 0.00012207031 l -2.182434 87.0791 l -12.673553 -21.585571 l 25.620148 43.63318 l 12.67749 21.591309 l 38.519043 65.60205 l 12.672577 21.583252 l -26.360168 -44.899292 l -11.610687 -19.773315 l 75.240326 64.745605 l 37.39377 0.021972656 l 36.875366 0.00048828125 l 27.42688 -217.9989 l 0.0 0.0 l -0.0026245117 0.0 l -0.34094238 0.0 l -25.650024 0.0 l -29.42514 0.0 l -30.263763 0.0 l -18.963654 0.0 l -57.14746 0.0 l -24.198395 0.0 l 51.719635 0.0 l 134.36124 -133.29285 l 0.00036621094 -131.67224 l 46.79596 482.96375 l -36.873047 0.00036621094 l 74.28015 -0.017578125 l 37.404663 0.016235352 l 36.873657 0.0007324219 l 37.526367 -0.0025634766 l 36.87494 0.0013427734 l 0.12384033 -154.35852 l 0.007019043 -155.23865 l -0.0024414062 -153.3346 l 0.009887695 -308.2661 l -0.0040893555 153.33649 l -0.00012207031 -462.1361 l -0.0031738281 153.33539 l -0.010498047 -308.63208 l -0.06451416 -154.34505 l -48.08191 -154.3579 l -21.15686 -2.3071334e-07 l -23.542358 6.5606655e-06 l 92.391785 -2.7218957e-06 l -22.588135 -1.6160811e-06 l -93.8642 2.4019915e-05 l -22.481506 3.4594057e-05 l -24.148132 -5.0386792e-05 l -22.55127 -4.6553105e-06 l -46.809082 0.00026220584 l 23.08606 0.00020308635 l -23.191223 660.6717 l 0.0 -129.61084 l 0.0 -132.82056 l -0.0029907227 -135.33475 l 0.00079345703 -129.55968 " /> </g> </svg>