<?xml version="1.0" standalone="no"?><!DOCTYPE svg PUBLIC "-//W3C//DTD SVG 1.1//EN" "http://www.w3.org/Graphics/SVG/1.1/DTD/svg11.dtd" ><svg xmlns="http://www.w3.org/2000/svg" xmlns:xlink="http://www.w3.org/1999/xlink" version="1.1" viewBox="-10 0 692 1000"><g transform="matrix(1 0 0 -1 0 800)"><path stroke="black" fill="none" d="M 87.0 782.0 l 0.0 0.0 l 1.7200012 72.31 l 464.92722 -23.22406 l 0.355896 -9.451416 l -451.5231 168.35547 l 12.039993 63.369995 l 15.480003 60.390015 l 18.919998 57.410034 l 22.36 54.42993 l 25.800003 51.450073 l 113.32185 87.10913 l 0.1354065 0.23083496 l -2.8768005 -38.341797 l 0.0 0.0 l 21.544891 -0.022705078 l -71.43536 37.304443 l 32.75 33.83008 l 38.88327 -0.33642578 l -0.14099121 -0.2529297 l 32.845154 55.663696 l 0.19561768 0.33251953 l 50.51468 85.94214 l 0.13085938 0.22595215 l -27.814636 -54.403076 l 69.83066 56.469727 l 63.531677 2.9910889 l 0.6478882 0.0146484375 l 12.686768 -217.79712 l 0.0 0.0 l -102.99063 -0.00024414062 l 0.0 0.0 l 125.86966 -226.76562 l 0.048339844 -6.5214844 l 19.273438 451.10217 l -0.61920166 0.01171875 l 65.95648 -2.352295 l 65.01099 2.2147217 l 0.6268921 0.020019531 l 15.963074 -53.029175 l 57.81781 52.75708 l 0.63983154 0.037109375 l 9.221802 -148.61731 l 42.27057 30.153076 l 34.049988 -29.849976 l 32.75 -33.83008 l 0.0 0.0 l 32.680054 -45.589966 l -140.80011 -189.2284 l -0.3330078 -9.648193 l 196.1731 98.15662 l 22.359985 -55.130005 l 18.919983 -58.31006 l 15.47998 -61.48999 l 12.040039 -64.66998 l 8.599976 -67.849976 l 5.160034 -71.03003 l 0.0 0.0 l -277.38995 44.072388 l -0.55596924 9.888794 l 271.06592 -198.84119 l -8.599976 -67.69995 l -12.040039 -64.54004 l -15.47998 -61.379974 l -234.9624 73.81784 l -0.42791748 9.740723 l 194.11029 -196.83856 l -25.799988 -51.900024 l -29.23999 -48.73999 l 0.0 0.0 l -31.440002 -37.809998 l -32.71997 -33.83 l -34.0 -29.850006 l -42.338135 112.98393 l 0.0005493164 -0.039276123 l -8.770081 -146.8948 l -55.738647 -148.67567 l 0.0 0.0 l 41.174988 -0.0021794625 l 0.0 0.0 l -83.12872 103.02801 l -40.399963 -9.949997 l 3.3534546 -93.051796 l 0.0 0.0 l -32.95996 -0.023236774 l 0.0 0.0 l -48.52179 0.056346193 l 0.0 0.0 l 0.36541748 0.0028912574 l -8.555603 517.5571 l 0.0 0.0 l 0.0020751953 -59.927124 l -1.0106812 -298.57477 l 0.0 0.0 l -79.57294 -54.099457 l -39.25998 13.930008 l -38.02002 17.909988 l -36.78 21.890015 l -35.539978 25.869995 l -34.30002 29.850006 l -33.059998 33.829987 l 0.0 0.0 l -32.679993 45.679993 l -29.240005 49.04001 l -25.800003 52.399994 l -22.36 55.76001 l -18.919998 59.119995 l -15.479996 62.47998 l -12.040001 65.84003 l -8.599998 69.20001 l -5.1600037 72.56 " /> </g> </svg>