<?xml version="1.0" standalone="no"?><!DOCTYPE svg PUBLIC "-//W3C//DTD SVG 1.1//EN" "http://www.w3.org/Graphics/SVG/1.1/DTD/svg11.dtd" ><svg xmlns="http://www.w3.org/2000/svg" xmlns:xlink="http://www.w3.org/1999/xlink" version="1.1" viewBox="-10 0 692 1000"><g transform="matrix(1 0 0 -1 0 800)"><path stroke="black" fill="none" d="M 554.99994 928.1948 l 6.1035156e-05 -132.57721 l -254.19806 552.1982 l 12.7968445 21.794434 l 1.0892334 -43.597534 l -26.677643 0.0 l 53.387543 0.0 l -2.1995544 87.1969 l -12.796814 -21.794556 l 25.600494 43.60083 l 12.7969055 21.7948 l 38.402985 65.40503 l 12.796814 21.794556 l -25.61908 -43.63257 l -12.770111 -21.749146 l 75.59094 65.383545 l 37.204865 0.00061035156 l 37.191803 0.0 l 27.402954 -218.0 l 0.0 0.0 l 0.0 0.0 l 0.0 0.0 l -26.68451 0.0 l -26.768433 0.0 l -26.78955 0.0 l -26.505615 0.0 l -53.49417 0.0 l -26.637115 0.0 l 53.357758 0.0 l 133.52164 -132.61731 l 0.0 -132.57678 l 46.994873 483.1941 l -37.191772 0.0 l 74.39703 -0.00048828125 l 37.20514 0.00036621094 l 37.191772 0.00012207031 l 37.20819 -0.00012207031 l 37.191833 0.0 l 0.003112793 -154.39893 l 0.00018310547 -154.42114 l -6.1035156e-05 -154.37305 l 0.00024414062 -308.78668 l -0.00012207031 154.37329 l 0.0 -463.17325 l -6.1035156e-05 154.37326 l -0.00024414062 -308.79578 l -0.0016479492 -154.3986 l -46.637207 -154.39894 l -23.246216 -5.798938e-09 l -23.306091 1.6484773e-07 l 93.17975 -6.8394e-08 l -23.282104 -4.060348e-08 l -93.216736 6.0352977e-07 l -23.279419 8.6921864e-07 l -23.32129 -1.2660312e-06 l -23.281189 -1.1697193e-07 l -46.605286 6.588256e-06 l 23.294617 5.1028037e-06 l -23.297241 662.9415 l 0.0 -132.5249 l 0.0 -132.60553 l -6.1035156e-05 -132.66873 l 0.0 -132.5236 " /> </g> </svg>