<?xml version="1.0" standalone="no"?><!DOCTYPE svg PUBLIC "-//W3C//DTD SVG 1.1//EN" "http://www.w3.org/Graphics/SVG/1.1/DTD/svg11.dtd" ><svg xmlns="http://www.w3.org/2000/svg" xmlns:xlink="http://www.w3.org/1999/xlink" version="1.1" viewBox="-10 0 692 1000"><g transform="matrix(1 0 0 -1 0 800)"><path stroke="black" fill="none" d="M 554.966 925.75995 l 0.030517578 -122.03552 l -253.28906 551.3721 l 11.319611 19.278809 l -3.886963 -42.4834 l -16.323425 -0.00048828125 l 47.6192 0.0008544922 l -1.9953308 85.79114 l -11.325867 -19.301514 l 25.834534 43.986816 l 11.371979 19.367554 l 39.787903 67.75635 l 11.314575 19.27356 l -34.461395 -58.74707 l -0.35009766 -0.59033203 l 72.8212 60.18689 l 39.458923 0.2565918 l 33.415924 0.005859375 l 16.405762 -217.98718 l 0.0 0.0 l -7.158203 0.0 l -58.466583 0.0 l -19.759491 0.0 l 0.0 0.0 l -82.08487 0.0 l -0.65625 0.0 l 36.929077 0.0 l 143.53946 -140.67798 l 0.0041503906 -121.78406 l 44.62146 480.44617 l -33.388184 0.005126953 l 73.002014 -0.20593262 l 39.585754 0.19006348 l 33.396423 0.008422852 l 41.004272 -0.030151367 l 33.410828 0.015258789 l 1.4439087 -153.91602 l 0.08154297 -164.17493 l -0.028564453 -141.98218 l 0.11517334 -302.57635 l -0.047668457 142.00293 l -0.0014038086 -450.79895 l -0.036743164 141.99017 l -0.12243652 -306.84274 l -0.75231934 -153.75952 l -63.874573 -153.90927 l -0.7319336 -1.4590114e-06 l -23.710022 7.524637e-05 l 83.77838 -3.172874e-05 l -15.001953 -1.88384e-05 l -100.94275 0.00027999657 l -0.38287354 2.4335925e-05 l -13.375793 0.00037892186 l -33.186584 -0.0005873514 l -14.572693 -5.4266275e-05 l -49.036316 0.0030564948 l 0.854126 0.0021728459 l 19.951843 0.00019450206 l -22.032104 635.85944 l 0.0 -97.75586 l 0.00024414062 -135.17096 l -0.035461426 -164.47849 l 0.009765625 -97.159546 " /> </g> </svg>