<?xml version="1.0" standalone="no"?><!DOCTYPE svg PUBLIC "-//W3C//DTD SVG 1.1//EN" "http://www.w3.org/Graphics/SVG/1.1/DTD/svg11.dtd" ><svg xmlns="http://www.w3.org/2000/svg" xmlns:xlink="http://www.w3.org/1999/xlink" version="1.1" viewBox="-10 0 692 1000"><g transform="matrix(1 0 0 -1 0 800)"><path stroke="black" fill="none" d="M 747.22754 1257.8442 l 16.236572 -12.376831 l -33.257812 23.343506 l -36.13495 17.510254 l 18.39215 -8.009277 l -184.99878 14.455566 l -36.775513 -13.840698 l -61.602997 -44.319214 l 28.794037 24.924927 l -74.40582 -91.42749 l -16.788116 -41.520386 l 37.593964 77.5459 l -96.668884 -124.64661 l 23.032776 0.0 l 23.213501 0.0 l -69.612366 0.0 l -23.141602 0.0 l -23.351166 0.0 l -23.032822 0.0 l -23.361633 0.0 l -23.022354 0.0 l -23.294601 0.0 l -23.159164 0.0 l 0.0 0.0 l 0.0 0.0 l 0.0 0.0 l 15.011734 92.725464 l 22.626099 82.94556 l 30.269608 73.237915 l 37.847305 63.4021 l 45.496506 53.688843 l 53.10956 43.920044 l 60.72943 34.160156 l 68.34973 24.399902 l 75.97 14.640015 l 0.0 0.0 l 0.0 0.0 l 0.0 0.0 l 41.519897 -1.34021 l 40.159912 -4.0200195 l 38.80005 -6.699829 l 37.440002 -9.379883 l 36.079956 -12.059814 l 34.724854 -14.742554 l 33.35254 -17.416138 l 62.642822 -42.88147 l 0.0 0.0 l 0.0 0.0 l 0.0 0.0 l -30.634644 22.775879 l 82.46283 -78.92212 l -24.46399 28.701172 l 46.085022 -58.73047 l 18.707886 -31.259888 l 28.782288 -66.351074 l -12.932434 33.76819 l -142.43011 -139.23401 l -8.33667 17.700562 l 24.288208 -75.06665 l -3.7716675 19.702026 l -5.3218994 19.166138 l -25.147278 53.35974 l -11.312378 16.224365 l -12.94519 15.686157 l 0.0 0.0 l 0.0 0.0 l 0.0 0.0 l 195.39624 -219.99866 l -8.688782 -24.490234 l 16.082275 49.218994 l 6.0161743 24.69336 l 4.7124634 25.005005 l 3.326294 24.772827 l 2.0126953 25.063599 l 0.67266846 25.175049 l 0.0 0.0 l 0.0 0.0 l 0.0 0.0 l -4.357849 37.870483 l -7.149597 36.14502 l -148.17712 -185.10059 l -2.841919 -15.904785 l 4.5564575 31.499878 l 0.0 0.0 l 0.0 0.0 l 0.0 0.0 l -0.7593994 21.230713 l -7.8188477 -69.17267 l -5.088867 -16.575928 l -6.281494 -17.128418 l -135.50226 -211.73077 l 11.876831 15.372986 l -24.495728 -31.564636 l -12.892883 -16.410095 l 59.271057 76.886475 l -10.383301 -13.887573 l 0.0 0.0 l 0.0 0.0 l 0.0 0.0 l 29.75232 40.457092 l -9.348267 -12.943665 l 26.67572 37.671387 l -8.328552 -12.019653 l 16.41217 23.9729 l 7.194397 10.920593 l 13.284363 21.106812 l 0.0 0.0 l -6.1035156e-05 -0.00012207031 l -0.0004272461 -0.00061035156 l -6.2905273 -10.169556 l 17.145325 28.826355 l 9.714661 18.284973 l 8.482422 17.708923 l -101.44733 -341.7082 l 18.924133 22.606262 l 18.279175 22.03003 l 17.595764 21.407959 l 16.882812 20.750061 l 247.05353 -492.44244 l 57.472412 -0.034362793 l 0.00024414062 -21.846115 l -115.09003 21.881271 l -57.38495 0.0 l -57.50653 0.0 l 229.98212 -153.26526 l 0.0 21.844124 l 0.0 -43.82718 l 0.0 -21.969627 l 0.0 -21.732431 l 0.0 175.11514 l 0.0 -21.845856 l 0.0 -21.953217 l 0.0 -21.84182 l -103.74628 -109.523865 l -103.63916 -2.0918378e-11 l -103.71472 7.1895556e-10 l -103.69983 0.0 l -103.6983 1.899025e-09 l -207.38712 -2.5961526e-09 l 103.681946 -2.1827873e-11 l -311.2469 0.003326051 l -103.499954 -0.0010543503 l 106.89418 129.48534 l -53.25489 -64.48134 l 153.70178 -64.9851 l 427.13815 218.97884 l 57.559204 0.0 l 57.38257 0.0 l -172.48615 0.0 l -57.775208 0.0 l -57.112854 0.0 l -194.07251 105.52902 l 53.567474 64.860596 l -160.7119 -194.59329 l 53.49199 64.769196 l 268.0211 324.52542 l -53.61673 -64.920105 l -53.56784 -64.86105 l 511.0404 471.19382 l 7.071533 12.756348 l 0.0 0.0 l 0.0 0.0 l -6.1035156e-05 0.0 l 11.382019 24.33319 l -53.20404 -93.12726 l 9.557617 14.596802 l 9.07428 14.356262 l 8.300964 13.653015 l -37.313904 -57.962524 l -10.813416 -15.537842 l -23.695496 -32.742615 l 0.0 0.0 l 6.1035156e-05 0.00012207031 l 0.0004272461 0.0005493164 l 12.068481 16.476929 l -39.398865 -52.014893 l 13.793152 17.803772 l -28.954346 -37.109924 l -15.400391 -19.3609 l -212.71643 -82.62457 l 0.0 0.0 l 0.0 0.0 l 0.0 0.0 l 15.53595 19.128845 l 15.124939 18.731995 l 14.420349 17.969543 l 14.023132 17.590088 l 28.76117 570.47815 l -19.83252 5.0977783 l -41.9328 5.843506 l 0.0 0.0 l 0.0 0.0 l 0.0 0.0 l 21.260986 -2.184204 l -66.031006 -0.5842285 " /> </g> </svg>