<?xml version="1.0" standalone="no"?><!DOCTYPE svg PUBLIC "-//W3C//DTD SVG 1.1//EN" "http://www.w3.org/Graphics/SVG/1.1/DTD/svg11.dtd" ><svg xmlns="http://www.w3.org/2000/svg" xmlns:xlink="http://www.w3.org/1999/xlink" version="1.1" viewBox="-10 0 692 1000"><g transform="matrix(1 0 0 -1 0 800)"><path stroke="black" fill="none" d="M 747.22754 1257.8442 l 16.267212 -12.400269 l -33.273438 23.355225 l -36.15271 17.51709 l 18.426025 -8.023926 l -184.9997 14.465698 l -36.792786 -13.847168 l -61.60089 -44.319824 l 28.798279 24.928467 l -74.4017 -91.41504 l -16.79654 -41.54138 l 37.598236 77.55591 l -96.7616 -124.64905 l 23.151001 0.0 l 23.20398 0.0 l -69.60364 0.0 l -23.182892 0.0 l -23.244263 0.0 l -23.151047 0.0 l -23.247345 0.0 l -23.147964 0.0 l -23.227707 0.0 l -23.188042 0.0 l 0.0 0.0 l 0.0 0.0 l 0.0 0.0 l 15.010506 92.72168 l 22.62886 82.95569 l 30.255737 73.21106 l 37.863358 63.428955 l 45.491913 53.682617 l 53.109863 43.920044 l 60.729828 34.160034 l 68.349945 24.400024 l 75.96997 14.639893 l 0.0 0.0 l 0.0 0.0 l 0.0 0.0 l 41.51996 -1.3400879 l 40.159973 -4.0200195 l 38.80005 -6.699829 l 37.440002 -9.380005 l 36.079956 -12.059937 l 34.721436 -14.740845 l 33.35785 -17.418701 l 62.64081 -42.880493 l 0.0 0.0 l 0.0 0.0 l 0.0 0.0 l -30.638428 22.778687 l 82.474915 -78.93469 l -24.47528 28.714478 l 46.081482 -58.723022 l 18.71643 -31.27417 l 28.7948 -66.38562 l -12.951904 33.81897 l -142.4159 -139.2666 l -8.353149 17.735596 l 24.310669 -75.16089 l -3.791687 19.80664 l -5.3205566 19.154663 l -25.099731 53.282227 l -11.374268 16.31311 l -12.927429 15.660645 l 0.0 0.0 l 0.0 0.0 l 0.0 0.0 l 195.406 -219.97137 l -8.703796 -24.53247 l 16.080688 49.205505 l 6.025879 24.733398 l 4.696594 24.895386 l 3.3430786 24.898193 l 2.0108032 25.053955 l 0.67077637 25.157349 l 0.0 0.0 l 0.0 0.0 l 0.0 0.0 l -4.3311157 37.73584 l -7.1852417 36.325195 l -148.16498 -185.1283 l -2.8476562 -15.93689 l 4.55896 31.51416 l 0.0 0.0 l 0.0 0.0 l 0.0 0.0 l -0.75982666 21.244385 l -7.798462 -69.12128 l -5.11792 -16.670776 l -6.2733765 -17.101257 l -135.54657 -211.7868 l 11.946228 15.46283 l -24.47052 -31.533081 l -12.965088 -16.501953 l 59.337463 76.973816 l -10.42688 -13.945862 l 0.0 0.0 l 0.0 0.0 l 0.0 0.0 l 29.789612 40.508667 l -9.402588 -13.01886 l 26.724731 37.74109 l -8.382629 -12.097656 l 16.332886 23.850647 l 7.3291626 11.125244 l 13.25354 21.060486 l 0.0 0.0 l 0.0 -6.1035156e-05 l 0.0 0.0 l -6.343872 -10.255798 l 17.18042 28.878418 l 9.697266 18.246094 l 8.530151 17.808655 l -101.48456 -341.76605 l 18.953064 22.640747 l 18.276184 22.02649 l 17.588196 21.398804 l 16.891418 20.76062 l 247.02979 -492.4478 l 57.491943 -0.010070801 l 0.00012207031 -21.884216 l -115.02643 21.894516 l -57.46631 0.0 l -57.501892 0.0 l 229.99475 -153.28983 l 0.0 21.883629 l 0.0 -43.80796 l 0.0 -21.920393 l 0.0 -21.85092 l 0.0 175.17514 l 0.0 -21.88414 l 0.0 -21.915588 l 0.0 -21.882965 l -103.71356 -109.50698 l -103.68219 -5.9117156e-12 l -103.704285 2.1054802e-10 l -103.69995 0.0 l -103.699524 5.56156e-10 l -207.39618 -7.6033757e-10 l 103.6947 -6.366463e-12 l -311.143 0.00097417785 l -103.64142 -0.00030881213 l 107.11043 129.70784 l -53.498917 -64.77738 l 153.77122 -64.92493 l 427.11118 218.99379 l 57.517334 0.0 l 57.465576 0.0 l -172.49591 0.0 l -57.580627 0.0 l -57.386597 0.0 l -194.02121 105.508514 l 53.590485 64.88846 l -160.77422 -194.66875 l 53.568375 64.86168 l 268.0062 324.50745 l -53.60492 -64.90588 l -53.590607 -64.88858 l 511.0154 471.1451 l 7.102234 12.812012 l 0.0 0.0 l 0.0 0.0 l 0.0 0.0 l 11.387634 24.345032 l -53.24713 -93.19635 l 9.612366 14.68042 l 9.025269 14.277588 l 8.3533325 13.739197 l -37.289978 -57.932434 l -10.871094 -15.6206665 l -23.68512 -32.727417 l 0.0 0.0 l 0.0 0.0 l 6.1035156e-05 0.0 l 12.13031 16.561401 l -39.636536 -52.32605 l 14.034912 18.115723 l -28.958374 -37.117004 l -15.481445 -19.46283 l -212.69421 -82.59662 l 0.0 0.0 l 0.0 0.0 l 0.0 0.0 l 15.542419 19.13678 l 15.061279 18.652771 l 14.494385 18.061829 l 14.017334 17.582947 l 28.774536 570.45825 l -19.866089 5.1064453 l -41.92383 5.8409424 l 0.0 0.0 l 0.0 0.0 l 0.0 0.0 l 21.302795 -2.1882324 l -66.093994 -0.58117676 " /> </g> </svg>