<?xml version="1.0" standalone="no"?><!DOCTYPE svg PUBLIC "-//W3C//DTD SVG 1.1//EN" "http://www.w3.org/Graphics/SVG/1.1/DTD/svg11.dtd" ><svg xmlns="http://www.w3.org/2000/svg" xmlns:xlink="http://www.w3.org/1999/xlink" version="1.1" viewBox="-10 0 692 1000"><g transform="matrix(1 0 0 -1 0 800)"><path stroke="black" fill="none" d="M 750.6927 1255.1813 l 0.25299072 -0.18896484 l -27.113953 18.82373 l -24.500793 12.981445 l 0.34747314 -0.15002441 l -188.56128 9.567993 l -25.437927 -9.578125 l -62.985138 -43.887573 l 26.03241 22.533081 l -77.10495 -99.48511 l -11.285065 -27.884521 l 34.794586 71.06946 l -69.82919 -123.0697 l 0.0 0.0 l 8.949768 0.00012207031 l -75.34506 -0.00024414062 l -0.4482422 0.0 l -55.133087 0.0 l 0.0 0.0 l -33.328552 0.0 l 0.0 0.0 l -52.221405 0.0 l -2.5562897 0.0 l 0.0 0.0 l 14.114716 95.23132 l 0.13903809 0.43249512 l 20.6866 75.83533 l 39.348892 90.824585 l 27.334396 45.814453 l 48.503967 57.78479 l 52.90753 43.917603 l 60.471466 34.229614 l 68.214966 24.38086 l 75.985535 14.667969 l 0.0 0.0 l 0.0 0.0 l -6.1035156e-05 -0.00012207031 l 41.46118 -1.4658203 l 40.138184 -3.9904785 l 38.78827 -6.650635 l 37.438232 -9.310913 l 36.088196 -11.971313 l 36.953064 -15.954102 l 29.920837 -15.629517 l 62.463318 -42.47754 l 0.0 0.0 l -0.19793701 0.14660645 l -26.49353 19.692627 l 74.546936 -70.706665 l -17.064697 20.023682 l 48.394287 -63.624023 l 13.118286 -21.904175 l 20.586243 -43.70166 l -0.48773193 1.2808838 l -151.44214 -118.74011 l -0.09637451 0.2088623 l 17.526428 -48.133423 l 0.0 0.0 l -2.2545776 7.258301 l -36.742615 76.02429 l 0.0 0.0 l -14.791504 18.477783 l 0.0 0.0 l 0.0020751953 -0.0025634766 l 188.90448 -237.72949 l -0.17803955 -0.5120239 l 18.460266 61.713318 l 0.18493652 0.7434082 l 9.520142 58.386597 l 0.0 0.0 l 0.6138916 10.183105 l 1.0600586 42.67688 l 0.0 0.0 l -8.27063 54.89087 l 0.0 0.0 l -152.67523 -183.5199 l -0.033447266 -0.19592285 l 3.6879883 32.151733 l 0.0 0.0 l -0.28759766 7.5755615 l -12.346191 -73.88208 l 0.0 0.0 l -6.522461 -18.316895 l 0.002746582 0.007873535 l -130.08936 -205.63379 l 0.0 0.0 l -26.186646 -33.60022 l 0.0 0.0 l 44.698303 57.724426 l 0.0 0.0 l 19.725159 26.671326 l 0.0 0.0 l 22.266663 31.44513 l 0.0 0.0 l 22.621582 33.821655 l 0.0 0.0 l 30.701843 53.57837 l 5.2680054 10.711609 l 0.0 0.0 l -84.01703 -318.37823 l 0.74383545 0.88775635 l 19.495605 23.469421 l 22.550476 27.43042 l 0.10424805 0.128479 l 11.144043 13.69989 l 262.60248 -488.93732 l 44.6875 -15.939209 l 0.034301758 -0.51142883 l -156.68951 16.819733 l -4.1262207 -1.5258789e-05 l -60.53302 0.00015258789 l 221.71265 -137.18588 l 0.0 0.41589355 l 0.0 -60.84572 l 0.0 -13.899988 l 0.0 0.0 l 0.0 151.37299 l 0.0 -0.50038147 l 0.0 -42.868355 l 0.0 -0.32283783 l -125.16107 -115.16587 l -75.4751 -9.780251e-09 l -110.55359 3.3353263e-07 l -103.62274 0.0 l -102.88098 8.8108254e-07 l -201.45447 -1.2044316e-06 l 95.33719 -1.0207259e-08 l -379.25403 1.5430579 l -10.895226 -0.48914576 l 42.304626 75.780235 l 0.0 0.0 l 137.75966 -67.01513 l 444.8081 209.18092 l 84.97589 4.5776367e-05 l 3.045166 0.0 l -166.10114 -3.0517578e-05 l -0.03253174 0.0 l -93.51105 3.0517578e-05 l 0.0 0.0 l -197.16898 118.958466 l 38.495453 46.611847 l -119.912994 -145.18858 l 3.4812317 4.2151947 l 277.78052 336.2851 l -61.348236 -74.22946 l -38.677032 -46.830048 l 515.41473 481.7531 l 0.0 0.0 l 6.6244507 14.212158 l 0.0 0.0 l -41.815247 -73.57373 l 0.0 0.0 l 14.699829 23.592041 l 0.0 0.0 l -48.10614 -72.55249 l 0.0 0.0 l -26.601868 -36.070618 l -34.704956 -44.721985 l -10.542297 -13.294861 l 0.0 0.0 l -210.1925 -79.66693 l 0.0 0.0 l 3.645996 4.4890137 l 35.48346 44.062317 l 0.0 0.0 l 5.057129 6.3604126 l 20.043762 583.472 l -0.6010132 0.17028809 l -33.201904 5.1134033 l 0.0 0.0 l -42.793884 -0.4263916 l 0.0 0.0 " /> </g> </svg>