<?xml version="1.0" standalone="no"?><!DOCTYPE svg PUBLIC "-//W3C//DTD SVG 1.1//EN" "http://www.w3.org/Graphics/SVG/1.1/DTD/svg11.dtd" ><svg xmlns="http://www.w3.org/2000/svg" xmlns:xlink="http://www.w3.org/1999/xlink" version="1.1" viewBox="-10 0 692 1000"><g transform="matrix(1 0 0 -1 0 800)"><path stroke="black" fill="none" d="M 704.6848 1281.3734 l 0.0 0.0 l -116.49725 2.927246 l -59.292328 -33.256836 l 0.0 0.0 l 6.458008 56.76111 l -26.699982 0.0 l -52.381744 -138.68921 l 0.0 0.0 l -1.01828 138.68921 l -26.699982 0.0 l -26.700012 0.0 l -206.87968 -240.90552 l 0.0 0.0 l 57.42981 227.89368 l 0.0 0.0 l 108.84987 34.81189 l 12.800018 21.799927 l -57.019714 22.075806 l 82.61969 21.52417 l -42.955322 29.203491 l 68.55533 14.396606 l -23.502838 29.429688 l 49.102844 14.170288 l 1.3377991 22.754639 l 24.262207 20.845337 l 38.713226 2.7930908 l 35.686768 -2.7930908 l 40.591705 16.99524 l 0.0 0.0 l 39.48639 -4.7976074 l 39.29303 -2.8426514 l 38.33136 -4.737549 l 37.36975 -6.6326904 l 36.40796 -8.52771 l 60.947083 -28.881226 l 0.0 0.0 l 84.49408 -62.950806 l 0.0 0.0 l 108.65607 -177.92249 l 0.0 0.0 l -202.75378 -28.103516 l 0.0 0.0 l 210.29065 -181.78833 l 0.0 0.0 l -158.59802 -47.468384 l 0.0 0.0 l -85.076416 -161.04352 l 0.0 0.0 l 40.775024 -124.77771 l 0.0 0.0 l 7.385132 -257.321 l 96.99115 -241.9437 l 0.0 0.0 l 202.83575 -121.88946 l 0.0 0.0 l -234.34882 -99.366875 l -80.15137 0.0 l -31.926697 3.5066176e-05 l -23.300049 0.0 l -23.299988 0.0 l -22.0979 -3.5066176e-05 l -24.502075 3.5066176e-05 l -23.299988 0.0 l -23.299988 0.0 l -104.67206 -4.5336823e-05 l 0.0 0.0 l -425.13522 16.760563 l 0.0 0.0 l 482.43094 202.05319 l 0.0 0.0 l -245.93457 90.17793 l 0.0 0.0 l 246.71088 88.80838 l -57.64792 135.80197 l 0.0 0.0 l 402.75986 333.2843 l 0.0 0.0 l -311.4925 -161.41412 l -33.619446 222.72784 l 0.0 132.59998 l 0.0 132.6001 l 9.404541 114.9718 " /> </g> </svg>