<?xml version="1.0" standalone="no"?><!DOCTYPE svg PUBLIC "-//W3C//DTD SVG 1.1//EN" "http://www.w3.org/Graphics/SVG/1.1/DTD/svg11.dtd" ><svg xmlns="http://www.w3.org/2000/svg" xmlns:xlink="http://www.w3.org/1999/xlink" version="1.1" viewBox="-10 0 692 1000"><g transform="matrix(1 0 0 -1 0 800)"><path stroke="black" fill="none" d="M 747.3073 1257.783 l 15.77417 -12.023804 l -33.02191 23.16687 l -35.867126 17.406006 l 17.882385 -7.7869873 l -184.98645 14.301758 l -36.514496 -13.742676 l -61.634827 -44.309082 l 28.7305 24.869751 l -74.46796 -91.612915 l -16.661469 -41.206543 l 37.52954 77.39685 l -95.27173 -124.61035 l 21.25116 0.0 l 23.357239 0.0 l -69.744354 0.0 l -22.519104 0.0 l -24.962097 0.0 l -21.25113 0.0 l -25.084305 0.0 l -21.129211 0.0 l -24.302673 0.0 l -22.722984 0.0 l 0.0 0.0 l 2.2888184e-05 0.0 l 3.8146973e-05 0.0 l 15.029121 92.7832 l 22.584656 82.79175 l 30.478622 73.64282 l 37.6053 62.997192 l 45.565735 53.78308 l 53.10489 43.920044 l 60.72351 34.161743 l 68.34662 24.399536 l 75.97037 14.640625 l 0.0 0.0 l 0.0 0.0 l 0.0 0.0 l 41.518555 -1.3431396 l 40.159424 -4.019287 l 38.799744 -6.6987305 l 37.43994 -9.378296 l 36.0802 -12.057739 l 34.776123 -14.770508 l 33.27356 -17.375 l 62.67157 -42.896484 l 0.0 0.0 l 0.0 0.0 l -6.1035156e-05 0.0 l -30.576721 22.732666 l 82.28064 -78.733154 l -24.29364 28.501465 l 46.138123 -58.84314 l 18.579224 -31.044434 l 28.593628 -65.82971 l -12.639221 33.002808 l -142.64435 -138.74475 l -8.088013 17.173706 l 23.949402 -73.64636 l -3.4694824 18.126831 l -5.342407 19.337646 l -25.864319 54.52881 l -10.37854 14.885254 l -13.213318 16.071533 l 0.0 0.0 l 0.0 0.0 l 0.0 0.0 l 195.24915 -220.40973 l -8.462524 -23.853394 l 16.10669 49.421814 l 5.8690796 24.088745 l 4.951721 26.65747 l 3.0732422 22.884277 l 2.0411987 25.208496 l 0.7008667 25.446045 l 0.0 0.0 l 0.0 0.00012207031 l -6.1035156e-05 0.00024414062 l -4.760559 39.895386 l -6.6120605 33.429565 l -148.36023 -184.68274 l -2.755066 -15.421265 l 4.5183716 31.287964 l 0.0 0.0 l 0.0 0.00012207031 l 0.0 0.00012207031 l -0.7525635 21.021484 l -8.12677 -69.946655 l -4.6501465 -15.147095 l -6.4049683 -17.537354 l -134.83362 -210.88666 l 10.831299 14.019531 l -24.875977 -32.040833 l -11.804932 -15.02533 l 58.270203 75.57001 l -9.721985 -13.003052 l -0.0004272461 -0.00061035156 l 0.0 0.0 l 6.1035156e-05 0.00012207031 l 29.186768 39.67462 l -8.530212 -11.811096 l 25.936584 36.620728 l -7.513489 -10.843872 l 17.608093 25.815796 l 5.162964 7.8361816 l 13.414368 21.265076 l 0.0 0.0 l -0.07080078 -0.11450195 l -5.088867 -8.226685 l 16.615906 28.041931 l 9.977173 18.870422 l 7.7626343 16.205994 l -100.886475 -340.83563 l 18.48883 22.086182 l 18.323975 22.083252 l 17.709778 21.54663 l 16.753174 20.590698 l 247.41144 -492.36176 l 57.1781 -0.40048218 l 0.0028076172 -21.271957 l -116.04944 21.681717 l -56.158875 0.0 l -57.576233 0.0 l 229.79175 -152.89511 l 0.0 21.24868 l 0.0 -44.116795 l 0.0 -22.711637 l 0.0 -19.946695 l 0.0 174.21092 l 0.0 -21.268936 l 0.0 -22.520233 l 0.0 -21.2219 l -104.23926 -109.77829 l -102.99078 -2.4601832e-10 l -103.87219 8.380539e-09 l -103.69806 0.0 l -103.67944 2.2138465e-08 l -207.25058 -3.026298e-08 l 103.48987 -2.564775e-10 l -312.81244 0.038771287 l -101.368164 -0.012290403 l 103.63513 126.13195 l -49.57702 -60.019707 l 152.65503 -65.892006 l 427.5449 218.75328 l 58.19037 0.0 l 56.131104 0.0 l -172.33856 0.0 l -60.70764 0.0 l -52.987305 0.0 l -194.84552 105.838165 l 53.22049 64.44052 l -159.77267 -193.456 l 52.3407 63.375214 l 268.24573 324.79617 l -53.794678 -65.13446 l -53.225037 -64.44595 l 511.41742 471.9277 l 6.6050415 11.9122925 l 0.00030517578 0.00048828125 l 0.0 0.0 l -6.1035156e-05 -0.00012207031 l 11.299561 24.159424 l -52.554382 -92.086 l 8.733093 13.337463 l 9.812561 15.541382 l 7.5114746 12.354004 l -37.674988 -58.415894 l -9.944214 -14.289429 l -23.49707 -32.487 l 0.0 0.0 l 0.07171631 0.09790039 l 10.717529 14.632507 l -35.81726 -47.325195 l 10.150269 13.10144 l -28.89392 -37.002625 l -14.178894 -17.825317 l -213.04724 -83.04071 l 0.0 0.0 l 6.1035156e-05 0.00012207031 l 0.0004272461 0.00048828125 l 15.434509 19.003967 l 16.083801 19.925537 l 13.304565 16.579163 l 14.110352 17.697876 l 28.560547 570.7772 l -19.326843 4.968506 l -42.03882 5.8775635 l 0.0 0.0 l 0.0008544922 -0.00012207031 l 0.026550293 -0.0028076172 l 20.574158 -2.1158447 l -65.08209 -0.6307373 " /> </g> </svg>