<?xml version="1.0" standalone="no"?><!DOCTYPE svg PUBLIC "-//W3C//DTD SVG 1.1//EN" "http://www.w3.org/Graphics/SVG/1.1/DTD/svg11.dtd" ><svg xmlns="http://www.w3.org/2000/svg" xmlns:xlink="http://www.w3.org/1999/xlink" version="1.1" viewBox="-10 0 692 1000"><g transform="matrix(1 0 0 -1 0 800)"><path stroke="black" fill="none" d="M 747.2456 1257.8303 l 16.131775 -12.296875 l -33.204346 23.303467 l -36.07428 17.486572 l 18.276672 -7.9588623 l -184.99597 14.420776 l -36.7164 -13.8186035 l -61.6102 -44.316772 l 28.779663 24.912354 l -74.41992 -91.46948 l -16.75943 -41.44934 l 37.579376 77.51221 l -96.35239 -124.63843 l 22.62918 0.0 l 23.246063 0.0 l -69.64227 0.0 l -23.00058 0.0 l -23.716095 0.0 l -22.629196 0.0 l -23.751892 0.0 l -22.593475 0.0 l -23.522964 0.0 l -23.060524 0.0 l 0.0 0.0 l 7.6293945e-06 0.0 l 0.0 0.0 l 15.015839 92.738525 l 22.616714 82.91077 l 30.316956 73.32959 l 37.79248 63.310425 l 45.51219 53.710083 l 53.10849 43.920044 l 60.72812 34.160522 l 68.349 24.399902 l 75.97009 14.640137 l 0.0 0.0 l 0.0 0.0 l 0.0 0.0 l 41.519592 -1.3409424 l 40.15979 -4.0197754 l 38.799988 -6.699585 l 37.440002 -9.379517 l 36.080017 -12.059326 l 34.73645 -14.748901 l 33.334656 -17.40686 l 62.649475 -42.884888 l 0.0 0.0 l 0.0 0.0 l 0.0 0.0 l -30.621704 22.766113 l 82.42157 -78.87927 l -24.425354 28.655884 l 46.096985 -58.75598 l 18.678772 -31.21106 l 28.739563 -66.23303 l -12.866028 33.59485 l -142.47864 -139.12317 l -8.280334 17.581177 l 24.211426 -74.74487 l -3.703186 19.345215 l -5.326538 19.204956 l -25.309753 53.624634 l -11.100769 15.920898 l -13.005981 15.77356 l 0.0 0.0 l 0.0 0.0 l 0.0 0.0 l 195.36292 -220.0918 l -8.637512 -24.346008 l 16.08783 49.264954 l 5.982849 24.556396 l 4.7666626 25.379395 l 3.268921 24.34497 l 2.019165 25.096436 l 0.6791382 25.235962 l 0.0 0.0 l 0.0 0.0 l 0.0 0.0 l -4.4491577 38.329712 l -7.027832 35.529907 l -148.21863 -185.00598 l -2.8222046 -15.795166 l 4.5478516 31.451416 l 0.0 0.0 l 0.0 0.0 l 0.0 0.0 l -0.75787354 21.183716 l -7.888611 -69.3479 l -4.989441 -16.252258 l -6.3095093 -17.22107 l -135.35077 -211.53955 l 11.639954 15.066406 l -24.581848 -31.672546 l -12.646423 -16.096375 l 59.04431 76.58826 l -10.234314 -13.6883545 l 0.0 0.0 l 0.0 0.0 l 0.0 6.1035156e-05 l 29.624939 40.280823 l -9.162964 -12.687134 l 26.5083 37.43341 l -8.143921 -11.753357 l 16.683105 24.390442 l 6.734192 10.221863 l 13.368713 21.231384 l 0.0 0.0 l -0.0014038086 -0.002380371 l -0.18914795 -0.30566406 l -5.899048 -9.536621 l 17.02539 28.64862 l 9.774109 18.417603 l 8.319397 17.36847 l -101.32031 -341.5105 l 18.825562 22.488403 l 18.289307 22.042114 l 17.621582 21.439331 l 16.853455 20.71399 l 247.13458 -492.42416 l 57.40576 -0.11729431 l 0.0008544922 -21.71605 l -115.307434 21.83606 l -57.107178 0.0 l -57.52234 0.0 l 229.93903 -153.1814 l 0.0 21.709236 l 0.0 -43.89279 l 0.0 -22.137724 l 0.0 -21.32789 l 0.0 174.9103 l 0.0 -21.715164 l 0.0 -22.081665 l 0.0 -21.701385 l -103.85797 -109.581505 l -103.49225 -7.230483e-11 l -103.75043 2.4547262e-09 l -103.6994 0.0 l -103.69403 6.4842425e-09 l -207.3562 -8.863935e-09 l 103.63846 -7.503331e-11 l -311.60156 0.011355847 l -103.01701 -0.003599776 l 106.15587 128.72565 l -52.42169 -63.470596 l 153.46465 -65.19055 l 427.2303 218.92773 l 57.70221 0.0 l 57.09906 0.0 l -172.4527 0.0 l -58.439514 0.0 l -56.178284 0.0 l -194.24762 105.59906 l 53.48886 64.76541 l -160.49911 -194.33563 l 53.23117 64.4534 l 268.072 324.5868 l -53.657043 -64.96869 l -53.490173 -64.76703 l 511.1258 471.36005 l 6.9663696 12.566162 l 0.0 0.0 l 0.0 0.0 l 0.0 -6.1035156e-05 l 11.362854 24.292969 l -53.056885 -92.89136 l 9.37085 14.311523 l 9.241516 14.624695 l 8.12207 13.358765 l -37.39569 -58.065247 l -10.616516 -15.255005 l -23.70874 -32.76422 l 0.0 0.0 l 0.0014648438 0.0020141602 l 0.1807251 0.24676514 l 11.65509 15.912537 l -38.587463 -50.952515 l 12.9678955 16.738525 l -28.940674 -37.085632 l -15.123657 -19.013062 l -212.79211 -82.71973 l 0.0 0.0 l 0.0 6.1035156e-05 l 0.0 0.0 l 15.513794 19.101562 l 15.342163 19.00238 l 14.167603 17.654541 l 14.042908 17.614502 l 28.715698 570.5459 l -19.717957 5.0684814 l -41.96173 5.8518066 l 0.0 0.0 l 6.1035156e-05 -0.00012207031 l 0.00018310547 0.0 l 21.116272 -2.1697998 l -65.81604 -0.59484863 " /> </g> </svg>