<?xml version="1.0" standalone="no"?><!DOCTYPE svg PUBLIC "-//W3C//DTD SVG 1.1//EN" "http://www.w3.org/Graphics/SVG/1.1/DTD/svg11.dtd" ><svg xmlns="http://www.w3.org/2000/svg" xmlns:xlink="http://www.w3.org/1999/xlink" version="1.1" viewBox="-10 0 692 1000"><g transform="matrix(1 0 0 -1 0 800)"><path stroke="black" fill="none" d="M 759.0764 1248.7384 l 0.0 0.0 l -17.12268 12.175171 l -31.79718 17.31665 l 0.0 0.0 l -205.04648 1.3150635 l -0.9494324 -0.36486816 l -63.387146 -41.743286 l 19.35086 16.746094 l -83.635315 -118.97998 l -0.26992798 -0.64782715 l 30.320862 61.154663 l -64.63147 -119.25244 l 0.0 0.0 l -64.9079 -0.0024414062 l 0.0 0.0 l -64.13423 -0.00012207031 l 0.0 0.0 l -74.238144 0.0 l 0.0 0.0 l 5.9593964 101.29407 l 0.011383057 0.03540039 l 16.45816 60.07617 l 61.315567 133.37415 l 1.9153595 3.2893066 l 55.764084 67.66785 l 52.418762 43.911987 l 59.84732 34.397217 l 67.88895 24.334717 l 76.02142 14.727417 l 0.0 0.0 l -6.1035156e-05 -0.00012207031 l -6.1035156e-05 -0.00024414062 l 41.32068 -1.7613525 l 40.085632 -3.9189453 l 38.759827 -6.531616 l 37.43396 -9.144287 l 36.108093 -11.75708 l 42.344116 -18.88501 l 21.617981 -11.307129 l 49.927917 -32.534058 l 0.0 0.0 l -5.050232 3.7680664 l 55.39514 -50.829834 l -0.74072266 0.87597656 l 55.55957 -77.31067 l 0.65057373 -1.0483398 l 22.255005 -46.369385 l 0.0 0.0 l -148.65283 -125.3291 l 0.0 0.0 l 12.905884 -35.346313 l 0.0 0.0 l -43.764404 85.7832 l -7.21344 9.140259 l 0.0 0.0 l 189.34045 -230.68243 l 0.0 0.0 l 17.262268 58.839783 l 0.0 0.0 l 9.475281 63.571167 l 0.0 0.0 l -6.814087 99.14111 l 0.0 0.0 l -152.27667 -177.90625 l 0.0 0.0 l 2.2626343 40.78064 l 0.0 0.0 l -14.86438 -88.681885 l -1.8754883 -5.3442383 l 0.0 0.0 l -156.5072 -241.77808 l 0.0 0.0 l 62.907288 82.39679 l 0.0 0.0 l 36.171936 51.96112 l 0.0 0.0 l 44.194397 76.57471 l 0.0 0.0 l -76.33215 -308.68335 l 0.0 0.0 l 7.314575 8.852295 l 31.800964 38.64691 l 0.0 0.0 l 0.35290527 0.43634033 l 300.22186 -480.45697 l 10.892944 -14.220688 l 0.0 0.0 l -174.8446 15.480957 l 0.0 0.0 l -22.638489 0.00036621094 l 201.70526 -141.17967 l 0.0 0.0 l 0.0 -66.0578 l 0.0 0.0 l 0.0 147.68661 l 0.0 0.0 l 0.0 -36.7352 l 0.0 0.0 l -176.97272 -122.7145 l -7.3341675 -3.3392553e-08 l -127.09961 1.1387524e-06 l -103.43622 0.0 l -100.903564 3.0082028e-06 l -187.10092 -4.112186e-06 l 75.147644 -3.4849563e-08 l -390.69482 12.229794 l 0.0 0.0 l 42.497322 35.102314 l 131.6304 -13.807873 l 487.55923 185.47562 l 49.708435 0.00012207031 l 0.0 0.0 l -177.4732 -7.6293945e-05 l 0.0 0.0 l -62.783752 7.6293945e-05 l -183.77905 151.45013 l 2.0886536 2.531433 l -118.44658 -143.40302 l 0.0 0.0 l 281.0614 340.1204 l -80.0542 -96.75281 l -2.6608887 -3.2188416 l 506.73914 471.97348 l 0.0 0.0 l -40.239502 -67.38495 l 0.0 0.0 l -55.33667 -78.15802 l 0.0 0.0 l -43.620117 -55.946045 l 0.0 0.0 l -206.51654 -75.222046 l 0.0 0.0 l 33.179504 41.21576 l 0.0 0.0 l 12.744629 593.0665 l 0.0 0.0 l -63.50946 2.4661865 l 0.0 0.0 " /> </g> </svg>