<?xml version="1.0" standalone="no"?><!DOCTYPE svg PUBLIC "-//W3C//DTD SVG 1.1//EN" "http://www.w3.org/Graphics/SVG/1.1/DTD/svg11.dtd" ><svg xmlns="http://www.w3.org/2000/svg" xmlns:xlink="http://www.w3.org/1999/xlink" version="1.1" viewBox="-10 0 692 1000"><g transform="matrix(1 0 0 -1 0 800)"><path stroke="black" fill="none" d="M 754.15546 1251.7533 l 0.0 0.0 l -38.531616 13.090088 l -164.65463 -10.661743 l 0.0 0.0 l -49.343994 -29.197388 l 0.6951904 0.5950928 l 22.050232 70.80054 l -26.699982 0.0 l -68.4451 -171.35657 l 0.0 0.0 l 15.391571 31.056763 l -0.34649658 140.2998 l -26.699982 0.0 l -26.700012 0.0 l -43.958344 -246.48865 l 0.0 0.0 l -158.78867 -0.041381836 l 0.0 0.0 l 7.665558 121.980225 l 0.0 0.0 l 1.6001892 4.963745 l 152.88126 141.38611 l 12.800018 21.799927 l -91.302155 9.041382 l 0.0 0.0 l 116.90213 34.558594 l -59.285706 31.371826 l 84.88571 12.2282715 l -34.13571 31.664307 l 59.735718 11.935669 l -2.0193787 23.03418 l 27.619385 20.565796 l 39.156433 3.611206 l 35.24356 -3.611206 l 40.88272 18.453125 l 0.0 0.0 l -0.00030517578 -0.0013427734 l 40.858765 -2.6816406 l 39.906006 -3.675171 l 38.66278 -6.125122 l 37.419434 -8.575317 l 36.176025 -11.025513 l 60.750244 -28.89209 l 0.5249634 -0.28564453 l 51.954895 -34.47046 l 0.0 0.0 l 46.524292 -41.48462 l 0.0 0.0 l 68.789795 -98.902954 l 0.0 0.0 l 14.222717 -36.47339 l -136.3664 -153.6726 l 0.0 0.0 l -55.013733 97.97595 l 0.0 0.0 l 206.96149 -190.29077 l 0.0 0.0 l 6.86438 176.68689 l 0.0 0.0 l -149.31824 -148.47925 l 0.0 0.0 l -15.514526 -74.98456 l 0.0 0.0 l -90.31482 -159.43451 l 0.0 0.0 l 41.276367 61.02997 l 0.0 0.0 l -33.700806 -237.71478 l 0.0 0.0 l 50.58716 62.05652 l 0.0 0.0 l -4.533203 -259.83267 l 270.67578 -244.00648 l 0.0 0.0 l -148.2602 -0.18696594 l 0.0 0.0 l 177.58331 -201.75137 l 0.0 0.0 l 0.0010986328 83.17922 l 0.0 0.0 l -188.24976 -100.434425 l 0.0 0.0 l -123.89679 3.0082028e-06 l -34.45343 4.5336823e-05 l -23.300049 0.0 l -23.299988 0.0 l -21.745789 -4.5336823e-05 l -24.854187 4.5336823e-05 l -23.299988 0.0 l -45.99817 -3.5066176e-05 l -138.09479 -1.4039882e-05 l 6.2207947 -1.1896327e-07 l -375.56583 16.771149 l 0.0 0.0 l 136.86292 97.68776 l 567.39166 104.53972 l 0.0 0.0 l -226.43604 7.6293945e-05 l 0.0 0.0 l -205.27835 135.58546 l 0.0 0.0 l -52.322693 -63.23166 l 263.32047 106.44757 l -61.65381 137.1315 l -47.757385 -57.32785 l 0.0 0.0 l 460.08484 397.09036 l 0.0 0.0 l -57.737427 -81.34137 l 0.0 0.0 l -228.54059 -104.21289 l 0.0 0.0 l -64.39563 239.06024 l 0.0 132.59998 l 0.0 132.6001 l 27.356567 108.381714 l 0.0 0.0 " /> </g> </svg>