<?xml version="1.0" standalone="no"?><!DOCTYPE svg PUBLIC "-//W3C//DTD SVG 1.1//EN" "http://www.w3.org/Graphics/SVG/1.1/DTD/svg11.dtd" ><svg xmlns="http://www.w3.org/2000/svg" xmlns:xlink="http://www.w3.org/1999/xlink" version="1.1" viewBox="-10 0 692 1000"><g transform="matrix(1 0 0 -1 0 800)"><path stroke="black" fill="none" d="M 748.2371 1257.0684 l 10.384277 -7.907715 l -30.27246 21.10852 l -32.74518 16.190796 l 11.93988 -5.19751 l -184.8421 12.509644 l -33.472107 -12.598755 l -62.005707 -44.19336 l 27.98941 24.227905 l -75.19226 -93.77515 l -15.184723 -37.547363 l 36.77832 75.65881 l -78.98508 -124.18713 l 1.0788879 0.0 l 24.436829 0.00012207031 l -71.282684 -0.00012207031 l -15.262817 0.0 l -43.740677 0.0 l -1.0787811 0.0 l -44.568558 0.0 l -0.70381165 0.0 l -34.411026 0.0 l -17.498413 0.0 l -0.0044021606 0.0 l 0.0 0.0 l 15.0969925 93.45557 l 22.101517 80.99988 l 32.914993 78.36218 l 34.78421 58.277588 l 46.372757 54.882202 l 53.05069 43.91931 l 60.654297 34.18042 l 68.310455 24.39441 l 75.97458 14.648315 l 0.0 0.0 l 0.0 0.0 l 0.0 0.0 l 41.502686 -1.3770752 l 40.153625 -4.0113525 l 38.79657 -6.685425 l 37.439514 -9.359863 l 36.082336 -12.034058 l 35.374084 -15.095581 l 32.352722 -16.895508 l 62.892456 -42.98755 l 0.0 0.0 l -0.003479004 0.0025634766 l -0.74108887 0.54919434 l -29.043152 21.592285 l 80.15643 -76.52844 l -22.308105 26.172852 l 46.757874 -60.156372 l 17.079285 -28.533813 l 26.394226 -59.75183 l -9.22113 24.079956 l -145.14148 -133.0398 l -5.189209 11.032227 l 19.999268 -57.090576 l -0.14978027 0.81347656 l -5.378662 20.287354 l -34.221863 68.157104 l -0.38726807 0.5571289 l -15.437073 19.272339 l 0.0 0.0 l 6.1035156e-05 -0.00012207031 l 0.00061035156 -0.0007324219 l 193.52563 -225.19116 l -5.8251343 -16.429565 l 16.391296 51.785156 l 4.154297 17.042603 l 7.740906 45.918213 l 0.1739502 1.25 l 2.3234863 26.518433 l 0.9623413 29.063477 l 0.0 0.0 l -0.0048217773 0.033081055 l -9.383911 63.012695 l -0.36364746 1.8604736 l -150.47736 -179.89697 l -1.743042 -9.784668 l 4.060974 29.183838 l 0.0 0.0 l -0.0008544922 0.021850586 l -0.6583252 18.197998 l -11.716003 -78.97015 l -0.15466309 -0.50531006 l -7.2252197 -20.290283 l 0.010131836 0.028747559 l -127.049194 -201.07562 l 0.28778076 0.37219238 l -30.953857 -39.72162 l -0.3696289 -0.47070312 l 47.85077 61.812134 l -1.4188232 -1.8980713 l 0.0 0.0 l 21.995361 29.752625 l -0.28564453 -0.39611816 l 18.612915 26.160767 l -0.1449585 -0.21002197 l 23.61377 35.167053 l 0.0 0.0 l 9.694458 15.463074 l 0.0 0.0 l 15.257263 26.610168 l 13.037415 25.694824 l 0.25006104 0.520813 l -95.22626 -332.49872 l 13.414307 16.023987 l 18.846375 22.703613 l 19.039368 23.16272 l 0.61621094 0.75946045 l 14.624939 17.973816 l 251.58398 -491.42114 l 53.747314 -4.6684875 l 0.032836914 -14.578934 l -127.2334 19.35553 l -41.866516 -1.5258789e-05 l -58.389038 4.5776367e-05 l 227.5727 -148.58028 l 0.0 14.307663 l 0.0 -47.49279 l 0.0 -31.361164 l 0.0 -0.7026987 l 0.0 165.2426 l 0.0 -14.5438385 l 0.0 -29.12986 l 0.0 -13.995628 l -109.98584 -112.74404 l -95.433105 -2.8644536e-09 l -105.70734 9.7689735e-08 l -103.67737 0.0 l -103.460144 2.5806276e-07 l -205.65854 -3.527698e-07 l 101.25058 -2.989509e-09 l -331.06186 0.45195127 l -76.51811 -0.14326751 l 65.6449 87.04202 l -6.704811 -8.011139 l 140.45346 -76.46364 l 432.2866 216.12405 l 65.547485 1.5258789e-05 l 41.542847 0.0 l -170.6181 -1.5258789e-05 l -0.39111328 0.0 l -94.49982 1.5258789e-05 l -4.896057 0.0 l -203.85675 109.441895 l 49.175995 59.54355 l -148.82448 -180.19846 l 38.920517 47.125793 l 270.8647 327.95184 l -55.869415 -67.63257 l -49.229156 -59.60742 l 515.8126 480.48236 l 0.8078613 1.4347534 l 0.0 0.0 l 10.701355 22.77716 l -0.0061035156 -0.012817383 l -44.97534 -79.93536 l 0.28833008 0.43981934 l 17.25122 27.573853 l 0.15789795 0.25836182 l -43.73242 -66.74774 l -0.45489502 -0.65802 l -17.132874 -23.91986 l 0.0 0.0 l -27.243103 -36.03833 l 0.0 0.0 l -34.864807 -44.387207 l -0.56347656 -0.70861816 l -215.6795 -86.3681 l 0.0 0.0 l 0.080566406 0.09918213 l 13.577087 16.717041 l 27.260437 33.838623 l 0.6739502 0.83935547 l 14.751831 18.48639 l 26.221252 574.2641 l -13.431824 3.4615479 l -39.1521 5.839966 l 0.0 0.0 l 8.792358 -0.9219971 l -54.020752 -1.1727295 l 0.023071289 0.0010986328 " /> </g> </svg>