<?xml version="1.0" standalone="no"?><!DOCTYPE svg PUBLIC "-//W3C//DTD SVG 1.1//EN" "http://www.w3.org/Graphics/SVG/1.1/DTD/svg11.dtd" ><svg xmlns="http://www.w3.org/2000/svg" xmlns:xlink="http://www.w3.org/1999/xlink" version="1.1" viewBox="-10 0 692 1000"><g transform="matrix(1 0 0 -1 0 800)"><path stroke="black" fill="none" d="M 747.51794 1257.6211 l 14.553162 -11.091309 l -32.399048 22.700562 l -35.15985 17.130737 l 16.536133 -7.2004395 l -184.95374 13.895874 l -35.825287 -13.4835205 l -61.71881 -44.28296 l 28.562592 24.724365 l -74.63205 -92.10278 l -16.326904 -40.377563 l 37.359344 77.00305 l -91.58212 -124.514404 l 16.546234 0.0 l 23.736877 0.0 l -70.092834 0.0 l -20.875275 0.0 l -29.216202 0.0 l -16.546158 0.0 l -29.633392 0.0 l -16.129883 0.0 l -26.964767 0.0 l -21.561066 0.0 l -0.0012359619 0.0 l 0.0 0.0 l 0.00020599365 0.0 l 15.066231 92.93555 l 22.475204 82.385864 l 31.030563 74.711914 l 36.9662 61.92798 l 45.74855 54.032104 l 53.09262 43.9198 l 60.707825 34.166016 l 68.33844 24.398315 l 75.97131 14.642456 l 0.0 0.0 l 0.0 0.0 l 0.0 0.0 l 41.514954 -1.3508301 l 40.15808 -4.017578 l 38.799072 -6.6956787 l 37.43982 -9.374023 l 36.08069 -12.05249 l 34.91156 -14.844116 l 33.065002 -17.266357 l 62.74005 -42.930786 l 0.0 0.0 l -0.00018310547 0.00012207031 l -0.0010375977 0.0007324219 l -30.415283 22.61206 l 81.79944 -78.23364 l -23.843872 27.973999 l 46.278564 -59.140625 l 18.23944 -30.475708 l 28.095337 -64.45288 l -11.864868 30.981445 l -143.21008 -137.45227 l -7.4312744 15.782349 l 23.054504 -69.895874 l -2.6714478 13.966797 l -5.3966064 19.790771 l -27.75763 57.61609 l -7.9125977 11.349243 l -13.920898 17.088379 l 0.0 0.0 l 0.0 0.0 l 6.1035156e-05 0.0 l 194.8601 -221.49475 l -7.8650513 -22.17157 l 16.171143 49.957214 l 5.480591 22.492554 l 5.583618 31.020752 l 2.4049683 17.897339 l 2.1166382 25.591187 l 0.770874 26.191528 l 0.0 0.0 l -0.00012207031 0.0009765625 l -0.0044555664 0.030639648 l -5.8153076 45.182617 l -5.192688 26.258545 l -148.84369 -183.57935 l -2.5258179 -14.144287 l 4.417053 30.752197 l 0.0 0.0 l 0.0 0.0007324219 l -0.00061035156 0.014892578 l -0.73309326 20.43042 l -8.93988 -71.990845 l -3.491516 -11.373901 l -6.730957 -18.617249 l -133.06787 -208.65753 l 8.070129 10.445374 l -25.880249 -33.29834 l -8.931702 -11.368469 l 55.627136 72.09363 l -7.935791 -10.614136 l -0.0018310547 -0.0024414062 l 0.0 0.0 l 27.653992 37.555786 l -6.369873 -8.820129 l 23.984802 33.84607 l -5.361206 -7.7389526 l 20.766113 30.682556 l 0.32556152 0.4918213 l 10.218506 16.013794 l 0.0 0.0 l -0.1706543 -0.27593994 l 16.228455 27.60376 l 10.67041 20.416443 l 5.8619385 12.237183 l -99.405396 -338.5315 l 17.339294 20.71283 l 18.442322 22.223816 l 18.010986 21.91272 l 16.410583 20.169922 l 248.35669 -492.14868 l 56.40088 -1.3673706 l 0.009643555 -19.755707 l -118.58307 21.15474 l -52.92108 0.0 l -57.760376 1.5258789e-05 l 229.28906 -151.91763 l 0.0 19.676262 l 0.0 -44.8816 l 0.0 -24.67111 l 0.0 -15.231003 l 0.0 171.82309 l 0.0 -19.745438 l 0.0 -24.017578 l 0.0 -19.584862 l -105.54108 -110.45015 l -101.27869 -8.3900886e-10 l -104.2879 2.8612703e-08 l -103.69342 0.0 l -103.62976 7.558492e-08 l -206.8899 -1.03324055e-07 l 102.982574 -8.758434e-10 l -316.9467 0.13237345 l -95.7386 -0.041962072 l 95.02879 117.276474 l -39.864723 -48.237633 l 149.89087 -68.28691 l 428.61908 218.15765 l 59.857056 0.0 l 52.826294 0.0 l -171.94879 0.0 l -68.4516 0.0 l -42.09265 0.0 l -196.88693 106.65454 l 52.30423 63.331177 l -157.29245 -190.45262 l 49.300476 59.694046 l 268.83902 325.51108 l -54.26468 -65.70038 l -52.319794 -63.349854 l 512.4131 473.86566 l 5.3466187 9.635986 l 0.0012207031 0.0022583008 l 0.0 0.0 l 11.108154 23.74707 l -0.03491211 -0.07324219 l -50.803894 -89.26306 l 6.555664 10.01178 l 11.762024 18.671082 l 5.42688 8.923645 l -38.62848 -59.61322 l -7.648987 -10.992554 l -19.777466 -27.44873 l 0.0 0.0 l 4.2140503 5.7530518 l -26.358887 -34.940857 l 0.6795044 0.8765869 l -28.883606 -36.91205 l -10.953247 -13.770203 l -213.88171 -84.09131 l 0.0 0.0 l 0.0016479492 0.0020141602 l 0.20776367 0.25585938 l 14.919922 18.3703 l 18.615723 23.077454 l 10.358154 12.90741 l 14.340759 17.982544 l 28.030579 571.5671 l -17.991394 4.6271973 l -42.05017 5.939087 l 0.0 0.0 l 0.030029297 -0.0030517578 l 18.561584 -1.9146729 l -62.576233 -0.75354004 l 0.20214844 0.009643555 " /> </g> </svg>