<?xml version="1.0" standalone="no"?><!DOCTYPE svg PUBLIC "-//W3C//DTD SVG 1.1//EN" "http://www.w3.org/Graphics/SVG/1.1/DTD/svg11.dtd" ><svg xmlns="http://www.w3.org/2000/svg" xmlns:xlink="http://www.w3.org/1999/xlink" version="1.1" viewBox="-10 0 692 1000"><g transform="matrix(1 0 0 -1 0 800)"><path stroke="black" fill="none" d="M 420.04605 133.93813 l 45.710632 -14.347076 l -88.55554 32.798523 l 103.26538 152.69902 l -14.301514 11.286377 l 0.0 0.0 l 0.0 0.0 l 0.0 0.0 l -12.348663 13.46817 l -21.623352 30.102509 l 10.2883 -15.564789 l 103.83725 -72.63901 l 18.52472 -5.3405457 l -36.272827 11.891876 l -16.887878 7.7409973 l -16.012177 8.917816 l 152.21811 -36.73236 l -22.198486 -0.7496338 l 0.0 0.0 l 0.0 0.0 l 0.0 0.0 l -21.13446 1.7864075 l -20.259705 2.9727173 l 162.94513 22.236816 l -18.296997 -8.244141 l -19.107483 -6.755066 l -19.88916 -5.252655 l -20.60315 -3.7414856 l 154.81354 90.21533 l 11.075317 17.411102 l 9.626343 18.279846 l -33.322876 -52.375305 l -14.036499 -15.783569 l 0.0 0.0 l 0.0 0.0 l 0.0 0.0 l -32.711975 -23.994598 l 16.737732 11.241791 l -41.78119 -184.5285 l -38.26288 -9.238266 l 74.96307 21.121544 l 35.102783 14.517029 l 41.453247 258.1333 l 6.658325 19.905243 l 8.879089 42.272186 l -3.6973877 -21.534668 l 42.55829 -239.37569 l -30.383911 -22.448532 l -31.930176 -19.787735 l 135.90796 126.20235 l 18.204102 31.729828 l 15.39032 33.219177 l -54.60089 -95.15866 l -23.796509 -28.675827 l 0.0 0.0 l 0.0 0.0 l 0.0 0.0 l 84.60187 444.08417 l 13.4375 -40.922546 l 9.6015625 -43.759766 l 5.759033 -46.56189 l 0.0 0.0 l 0.0 0.0 l 0.0 0.0 l -1.3997803 -40.83307 l -4.201416 -39.33322 l -7.003296 -37.810394 l -9.793945 -36.257355 l -512.8243 -281.0868 l 51.470825 -6.1489105 l 95.78589 1.9092026 l -41.42395 -3.9594421 l 0.0 0.0 l 0.0 0.0 l 0.0 0.0 l -354.24472 131.20529 l -31.315308 34.84471 l 0.0 0.0 l 0.0 0.0 l 0.0 0.0 l -10.784943 17.851715 l -19.110733 39.65628 l 9.12912 -20.453217 l -17.470978 42.299164 l -7.5155487 23.15741 l -6.6852875 24.442719 l -15.149673 81.30588 l 22.495651 0.0 l -18.266891 -28.423676 l 5.048874 -27.093994 l 160.90797 -244.99042 l -37.07321 26.645126 l 69.39722 273.8629 l 22.488434 6.1035156e-05 l 0.0 0.0 l 0.0 0.0 l 0.0 0.0 l 4.1185303 -21.88852 l 5.151245 -20.842712 l 6.160919 -19.72992 l 15.443085 -36.411194 l -8.233093 17.670868 l -112.65103 81.20148 l -22.48291 0.0 l 45.02896 0.0 l 22.450653 0.0 l -112.49667 0.0 l -22.482666 0.0 l 44.99112 0.0 l 398.02237 257.05875 l 22.214111 -2.658081 l -70.9436 5.69928 l 25.068237 -1.1398926 l 86.079895 -12.159851 l -19.38855 4.1796875 l -139.4497 189.90094 l 26.632446 0.987854 l -55.283325 -1.3186646 l 0.0 0.0 l 0.0 0.0 l 0.0 0.0 l 0.00012207031 -19.875793 l -0.00012207031 -19.957031 l 0.0 -19.856506 l 0.0 -19.941956 l 0.0 -19.853271 l 80.0896 102.45679 l 23.156311 2.3598633 l 20.3844 2.900879 l 19.084534 3.656372 l 17.035828 4.307251 l 14.9348755 4.9121094 l 13.14447 5.621277 l 0.0 0.0 l 0.0 0.0 l 0.0 0.0 l 17.286987 12.297852 l -205.117 -198.23608 l 0.0 -19.883057 l 0.0 -19.906921 l 0.0 79.588745 l 0.0 -19.885315 l 220.59204 192.02698 l 13.6467285 15.096497 l 11.830872 16.500793 l 18.19928 37.197876 l -8.18811 -19.29541 l 14.559387 39.9989 l 4.5496826 22.098389 l 2.7301025 23.500732 l 0.0 0.0 l 0.0 0.0 l 0.0 0.0 l -0.6599121 19.4292 l -1.9799194 18.690796 l -3.3001099 17.950073 l -10.559753 33.6792 l 5.939453 -16.468628 l -13.199707 32.19934 l -8.580017 14.990112 l -9.900024 14.25 l -11.219971 13.509888 l 0.0 0.0 l 0.0 0.0 l 0.0 0.0 l -13.390076 11.970093 l -14.170593 10.710449 l -14.9487915 9.449097 l -15.730591 8.19043 l -16.509949 6.9299316 l -17.2901 5.670044 l -36.91913 7.5599365 l 18.84851 -3.1497803 l -75.51874 3.159912 l 18.078796 1.4099121 l 18.960632 0.47009277 l 0.0 0.0 l 0.0 0.0 l 0.0 0.0 l -70.55939 -7.5198975 l 16.318665 3.2896729 l -46.318512 -12.689575 l 14.558685 5.1696777 l -41.039093 -18.329712 l 12.799408 7.0496826 l -24.719757 -15.039917 l 0.0 0.0 l 0.0 0.0 l 0.0 0.0 l -9.939484 -10.2595215 l -9.421814 -11.582275 l -8.897644 -12.896606 l -16.240692 -29.760864 l 7.859375 15.538818 l -15.200043 -32.40027 l -6.819458 -18.17871 l -6.300598 -19.50122 l -28.976318 -20.819214 l 23.194794 -0.00012207031 l -69.59711 0.0 l 23.198303 0.0 l -69.59839 0.0 l 23.198303 0.0 l -46.402588 0.0 l -23.194855 0.0 l -23.201065 0.0 l -46.400726 0.0 l 0.0 0.0 l 0.0 0.0 l 0.0 0.0 l 23.197128 0.0 l -15.236847 42.433594 l 20.479248 77.87976 l -10.999298 -37.77246 l 37.55919 106.33276 l -14.039093 -33.112793 l 29.600357 63.90039 l 17.078873 28.453003 l 62.007767 69.20349 l -23.287323 -19.282715 l 0.0 0.0 l 0.0 0.0 l 0.0 0.0 l -20.119232 -23.79419 l 68.47943 60.33423 l 26.848999 15.224487 l 59.03955 24.359985 l -30.407959 -11.164307 l 96.56781 27.404541 l -33.967773 -7.1046143 l 69.71918 12.179932 l 37.52997 3.0449219 l 0.0 0.0 l 0.0 0.0 l 0.0 0.0 l 39.850098 -1.1999512 l 38.349976 -3.5999756 l 36.849976 -6.0 l 35.350037 -8.400024 l 33.849976 -10.800049 l 32.350037 -13.200073 l 30.849976 -15.599976 l 29.349976 -18.0 l 27.849976 -20.400024 l 0.0 0.0 l 0.0 0.0 l 0.0 0.0 l 24.319153 -24.489136 l 21.760803 -25.87085 l 19.200012 -27.25 l 16.640015 -28.630005 l 14.080017 -30.01001 l 11.52002 -31.389893 l 8.959961 -32.77002 l 6.4000244 -34.150024 l 3.8399658 -35.53003 l 0.0 0.0 l 0.0 0.0 l 0.0 0.0 l -1.6799927 -41.45996 l -5.039978 -39.58008 l -8.400024 -37.700073 l -11.76001 -35.819885 l -15.119995 -33.940063 l -18.47992 -32.059998 l -21.840027 -30.179932 l -25.19989 -28.299988 l 7.919983 -50.429504 l -36.480103 24.009521 l 0.0 0.0 l 0.0 0.0 l 0.0 0.0 l 97.91724 -80.487305 l -28.796204 29.64618 l -128.91034 -129.39972 l 16.648804 -17.69867 l 166.02057 84.97925 l 21.119324 -35.28882 l -222.65942 -16.090942 l 0.0 0.0 l 0.0 0.0 l 0.0 0.0 l -13.7091675 7.2196045 l -31.678467 12.159546 l 16.54602 -5.6986084 l 100.97577 -111.14398 l -9.96875 23.050964 l -12.214661 21.311157 l 35.516724 -95.98663 l -5.5457764 26.679443 l 9.988342 -85.491486 l 0.0 0.0 l 0.0 0.0 l 0.0 0.0 l -1.1098633 30.29483 " /> </g> </svg>