<?xml version="1.0" standalone="no"?><!DOCTYPE svg PUBLIC "-//W3C//DTD SVG 1.1//EN" "http://www.w3.org/Graphics/SVG/1.1/DTD/svg11.dtd" ><svg xmlns="http://www.w3.org/2000/svg" xmlns:xlink="http://www.w3.org/1999/xlink" version="1.1" viewBox="-10 0 692 1000"><g transform="matrix(1 0 0 -1 0 800)"><path stroke="black" fill="none" d="M 420.86404 133.68465 l 41.37607 -12.988976 l -86.494415 32.108986 l 91.86728 161.50914 l -0.5177002 0.40350342 l -12.001495 12.205078 l -0.33325195 0.36099243 l -23.164917 31.265625 l 0.03375244 -0.048858643 l 7.1518555 -10.797272 l 118.775635 -79.11548 l 0.2164917 -0.06390381 l -28.670837 9.546539 l -22.84262 10.510986 l -10.08429 5.608917 l 144.41861 -35.526764 l -16.776001 -0.57211304 l -0.0028686523 -0.00012207031 l 0.0 0.0 l -25.633911 2.4302063 l -13.164856 1.9300842 l 156.0437 20.759033 l -12.267883 -5.5322876 l -27.194397 -9.108826 l -28.750916 -6.4723206 l -0.6408081 -0.117492676 l 158.17896 102.25391 l 0.38952637 0.6109009 l 11.80719 21.62558 l -0.0178833 -0.03265381 l -43.89789 -64.04764 l -2.2852783 -2.5729675 l 0.0 0.0 l -29.869324 -22.475098 l 11.088379 7.445709 l -42.358643 -183.83118 l -34.944397 -8.438507 l 76.35358 21.838577 l 31.782104 13.141556 l 42.934326 259.6683 l 0.40350342 1.2220459 l 5.5111084 16.472229 l 8.44928 38.65863 l -2.4763794 -14.427795 l 41.75482 -242.00706 l -36.816467 -26.407532 l -22.760315 -14.10553 l 134.969 127.28197 l 20.083008 36.286285 l 10.921753 23.571747 l -55.016724 -94.53372 l -22.177856 -26.727158 l 0.0 0.0 l 0.00018310547 0.00018310547 l 0.00091552734 0.0010986328 l 85.46515 441.3739 l 12.300903 -37.45569 l 10.318237 -48.293396 l 0.14575195 -1.2037964 l 5.1311035 -42.339417 l 0.0 0.0 l -0.0024414062 -0.06695557 l -1.2724609 -36.83435 l -4.880371 -45.45169 l -8.514404 -42.603485 l -6.9628906 -25.779999 l -510.20825 -284.233 l 47.228516 -5.64373 l 93.88403 1.5390472 l -38.61786 -3.7002869 l 0.0 0.0 l 0.00024414062 2.2888184e-05 l 0.0014038086 0.00015258789 l -362.95135 140.97568 l 6.508728 -7.3211975 l -29.437836 32.908737 l 0.0 0.0 l -0.02267456 0.038726807 l -8.12146 13.469421 l -14.813797 28.664978 l 0.25550842 -0.5770874 l -14.086533 34.44153 l -10.092743 31.211578 l -4.4982605 16.44049 l -15.001068 84.04376 l 0.33441162 -0.0041503906 l 20.15004 0.0010375977 l -16.829224 -30.13385 l 4.5263214 -24.308594 l 159.97307 -245.18716 l -0.42718506 0.32792664 l -33.49994 24.064163 l 72.727325 275.22247 l 17.015778 0.02658081 l 0.0029296875 6.1035156e-05 l 0.0 0.0 l 5.8730164 -28.1474 l 8.041992 -29.051086 l 0.18777466 -0.6040039 l 16.324493 -39.83737 l -7.3418884 15.751648 l -117.772675 81.89105 l -14.571991 0.0 l 58.43799 0.0 l 0.81015015 0.0 l -112.15729 0.0 l -14.455948 0.0 l 40.876358 0.0 l 403.7521 256.4744 l 14.872803 -1.7790527 l -67.98291 5.3828735 l 24.237976 -1.1022949 l 86.03058 -12.086182 l -18.716248 4.032593 l -130.99689 190.29205 l 0.0 0.0 l 0.91052246 0.034851074 l -38.266907 -4.8535767 l 0.0 0.0 l 0.023254395 -4.494507 l -0.047180176 -46.38617 l 0.0 -0.81121826 l 0.0 -38.277893 l 0.0 -0.52893066 l 89.14697 98.67218 l 0.0 0.0 l 25.027527 3.0561523 l 44.658142 9.128723 l 10.658752 3.2817383 l 0.0 0.0 l 19.214172 7.867676 l 0.0 0.0 l 0.10858154 0.07727051 l 14.913879 10.610352 l -203.72803 -201.06665 l 0.0 -0.36639404 l 0.0 -11.690857 l 0.0 -23.086731 l 0.0 74.37067 l 0.0 -13.0859375 l 221.50891 190.63715 l 12.177063 13.468323 l 12.198669 16.864319 l 17.863892 36.196228 l -7.284424 -17.157349 l 14.270508 39.528076 l 4.3895264 21.339722 l 2.7957764 23.841309 l 0.0 0.0 l 0.0 0.0 l 0.0 0.00012207031 l -0.6463623 19.042114 l -1.9435425 19.084229 l -3.3076782 17.951172 l -10.47229 33.31604 l 5.711426 -15.840332 l -13.084656 31.937988 l -8.589294 14.991455 l -9.912231 14.249268 l -11.215332 13.494995 l 0.0 0.0 l 0.0 0.0 l 0.0 0.0 l -13.41333 11.980347 l -14.462158 10.898193 l -14.388184 9.095337 l -15.980957 8.33313 l -16.515686 6.929199 l -17.295593 5.6688232 l -36.524963 7.5098877 l 18.166199 -3.03479 l -74.953735 3.1287842 l 17.539978 1.3668213 l 19.23822 0.49438477 l 0.0 0.0 l 0.0 0.0 l 0.0 0.0 l -70.269165 -7.4625244 l 15.702026 3.1640625 l -45.644043 -12.5 l 13.964478 4.959839 l -40.62207 -18.150879 l 12.515076 6.894409 l -24.651276 -15.021973 l 0.0 0.0 l -0.00079345703 -0.0007324219 l -0.038513184 -0.040039062 l -9.620789 -9.932251 l -10.248505 -12.683838 l -7.8137207 -11.323853 l -16.56784 -30.146118 l 7.5739136 14.973999 l -15.216583 -32.52649 l -6.5698547 -17.51416 l -6.5758667 -20.079346 l -27.27884 -20.504028 l 20.78543 -0.0126953125 l -68.26016 -0.024047852 l 22.424133 0.00024414062 l -68.84543 -0.0028076172 l 22.398407 0.0015869141 l -47.601288 0.0014648438 l -20.80104 0.0 l -23.697037 -0.00061035156 l -46.704437 0.0012207031 l 0.0 0.0 l 0.0005493164 0.0 l 0.00894165 0.00012207031 l 21.82251 0.008178711 l -13.776184 41.80188 l 20.134354 77.792114 l -10.6753845 -36.666626 l 37.17836 105.31421 l -13.613434 -32.113647 l 29.765503 64.06775 l 16.554169 27.575562 l 60.96173 68.49658 l -0.18527222 -0.15429688 l -21.817566 -18.059204 l 0.0 0.0 l 0.0005493164 0.00048828125 l -19.805695 -23.410034 l 68.226105 59.97058 l 26.389648 14.955933 l 58.82321 24.371582 l -29.464264 -10.819824 l 95.55826 27.138306 l -32.936646 -6.890747 l 69.34454 12.161621 l 37.52008 2.979126 l 0.0 0.0 l 0.0 0.0 l 0.0 0.0 l 39.8692 -1.1497803 l 38.350952 -3.6065674 l 36.851257 -6.007324 l 35.351624 -8.407959 l 33.851807 -10.80835 l 32.352234 -13.2092285 l 30.852417 -15.609619 l 29.352783 -18.010376 l 27.820923 -20.394287 l 0.0 0.0 l 6.1035156e-05 0.0 l 6.1035156e-05 -0.00012207031 l 23.90924 -24.076172 l 22.15216 -26.257935 l 19.20514 -27.25586 l 16.64447 -28.635742 l 14.083801 -30.015503 l 11.523132 -31.395142 l 8.962402 -32.775146 l 6.4017334 -34.154907 l 3.8345337 -35.52014 l 0.0 0.0 l 0.0 0.0 l 0.0 0.0 l -1.6713257 -41.43933 l -5.0407104 -39.60254 l -8.405029 -37.725586 l -11.750549 -35.7959 l -15.127808 -33.972473 l -18.464722 -32.043396 l -21.824951 -30.171265 l -25.183105 -28.299377 l 7.9157104 -50.19104 l -36.527344 23.780884 l 0.0 0.0 l 6.1035156e-05 0.0 l 0.0 0.0 l 96.65546 -79.20563 l -27.058228 27.86676 l -129.05334 -129.25989 l 16.102722 -17.116516 l 166.29614 84.631775 l 20.768127 -34.737427 l -222.43756 -16.48413 l 0.0 0.0 l -0.0012817383 0.0006713867 l -0.07879639 0.04144287 l -13.175598 6.9381714 l -30.95404 11.977356 l 14.676636 -5.0530396 l 94.402405 -94.47034 l -0.4156494 0.96417236 l -14.094727 25.83728 l 0.024414062 -0.044921875 l 33.947998 -89.73547 l -3.5585938 17.19043 l 9.160278 -80.40073 l 0.0 0.0 l -0.00592041 0.15942383 l -0.9729614 26.553131 " /> </g> </svg>