<?xml version="1.0" standalone="no"?><!DOCTYPE svg PUBLIC "-//W3C//DTD SVG 1.1//EN" "http://www.w3.org/Graphics/SVG/1.1/DTD/svg11.dtd" ><svg xmlns="http://www.w3.org/2000/svg" xmlns:xlink="http://www.w3.org/1999/xlink" version="1.1" viewBox="-10 0 692 1000"><g transform="matrix(1 0 0 -1 0 800)"><path stroke="black" fill="none" d="M 452.8371 123.77724 l 0.0 0.0 l -35.39682 13.323502 l 34.250244 217.80447 l 0.0 0.0 l 80.14746 -74.53085 l 0.0 0.0 l 102.602295 -28.948761 l 0.0 0.0 l 97.62445 13.29718 l 0.0 0.0 l 127.10358 106.7417 l 0.0 0.0 l -60.860657 -74.489746 l 0.0 0.0 l -81.33185 -192.4709 l 0.0 0.0 l 96.16589 29.623215 l 0.0 0.0 l 66.831604 291.56586 l 0.0 0.0 l 0.9043579 3.1252747 l 29.493103 -240.18465 l 0.0 0.0 l -21.184143 -14.386642 l 137.10889 160.19171 l 0.0 0.0 l -68.40973 -106.2776 l 0.0 0.0 l 96.30853 393.08472 l 0.0 0.0 l 13.769775 -90.661255 l 0.0 0.0 l -18.760864 -136.67575 l 0.0 0.0 l 57.73694 -182.16599 l 0.0 -21.899994 l 0.0 -21.90001 l 0.0 -21.899994 l 0.0 -21.90001 l 0.0 -21.899994 l 0.0 -21.899994 l 0.0 -21.900002 l 0.0 -21.900002 l 0.0 -21.9 l 0.0 -21.9 l -103.70001 0.0 l -103.70001 0.0 l -103.69995 0.0 l -203.40405 103.21997 l 0.0 0.0 l 40.045532 -1.5726471 l 0.0 0.0 l -44.041504 -101.64732 l -103.69998 0.0 l -103.69998 0.0 l -103.70001 0.0 l -103.7 0.0 l -103.7 0.0 l 53.6 64.90001 l 53.6 64.899994 l 60.473694 165.92992 l 0.0 0.0 l -25.271408 61.166595 l 0.0 0.0 l 20.822968 116.77576 l 0.0 0.0 l -38.455795 -43.552032 l 0.0 0.0 l 108.36034 -209.21783 l 0.0 0.0 l 108.834015 250.30539 l 0.0 0.0 l 18.918152 -69.00552 l 0.0 0.0 l -71.39548 73.24771 l 0.0 0.0 l -74.249725 0.0 l 0.0 0.0 l 213.56323 43.75003 l 53.600006 64.900024 l 53.599976 64.89996 l 0.0 0.0 l 15.545044 19.140015 l 15.034973 18.619995 l 14.525024 18.100037 l 37.906982 24.905151 l -44.380737 4.9175415 l 0.33062744 -0.015563965 l 75.84546 -8.866455 l -0.25543213 0.044128418 l -16.4469 46.21515 l 11.974976 15.5 l 11.465027 14.9800415 l 0.0 0.0 l 10.444946 13.969971 l 9.934998 13.51001 l 9.425049 13.049988 l 8.914978 12.590027 l 8.405029 12.130005 l 7.8949585 11.669983 l 7.38501 11.210022 l 6.8744507 10.750061 l -247.81165 -53.807068 l 0.0 0.0 l 145.94208 84.54181 l 0.0 0.0 l -145.9549 -203.305 l 0.0 0.0 l 0.0 42.438843 l 265.02002 159.03131 l 9.690002 18.230042 l 8.549988 17.849976 l 7.410034 17.46997 l -54.77527 2.5008545 l 0.0 0.0 l 2.8032837 4.210205 l 63.37195 27.08899 l -42.541138 6.1240845 l 0.0 0.0 l 14.851257 51.108826 l 0.036499023 0.23754883 l 36.20337 -9.620483 l 0.0 0.0 l -0.76000977 21.25 l -32.060425 21.166016 l 0.0 0.0 l -0.026794434 0.90063477 l 26.007263 18.333374 l -26.511475 15.154785 l -3.6036987 17.99292 l 9.595154 22.20227 l -17.236511 -1.4061279 l 0.04638672 -0.13781738 l -11.239075 28.900879 l -8.9522705 15.046753 l 0.006652832 0.013916016 l -10.392212 14.203491 l -11.086243 12.961426 l 0.0 0.0 l -0.0004272461 0.00036621094 l -14.26709 12.336304 l -24.694092 17.499023 l -0.13220215 0.08508301 l -19.27826 9.836792 l -16.737305 6.899048 l -17.512207 5.6220703 l -21.920227 5.6862793 l 0.17669678 -0.026977539 l -64.66199 2.9266357 l 0.0 0.0 l 0.48791504 0.030639648 l 29.619934 1.3991699 l 0.0 0.0 l -64.608154 -6.4588623 l 0.0 0.0 l 0.15130615 0.02758789 l -24.493042 -6.5651855 l 0.117492676 0.044799805 l -31.02008 -13.490356 l 1.7411804 1.0061035 l 0.0 0.0 l -33.627502 -27.16101 l 0.0 0.0 l -11.104492 -14.821655 l 0.0 0.0 l -13.947479 -22.659058 l 0.088134766 0.17272949 l -18.87967 -43.190063 l -0.057556152 -0.15563965 l -14.410797 -34.961426 l 0.5274658 -5.195923 l 0.0 0.0 l -50.994415 -4.511963 l 0.33010864 0.0014648438 l 8.600037 -57.008545 l -23.200012 0.0 l -23.199982 0.0 l -23.200012 0.0 l 13.295044 56.9021 l 0.2290039 0.004638672 l -59.92404 -56.90674 l -23.200012 0.0 l -23.199997 0.0 l 38.90982 57.018555 l 0.0 0.0 l -6.293442 -0.016601562 l -79.01637 -57.001953 l -23.200005 0.0 l 0.0 0.0 l 47.545723 59.658325 l 0.0 0.0 l 7.9293365 14.959961 l 6.723694 74.385254 l -0.18031311 -0.6800537 l 24.470383 72.72229 l -0.21769714 -0.5494385 l 39.341675 77.86279 l 0.28153992 0.44580078 l 38.48488 51.253296 l 0.0 0.0 l -2.0145264 -2.3736572 l 58.41519 45.880615 l 0.0 0.0 l 8.527893 4.510254 l 50.411835 24.821777 l -0.4718628 -0.18615723 l 64.00412 19.550293 l -0.5618286 -0.13220215 l 62.496246 13.002197 l 0.027648926 0.18322754 l 37.169373 0.4284668 l 0.0 0.0 l 0.00079345703 0.002319336 l 40.551086 0.61291504 l 38.38861 -3.8659668 l 36.900574 -6.289917 l 35.41266 -8.713989 l 33.92462 -11.137939 l 32.436646 -13.562134 l 30.94867 -15.985962 l 29.460632 -18.410034 l 0.04901123 -0.013671875 l 31.641663 -25.190674 l 0.0 0.0 l 2.9854126 -3.005005 l 37.358948 -41.298218 l 19.405823 -27.485962 l 16.818481 -28.8573 l 14.230957 -30.22876 l 11.643555 -31.600098 l 9.056091 -32.97168 l 6.468628 -34.343018 l 3.645874 -35.187378 l 0.0 0.0 l 0.00018310547 -0.00036621094 l 0.0018920898 -0.0043945312 l -1.3601685 -40.58313 l 1.6560669 -16.282593 l -6.7235107 -24.191284 l -1.3165283 -25.608765 l -7.2824707 -13.112061 l -11.383423 -34.861816 l -3.4440918 -25.976135 l -11.988159 -9.255798 l -17.871765 -31.39856 l 0.025390625 -0.024597168 l 1.279541 -20.956055 l -22.546204 -8.852783 l 6.4262085 -18.227173 l -30.955261 -10.048767 l 7.7508545 -40.91992 l -38.130188 14.83429 l 0.0 0.0 l 0.0032348633 -0.00079345703 l 65.70679 -48.47101 l -0.009460449 0.0068359375 l -55.69098 8.674316 l -12.154968 -16.59497 l 0.0 0.0 l -13.445007 -17.61499 l -14.13501 -18.244995 l -14.825012 -18.875 l -2.1854858 -83.33545 l 0.26312256 -0.26916504 l 171.61823 76.90765 l 0.0 0.0 l 7.1138916 -13.299011 l -223.69745 -26.837036 l 0.0 0.0 l -15.062927 6.4416504 l 0.0 0.0 l -4.2493896 -41.40863 l -18.274963 -22.025024 l 104.76904 -11.793152 l 0.0 0.0 l 34.28253 -124.69736 l 0.0 0.0 " /> </g> </svg>