<?xml version="1.0" standalone="no"?><!DOCTYPE svg PUBLIC "-//W3C//DTD SVG 1.1//EN" "http://www.w3.org/Graphics/SVG/1.1/DTD/svg11.dtd" ><svg xmlns="http://www.w3.org/2000/svg" xmlns:xlink="http://www.w3.org/1999/xlink" version="1.1" viewBox="-10 0 692 1000"><g transform="matrix(1 0 0 -1 0 800)"><path stroke="black" fill="none" d="M 433.89694 131.0345 l 0.0 0.0 l 55.504395 185.01537 l 0.0 0.0 l 98.77063 -56.993683 l 0.0 0.0 l 157.72076 -0.535614 l 0.0 0.0 l 84.70404 -125.99399 l 0.0 0.0 l 60.782288 284.856 l 0.0 0.0 l -6.2530518 -257.27502 l 0.0 0.0 l 81.90875 57.43776 l 0.0 0.0 l 103.77521 374.28268 l 0.0 0.0 l -10.329956 -264.7843 l 59.840576 -121.21222 l 0.0 -21.899994 l 0.0 -21.90001 l 0.0 -21.899994 l 0.0 -21.90001 l 0.0 -21.899994 l 0.0 -21.899994 l 0.0 -21.900002 l 0.0 -21.900002 l 0.0 -21.9 l 0.0 -21.9 l -103.70001 0.0 l -103.70001 0.0 l -103.69995 0.0 l -166.18439 101.55478 l 0.0 0.0 l -41.215637 -101.55478 l -103.69998 0.0 l -103.69998 0.0 l -103.70001 0.0 l -103.7 0.0 l -103.7 0.0 l 53.6 64.90001 l 53.6 64.899994 l 62.281723 163.41966 l 0.0 0.0 l -39.577637 109.92612 l 0.0 0.0 l 138.09592 -78.64578 l 89.63736 80.18646 l 0.0 0.0 l -145.47165 70.76318 l 0.0 0.0 l 216.63428 43.750366 l 53.600006 64.900024 l 53.599976 64.89996 l 0.0 0.0 l 15.545044 19.140015 l 15.034973 18.619995 l 14.525024 18.100037 l 14.014954 17.579956 l -17.758667 12.218689 l 0.0 0.0 l 63.24292 -4.9802246 l 0.0 0.0 l -6.4992065 42.38153 l 11.974976 15.5 l 11.465027 14.9800415 l 0.0 0.0 l 10.444946 13.969971 l 9.934998 13.51001 l 9.425049 13.049988 l 8.914978 12.590027 l 8.405029 12.130005 l 7.8949585 11.669983 l 7.38501 11.210022 l 6.8744507 10.750061 l -99.7785 32.350586 l 0.0 0.0 l -148.04596 -109.56476 l 0.0 0.0 l 265.02002 106.114075 l 9.690002 18.230042 l 8.549988 17.849976 l 7.410034 17.46997 l -49.61383 8.515808 l 0.0 0.0 l 61.013794 25.28424 l -25.559998 18.82605 l 0.6303711 36.650635 l 0.0 0.0 l 33.479614 -7.626709 l 0.0 0.0 l -0.76000977 21.25 l -31.33142 21.171753 l 0.0 0.0 l 25.251465 19.228271 l -21.710754 16.059937 l -4.336853 18.096436 l 5.527588 21.193604 l -16.61383 -0.072265625 l 0.0 0.0 l -10.19574 28.798218 l -9.851135 15.183472 l 0.0024414062 0.005126953 l -11.560242 14.133545 l -11.202576 11.988525 l 0.0 0.0 l -15.946777 12.870483 l -22.798706 16.29956 l 0.0 0.0 l -19.506104 8.878418 l -17.286133 6.824463 l -18.048645 5.5059814 l -20.658386 6.442871 l 0.0 0.0 l -38.75067 4.563843 l 0.0 0.0 l 1.3254395 0.11828613 l -41.33783 -3.1096191 l 0.0 0.0 l -43.32202 -10.192627 l 0.0 0.0 l -30.052948 -12.044556 l 0.0 0.0 l -31.81076 -24.555054 l 0.0 0.0 l -23.740204 -33.196777 l 0.0 0.0 l -21.483002 -47.565308 l 0.0 0.0 l -14.141998 -39.872925 l 0.0 0.0 l -42.687256 -7.2734375 l 0.0 0.0 l 0.3070984 -56.780273 l -23.200012 0.0 l -23.199982 0.0 l -23.200012 0.0 l 10.388367 55.597046 l 0.0 0.0 l -56.78836 -55.597046 l -23.200012 0.0 l -23.199997 0.0 l 32.932068 56.61035 l 0.0 0.0 l -79.33206 -56.61035 l -23.200005 0.0 l 0.0 0.0 l 41.58001 68.88025 l 0.0 0.0 l 18.514832 81.61096 l 0.0 0.0 l 24.72696 72.253174 l 0.0 0.0 l 39.47905 77.122925 l 0.0 0.0 l 39.725464 50.544434 l 0.0 0.0 l 56.68637 43.76001 l 0.0 0.0 l 57.422302 30.229248 l 0.0 0.0 l 63.830597 19.810913 l 0.0 0.0 l 64.17755 17.26001 l 0.0032958984 0.021606445 l 36.91217 -3.6932373 l 0.0 0.0 l 41.724 3.406372 l 38.48181 -4.5079346 l 37.022766 -6.98999 l 35.563843 -9.472046 l 34.104797 -11.9539795 l 32.645813 -14.436035 l 31.186829 -16.917969 l 29.727844 -19.400024 l 0.010620117 -0.0029296875 l 28.844727 -24.529541 l 0.0 0.0 l 38.604675 -41.951294 l 19.902893 -28.055542 l 17.249207 -29.406128 l 14.59552 -30.756836 l 11.941772 -32.107544 l 9.288025 -33.458374 l 6.6343384 -34.80896 l 3.359253 -34.768066 l 0.0 0.0 l 0.0044555664 -0.010009766 l -0.767334 -38.064575 l 0.8255615 -18.268799 l -5.9592896 -24.36316 l -2.0807495 -25.43689 l -6.9987183 -15.748535 l -10.474243 -32.5484 l -4.637024 -25.653076 l -11.549072 -12.697876 l -16.403381 -29.801819 l 0.0064697266 -0.006286621 l -0.6090088 -19.129028 l -19.193115 -9.861389 l 3.07312 -17.218567 l -25.982666 -10.99939 l 7.3426514 -17.960632 l -40.132324 -7.807312 l 0.0 0.0 l 55.49579 -42.264893 l 0.0 0.0 l -48.048462 3.1071777 l -12.154968 -16.59497 l 0.0 0.0 l -13.445007 -17.61499 l -14.13501 -18.244995 l -14.825012 -18.875 l 5.2578735 -92.63922 l 0.0 0.0 l 163.99683 83.86694 l 0.0 0.0 l -224.02698 -34.682922 l 0.0 0.0 l -11.427734 -38.344788 l -18.274963 -22.025024 l 139.1507 -127.091 l 0.0 0.0 " /> </g> </svg>