<?xml version="1.0" standalone="no"?><!DOCTYPE svg PUBLIC "-//W3C//DTD SVG 1.1//EN" "http://www.w3.org/Graphics/SVG/1.1/DTD/svg11.dtd" ><svg xmlns="http://www.w3.org/2000/svg" xmlns:xlink="http://www.w3.org/1999/xlink" version="1.1" viewBox="-10 0 692 1000"><g transform="matrix(1 0 0 -1 0 800)"><path stroke="black" fill="none" d="M 429.64603 130.9634 l 0.72491455 -0.23439026 l -70.12335 26.494629 l 82.8009 166.66406 l 0.0 0.0 l -12.221863 14.441742 l 0.0 0.0 l 81.45923 -54.99594 l 0.0 0.0 l -31.373901 14.797699 l 0.0 0.0 l 120.33838 -33.243195 l 0.0 0.0 l -32.08203 3.5259094 l 0.0 0.0 l 132.79059 13.85144 l 0.0 0.0 l -47.379517 -12.775818 l 0.0 0.0 l 159.64569 110.54779 l 4.079712 7.3883667 l 0.0 0.0 l -47.24475 -63.698242 l -14.786316 -12.255585 l 0.0 0.0 l -69.08087 -190.34656 l -1.28656 -0.32313538 l 92.987 29.922386 l 0.7114868 0.28619385 l 52.272644 268.12634 l 0.0 0.0 l 0.07055664 0.22219849 l 10.217285 37.534637 l 0.0 0.0 l 37.366333 -246.14543 l -0.017211914 -0.011688232 l -48.849487 -33.49121 l 0.0 0.0 l 143.46448 150.2057 l 11.862549 24.223999 l 0.0 0.0 l -67.97272 -106.59642 l -3.5092773 -4.2449036 l 0.0 0.0 l 93.31622 410.77313 l 0.5217285 -1.534668 l 17.613281 -95.60779 l 0.0 0.0 l -0.9154053 -28.848022 l 0.0 0.0 l -11.029297 -88.163025 l -6.8929443 -27.575775 l 0.0 0.0 l -476.75793 -297.93478 l 2.296936 -0.29255676 l 73.19617 -2.3700485 l -6.508301 -0.7016525 l 0.0 0.0 l -367.9696 144.67525 l 0.0 0.0 l -34.778366 47.88057 l 0.0 0.0 l -24.60225 56.682037 l 0.0 0.0 l -9.958618 33.30957 l 0.0 0.0 l -9.475723 91.35742 l 0.0 0.0 l 0.875473 -0.015808105 l -1.4750671 -48.398193 l 0.0801239 -0.4720459 l 149.7669 -242.0091 l 0.0 0.0 l -1.2403564 0.96162415 l 68.09497 288.7776 l 0.0 0.0 l 12.909637 -52.790344 l 0.0 0.0 l 11.549438 -30.411926 l -0.16690063 0.34039307 l -124.2673 84.17032 l 0.0 0.0 l 44.471954 0.0 l -110.84158 0.0 l 0.0 0.0 l 21.428314 0.0 l 425.11914 254.94363 l 0.0 0.0 l -60.068787 4.9022217 l 15.371338 -0.7003174 l 85.503296 -11.299377 l -11.536316 2.461731 l -171.33093 177.39087 l 0.0 0.0 l -0.00024414062 -55.55475 l 0.0 0.0 l 107.80444 74.98035 l 0.0 0.0 l 91.75751 28.664246 l 0.0 0.0 l -199.56195 -217.43506 l 0.0 0.0 l 0.0 -7.1240234 l 0.0 53.677734 l 0.0 0.0 l 231.30133 200.28864 l 0.25842285 0.28033447 l 12.349365 16.546387 l 14.283203 25.502014 l -0.1217041 -0.2744751 l 13.671875 40.44818 l 2.6795654 13.237305 l 3.486084 27.841064 l 0.0 0.0 l -0.00036621094 0.011352539 l -0.48986816 14.535645 l -1.555481 23.28601 l -3.388977 17.962646 l -9.5372925 29.437744 l 3.2755737 -9.129517 l -11.855286 29.145386 l -8.688965 15.006714 l -10.042236 14.2404785 l -11.1698 13.340454 l 0.0 0.0 l -6.1035156e-05 0.0 l -6.1035156e-05 0.00012207031 l -13.657959 12.086182 l -17.575989 12.903198 l -8.400818 5.3170166 l -18.654846 9.857666 l -16.576538 6.9207764 l -17.355103 5.656006 l -32.31543 6.9761963 l 10.879517 -1.8066406 l -68.91974 2.7954102 l 0.078552246 0.0057373047 l 11.70697 0.90197754 l 22.173218 0.75 l 0.0 0.0 l -0.00024414062 -0.00012207031 l -67.13983 -6.8465576 l 0.13061523 0.025878906 l 8.985718 1.7971191 l -38.440308 -10.477051 l 7.618347 2.7200928 l -36.168182 -16.2406 l 9.4711 5.231079 l 0.007385254 0.0041503906 l -29.535767 -20.659058 l 0.0 0.0 l -1.243103 -1.2736816 l -18.601227 -23.834229 l -0.08731079 -0.12524414 l -16.505646 -29.086914 l 4.52536 8.942383 l -15.393372 -33.87439 l -3.9041443 -10.418335 l -9.515808 -26.253906 l -9.149597 -17.136353 l 0.46359253 -0.03503418 l -59.391907 -0.39318848 l 14.156097 0.0030517578 l -60.80374 -0.033691406 l 13.85553 0.01928711 l -60.403183 0.016967773 l -0.48928833 0.00012207031 l -23.740143 -0.0072021484 l -45.480515 0.076049805 l 0.0 0.0 l 2.812378 0.03552246 l 1.7962799 35.054077 l 16.450867 76.856445 l -7.215927 -24.856323 l 33.111084 94.43628 l -9.06752 -21.442139 l 31.529251 65.85498 l 10.950333 18.203857 l 49.79094 60.947388 l 0.0 0.0 l -4.0311584 -3.3077393 l -20.704926 -22.789307 l 65.52084 56.088135 l 0.0040893555 0.0021972656 l 21.479492 12.084595 l 56.51288 24.49524 l -19.385712 -7.1401367 l 84.77606 24.295166 l -21.924194 -4.607788 l 65.343445 11.965942 l 37.41931 2.2923584 l 0.0 0.0 l 6.1035156e-05 0.00012207031 l 0.00018310547 0.00048828125 l 40.06848 -0.6290283 l 38.361267 -3.6779785 l 36.864807 -6.084839 l 35.36841 -8.491943 l 33.871826 -10.898926 l 32.375427 -13.306152 l 30.878845 -15.713013 l 29.382385 -18.120117 l 27.912842 -20.73816 l 0.0 0.0 l 0.015808105 -0.01586914 l 19.11493 -19.24768 l 26.33142 -30.39148 l 19.260254 -27.319092 l 16.692322 -28.696655 l 14.124207 -30.073975 l 11.556213 -31.451538 l 8.988098 -32.8291 l 6.420105 -34.206543 l 3.7785645 -35.419434 l 0.0 0.0 l 0.0 0.0 l 6.1035156e-05 -0.00012207031 l -1.5811768 -41.2146 l -5.0480347 -39.84192 l -8.458313 -37.9989 l -11.649719 -35.539368 l -15.211426 -34.31842 l -18.301819 -31.866272 l -21.664673 -30.078491 l -25.003479 -28.292908 l 7.8704834 -47.644592 l -37.013123 21.334839 l 0.0 0.0 l 0.00018310547 -6.1035156e-05 l 0.0008544922 -0.00018310547 l 83.15973 -65.51337 l -8.496155 8.86322 l -130.58075 -127.76642 l 10.270142 -10.899292 l 169.23926 80.92102 l 0.002746582 -0.0053100586 l 17.015015 -28.843689 l -228.32056 -16.344788 l 0.0 0.0 l -1.0003052 0.5281372 l -22.390015 9.593689 l 0.2635498 -0.08770752 l 92.21686 -86.59271 l -6.119446 11.375916 l 0.0 0.0 l 28.565979 -82.30316 l 0.0 0.0 l 6.5097046 -42.366272 l 0.0 0.0 " /> </g> </svg>