<?xml version="1.0" standalone="no"?><!DOCTYPE svg PUBLIC "-//W3C//DTD SVG 1.1//EN" "http://www.w3.org/Graphics/SVG/1.1/DTD/svg11.dtd" ><svg xmlns="http://www.w3.org/2000/svg" xmlns:xlink="http://www.w3.org/1999/xlink" version="1.1" viewBox="-10 0 692 1000"><g transform="matrix(1 0 0 -1 0 800)"><path stroke="black" fill="none" d="M 420.04605 133.93813 l 45.68805 -14.339981 l -88.5448 32.79492 l 103.20596 152.74496 l -14.24469 11.241333 l 0.0 0.0 l 3.0517578e-05 0.0 l 0.0 0.0 l -12.333588 13.451752 l -21.631378 30.108582 l 10.272125 -15.540192 l 103.91513 -72.67276 l 18.40332 -5.3056335 l -36.207214 11.872223 l -16.918976 7.7554626 l -15.981262 8.900574 l 152.17746 -36.726105 l -22.170837 -0.74871826 l 0.0 0.0 l 0.0 0.0 l 0.0 0.0 l -21.157349 1.7897949 l -20.222717 2.9672852 l 162.90918 22.229095 l -18.265564 -8.22998 l -19.149658 -6.7673645 l -19.935364 -5.2590027 l -20.490112 -3.7209778 l 154.82214 90.27652 l 11.015625 17.31723 l 9.641663 18.303528 l -33.378113 -52.43634 l -13.979675 -15.719727 l 0.0 0.0 l 0.0 0.0 l 0.0 0.0 l -32.692688 -23.981628 l 16.708313 11.222015 l -41.78424 -184.52487 l -38.245544 -9.2341 l 74.970276 21.125275 l 35.08551 14.509872 l 41.460938 258.1413 l 6.65448 19.893707 l 8.876831 42.253357 l -3.690979 -21.49762 l 42.554077 -239.3894 l -30.41748 -22.469177 l -31.882385 -19.758102 l 135.90314 126.20799 l 18.213867 31.75357 l 15.367004 33.168854 l -54.603027 -95.155396 l -23.788147 -28.665726 l 0.0 0.0 l 0.0 0.0 l 0.0 0.0 l 84.606445 444.07007 l 13.43158 -40.90442 l 9.605347 -43.783447 l 5.756592 -46.542297 l 0.0 0.0 l 0.0 0.0 l 0.0 0.0 l -1.399292 -40.816406 l -4.204956 -39.365112 l -7.0111084 -37.83539 l -9.779175 -36.20273 l -512.8107 -281.10318 l 51.44873 -6.1462784 l 95.776 1.9072723 l -41.409424 -3.9580994 l 0.0 0.0 l 0.0 0.0 l 0.0 0.0 l -354.2561 131.21808 l -31.30394 34.831955 l 0.0 0.0 l 0.0 0.0 l 0.0 0.0 l -10.77272 17.831726 l -19.088333 39.59897 l 9.07869 -20.340302 l -17.449173 42.2489 l -7.5289917 23.199402 l -6.673874 24.401001 l -15.148895 81.32016 l 22.485153 -3.0517578e-05 l -18.259384 -28.432587 l 5.0461426 -27.079468 l 160.9031 -244.99142 l -37.056824 26.633377 l 69.41458 273.87 l 22.46054 0.00021362305 l 0.0 0.0 l 0.0 0.0 l 0.0 0.0 l 4.1270447 -21.921173 l 5.1663513 -20.885529 l 6.1269226 -19.621124 l 15.4505005 -36.43811 l -8.228424 17.660858 l -112.677765 81.20508 l -22.44165 0.0 l 45.098877 0.0 l 22.331573 0.0 l -112.48866 0.0 l -22.440796 0.0 l 44.96965 0.0 l 398.05228 257.0557 l 22.175842 -2.6535034 l -70.92816 5.697632 l 25.063843 -1.1397095 l 86.07965 -12.159424 l -19.38507 4.178894 l -139.40076 189.9032 l 26.49347 0.982666 l -55.194702 -1.3156738 l 0.0 0.0 l 0.0 0.0 l 0.0 0.0 l 0.00036621094 -19.816956 l -0.00036621094 -20.09491 l 0.0 -19.751404 l 0.0 -20.043335 l 0.0 -19.740356 l 80.13684 102.42493 l 23.992432 2.4801636 l 19.212036 2.7340698 l 19.45758 3.7198486 l 17.146484 4.348938 l 14.656982 4.8207397 l 13.227722 5.6485596 l 0.0 0.0 l 0.0 0.0 l 0.0 0.0 l 17.279663 12.292664 l -205.10974 -198.25085 l 0.0 -19.842285 l 0.0 -19.923462 l 0.0 79.56152 l 0.0 -19.849854 l 220.5968 192.01971 l 13.639099 15.088013 l 11.832764 16.502686 l 18.19751 37.192688 l -8.18335 -19.284302 l 14.557861 39.99646 l 4.548828 22.09436 l 2.7304688 23.502563 l 0.0 0.0 l 0.0 0.0 l 0.0 0.0 l -0.6598511 19.427246 l -1.9797363 18.692871 l -3.3001099 17.950073 l -10.559326 33.677246 l 5.9382935 -16.465332 l -13.199158 32.197998 l -8.580017 14.990112 l -9.9001465 14.25 l -11.21991 13.509766 l 0.0 0.0 l 0.0 0.0 l 0.0 0.0 l -13.390198 11.970215 l -14.172119 10.711304 l -14.945862 9.447388 l -15.731934 8.19104 l -16.509949 6.9299316 l -17.2901 5.670044 l -36.917053 7.5596924 l 18.84491 -3.14917 l -75.51575 3.15979 l 18.075928 1.409668 l 18.962097 0.47021484 l 0.0 0.0 l 0.0 0.0 l 0.0 0.0 l -70.55786 -7.5195312 l 16.31543 3.2889404 l -46.315002 -12.688599 l 14.555603 5.168579 l -41.036926 -18.328735 l 12.797913 7.048828 l -24.719147 -15.039551 l 0.0 0.0 l 0.0 0.0 l 0.0 0.0 l -9.938263 -10.258301 l -9.426117 -11.588013 l -8.891998 -12.888428 l -16.242401 -29.762817 l 7.8578796 15.535889 l -15.200104 -32.401 l -6.8181763 -18.17517 l -6.3020325 -19.504272 l -28.967468 -20.817627 l 23.182251 -0.00012207031 l -69.59015 -0.00012207031 l 23.194244 0.0 l -69.59445 0.0 l 23.194122 0.0 l -46.408844 0.0 l -23.182343 0.0 l -23.20366 0.0 l -46.402496 0.0 l 0.0 0.0 l 0.0 0.0 l 0.0 0.0 l 23.1902 0.00012207031 l -15.229233 42.430176 l 20.477448 77.879395 l -10.99762 -37.766724 l 37.557205 106.32739 l -14.036865 -33.107544 l 29.601227 63.901245 l 17.076126 28.448486 l 62.002304 69.19971 l -23.280792 -19.277222 l 0.0 0.0 l 0.0 0.0 l 0.0 0.0 l -20.117432 -23.791992 l 68.47812 60.332275 l 26.846619 15.223145 l 59.03842 24.359985 l -30.403046 -11.162476 l 96.56256 27.403076 l -33.962402 -7.1033936 l 69.717224 12.17981 l 37.529907 3.0445557 l 0.0 0.0 l 0.0 0.0 l 0.0 0.0 l 39.85016 -1.199707 l 38.349976 -3.5999756 l 36.850037 -6.000122 l 35.350037 -8.400024 l 33.849976 -10.800049 l 32.350037 -13.200073 l 30.850037 -15.600098 l 29.349976 -18.000122 l 27.849792 -20.399902 l 0.0 0.0 l 0.0 0.0 l 0.0 0.0 l 24.317017 -24.486938 l 21.762878 -25.872925 l 19.200012 -27.25 l 16.640015 -28.630005 l 14.080078 -30.010132 l 11.52002 -31.389893 l 8.959961 -32.77002 l 6.4000854 -34.150146 l 3.8399048 -35.529907 l 0.0 0.0 l 0.0 0.0 l 0.0 0.0 l -1.6799316 -41.45984 l -5.039978 -39.5802 l -8.400085 -37.700195 l -11.759949 -35.819763 l -15.119995 -33.940247 l -18.47992 -32.059875 l -21.839905 -30.179932 l -25.19983 -28.299988 l 7.919983 -50.428223 l -36.480347 24.0083 l 0.0 0.0 l 0.0 0.0 l 0.0 0.0 l 97.910706 -80.48059 l -28.78717 29.636902 l -128.91113 -129.39899 l 16.645996 -17.695679 l 166.02203 84.97742 l 21.117432 -35.28589 l -222.6579 -16.0932 l 0.0 0.0 l 0.0 0.0 l 0.0 0.0 l -13.707153 7.218506 l -31.674683 12.15863 l 16.536255 -5.6952515 l 100.94153 -111.05701 l -9.9175415 22.932495 l -12.225891 21.338013 l 35.508667 -95.95422 l -5.5354004 26.629944 l 9.984253 -85.47104 l 0.0 0.0 l 0.0 0.0 l 0.0 0.0 l -1.109375 30.282257 " /> </g> </svg>