<?xml version="1.0" standalone="no"?><!DOCTYPE svg PUBLIC "-//W3C//DTD SVG 1.1//EN" "http://www.w3.org/Graphics/SVG/1.1/DTD/svg11.dtd" ><svg xmlns="http://www.w3.org/2000/svg" xmlns:xlink="http://www.w3.org/1999/xlink" version="1.1" viewBox="-10 0 692 1000"><g transform="matrix(1 0 0 -1 0 800)"><path stroke="black" fill="none" d="M 420.11066 133.91809 l 45.34735 -14.233238 l -88.38281 32.740715 l 102.31012 153.43744 l -13.360535 10.541016 l 0.0 0.0 l 0.0008239746 -0.00064086914 l -9.677185 10.566223 l -2.4568787 2.6602173 l -21.752563 30.199982 l 10.028259 -15.169312 l 105.089264 -73.18179 l 16.573547 -4.7794495 l -35.218933 11.576447 l -17.386993 7.9731445 l -15.51535 8.640533 l 151.56445 -36.631348 l -21.753052 -0.7351074 l 0.0 0.0 l 0.0 0.0 l 6.1035156e-05 0.0 l -21.502869 1.8406982 l -19.66504 2.8853455 l 162.36664 22.112976 l -17.791626 -8.016876 l -19.785278 -6.9523315 l -20.631897 -5.3548584 l -18.786072 -3.4117126 l 154.9516 91.19824 l 10.115906 15.902679 l 9.872925 18.660614 l -34.210632 -53.356293 l -13.118164 -14.751312 l 0.0 0.0 l 0.00012207031 0.00015258789 l 0.0006713867 0.00076293945 l -32.40802 -23.793243 l 16.264343 10.923645 l -41.82965 -184.47005 l -37.98474 -9.171242 l 75.07959 21.181648 l 34.824524 14.401749 l 41.57733 258.26196 l 6.5960083 19.71994 l 8.843079 41.96933 l -3.5950317 -20.939026 l 42.490906 -239.59624 l -30.923035 -22.78035 l -31.161621 -19.311493 l 135.82928 126.29285 l 18.361572 32.111694 l 15.015747 32.410614 l -54.63568 -95.10629 l -23.661743 -28.513535 l 0.0 0.0 l 0.0 0.0 l 0.0 1.5258789e-05 l 84.67517 443.85812 l 13.342285 -40.631958 l 9.661621 -44.13971 l 5.720581 -46.252075 l 0.0 0.0 l 0.0 -6.1035156e-05 l 0.0 -0.00036621094 l -1.3913574 -40.559967 l -4.258301 -39.84601 l -7.129883 -38.212097 l -9.556641 -35.379242 l -512.6051 -281.35046 l 51.115295 -6.1065674 l 95.626526 1.8781815 l -41.190125 -3.9378662 l 0.0 0.0 l 0.0 0.0 l 0.0 0.0 l -354.4275 131.41072 l -31.134888 34.64305 l 0.0 0.0 l -3.0517578e-05 9.1552734e-05 l -0.00012207031 0.00018310547 l -10.586502 17.526794 l -18.750595 38.735077 l 8.318619 -18.638153 l -17.120544 41.491394 l -7.731552 23.832428 l -6.5019836 23.772034 l -15.137222 81.53537 l 22.327103 -0.0002746582 l -18.146408 -28.566986 l 5.005081 -26.860565 l 160.82962 -245.0069 l -36.80954 26.456299 l 69.6763 273.97687 l 22.039124 0.0025024414 l 0.0 0.0 l 0.0 0.0 l -3.0517578e-05 0.0 l 4.2565002 -22.4133 l 5.3935547 -21.53067 l 5.6147766 -17.981476 l 15.5624695 -36.84381 l -8.158417 17.51001 l -113.08029 81.25928 l -21.819885 0.0 l 46.1528 0.0 l 20.536407 0.0 l -112.36771 0.0 l -21.809921 0.0 l 44.646255 0.0 l 398.5026 257.0098 l 21.598816 -2.5844727 l -70.695435 5.6727905 l 24.998596 -1.1367798 l 86.075806 -12.1536255 l -19.332214 4.1673584 l -138.66382 189.93658 l 0.49395752 0.018737793 l 23.905212 0.88635254 l -53.858948 -1.2973022 l 0.0 0.0 l 0.0 -0.0007324219 l 0.00012207031 -0.020019531 l 0.0037231445 -18.883484 l -0.0040283203 -22.17212 l 0.0 -18.167725 l 0.0 -21.57129 l 0.0 -18.038513 l 80.848694 101.94446 l 0.1315918 0.015197754 l 36.462524 4.2790527 l 1.5551147 0.22088623 l 25.067749 4.6758423 l 18.81427 4.977234 l 10.469116 3.442871 l 14.487427 6.0634766 l 0.0 0.0 l 0.00012207031 0.00012207031 l 0.00048828125 0.00036621094 l 17.163452 12.210083 l -205.00055 -198.47333 l 0.0 -19.227173 l 0.0 -20.1734 l 0.0 79.15137 l 0.0 -19.31543 l 220.66888 191.91052 l 13.52356 14.960022 l 11.861633 16.531311 l 18.171204 37.11383 l -8.112305 -19.11621 l 14.535156 39.959473 l 4.536194 22.03479 l 2.7356567 23.529053 l 0.0 0.0 l 0.0 0.0 l 0.0 0.0 l -0.6588135 19.397095 l -1.9768677 18.723755 l -3.3007202 17.950073 l -10.552429 33.648804 l 5.920349 -16.416016 l -13.190063 32.17749 l -8.5807495 14.990234 l -9.901123 14.25 l -11.219543 13.508545 l 0.0 0.0 l 0.0 0.0 l 0.0 0.0 l -13.392029 11.970947 l -14.195007 10.726074 l -14.901855 9.419556 l -15.751526 8.202393 l -16.510498 6.9298096 l -17.290466 5.669922 l -36.88611 7.555786 l 18.79132 -3.1401367 l -75.471375 3.1573486 l 18.03363 1.40625 l 18.983887 0.47216797 l 0.0 0.0 l 0.0 0.0 l 0.0 0.0 l -70.535095 -7.5151367 l 16.267029 3.2791748 l -46.262024 -12.673584 l 14.508911 5.1519775 l -41.00415 -18.314697 l 12.775574 7.036621 l -24.710571 -15.03479 l 0.0 0.0 l 0.0 0.0 l 0.0 0.0 l -9.919525 -10.239014 l -9.491089 -11.674683 l -8.806824 -12.7647705 l -16.268097 -29.793213 l 7.8354187 15.491455 l -15.2013855 -32.410767 l -6.7985535 -18.122925 l -6.323639 -19.549805 l -28.834076 -20.792847 l 22.992859 -0.0010986328 l -69.48508 -0.001953125 l 23.133453 0.0 l -69.53528 -0.00024414062 l 23.131226 0.00012207031 l -46.50305 0.00012207031 l -22.994202 0.0 l -23.24263 -0.00012207031 l -46.42894 0.00012207031 l 0.0 0.0 l 1.5258789e-05 0.0 l 0.0 0.0 l 23.08545 0.0007324219 l -15.114426 42.380615 l 20.450348 77.87244 l -10.972153 -37.67981 l 37.527267 106.24744 l -14.003418 -33.029053 l 29.614212 63.91443 l 17.034897 28.379517 l 61.920074 69.144165 l -23.182281 -19.19519 l 0.0 0.0 l 0.0 0.0 l 3.0517578e-05 0.0 l -20.090332 -23.759766 l 68.45822 60.30371 l 26.810516 15.201904 l 59.021393 24.361084 l -30.328857 -11.135498 l 96.483185 27.382202 l -33.881348 -7.08667 l 69.687805 12.178345 l 37.529114 3.0394287 l 0.0 0.0 l 0.0 0.0 l 0.0 0.0 l 39.851685 -1.1958008 l 38.350037 -3.6004639 l 36.850098 -6.0006104 l 35.35022 -8.400757 l 33.850098 -10.800659 l 32.35022 -13.200806 l 30.85022 -15.60083 l 29.350159 -18.000854 l 27.84729 -20.399292 l 0.0 0.0 l 0.0 0.0 l 0.0 0.0 l 24.285034 -24.454834 l 21.793701 -25.903198 l 19.200378 -27.250488 l 16.64038 -28.630493 l 14.080322 -30.010498 l 11.520325 -31.39038 l 8.960144 -32.770508 l 6.4002075 -34.15039 l 3.8394775 -35.529175 l 0.0 0.0 l 0.0 0.0 l 0.0 0.0 l -1.6792603 -41.458252 l -5.040039 -39.58191 l -8.400452 -37.70215 l -11.759216 -35.817993 l -15.1206665 -33.94275 l -18.478638 -32.058594 l -21.838745 -30.17926 l -25.198486 -28.299927 l 7.9196167 -50.409485 l -36.48407 23.990356 l 0.0 0.0 l 0.0 0.0 l 0.0 0.0 l 97.81152 -80.37988 l -28.650574 29.49707 l -128.9223 -129.388 l 16.603027 -17.649902 l 166.04364 84.95007 l 21.089905 -35.242554 l -222.63574 -16.126587 l 0.0 0.0 l 0.0 0.0 l 0.0 0.0 l -13.67627 7.2022095 l -31.617676 12.144348 l 16.389282 -5.6445312 l 100.424866 -109.74652 l -9.145508 21.147583 l -12.394836 21.742676 l 35.387268 -95.46643 l -5.3792114 25.884155 l 9.922302 -85.15503 l 0.0 0.0 l 0.0 0.00015258789 l -6.1035156e-05 0.0008239746 l -1.1021729 30.083801 " /> </g> </svg>