<?xml version="1.0" standalone="no"?><!DOCTYPE svg PUBLIC "-//W3C//DTD SVG 1.1//EN" "http://www.w3.org/Graphics/SVG/1.1/DTD/svg11.dtd" ><svg xmlns="http://www.w3.org/2000/svg" xmlns:xlink="http://www.w3.org/1999/xlink" version="1.1" viewBox="-10 0 692 1000"><g transform="matrix(1 0 0 -1 0 800)"><path stroke="black" fill="none" d="M 422.85352 133.06818 l 30.888885 -9.70314 l -81.50766 30.440704 l 86.672424 165.38977 l 0.0 0.0 l -7.4017944 8.1362915 l 0.0 0.0 l -22.10321 29.026062 l 0.0 0.0 l 0.43737793 -0.6208496 l 113.57962 -82.536194 l 0.0 0.0 l -13.019104 4.3260803 l -37.24893 17.212494 l -0.23886108 0.1298523 l 130.04425 -35.13617 l -2.7457886 -0.10702515 l 0.0 0.0 l -37.44055 3.9518433 l -0.3861084 0.055511475 l 143.73291 16.535583 l -0.5111084 -0.23709106 l -43.92987 -13.537598 l -12.195435 -2.4516907 l 0.0 0.0 l 156.85468 103.06488 l 0.0 0.0 l 10.746887 19.678802 l -0.0044555664 -0.008178711 l -45.598938 -65.43646 l 0.0 0.0 l -20.786743 -16.364655 l 0.40496826 0.2701416 l -46.7406 -184.15286 l -26.91565 -6.5035477 l 79.717834 23.573387 l 23.747986 9.81369 l 46.51776 263.38208 l 0.07299805 0.2210083 l 4.0421753 12.124084 l 7.4093018 29.915802 l -0.09197998 -0.54119873 l 40.380737 -245.0655 l -0.13848877 -0.09408569 l -52.24121 -35.891922 l -1.2094727 -0.7511749 l 133.33221 130.28734 l 24.628967 47.310303 l 0.5385132 1.156311 l -56.45099 -93.94757 l -18.169922 -21.901627 l 0.0 0.0 l 0.0030517578 0.0036621094 l 87.46277 434.70654 l 9.551086 -29.068115 l 12.052246 -59.262085 l 0.007080078 -0.058410645 l 3.883667 -42.30725 l 0.0 0.0 l -0.7532959 -21.262756 l -6.522827 -60.254944 l -12.170654 -54.200073 l -0.34777832 -1.2962341 l -503.6446 -290.97955 l 36.96466 -4.4214783 l 89.28241 0.64349365 l -31.686584 -3.0579758 l 0.0 0.0 l 0.004699707 0.00050354004 l -363.20328 141.0289 l 1.3019104 -1.4639587 l -27.372543 32.457336 l 0.0 0.0 l -0.22201538 0.38015747 l -21.125992 40.349945 l 0.0 0.0 l -9.459137 23.051239 l -16.328018 50.697968 l -0.15223694 0.55007935 l -13.696228 87.19754 l 0.064468384 -0.00079345703 l 15.554001 -0.009887695 l -13.350891 -34.271484 l 3.2620697 -17.56958 l 157.71114 -245.66316 l -0.05429077 0.041641235 l -26.261108 18.899399 l 80.78433 278.51184 l 2.8251343 0.06762695 l 0.0 0.0 l 11.077759 -43.266968 l 3.6914978 -12.409851 l 0.0 0.0 l 15.537659 -38.957825 l -5.18573 11.108246 l -130.16406 83.55942 l -0.37600708 0.0 l 56.20865 0.0 l 0.0 0.0 l -123.26825 0.0 l -0.34298706 0.0 l 36.22815 0.0 l 417.61465 255.06064 l 0.53985596 -0.06390381 l -64.24841 5.0288086 l 22.22931 -1.0112305 l 85.91113 -11.907898 l -17.089722 3.6767578 l -102.850525 191.60425 l 0.0 0.0 l -65.28369 -5.965393 l 0.0 0.0 l -0.9121704 -58.563965 l 0.0 0.0 l 0.0 -28.28717 l 0.0 0.0 l 128.6726 100.34076 l 0.0 0.0 l 39.2182 9.784241 l 0.0 0.0 l 30.145508 14.850891 l 0.0 0.0 l 2.3424072 1.6647339 l -200.37872 -200.95569 l 0.0 0.0 l 0.0 -0.14318848 l 0.0 -30.72754 l 0.0 61.746033 l 0.0 -0.4522705 l 223.72736 191.09131 l 8.621033 9.529053 l 13.088684 17.743896 l 17.05249 33.77289 l -5.0981445 -11.984314 l 13.571533 38.388855 l 4.002136 19.50415 l 2.9538574 24.689331 l 0.0 0.0 l 0.0 0.00036621094 l -0.00012207031 0.004760742 l -0.6125488 18.076904 l -1.8556519 20.03601 l -3.3261108 17.953735 l -10.260437 32.4375 l 5.159607 -14.320068 l -12.806152 31.305298 l -8.611877 14.994995 l -9.941711 14.247192 l -11.204285 13.459595 l 0.0 0.0 l 0.0 0.0 l -6.1035156e-05 0.0 l -13.469421 12.004883 l -15.167603 11.352295 l -13.031799 8.239502 l -16.58667 8.678467 l -16.52948 6.927246 l -17.309082 5.6658936 l -35.57135 7.389038 l 16.515503 -2.7565918 l -73.58679 3.0533447 l 0.33111572 0.023803711 l 15.905212 1.2390137 l 19.907959 0.5526123 l 0.0 0.0 l 0.0 0.0 l -6.1035156e-05 0.0 l -69.56506 -7.3233643 l 0.59313965 0.11743164 l 13.616943 2.7427979 l -44.012085 -12.041748 l 12.526855 4.4523926 l -39.6131 -17.718018 l 11.808319 6.5076904 l 0.018829346 0.0107421875 l -24.858032 -15.364868 l 0.0 0.0 l -0.032684326 -0.033935547 l -8.5789795 -8.859497 l -12.248657 -15.349121 l -5.191223 -7.5183105 l -17.359406 -31.07837 l 6.883301 13.607544 l -15.256622 -32.831787 l -5.965973 -15.906738 l -7.2418823 -21.47815 l -23.171814 -19.741089 l 14.956116 -0.0435791 l -65.02557 -0.08178711 l 20.551086 0.0008544922 l -67.02365 -0.009887695 l 20.463074 0.0057373047 l -50.50142 0.0048828125 l -15.009399 0.00012207031 l -24.897003 -0.0021972656 l -47.1429 0.008300781 l 0.0 0.0 l 0.01612854 0.00024414062 l 18.21669 0.024047852 l -10.242203 40.273315 l 19.299896 77.5802 l -9.891663 -33.99121 l 36.256943 102.849976 l -12.583603 -29.696167 l 30.16507 64.47266 l 15.284668 25.452515 l 58.431015 66.786255 l -0.01940918 -0.016113281 l -18.593597 -15.379272 l 0.0 0.0 l -19.327423 -22.710327 l 67.61328 59.091064 l 0.009521484 0.005004883 l 25.268677 14.300903 l 58.299835 24.399658 l -27.18106 -9.986206 l 93.11563 26.494263 l -30.441864 -6.373657 l 68.43814 12.11731 l 37.49646 2.821167 l 0.0 0.0 l 0.0 0.0 l 0.0 0.0 l 39.915222 -1.0292969 l 38.35327 -3.6228027 l 36.85431 -6.0247803 l 35.355408 -8.427002 l 33.856384 -10.828857 l 32.357483 -13.231201 l 30.858398 -15.633057 l 29.359497 -18.035156 l 27.777283 -20.407349 l 0.0 0.0 l 0.00048828125 -0.00048828125 l 0.010681152 -0.0107421875 l 22.880066 -23.039673 l 23.098938 -27.194336 l 19.217651 -27.270264 l 16.655334 -28.649536 l 14.092957 -30.028687 l 11.530579 -31.407959 l 8.968201 -32.787354 l 6.405945 -34.166626 l 3.8215942 -35.496704 l 0.0 0.0 l 0.0 0.0 l 0.0 0.0 l -1.6506348 -41.389038 l -5.0423584 -39.65674 l -8.417114 -37.787476 l -11.727722 -35.737854 l -15.1467285 -34.050842 l -18.427795 -32.003235 l -21.788696 -30.150269 l -25.142395 -28.297913 l 7.9054565 -49.614197 l -36.64038 23.22754 l 0.0 0.0 l 0.0 0.0 l 6.1035156e-05 0.0 l 93.60132 -76.104614 l -22.85315 23.561707 l -129.39935 -128.92157 l 14.781372 -15.708069 l 166.96289 83.79114 l 0.0076293945 -0.014892578 l 19.910889 -33.38855 l -222.448 -17.147583 l 0.0 0.0 l -0.05444336 0.028564453 l -11.556641 6.0849 l -29.201477 11.536499 l 10.153809 -3.4910889 l 95.4823 -93.52826 l 0.0 0.0 l -12.92981 23.713379 l 0.0052490234 -0.00970459 l 30.230957 -74.75531 l -0.06512451 0.3416748 l 8.112976 -64.47339 l 0.0 0.0 l -0.30377197 8.325745 " /> </g> </svg>