<?xml version="1.0" standalone="no"?><!DOCTYPE svg PUBLIC "-//W3C//DTD SVG 1.1//EN" "http://www.w3.org/Graphics/SVG/1.1/DTD/svg11.dtd" ><svg xmlns="http://www.w3.org/2000/svg" xmlns:xlink="http://www.w3.org/1999/xlink" version="1.1" viewBox="-10 0 692 1000"><g transform="matrix(1 0 0 -1 0 800)"><path stroke="black" fill="none" d="M 420.06067 133.93358 l 45.61087 -14.315804 l -88.50809 32.782646 l 103.00299 152.90184 l -14.048828 11.086182 l 0.0 0.0 l 6.1035156e-05 -3.0517578e-05 l 0.00015258789 -0.00015258789 l -12.283936 13.397247 l -21.658844 30.129272 l 10.216888 -15.456177 l 104.18112 -72.788055 l 17.98883 -5.186432 l -35.9834 11.805206 l -17.024963 7.804779 l -15.875732 8.841675 l 152.03864 -36.70465 l -22.076355 -0.745636 l 0.0 0.0 l 0.0 0.0 l 0.0 0.0 l -21.235474 1.8013306 l -20.096375 2.9487305 l 162.78625 22.20279 l -18.158203 -8.181702 l -19.29364 -6.809265 l -20.09314 -5.280731 l -20.104126 -3.6509094 l 154.8515 90.48532 l 10.811768 16.996765 l 9.694092 18.38443 l -33.56671 -52.644745 l -13.785461 -15.501404 l 0.0 0.0 l 0.0 3.0517578e-05 l 6.1035156e-05 3.0517578e-05 l -32.627136 -23.937744 l 16.607727 11.154419 l -41.794495 -184.51245 l -38.186462 -9.219856 l 74.995056 21.138046 l 35.026367 14.485367 l 41.487305 258.16867 l 6.6412354 19.85431 l 8.869202 42.189026 l -3.6693115 -21.371063 l 42.539795 -239.43626 l -30.531982 -22.539673 l -31.719116 -19.656921 l 135.88641 126.22719 l 18.247314 31.834717 l 15.287415 32.9971 l -54.610413 -95.14429 l -23.759521 -28.631256 l 0.0 0.0 l 0.0 0.0 l 0.0 0.0 l 84.62201 444.0221 l 13.411377 -40.842712 l 9.618042 -43.864136 l 5.748535 -46.47577 l 0.0 0.0 l 0.0 0.0 l 0.0 0.0 l -1.397583 -40.759216 l -4.217041 -39.47406 l -7.037964 -37.920715 l -9.72876 -36.016174 l -512.76416 -281.1592 l 51.37317 -6.1372757 l 95.74219 1.9006805 l -41.359802 -3.9535217 l 0.0 0.0 l 0.0 0.0 l 0.0 0.0 l -354.2949 131.26172 l -31.265335 34.78862 l 0.0 0.0 l 0.0 0.0 l 0.0 0.0 l -10.730896 17.763245 l -19.01181 39.40326 l 8.906509 -19.954681 l -17.374725 42.0773 l -7.57489 23.342804 l -6.6349335 24.258514 l -15.1462555 81.36893 l 22.449356 -9.1552734e-05 l -18.233795 -28.463043 l 5.0368347 -27.029877 l 160.88646 -244.99493 l -37.000793 26.593262 l 69.47388 273.89423 l 22.365204 0.0007324219 l 0.0 0.0 l -3.0517578e-05 0.0 l 0.0 0.0 l 4.15625 -22.032684 l 5.2178345 -21.031677 l 6.010895 -19.249664 l 15.475861 -36.53 l -8.212555 17.626678 l -112.76895 81.21735 l -22.300812 0.0 l 45.337646 0.0 l 21.924896 0.0 l -112.46127 0.0 l -22.297867 0.0 l 44.896378 0.0 l 398.1543 257.04532 l 22.045105 -2.6378784 l -70.87543 5.6920166 l 25.049072 -1.1390991 l 86.0788 -12.158081 l -19.373108 4.1762695 l -139.23383 189.91077 l 26.019043 0.9650879 l -54.89215 -1.3070068 l 0.0 0.0 l 0.0 -6.1035156e-05 l 0.0 -0.00018310547 l 0.001159668 -19.61444 l -0.001159668 -20.56549 l 0.0 -19.39264 l 0.0 -20.389465 l 0.0 -19.354797 l 80.298096 102.31604 l 26.847229 2.8911743 l 15.209351 2.1643066 l 20.731201 3.9368286 l 17.524292 4.491272 l 13.708252 4.508606 l 13.512146 5.7418213 l 0.0 0.0 l 0.0 6.1035156e-05 l 6.1035156e-05 0.0 l 17.254395 12.274719 l -205.08502 -198.30127 l 0.0 -19.70288 l 0.0 -19.980103 l 0.0 79.46857 l 0.0 -19.72876 l 220.6131 191.995 l 13.612976 15.059021 l 11.839294 16.509155 l 18.191528 37.174805 l -8.167236 -19.246216 l 14.552734 39.98816 l 4.5459595 22.08081 l 2.7316284 23.508545 l 0.0 0.0 l 0.0 0.0 l 0.0 0.0 l -0.65960693 19.42041 l -1.979065 18.69983 l -3.300293 17.950073 l -10.557739 33.670776 l 5.934204 -16.454102 l -13.1970825 32.19336 l -8.5802 14.990112 l -9.90033 14.25 l -11.219849 13.5095215 l 0.0 0.0 l 0.0 0.0 l 0.0 0.0 l -13.390625 11.970337 l -14.177307 10.714722 l -14.935913 9.44104 l -15.736328 8.1936035 l -16.51007 6.9299316 l -17.290161 5.670044 l -36.910095 7.558838 l 18.832825 -3.1472168 l -75.50574 3.1593018 l 18.066345 1.4088135 l 18.967041 0.47070312 l 0.0 0.0 l 0.0 0.0 l 0.0 0.0 l -70.55267 -7.5185547 l 16.304443 3.2867432 l -46.30301 -12.685181 l 14.545013 5.164795 l -41.02948 -18.325562 l 12.792847 7.0461426 l -24.717163 -15.038452 l 0.0 0.0 l 0.0 0.0 l 0.0 0.0 l -9.934082 -10.254028 l -9.440826 -11.607666 l -8.872711 -12.860352 l -16.2482 -29.769775 l 7.852783 15.525879 l -15.200409 -32.4032 l -6.8137207 -18.16333 l -6.3069153 -19.514648 l -28.937256 -20.812012 l 23.139343 -0.00024414062 l -69.566345 -0.00061035156 l 23.180481 0.0 l -69.581055 -0.00012207031 l 23.17987 0.00012207031 l -46.430176 0.0 l -23.139725 0.0 l -23.212479 0.0 l -46.40854 0.0 l 0.0 0.0 l 0.0 0.0 l 0.0 0.0 l 23.16652 0.00024414062 l -15.203232 42.418945 l 20.471313 77.87781 l -10.991852 -37.74707 l 37.55043 106.309326 l -14.029297 -33.08972 l 29.604172 63.904175 l 17.066788 28.432861 l 61.983658 69.18713 l -23.258484 -19.258667 l 0.0 0.0 l 0.0 0.0 l 0.0 0.0 l -20.111267 -23.784668 l 68.4736 60.325806 l 26.83844 15.218384 l 59.034576 24.36023 l -30.38623 -11.156372 l 96.544556 27.398315 l -33.94403 -7.0996094 l 69.71057 12.179443 l 37.529724 3.043457 l 0.0 0.0 l 0.0 0.0 l 0.0 0.0 l 39.850525 -1.1988525 l 38.349976 -3.6000977 l 36.850037 -6.000122 l 35.350098 -8.400269 l 33.849976 -10.800171 l 32.350098 -13.200317 l 30.850037 -15.60022 l 29.350037 -18.000244 l 27.849243 -20.39978 l 0.0 0.0 l 0.0 0.0 l 0.0 0.0 l 24.309753 -24.479736 l 21.769897 -25.879639 l 19.200073 -27.250122 l 16.640137 -28.630249 l 14.080078 -30.010132 l 11.520142 -31.390015 l 8.959961 -32.77014 l 6.4000854 -34.150146 l 3.8398438 -35.529785 l 0.0 0.0 l 0.0 0.0 l 0.0 0.0 l -1.6797485 -41.459473 l -5.040039 -39.580566 l -8.4001465 -37.700684 l -11.759766 -35.819336 l -15.120178 -33.940857 l -18.479614 -32.05957 l -21.83966 -30.179749 l -25.199524 -28.299988 l 7.919922 -50.42401 l -36.4812 24.004272 l 0.0 0.0 l 0.0 0.0 l 0.0 0.0 l 97.888245 -80.45776 l -28.756226 29.605225 l -128.91364 -129.39655 l 16.63623 -17.685242 l 166.02692 84.97119 l 21.111206 -35.276062 l -222.65283 -16.10083 l 0.0 0.0 l 0.0 0.0 l 0.0 0.0 l -13.700195 7.214905 l -31.661743 12.1553955 l 16.50293 -5.683777 l 100.82446 -110.76013 l -9.742615 22.528137 l -12.26416 21.429688 l 35.48114 -95.84375 l -5.5 26.460999 l 9.970276 -85.40073 l 0.0 0.0 l 0.0 3.0517578e-05 l 0.0 3.0517578e-05 l -1.1078491 30.238739 " /> </g> </svg>