<?xml version="1.0" standalone="no"?><!DOCTYPE svg PUBLIC "-//W3C//DTD SVG 1.1//EN" "http://www.w3.org/Graphics/SVG/1.1/DTD/svg11.dtd" ><svg xmlns="http://www.w3.org/2000/svg" xmlns:xlink="http://www.w3.org/1999/xlink" version="1.1" viewBox="-10 0 692 1000"><g transform="matrix(1 0 0 -1 0 800)"><path stroke="black" fill="none" d="M 420.28134 133.8652 l 44.447693 -13.951363 l -87.95502 32.597603 l 99.9444 155.266 l -10.78064 8.499878 l 0.0 0.0 l -10.001251 10.819824 l -1.848114 2.0010986 l -22.07251 30.441376 l 0.17053223 -0.24664307 l 9.213745 -13.943268 l 108.18979 -74.52603 l 11.741638 -3.389862 l -32.60919 10.795258 l -18.622864 8.548096 l -14.285004 7.9537354 l 149.94559 -36.381104 l -20.642273 -0.69885254 l -0.0007324219 0.0 l 0.0 0.0 l 0.00018310547 0.0 l -22.421997 1.974884 l -18.192505 2.6689453 l 160.93427 21.806244 l -16.540283 -7.45401 l -21.463745 -7.4408875 l -22.471191 -5.6080017 l -14.286255 -2.5949707 l 155.29358 93.632355 l 7.73999 12.167145 l 10.483582 19.603607 l -36.40924 -55.785706 l -10.791504 -12.135895 l 0.0 0.0 l 0.0024414062 0.0027160645 l -31.707275 -23.35315 l 15.091736 10.135742 l -41.949463 -184.32532 l -37.29596 -9.005249 l 75.368164 21.330467 l 34.135254 14.116257 l 41.884766 258.58057 l 6.4416504 19.261047 l 8.753845 41.2193 l -3.3416138 -19.463959 l 42.32422 -240.14238 l -32.25818 -23.60205 l -29.258362 -18.132126 l 135.6344 126.51691 l 18.751526 33.057404 l 14.088318 30.408264 l -54.722046 -94.97656 l -23.327148 -28.110825 l 0.0 0.0 l 0.0 1.5258789e-05 l 0.0 3.0517578e-05 l 84.85596 443.29758 l 13.106384 -39.912415 l 9.810303 -45.08069 l 5.6240234 -45.52948 l 0.0 0.0 l 0.0 -0.0015258789 l -0.00390625 -0.10668945 l -1.3649902 -39.732178 l -4.39917 -41.115936 l -7.4436035 -39.20691 l -8.968994 -33.20462 l -512.06213 -282.00348 l 50.23474 -6.0017166 l 95.23181 1.8013535 l -40.609924 -3.8843155 l 0.0 0.0 l 0.0 0.0 l 6.1035156e-05 7.6293945e-06 l -362.93402 140.97755 l 8.052856 -9.058228 l -30.706268 34.174698 l 0.0 0.0 l -0.0005645752 0.0009765625 l -0.02619934 0.044799805 l -10.05072 16.646301 l -17.85875 36.453796 l 6.3114777 -14.14328 l -16.2527 39.490997 l -8.266464 25.50412 l -6.04805 22.111145 l -15.106384 82.10361 l 21.909668 -0.00091552734 l -17.848007 -28.921936 l 4.8966217 -26.28244 l 160.63557 -245.04773 l -36.156555 25.988663 l 70.36749 274.25903 l 20.918488 0.008361816 l 0.0007324219 3.0517578e-05 l 0.0 0.0 l -0.00015258789 0.0 l 4.6054077 -23.712738 l 5.9935303 -23.234344 l 4.2623596 -13.651489 l 15.858063 -37.915253 l -7.973419 17.111664 l -114.14331 81.402405 l -20.177948 0.0 l 48.935883 0.0 l 15.795929 0.0 l -112.04834 0.0 l -20.143951 0.0 l 43.792206 0.0 l 399.69183 256.88852 l 20.075134 -2.4020386 l -70.08099 5.6071167 l 24.826294 -1.1289673 l 86.06555 -12.138306 l -19.192688 4.13678 l -136.71747 190.02478 l 0.072753906 0.002746582 l 18.795837 0.6975708 l -50.3302 -1.4945679 l 0.0 0.0 l 0.00012207031 -0.02557373 l 0.01159668 -16.222656 l -0.013793945 -27.657593 l 0.0 -13.985535 l 0.0 -25.606262 l 0.0 -13.544373 l 82.72858 100.67566 l 0.018371582 0.0020751953 l 35.859314 4.2547607 l 0.0 0.0 l 28.804749 5.6123657 l 23.218506 6.6365356 l 0.5307617 0.17358398 l 16.744873 6.8268433 l 0.0 0.0 l 0.0021362305 0.0015258789 l 0.28833008 0.20532227 l 16.516663 11.75 l -204.71228 -199.06079 l 0.0 -2.038025 l 0.0 -15.56488 l 0.0 -20.833374 l 0.0 78.06836 l 0.0 -17.904236 l 220.85919 191.62207 l 13.218506 14.62207 l 11.937988 16.60675 l 18.101624 36.905945 l -7.9248047 -18.672424 l 14.47522 39.861755 l 4.5029907 21.87732 l 2.7492676 23.599365 l 0.0 0.0 l 0.0 0.0 l 0.0 0.0 l -0.65600586 19.317139 l -1.9692993 18.80542 l -3.3023071 17.950317 l -10.534302 33.573364 l 5.873047 -16.285522 l -13.166199 32.12317 l -8.582703 14.9904785 l -9.9036255 14.249878 l -11.218567 13.505493 l 0.0 0.0 l 0.0 0.0 l 0.0 0.0 l -13.396851 11.973145 l -14.255554 10.765015 l -14.785461 9.346069 l -15.803528 8.232056 l -16.511658 6.9296875 l -17.291626 5.6696777 l -36.80432 7.54541 l 18.64972 -3.116333 l -75.354126 3.150879 l 17.921814 1.3973389 l 19.041565 0.47717285 l 0.0 0.0 l 0.0 0.0 l 0.0 0.0 l -70.474915 -7.503174 l 16.139038 3.2530518 l -46.12204 -12.634277 l 14.38559 5.1083984 l -40.917603 -18.277588 l 12.716553 7.0045166 l -24.69049 -15.025024 l 0.0 0.0 l -6.1035156e-05 -0.00012207031 l -0.00018310547 -0.00012207031 l -9.867157 -10.185425 l -9.662659 -11.90332 l -8.581848 -12.4383545 l -16.335999 -29.873047 l 7.776184 15.3741455 l -15.204834 -32.43701 l -6.7467346 -17.984985 l -6.3807983 -19.669678 l -28.48175 -20.727417 l 22.492798 -0.0037841797 l -69.20758 -0.006958008 l 22.972748 0.0 l -69.379 -0.0008544922 l 22.96524 0.00048828125 l -46.75186 0.00048828125 l -22.49736 0.0 l -23.345581 -0.00024414062 l -46.496613 0.00024414062 l 0.0 0.0 l 4.5776367e-05 0.0 l 0.00010681152 0.0 l 22.806625 0.0025634766 l -14.811264 42.24951 l 20.378754 77.85425 l -10.9049225 -37.450317 l 37.448227 106.03601 l -13.91507 -32.821655 l 29.648483 63.949097 l 16.925995 28.197388 l 61.702972 68.99756 l -22.920105 -18.976929 l 0.0 0.0 l 6.1035156e-05 0.0 l 9.1552734e-05 0.00012207031 l -20.020844 -23.676514 l 68.40564 60.22827 l 26.71518 15.14624 l 58.9765 24.363403 l -30.132996 -11.063965 l 96.27365 27.326904 l -33.667328 -7.0422363 l 69.61005 12.174561 l 37.52704 3.0257568 l 0.0 0.0 l 0.0 0.0 l 0.0 0.0 l 39.85565 -1.1853027 l 38.35028 -3.6019287 l 36.85034 -6.002075 l 35.350525 -8.402344 l 33.850525 -10.80249 l 32.350647 -13.202759 l 30.850708 -15.602783 l 29.350769 -18.003052 l 27.840881 -20.397583 l 0.0 0.0 l 0.0 0.0 l 0.0 0.0 l 24.200378 -24.369507 l 21.874878 -25.983643 l 19.201477 -27.251709 l 16.641296 -28.631714 l 14.081116 -30.011597 l 11.520935 -31.39148 l 8.960693 -32.771484 l 6.4005127 -34.15149 l 3.838379 -35.5271 l 0.0 0.0 l 0.0 0.0 l 0.0 0.0 l -1.6774292 -41.45398 l -5.040222 -39.586548 l -8.401489 -37.70752 l -11.757263 -35.812927 l -15.122253 -33.949524 l -18.475525 -32.055115 l -21.835571 -30.17743 l -25.195068 -28.299805 l 7.918762 -50.360046 l -36.493896 23.942932 l 0.0 0.0 l 0.0 0.0 l 0.0 0.0 l 97.54968 -80.11389 l -28.289856 29.127747 l -128.95203 -129.35901 l 16.489746 -17.529053 l 166.10083 84.87799 l 21.016968 -35.128113 l -222.58105 -16.212708 l 0.0 0.0 l -0.00012207031 6.1035156e-05 l -0.00030517578 0.00012207031 l -13.590332 7.1568604 l -31.467346 12.106506 l 16.001343 -5.510559 l 99.06055 -106.28583 l -7.1068115 16.434204 l -12.841003 22.81134 l 35.066772 -94.178345 l -4.966797 23.914673 l 9.7560425 -84.25079 l 0.0 0.0 l -0.00012207031 0.0030822754 l -0.01739502 0.47225952 l -1.0631104 29.01831 " /> </g> </svg>