<?xml version="1.0" standalone="no"?><!DOCTYPE svg PUBLIC "-//W3C//DTD SVG 1.1//EN" "http://www.w3.org/Graphics/SVG/1.1/DTD/svg11.dtd" ><svg xmlns="http://www.w3.org/2000/svg" xmlns:xlink="http://www.w3.org/1999/xlink" version="1.1" viewBox="-10 0 692 1000"><g transform="matrix(1 0 0 -1 0 800)"><path stroke="black" fill="none" d="M 415.64697 795.0035 l 98.37073 143.81897 l 98.9599 142.9621 l 99.12042 145.62805 l 99.104614 144.3534 l 97.34515 141.79907 l 100.03595 144.20032 l 0.5441284 -121.082275 l -0.58392334 -123.29187 l 0.6123047 -122.94983 l 0.14129639 -122.65027 l -0.111328125 -122.77014 l -0.33380127 -122.64557 l 0.1642456 -123.1134 l 0.4663086 -122.675415 l 0.2119751 -122.86218 l 163.51166 -127.40155 l 0.080078125 -13.336121 l -29.123169 18.004944 l -0.37402344 0.0 l -16.764648 -6.1035156e-05 l -23.428467 6.1035156e-05 l 0.2553711 0.0 l -22.924927 0.0 l -68.00885 0.0 l 0.0 0.0 l 2.7295532 0.0 l 38.742676 0.0 l 0.2536621 0.0 l -45.240234 -339.3109 l 0.0 10.93409 l 0.0 0.0 l 0.0 -81.38074 l 0.0 -13.842152 l 0.0 0.0 l 0.0 173.04788 l 0.0 -0.58747864 l 0.0 -40.90596 l 0.0 0.0 l 0.0 0.6352234 l 164.0 223.85106 l 0.0 0.0 l 0.0 23.048035 l 0.0 -0.0095825195 l 0.0 -65.219696 l 0.0 -0.20114136 l 0.0 -13.1927185 l -35.059814 -88.865906 l 0.0 0.0 l 18.721924 4.5776367e-05 l 0.0 0.0 l 16.303589 43.42137 l 0.023803711 13.00473 l 0.0 0.0 l -95.04431 -56.42627 l -0.3963623 1.5258789e-05 l -49.246094 0.0 l 0.0 0.0 l 22.906372 1.5258789e-05 l 0.0 0.0 l -142.14624 -218.99994 l 0.13122559 -1.1650991e-07 l -45.614746 -6.695895e-06 l 0.6613159 -1.1412453e-07 l 114.661865 1.6086824e-05 l 0.08105469 -1.2525197e-07 l -36.60315 1.1110202e-05 l -166.37933 115.937256 l 0.0 0.0 l 0.0 0.03955841 l 0.0008544922 34.23146 l -0.00091552734 -99.830734 l 0.0 0.0 l 6.1035156e-05 0.10573959 l 0.00091552734 34.00225 l 0.56921387 -68.32865 l -0.045776367 0.48926544 l 40.005188 -16.527393 l 0.52020264 -0.00957334 l -41.050964 191.58768 l 0.0 0.5472107 l -0.00048828125 26.1185 l 0.0 -0.028274536 l -379.15247 0.17549133 l -75.80914 0.3620758 l -228.00964 0.12838745 l -0.04008484 0.0 l -71.79103 0.00045776367 l 165.98087 0.103149414 l 0.0 0.0 l -69.556946 143.94536 l 98.54114 143.7186 l 99.19861 142.94025 l 157.48853 -430.07465 l 75.72641 -0.24520874 l 75.82654 -0.10508728 l 75.71527 0.049682617 " /> </g> </svg>