<?xml version="1.0" standalone="no"?><!DOCTYPE svg PUBLIC "-//W3C//DTD SVG 1.1//EN" "http://www.w3.org/Graphics/SVG/1.1/DTD/svg11.dtd" ><svg xmlns="http://www.w3.org/2000/svg" xmlns:xlink="http://www.w3.org/1999/xlink" version="1.1" viewBox="-10 0 692 1000"><g transform="matrix(1 0 0 -1 0 800)"><path stroke="black" fill="none" d="M 415.40048 795.0 l 99.09848 143.99963 l 99.09967 143.9978 l 99.10004 144.00342 l 99.10004 144.00085 l 99.09619 143.99524 l 99.10199 144.00037 l 0.001159668 -122.796265 l -0.0012207031 -122.801025 l 0.0012817383 -122.800415 l 0.00030517578 -122.79968 l -0.00024414062 -122.799805 l -0.0006713867 -122.799805 l 0.00030517578 -122.80066 l 0.0010375977 -122.79968 l 0.0004272461 -122.80011 l 163.99896 -122.80994 l 0.00024414062 -21.183044 l -16.42749 21.193115 l -16.357056 0.0 l -16.409058 0.0 l -32.779907 0.0 l 16.354736 0.0 l -32.76819 0.0 l -65.61279 0.0 l 0.0 0.0 l 0.0 0.0 l 0.0 0.0 l 16.378052 0.0 l 16.448242 0.0 l 16.354614 0.0 l -49.18091 -364.90253 l 0.0 21.375435 l 0.0 22.012253 l 0.0 -65.733795 l 0.0 -21.969355 l 0.0 -21.732542 l 0.0 197.01462 l 0.0 -21.847366 l 0.0 -43.795486 l 0.0 21.849182 l 164.0 193.04527 l 0.0 21.039856 l 0.0 21.239899 l 0.0 -63.603516 l 0.0 -21.183197 l -49.10913 -84.80875 l 16.265991 0.0 l 32.75122 0.0 l -16.267944 0.0 l 16.359741 21.247894 l 0.00012207031 21.266449 l 0.0 21.036285 l -65.66345 -63.55063 l -16.637817 0.0 l -15.981567 0.0 l -65.62372 0.0 l 16.269836 0.0 l 16.52539 0.0 l 16.259277 0.0 l -165.61218 -219.0 l 23.231262 -8.890993e-09 l -69.82892 -5.785523e-09 l 23.245178 -5.416041e-10 l 93.25311 3.475452e-08 l 23.228271 -2.1297865e-08 l -46.557617 4.519211e-08 l -163.10706 109.53526 l 0.0 21.823029 l 0.0 21.935028 l 0.0 -109.46097 l 0.0 21.834522 l 0.0 21.9264 l 0.0012207031 -87.55846 l -0.00036621094 21.845766 l 23.336243 -21.880337 l 23.242859 -7.021788e-05 l -46.579956 175.23537 l 0.0 21.84671 l 0.0 21.916367 l -379.00034 0.00032043457 l -75.80002 0.00077819824 l -227.40134 0.0002746582 l -75.79145 0.0 l 227.02333 9.1552734e-05 l -75.3038 -3.0517578e-05 l -52.625298 144.00006 l 99.09881 143.99939 l 99.100204 143.99768 l 157.5 -431.99585 l 75.799805 -0.0005187988 l 75.80011 -0.00022888184 l 75.799805 0.00010681152 " /> </g> </svg>