<?xml version="1.0" standalone="no"?><!DOCTYPE svg PUBLIC "-//W3C//DTD SVG 1.1//EN" "http://www.w3.org/Graphics/SVG/1.1/DTD/svg11.dtd" ><svg xmlns="http://www.w3.org/2000/svg" xmlns:xlink="http://www.w3.org/1999/xlink" version="1.1" viewBox="-10 0 692 1000"><g transform="matrix(1 0 0 -1 0 800)"><path stroke="black" fill="none" d="M 415.40048 795.0 l 99.09958 143.99988 l 99.099915 143.99939 l 99.099976 144.00098 l 99.10004 144.00024 l 99.09888 143.99866 l 99.100586 144.00012 l 0.00030517578 -122.79895 l -0.00036621094 -122.80029 l 0.00036621094 -122.80017 l 0.00012207031 -122.79993 l -6.1035156e-05 -122.79993 l -0.00024414062 -122.79993 l 0.00012207031 -122.80017 l 0.00030517578 -122.79993 l 0.00012207031 -122.80005 l 163.99976 -122.80289 l 0.0 -21.195038 l -16.407959 21.197998 l -16.387451 0.0 l -16.402588 0.0 l -32.79419 0.0 l 16.386719 0.0 l -32.79065 0.0 l -65.60376 0.0 l 0.0 0.0 l 0.0 0.0 l 0.0 0.0 l 16.393555 0.0 l 16.414185 0.0 l 16.386597 0.0 l -49.194336 -365.1836 l 0.0 21.74636 l 0.0 21.932877 l 0.0 -65.7099 l 0.0 -21.920315 l 0.0 -21.850952 l 0.0 197.07498 l 0.0 -21.884583 l 0.0 -43.798676 l 0.0 21.885117 l 164.0 192.94255 l 0.0 21.153107 l 0.0 21.21167 l 0.0 -63.601013 l 0.0 -21.195099 l -49.17334 -84.80255 l 16.360718 0.0 l 32.785645 0.0 l -16.361328 0.0 l 16.388306 21.21402 l 0.0 21.219452 l 0.0 21.15207 l -65.61853 -63.58554 l -16.469727 0.0 l -16.277466 0.0 l -65.60693 0.0 l 16.361938 0.0 l 16.436768 0.0 l 16.358643 0.0 l -165.6742 -219.0 l 23.279846 -2.6041107e-09 l -69.87915 -1.6943886e-09 l 23.283936 -1.5870683e-10 l 93.215576 1.0179292e-08 l 23.27893 -6.237997e-09 l -46.587585 1.32365585e-08 l -163.10205 109.51032 l 0.0 21.877464 l 0.0 21.910248 l 0.0 -109.488556 l 0.0 21.880825 l 0.0 21.907722 l 0.00036621094 -87.58783 l -0.00012207031 21.884115 l 23.310608 -21.894241 l 23.283264 -2.0566338e-05 l -46.594116 175.21036 l 0.0 21.8844 l 0.0 21.9048 l -379.0001 9.1552734e-05 l -75.80002 0.00022888184 l -227.40039 7.6293945e-05 l -75.7975 0.0 l 227.28969 3.0517578e-05 l -75.65468 -1.5258789e-05 l -52.536705 144.00002 l 99.09966 143.99982 l 99.10005 143.99936 l 157.5 -431.9988 l 75.79996 -0.00015258789 l 75.80005 -6.1035156e-05 l 75.79993 3.0517578e-05 " /> </g> </svg>