<?xml version="1.0" standalone="no"?><!DOCTYPE svg PUBLIC "-//W3C//DTD SVG 1.1//EN" "http://www.w3.org/Graphics/SVG/1.1/DTD/svg11.dtd" ><svg xmlns="http://www.w3.org/2000/svg" xmlns:xlink="http://www.w3.org/1999/xlink" version="1.1" viewBox="-10 0 692 1000"><g transform="matrix(1 0 0 -1 0 800)"><path stroke="black" fill="none" d="M 416.24335 795.0118 l 96.61005 143.3819 l 98.621826 140.45642 l 99.1698 149.55847 l 99.1156 145.20679 l 93.10852 136.48523 l 102.295715 144.68408 l -0.5272217 -0.7886963 l 2.3849487 -116.14661 l -1.9937134 -124.47949 l 2.0905151 -123.3114 l 0.48242188 -122.2887 l -0.37994385 -122.698 l -1.1397095 -122.27289 l 0.56085205 -123.870056 l 1.59198 -122.37463 l 0.7236328 -123.01233 l 162.33246 -138.50961 l 0.041015625 -0.34368896 l -34.53784 16.282898 l 0.0 0.0 l -4.4023438 -9.1552734e-05 l -32.546875 0.00015258789 l 0.0 0.0 l -6.0579834 0.0 l -78.87982 3.0517578e-05 l 0.0 0.0 l 35.647278 0.0 l 0.0 0.0 l -42.590576 -309.18802 l 0.0 0.0 l 6.1035156e-05 -113.382996 l 0.0 0.0 l -6.1035156e-05 168.32143 l 0.0 0.0 l 0.0 -10.156906 l 0.0 0.0 l 164.0 205.83867 l 0.0 8.960632 l 0.0 0.0 l 0.0 -63.42758 l 0.0 0.0 l 0.0 -0.29434204 l -30.034546 -98.66771 l 0.0 0.0 l 29.619995 55.038864 l 0.0 0.0 l -103.1062 -55.042984 l 0.0 0.0 l -35.662598 -0.0016937256 l 0.0 0.0 l -138.78076 -218.99728 l 0.0 0.0 l -27.49347 -7.902474e-05 l 0.0 0.0 l 96.110535 0.00018522107 l 0.0 0.0 l -13.352783 -0.000100192 l -174.28723 131.66714 l 0.0 0.0 l -0.006225586 11.077057 l 0.005493164 -75.14189 l 0.0 0.0 l -0.0053710938 9.364212 l 6.090576 -63.49963 l 0.0 0.0 l 32.000854 -12.199808 l 0.0 0.0 l -38.099426 192.01736 l 0.0 0.0 l -0.0008544922 23.539139 l 0.0 -0.0079956055 l -379.5206 0.51065063 l -75.83118 1.236206 l -229.4815 0.43832397 l -0.009689331 0.0 l -62.239677 0.0016021729 l 162.59045 1.2083588 l -72.62714 142.95726 l 97.191925 143.03918 l 99.436676 140.38184 l 157.46082 -425.4265 l 75.548706 -0.837204 l 75.890564 -0.35879517 l 75.51074 0.16960144 " /> </g> </svg>