<?xml version="1.0" standalone="no"?><!DOCTYPE svg PUBLIC "-//W3C//DTD SVG 1.1//EN" "http://www.w3.org/Graphics/SVG/1.1/DTD/svg11.dtd" ><svg xmlns="http://www.w3.org/2000/svg" xmlns:xlink="http://www.w3.org/1999/xlink" version="1.1" viewBox="-10 0 692 1000"><g transform="matrix(1 0 0 -1 0 800)"><path stroke="black" fill="none" d="M 415.40616 795.00006 l 99.081726 143.99542 l 99.096436 143.974 l 99.100525 144.0409 l 99.10016 144.00879 l 99.05585 143.9447 l 99.123535 144.00513 l 0.013671875 -122.75696 l -0.014709473 -122.812256 l 0.015380859 -122.80383 l 0.003540039 -122.796265 l -0.002746582 -122.799194 l -0.008422852 -122.79614 l 0.0041503906 -122.80786 l 0.01171875 -122.796875 l 0.0053100586 -122.801575 l 163.98773 -122.91559 l 0.0020751953 -21.00241 l -16.719727 21.11972 l -15.899048 0.0 l -16.507324 0.0 l -32.564575 0.0 l 15.872437 0.0 l -32.430054 0.0 l -65.74658 0.0 l 0.0 0.0 l 6.1035156e-05 0.0 l 6.1035156e-05 0.0 l 16.142334 0.0 l 16.96167 0.0 l 15.871826 0.0 l -48.97815 -360.66656 l 0.0 15.785233 l 0.0 23.208542 l 0.0 -66.093994 l 0.0 -22.70845 l 0.0 -19.947971 l 0.0 196.10481 l 0.0 -21.286438 l 0.0 -43.747345 l 0.0 21.307693 l 164.0 194.59296 l 0.0 19.333557 l 0.0 21.664948 l 0.0 -63.64093 l 0.0 -21.003876 l -48.141724 -84.90216 l 14.838867 0.0 l 32.23181 0.0 l -14.86084 0.0 l 15.93103 21.758331 l 0.0007324219 21.97464 l 0.0 19.291565 l -66.339966 -63.024536 l -19.171265 0.0 l -11.522583 0.0 l -65.87683 0.0 l 14.8828125 0.0 l 17.861206 0.0 l 14.76062 0.0 l -164.677 -219.0 l 22.498962 -1.0363851e-07 l -69.071594 -6.744199e-08 l 22.661194 -6.313712e-09 l 93.8186 4.0512668e-07 l 22.463745 -2.4826363e-07 l -46.105347 5.2679593e-07 l -163.18243 109.91118 l 0.0 21.002625 l 6.1035156e-05 22.308502 l -6.1035156e-05 -109.04509 l 0.0 21.136715 l 6.1035156e-05 22.207802 l 0.014282227 -87.115776 l -0.0040893555 21.267807 l 23.722656 -21.670784 l 22.633667 -0.0008185194 l -46.366577 175.61234 l 0.0 21.278732 l 0.0 22.090744 l -379.00385 0.0037078857 l -75.80026 0.009094238 l -227.41531 0.0032196045 l -75.70028 1.5258789e-05 l 223.00906 0.0011138916 l -70.0157 -0.00036621094 l -53.9606 144.00046 l 99.08597 143.99295 l 99.10248 143.97336 l 157.4997 -431.9516 l 75.79816 -0.006164551 l 75.80072 -0.0026397705 l 75.79785 0.0012512207 " /> </g> </svg>