<?xml version="1.0" standalone="no"?><!DOCTYPE svg PUBLIC "-//W3C//DTD SVG 1.1//EN" "http://www.w3.org/Graphics/SVG/1.1/DTD/svg11.dtd" ><svg xmlns="http://www.w3.org/2000/svg" xmlns:xlink="http://www.w3.org/1999/xlink" version="1.1" viewBox="-10 0 692 1000"><g transform="matrix(1 0 0 -1 0 800)"><path stroke="black" fill="none" d="M 415.47232 795.00104 l 98.88641 143.94696 l 99.05896 143.69604 l 99.10596 144.4768 l 99.10138 144.10352 l 98.586 143.35535 l 99.374146 144.05872 l 0.1593628 -122.297 l -0.17102051 -122.94397 l 0.17932129 -122.843994 l 0.041381836 -122.7561 l -0.032592773 -122.79126 l -0.09777832 -122.75476 l 0.048095703 -122.891785 l 0.13659668 -122.76349 l 0.062072754 -122.81824 l 163.857 -124.147736 l 0.0234375 -18.896729 l -20.126465 20.26419 l -10.560913 0.0 l -17.651978 -3.0517578e-05 l -30.054443 3.0517578e-05 l 10.249512 0.0 l -28.486572 0.0 l -67.033325 0.0 l 0.0 0.0 l 0.013000488 0.0 l 13.108582 0.0 l 22.947144 0.0 l 10.244019 0.0 l -46.614258 -347.58484 l 0.0 0.0 l 0.0 24.070679 l 0.0 -0.0112838745 l 0.0 -70.281494 l 0.0 -31.324005 l 0.0 -0.7055292 l 0.0 187.05928 l 0.0 -14.747787 l 0.0 -43.186172 l 0.0 0.10409546 l 0.0 14.891495 l 164.0 212.6341 l 0.0 0.75946045 l 0.0 25.303741 l 0.0 -0.039215088 l 0.0 -64.037994 l 0.0 -1.1032715 l 0.0 -17.810364 l -36.864136 -85.990875 l 0.48046875 0.0 l 23.89795 0.0 l -0.5202637 0.0 l 12.995972 27.708511 l 0.009033203 30.229752 l 0.00012207031 0.66241455 l -74.2262 -58.600708 l -19.804077 3.0517578e-05 l 0.0 0.0 l -57.27191 0.0 l 0.56481934 0.0 l 31.581726 0.0 l 0.3647461 0.0 l -156.8487 -219.0 l 13.962524 -1.2081e-06 l -60.243896 -7.8615926e-07 l 15.853821 -7.359836e-08 l 100.41058 4.722501e-06 l 13.551758 -2.8939726e-06 l -40.833557 6.140783e-06 l -164.06067 114.29314 l 0.0 0.637558 l 0.00018310547 10.801903 l 0.00024414062 26.66185 l -0.0004272461 -104.197205 l 6.1035156e-05 0.502903 l 0.00012207031 12.49958 l 0.00030517578 25.48806 l 0.16668701 -81.95554 l -0.048034668 14.530622 l 28.227478 -19.22808 l 15.532776 -0.0095413625 l -43.879578 180.00658 l 0.0 14.658081 l -0.00012207031 24.123413 l -379.04465 0.043121338 l -75.802704 0.106048584 l -227.57855 0.037597656 l -74.63754 0.0001373291 l 176.21535 0.013015747 l -8.373077 -0.004272461 l -69.52608 144.00545 l 98.93631 143.9176 l 99.12891 143.68958 l 157.49661 -431.43607 l 75.77844 -0.07182312 l 75.8078 -0.030776978 l 75.77521 0.014556885 " /> </g> </svg>