<?xml version="1.0" standalone="no"?><!DOCTYPE svg PUBLIC "-//W3C//DTD SVG 1.1//EN" "http://www.w3.org/Graphics/SVG/1.1/DTD/svg11.dtd" ><svg xmlns="http://www.w3.org/2000/svg" xmlns:xlink="http://www.w3.org/1999/xlink" version="1.1" viewBox="-10 0 692 1000"><g transform="matrix(1 0 0 -1 0 800)"><path stroke="black" fill="none" d="M 530.0 717.0 l 0.0 19.900024 l 0.0 19.899963 l 0.0 19.900024 l -81.034454 18.768616 l 81.034454 21.031372 l 0.0 19.900024 l 0.0 19.899963 l 0.0 19.900024 l 0.0 19.899963 l -10.960144 36.163452 l 0.010925293 -0.016235352 l 39.579224 -15.917175 l 26.690002 0.98999023 l 27.246094 117.63666 l 20.313904 -113.6767 l 20.869995 2.9700317 l 18.929993 3.630005 l 16.98999 4.289978 l 15.049988 4.950012 l 13.110046 5.6099854 l 0.0 0.0 l 17.289978 12.299988 l 15.470032 13.700012 l 13.649963 15.100037 l 11.830017 16.5 l 10.01001 17.899963 l 8.190002 19.300049 l 6.369995 20.699951 l 4.549988 22.099976 l 2.7299805 23.5 l 0.0 0.0 l -0.65997314 19.430054 l -1.9799805 18.689941 l -3.3000488 17.950073 l -4.619995 17.20996 l -5.9400024 16.46997 l -7.26001 15.72998 l -8.579956 14.990112 l -9.900024 14.25 l -11.219971 13.509888 l 0.0 0.0 l -13.390015 11.970093 l -14.169983 10.709961 l -14.419739 -30.989502 l -16.260315 48.629517 l -16.509949 6.9299316 l -17.29004 5.670044 l -18.070007 4.410034 l -18.849976 3.1500244 l -19.630005 1.8900146 l 0.0 0.0 l -18.960022 -0.47009277 l -18.079956 -1.4099121 l -17.200012 -2.3500977 l -16.320007 -3.289917 l -15.440002 -4.2299805 l -14.559998 -5.170044 l -13.679993 -6.1099854 l -12.800018 -7.050049 l -11.919983 -7.98999 l 0.0 0.0 l -9.940002 -10.26001 l -9.420013 -11.579956 l -8.899994 -12.900024 l -8.380005 -14.219971 l -7.8599854 -15.540039 l -7.3399963 -16.859985 l -6.8200073 -18.180054 l -6.299988 -19.5 l -5.779999 -20.819946 l -23.200012 0.0 l -23.200012 0.0 l -23.199982 0.0 l -23.200012 0.0 l -23.200012 0.0 l -23.199982 0.0 l -23.200012 0.0 l -23.199997 0.0 l -23.199997 0.0 l -23.199997 0.0 l 0.0 0.0 l 7.9599915 42.434937 l 9.479996 40.105103 l 11.0 37.774902 l 12.520004 35.44507 l 14.040009 33.11499 l 15.559998 30.785034 l 17.080002 28.454956 l 18.600006 26.125 l 20.119995 23.795044 l 0.0 0.0 l 23.290009 19.284912 l 25.069977 17.255005 l 26.850006 15.225098 l 28.630005 13.194946 l 30.410004 11.165039 l 32.190002 9.13501 l 33.97 7.1049805 l 35.75 5.074951 l 37.52997 3.045044 l 0.0 0.0 l 39.850037 -1.2000732 l 38.349976 -3.5999756 l 36.849976 -6.0 l 35.350037 -8.400024 l 33.849976 -10.799927 l 32.350037 -13.200073 l 30.941895 -90.00171 l 29.258057 56.401733 l 136.35254 151.97363 l 0.0 0.0 l 21.655273 -54.435425 l -23.240662 -142.37866 l -60.837097 -25.919556 l 19.199951 -27.25 l 16.640015 -28.630005 l 14.080017 -30.01001 l 35.285828 -16.950806 l -14.805847 -47.209106 l 6.4000244 -34.150024 l 14.029358 -35.48059 l -0.010192871 0.0 l -11.859192 -41.5094 l -5.039978 -39.58008 l 12.480835 -40.52124 l -32.64087 -32.99872 l -15.119995 -33.940002 l 34.47522 -49.71649 l -74.79523 -12.523499 l -25.199951 -28.299988 l -28.559998 -26.419983 l 0.0 0.0 l 36.47998 -24.01001 l 32.640015 -26.830017 l 65.972534 -17.190796 l -12.212585 -44.9292 l 21.120056 -35.289978 l 9.650269 -37.62213 l 21.069702 -41.417908 l 9.599976 -43.75 l -22.234375 -40.107056 l 0.028015137 -0.0064697266 l 26.566345 -47.296448 l -4.199951 -39.320007 l 91.90222 -34.786224 l 0.0 0.0 l -88.784546 1.198761 l 0.0 0.0 l -32.5177 -75.25253 l -15.399963 -33.24002 l -18.200012 -31.71997 l 29.583496 -125.0724 l 0.0 0.0 l 163.4187 133.95488 l 0.0 0.0 l -108.21619 -80.581604 l 0.0 0.0 l -158.37604 -12.260895 l 68.94971 -206.24226 l 0.0 0.0 l -131.26971 164.00227 l -57.96051 -12.945648 l 27.763855 -143.10728 l 0.0 0.0 l -38.15747 201.08234 l 0.0 0.0 l -75.24585 -97.82941 l -39.849976 -6.5999985 l -41.429993 -3.959999 l 0.0 0.0 l -54.360046 2.0499954 l -51.47998 6.1500015 l -48.600006 10.25 l -45.72 14.350006 l -28.132172 65.550385 l -54.667816 -24.550385 l -21.495392 38.960724 l -228.0922 5.1974487 l 0.0 0.0 l 146.98758 48.091827 l 0.0 0.0 l -10.789993 17.859985 l -9.970001 19.180023 l -9.150009 20.5 l -8.330002 21.819977 l -57.566086 18.409454 l 43.36609 29.190552 l -5.869995 25.779999 l -5.050003 27.100006 l -4.2299957 28.419983 l 22.5 0.0 l 26.141602 22.309235 l 18.858398 -22.309235 l 22.5 0.0 l 22.5 0.0 l 22.5 0.0 l 16.666382 124.1326 l 28.333618 -124.1326 l 22.5 0.0 l 22.5 0.0 l 0.0 0.0 l 4.11499 -21.875 l 5.1450195 -20.824982 l 6.174988 -19.774994 l 7.2049866 -18.725006 l 8.235016 -17.675018 l 9.264984 -16.625 l 10.295013 -15.574982 l 11.325012 -14.524994 l 12.35498 -13.475006 l 0.0 0.0 l 9.594452 -72.16568 l 19.905548 50.745667 l 16.024994 -8.924988 l 16.87503 -7.735016 l 20.06549 -43.844864 l 16.234497 31.94487 l 19.424988 -4.1650085 l 20.275024 -2.9749756 l 20.919983 -28.987396 l 0.00018310547 0.027175903 l 22.414795 27.925217 l 21.429993 2.25 l 28.583801 -28.225372 l 11.936218 37.225372 l 19.090027 6.75 l 18.309998 8.25 l 17.529968 9.75 l 16.75 11.25 l 15.970032 12.75 l 0.0 0.0 l 14.059998 15.809998 l 12.579956 16.630005 l 11.100037 17.449982 l 9.619995 18.27002 l 8.140015 19.089996 l 6.659973 19.910004 l 5.1799927 20.72998 l 3.7000122 21.550018 l 2.2200317 22.369995 l 0.0 0.0 l -1.1100464 30.300018 l -3.329956 28.5 l -5.550049 26.699951 l -7.7699585 24.900024 l -9.98999 23.099976 l -12.210022 21.300049 l -14.429993 19.5 l -16.650024 17.699951 l -18.869995 15.900024 l 0.0 0.0 l -13.710022 7.2200317 l -15.129944 6.459961 l -16.550049 5.700012 l -17.96997 4.9400024 l -19.390015 4.1799927 l -20.809998 3.419983 l -22.22998 2.6600342 l -23.650024 1.8999634 l -25.070007 1.1400146 " /> </g> </svg>