<?xml version="1.0" standalone="no"?><!DOCTYPE svg PUBLIC "-//W3C//DTD SVG 1.1//EN" "http://www.w3.org/Graphics/SVG/1.1/DTD/svg11.dtd" ><svg xmlns="http://www.w3.org/2000/svg" xmlns:xlink="http://www.w3.org/1999/xlink" version="1.1" viewBox="-10 0 692 1000"><g transform="matrix(1 0 0 -1 0 800)"><path stroke="black" fill="none" d="M 415.42114 795.0003 l 99.037445 143.98444 l 99.08795 143.91101 l 99.101746 144.13965 l 99.100464 144.03027 l 98.9494 143.81116 l 99.1803 144.01721 l 0.046691895 -122.65271 l -0.050109863 -122.84204 l 0.052490234 -122.81299 l 0.012145996 -122.78711 l -0.009521484 -122.79736 l -0.028686523 -122.786865 l 0.014099121 -122.82684 l 0.040039062 -122.78931 l 0.018127441 -122.80536 l 163.95813 -123.1947 l 0.006958008 -20.52539 l -17.491455 20.925903 l -14.689819 0.0 l -16.766602 0.0 l -31.995972 0.0 l 14.598633 0.0 l -31.536621 0.0 l -66.082275 0.0 l 0.0 0.0 l 0.0004272461 0.0 l 0.0064697266 0.0 l 15.4953 0.0 l 18.317627 0.0 l 14.596924 0.0 l -48.442627 -349.48047 l 0.0 1.1963425 l 0.0 26.194199 l 0.0 -0.052886963 l 0.0 -66.99231 l 0.0 -24.660227 l 0.0 -15.235357 l 0.0 193.70221 l 0.0 -19.80516 l 0.0 -43.620224 l 0.0 0.58122253 l 0.0 19.296524 l 164.0 198.68001 l 0.0 14.827698 l 0.0 22.787354 l 0.0 -63.739777 l 0.0 -20.530334 l -45.586914 -85.1488 l 11.070068 0.0 l 30.859863 0.0 l -11.144897 0.0 l 14.79895 23.106293 l 0.0026855469 23.844757 l 0.0 14.684174 l -68.12659 -61.63524 l -25.861816 1.5258789e-05 l -0.6472168 0.0 l -65.64526 0.0 l 11.219971 0.0 l 21.388672 0.0 l 10.803101 0.0 l -162.20728 -219.0 l 20.565125 -3.5384437e-07 l -67.07178 -2.3026064e-07 l 21.119019 -2.1556389e-08 l 95.31195 1.3831886e-06 l 20.444824 -8.476252e-07 l -44.91107 1.798594e-06 l -163.38135 110.90388 l 6.1035156e-05 3.4116669 l -6.1035156e-05 15.424507 l 0.00012207031 23.294708 l -0.00012207031 -107.94684 l 6.1035156e-05 2.7955322 l -6.1035156e-05 16.498444 l 0.00012207031 22.95092 l 0.048828125 -85.94678 l -0.014099121 19.741558 l 24.743225 -21.117413 l 21.025024 -0.0027945992 l -45.80316 176.60782 l 0.0 19.778885 l -6.1035156e-05 22.551224 l -379.01306 0.012634277 l -75.80081 0.031066895 l -227.4523 0.011001587 l -75.459526 4.5776367e-05 l 212.40839 0.0038146973 l -56.051132 -0.0012512207 l -57.486816 144.00159 l 99.05206 143.97586 l 99.108475 143.90909 l 157.499 -431.83484 l 75.7937 -0.02104187 l 75.80231 -0.009002686 l 75.792725 0.004257202 " /> </g> </svg>