<?xml version="1.0" standalone="no"?><!DOCTYPE svg PUBLIC "-//W3C//DTD SVG 1.1//EN" "http://www.w3.org/Graphics/SVG/1.1/DTD/svg11.dtd" ><svg xmlns="http://www.w3.org/2000/svg" xmlns:xlink="http://www.w3.org/1999/xlink" version="1.1" viewBox="-10 0 692 1000"><g transform="matrix(1 0 0 -1 0 800)"><path stroke="black" fill="none" d="M 530.0 717.0 l 0.0 19.900024 l 0.0 19.899963 l 0.0 19.900024 l -104.76892 18.437256 l 104.76892 21.362732 l 0.0 19.900024 l 0.0 19.899963 l 0.0 19.900024 l 0.0 19.899963 l -14.170288 40.92694 l 0.083862305 -0.12451172 l 42.71643 -20.572388 l 26.690002 0.98999023 l 27.977173 151.60846 l 19.582825 -147.6485 l 20.869995 2.9700317 l 18.929993 3.630005 l 16.98999 4.289978 l 15.049988 4.950012 l 13.110046 5.6099854 l 0.0 0.0 l 17.289978 12.299988 l 15.470032 13.700012 l 13.649963 15.100037 l 11.830017 16.5 l 10.01001 17.899963 l 8.190002 19.300049 l 6.369995 20.699951 l 4.549988 22.099976 l 2.7299805 23.5 l 0.0 0.0 l -0.65997314 19.430054 l -1.9799805 18.689941 l -3.3000488 17.950073 l -4.619995 17.20996 l -5.9400024 16.46997 l -7.26001 15.72998 l -8.579956 14.990112 l -9.900024 14.25 l -11.219971 13.509888 l 0.0 0.0 l -13.390015 11.970093 l -14.169983 10.709961 l -14.264404 -42.833862 l -16.41565 60.473877 l -16.509949 6.9299316 l -17.29004 5.670044 l -18.070007 4.410034 l -18.849976 3.1500244 l -19.630005 1.8900146 l 0.0 0.0 l -18.960022 -0.47009277 l -18.079956 -1.4099121 l -17.200012 -2.3500977 l -16.320007 -3.289917 l -15.440002 -4.2299805 l -14.559998 -5.170044 l -13.679993 -6.1099854 l -12.800018 -7.050049 l -11.919983 -7.98999 l 0.0 0.0 l -9.940002 -10.26001 l -9.420013 -11.579956 l -8.899994 -12.900024 l -8.380005 -14.219971 l -7.8599854 -15.540039 l -7.3399963 -16.859985 l -6.8200073 -18.180054 l -6.299988 -19.5 l -5.779999 -20.819946 l -23.200012 0.0 l -23.200012 0.0 l -23.199982 0.0 l -23.200012 0.0 l -23.200012 0.0 l -23.199982 0.0 l -23.200012 0.0 l -23.199997 0.0 l -23.199997 0.0 l -23.199997 0.0 l 0.0 0.0 l 7.9599915 42.434937 l 9.479996 40.105103 l 11.0 37.774902 l 12.520004 35.44507 l 14.040009 33.11499 l 15.559998 30.785034 l 17.080002 28.454956 l 18.600006 26.125 l 20.119995 23.795044 l 0.0 0.0 l 23.290009 19.284912 l 25.069977 17.255005 l 26.850006 15.225098 l 28.630005 13.194946 l 30.410004 11.165039 l 32.190002 9.13501 l 33.97 7.1049805 l 35.75 5.074951 l 37.52997 3.045044 l 0.0 0.0 l 39.850037 -1.2000732 l 38.349976 -3.5999756 l 36.849976 -6.0 l 35.350037 -8.400024 l 33.849976 -10.799927 l 32.350037 -13.200073 l 30.968811 -111.79346 l 78.64374 118.34302 l 110.01105 146.33545 l -0.028503418 -0.04260254 l 6.371155 -102.73389 l -6.807007 -128.53442 l -85.029236 -25.934082 l 19.199951 -27.25 l 16.640015 -28.630005 l 14.080017 -30.01001 l 42.246643 -12.72168 l -21.766663 -51.438232 l 6.4000244 -34.150024 l 17.013733 -35.466064 l -0.044006348 -0.00024414062 l -14.809753 -41.52368 l -5.039978 -39.58008 l 18.59668 -41.347656 l -38.756714 -32.172302 l -15.119995 -33.940002 l 49.985413 -54.88794 l -90.30542 -7.352051 l -25.199951 -28.299988 l -28.559998 -26.419983 l 0.0 0.0 l 36.47998 -24.01001 l 32.640015 -26.830017 l 76.86017 -13.541565 l -23.10022 -48.57843 l 21.120056 -35.289978 l 7.4155884 -37.479248 l 23.304382 -41.56079 l 9.599976 -43.75 l -30.433716 -38.21411 l 0.30462646 -0.0703125 l 34.489075 -49.12555 l -4.199951 -39.320007 l 122.67175 -48.509033 l 0.0 0.0 l -32.603027 15.0061035 l 0.0 0.0 l -70.7384 0.0022277832 l 0.0 0.0 l -44.87323 0.0005493164 l 0.0 0.0 l -3.8571167 -75.33984 l -15.399963 -33.24002 l -18.200012 -31.71997 l 29.014221 -281.12128 l 0.0 0.0 l -0.0040893555 153.35497 l 0.0 0.0 l 163.99988 215.81473 l 0.0 0.0 l 0.0 -84.57037 l 0.0 0.0 l -27.184204 -73.892075 l 0.0 0.0 l -83.40674 -1.3999634 l 0.0 0.0 l -156.0091 -12.146042 l -37.26294 -206.7387 l 0.0 0.0 l 80.40558 0.0022963695 l 0.0 0.0 l -105.46265 164.49641 l -67.82568 -21.643616 l 0.0 0.0 l 0.00592041 -67.93992 l 0.0 0.0 l 37.60675 -72.44974 l 0.0 0.0 l -37.880432 203.02855 l 0.006591797 6.076782 l 0.0 0.0 l -75.51312 -99.872055 l -39.849976 -6.5999985 l -41.429993 -3.959999 l 0.0 0.0 l -54.360046 2.0499954 l -51.47998 6.1500015 l -48.600006 10.25 l -45.72 14.350006 l -23.82434 79.345764 l -58.975647 -38.345764 l -16.930756 42.566452 l -234.50662 1.496521 l 0.0 0.0 l -29.535233 0.0054779053 l 186.6882 14.106079 l -0.010253906 0.042037964 l -19.095322 51.893417 l -9.970001 19.180023 l -9.150009 20.5 l -8.330002 21.819977 l -72.22718 17.023926 l 58.027184 30.57608 l -5.869995 25.779999 l -5.050003 27.100006 l -4.2299957 28.419983 l 22.5 0.0 l 27.20819 28.843445 l 17.79181 -28.843445 l 22.5 0.0 l 22.5 0.0 l 22.5 0.0 l 14.957733 160.4902 l 30.042267 -160.4902 l 22.5 0.0 l 22.5 0.0 l 0.0 0.0 l 4.11499 -21.875 l 5.1450195 -20.824982 l 6.174988 -19.774994 l 7.2049866 -18.725006 l 8.235016 -17.675018 l 9.264984 -16.625 l 10.295013 -15.574982 l 11.325012 -14.524994 l 12.35498 -13.475006 l 0.0 0.0 l 8.208923 -89.99136 l 21.291077 68.57135 l 16.024994 -8.924988 l 16.87503 -7.735016 l 20.751038 -54.769745 l 15.54895 42.86975 l 19.424988 -4.1650085 l 20.275024 -2.9749756 l 20.859924 -36.954803 l 0.0020751953 0.28100586 l 22.472961 35.638794 l 21.429993 2.25 l 30.907532 -37.590744 l 9.612488 46.590744 l 19.090027 6.75 l 18.309998 8.25 l 17.529968 9.75 l 16.75 11.25 l 15.970032 12.75 l 0.0 0.0 l 14.059998 15.809998 l 12.579956 16.630005 l 11.100037 17.449982 l 9.619995 18.27002 l 8.140015 19.089996 l 6.659973 19.910004 l 5.1799927 20.72998 l 3.7000122 21.550018 l 2.2200317 22.369995 l 0.0 0.0 l -1.1100464 30.300018 l -3.329956 28.5 l -5.550049 26.699951 l -7.7699585 24.900024 l -9.98999 23.099976 l -12.210022 21.300049 l -14.429993 19.5 l -16.650024 17.699951 l -18.869995 15.900024 l 0.0 0.0 l -13.710022 7.2200317 l -15.129944 6.459961 l -16.550049 5.700012 l -17.96997 4.9400024 l -19.390015 4.1799927 l -20.809998 3.419983 l -22.22998 2.6600342 l -23.650024 1.8999634 l -25.070007 1.1400146 " /> </g> </svg>