<?xml version="1.0" standalone="no"?><!DOCTYPE svg PUBLIC "-//W3C//DTD SVG 1.1//EN" "http://www.w3.org/Graphics/SVG/1.1/DTD/svg11.dtd" ><svg xmlns="http://www.w3.org/2000/svg" xmlns:xlink="http://www.w3.org/1999/xlink" version="1.1" viewBox="-10 0 692 1000"><g transform="matrix(1 0 0 -1 0 800)"><path stroke="black" fill="none" d="M 415.40176 795.0 l 99.094696 143.99866 l 99.09894 143.99237 l 99.1001 144.01196 l 99.1001 144.00269 l 99.087036 143.98376 l 99.10687 144.00146 l 0.0040283203 -122.78735 l -0.004333496 -122.80359 l 0.0045166016 -122.80115 l 0.0010375977 -122.79895 l -0.00079345703 -122.79968 l -0.0024414062 -122.79895 l 0.001159668 -122.80231 l 0.003479004 -122.79907 l 0.0015258789 -122.800415 l 163.99646 -122.83386 l 0.00061035156 -21.14212 l -16.493652 21.176483 l -16.253296 0.0 l -16.431396 0.0 l -32.73108 0.0 l 16.245483 0.0 l -32.69165 0.0 l -65.64337 0.0 l 0.0 0.0 l 0.0 0.0 l 0.0 0.0 l 16.325012 0.0 l 16.564575 0.0 l 16.24524 0.0 l -49.13501 -363.9429 l 0.0 20.109024 l 0.0 22.283264 l 0.0 -65.8154 l 0.0 -22.13679 l 0.0 -21.328264 l 0.0 196.80852 l 0.0 -21.720291 l 0.0 -43.784576 l 0.0 21.726517 l 164.0 193.39587 l 0.0 20.65332 l 0.0 21.336182 l 0.0 -63.612 l 0.0 -21.142548 l -48.890015 -84.829926 l 15.942749 0.0 l 32.633545 0.0 l -15.949219 0.0 l 16.262695 21.363525 l 0.00024414062 21.42688 l 0.0 20.641052 l -65.81677 -63.431458 l -17.21167 0.0 l -14.971436 0.0 l -65.68109 0.0 l 15.955627 0.0 l 16.828003 0.0 l 15.9198 0.0 l -165.40039 -219.0 l 23.06543 -3.0355068e-08 l -69.65735 -1.9753315e-08 l 23.112854 -1.8492301e-09 l 93.381226 1.18659045e-07 l 23.055054 -7.271478e-08 l -46.45514 1.5429487e-07 l -163.12415 109.62042 l 0.0 21.637177 l 0.0 22.019638 l 0.0 -109.36676 l 0.0 21.676441 l 0.0 21.99015 l 0.004211426 -87.458176 l -0.0012207031 21.714834 l 23.423767 -21.832865 l 23.104858 -0.00023973885 l -46.531616 175.32077 l 0.0 21.718033 l 0.0 21.955872 l -379.00113 0.0010986328 l -75.80008 0.0026550293 l -227.4045 0.0009460449 l -75.77079 0.0 l 226.11394 0.00033569336 l -74.10582 -0.00010681152 l -52.927803 144.00014 l 99.095894 143.99792 l 99.10074 143.99219 l 157.49991 -431.98584 l 75.79944 -0.0018005371 l 75.80023 -0.00077819824 l 75.79938 0.00038146973 " /> </g> </svg>