<?xml version="1.0" standalone="no"?><!DOCTYPE svg PUBLIC "-//W3C//DTD SVG 1.1//EN" "http://www.w3.org/Graphics/SVG/1.1/DTD/svg11.dtd" ><svg xmlns="http://www.w3.org/2000/svg" xmlns:xlink="http://www.w3.org/1999/xlink" version="1.1" viewBox="-10 0 692 1000"><g transform="matrix(1 0 0 -1 0 800)"><path stroke="black" fill="none" d="M 1036.9532 428.57153 l 26.258179 181.29767 l 0.0 0.0 l -0.00012207031 -0.0036010742 l -0.021728516 -0.6296387 l -1.5756836 -46.05597 l -10.727539 -78.669586 l -0.5748291 -3.1134949 l -91.59546 -206.08044 l 23.888977 34.86255 l -228.85406 -184.51274 l 29.085205 12.497894 l -122.871765 -41.265633 l 42.64966 10.75705 l 158.02222 75.46464 l -36.055054 -23.0652 l 105.7879 80.40535 l 0.0 0.0 l -6.1035156e-05 -7.6293945e-05 l -0.00030517578 -0.0002593994 l -33.43274 -29.82129 l -228.89557 51.213303 l 0.25946045 0.07739258 l 22.45697 6.197998 l 43.17987 17.55783 l -15.738586 -7.3608704 l 62.811096 36.21576 l -19.003723 -13.147003 l 62.151672 55.941498 l 0.0 0.0 l -21.293762 -25.025238 l 0.0 0.0 l 0.0052490234 0.006134033 l 57.546143 81.77435 l 0.65252686 1.2054749 l 19.033447 46.605164 l 0.29968262 0.85876465 l -293.266 -210.0007 l 0.0 0.0 l -0.00048828125 3.0517578e-05 l -0.006225586 0.00047302246 l -19.102783 1.4043121 l 47.93286 -0.28189087 l 1.3829346 0.16175842 l 22.523376 2.4800873 l -29.389465 -168.04475 l -44.127502 -4.430153 l 0.0 0.0 l 0.00024414062 3.0517578e-05 l 0.0022583008 0.00022888184 l -59.616455 2.864624 l -36.289062 191.74564 l 0.51242065 -0.23422241 l 20.275177 -7.977722 l -0.02670288 0.010498047 l 51.448944 -12.896271 l -12.690857 2.3246155 l -19.61444 4.6801453 l -62.823822 -168.656 l -56.96988 15.321426 l -47.907166 18.46608 l 37.256622 217.63748 l -8.671783 9.87738 l 25.880371 -28.062592 l 16.733734 -15.627319 l 0.22149658 -0.18026733 l 13.451294 -11.263519 l 0.0 0.0 l 0.013336182 -0.008361816 l 12.46463 -7.823944 l -194.39046 -107.106094 l 45.864273 -30.849976 l -132.36388 111.26271 l 40.830734 -42.09639 l -64.435 105.819016 l -15.669548 -13.265717 l 38.396828 32.50641 l 12.0699005 10.218292 l 22.919586 19.403473 l 11.627121 9.843445 l 23.770721 20.123901 l 12.057419 10.207733 l 18.422272 15.59491 l 28.153076 23.696747 l 0.0 0.0 l -5.0032654 -4.17688 l 37.945526 -29.548767 l 0.550354 -0.8425293 l 21.317627 -30.74646 l 9.698761 -13.021881 l 229.56879 878.34534 l 0.0 0.0 l 8.499207 28.671997 l 44.39215 37.100708 l 3.2241821 0.13330078 l -68.88367 -108.80957 l -11.058533 -37.285156 l -0.29327393 -0.98828125 l 149.3692 147.55945 l 34.493652 0.0 l 60.332092 0.0 l 34.127075 0.0 l -230.41956 -458.919 l 6.2772217 0.28857422 l 0.0 0.0 l -70.99756 -8.645874 l 0.0 0.0 l -61.3537 -20.769714 l 181.01093 22.834595 l -18.11737 3.4054565 l -299.4826 72.13251 l 34.911377 116.79358 l 2.6974792 9.017334 l -72.52069 -248.19586 l 0.0 0.0 l 12.701691 -57.45117 l 0.0 0.0 l 108.74579 53.086243 l 0.0 0.0 l -29.470947 -22.323914 l 358.91864 34.518982 l -19.90448 11.369324 l -29.075073 12.999939 l -16.67279 6.0755615 l -125.21185 221.19556 l 0.0 0.0 l -18.392395 -1.0721436 l 0.0 0.0 l -10.261658 43.99536 l 6.3632812 21.80542 l 0.0 0.0 l -129.91425 40.58911 l 17.664856 59.384888 l 192.83704 -166.03601 l 0.21313477 -0.02758789 l 38.939697 -4.172119 l -182.2302 337.51685 l -23.708588 -79.22705 l 268.32196 242.31921 l 72.57654 0.001953125 l 46.208374 0.0 l 72.13129 -0.0041503906 l 58.432373 0.00048828125 l -321.67047 -0.014282227 l -58.616455 0.0037841797 l -66.29523 -4.977783 l -22.338959 -74.60181 l 535.34106 79.61255 l 62.175293 -0.0028076172 l 64.24219 -20.44812 l 0.00012207031 19.275879 l 0.0 -59.432983 l 0.0 14.579224 l 0.0 -154.78955 l 0.0 -13.6328125 l 0.0 56.928467 l 0.0 -14.737305 l 0.0 46.394165 l 0.0 14.798218 l 0.0 22.88208 l -279.39368 -154.32324 l 54.063904 0.00012207031 l 34.23224 0.0 l 53.89917 -0.00012207031 l 43.40149 0.0 l -336.80212 -274.30273 l -28.001648 7.5776367 l 99.700806 -35.389954 l 2.206543 -1.020813 l 68.617065 -41.58368 l -23.189331 16.098633 l 61.33081 -46.706787 l 0.0 0.0 l -0.00018310547 0.00012207031 l -0.0014038086 0.001159668 l 29.188904 -33.230286 l 22.53656 -29.939941 l 23.422302 -37.370483 l 17.126587 -32.84265 l -215.95917 -23.039062 l 0.87145996 -0.70983887 l 36.024597 -37.76239 l -12.155762 15.548706 l 0.0 0.0 l 0.0020141602 -0.0025634766 l 30.152588 -42.13446 l 0.006286621 -0.013000488 l 14.27124 -27.337585 l 6.9678955 -15.936401 l 24.64154 -136.60315 l 0.0 0.0 l -0.0012817383 0.035888672 l -0.82598877 25.035461 l -3.029419 -58.774902 l -3.1671753 -17.793884 l 2.7921143 110.49054 l -5.6348877 29.993286 l -4.488037 17.615356 l 158.25586 85.38574 l -11.733276 35.574158 l 29.48413 -119.44635 l -6.623657 39.24182 l -47.26013 -347.73425 l 17.538086 38.242035 " /> </g> </svg>