<?xml version="1.0" standalone="no"?><!DOCTYPE svg PUBLIC "-//W3C//DTD SVG 1.1//EN" "http://www.w3.org/Graphics/SVG/1.1/DTD/svg11.dtd" ><svg xmlns="http://www.w3.org/2000/svg" xmlns:xlink="http://www.w3.org/1999/xlink" version="1.1" viewBox="-10 0 692 1000"><g transform="matrix(1 0 0 -1 0 800)"><path stroke="black" fill="none" d="M 1036.9371 428.57526 l 26.262451 179.82385 l 0.0 0.0 l -0.006591797 -0.19049072 l -1.4490967 -42.348755 l -11.381714 -84.6026 l 0.0 0.0 l -90.49689 -204.33176 l 22.172302 32.358 l -207.42554 -174.69354 l 1.8518677 0.7989044 l -114.43677 -37.9868 l 39.75171 10.025688 l 157.11017 74.55839 l -33.653137 -21.532639 l 105.0979 79.93497 l 0.0 0.0 l -0.0013427734 -0.0011444092 l -0.105407715 -0.08950806 l -32.745544 -29.203308 l -227.17065 51.41443 l 0.046447754 0.0138549805 l 17.518982 4.850189 l 33.957275 12.627563 l -0.6234741 -0.2919922 l 56.562195 32.562775 l -13.580688 -9.397827 l 57.153076 51.255463 l -16.872192 -19.983124 l 0.0 0.0 l 60.277405 88.84845 l 0.0 0.0 l 13.760132 35.31375 l 0.0 0.0 l -291.67377 -205.53328 l 0.0 0.0 l -0.012817383 0.0009613037 l -15.696289 1.1546478 l 47.867493 0.29296875 l 0.22924805 0.026763916 l 17.05304 1.8952484 l -33.250854 -168.41838 l -36.4151 -3.664032 l 0.0 0.0 l 0.0064697266 0.0006713867 l -58.62097 2.809639 l 0.18206787 -0.004638672 l -36.43756 191.25607 l 0.0 0.0 l 18.360382 -7.2259827 l -0.007507324 0.002960205 l 42.09207 -11.405792 l -0.50842285 0.0904541 l -19.207397 4.511566 l -67.806274 -167.36685 l -61.96701 17.545921 l -37.30188 14.376633 l 27.219818 227.06505 l -0.06613159 0.074798584 l 23.14746 -25.074738 l 21.522919 -19.918213 l 0.02142334 -0.01739502 l 13.339172 -10.60553 l 0.0 0.0 l 3.738861 -2.3427124 l -186.54556 -112.11813 l 42.88095 -28.84607 l -129.62103 108.71011 l 38.2493 -39.43199 l -66.450836 102.82301 l -11.009041 -9.32016 l 46.11463 39.040222 l 0.55766296 0.47213745 l 33.923584 28.71936 l 0.35873413 0.30371094 l 35.516785 30.067627 l 0.5502472 0.46588135 l 18.533539 15.686188 l 26.260681 19.50058 l 0.0 0.0 l 34.87155 -25.940094 l 0.0 0.0 l 31.18216 -43.84027 l 0.2815857 -0.38131714 l 240.20215 904.79114 l 0.0 0.0 l 42.983826 31.926392 l 0.0 0.0 l -69.52356 -120.386475 l -5.607422 -18.986084 l 0.0 0.0 l 173.60327 144.89624 l 2.885254 0.00012207031 l 91.036865 0.0 l 1.9047241 0.0 l -217.77106 -458.84015 l 0.0 0.0 l -150.15039 -38.62921 l 0.0 0.0 l 186.18909 34.885986 l -0.96655273 0.19720459 l -289.56992 114.80835 l 22.423828 75.342224 l 0.0 0.0 l -71.94949 -280.4544 l 0.0 0.0 l 63.620636 -11.995117 l 0.0 0.0 l 385.40726 62.561462 l -14.628052 8.37384 l -43.66931 18.625 l -0.8240967 0.30749512 l -136.23553 221.8371 l 0.0 0.0 l -13.298584 63.535767 l 0.0 0.0 l -117.89844 81.380615 l 1.6461487 6.718872 l 199.49326 -153.01392 l 0.0256958 -0.0032958984 l 30.87732 -3.3266602 l -177.83676 335.4088 l -0.14630127 -0.50891113 l -22.134583 -73.95508 l 278.0319 239.22742 l 93.76483 0.0064697266 l 3.7443848 0.0 l 92.23895 -0.014282227 l 45.473755 0.0017089844 l -328.11737 -0.048706055 l -46.102356 0.013183594 l -72.319336 -16.99524 l -17.604614 -58.67224 l 536.889 75.77966 l 58.25293 -0.009277344 l 65.30994 -17.184326 l 0.00012207031 13.181763 l 0.00012207031 -45.026978 l 0.0 0.5423584 l 0.0 -163.4707 l 0.0 -0.2475586 l 0.0 42.807617 l 0.0 -0.61572266 l 0.0 56.069458 l 0.0 0.64733887 l 0.0 22.741455 l -270.7597 -151.98938 l 69.668945 0.00036621094 l 2.1384888 0.0 l 68.92786 -0.00024414062 l 33.265503 0.0 l -353.94812 -268.9016 l -1.390564 0.38293457 l 94.745605 -34.37274 l 0.0 0.0 l 52.5542 -30.287292 l -0.97021484 0.6826172 l 55.67505 -42.70166 l 0.0 0.0 l -0.004333496 0.003540039 l 33.266846 -38.593506 l 17.434204 -23.155884 l 27.459595 -44.421143 l 12.966003 -24.858154 l -213.245 -26.74121 l 0.0 0.0 l 26.448975 -25.744019 l -2.2736206 2.9464722 l 0.0 0.0 l 29.68512 -41.81891 l 0.002380371 -0.0049438477 l 19.24237 -38.862915 l 0.23742676 -0.5349121 l 25.827759 -134.06348 l 0.0 0.0 l -0.39593506 11.069824 l -5.7318726 -64.09808 l -0.08898926 -0.52056885 l 1.0054321 112.88495 l -7.892029 37.46112 l -0.16687012 0.66082764 l 155.40192 94.7381 l -8.554321 25.975708 l 27.152466 -109.056274 l -5.1115723 30.289368 l -46.825867 -343.61624 l 16.326233 35.591217 " /> </g> </svg>