<?xml version="1.0" standalone="no"?><!DOCTYPE svg PUBLIC "-//W3C//DTD SVG 1.1//EN" "http://www.w3.org/Graphics/SVG/1.1/DTD/svg11.dtd" ><svg xmlns="http://www.w3.org/2000/svg" xmlns:xlink="http://www.w3.org/1999/xlink" version="1.1" viewBox="-10 0 692 1000"><g transform="matrix(1 0 0 -1 0 800)"><path stroke="black" fill="none" d="M 1036.8822 428.5879 l 25.860107 162.74796 l 0.0 0.0 l -0.5545654 -16.326477 l -11.591431 -95.50015 l -86.80707 -197.09018 l 16.311157 23.806915 l -203.5119 -171.04712 l 0.0 0.0 l -107.51868 -36.057724 l 29.857544 7.5286484 l 153.99628 71.46432 l -25.45227 -16.300186 l 102.13074 77.809875 l 0.0 0.0 l -0.060546875 -0.051437378 l -30.197449 -26.921875 l -222.43622 51.802155 l 0.0 0.0 l 1.1335449 0.34436035 l 43.735474 15.121185 l 0.0 0.0 l 44.943726 24.606781 l -0.33636475 -0.23440552 l 38.68347 30.53067 l 0.0 0.0 l 62.721375 95.759 l 0.0 0.0 l -284.73718 -177.54468 l 0.0 0.0 l -1.5529785 0.11538696 l 42.115723 1.6507263 l 0.0 0.0 l 0.41479492 0.052993774 l -46.43457 -169.69405 l -8.229553 -0.8555603 l 0.0 0.0 l -57.05597 2.4311905 l 0.021728516 -0.0005569458 l -31.690887 187.93 l 5.601959 -2.2250366 l 0.0 0.0 l 39.24945 -11.498505 l 0.0 0.0 l -5.7789917 1.5574036 l -84.8172 -162.96544 l -79.02826 25.140823 l -1.817688 0.6944504 l 28.240326 219.99777 l 0.0 0.0 l 8.56839 -9.292023 l 37.874237 -34.568085 l 0.0 0.0 l 8.545013 -5.295349 l 0.0 0.0 l -182.1101 -115.35542 l 32.695312 -22.004349 l -120.25641 99.995056 l 29.4357 -30.33519 l -73.3326 92.59468 l -0.24474335 -0.20718384 l 51.640656 43.718445 l 0.0 0.0 l 24.550995 20.784637 l 0.0 0.0 l 45.261124 38.31192 l 0.0 0.0 l 6.5872498 5.5665283 l 33.51355 22.850555 l 0.0 0.0 l 61.556488 -63.17569 l 0.0 0.0 l 258.3182 917.2115 l 0.0 0.0 l -46.171936 -121.86902 l 0.0 0.0 l 191.08862 141.65405 l 0.0 0.0 l 68.9928 0.0009765625 l 0.0 0.0 l -351.9994 -494.0708 l 0.0 0.0 l 164.59113 33.390747 l 0.0 0.0 l -254.79532 181.2605 l 0.0 0.0 l -66.77948 -273.23407 l 0.0 0.0 l 432.10605 57.718018 l -0.5456543 0.34576416 l -54.125977 22.396667 l 0.0 0.0 l -127.78613 219.21625 l 0.0 0.0 l -120.47345 144.56323 l 0.0 0.0 l 201.84985 -147.42883 l 0.0 0.0 l 2.8237305 -0.36816406 l -162.83655 328.21155 l -0.012969971 -0.045043945 l -17.39331 -58.157227 l 311.1835 228.67139 l 54.88336 0.018798828 l 0.0 0.0 l 130.87701 -0.045654297 l 2.0054932 0.0053710938 l -350.9038 -0.16552734 l -3.4331665 0.044555664 l -92.8302 -58.025024 l -1.4429932 -4.2943115 l 542.1761 62.702515 l 44.861206 -0.03161621 l 68.955444 -6.083008 l 0.0 0.20117188 l 0.00048828125 -41.68994 l 0.0 0.0 l 0.00024414062 -155.03552 l 0.0 0.0 l 0.0 27.26001 l 0.0 0.0 l 0.0 69.22632 l 0.0 0.0 l 0.0 7.465576 l -241.28156 -144.02112 l 37.932068 0.0008544922 l 0.0 0.0 l 97.8186 -0.00061035156 l 1.2177734 0.00012207031 l -341.3647 -270.76672 l 0.0 0.0 l 80.79993 -29.347534 l 67.602905 -39.154114 l 0.0 0.0 l 45.337585 -34.415405 l 0.0 0.0 l 48.48047 -57.963684 l 0.89331055 -1.1672363 l 40.364075 -67.31995 l 0.44335938 -0.8389282 l -204.14362 -37.958008 l 15.041382 -13.876526 l 0.0 0.0 l 33.770264 -47.405518 l 0.0 0.0 l 15.945618 -32.588257 l 0.0 0.0 l 26.94336 -130.35559 l 0.0 0.0 l -4.178711 -53.319153 l 0.0 0.0 l -3.9263916 125.23663 l -3.4178467 14.702087 l 0.0 0.0 l 148.0639 117.69946 l -0.16271973 0.5186157 l 21.653809 -80.896545 l -0.23168945 1.390564 l -45.06079 -331.22314 l 12.188904 26.54071 " /> </g> </svg>