<?xml version="1.0" standalone="no"?><!DOCTYPE svg PUBLIC "-//W3C//DTD SVG 1.1//EN" "http://www.w3.org/Graphics/SVG/1.1/DTD/svg11.dtd" ><svg xmlns="http://www.w3.org/2000/svg" xmlns:xlink="http://www.w3.org/1999/xlink" version="1.1" viewBox="-10 0 692 1000"><g transform="matrix(1 0 0 -1 0 800)"><path stroke="black" fill="none" d="M 1036.9594 428.57013 l 26.242065 181.4385 l 0.0 0.0 l 0.0 0.0 l 0.0 0.0 l -1.6367188 -47.843445 l -5.418335 -49.003723 l -7.5457764 -40.94934 l -90.319824 -197.50497 l 24.539062 35.811005 l -236.96857 -188.23108 l 39.475037 16.961174 l -126.14307 -42.540375 l 43.74707 11.034004 l 158.36755 75.80781 l -36.9646 -23.645538 l 106.028015 80.565475 l 0.0 0.0 l 0.0 0.0 l 0.0 0.0 l -33.631897 -30.003448 l -229.5487 51.13713 l 24.666931 6.809845 l 46.672302 19.424805 l -22.42279 -10.486664 l 66.13788 38.048065 l -21.057312 -14.566772 l 72.36249 68.95633 l -11.720764 -15.596619 l -19.116943 -22.051361 l 0.0 0.0 l 0.0 3.0517578e-05 l 6.1035156e-05 3.0517578e-05 l 49.24225 65.968506 l 11.334778 21.30014 l 11.198059 26.02539 l 7.8135986 22.780945 l -295.14008 -215.45631 l 0.0 0.0 l 0.0 0.0 l 0.0 0.0 l -20.300903 1.4920197 l 47.95764 -0.4995575 l 26.414673 2.9144135 l -27.927246 -167.90326 l -46.983765 -4.7135925 l 0.0 0.0 l 0.0 0.0 l 0.0 0.0 l -60.05664 2.8788757 l -47.059387 196.85092 l 14.928925 -6.80661 l 17.5354 -6.696869 l 54.95822 -13.447296 l -18.541077 3.39917 l -18.531586 4.515442 l -60.937073 -169.14417 l -55.077545 14.47905 l -51.923187 20.014687 l 41.099426 214.01949 l -14.192017 16.17871 l 29.134644 -31.735352 l 14.920166 -14.002472 l 14.653656 -12.294922 l 0.0 0.0 l 3.0517578e-05 0.0 l 0.00012207031 -6.1035156e-05 l 14.924561 -9.370789 l -197.36122 -105.208084 l 46.994003 -31.60881 l -133.40256 112.22931 l 41.808273 -43.105316 l -63.67163 106.95352 l -17.434387 -14.759796 l 35.474243 30.032196 l 17.12558 14.498352 l 18.056366 15.286346 l 17.0876 14.466187 l 18.129364 15.348145 l 17.124527 14.497467 l 17.670547 14.959625 l 35.20526 29.803558 l 0.0 0.0 l -0.0020446777 -0.0017700195 l -0.2775879 -0.2399292 l -16.849518 -14.265533 l 32.702026 -10.918243 l 13.384674 -20.68451 l 15.25946 -22.031372 l 14.24353 -19.11795 l 225.05365 871.0724 l 0.0524292 0.17553711 l 12.450867 41.946167 l 0.6984863 2.3529053 l 12.1796875 31.379395 l 43.79297 0.011474609 l -77.21777 -102.94983 l -7.8967285 -26.602417 l -6.954834 -23.427124 l 141.51685 153.02026 l 46.475586 0.0 l 48.69226 0.0 l 46.444214 0.0 l -254.38153 -459.825 l 29.006104 1.2843018 l 0.0 0.0 l -0.00030517578 0.0 l -0.0025024414 -0.00012207031 l -84.321106 -10.940735 l 21.17987 4.9628296 l -73.99829 -24.205078 l -2.8298645 -1.2654419 l 192.11642 23.782593 l -25.186707 4.726074 l -302.66168 55.866333 l 25.210327 84.25348 l 22.446777 75.00763 l -72.86743 -243.99414 l -0.18521118 -0.8220825 l 18.257385 -78.34064 l 0.0 0.0 l -29.297333 0.0 l 0.0 0.0 l 44.245087 0.0 l 0.0 0.0 l 14.892059 0.0 l 59.55887 47.457336 l 18.680756 12.894287 l -48.058838 -36.420593 l 369.34192 40.55371 l -21.902527 12.503601 l -23.548523 10.869873 l -23.344055 8.502258 l -115.201416 220.86218 l 0.0 0.0 l 3.6246948 0.057373047 l 0.0 0.0 l -18.317871 -0.5983887 l 0.0 0.0 l -14.442078 -0.9836426 l 0.0 0.0 l -10.631897 -0.97888184 l 0.0 0.0 l 4.140686 0.40429688 l 0.0 0.0 l -12.92218 -1.3485107 l 0.0 0.0 l 0.17584229 0.020263672 l 5.6637573 27.093628 l 8.634033 29.120605 l 5.496582 18.515503 l -136.7482 18.868286 l 23.730804 79.32849 l 190.31653 -170.96716 l 42.276855 -4.529175 l -183.89392 338.31506 l -24.249268 -81.03064 l 264.64508 243.49011 l 64.55286 0.00012207031 l 62.290894 0.0 l 64.51471 -0.00036621094 l 63.339478 0.0 l -319.22906 -0.0012207031 l -63.355286 0.00036621094 l -64.01404 -0.42700195 l -24.131805 -80.63403 l 534.755 81.06384 l 63.660645 -0.00024414062 l 63.83789 -21.684082 l 0.0 21.583496 l 0.0 -64.88806 l 0.0 21.18042 l 0.0 -152.78772 l 0.0 -21.099365 l 0.0 64.67334 l 0.0 -21.194214 l 0.0 43.83972 l 0.0 21.19934 l 0.0 21.8927 l -282.66315 -155.20691 l 48.15454 0.0 l 46.453186 0.0 l 48.14038 0.0 l 47.23987 0.0 l -330.30933 -276.34814 l -38.358093 10.377319 l 78.98395 -25.269531 l 33.1817 -15.372559 l 67.43286 -42.47699 l -32.0213 22.225098 l 63.845337 -48.47516 l 0.0 0.0 l 0.0 0.0 l 0.0 0.0 l 27.68927 -31.235962 l 24.46875 -32.50891 l 21.893433 -34.70056 l 18.702148 -35.86621 l -230.00226 -11.036316 l 18.513245 -15.105469 l 35.354248 -38.787476 l -15.658081 20.010132 l 0.0 0.0 l 0.0 -6.1035156e-05 l 0.0 0.0 l 30.09253 -41.946594 l 12.396545 -22.989258 l 10.050659 -22.997437 l 23.599487 -134.72205 l 0.0 0.0 l 0.0 6.1035156e-05 l 0.0 0.00024414062 l -0.93188477 28.759094 l -2.0059814 -56.759094 l -4.614197 -25.89029 l 3.750061 111.13919 l -4.7801514 27.165283 l -6.4005737 25.11615 l 159.61273 80.76373 l -12.937134 39.208923 l 30.367188 -123.3808 l -7.196289 42.631897 l -47.42456 -349.29367 l 17.996948 39.24585 " /> </g> </svg>