<?xml version="1.0" standalone="no"?><!DOCTYPE svg PUBLIC "-//W3C//DTD SVG 1.1//EN" "http://www.w3.org/Graphics/SVG/1.1/DTD/svg11.dtd" ><svg xmlns="http://www.w3.org/2000/svg" xmlns:xlink="http://www.w3.org/1999/xlink" version="1.1" viewBox="-10 0 692 1000"><g transform="matrix(1 0 0 -1 0 800)"><path stroke="black" fill="none" d="M 1036.9598 428.57004 l 26.240723 181.43982 l 0.0 0.0 l 0.0 0.0 l 0.0 0.0 l -1.6390381 -47.911987 l -5.06604 -47.03534 l -8.008301 -43.460022 l -90.23517 -196.93576 l 24.582214 35.87393 l -237.50702 -188.47781 l 40.16443 17.257317 l -126.36011 -42.624954 l 43.819885 11.052383 l 158.39044 75.83058 l -37.024963 -23.684052 l 106.04358 80.57576 l 0.0 0.0 l 0.0 0.0 l 0.0 0.0 l -33.644714 -30.015167 l -229.59204 51.13208 l 24.796387 6.8453064 l 46.904053 19.548676 l -22.866333 -10.694061 l 66.35858 38.169617 l -21.193542 -14.66095 l 74.79315 72.15503 l -14.852722 -19.763855 l -18.362732 -21.04657 l 0.0 0.0 l 0.0 0.0 l 0.0 0.0 l 48.682312 64.90918 l 12.052673 22.650604 l 10.669067 24.64273 l 8.334351 24.300537 l -295.28845 -215.88318 l 0.0 0.0 l 0.0 0.0 l 0.0 0.0 l -20.378113 1.4976654 l 47.95929 -0.51400757 l 26.581116 2.9325104 l -27.830261 -167.89389 l -47.17206 -4.7322693 l 0.0 0.0 l 0.0 0.0 l 0.0 0.0 l -60.08722 2.8796768 l -47.774017 197.18968 l 16.004486 -7.296936 l 17.234589 -6.5576477 l 55.19284 -13.484558 l -18.9292 3.470459 l -18.459778 4.5045166 l -60.81186 -169.17656 l -54.951996 14.423157 l -52.189667 20.117432 l 41.35443 213.77943 l -14.558319 16.596802 l 29.350586 -31.979034 l 14.799835 -13.894653 l 14.735504 -12.361908 l 0.0 0.0 l 0.0 0.0 l 0.0 0.0 l 15.070282 -9.462433 l -197.55833 -105.08215 l 47.068954 -31.65915 l -133.47147 112.29343 l 41.87314 -43.172256 l -63.620987 107.02879 l -17.55149 -14.858917 l 35.280327 29.868011 l 17.461044 14.782379 l 17.733658 15.013153 l 17.449936 14.772919 l 17.755035 15.03125 l 17.46074 14.7821045 l 17.620667 14.91748 l 35.21338 29.81128 l 0.0 0.0 l -0.00012207031 -9.1552734e-05 l -0.0005187988 -0.00045776367 l -17.473267 -14.794647 l 32.354095 -9.682068 l 14.265259 -22.04602 l 14.828491 -21.408142 l 14.545074 -19.52246 l 224.75409 870.58984 l 9.036133 30.439209 l 5.5786133 18.791016 l 8.941345 27.292725 l 46.484985 0.0034179688 l -77.770874 -102.561035 l -7.6869507 -25.893677 l -7.4110107 -24.963501 l 141.00995 153.43018 l 47.27063 0.0 l 47.91992 0.0 l 47.261475 0.0 l -255.97144 -459.88513 l 30.397827 1.3450317 l 0.0 0.0 l -6.1035156e-05 0.0 l -6.1035156e-05 0.0 l -88.57379 -11.923218 l 26.886353 6.297241 l -62.431244 -18.714355 l -20.295471 -9.089294 l 196.90604 25.697021 l -25.6557 4.8137207 l -302.87265 54.78705 l 24.56665 82.09436 l 23.757202 79.38629 l -72.89047 -243.7154 l 13.475861 -80.60333 l 5.9248962 0.0 l 0.0 0.0 l -38.195374 0.0 l 0.0 0.0 l 10.885559 0.0 l 0.0 0.0 l 39.786743 0.0 l -0.2987976 0.0 l 19.210693 0.0 l 0.0 0.0 l 52.628937 44.899475 l 23.721893 16.37024 l -49.96884 -37.791992 l 370.03357 40.954163 l -22.035156 12.578857 l -23.181824 10.728516 l -23.786682 8.663269 l -118.91974 220.72662 l 0.0 0.0 l 1.5841064 0.045043945 l 6.092346 0.10949707 l 0.0 0.0 l -0.16497803 -0.001953125 l -16.843567 -0.51330566 l 0.0 0.0 l -3.965454 -0.21118164 l 0.0 0.0 l -5.400635 -0.33654785 l 0.0 0.0 l -3.6715698 -0.28027344 l -15.272705 -1.3937988 l 0.09265137 0.009765625 l 6.7113037 0.6599121 l 0.0 0.0 l -0.8838501 -0.08544922 l -15.094055 -1.5977783 l 0.0 0.0 l 0.019165039 0.002319336 l 2.6600952 0.30639648 l 4.8780518 25.789185 l 7.902832 26.631104 l 6.9839478 23.525146 l -137.44244 16.62085 l 24.1333 80.65173 l 190.14929 -171.29431 l 42.48413 -4.5510254 l -184.0043 338.36804 l -24.285156 -81.15039 l 264.4011 243.56787 l 64.02051 0.0 l 63.35797 0.0 l 64.00934 -0.00012207031 l 63.6651 0.0 l -319.06708 -0.00036621094 l -63.66974 0.00012207031 l -63.86267 -0.125 l -24.250763 -81.0343 l 534.71606 81.16016 l 63.759277 -0.00012207031 l 63.811035 -21.766113 l 0.0 21.736694 l 0.0 -65.25012 l 0.0 21.61853 l 0.0 -152.65503 l 0.0 -21.594727 l 0.0 65.187256 l 0.0 -21.62268 l 0.0 43.670288 l 0.0 21.624023 l 0.0 21.827148 l -282.88013 -155.26562 l 47.76245 0.0 l 47.2641 0.0 l 47.75836 0.0 l 47.494507 0.0 l -329.87854 -276.4839 l -39.045288 10.56311 l 77.609314 -24.598022 l 35.23822 -16.325378 l 67.35309 -42.535706 l -32.6073 22.631592 l 64.01129 -48.591736 l 0.0 0.0 l 0.0 0.0 l 0.0 0.0 l 27.59076 -31.104431 l 24.596924 -32.679382 l 21.791992 -34.523438 l 18.806702 -36.066833 l -230.93408 -10.239929 l 19.713074 -16.084473 l 35.280518 -38.831665 l -15.885803 20.30011 l 0.0 0.0 l 0.0 0.0 l 0.0 0.0 l 30.08374 -41.92798 l 12.2717285 -22.69983 l 10.255249 -23.466003 l 23.529175 -134.5658 l 0.0 0.0 l 0.0 0.0 l 0.0 0.0 l -0.9376831 28.972717 l -1.9380493 -56.625305 l -4.710266 -26.42752 l 3.8136597 111.18216 l -4.7234497 26.977722 l -6.527466 25.61383 l 159.70282 80.45703 l -13.016968 39.450134 l 30.42566 -123.64191 l -7.234253 42.856873 l -47.435486 -349.39716 l 18.027405 39.31244 " /> </g> </svg>