<?xml version="1.0" standalone="no"?><!DOCTYPE svg PUBLIC "-//W3C//DTD SVG 1.1//EN" "http://www.w3.org/Graphics/SVG/1.1/DTD/svg11.dtd" ><svg xmlns="http://www.w3.org/2000/svg" xmlns:xlink="http://www.w3.org/1999/xlink" version="1.1" viewBox="-10 0 692 1000"><g transform="matrix(1 0 0 -1 0 800)"><path stroke="black" fill="none" d="M 1010.0 431.0 l 26.054077 -2.221527 l 25.749023 144.55246 l 0.0 0.0 l -10.211548 -113.799164 l 24.008423 -28.531769 l 16.400024 0.0 l 16.400024 0.0 l 16.400024 0.0 l 16.399902 0.0 l 16.400024 0.0 l 16.400024 0.0 l 0.0 -21.200012 l 0.0 -21.199982 l 0.0 -21.200012 l 0.0 -21.199982 l 0.0 -21.200012 l 0.0 -21.200012 l 0.0 -21.199982 l 0.0 -21.200012 l 0.0 -21.199997 l 0.0 -21.199997 l -16.400024 0.0 l -16.400024 0.0 l -16.399902 0.0 l -16.400024 0.0 l -16.400024 0.0 l -16.400024 0.0 l -16.400024 0.0 l -16.399902 0.0 l -16.400024 0.0 l -49.854248 82.3226 l 0.43041992 0.63082886 l 33.023804 -104.85344 l 0.0 -21.899994 l 0.0 -21.90001 l 0.0 -21.899994 l 0.0 -21.900002 l 0.0 -21.900002 l 0.0 -21.899994 l 0.0 -21.900002 l 0.0 -21.9 l 0.0 -21.9 l -23.299988 0.0 l -23.299988 0.0 l -23.300049 0.0 l -23.299988 0.0 l -23.299988 0.0 l -23.299988 0.0 l -23.299988 0.0 l -23.300049 0.0 l -23.299988 0.0 l -23.299988 0.0 l 0.0 21.9 l 0.0 21.9 l 0.0 21.900002 l 0.0 21.899994 l -0.55181885 45.589752 l -83.973816 -28.051964 l 1.013855 0.2527008 l 138.42767 59.650963 l -0.9817505 -0.6637268 l 88.4043 66.73123 l 0.0 0.0 l -14.275574 -12.998703 l -185.81433 60.897263 l 0.0 0.0 l 7.322632 3.7167358 l 42.685547 24.024078 l 0.0 0.0 l 98.33197 123.85782 l 0.0 0.0 l -283.95508 -177.44102 l 0.0 0.0 l 68.45752 6.3558807 l 0.0 0.0 l -85.54645 -175.03009 l 0.0 0.0 l -40.150696 1.9249039 l 0.0 0.0 l -37.43808 185.02077 l 0.0 0.0 l 29.976837 -8.525543 l 0.0 0.0 l -118.029205 -153.65941 l -41.54648 14.507477 l 0.0 0.0 l 33.33551 210.42073 l 0.0 0.0 l 37.155396 -33.43872 l 0.0 0.0 l -107.64798 -81.74112 l -42.42697 -54.59102 l 1.119812 -0.7767639 l -91.484024 72.371506 l 1.1689453 -1.1734772 l -95.77776 -15.830246 l -75.8 0.0 l 107.297325 104.50006 l 0.0 0.0 l 53.022003 44.8873 l 0.0 0.0 l 74.12332 62.55371 l 0.0 0.0 l 76.5802 -20.246613 l 0.0 0.0 l 108.25009 801.5703 l 0.0 0.0 l 326.2634 113.58765 l 0.0 0.0 l -249.38275 -483.24017 l 0.0 0.0 l -205.52069 -69.25964 l 0.0 0.0 l 413.55402 66.012634 l 0.0 0.0 l -37.030212 14.200317 l -126.39514 240.22693 l 0.0 0.0 l 150.83026 -35.07483 l 0.0 0.0 l -235.46594 320.0658 l 0.0 0.0 l -0.86227417 -3.005005 l 363.4578 192.51709 l 0.0 0.0 l 108.04413 -0.3297119 l 0.0 0.0 l -358.68335 -1.4058838 l 0.0 0.0 l -64.92975 -56.934326 l 0.0 0.0 l 566.8742 59.605347 l 1.7025146 -0.07287598 l 78.83252 -14.4696045 l 0.0 0.0 l 0.0053710938 -21.304565 l 0.0013427734 -146.37878 l 0.0 0.0 l 0.0013427734 82.04492 l 0.0 0.0 l -185.99377 -143.05981 l 0.0 0.0 l 71.357544 0.00061035156 l 0.0 0.0 l -44.933533 -158.19092 l -178.51929 -155.00513 l 0.0 0.0 l 83.27368 -58.623047 l 0.0 0.0 l 60.042908 -72.513306 l 0.0 0.0 l 29.079407 -50.414307 l 0.0 0.0 l -187.2204 -56.601868 l 0.0 0.0 l 38.32605 -54.71643 l 0.0 0.0 l 36.174805 -210.6796 l 0.0 0.0 l -5.8050537 128.34738 l 0.0 0.0 l 150.60168 111.17786 l 0.0 0.0 l 16.48169 -57.60498 l 0.0 0.0 l -34.78827 -313.01862 l 0.409729 0.84454346 " /> </g> </svg>