<?xml version="1.0" standalone="no"?><!DOCTYPE svg PUBLIC "-//W3C//DTD SVG 1.1//EN" "http://www.w3.org/Graphics/SVG/1.1/DTD/svg11.dtd" ><svg xmlns="http://www.w3.org/2000/svg" xmlns:xlink="http://www.w3.org/1999/xlink" version="1.1" viewBox="-10 0 692 1000"><g transform="matrix(1 0 0 -1 0 800)"><path stroke="black" fill="none" d="M 1010.0 431.0 l 23.867065 -1.7182617 l 12.9210205 30.25003 l 12.411865 -28.531769 l 16.400024 0.0 l 16.400024 0.0 l 16.400024 0.0 l 16.400024 0.0 l 16.399902 0.0 l 16.400024 0.0 l 16.400024 0.0 l 0.0 -21.200012 l 0.0 -21.199982 l 0.0 -21.200012 l 0.0 -21.199982 l 0.0 -21.200012 l 0.0 -21.200012 l 0.0 -21.199982 l 0.0 -21.200012 l 0.0 -21.199997 l 0.0 -21.199997 l -16.400024 0.0 l -16.400024 0.0 l -16.399902 0.0 l -16.400024 0.0 l -16.400024 0.0 l -16.400024 0.0 l -16.400024 0.0 l -16.399902 0.0 l -16.400024 0.0 l -52.5708 77.94495 l 0.0 0.0 l 36.170776 -99.844955 l 0.0 -21.899994 l 0.0 -21.90001 l 0.0 -21.899994 l 0.0 -21.900002 l 0.0 -21.900002 l 0.0 -21.899994 l 0.0 -21.900002 l 0.0 -21.9 l 0.0 -21.9 l -23.299988 0.0 l -23.299988 0.0 l -23.300049 0.0 l -23.299988 0.0 l -23.299988 0.0 l -23.299988 0.0 l -23.299988 0.0 l -23.300049 0.0 l -23.299988 0.0 l -23.299988 0.0 l 0.0 21.9 l 0.0 21.9 l 0.0 21.900002 l 0.0 21.899994 l 0.0 21.900002 l -78.70447 -2.5837784 l 0.0 0.0 l 113.93054 48.15448 l 0.0 0.0 l 66.89319 46.79245 l 0.0 0.0 l -148.83423 82.89076 l 0.0 0.0 l 137.15503 145.64609 l 0.0 0.0 l -259.67084 -175.52766 l 0.0 0.0 l -52.631958 -169.14851 l 0.0 0.0 l -63.897858 185.05258 l 0.0 0.0 l -129.07098 -144.68512 l 0.0 0.0 l 58.954987 181.97586 l 0.0 0.0 l -98.92343 -89.06714 l -44.040253 -50.988617 l 0.0 0.0 l -89.16763 65.576324 l 0.0 0.0 l -94.192116 -14.5877075 l -75.8 0.0 l 159.98581 149.13425 l 0.0 0.0 l 75.480606 62.364258 l 0.0 0.0 l 305.29507 663.29395 l 0.0 0.0 l -138.7887 -278.1164 l 0.0 0.0 l 286.4425 27.085693 l 0.0 0.0 l 10.642639 213.97333 l 0.0 0.0 l -267.86057 227.08142 l 0.0 0.0 l 379.97372 263.87354 l 0.0 0.0 l -297.24023 -36.627075 l 0.0 0.0 l 551.41 65.19153 l 0.0 0.0 l 85.12842 -99.43909 l 0.0 0.0 l -0.24328613 -88.795044 l 0.0 0.0 l -116.51343 -62.909912 l 0.0 0.0 l -42.712585 -157.31055 l -173.27448 -158.36237 l 0.0 0.0 l 147.30383 -144.14337 l 0.0 0.0 l -160.47717 -98.27814 l 0.0 0.0 l 60.929565 -150.92535 l 0.0 0.0 l 169.4696 62.345093 l 0.0 0.0 l -36.53412 -295.34253 l 0.0 0.0 " /> </g> </svg>