<?xml version="1.0" standalone="no"?><!DOCTYPE svg PUBLIC "-//W3C//DTD SVG 1.1//EN" "http://www.w3.org/Graphics/SVG/1.1/DTD/svg11.dtd" ><svg xmlns="http://www.w3.org/2000/svg" xmlns:xlink="http://www.w3.org/1999/xlink" version="1.1" viewBox="-10 0 692 1000"><g transform="matrix(1 0 0 -1 0 800)"><path stroke="black" fill="none" d="M 1036.96 428.57 l 26.240234 181.43997 l 0.0 0.0 l 0.0 0.0 l 0.0 0.0 l -1.6397705 -47.931824 l -4.9627686 -46.4588 l -8.143799 -44.195404 l -90.21039 -196.76904 l 24.594849 35.892365 l -237.66473 -188.55008 l 40.366394 17.34407 l -126.423706 -42.649734 l 43.841187 11.057762 l 158.39722 75.83724 l -37.042664 -23.695328 l 106.048096 80.578766 l 0.0 0.0 l 0.0 0.0 l 0.0 0.0 l -33.648438 -30.018585 l -229.60474 51.130585 l 24.83429 6.855713 l 46.971924 19.58496 l -22.996216 -10.754822 l 66.42322 38.20523 l -21.23346 -14.688538 l 75.50513 73.09192 l -15.770081 -20.984436 l -18.141602 -20.752045 l 0.0 0.0 l 0.0 0.0 l 0.0 0.0 l 48.518066 64.59866 l 12.262878 23.046143 l 10.514221 24.237762 l 8.486816 24.745636 l -295.33197 -216.00821 l 0.0 0.0 l 0.0 0.0 l 0.0 0.0 l -20.400635 1.4993134 l 47.959778 -0.51823425 l 26.629822 2.9378052 l -27.801819 -167.89114 l -47.227173 -4.737732 l 0.0 0.0 l 0.0 0.0 l 0.0 0.0 l -60.096252 2.8799057 l -47.983307 197.28888 l 16.319519 -7.4405212 l 17.146484 -6.516876 l 55.261566 -13.495483 l -19.042908 3.4913635 l -18.43872 4.5013123 l -60.775208 -169.18605 l -54.915222 14.406776 l -52.2677 20.14753 l 41.429108 213.70914 l -14.665588 16.719269 l 29.413818 -32.050415 l 14.764587 -13.863098 l 14.759888 -12.381744 l 0.0 0.0 l 0.0 0.0 l 0.0 0.0 l 15.112518 -9.489044 l -197.61607 -105.04526 l 47.090897 -31.67389 l -133.49164 112.312225 l 41.892136 -43.19188 l -63.606155 107.05086 l -17.585785 -14.88797 l 35.223526 29.819916 l 17.559296 14.86557 l 17.63916 14.933136 l 17.556046 14.862762 l 17.645401 14.938446 l 17.55922 14.865448 l 17.606049 14.905151 l 35.204926 29.804169 l 0.0 0.0 l 0.0 0.0 l -3.0517578e-05 -3.0517578e-05 l -17.564026 -14.870148 l 32.252197 -9.319977 l 14.523163 -22.444824 l 14.7022705 -21.225586 l 14.633392 -19.64093 l 224.66635 870.4485 l 8.02063 27.017456 l 7.0079956 23.605713 l 7.992859 26.095703 l 47.273438 0.0009765625 l -77.93292 -102.44714 l -7.6254883 -25.686035 l -7.5446167 -25.413574 l 140.86145 153.5503 l 47.50354 0.0 l 47.693726 0.0 l 47.500854 0.0 l -256.43713 -459.9027 l 30.802673 1.3626709 l 0.0 0.0 l 0.0 0.0 l 0.0 0.0 l -89.81592 -12.210815 l 28.55774 6.6880493 l -59.043335 -17.10614 l -25.411041 -11.380859 l 198.30893 26.257751 l -25.793152 4.8394165 l -302.9344 54.470886 l 24.378113 81.461975 l 24.140991 80.6687 l -72.89719 -243.63367 l 8.543182 -81.02527 l 11.11969 0.0 l 0.46148682 0.0 l -42.07263 0.0 l -0.25949097 0.0 l 15.562561 0.0 l -0.5548706 0.0 l 42.911896 0.0 l -5.2917175 0.0 l 20.05954 0.0 l 0.49588013 0.0 l 51.256104 44.15027 l 25.198395 17.388306 l -50.52829 -38.193604 l 370.2361 41.07141 l -22.073914 12.600891 l -23.074463 10.687134 l -23.91632 8.710449 l -120.8089 220.66107 l -0.013366699 -0.00048828125 l 4.409607 0.12402344 l 5.6447754 0.0892334 l 0.0 0.0 l -0.013549805 -0.00012207031 l -1.906311 -0.021484375 l -14.114746 -0.4293213 l -0.1060791 -0.0045166016 l -5.7282715 -0.29821777 l -0.07434082 -0.0041503906 l -3.8990479 -0.2376709 l 0.0 0.0 l -0.0072021484 -0.00048828125 l -3.8405762 -0.28564453 l 0.0 0.0 l -17.910095 -1.6534424 l 2.0144653 0.21203613 l 7.8258667 0.76123047 l -0.123413086 -0.010986328 l -3.3181152 -0.31225586 l -13.917297 -1.4916992 l 0.0 0.0 l 0.0006713867 0.00012207031 l 0.013122559 0.0014648438 l 3.2061157 0.36938477 l 4.4092407 25.379639 l 7.6887207 25.901978 l 7.4194946 24.992432 l -137.64575 15.962524 l 24.25119 81.03943 l 190.10031 -171.39026 l 42.54486 -4.557373 l -184.03665 338.38354 l -24.295654 -81.185425 l 264.32962 243.59058 l 63.864563 0.0 l 63.670532 0.0 l 63.86133 0.0 l 63.760498 0.0 l -319.01965 -0.00012207031 l -63.76184 0.0 l -63.81836 -0.036621094 l -24.285583 -81.15149 l 534.70465 81.188354 l 63.788086 0.0 l 63.803223 -21.790161 l 0.0 21.781494 l 0.0 -65.35608 l 0.0 21.746826 l 0.0 -152.61609 l 0.0 -21.739868 l 0.0 65.33765 l 0.0 -21.748047 l 0.0 43.620605 l 0.0 21.748413 l 0.0 21.807983 l -282.94366 -155.28284 l 47.647644 0.0 l 47.501587 0.0 l 47.646362 0.0 l 47.56909 0.0 l -329.75226 -276.52356 l -39.246582 10.617432 l 77.206726 -24.401367 l 35.840515 -16.604431 l 67.32971 -42.552917 l -32.77893 22.750671 l 64.059875 -48.625854 l 0.0 0.0 l 0.0 0.0 l 0.0 0.0 l 27.56195 -31.065918 l 24.63446 -32.72931 l 21.762268 -34.471558 l 18.837341 -36.12561 l -231.20697 -10.006653 l 20.064453 -16.371216 l 35.25891 -38.844604 l -15.952393 20.384888 l 0.0 0.0 l 0.0 0.0 l 0.0 0.0 l 30.081055 -41.922363 l 12.2352295 -22.615112 l 10.3151245 -23.60321 l 23.508545 -134.51929 l 0.0 0.0 l 0.0 0.0 l 0.0 0.0 l -0.93933105 29.034485 l -1.9182129 -56.58618 l -4.7383423 -26.584839 l 3.8322754 111.19476 l -4.706848 26.92273 l -6.564636 25.759644 l 159.72919 80.36725 l -13.040405 39.52069 l 30.442871 -123.71832 l -7.2453613 42.92273 l -47.43866 -349.42743 l 18.036255 39.33194 " /> </g> </svg>