<?xml version="1.0" standalone="no"?><!DOCTYPE svg PUBLIC "-//W3C//DTD SVG 1.1//EN" "http://www.w3.org/Graphics/SVG/1.1/DTD/svg11.dtd" ><svg xmlns="http://www.w3.org/2000/svg" xmlns:xlink="http://www.w3.org/1999/xlink" version="1.1" viewBox="-10 0 692 1000"><g transform="matrix(1 0 0 -1 0 800)"><path stroke="black" fill="none" d="M 1036.96 428.57 l 26.240112 181.44 l 0.0 0.0 l 0.0 0.0 l 0.0 0.0 l -1.6398926 -47.937622 l -4.932617 -46.289978 l -8.183472 -44.410736 l -90.203125 -196.72025 l 24.59851 35.897766 l -237.71088 -188.57123 l 40.425476 17.369476 l -126.44226 -42.65699 l 43.847412 11.059341 l 158.39917 75.839195 l -37.04785 -23.698624 l 106.04944 80.579636 l 0.0 0.0 l 0.0 0.0 l 0.0 0.0 l -33.649536 -30.019592 l -229.6084 51.130157 l 24.845337 6.858734 l 46.99182 19.595612 l -23.03424 -10.772614 l 66.44214 38.215668 l -21.245178 -14.696625 l 75.71362 73.3663 l -16.038696 -21.341919 l -18.076843 -20.665741 l 0.0 0.0 l 0.0 0.0 l 0.0 0.0 l 48.46997 64.50769 l 12.324463 23.161987 l 10.468811 24.11914 l 8.531494 24.876007 l -295.34473 -216.04483 l 0.0 0.0 l 0.0 0.0 l 0.0 0.0 l -20.407227 1.4998016 l 47.9599 -0.5194702 l 26.644104 2.9393463 l -27.793518 -167.89032 l -47.243286 -4.739334 l 0.0 0.0 l 0.0 0.0 l 0.0 0.0 l -60.098877 2.8799667 l -48.044617 197.31796 l 16.411774 -7.482605 l 17.120697 -6.504944 l 55.281677 -13.498657 l -19.076233 3.497467 l -18.432526 4.5003967 l -60.764465 -169.18884 l -54.90445 14.401985 l -52.290558 20.156342 l 41.45096 213.68854 l -14.696991 16.755127 l 29.432343 -32.07132 l 14.754272 -13.853821 l 14.767029 -12.387604 l 0.0 0.0 l 0.0 0.0 l 0.0 0.0 l 15.124878 -9.496796 l -197.633 -105.034454 l 47.09735 -31.678207 l -133.49757 112.31773 l 41.897705 -43.19763 l -63.601807 107.05731 l -17.595833 -14.896484 l 35.2069 29.805847 l 17.588058 14.889923 l 17.61148 14.9096985 l 17.587128 14.889099 l 17.613297 14.911255 l 17.588058 14.889862 l 17.60176 14.90152 l 35.201538 29.8013 l 0.0 0.0 l 0.0 0.0 l 0.0 0.0 l -17.589539 -14.891327 l 32.22235 -9.213959 l 14.598694 -22.561584 l 14.665314 -21.17215 l 14.659271 -19.675629 l 224.64066 870.4071 l 7.7231445 26.015259 l 7.4266357 25.01587 l 7.715088 25.745117 l 47.504333 0.00036621094 l -77.98035 -102.41394 l -7.607483 -25.625122 l -7.58374 -25.54541 l 140.818 153.58545 l 47.571716 0.0 l 47.627502 0.0 l 47.570923 0.0 l -256.5735 -459.9079 l 30.92102 1.3678589 l 0.0 0.0 l 0.0 0.0 l 0.0 0.0 l -90.179504 -12.295044 l 29.047241 6.8025513 l -58.050995 -16.635132 l -26.909363 -12.052002 l 198.71982 26.421936 l -25.833374 4.846924 l -302.95248 54.378357 l 24.322876 81.27673 l 24.253418 81.04437 l -72.89917 -243.60986 l 7.0984497 -81.1488 l 8.701569 0.0 l 5.5239563 0.0 l -39.490448 0.0 l -5.314514 0.0 l 20.686127 0.0 l -5.576416 0.0 l 45.206116 0.0 l -6.994629 0.0 l 16.76474 0.0 l 5.5450745 0.0 l 49.73398 43.930847 l 25.63086 17.686462 l -50.69214 -38.31122 l 370.29547 41.105774 l -22.085327 12.607361 l -23.04303 10.674988 l -23.954285 8.724243 l -120.03955 220.68225 l -0.97680664 -0.03100586 l 4.8743286 0.13720703 l 5.4973755 0.08300781 l 0.0 0.0 l -0.00048828125 0.0 l -0.006958008 0.0 l -2.472107 -0.027832031 l -12.0578 -0.35205078 l -1.8529053 -0.08239746 l -4.0438232 -0.20532227 l -1.8535156 -0.10412598 l -3.5846558 -0.21875 l 0.0 0.0 l -0.00030517578 0.0 l -0.002746582 -0.00024414062 l -3.996582 -0.2972412 l 0.14007568 0.011108398 l -18.544556 -1.7185059 l 2.941162 0.3095703 l 9.217041 0.88049316 l -2.0874023 -0.18713379 l -3.515503 -0.3317871 l -13.526855 -1.4555664 l 0.0 0.0 l 6.1035156e-05 0.0 l 0.00012207031 0.00012207031 l 3.3400269 0.38476562 l 4.2719116 25.259644 l 7.6259766 25.688477 l 7.547119 25.42212 l -137.70529 15.769775 l 24.285706 81.152954 l 190.0859 -171.41833 l 42.562683 -4.559326 l -184.04611 338.38818 l -24.298706 -81.19568 l 264.3087 243.59717 l 63.81891 0.0 l 63.762024 0.0 l 63.817993 0.0 l 63.78839 0.0 l -319.00574 0.0 l -63.78882 0.0 l -63.80536 -0.0107421875 l -24.295776 -81.18591 l 534.70135 81.196655 l 63.79651 0.0 l 63.800903 -21.79712 l 0.0 21.794556 l 0.0 -65.387085 l 0.0 21.784424 l 0.0 -152.60474 l 0.0 -21.782349 l 0.0 65.381714 l 0.0 -21.78479 l 0.0 43.60608 l 0.0 21.784912 l 0.0 21.802246 l -282.96228 -155.28784 l 47.614014 0.0 l 47.571167 0.0 l 47.613525 0.0 l 47.590942 0.0 l -329.71527 -276.53516 l -39.305542 10.633301 l 77.088806 -24.34375 l 36.016968 -16.686157 l 67.322815 -42.557922 l -32.829163 22.785522 l 64.0741 -48.635864 l 0.0 0.0 l 0.0 0.0 l 0.0 0.0 l 27.553467 -31.054626 l 24.645508 -32.743958 l 21.753601 -34.45636 l 18.846252 -36.142822 l -231.28693 -9.938293 l 20.16742 -16.4552 l 35.252625 -38.84845 l -15.971924 20.409729 l 0.0 0.0 l 0.0 0.0 l 0.0 0.0 l 30.080261 -41.920654 l 12.224487 -22.590332 l 10.332703 -23.643372 l 23.502502 -134.50568 l 0.0 0.0 l 0.0 0.0 l 0.0 0.0 l -0.93981934 29.052551 l -1.9123535 -56.574707 l -4.746582 -26.63092 l 3.8377075 111.19849 l -4.7019653 26.906616 l -6.5755615 25.802307 l 159.73694 80.34094 l -13.047241 39.54138 l 30.447876 -123.74072 l -7.248657 42.942017 l -47.439575 -349.4363 l 18.03888 39.337677 " /> </g> </svg>