<?xml version="1.0" standalone="no"?><!DOCTYPE svg PUBLIC "-//W3C//DTD SVG 1.1//EN" "http://www.w3.org/Graphics/SVG/1.1/DTD/svg11.dtd" ><svg xmlns="http://www.w3.org/2000/svg" xmlns:xlink="http://www.w3.org/1999/xlink" version="1.1" viewBox="-10 0 692 1000"><g transform="matrix(1 0 0 -1 0 800)"><path stroke="black" fill="none" d="M 1036.958 428.57047 l 26.24646 181.4267 l 0.0 0.0 l -0.00012207031 -0.00018310547 l 0.0 -0.0009765625 l -1.628418 -47.60089 l -6.6210938 -55.724274 l -5.9664307 -32.37732 l -90.60895 -199.4483 l 24.391785 35.59613 l -235.13031 -187.3887 l 37.121338 15.950066 l -125.40198 -42.251602 l 43.498474 10.971268 l 158.2893 75.73006 l -36.758606 -23.514069 l 105.97467 80.530075 l 0.0 0.0 l 0.0 -1.5258789e-05 l 0.0 0.0 l -33.58789 -29.963104 l -229.4007 51.15439 l 24.225037 6.688751 l 45.881104 19.001862 l -20.908508 -9.778534 l 65.38422 37.632965 l -20.592102 -14.245117 l 64.06372 58.035217 l -1.0461426 -1.3933411 l -21.665466 -25.447723 l 0.0 0.0 l 0.00024414062 0.00024414062 l 0.0020141602 0.0023498535 l 51.143982 69.573395 l 8.883789 16.6893 l 13.00415 30.746124 l 6.0356445 17.592651 l -294.6352 -213.99873 l 0.0 0.0 l 0.0 0.0 l -0.00012207031 1.5258789e-05 l -20.035461 1.4725952 l 47.952026 -0.45025635 l 25.846375 2.8526917 l -28.258484 -167.93533 l -46.339783 -4.6496964 l 0.0 0.0 l 0.0 0.0 l 6.1035156e-05 7.6293945e-06 l -59.95334 2.8760147 l -44.619446 195.69437 l 11.256683 -5.1325684 l 18.562378 -7.1721497 l 54.157166 -13.320099 l -17.21576 3.1557312 l -18.776886 4.552765 l -61.364502 -169.03357 l -55.506226 14.669884 l -51.013397 19.663864 l 40.22888 214.83911 l -12.941467 14.75119 l 28.3974 -30.90332 l 15.331024 -14.370544 l 14.389954 -12.076111 l 0.0 0.0 l 0.0004272461 -0.0002746582 l 0.007385254 -0.004638672 l 14.404114 -9.043396 l -196.68822 -105.63808 l 46.738052 -31.43689 l -133.16724 112.01033 l 41.586823 -42.876755 l -63.84456 106.69652 l -17.034592 -14.421326 l 36.136337 30.592682 l 15.980255 13.528778 l 19.158081 16.219025 l 15.850586 13.418945 l 19.407364 16.430054 l 15.976624 13.525665 l 17.84082 15.103546 l 34.74637 29.40445 l 0.0 0.0 l -0.10296631 -0.08898926 l -15.417877 -13.062347 l 33.889893 -15.138794 l 10.378204 -16.036072 l 16.730865 -24.159119 l 13.213928 -17.736938 l 226.07654 872.7201 l 0.006286621 0.020996094 l 12.400269 41.786987 l 0.0 0.0 l 19.207031 31.762207 l 34.60193 0.0390625 l -75.32922 -104.27734 l -8.612976 -29.022583 l -5.397522 -18.181274 l 143.2475 151.62073 l 43.76123 0.0 l 51.329163 0.0 l 43.65381 0.0 l -248.95312 -459.6198 l 24.145264 1.0720215 l 0.0 0.0 l -0.006958008 -0.00030517578 l -69.69751 -7.581604 l 1.7260742 0.41375732 l -71.377625 -24.113525 l 0.0 0.0 l 190.42267 23.848206 l -23.585205 4.426941 l -301.9415 59.55127 l 27.40802 91.62512 l 17.972748 60.058228 l -72.78891 -244.9461 l -0.01083374 -0.048095703 l -9.773529 -74.196106 l 0.0 0.0 l 57.937927 0.0 l 0.0 0.0 l 73.15286 56.19037 l 1.4911804 1.0418701 l -41.55957 -31.75354 l 366.98062 39.186584 l -21.44989 12.246643 l -24.800537 11.352417 l -21.832703 7.9525146 l -112.14435 221.06024 l 0.0 0.0 l -18.066833 -0.59265137 l 0.0 0.0 l -24.32666 -1.8861084 l 0.0 0.0 l -8.852478 -0.94262695 l 0.0 0.0 l 6.396118 31.327515 l 11.130432 37.62024 l 0.43634033 1.4718018 l -134.39584 26.481201 l 22.356628 74.81055 l 190.88754 -169.8501 l 41.56909 -4.45459 l -183.517 338.13428 l -24.12677 -80.62207 l 265.47806 243.22485 l 66.370544 0.00061035156 l 58.647522 0.0 l 66.24017 -0.0012207031 l 62.227844 0.00012207031 l -319.78217 -0.0041503906 l -62.28174 0.0010986328 l -64.53082 -1.4580078 l -23.725647 -79.267456 l 534.88776 80.73511 l 63.32422 -0.0008544922 l 63.929443 -21.404053 l 0.0 21.060669 l 0.0 -63.65222 l 0.0 19.684937 l 0.0 -153.24121 l 0.0 -19.407837 l 0.0 62.9187 l 0.0 -19.731323 l 0.0 44.418335 l 0.0 19.749268 l 0.0 22.116821 l -281.9225 -155.00671 l 49.493225 0.0 l 43.684692 0.0 l 49.445007 0.0 l 46.37024 0.0 l -331.78015 -275.88477 l -36.011963 9.743042 l 83.677185 -27.562256 l 26.16034 -12.119324 l 67.70532 -42.27655 l -30.020447 20.837158 l 63.277832 -48.076294 l 0.0 0.0 l 0.0 0.0 l -6.1035156e-05 6.1035156e-05 l 28.02655 -31.68573 l 24.031006 -31.92694 l 22.239807 -35.30542 l 18.345215 -35.181274 l -226.82092 -13.755432 l 14.41687 -11.762756 l 35.605896 -38.63678 l -14.876282 19.014465 l 0.0 0.0 l 0.00012207031 -0.00012207031 l 0.0005493164 -0.0006713867 l 30.117554 -42.003967 l 12.822632 -23.977295 l 9.352295 -21.397827 l 23.838379 -135.22589 l 0.0 0.0 l -6.1035156e-05 0.0010375977 l -0.0012817383 0.035095215 l -0.90966797 27.965515 l -2.237854 -57.21576 l -4.286377 -24.056152 l 3.53302 110.99225 l -4.973755 27.80597 l -5.967285 23.41687 l 159.30536 81.81085 l -12.664429 38.385498 l 30.167114 -122.4895 l -7.0665283 41.86389 l -47.38733 -348.9404 l 17.893005 39.018433 " /> </g> </svg>