<?xml version="1.0" standalone="no"?><!DOCTYPE svg PUBLIC "-//W3C//DTD SVG 1.1//EN" "http://www.w3.org/Graphics/SVG/1.1/DTD/svg11.dtd" ><svg xmlns="http://www.w3.org/2000/svg" xmlns:xlink="http://www.w3.org/1999/xlink" version="1.1" viewBox="-10 0 692 1000"><g transform="matrix(1 0 0 -1 0 800)"><path stroke="black" fill="none" d="M 901.4429 1369.2792 l -37.168884 -48.93872 l -45.470215 -61.165283 l -25.807556 -35.124146 l -115.17328 -154.7793 l -69.94568 -100.17517 l 0.0 0.0 l 16.860413 2.1524048 l 0.0 0.0 l 28.692749 3.2074585 l 0.0 0.0 l -18.188416 -1.9450073 l 0.0 0.0 l 109.71063 185.98224 l -26.105835 -35.49768 l -36.800354 -146.68372 l 0.0 0.0 l -15.427368 -0.7642212 l 0.0 0.0 l -23.279297 39.612 l 0.0037841797 -0.014038086 l 86.14136 -41.437683 l -0.64190674 0.077941895 l 57.279602 -9.581238 l 46.444336 -13.832825 l 21.828064 -8.598877 l 58.737793 -31.265137 l 0.80999756 -0.49694824 l 37.365234 -25.749695 l 28.424011 -24.570984 l 0.0 0.0 l 0.00012207031 -6.1035156e-05 l 0.00018310547 -0.00012207031 l 25.989624 -29.319458 l 22.93988 -30.33374 l 20.215332 -31.507263 l 29.484253 -57.94995 l -9.698608 21.851013 l 24.403809 -64.34247 l 10.427246 -37.02173 l 0.0057373047 -0.73687744 l 6.0042725 -32.661743 l 4.8293457 -41.30713 l 0.0 0.0 l -0.0012207031 -0.031677246 l -1.2248535 -33.292786 l -6.341919 -48.386993 l -8.565552 -47.72931 l -6.991333 -25.249268 l -18.645996 -49.358368 l -10.957397 -23.560608 l -26.85791 -46.315002 l -15.065674 -22.138885 l -28.458862 -36.151077 l 0.0 0.0 l -0.00024414062 0.00030517578 l -0.0018920898 0.00289917 l -39.3739 -30.010086 l 7.7924805 1.1668854 l -56.0838 -42.325638 l -0.93066406 -0.65031433 l -69.800476 -37.704987 l 23.543457 10.923126 l -98.048584 -36.4386 l 25.086182 6.9285736 l -73.00818 -16.146599 l -40.370483 -5.25354 l 0.0 0.0 l -6.1035156e-05 0.00011444092 l -0.00024414062 0.00047302246 l -50.381775 2.487091 l -26.780151 2.9525146 l -43.723145 7.874733 l -38.90619 10.240295 l -65.49423 26.399788 l 23.968628 -10.810387 l -74.73251 38.678444 l -22.53946 14.7578125 l -59.707367 51.158783 l 22.263824 -22.903732 l 0.0 0.0 l -0.0028686523 0.0028533936 l -93.24101 118.311295 l -0.21318054 0.35092163 l 34.724274 -52.387848 l -58.530167 96.43155 l -34.965942 141.6174 l -0.76820374 5.9830933 l 0.0 0.0 l 2.3927765 48.15158 l -0.14242554 -1.098999 l 10.6128845 -124.49515 l 0.078186035 -0.26089478 l 11.737366 -33.000305 l 53.193893 378.4394 l -35.89377 -66.65845 l -0.4345703 -0.9908447 l -26.83377 -81.385925 l 0.011489868 0.03778076 l 7.581543 27.282898 l 94.12196 194.61859 l -17.449524 -27.405579 l 552.3087 758.144 l 0.0 0.0 l -0.119018555 0.08898926 l -26.32965 19.704468 l 96.555786 -72.267334 l 0.33691406 -0.25219727 l 33.008057 -24.707886 l 0.19604492 -0.14672852 l -76.98114 57.745117 l -0.26586914 0.19189453 l 80.71649 -131.80762 l 0.006958008 0.018920898 l 20.755127 52.56372 l 0.0 0.0 " /> </g> </svg>