<?xml version="1.0" standalone="no"?><!DOCTYPE svg PUBLIC "-//W3C//DTD SVG 1.1//EN" "http://www.w3.org/Graphics/SVG/1.1/DTD/svg11.dtd" ><svg xmlns="http://www.w3.org/2000/svg" xmlns:xlink="http://www.w3.org/1999/xlink" version="1.1" viewBox="-10 0 692 1000"><g transform="matrix(1 0 0 -1 0 800)"><path stroke="black" fill="none" d="M 901.2208 1369.5724 l -36.923035 -50.091675 l -37.635193 -51.140747 l -35.948486 -48.90674 l -111.08374 -150.9585 l -73.156494 -100.33917 l 0.0 0.0 l 0.041015625 0.005432129 l 3.8433228 0.5072632 l 9.757935 1.253418 l 6.8027954 0.84869385 l 0.13085938 0.016113281 l 22.496826 2.558838 l 0.0 0.0 l 0.04144287 0.004211426 l 6.033264 0.5878296 l -14.383728 -1.4922485 l -6.0427246 -0.6862793 l -0.08666992 -0.010009766 l 117.74994 196.18707 l -35.974 -48.938843 l -42.703613 -143.67773 l 0.0 0.0 l -0.10449219 -0.0063476562 l 8.899963 0.3289795 l 0.021850586 0.00048828125 l 0.0 0.0 l -20.80365 -1.1392822 l 0.011169434 0.0008544922 l 2.8774414 0.22735596 l 0.0 0.0 l -22.145142 43.227783 l 111.13507 -47.803894 l -32.547424 3.8984375 l 69.4494 -11.296082 l 35.09491 -10.4019165 l 32.05078 -12.585876 l 34.284546 -17.163269 l 28.138977 -17.01001 l 30.829895 -22.102722 l 28.885925 -24.487488 l 0.0 0.0 l 0.0 0.0 l 0.0 0.0 l 25.853516 -29.0094 l 23.104614 -30.156616 l 20.384155 -31.31781 l 32.36914 -65.38257 l -14.508545 32.610413 l 26.960083 -68.05188 l 9.597778 -36.032837 l 6.7323 -36.78247 l 4.1466064 -38.46228 l 0.0 0.0 l 0.0 -6.1035156e-05 l 0.0 -0.00018310547 l -1.4971924 -41.131836 l -4.7127686 -41.267975 l -7.6828613 -40.114532 l -10.327026 -37.08902 l -14.105957 -38.06018 l -16.225708 -34.75 l -20.368896 -35.60501 l -22.136475 -32.433945 l -26.062988 -32.54149 l 0.0 0.0 l 0.0 0.0 l 0.0 0.0 l -30.878052 -28.700333 l -34.093445 -27.098831 l -30.293152 -20.638153 l -70.313416 -36.490234 l 34.64795 16.122139 l -109.64209 -40.39843 l 37.010986 10.257614 l -77.096375 -17.950706 l -40.552307 -4.5932007 l 0.0 0.0 l 0.0 0.0 l 0.0 7.6293945e-06 l -42.2442 1.5767136 l -39.26819 4.339813 l -39.770874 7.4864426 l -38.40686 10.413727 l -72.90463 29.5083 l 35.223846 -15.911339 l -71.79562 36.01037 l -33.199646 21.698685 l -62.361023 55.292145 l 28.84607 -29.7238 l 0.0 0.0 l 0.0 1.5258789e-05 l -3.0517578e-05 3.0517578e-05 l -80.28015 96.41835 l -18.03238 30.10904 l 42.248444 -64.33078 l -60.28531 100.56241 l -32.757263 113.48944 l -4.339966 36.48355 l 0.0 0.0 l 3.0517578e-05 -0.00021362305 l 0.00016784668 -0.0013427734 l 5.749893 71.678406 l -4.127289 -33.937378 l 10.839905 -115.13913 l 10.932846 -36.633545 l 50.9505 380.8992 l -21.025208 -41.793274 l -15.123367 -35.522766 l -24.488373 -77.3551 l 10.314606 37.211853 l 97.80444 197.06995 l -24.964783 -39.230408 l 559.0494 758.6253 l -1.3772583 1.0306396 l -13.70752 10.26062 l -17.912598 13.407959 l 86.448425 -64.70923 l 15.283142 -11.440063 l 18.844421 -14.105713 l 15.159485 -11.347534 l -68.64673 51.395264 l -15.226807 11.393433 l 82.19226 -138.78943 l 32.949158 52.508545 l -11.330078 8.50647 " /> </g> </svg>