<?xml version="1.0" standalone="no"?><!DOCTYPE svg PUBLIC "-//W3C//DTD SVG 1.1//EN" "http://www.w3.org/Graphics/SVG/1.1/DTD/svg11.dtd" ><svg xmlns="http://www.w3.org/2000/svg" xmlns:xlink="http://www.w3.org/1999/xlink" version="1.1" viewBox="-10 0 692 1000"><g transform="matrix(1 0 0 -1 0 800)"><path stroke="black" fill="none" d="M 901.20013 1369.5997 l -36.900146 -50.199097 l -36.905396 -50.20703 l -36.893005 -50.19043 l -110.70282 -150.60254 l -73.79913 -100.40015 l 0.0 0.0 l 0.0 0.0 l 6.1035156e-05 0.0 l 5.8988647 0.7785034 l 5.7597046 0.74383545 l 5.564575 0.7017212 l 5.312134 0.65289307 l 19.71466 2.2440796 l 4.4804688 0.46087646 l 0.0 0.0 l 0.00079345703 6.1035156e-05 l 0.022644043 0.0020751953 l 3.8972168 0.36029053 l -13.078125 -1.3262329 l -4.8515015 -0.5425415 l -4.946594 -0.5726929 l 119.82001 197.29022 l -36.89319 -50.190796 l -39.10083 -143.20697 l -2.8825684 -0.13311768 l -3.2250366 -0.18041992 l 9.104187 0.4192505 l 2.6222534 0.05895996 l 0.0 0.0 l 0.0 0.0 l 0.0 0.0 l -22.45874 -1.2591553 l 7.177063 0.5494995 l -3.374817 -0.24578857 l -21.662598 43.593018 l 113.46277 -48.39557 l -36.044067 4.3168945 l 71.107666 -11.518433 l 34.03784 -10.082275 l 33.00293 -12.957275 l 32.006836 -15.8497925 l 30.949219 -18.707336 l 29.956482 -21.60376 l 28.929688 -24.480042 l 0.0 0.0 l 0.0 0.0 l 0.0 0.0 l 25.840088 -28.980225 l 23.119934 -30.140137 l 20.399902 -31.30011 l 32.63794 -66.07489 l -14.956665 33.61261 l 27.19812 -68.3974 l 9.52063 -35.940735 l 6.7995605 -37.097656 l 4.0804443 -38.261414 l 0.0 0.0 l 0.0 0.0 l 0.0 0.0 l -1.5198975 -41.795166 l -4.561035 -40.60489 l -7.600586 -39.405273 l -10.637695 -38.191833 l -13.683228 -37.007782 l -16.716309 -35.792267 l -19.764526 -34.60742 l -22.795044 -33.392868 l -25.841614 -32.20253 l 0.0 0.0 l 0.0 0.0 l 0.0 0.0 l -30.810547 -28.690079 l -32.045166 -25.680511 l -33.22821 -22.635193 l -70.16113 -36.241837 l 35.68225 16.606415 l -110.721924 -40.767273 l 38.121765 10.567703 l -77.47717 -18.11876 l -40.569885 -4.530464 l 0.0 0.0 l 0.0 0.0 l 0.0 0.0 l -41.485596 1.4906464 l -40.431396 4.4690323 l -39.40277 7.4502716 l -38.36029 10.429886 l -73.59491 29.797844 l 36.272247 -16.386475 l -71.522064 35.76185 l -34.192627 22.3452 l -62.608185 55.677155 l 29.445587 -30.345413 l 0.0 0.0 l 0.0 0.0 l 0.0 0.0 l -79.05907 94.36525 l -20.134415 33.62393 l 43.39154 -66.18625 l -60.448807 100.94714 l -32.551514 110.869446 l -4.6477356 39.130493 l 0.0 0.0 l 0.0 0.0 l 0.0 0.0 l 6.0378723 74.062164 l -4.5270386 -37.235535 l 10.889633 -114.02823 l 10.850616 -36.947662 l 50.741547 381.1283 l -19.640259 -39.477173 l -16.59906 -38.994324 l -24.162415 -76.72461 l 10.5681 38.13318 l 98.147446 197.29828 l -25.664795 -40.33185 l 560.26105 758.233 l -17.085205 12.788818 l -17.105957 12.804565 l 85.50696 -64.00525 l 17.086609 -12.790039 l 17.112915 -12.80957 l 17.085693 -12.789307 l -68.401794 51.201416 l -17.086243 12.789673 l 82.79547 -139.79248 l 36.87097 50.21692 l -17.057495 12.768433 " /> </g> </svg>