<?xml version="1.0" standalone="no"?><!DOCTYPE svg PUBLIC "-//W3C//DTD SVG 1.1//EN" "http://www.w3.org/Graphics/SVG/1.1/DTD/svg11.dtd" ><svg xmlns="http://www.w3.org/2000/svg" xmlns:xlink="http://www.w3.org/1999/xlink" version="1.1" viewBox="-10 0 692 1000"><g transform="matrix(1 0 0 -1 0 800)"><path stroke="black" fill="none" d="M 1077.0 1326.0 l -47.599976 0.0 l -47.600037 0.0 l -77.76904 39.85974 l -37.817932 -45.893555 l -66.160645 -87.637695 l -0.9039917 -1.2602539 l -7.748352 94.93176 l -47.600037 0.0 l -47.599976 0.0 l -47.599976 0.0 l -47.600037 0.0 l -7.5999756 -25.599976 l -7.6000366 -25.599976 l -7.5999756 -25.600098 l -7.5999756 -25.599976 l -7.6000366 -25.599976 l -7.5999756 -25.599976 l -7.6000366 -25.599976 l -7.5999756 -25.600098 l -7.5999756 -25.599976 l -7.6000366 -25.599976 l 0.0 0.0 l 3.3850098 0.39001465 l 3.3549805 0.36999512 l 3.3250122 0.3499756 l 3.295044 0.32995605 l 3.2649536 0.3100586 l 3.2350464 0.29003906 l 3.204956 0.26989746 l 3.1749878 0.25 l 3.1450195 0.23010254 l 0.0 0.0 l 3.0750122 0.1899414 l 3.0250244 0.17004395 l 2.9749756 0.15002441 l 2.9249878 0.13000488 l 2.875 0.10998535 l 2.8250122 0.08996582 l 2.7750244 0.06994629 l 2.7249756 0.050048828 l 2.6749878 0.030029297 l 0.0 0.0 l 94.79169 -5.048828 l -66.448364 -100.39172 l 0.0 0.0 l 28.563904 3.543518 l 0.0 0.0 l 88.910706 159.08417 l -1.1520386 -1.5205078 l -64.493286 -155.22656 l 0.0 0.0 l -14.029297 30.955872 l 0.0 0.0 l 138.60669 30.604065 l -45.416077 -64.15759 l 0.0 0.0 l 35.717346 -6.187256 l 80.25873 33.864807 l -3.8433838 -56.757874 l 0.7062988 -0.3109131 l 67.2171 8.428772 l 0.0 0.0 l -3.9866333 -41.415833 l 0.0 0.0 l 37.472656 -25.547363 l 27.271729 -24.824707 l 0.0 0.0 l 0.0009765625 -0.0004272461 l 26.281677 -30.105225 l 22.505005 -30.801392 l 19.76941 -32.00775 l 21.866089 -38.322266 l -0.23608398 0.5678711 l 20.892456 -61.67639 l 12.617676 -39.6333 l 0.0018310547 -0.144104 l 4.100952 -24.318604 l 6.3880615 -54.87555 l 0.0 0.0 l -0.26623535 -6.651062 l -57.689575 -25.053894 l 47.0459 -42.13217 l -10.896973 -67.838104 l -0.16455078 -0.71936035 l -28.652588 -72.45813 l -0.2659912 -0.64678955 l -59.545776 16.114563 l 18.772705 -84.07739 l -0.39733887 -0.6425171 l -30.952576 -39.732468 l 0.0 0.0 l -0.0048828125 0.0074157715 l -39.145874 -30.35962 l 5.874634 0.8830719 l -55.656006 -41.61641 l 0.0 0.0 l -41.29071 30.957932 l -9.045532 -60.6576 l 0.6641846 0.2808075 l -67.41864 16.136787 l -6.4593506 -45.205452 l 0.6810913 0.16868591 l -69.29779 -13.413681 l -39.94867 -6.881462 l 0.0 0.0 l -0.0009765625 0.0019760132 l -71.81268 4.7754517 l -0.7523804 0.07649231 l -47.210022 8.112625 l 0.060791016 -0.01146698 l -40.285767 9.793777 l -45.92517 18.190956 l 0.6759949 -0.29016876 l -88.917816 48.674347 l -0.59225464 0.40927124 l -34.264984 -33.621353 l -12.2309265 69.88434 l 3.6044617 -3.6135406 l 0.0 0.0 l -80.89612 100.40146 l 0.0 0.0 l 16.39325 -24.62854 l -68.170654 -47.003708 l -41.90001 43.199997 l -39.299995 48.95999 l 17.599998 14.899994 l 17.600006 14.900024 l 60.275467 10.56662 l -32.74672 153.19543 l 0.0 0.0 l 2.1824646 36.088287 l 0.0 0.0 l 12.35054 -125.50427 l 0.0076904297 -0.025665283 l 14.138901 -24.329987 l 31.791656 24.509552 l 17.600006 14.900024 l 17.600006 14.899994 l 17.599976 14.899994 l 0.0 0.0 l 14.610016 -24.070007 l 14.630005 -22.609985 l 14.649994 -21.149994 l 14.669983 -19.690002 l 14.690002 -18.230011 l 14.710022 -16.769989 l 14.72998 -15.309998 l 14.75 -13.850006 l 14.77002 -12.390015 l 0.0 0.0 l 15.129974 -9.5 l 15.790009 -8.5 l 16.450012 -7.5 l 17.109985 -6.5 l 17.77002 -5.5 l 18.429993 -4.5 l 19.090027 -3.5 l 19.75 -2.5 l 20.409973 -1.5 l 0.0 0.0 l 27.549988 0.980011 l 26.650024 2.9400024 l 25.75 4.899994 l 24.849976 6.8599854 l 23.950012 8.820007 l 23.049988 10.779999 l 22.150024 12.740021 l 21.25 14.699982 l 20.349976 16.660004 l 0.0 0.0 l 18.049988 20.630005 l 16.150024 21.48999 l 14.25 22.350006 l 12.349976 23.209991 l 10.450012 24.070007 l 8.549988 24.929993 l 6.6500244 25.790009 l 4.75 26.650024 l 2.8499756 27.509949 l 0.0 0.0 l -0.94000244 29.059998 l -2.8200073 27.980042 l -4.699951 26.899963 l -6.580017 25.820007 l -8.460022 24.73999 l -10.339966 23.660034 l -12.220032 22.580017 l -14.099976 21.5 l -15.97998 20.419983 l 0.0 0.0 l -19.27002 18.429993 l -20.210022 16.48999 l -21.149963 14.549988 l -22.090027 12.610046 l -23.029968 10.669983 l -23.970032 8.72998 l -24.909973 6.789978 l -25.850037 4.8500366 l -26.789978 2.9099731 l 0.0 0.0 l -30.970032 -1.3699951 l -30.109985 -4.1099854 l -29.25 -6.8499756 l -28.389984 -9.590027 l -27.529999 -12.330017 l -26.670013 -15.070007 l -25.809998 -17.809998 l -24.950012 -20.549988 l -24.089996 -23.289978 l -7.6999817 0.0 l -7.700012 0.0 l -7.6999817 0.0 l -7.700012 0.0 l -7.700012 0.0 l -7.6999817 0.0 l -7.7029114 0.00091552734 l -42.130585 12.57312 l -42.918396 -58.907776 l 0.0 0.0 l -27.102173 -75.9823 l 0.0 0.0 l 0.59614563 1.9385376 l 84.397415 188.14508 l -0.5543213 -0.85076904 l 53.214813 95.483154 l 24.300018 81.20001 l 24.299988 81.19995 l 24.299988 81.20007 l 24.300018 81.19995 l 24.299988 81.20007 l 24.299988 81.19995 l 24.300018 81.19995 l 24.299988 81.20007 l 63.799988 0.0 l 63.799988 0.0 l 63.80005 0.0 l 94.35565 19.49231 l 0.0 0.0 l -5.0669556 3.8081055 l 97.22058 -72.74231 l 0.0 0.0 l 22.633545 -16.943604 l 0.0 0.0 l -71.78711 55.06787 l 0.0 0.0 l 84.211365 -119.83557 l 0.0 0.0 l 5.2716675 14.805298 l 92.161194 116.3479 l 63.80005 0.0 l 63.799927 0.0 l 0.0 -21.800049 l 0.0 -21.800049 l 0.0 -21.799927 l 0.0 -21.800049 l 0.0 -21.799927 l 0.0 -21.800049 l 0.0 -21.799927 l 0.0 -21.800049 l 0.0 -21.800049 l 0.0 -21.799927 " /> </g> </svg>