<?xml version="1.0" standalone="no"?><!DOCTYPE svg PUBLIC "-//W3C//DTD SVG 1.1//EN" "http://www.w3.org/Graphics/SVG/1.1/DTD/svg11.dtd" ><svg xmlns="http://www.w3.org/2000/svg" xmlns:xlink="http://www.w3.org/1999/xlink" version="1.1" viewBox="-10 0 692 1000"><g transform="matrix(1 0 0 -1 0 800)"><path stroke="black" fill="none" d="M 901.2005 1369.5992 l -36.900574 -50.197266 l -36.918457 -50.223755 l -36.8761 -50.16736 l -110.709656 -150.60901 l -73.79669 -100.40021 l 0.0 0.0 l 6.1035156e-05 0.0 l 0.0 0.0 l 5.871887 0.77490234 l 5.831238 0.7529907 l 5.5998535 0.7059326 l 5.1724854 0.6357422 l 19.798279 2.2538452 l 4.6749268 0.4786377 l 0.0 0.0 l 0.026489258 0.0024414062 l 3.2679443 0.30212402 l -12.711365 -1.2932129 l -4.9036255 -0.54870605 l -4.793396 -0.55493164 l 119.7475 197.2663 l -36.876648 -50.168335 l -39.3443 -143.22357 l -2.5266113 -0.11663818 l -3.2612305 -0.18157959 l 9.138306 0.41760254 l 2.505188 0.05633545 l 0.00018310547 0.0 l 0.0 0.0 l -6.1035156e-05 0.0 l -22.42987 -1.257019 l 6.83197 0.52423096 l -2.9036865 -0.21148682 l -21.81366 43.57611 l 113.42114 -48.38501 l -35.981506 4.309387 l 71.078 -11.514404 l 34.056763 -10.088013 l 32.9859 -12.950623 l 32.047607 -15.873291 l 30.898926 -18.677002 l 29.972107 -21.61267 l 28.928894 -24.480164 l 0.0 0.0 l 0.0 0.0 l 0.0 0.0 l 25.840332 -28.980713 l 23.11969 -30.140442 l 20.399536 -31.300415 l 32.63318 -66.0625 l -14.948608 33.594604 l 27.193848 -68.391174 l 9.521973 -35.942383 l 6.79834 -37.09204 l 4.081665 -38.264893 l 0.0 0.0 l 0.0 0.0 l 0.0 0.0 l -1.5194092 -41.783386 l -4.563843 -40.61679 l -7.602051 -39.41794 l -10.63208 -38.17209 l -13.690796 -37.02664 l -16.70752 -35.77362 l -19.77539 -34.625244 l -22.783264 -33.375717 l -25.845581 -32.208603 l 0.0 0.0 l 0.0 0.0 l 0.0 0.0 l -30.811768 -28.690262 l -32.08185 -25.705902 l -33.17566 -22.599442 l -70.16388 -36.246277 l 35.66382 16.59774 l -110.70264 -40.760666 l 38.101868 10.562149 l -77.47034 -18.115746 l -40.56958 -4.5315933 l 0.0 0.0 l 0.0 0.0 l 0.0 0.0 l -41.499207 1.4921875 l -40.410522 4.4667206 l -39.409363 7.45092 l -38.361145 10.429596 l -73.58255 29.792664 l 36.25348 -16.377975 l -71.52695 35.766296 l -34.174866 22.333633 l -62.60376 55.670258 l 29.434875 -30.334305 l 0.0 0.0 l 0.0 0.0 l 0.0 0.0 l -79.08095 94.40202 l -20.096786 33.561035 l 43.371094 -66.153076 l -60.445892 100.94028 l -32.555206 110.91632 l -4.6422577 39.083435 l 0.0 0.0 l 0.0 0.0 l 0.0 0.0 l 6.0327606 74.019196 l -4.519882 -37.176514 l 10.888748 -114.04813 l 10.852081 -36.942047 l 50.745285 381.1242 l -19.665054 -39.518616 l -16.572647 -38.93219 l -24.168243 -76.7359 l 10.563568 38.1167 l 98.14131 197.29419 l -25.652252 -40.312134 l 560.2393 758.2399 l -17.049377 12.762085 l -17.120361 12.815308 l 85.5238 -64.01782 l 17.054321 -12.765869 l 17.14386 -12.832764 l 17.051208 -12.76355 l -68.40613 51.204956 l -17.052979 12.764648 l 82.78467 -139.77454 l 36.80078 50.257935 l -16.955017 12.692139 " /> </g> </svg>