<?xml version="1.0" standalone="no"?><!DOCTYPE svg PUBLIC "-//W3C//DTD SVG 1.1//EN" "http://www.w3.org/Graphics/SVG/1.1/DTD/svg11.dtd" ><svg xmlns="http://www.w3.org/2000/svg" xmlns:xlink="http://www.w3.org/1999/xlink" version="1.1" viewBox="-10 0 692 1000"><g transform="matrix(1 0 0 -1 0 800)"><path stroke="black" fill="none" d="M 1077.0 1326.0 l -47.599976 0.0 l -47.600037 0.0 l -70.93451 30.829834 l -40.033997 -35.496704 l -68.528564 -82.7572 l 0.0 0.0 l -10.902893 87.42407 l -47.600037 0.0 l -47.599976 0.0 l -47.599976 0.0 l -47.600037 0.0 l -7.5999756 -25.599976 l -7.6000366 -25.599976 l -7.5999756 -25.600098 l -7.5999756 -25.599976 l -7.6000366 -25.599976 l -7.5999756 -25.599976 l -7.6000366 -25.599976 l -7.5999756 -25.600098 l -7.5999756 -25.599976 l -7.6000366 -25.599976 l 0.0 0.0 l 3.3850098 0.39001465 l 3.3549805 0.36999512 l 3.3250122 0.3499756 l 3.295044 0.32995605 l 3.2649536 0.3100586 l 3.2350464 0.29003906 l 3.204956 0.26989746 l 3.1749878 0.25 l 3.1450195 0.23010254 l 0.0 0.0 l 3.0750122 0.1899414 l 3.0250244 0.17004395 l 2.9749756 0.15002441 l 2.9249878 0.13000488 l 2.875 0.10998535 l 2.8250122 0.08996582 l 2.7750244 0.06994629 l 2.7249756 0.050048828 l 2.6749878 0.030029297 l 0.0 0.0 l 83.32837 -4.2493896 l -26.480164 -97.58612 l 0.0 0.0 l 86.48511 152.03375 l 0.0 0.0 l -63.11914 -149.75488 l 0.0 0.0 l 124.53583 61.55664 l 16.013123 -70.424194 l 0.0 0.0 l 54.546875 33.944153 l 12.0946045 -59.851624 l 0.0 0.0 l 51.985413 11.211609 l 0.0 0.0 l 9.32782 -41.3808 l 28.397705 -24.865784 l 24.074585 -26.05188 l 0.0 0.0 l 26.545044 -32.428284 l 21.02008 -32.398254 l 18.247192 -33.71631 l 21.834717 -34.03839 l 0.0 0.0 l 14.99646 -61.942017 l 17.87854 -41.682617 l 0.0 0.0 l -0.19177246 -0.8206177 l 11.513306 -73.50812 l 0.0 0.0 l -56.653687 -31.976929 l 34.530518 -42.66858 l -2.94104 -66.16501 l 0.0 0.0 l -27.799194 -70.57419 l 0.0 0.0 l -56.270264 11.727783 l 15.24408 -80.9935 l 0.0 0.0 l -30.455688 -39.434784 l 0.0 0.0 l -38.315613 -34.64543 l 1.1235962 0.18283081 l -55.7323 -28.168777 l -34.664124 18.479675 l -10.652344 -57.48278 l 0.0 0.0 l -65.147644 13.242775 l -8.523865 -42.854126 l 0.0 0.0 l -68.25665 -9.513596 l -39.14691 -11.172905 l 0.0 0.0 l -70.4245 3.84523 l 0.0 0.0 l -44.925964 6.665222 l 0.012023926 -0.0022735596 l -44.739502 8.220924 l -45.58539 18.623749 l 0.0 0.0 l -86.76346 46.33696 l 0.0 0.0 l -35.69577 -29.369186 l -9.635132 65.283936 l 0.0 0.0 l -64.193726 74.8871 l 0.0 0.0 l -67.47113 -45.131027 l -41.90001 43.199997 l -39.299995 48.95999 l 17.599998 14.899994 l 17.600006 14.900024 l 50.607727 11.548309 l -22.174927 176.87686 l 0.0 0.0 l 19.861954 -134.87494 l 0.0 0.0 l 22.10524 6.0497437 l 17.600006 14.899994 l 17.600006 14.900024 l 17.600006 14.899994 l 17.599976 14.899994 l 0.0 0.0 l 14.610016 -24.070007 l 14.630005 -22.609985 l 14.649994 -21.149994 l 14.669983 -19.690002 l 14.690002 -18.230011 l 14.710022 -16.769989 l 14.72998 -15.309998 l 14.75 -13.850006 l 14.77002 -12.390015 l 0.0 0.0 l 15.129974 -9.5 l 15.790009 -8.5 l 16.450012 -7.5 l 17.109985 -6.5 l 17.77002 -5.5 l 18.429993 -4.5 l 19.090027 -3.5 l 19.75 -2.5 l 20.409973 -1.5 l 0.0 0.0 l 27.549988 0.980011 l 26.650024 2.9400024 l 25.75 4.899994 l 24.849976 6.8599854 l 23.950012 8.820007 l 23.049988 10.779999 l 22.150024 12.740021 l 21.25 14.699982 l 20.349976 16.660004 l 0.0 0.0 l 18.049988 20.630005 l 16.150024 21.48999 l 14.25 22.350006 l 12.349976 23.209991 l 10.450012 24.070007 l 8.549988 24.929993 l 6.6500244 25.790009 l 4.75 26.650024 l 2.8499756 27.509949 l 0.0 0.0 l -0.94000244 29.059998 l -2.8200073 27.980042 l -4.699951 26.899963 l -6.580017 25.820007 l -8.460022 24.73999 l -10.339966 23.660034 l -12.220032 22.580017 l -14.099976 21.5 l -15.97998 20.419983 l 0.0 0.0 l -19.27002 18.429993 l -20.210022 16.48999 l -21.149963 14.549988 l -22.090027 12.610046 l -23.029968 10.669983 l -23.970032 8.72998 l -24.909973 6.789978 l -25.850037 4.8500366 l -26.789978 2.9099731 l 0.0 0.0 l -30.970032 -1.3699951 l -30.109985 -4.1099854 l -29.25 -6.8499756 l -28.389984 -9.590027 l -27.529999 -12.330017 l -26.670013 -15.070007 l -25.809998 -17.809998 l -24.950012 -20.549988 l -24.089996 -23.289978 l -7.6999817 0.0 l -7.700012 0.0 l -7.6999817 0.0 l -7.700012 0.0 l -7.700012 0.0 l -7.6999817 0.0 l -7.700012 0.0 l -7.7151184 0.005554199 l -36.677704 12.557556 l -43.874496 -65.99689 l 0.0 0.0 l 62.84111 121.486145 l 0.0 0.0 l 50.92621 94.347595 l 24.300018 81.20001 l 24.299988 81.19995 l 24.299988 81.20007 l 24.300018 81.19995 l 24.299988 81.20007 l 24.299988 81.19995 l 24.300018 81.19995 l 24.299988 81.20007 l 63.799988 0.0 l 63.799988 0.0 l 63.80005 0.0 l 88.71741 22.690186 l 0.0 0.0 l 87.88861 -64.588135 l 0.0 0.0 l -26.974854 35.611816 l 67.16467 -81.729614 l 0.0 0.0 l 102.2041 88.01575 l 63.80005 0.0 l 63.799927 0.0 l 0.0 -21.800049 l 0.0 -21.800049 l 0.0 -21.799927 l 0.0 -21.800049 l 0.0 -21.799927 l 0.0 -21.800049 l 0.0 -21.799927 l 0.0 -21.800049 l 0.0 -21.800049 l 0.0 -21.799927 " /> </g> </svg>