<?xml version="1.0" standalone="no"?><!DOCTYPE svg PUBLIC "-//W3C//DTD SVG 1.1//EN" "http://www.w3.org/Graphics/SVG/1.1/DTD/svg11.dtd" ><svg xmlns="http://www.w3.org/2000/svg" xmlns:xlink="http://www.w3.org/1999/xlink" version="1.1" viewBox="-10 0 692 1000"><g transform="matrix(1 0 0 -1 0 800)"><path stroke="black" fill="none" d="M 901.20013 1369.5997 l -36.900024 -50.199707 l -36.90155 -50.202026 l -36.89801 -50.197266 l -110.700806 -150.60071 l -73.79974 -100.400024 l 0.0 0.0 l 0.0 0.0 l 0.0 0.0 l 5.9067383 0.779541 l 5.7387085 0.7411499 l 5.5542603 0.7005005 l 5.3530884 0.65789795 l 19.690125 2.241211 l 4.468811 0.4598999 l 0.0 0.0 l 6.1035156e-05 0.0 l 0.00018310547 0.0 l 4.0585938 0.3751831 l -13.185547 -1.3359375 l -4.8363037 -0.54071045 l -4.991394 -0.57788086 l 119.84119 197.29712 l -36.89801 -50.197266 l -39.02954 -143.20209 l -2.9868164 -0.13793945 l -3.2144165 -0.18017578 l 9.094177 0.4197998 l 2.656067 0.059692383 l 0.0 0.0 l 0.0 0.0 l 0.0 0.0 l -22.466736 -1.2597656 l 7.278137 0.5569458 l -3.5128784 -0.25585938 l -21.618347 43.59796 l 113.474976 -48.39868 l -36.062378 4.319092 l 71.116394 -11.519592 l 34.032227 -10.080627 l 33.007935 -12.9592285 l 31.994934 -15.842834 l 30.963928 -18.716309 l 29.951904 -21.601135 l 28.929932 -24.47998 l 0.0 0.0 l 0.0 0.0 l 0.0 0.0 l 25.840027 -28.980042 l 23.119995 -30.140076 l 20.400024 -31.299988 l 32.639282 -66.07855 l -14.958984 33.61786 l 27.199463 -68.39923 l 9.520142 -35.940186 l 6.7999268 -37.099365 l 4.080078 -38.260376 l 0.0 0.0 l 0.0 0.0 l 0.0 0.0 l -1.5200195 -41.798645 l -4.5601807 -40.60138 l -7.6002197 -39.40155 l -10.639282 -38.1976 l -13.68103 -37.00229 l -16.718872 -35.79773 l -19.761353 -34.602173 l -22.798523 -33.39792 l -25.840454 -32.200745 l 0.0 0.0 l 0.0 0.0 l 0.0 0.0 l -30.81018 -28.690018 l -32.034424 -25.67308 l -33.243652 -22.64566 l -70.16028 -36.24054 l 35.687683 16.608948 l -110.72766 -40.769203 l 38.127625 10.569328 l -77.47919 -18.119637 l -40.569946 -4.530136 l 0.0 0.0 l 0.0 0.0 l 0.0 0.0 l -41.48163 1.4901962 l -40.4375 4.4697113 l -39.400818 7.450081 l -38.360077 10.42997 l -73.59851 29.799362 l 36.27774 -16.38897 l -71.52063 35.76055 l -34.197815 22.348587 l -62.609497 55.67917 l 29.44873 -30.348663 l 0.0 0.0 l 0.0 0.0 l 0.0 0.0 l -79.05266 94.35448 l -20.145432 33.642365 l 43.397522 -66.195984 l -60.449646 100.94919 l -32.550446 110.85568 l -4.649338 39.144287 l 0.0 0.0 l 0.0 0.0 l 0.0 0.0 l 6.0393677 74.07474 l -4.529129 -37.252808 l 10.889893 -114.0224 l 10.850189 -36.94931 l 50.740448 381.1295 l -19.632996 -39.465027 l -16.606796 -39.012512 l -24.16072 -76.72131 l 10.569443 38.138 l 98.14925 197.2995 l -25.668457 -40.337646 l 560.2674 758.2309 l -17.095703 12.796753 l -17.101746 12.80127 l 85.502075 -64.001465 l 17.09607 -12.797119 l 17.10376 -12.802734 l 17.095825 -12.796997 l -68.40051 51.20056 l -17.096008 12.796875 l 82.798706 -139.79773 l 36.89148 50.204956 l -17.087524 12.7907715 " /> </g> </svg>