<?xml version="1.0" standalone="no"?><!DOCTYPE svg PUBLIC "-//W3C//DTD SVG 1.1//EN" "http://www.w3.org/Graphics/SVG/1.1/DTD/svg11.dtd" ><svg xmlns="http://www.w3.org/2000/svg" xmlns:xlink="http://www.w3.org/1999/xlink" version="1.1" viewBox="-10 0 692 1000"><g transform="matrix(1 0 0 -1 0 800)"><path stroke="black" fill="none" d="M 901.2061 1369.5919 l -36.90674 -50.168213 l -37.115295 -50.475586 l -36.621338 -49.821167 l -110.81244 -150.70496 l -73.72003 -100.396545 l 0.0 0.0 l 0.0009765625 0.00012207031 l 0.040405273 0.0053710938 l 5.38385 0.71051025 l 6.90979 0.8904419 l 6.1310425 0.7698364 l 3.0681152 0.37719727 l 21.058289 2.4013062 l 0.002746582 0.00024414062 l 0.12579346 0.012878418 l 6.9245605 0.6816406 l 0.0 0.0 l -12.774841 -1.3120117 l -5.689148 -0.6411133 l -2.4849243 -0.2876587 l 118.65582 196.90692 l -36.628784 -49.83069 l -41.59778 -143.40936 l -0.061828613 -0.0026855469 l -2.323059 -0.1295166 l 9.639099 0.39276123 l 0.60632324 0.01361084 l 0.032287598 0.0007324219 l 0.0 0.0 l -21.875916 -1.22229 l 0.039855957 0.003112793 l 4.1036987 0.32312012 l -0.039489746 -0.0028686523 l -22.36615 43.446655 l 112.79321 -48.225464 l -35.03827 4.196533 l 70.63074 -11.454407 l 34.341858 -10.174255 l 32.729065 -12.850464 l 32.66205 -16.2276 l 30.140808 -18.219116 l 30.207764 -21.747253 l 28.917053 -24.482178 l 0.0 0.0 l 0.0 0.0 l 0.0 0.0 l 25.843933 -28.988586 l 23.1156 -30.144897 l 20.395386 -31.305237 l 32.560547 -65.87573 l -14.827759 33.32428 l 27.129639 -68.29797 l 9.542847 -35.967224 l 6.7801514 -37.00702 l 4.0996094 -38.318054 l 0.0 0.0 l 0.0 0.0 l 0.0 0.0 l -1.5134277 -41.60553 l -4.6047363 -40.795654 l -7.6241455 -39.609253 l -10.54834 -37.874634 l -13.80481 -37.310516 l -16.575195 -35.49243 l -19.938354 -34.89438 l -22.605713 -33.11705 l -25.905212 -32.30008 l 0.0 0.0 l 0.0 0.0 l 0.0 0.0 l -30.830017 -28.692978 l -32.63434 -26.088486 l -32.383972 -22.060745 l -70.204895 -36.313286 l 35.384705 16.46711 l -110.411316 -40.66117 l 37.802246 10.4785 l -77.367615 -18.07042 l -40.56482 -4.5485306 l 0.0 0.0 l 0.0 0.0 l 0.0 0.0 l -41.703857 1.5154266 l -40.09674 4.431862 l -39.508667 7.460678 l -38.37372 10.42524 l -73.39633 29.714554 l 35.970673 -16.249802 l -71.60077 35.83333 l -33.906982 22.15924 l -62.53708 55.566406 l 29.273376 -30.16684 l 0.0 0.0 l -3.0517578e-05 0.0 l 0.0 0.0 l -79.41054 94.956085 l -19.529755 32.612854 l 43.06273 -65.65253 l -60.40178 100.83649 l -32.610718 111.62308 l -4.5596313 38.372498 l 0.0 0.0 l 0.0 -3.0517578e-05 l 1.5258789e-05 -3.0517578e-05 l 5.9555206 73.37268 l -4.4120483 -36.286804 l 10.87532 -114.34778 l 10.874268 -36.8573 l 50.80165 381.06238 l -20.038635 -40.14337 l -16.174576 -37.995728 l -24.25618 -76.906006 l 10.495178 37.868164 l 98.04878 197.2326 l -25.46344 -40.015015 l 559.91254 758.3458 l -16.509827 12.358032 l -17.337952 12.978149 l 85.77777 -64.20776 l 16.567871 -12.401733 l 17.6109 -13.182373 l 16.531616 -12.374634 l -68.47223 51.257202 l -16.55133 12.388062 l 82.62195 -139.50403 l 35.74286 50.87622 l -15.410034 11.54248 " /> </g> </svg>