<?xml version="1.0" standalone="no"?><!DOCTYPE svg PUBLIC "-//W3C//DTD SVG 1.1//EN" "http://www.w3.org/Graphics/SVG/1.1/DTD/svg11.dtd" ><svg xmlns="http://www.w3.org/2000/svg" xmlns:xlink="http://www.w3.org/1999/xlink" version="1.1" viewBox="-10 0 692 1000"><g transform="matrix(1 0 0 -1 0 800)"><path stroke="black" fill="none" d="M 901.2018 1369.5977 l -36.901978 -50.190674 l -36.963074 -50.28076 l -36.81836 -50.08899 l -110.73297 -150.63074 l -73.78589 -100.40027 l 0.0 0.0 l 6.1035156e-05 6.1035156e-05 l 0.00024414062 0.0 l 5.7770386 0.76239014 l 6.0755615 0.78411865 l 5.720154 0.720459 l 4.695801 0.57714844 l 20.08368 2.2872314 l 0.0045776367 0.00048828125 l 7.128418 0.70458984 l 0.0 0.0 l 0.20776367 0.019165039 l -12.3046875 -1.2585449 l -5.081604 -0.5696411 l -4.2702637 -0.49432373 l 119.50006 197.18488 l -36.820496 -50.09192 l -40.174805 -143.28033 l -1.3172607 -0.060668945 l -3.3795166 -0.1852417 l 9.254456 0.41204834 l 2.0442505 0.045959473 l 0.04248047 0.0009765625 l 0.0010986328 0.0 l 0.0 0.0 l -22.312622 -1.2493286 l 5.6539307 0.43792725 l -1.3018799 -0.0947876 l -22.322754 43.5188 l 113.27887 -48.348877 l -35.767822 4.2838135 l 70.976685 -11.500793 l 34.121338 -10.107544 l 32.927673 -12.9279785 l 32.18683 -15.953491 l 30.727173 -18.573303 l 30.025513 -21.643127 l 28.926208 -24.480652 l 0.0 0.0 l 0.0 0.0 l 0.0 0.0 l 25.841125 -28.982483 l 23.118774 -30.14148 l 20.398682 -31.301514 l 32.616577 -66.0202 l -14.921143 33.533386 l 27.179321 -68.370056 l 9.526733 -35.947998 l 6.7941895 -37.072815 l 4.0856934 -38.276855 l 0.0 0.0 l 0.0 0.0 l 0.0 0.0 l -1.5180664 -41.743164 l -4.57312 -40.657288 l -7.6070557 -39.461273 l -10.613159 -38.104706 l -13.716553 -37.090973 l -16.677612 -35.7099 l -19.812256 -34.68622 l -22.743042 -33.317123 l -25.85907 -32.229324 l 0.0 0.0 l 0.0 0.0 l 0.0 0.0 l -30.815918 -28.690872 l -32.20697 -25.792572 l -32.996338 -22.477402 l -70.17316 -36.261467 l 35.600586 16.568153 l -110.63666 -40.73813 l 38.033997 10.543198 l -77.44708 -18.105476 l -40.56848 -4.535431 l 0.0 0.0 l 0.0 0.0 l 0.0 0.0 l -41.545532 1.4974518 l -40.339478 4.458824 l -39.431824 7.4531326 l -38.364044 10.428604 l -73.540344 29.774971 l 36.189392 -16.348938 l -71.54367 35.78148 l -34.114166 22.294128 l -62.588654 55.64673 l 29.398315 -30.296371 l 0.0 0.0 l 0.0 0.0 l 0.0 0.0 l -79.15564 94.52756 l -19.968323 33.346222 l 43.30121 -66.03967 l -60.435883 100.91678 l -32.56778 111.076416 l -4.6235657 38.922577 l 0.0 0.0 l 0.0 0.0 l 0.0 0.0 l 6.0152893 73.87253 l -4.495453 -36.974976 l 10.885712 -114.116 l 10.857101 -36.92285 l 50.758057 381.1102 l -19.74968 -39.660156 l -16.482468 -38.72003 l -24.188171 -76.774475 l 10.54808 38.060425 l 98.12036 197.28027 l -25.609497 -40.244873 l 560.1653 758.2639 l -16.927124 12.670532 l -17.169678 12.852173 l 85.58136 -64.06079 l 16.944092 -12.68335 l 17.249695 -12.911987 l 16.933472 -12.675415 l -68.42108 51.216797 l -16.939331 12.679321 l 82.7478 -139.71326 l 36.561096 50.39795 l -16.60498 12.431763 " /> </g> </svg>