<?xml version="1.0" standalone="no"?><!DOCTYPE svg PUBLIC "-//W3C//DTD SVG 1.1//EN" "http://www.w3.org/Graphics/SVG/1.1/DTD/svg11.dtd" ><svg xmlns="http://www.w3.org/2000/svg" xmlns:xlink="http://www.w3.org/1999/xlink" version="1.1" viewBox="-10 0 692 1000"><g transform="matrix(1 0 0 -1 0 800)"><path stroke="black" fill="none" d="M 901.2711 1369.506 l -36.97876 -49.830566 l -39.410156 -53.411743 l -33.651123 -45.7843 l -112.01019 -151.8241 l -72.11548 -100.26001 l 0.0 0.0 l 0.19030762 0.025146484 l 18.791016 2.4018555 l 0.4465332 0.055236816 l 0.0 0.0 l 27.812622 3.0857544 l 0.0 0.0 l 0.18774414 0.018249512 l -18.941406 -2.0231323 l -0.328125 -0.03765869 l 0.0 0.0 l 115.8031 193.86053 l -33.738464 -45.8938 l -41.593384 -144.35614 l 0.0 0.0 l 6.908325 0.24230957 l 0.0 0.0 l -17.755615 -0.90838623 l 0.0 0.0 l 0.19885254 0.013916016 l -22.058167 42.43036 l 0.022094727 -0.082092285 l 105.45172 -46.282776 l -24.043152 2.8808594 l 65.41608 -10.755493 l 37.666016 -11.179138 l 29.734924 -11.682678 l 39.82422 -20.357971 l 21.304138 -12.881775 l 32.9541 -23.316223 l 28.78009 -24.505798 l 0.0 0.0 l 0.0 0.0 l 0.0 0.0 l 25.88562 -29.080322 l 23.067322 -30.196716 l 20.345825 -31.360718 l 31.715698 -63.69879 l -13.418945 30.172974 l 26.380981 -67.21155 l 9.785767 -36.256836 l 6.5686035 -36.01593 l 4.305786 -38.996338 l 0.0 0.0 l -0.00012207031 -0.00091552734 l -0.0010986328 -0.02709961 l -1.4390869 -39.44568 l -5.081787 -42.880768 l -7.8828125 -41.8396 l -9.571411 -34.4068 l -15.1345215 -40.61969 l -15.0321045 -32.21515 l -21.83899 -38.03125 l -20.534607 -30.101715 l -26.602661 -33.363953 l 0.0 0.0 l 0.0 3.0517578e-05 l -6.1035156e-05 6.1035156e-05 l -31.040894 -28.72731 l -39.075195 -30.548325 l -23.154602 -15.781143 l -70.68396 -37.094376 l 32.132324 14.944351 l -107.015686 -39.501366 l 34.30957 9.5034485 l -76.17023 -17.542007 l -40.51007 -4.7449036 l 0.0 0.0 l 0.0 1.5258789e-05 l 0.0 1.5258789e-05 l -44.088867 1.7851715 l -36.439148 4.0255356 l -40.6662 7.5744095 l -38.51999 10.374435 l -71.22586 28.804092 l 32.674072 -14.755768 l -72.46094 36.6148 l -30.784698 20.126297 l -61.759827 54.35576 l 27.378326 -28.20224 l 0.0 0.0 l -0.00012207031 0.0001373291 l -0.0008239746 0.0008087158 l -83.239456 101.4012 l -12.920029 21.560425 l 39.468323 -59.818024 l -59.887695 99.62659 l -33.257614 119.86157 l -3.5737152 29.907898 l 0.0 0.0 l 0.000579834 -0.004486084 l 5.031845 66.017975 l -3.155075 -25.915771 l 10.718994 -117.841034 l 11.1328125 -35.869568 l 51.45871 380.34195 l -24.393524 -47.42627 l -11.534348 -27.079529 l -25.281113 -78.88861 l 0.07728577 0.25372314 l 9.620773 34.717407 l 96.970215 196.51465 l -23.262268 -36.551636 l 556.1025 759.57947 l -0.24316406 0.18200684 l -9.976318 7.467163 l -19.87445 14.875488 l 88.73816 -66.42151 l 10.896851 -8.156738 l 23.055786 -17.258057 l 10.474731 -7.8408203 l -69.24255 51.866455 l -10.704468 7.9976807 l 80.7251 -136.34985 l 0.05432129 0.14782715 l 23.356628 57.93445 l -0.3828125 0.31225586 " /> </g> </svg>