<?xml version="1.0" standalone="no"?><!DOCTYPE svg PUBLIC "-//W3C//DTD SVG 1.1//EN" "http://www.w3.org/Graphics/SVG/1.1/DTD/svg11.dtd" ><svg xmlns="http://www.w3.org/2000/svg" xmlns:xlink="http://www.w3.org/1999/xlink" version="1.1" viewBox="-10 0 692 1000"><g transform="matrix(1 0 0 -1 0 800)"><path stroke="black" fill="none" d="M 221.1483 1544.0 l 114.88098 0.0 l 115.204834 0.0 l 115.03232 0.0 l 115.12372 0.00061035156 l 115.101074 0.004638672 l 115.091064 -0.0057373047 l 115.09943 0.00036621094 l 115.152466 -0.00061035156 l 115.03259 0.00024414062 l -97.38025 -159.69153 l -443.628 -58.307983 l 75.71301 0.0 l 76.23212 0.0 l -380.95435 0.0 l -76.1532 0.0 l 228.55267 0.0 l -76.15436 0.0 l -457.2109 21.765747 l 0.0 -21.743286 l 0.0 43.611816 l 0.0 21.743164 l 0.0 21.842896 l 0.0 21.750854 l 0.0 87.345215 l 0.0 21.628906 l 0.0 -43.684692 l 0.0 -22.0531 l 0.0 -21.270996 l 76.23564 -130.93652 l 76.15492 0.0 l 76.20355 0.0 l 727.6008 -101.40613 l -292.20758 -479.1142 l -97.38324 -159.67255 l 194.79626 319.3932 l 97.398865 159.68982 l -486.9867 -798.4697 l 97.38324 159.67258 l -194.79547 -319.3923 l -208.29955 -89.56438 l 18.361496 -11.612403 l 18.533752 -11.721348 l -55.5271 35.117138 l -18.456451 11.672461 l -18.54187 11.726479 l -18.452972 11.670258 l 129.4881 -81.89248 l 18.487335 -11.691984 l 36.97702 -23.385471 l -18.45465 11.671322 " /> </g> </svg>