<?xml version="1.0" standalone="no"?><!DOCTYPE svg PUBLIC "-//W3C//DTD SVG 1.1//EN" "http://www.w3.org/Graphics/SVG/1.1/DTD/svg11.dtd" ><svg xmlns="http://www.w3.org/2000/svg" xmlns:xlink="http://www.w3.org/1999/xlink" version="1.1" viewBox="-10 0 692 1000"><g transform="matrix(1 0 0 -1 0 800)"><path stroke="black" fill="none" d="M 221.1483 1544.0 l 115.03584 0.0 l 115.13071 0.0 l 115.08017 0.0 l 115.10693 0.00012207031 l 115.10034 0.0014648438 l 115.09735 -0.0017089844 l 115.099915 0.00012207031 l 115.11536 -0.00024414062 l 115.0802 0.00012207031 l -97.39429 -159.69751 l -443.891 -58.30237 l 76.05737 0.0 l 76.20941 0.0 l -380.98663 0.0 l -76.18628 0.0 l 228.58612 0.0 l -76.186646 0.0 l -457.20316 21.79004 l 0.0 -21.783447 l 0.0 43.603394 l 0.0 21.783447 l 0.0 21.8125 l 0.0 21.785645 l 0.0 87.24243 l 0.0 21.75 l 0.0 -43.624756 l 0.0 -21.874268 l 0.0 -21.64502 l 76.210434 -130.83997 l 76.18678 0.0 l 76.20105 0.0 l 727.6002 -101.401855 l -292.2022 -479.10413 l -97.39508 -159.69196 l 194.79895 319.398 l 97.3996 159.69702 l -486.99606 -798.4911 l 97.39511 159.69196 l -194.7987 -319.39774 l -208.37056 -89.51885 l 18.459427 -11.674343 l 18.509888 -11.706253 l -55.507935 35.10502 l -18.487244 11.691935 l -18.512268 11.707756 l -18.486229 11.691288 l 129.49652 -81.8978 l 18.496292 -11.697651 l 36.99327 -23.395744 l -18.486725 11.691601 " /> </g> </svg>