<?xml version="1.0" standalone="no"?><!DOCTYPE svg PUBLIC "-//W3C//DTD SVG 1.1//EN" "http://www.w3.org/Graphics/SVG/1.1/DTD/svg11.dtd" ><svg xmlns="http://www.w3.org/2000/svg" xmlns:xlink="http://www.w3.org/1999/xlink" version="1.1" viewBox="-10 0 692 1000"><g transform="matrix(1 0 0 -1 0 800)"><path stroke="black" fill="none" d="M 428.79462 1544.0515 l 0.0 0.0 l 265.7174 40.80249 l 17.100037 -12.799927 l 17.099976 -12.800049 l 17.100037 -12.799927 l 17.099976 -12.800049 l 103.15051 8.044067 l 0.0 0.0 l -68.9505 -33.644043 l 17.099976 -12.800049 l 17.100037 -12.799927 l 216.16016 -53.58435 l 0.0 0.0 l -235.9602 -9.415649 l -121.13342 -90.059814 l 0.0 0.0 l -710.8636 115.09302 l 0.0 0.0 l 225.4435 -118.86914 l 0.0 0.0 l 638.47314 -214.76941 l 0.0 0.0 l -216.41962 57.605347 l -36.899963 -50.200073 l -36.900024 -50.19995 l -36.900024 -50.200012 l -36.899963 -50.200012 l 0.0 0.0 l 5.909973 0.77996826 l 5.7300415 0.74005127 l 5.549988 0.6999512 l 5.369995 0.6600342 l 5.1900024 0.6199951 l 5.01001 0.5800171 l 4.829956 0.539978 l 4.6500244 0.5 l 4.4699707 0.46002197 l 0.0 0.0 l 4.1100464 0.37994385 l 3.9299927 0.34002686 l 3.75 0.2999878 l 3.5700073 0.26000977 l 3.3899536 0.22003174 l 3.210022 0.17999268 l 3.0300293 0.13995361 l 2.8499756 0.10003662 l 2.669983 0.05999756 l 0.0 0.0 l 37.090027 -1.4400024 l -20.350647 -322.3031 l 0.0 0.0 l 91.47064 310.78308 l 34.02997 -10.079956 l 33.01001 -12.960022 l 15.684143 -28.935608 l 47.27588 -5.6243896 l 29.950012 -21.600037 l 28.929993 -24.47998 l 0.0 0.0 l 25.839966 -28.97998 l 23.120056 -30.140015 l 20.400024 -31.299988 l 17.679932 -32.460022 l 14.959961 -33.619995 l 12.23999 -34.77997 l 9.52002 -35.940002 l 6.800049 -37.100037 l 4.079956 -38.25995 l 0.0 0.0 l -1.5200195 -41.80005 l -4.5599365 -40.599976 l -7.5999756 -39.399994 l -10.640015 -38.200012 l -13.680054 -37.0 l -16.71997 -35.799988 l -19.76001 -34.600006 l -22.799988 -33.399994 l -25.839966 -32.200012 l 0.0 0.0 l -30.810059 -28.690002 l -32.02997 -25.669998 l -33.25 -22.649994 l -34.47003 -19.629997 l -35.68994 -16.61 l -36.910034 -13.590004 l -38.130005 -10.57 l -39.349976 -7.550003 l -40.570007 -4.529999 l 0.0 0.0 l -41.47998 1.4900055 l -40.440002 4.4699936 l -39.400024 7.4500046 l -38.359985 10.43 l 35.373596 268.31232 l 0.0 0.0 l -108.9736 -238.51233 l -50.58423 -9.02739 l -18.855774 50.7474 l -239.88647 -122.129005 l 0.0 0.0 l 124.98172 -81.098816 l 0.0 0.0 l 52.29474 258.9078 l -26.349976 31.449997 l -23.250015 32.55002 l -20.149994 33.649994 l -17.050003 34.75 l -13.949997 35.850006 l -10.850006 36.94998 l -7.75 38.05002 l -4.649994 39.149994 l 0.0 0.0 l 1.5099945 36.819977 l 4.529999 37.26001 l 7.550003 37.700012 l 10.569992 38.140015 l 13.590012 38.579956 l 16.61 39.02002 l 19.62999 39.460022 l 22.65001 39.899963 l 25.669983 40.340027 " /> </g> </svg>