<?xml version="1.0" standalone="no"?><!DOCTYPE svg PUBLIC "-//W3C//DTD SVG 1.1//EN" "http://www.w3.org/Graphics/SVG/1.1/DTD/svg11.dtd" ><svg xmlns="http://www.w3.org/2000/svg" xmlns:xlink="http://www.w3.org/1999/xlink" version="1.1" viewBox="-10 0 692 1000"><g transform="matrix(1 0 0 -1 0 800)"><path stroke="black" fill="none" d="M 227.65753 1544.0 l 85.34125 0.0 l 129.34485 0.0 l 105.90222 0.0 l 118.322815 0.08874512 l 115.24542 0.62475586 l 113.89136 -0.78723145 l 115.012085 0.0592041 l 122.23242 -0.08105469 l 105.948364 0.022705078 l -94.7074 -158.5459 l -393.456 -59.38025 l 10.026733 -0.00048828125 l 80.55621 0.0045166016 l -374.7931 -0.0043945312 l -69.84329 0.0 l 222.16635 -0.00036621094 l -69.99664 -0.00012207031 l -458.68222 17.13147 l -4.5776367e-05 -14.080688 l -7.6293945e-06 45.214233 l -3.0517578e-05 14.074219 l 2.2888184e-05 27.633057 l 7.6293945e-06 0.08081055 l 1.5258789e-05 15.036987 l -9.1552734e-05 106.93982 l 0.0 0.6027832 l 0.0 -57.18274 l 0.0 -17.267456 l 0.0 0.0 l 81.042816 -138.18274 l 70.07611 0.0 l 76.6824 -0.00012207031 l 727.7202 -102.2345 l -293.23987 -481.02393 l -95.116394 -155.96875 l 194.28436 318.46722 l 97.251526 158.3244 l -485.1923 -794.3978 l 95.122406 155.97357 l -194.18457 -318.35345 l -194.75165 -98.2478 l 0.68185425 -0.43122578 l 22.084412 -13.966896 l -0.03503418 0.022156239 l -59.147644 37.40689 l -12.582642 7.957672 l -24.188927 15.297863 l -12.109962 7.6587296 l 127.88336 -80.87759 l 0.3690033 -0.23337173 l 16.409302 -10.377779 l 33.87816 -21.425638 l -12.3377075 7.8027534 " /> </g> </svg>