<?xml version="1.0" standalone="no"?><!DOCTYPE svg PUBLIC "-//W3C//DTD SVG 1.1//EN" "http://www.w3.org/Graphics/SVG/1.1/DTD/svg11.dtd" ><svg xmlns="http://www.w3.org/2000/svg" xmlns:xlink="http://www.w3.org/1999/xlink" version="1.1" viewBox="-10 0 692 1000"><g transform="matrix(1 0 0 -1 0 800)"><path stroke="black" fill="none" d="M 223.02068 1544.0 l 106.38385 0.0 l 119.27222 0.0 l 112.406006 0.0 l 116.043945 0.026000977 l 115.14264 0.1829834 l 114.74597 -0.23059082 l 115.07428 0.017333984 l 117.188965 -0.02368164 l 112.419556 0.006591797 l -96.61133 -159.36194 l -429.19604 -58.616333 l 56.8183 -0.00024414062 l 77.47595 0.0013427734 l -379.18204 -0.0012207031 l -74.338165 0.0 l 226.71564 -0.00012207031 l -74.38312 0.0 l -457.6341 20.432617 l -1.5258789e-05 -19.539062 l 0.0 44.072754 l -7.6293945e-06 19.537231 l 7.6293945e-06 23.5083 l 7.6293945e-06 0.4456787 l 0.0 19.397217 l -3.0517578e-05 92.98169 l 0.0 14.989136 l 0.0 -46.975952 l 0.0 -31.867065 l 0.0 -1.0429688 l 77.61842 -135.9397 l 74.40636 0.0 l 76.34131 0.0 l 727.63513 -101.64453 l -292.50452 -479.66345 l -96.73114 -158.60712 l 194.64899 319.12683 l 97.35651 159.29706 l -486.47052 -797.29846 l 96.73291 158.60855 l -194.61975 -319.09348 l -204.40248 -92.062164 l 12.987579 -8.213775 l 19.843445 -12.549637 l -56.57863 35.78216 l -16.766846 10.603897 l -20.166245 12.753792 l -16.628403 10.516338 l 129.0265 -81.60054 l 17.995728 -11.381083 l 36.085617 -22.821724 l -16.695099 10.558525 " /> </g> </svg>