<?xml version="1.0" standalone="no"?><!DOCTYPE svg PUBLIC "-//W3C//DTD SVG 1.1//EN" "http://www.w3.org/Graphics/SVG/1.1/DTD/svg11.dtd" ><svg xmlns="http://www.w3.org/2000/svg" xmlns:xlink="http://www.w3.org/1999/xlink" version="1.1" viewBox="-10 0 692 1000"><g transform="matrix(1 0 0 -1 0 800)"><path stroke="black" fill="none" d="M 243.48871 1544.0001 l 13.497345 -0.00024414062 l 163.73486 0.0 l 83.69684 -0.00012207031 l 126.103516 0.30297852 l 115.596436 2.1330566 l 110.97345 -2.6875 l 114.799805 0.20202637 l 139.45166 -0.27661133 l 83.85437 0.07751465 l -88.206665 -155.76001 l -363.0074 -61.98413 l 0.0 0.0 l 32.91864 0.009887695 l -359.80844 -0.014770508 l -54.496796 -0.00036621094 l 206.63416 -0.0012207031 l -55.020386 -0.00024414062 l -462.26068 5.8604736 l -2.2888184e-05 -0.36547852 l -0.00016021729 54.032227 l -1.5258789e-05 0.36340332 l 3.8146973e-05 35.01538 l 0.0 0.0 l 3.0517578e-05 0.74450684 l -0.00030517578 112.34985 l 0.0 0.0 l -7.6293945e-06 -68.13452 l 0.0 0.0 l 92.734406 -139.8667 l 55.291718 0.0 l 77.846985 -0.00024414062 l 728.0106 -104.24927 l -295.75024 -485.6687 l -89.60327 -146.96063 l 193.03943 316.21515 l 96.89307 155.0033 l -480.82803 -784.4944 l 89.62369 146.9773 l -192.69873 -315.82697 l -193.54233 -99.292984 l 0.0 0.0 l 20.143738 -12.739546 l -0.008346558 0.0052785873 l -68.065125 43.046585 l -0.5604248 0.35442734 l -35.65966 22.55233 l -0.35932922 0.22724915 l 127.656715 -80.73427 l 0.07131958 -0.04510498 l 12.550476 -7.937334 l 26.341324 -16.6591 l -0.44366455 0.28059006 " /> </g> </svg>