<?xml version="1.0" standalone="no"?><!DOCTYPE svg PUBLIC "-//W3C//DTD SVG 1.1//EN" "http://www.w3.org/Graphics/SVG/1.1/DTD/svg11.dtd" ><svg xmlns="http://www.w3.org/2000/svg" xmlns:xlink="http://www.w3.org/1999/xlink" version="1.1" viewBox="-10 0 692 1000"><g transform="matrix(1 0 0 -1 0 800)"><path stroke="black" fill="none" d="M 320.3054 1544.0044 l 99.54303 -0.041503906 l 0.0 0.0 l 188.97614 3.524414 l 120.88623 24.8656 l 17.099976 -12.800049 l 17.100037 -12.799927 l 32.79773 -5.729004 l 111.6001 2.356079 l -0.029785156 -0.0017089844 l -93.068054 -35.02539 l 17.099976 -12.800049 l 17.100037 -12.799927 l 268.14648 51.352173 l 0.0 0.0 l -49.64441 -106.81946 l -356.27002 -93.28601 l -364.85587 -7.952759 l 0.0 0.0 l 125.30008 -0.059448242 l 0.0 0.0 l -474.40286 50.097168 l 0.0 0.0 l -0.022880554 89.808105 l 0.0 0.0 l 161.87921 -139.94104 l 0.0 0.0 l 34.783386 -0.0018310547 l 732.3878 -134.61267 l -0.080444336 -0.09887695 l -281.5205 -22.485352 l -36.899963 -50.200073 l -36.900024 -50.19995 l -36.900024 -50.200012 l -36.899963 -50.200012 l 0.0 0.0 l 5.909973 0.77996826 l 5.7300415 0.74005127 l 5.549988 0.6999512 l 5.369995 0.6600342 l 5.1900024 0.6199951 l 5.01001 0.5800171 l 4.829956 0.539978 l 4.6500244 0.5 l 4.4699707 0.46002197 l 0.0 0.0 l 4.1100464 0.37994385 l 3.9299927 0.34002686 l 3.75 0.2999878 l 3.5700073 0.26000977 l 3.3899536 0.22003174 l 3.210022 0.17999268 l 3.0300293 0.13995361 l 2.8499756 0.10003662 l 2.669983 0.05999756 l 0.0 0.0 l 37.090027 -1.4400024 l -18.694519 -338.40674 l -6.51416 -11.198914 l 96.328674 338.08563 l 34.02997 -10.079956 l 33.01001 -12.960022 l 10.908264 -32.77124 l 52.051758 -1.7887573 l 39.439392 106.73987 l 19.440613 -152.81989 l 0.0 0.0 l 25.839966 -28.97998 l 23.120056 -30.140015 l 20.400024 -31.299988 l 17.679932 -32.460022 l 14.959961 -33.619995 l 12.23999 -34.77997 l 9.52002 -35.940002 l 6.800049 -37.100037 l 4.079956 -38.25995 l 0.0 0.0 l -1.5200195 -41.80005 l -4.5599365 -40.599976 l -7.5999756 -39.399994 l -10.640015 -38.200012 l -13.680054 -37.0 l -16.71997 -35.799988 l -19.76001 -34.600006 l -22.799988 -33.399994 l -25.839966 -32.200012 l 0.0 0.0 l -30.810059 -28.690002 l -32.02997 -25.669998 l -33.25 -22.649994 l -34.47003 -19.629997 l -35.68994 -16.61 l -36.910034 -13.590004 l -38.130005 -10.57 l -39.349976 -7.550003 l -40.570007 -4.529999 l 0.0 0.0 l -41.47998 1.4900055 l -40.440002 4.4699936 l -39.400024 7.4500046 l -38.359985 10.43 l 34.874695 278.81165 l 6.7525635 11.393311 l -115.227264 -260.40497 l -55.07843 -17.344795 l -14.361572 59.064804 l -167.06468 -170.24155 l 0.0 0.0 l -73.34894 46.39489 l 0.0 0.0 l 136.17848 -86.135086 l 0.0 0.0 l 4.8857727 -3.089817 l 36.73935 268.75156 l -26.349976 31.449997 l -23.250015 32.55002 l -20.149994 33.649994 l -17.050003 34.75 l -13.949997 35.850006 l -10.850006 36.94998 l -7.75 38.05002 l -4.649994 39.149994 l 0.0 0.0 l 1.5099945 36.819977 l 4.529999 37.26001 l 7.550003 37.700012 l 10.569992 38.140015 l 13.590012 38.579956 l 16.61 39.02002 l 19.62999 39.460022 l 22.65001 39.899963 l 25.669983 40.340027 " /> </g> </svg>