<?xml version="1.0" standalone="no"?><!DOCTYPE svg PUBLIC "-//W3C//DTD SVG 1.1//EN" "http://www.w3.org/Graphics/SVG/1.1/DTD/svg11.dtd" ><svg xmlns="http://www.w3.org/2000/svg" xmlns:xlink="http://www.w3.org/1999/xlink" version="1.1" viewBox="-10 0 692 1000"><g transform="matrix(1 0 0 -1 0 800)"><path stroke="black" fill="none" d="M 221.1483 1544.0 l 112.54707 0.0 l 116.32202 0.0 l 114.310974 0.0 l 115.376465 0.0075683594 l 115.11249 0.053588867 l 114.99628 -0.06750488 l 115.09247 0.005126953 l 115.711914 -0.006958008 l 114.31482 0.001953125 l -97.168945 -159.60095 l -439.66406 -58.3927 l 70.523254 -0.00012207031 l 76.57373 0.00048828125 l -380.46756 -0.00036621094 l -75.65466 0.0 l 228.04813 -0.00012207031 l -75.66791 0.0 l -457.32712 21.399536 l 0.0 -21.137817 l 0.0 43.738525 l 0.0 21.137207 l 0.0 22.300293 l 0.0 21.226807 l -7.6293945e-06 88.89343 l 0.0 19.805176 l 0.0 -44.588745 l 0.0 -24.748657 l 0.0 -15.634766 l 76.61545 -132.39099 l 75.67465 0.0 l 76.241394 0.0 l 727.6102 -101.47168 l -292.28912 -479.26495 l -97.2041 -159.37994 l 194.7558 319.32 l 97.38721 159.58197 l -486.8449 -798.1481 l 97.20465 159.38031 l -194.74722 -319.31024 l -207.22917 -90.25044 l 16.885452 -10.678907 l 18.893494 -11.948853 l -55.815933 35.2998 l -17.99237 11.37896 l -18.988022 12.008648 l -17.951828 11.353313 l 129.36131 -81.81229 l 18.35231 -11.60659 l 36.732193 -23.230629 l -17.971375 11.365673 " /> </g> </svg>