<?xml version="1.0" standalone="no"?><!DOCTYPE svg PUBLIC "-//W3C//DTD SVG 1.1//EN" "http://www.w3.org/Graphics/SVG/1.1/DTD/svg11.dtd" ><svg xmlns="http://www.w3.org/2000/svg" xmlns:xlink="http://www.w3.org/1999/xlink" version="1.1" viewBox="-10 0 692 1000"><g transform="matrix(1 0 0 -1 0 800)"><path stroke="black" fill="none" d="M 297.53976 1544.0006 l 0.0 0.0 l 211.13284 -0.0032958984 l 7.8828735 -0.00024414062 l 152.66852 1.0343018 l 116.79474 7.282959 l 101.01117 -9.176025 l 114.07495 0.6900635 l -0.33441162 -0.019042969 l 198.57648 -0.9256592 l 8.420654 0.26464844 l -66.01196 -146.24805 l -360.85016 -70.701904 l 0.0 0.0 l -370.80618 -0.19299316 l -2.4779053 -0.0010986328 l 153.98111 -0.0043945312 l -3.9144287 -0.0007324219 l -474.4488 11.477783 l 0.0 0.0 l -0.0020217896 42.290283 l 0.0 0.0 l 0.00046539307 70.63733 l 0.0 0.0 l -0.003189087 37.04187 l 0.0 0.0 l 132.65187 -161.45032 l 4.8196564 0.0 l 81.81819 -0.0007324219 l 729.00226 -111.12781 l -3.4285889 -4.2180176 l -300.89288 -497.30908 l -70.78015 -116.20508 l 188.78894 308.52618 l 95.66931 143.66449 l -465.9277 -750.68176 l 70.850006 116.26196 l -187.62582 -307.20093 l -186.37888 -104.78045 l 8.155273 -5.1578455 l 0.0 0.0 l -71.16884 45.00965 l 0.0 0.0 l -25.616188 16.2005 l 0.0 0.0 l 128.49734 -81.26617 l 0.0 0.0 l 0.5953369 -0.3765049 l 33.649506 -21.281025 l 0.0 0.0 " /> </g> </svg>