<?xml version="1.0" standalone="no"?><!DOCTYPE svg PUBLIC "-//W3C//DTD SVG 1.1//EN" "http://www.w3.org/Graphics/SVG/1.1/DTD/svg11.dtd" ><svg xmlns="http://www.w3.org/2000/svg" xmlns:xlink="http://www.w3.org/1999/xlink" version="1.1" viewBox="-10 0 692 1000"><g transform="matrix(1 0 0 -1 0 800)"><path stroke="black" fill="none" d="M 221.1483 1544.0 l 114.35225 0.0 l 115.45792 0.0 l 114.86893 0.0 l 115.18097 0.0021972656 l 115.10364 0.01574707 l 115.06964 -0.01977539 l 115.09778 0.0014648438 l 115.279175 -0.0020751953 l 114.87012 0.00061035156 l -97.3324 -159.6709 l -442.73004 -58.32727 l 74.53735 0.0 l 76.30945 0.00012207031 l -380.84406 -0.00012207031 l -76.04025 0.0 l 228.43839 0.0 l -76.04419 0.0 l -457.2372 21.68274 l 0.0 -21.60608 l 0.0 43.640503 l 0.0 21.605957 l 0.0 21.946533 l 0.0 21.63208 l 0.0 87.69592 l 0.0 21.21582 l 0.0 -43.889526 l 0.0 -22.663696 l 0.0 -19.994263 l 76.321686 -131.26599 l 76.04611 0.0 l 76.21213 0.0 l 727.6029 -101.42102 l -292.226 -479.14832 l -97.34265 -159.60626 l 194.78711 319.3766 l 97.39618 159.66547 l -486.95456 -798.3969 l 97.342804 159.60635 l -194.78455 -319.37372 l -208.05708 -89.719795 l 18.027115 -11.4009285 l 18.61525 -11.772887 l -55.59253 35.15852 l -18.351318 11.60597 l -18.642944 11.790401 l -18.33944 11.598457 l 129.45938 -81.87431 l 18.456741 -11.67264 l 36.92157 -23.350391 l -18.345184 11.6020775 " /> </g> </svg>