<?xml version="1.0" standalone="no"?><!DOCTYPE svg PUBLIC "-//W3C//DTD SVG 1.1//EN" "http://www.w3.org/Graphics/SVG/1.1/DTD/svg11.dtd" ><svg xmlns="http://www.w3.org/2000/svg" xmlns:xlink="http://www.w3.org/1999/xlink" version="1.1" viewBox="-10 0 692 1000"><g transform="matrix(1 0 0 -1 0 800)"><path stroke="black" fill="none" d="M 970.388 1248.8547 l 5.365906 -18.57129 l 0.0 0.0 l -50.525146 117.59375 l 0.0 0.0 l -29.356567 39.684082 l 0.0 0.0 l -38.95685 41.98645 l 0.0 0.0 l -7.4815674 5.810547 l -65.23218 42.0437 l -0.61242676 0.3363037 l -519.5047 -99.98169 l 0.011383057 0.013793945 l 38.35739 41.068848 l 0.0 0.0 l -70.648895 -467.61273 l 0.0 0.0 l -51.169434 187.6773 l 0.0 0.0 l 28.502762 -450.2486 l 0.0 0.0 l 94.00032 176.04907 l 0.0 0.0 l -118.992584 -465.8269 l 0.0 0.0 l 15.045807 -46.4469 l -30.111328 135.75449 l 0.0 0.0 l 12.867874 119.41843 l 0.0 0.0 l 25.38832 665.3823 l 0.0 0.0 l -19.330795 -71.31958 l 49.134583 135.1278 l 0.0 0.0 l -0.4385376 -0.8071289 l 109.25206 116.52954 l -0.66851807 -0.43151855 l 46.241547 26.787842 l 178.61603 47.984863 l 0.0 0.0 l -25.037903 -2.557373 l 0.0 0.0 l -80.2225 -16.075073 l -23.918365 -7.7110596 l 0.0 0.0 l 229.53278 16.57544 l 1.1182861 -0.19116211 l 64.75708 -18.38208 l 0.64642334 -0.22070312 l 239.41791 -454.18793 l -0.17681885 -0.77734375 l 11.329773 81.36615 l 0.0 0.0 l -0.99816895 46.522095 l 0.0 0.0 l -28.842224 -181.23529 l 0.0 0.0 l -0.07434082 -0.1552124 l -26.593445 -50.33142 l 101.257385 -341.31903 l 0.0 0.0 l 4.5841064 -133.03021 l 0.0 0.0 l -57.30963 267.6996 l 0.0 0.0 l 39.496887 -84.18457 l 0.0 0.0 l -139.14484 183.04626 l 0.0 0.0 l 18.278503 60.969666 l 0.0 0.0 l 31.517273 -101.09778 l 0.0 0.0 l 27.879517 -29.723633 l 7.5356445 -497.62152 l 0.0 0.0 l 20.746826 33.764954 l 25.6073 56.25598 l 0.0 0.0 l -184.71936 -210.38957 l 0.0 0.0 l 82.76764 55.472504 l 0.0 0.0 l -169.58582 -90.59936 l 0.0 0.0 l -14.022278 -3.0843582 l -300.97858 22.024261 l 0.0 0.0 l -26.460114 13.634979 l 223.16495 -50.83309 l 0.0 0.0 l -74.108154 5.831299 l 0.0 0.0 l -303.4301 173.68127 l 0.0 0.0 l 82.2807 -87.88287 l 0.0 0.0 " /> </g> </svg>