<?xml version="1.0" standalone="no"?><!DOCTYPE svg PUBLIC "-//W3C//DTD SVG 1.1//EN" "http://www.w3.org/Graphics/SVG/1.1/DTD/svg11.dtd" ><svg xmlns="http://www.w3.org/2000/svg" xmlns:xlink="http://www.w3.org/1999/xlink" version="1.1" viewBox="-10 0 692 1000"><g transform="matrix(1 0 0 -1 0 800)"><path stroke="black" fill="none" d="M 978.6157 1224.1691 l 0.0 0.0 l -45.095947 89.73596 l 0.0 0.0 l -65.985596 76.04199 l 0.0 0.0 l -64.831726 42.668823 l 0.0 0.0 l -80.78717 -124.17639 l -76.19995 0.0 l -76.20001 0.0 l -76.20001 0.0 l -76.19998 0.0 l -133.75 32.79065 l 0.0 0.0 l 1.6362915 1.96521 l -76.099686 -317.07495 l 0.0 0.0 l 108.64543 -203.83612 l 0.0 0.0 l -79.706436 -558.66785 l 0.0 0.0 l -28.065231 346.2762 l 0.0 0.0 l -11.587143 516.21356 l 0.0 0.0 l 34.916122 131.25208 l 0.0 0.0 l -120.78934 72.881226 l 0.0 21.799927 l 0.0 21.800049 l 0.0 21.799927 l 0.0 21.800049 l 0.0 21.800049 l 0.0 21.799927 l 0.0 21.800049 l 0.0 21.799927 l 0.0 21.800049 l 115.100006 0.0 l 115.099976 0.0 l 19.506805 -115.40576 l 0.0 0.0 l 28.316711 15.687012 l 184.59695 57.065308 l 0.0 0.0 l -116.16516 -24.886597 l 0.0 0.0 l 239.56482 12.9626465 l 0.0 0.0 l 46.97986 -14.178955 l 0.0 0.0 l 57.600037 68.75635 l 115.099976 0.0 l 115.10004 0.0 l 115.099976 0.0 l 115.099976 0.0 l -97.400024 -159.69995 l -174.21045 -359.13 l 0.0 0.0 l 4.227356 154.56226 l 0.0 0.0 l -36.832214 -239.3128 l 0.0 0.0 l -7.564331 -14.38031 l 99.88037 -485.27222 l 0.0 0.0 l -7.5546875 145.61072 l 0.0 0.0 l -120.57147 199.27936 l 0.0 0.0 l 62.381653 -65.8512 l 0.0 0.0 l -306.75623 -134.00586 l 333.9989 -287.51617 l 0.0 0.0 l 16.70752 42.911896 l -71.95929 -130.87206 l 0.0 0.0 l -201.794 -125.6338 l 0.0 0.0 l -273.81152 6.0949936 l 0.0 0.0 l 154.3551 -24.93676 l 0.0 0.0 l -347.09668 -118.84807 l -18.5 11.700001 l 72.979034 196.53427 l 0.0 0.0 l -109.979034 -173.13428 l -18.5 11.700001 l -18.5 11.7 l -18.5 11.7 l -18.5 11.699999 l -18.5 11.700001 l -18.5 11.700001 l -18.5 11.700001 " /> </g> </svg>