<?xml version="1.0" standalone="no"?><!DOCTYPE svg PUBLIC "-//W3C//DTD SVG 1.1//EN" "http://www.w3.org/Graphics/SVG/1.1/DTD/svg11.dtd" ><svg xmlns="http://www.w3.org/2000/svg" xmlns:xlink="http://www.w3.org/1999/xlink" version="1.1" viewBox="-10 0 692 1000"><g transform="matrix(1 0 0 -1 0 800)"><path stroke="black" fill="none" d="M 967.00507 1259.0046 l 11.598145 -32.506348 l 8.733154 -32.602783 l -34.816345 96.78003 l -16.233093 28.828003 l -19.685913 28.899292 l -21.203125 26.260864 l -24.47876 25.848145 l 0.0 0.0 l 0.0 0.0 l 0.0 0.0 l -27.415161 21.338257 l -29.068176 19.070435 l -29.831177 16.244629 l -514.39 -106.375244 l 21.921906 27.048096 l 0.0 0.0 l 0.00012207031 0.00012207031 l 0.0007324219 0.00061035156 l 26.439636 23.768677 l -44.217896 -524.27423 l 18.612122 -20.695557 l -45.72908 56.33252 l -45.1902 98.54004 l 14.174362 -39.76062 l 11.162094 -24.495972 l -34.935516 106.164 l -4.7979736 36.653442 l 0.0 0.0 l 0.0018615723 0.05078125 l 1.1721039 33.592163 l 61.631546 -403.43182 l -23.675797 -36.437317 l -17.291977 -34.895264 l 70.195496 105.99213 l 29.088287 26.23407 l 46.96408 22.07306 l 0.0 0.0 l -0.013763428 0.004638672 l -9.037903 2.9746704 l -22.08731 21.000671 l -128.10806 -471.24612 l -9.550919 34.34314 l 36.778183 -99.378784 l -14.1540985 29.888641 l -31.815872 194.31708 l -2.0081482 -50.671906 l 0.0 0.0 l 0.013015747 -0.117614746 l 3.7595673 -33.979126 l 4.7048798 133.31021 l 10.191223 43.107178 l 14.081604 623.9149 l 11.311676 31.197876 l -20.951813 -67.167114 l -5.9256744 -31.695068 l 57.871277 159.32678 l -16.63948 -29.310791 l 141.48103 148.91992 l -28.914429 -18.747192 l 59.436035 35.200684 l 208.05103 42.89331 l -37.04785 1.2366943 l 0.0 0.0 l 6.1035156e-05 0.0 l 0.00036621094 -0.00012207031 l -36.497192 -3.7579346 l -35.903595 -6.3863525 l -34.559418 -8.964111 l -32.09955 -11.053955 l 213.49475 25.086182 l 34.9317 -6.251831 l 34.16443 -8.893555 l 32.36908 -11.24585 l 237.76794 -425.11792 l -8.381653 -35.858032 l 13.506226 73.90198 l 1.6798706 38.848267 l 0.0 0.0 l -6.1035156e-05 0.00036621094 l -0.00036621094 0.003540039 l -3.8129272 35.789185 l -23.298828 -183.48999 l -15.059143 -32.898926 l -18.648926 -31.906616 l 112.362366 -405.66788 l 0.0 0.0 l -0.003540039 0.0496521 l -1.4686279 21.026428 l 0.18701172 -60.651947 l 0.0057373047 0.25131226 l -3.2589111 86.436035 l -3.4595947 20.432007 l -3.906128 -183.57263 l 6.5407715 36.40732 l -48.071472 271.45212 l 0.0 0.0 l -0.00012207031 0.00018310547 l -0.00036621094 0.0005493164 l -11.713562 17.689331 l 30.584839 -55.817078 l -8.342285 18.10321 l 28.684326 -77.36792 l -4.306885 15.494751 l -7.1029053 21.290405 l -162.7959 187.85834 l 0.0 0.0 l 0.0 0.0 l 0.00012207031 -0.00012207031 l 19.287231 -11.172485 l 15.80835 -10.338745 l -5.9033203 49.426697 l 24.719788 28.133545 l 28.10254 -116.62427 l -13.703918 12.918945 l -15.855347 13.29303 l 57.293457 -57.163696 l -12.202881 14.55249 l 24.885437 -493.80463 l -19.5802 -29.127396 l 37.31537 60.964066 l 26.62915 66.65518 l -11.758179 -33.48111 l -132.34973 -170.3449 l -31.881226 -20.294754 l -29.43451 -15.640602 l 118.53937 83.485176 l 0.0 0.0 l -0.00012207031 -9.1552734e-05 l -0.00048828125 -0.00044250488 l -27.358093 -24.716415 l -126.05206 -73.75038 l -34.203674 -11.505653 l -36.598694 -9.194092 l -237.62463 10.834221 l -35.18625 11.594589 l -65.739746 30.681244 l 30.378754 -15.77346 l 269.062 -44.015045 l -38.68512 -3.8372116 l 0.0 0.0 l -0.0021362305 6.1035156e-05 l -0.21795654 0.007095337 l -40.907104 1.2861404 l -79.728455 10.463608 l 38.109314 -6.441475 l -268.71765 129.26604 l -24.60431 29.679092 l -19.28711 27.368744 l 70.97708 -84.71716 l 0.0 0.0 l 0.00012207031 -0.00012207031 l 0.0008239746 -0.00061035156 l 29.83496 -22.27919 " /> </g> </svg>