<?xml version="1.0" standalone="no"?><!DOCTYPE svg PUBLIC "-//W3C//DTD SVG 1.1//EN" "http://www.w3.org/Graphics/SVG/1.1/DTD/svg11.dtd" ><svg xmlns="http://www.w3.org/2000/svg" xmlns:xlink="http://www.w3.org/1999/xlink" version="1.1" viewBox="-10 0 692 1000"><g transform="matrix(1 0 0 -1 0 800)"><path stroke="black" fill="none" d="M 967.97815 1256.0851 l 14.629211 -46.3396 l 0.29083252 -1.0761719 l -45.11853 110.929565 l -0.73132324 1.3227539 l -38.25531 53.59082 l -0.6463623 0.8096924 l -30.07727 32.626953 l 0.0 0.0 l -0.026855469 0.020874023 l -22.832825 17.76587 l -39.470825 25.67871 l -20.18097 10.99231 l -517.1067 -103.85986 l 0.054260254 0.06555176 l 32.380676 36.245605 l 0.0 0.0 l 8.260712 7.429077 l -59.199707 -488.72723 l -1.2062683 1.5440063 l -28.465393 52.26526 l 0.0 0.0 l -33.84671 154.18872 l 0.0 0.0 l 44.25879 -421.36664 l -17.294067 -32.28839 l 0.0 0.0 l 80.52838 171.94672 l 0.0 0.0 l 55.046112 -27.532288 l 0.0 0.0 l -161.65318 -424.41333 l -0.29977417 1.0448303 l 22.930588 -66.61905 l 0.0 0.0 l -34.882904 183.23013 l 0.0 0.0 l -0.15768433 -47.130707 l 14.360413 143.068 l 0.32836914 1.4477539 l 24.83017 657.50995 l 0.33816528 0.9482422 l -22.686829 -83.56885 l 0.0 0.0 l 54.390152 147.99463 l -0.058135986 -0.10534668 l -11.517166 -20.309814 l 132.21036 139.60278 l -19.774353 -12.81958 l 54.62549 32.121582 l 182.48312 44.961914 l -1.7199097 0.060546875 l -34.646545 -2.505371 l -1.2746582 -0.1274414 l -53.501556 -9.736694 l -48.892456 -14.55603 l -1.0927429 -0.37402344 l 213.7287 21.090088 l 24.523743 -4.385132 l 43.645935 -11.746216 l 21.85907 -7.590454 l 239.6275 -433.964 l -5.729187 -24.527893 l 13.016846 80.730896 l -0.046691895 -1.3186035 l -1.4777222 55.881348 l -0.12860107 1.2456055 l -27.019287 -181.44312 l -0.33691406 -0.7301636 l -8.868286 -19.323547 l -20.934692 -37.207764 l 110.55658 -433.57407 l 0.0 0.0 l -7.6013184 96.522064 l 0.0 0.0 l 1.7053223 -157.75946 l 0.39404297 1.9750977 l -53.82965 288.23883 l 0.0 0.0 l -1.5550537 2.350525 l 22.782288 -41.577515 l 0.0 0.0 l 17.188477 -43.312134 l 0.0 0.0 l -162.11652 196.73267 l 0.0 0.0 l 24.43164 -15.008789 l 0.0 0.0 l 18.519165 65.73517 l 0.8720093 1.0197754 l 17.878113 -95.079956 l 0.0 0.0 l -3.5170288 2.729309 l 38.174072 -37.62079 l 0.0 0.0 l 7.593506 -511.04834 l -0.5352783 -0.8080902 l 30.497375 50.364136 l 20.002686 45.516205 l -0.4109497 -1.1774597 l -159.52594 -193.57007 l -26.78186 -15.010284 l 0.0 0.0 l 99.34497 69.70155 l 0.0 0.0 l -11.078857 -10.019272 l -159.11066 -88.89688 l -1.6848145 -0.57962036 l -38.170837 -10.022339 l -269.6205 18.369614 l -1.884552 0.5914383 l -48.149017 20.452026 l 0.0 0.0 l 239.4213 -51.075523 l 0.0 0.0 l -30.148682 0.8622818 l 0.0 0.0 l -65.01404 5.8814926 l 1.8731079 -0.334404 l -279.36526 150.49573 l -18.480637 25.006638 l 0.0 0.0 l 76.39967 -84.479034 l 0.0 0.0 l 9.539673 -7.132019 " /> </g> </svg>