<?xml version="1.0" standalone="no"?><!DOCTYPE svg PUBLIC "-//W3C//DTD SVG 1.1//EN" "http://www.w3.org/Graphics/SVG/1.1/DTD/svg11.dtd" ><svg xmlns="http://www.w3.org/2000/svg" xmlns:xlink="http://www.w3.org/1999/xlink" version="1.1" viewBox="-10 0 692 1000"><g transform="matrix(1 0 0 -1 0 800)"><path stroke="black" fill="none" d="M 967.27234 1258.2028 l 12.430725 -36.30603 l 6.3153076 -23.572632 l -37.546997 100.295654 l -11.897522 21.135864 l -24.864136 35.818726 l -15.268677 18.914673 l -26.209839 27.991943 l 0.0 0.0 l -0.0007324219 0.00061035156 l -0.024597168 0.019042969 l -26.233337 20.416748 l -31.925476 20.885498 l -27.180603 14.802002 l -515.1362 -105.684326 l 22.706665 27.703125 l 0.0 0.0 l 0.13830566 0.12426758 l 23.411621 21.046265 l -30.81491 -534.8771 l 0.0 0.0 l -37.481033 46.58789 l -37.62599 75.41516 l 12.767502 -30.54248 l 0.0 0.0 l -34.079147 124.21411 l -0.7480774 34.64099 l 0.0 0.0 l 57.024246 -402.469 l -30.984253 -53.45984 l -1.1221008 -2.2495117 l 83.26268 121.69501 l 4.9855957 1.0214233 l 49.89572 25.584839 l 0.0 0.0 l -16.858765 13.040466 l -140.23593 -455.64572 l -6.8966217 24.785217 l 25.888931 -75.28125 l -0.89746094 1.8905945 l -35.054794 196.37286 l -0.0005645752 -0.02798462 l -1.0780029 -53.61975 l 0.0 0.0 l 9.672012 115.20743 l 7.4334717 31.461426 l 17.082626 633.34564 l 8.132538 22.436523 l -24.274734 -87.2782 l -0.35264587 -1.8807373 l 55.981125 151.1643 l -0.38049316 -0.6903076 l -14.868027 -26.177124 l 138.9347 146.36072 l -26.40393 -17.119019 l 58.114716 34.35486 l 201.02829 43.461548 l -28.808044 0.9654541 l 0.0 0.0 l -27.811707 -2.7954102 l -7.0632935 -0.70544434 l -40.737183 -7.3065186 l -38.496246 -10.5 l -23.249817 -8.005615 l 213.22586 23.873657 l 32.072998 -5.7391357 l 36.768677 -9.677124 l 29.4823 -10.241699 l 238.27875 -427.54773 l -7.653137 -32.74597 l 13.628418 83.088745 l -0.26940918 -7.673218 l 1.3493042 38.546753 l 0.0 0.0 l -3.3067017 30.992798 l -24.35205 -182.63666 l -2.0605469 -4.4647217 l -11.390686 -24.906006 l -19.276733 -33.362732 l 110.963135 -392.30096 l 0.0 0.0 l 0.19018555 -41.58011 l 0.0 0.0 l -6.163574 90.38876 l -0.16381836 1.0005493 l -3.213379 -171.82065 l 4.8426514 26.894226 l -48.316467 274.11636 l 0.0 0.0 l -0.07537842 0.11376953 l -10.1727295 15.361572 l 23.602661 -41.292175 l -0.25494385 0.55895996 l 21.133484 -53.83722 l 0.0 0.0 l -3.076538 8.636902 l -165.1872 196.59729 l 0.0 0.0 l 0.020874023 -0.012145996 l 30.518005 -18.559998 l 0.50439453 -0.3283081 l 2.7406616 52.609436 l 18.003174 20.498596 l 19.39154 -104.734436 l -0.62060547 0.5913086 l -15.716492 13.385986 l 45.501526 -43.98828 l -0.44488525 0.5310669 l 18.269958 -496.3241 l -14.041504 -20.893646 l 35.13495 57.59729 l 24.809143 60.84897 l -8.542847 -24.328064 l -139.91278 -177.00438 l -46.06781 -27.165764 l -1.644104 -0.87771606 l 110.86914 79.1054 l 0.0 0.0 l -0.09466553 -0.08532715 l -24.512817 -22.145203 l -135.1322 -77.91065 l -25.184692 -8.475479 l -37.117615 -9.450722 l -246.41287 12.903954 l -25.981232 8.553017 l -45.91516 20.037628 l 1.9448547 -1.0146255 l 265.95938 -48.527374 l -0.060668945 -0.00592041 l -37.347046 -2.5842056 l 0.0 0.0 l -23.35315 0.7504425 l -81.09729 9.436386 l 28.084229 -4.752037 l -271.57007 135.08514 l -33.17581 42.88376 l -1.084732 1.5329132 l 67.48625 -79.08557 l 0.0 0.0 l 0.15698242 -0.117004395 l 26.433105 -19.738007 " /> </g> </svg>