<?xml version="1.0" standalone="no"?><!DOCTYPE svg PUBLIC "-//W3C//DTD SVG 1.1//EN" "http://www.w3.org/Graphics/SVG/1.1/DTD/svg11.dtd" ><svg xmlns="http://www.w3.org/2000/svg" xmlns:xlink="http://www.w3.org/1999/xlink" version="1.1" viewBox="-10 0 692 1000"><g transform="matrix(1 0 0 -1 0 800)"><path stroke="black" fill="none" d="M 972.3004 1241.7296 l 0.0 0.0 l -78.50415 82.82593 l 0.0 0.0 l -132.99792 -88.352295 l -76.19995 0.0 l -76.20001 0.0 l -76.20001 0.0 l -76.19998 0.0 l -104.00949 62.593628 l 0.0 0.0 l 4.424286 -548.7017 l 0.0 0.0 l -105.834854 -224.10535 l 0.0 0.0 l 5.469864 611.966 l 0.0 0.0 l -104.84979 120.047485 l 0.0 21.799927 l 0.0 21.800049 l 0.0 21.799927 l 0.0 21.800049 l 0.0 21.800049 l 0.0 21.799927 l 0.0 21.800049 l 0.0 21.799927 l 0.0 21.800049 l 115.100006 0.0 l 115.099976 0.0 l 22.788025 -111.89551 l 0.0 0.0 l 184.90912 63.41223 l 0.0 0.0 l 157.94208 -8.675415 l 0.0 0.0 l 94.7608 57.15869 l 115.099976 0.0 l 115.10004 0.0 l 115.099976 0.0 l 115.099976 0.0 l -97.400024 -159.69995 l -169.48004 -195.20605 l 0.0 0.0 l -42.09192 -255.51764 l 0.0 0.0 l 85.61847 -339.50543 l 0.0 0.0 l -116.45984 192.02698 l 0.0 0.0 l -244.58667 -200.29791 l 362.08044 -189.4144 l 0.0 0.0 l -93.637085 -192.93216 l 0.0 0.0 l -232.7749 -121.85401 l 0.0 0.0 l -425.26843 -134.5994 l -18.5 11.700001 l -20.670807 214.78105 l -16.329193 -191.38106 l -18.5 11.700001 l -18.5 11.7 l -18.5 11.7 l -18.5 11.699999 l -18.5 11.700001 l -18.5 11.700001 l -18.5 11.700001 " /> </g> </svg>