<?xml version="1.0" standalone="no"?><!DOCTYPE svg PUBLIC "-//W3C//DTD SVG 1.1//EN" "http://www.w3.org/Graphics/SVG/1.1/DTD/svg11.dtd" ><svg xmlns="http://www.w3.org/2000/svg" xmlns:xlink="http://www.w3.org/1999/xlink" version="1.1" viewBox="-10 0 692 1000"><g transform="matrix(1 0 0 -1 0 800)"><path stroke="black" fill="none" d="M 966.9873 1259.0579 l 11.542908 -32.254272 l 8.893555 -33.201904 l -34.63513 96.54675 l -16.520752 29.338501 l -19.342346 28.440186 l -21.596924 26.748169 l -24.366394 25.707886 l 0.0 0.0 l 0.0 0.0 l 0.0 0.0 l -27.48938 21.396118 l -28.87854 18.949951 l -30.00708 16.340332 l -514.3406 -106.42102 l 21.926178 27.055176 l 0.0 0.0 l 0.0 0.0 l 3.0517578e-05 0.00012207031 l 26.575897 23.891235 l -47.96704 -520.37506 l 23.482574 -26.108093 l -47.052002 57.822754 l -45.69211 100.07446 l 12.566147 -36.613586 l 14.088028 -30.912231 l -35.476074 105.9986 l -5.01474 38.07727 l 0.0 0.0 l 4.5776367e-05 0.0012207031 l 0.0025177002 0.068725586 l 1.2566528 36.01953 l 61.87793 -405.00037 l -23.190857 -35.3078 l -18.365372 -37.062378 l 69.32893 104.95117 l 30.687561 27.907043 l 46.684204 21.922607 l 0.0 0.0 l -0.00048828125 0.00018310547 l -0.007507324 0.0025634766 l -10.448425 3.4294434 l -21.544739 21.191101 l -127.30333 -472.28125 l -9.727051 34.977325 l 37.500717 -100.97772 l -15.03508 31.749268 l -31.599594 194.17776 l -2.0811615 -50.371094 l 0.0 0.0 l 0.0002746582 -0.0024108887 l 0.03237915 -0.29260254 l 4.0572968 -36.67032 l 4.3195953 135.01422 l 10.374207 43.879883 l 13.882477 623.2891 l 11.522614 31.779297 l -20.731323 -65.83276 l -6.2964325 -33.678345 l 57.997665 159.87341 l -16.731781 -29.4729 l 141.65001 149.08972 l -29.080994 -18.855225 l 59.52368 35.256836 l 208.517 42.85559 l -37.55255 1.2531738 l 0.0 0.0 l 0.0 0.0 l 6.1035156e-05 0.0 l -36.646484 -3.7736816 l -35.582855 -6.3251953 l -34.298187 -8.862305 l -32.686768 -11.2561035 l 213.51263 25.166626 l 35.121338 -6.2858887 l 33.99164 -8.841553 l 32.560608 -11.312378 l 237.73407 -424.9568 l -8.429993 -36.064514 l 13.515991 73.801575 l 1.687439 39.00171 l 0.0 0.0 l -6.1035156e-05 0.0 l 0.0 0.00012207031 l -3.8325195 35.978027 l -23.229004 -183.54663 l -15.1657715 -33.132996 l -18.6073 -31.810059 l 112.40222 -406.02426 l 0.0 0.0 l -0.00012207031 0.0012512207 l -0.004760742 0.0664978 l -1.5778809 22.652985 l 0.25268555 -62.694122 l -3.0600586 86.44174 l -3.6860352 21.767029 l -3.944336 -184.3981 l 6.6534424 37.038544 l -48.09076 271.32898 l 0.0 0.0 l 0.0 0.0 l -6.1035156e-05 6.1035156e-05 l -11.775696 17.783264 l 31.048096 -56.78076 l -8.934631 19.387817 l 29.784302 -81.039246 l -5.461548 19.64215 l -7.0443726 21.000183 l -162.61548 187.26587 l 0.0 0.0 l 0.0 0.0 l 0.0 0.0 l 18.519043 -10.669006 l 16.933777 -11.075073 l -6.586853 49.287598 l 25.165466 28.640137 l 28.680542 -117.41321 l -14.620361 13.78241 l -15.816223 13.241394 l 58.075867 -58.037903 l -13.049316 15.56189 l 25.390686 -493.7165 l -19.947754 -29.673706 l 37.460022 61.187454 l 26.75 67.040436 l -11.971619 -34.08844 l -131.84784 -169.90302 l -30.939941 -19.838852 l -31.283936 -16.623055 l 119.00769 83.737144 l 0.0 0.0 l 0.0 -1.5258789e-05 l -6.1035156e-05 -1.5258789e-05 l -27.495117 -24.840363 l -125.449524 -73.47433 l -34.802124 -11.706718 l -36.56427 -9.177063 l -237.0415 10.696884 l -35.797028 11.79641 l -67.055145 31.387474 l 32.26761 -16.753899 l 269.26566 -43.714485 l -39.283447 -3.9032593 l 0.0 0.0 l -0.00012207031 7.6293945e-06 l -0.00048828125 1.5258789e-05 l -41.79236 1.3125916 l -79.637634 10.531761 l 38.774475 -6.553566 l -268.52835 128.87991 l -24.035583 28.802933 l -20.498322 29.087906 l 71.274536 -85.14224 l 0.0 0.0 l 0.0 0.0 l 3.0517578e-05 -3.0517578e-05 l 29.988861 -22.394272 " /> </g> </svg>