<?xml version="1.0" standalone="no"?><!DOCTYPE svg PUBLIC "-//W3C//DTD SVG 1.1//EN" "http://www.w3.org/Graphics/SVG/1.1/DTD/svg11.dtd" ><svg xmlns="http://www.w3.org/2000/svg" xmlns:xlink="http://www.w3.org/1999/xlink" version="1.1" viewBox="-10 0 692 1000"><g transform="matrix(1 0 0 -1 0 800)"><path stroke="black" fill="none" d="M 966.9821 1259.0735 l 11.526733 -32.18042 l 8.940552 -33.37744 l -34.58203 96.47839 l -16.605042 29.488037 l -19.2417 28.305664 l -21.71222 26.890991 l -24.333618 25.66687 l 0.0 0.0 l 0.0 0.0 l 0.0 0.0 l -27.510986 21.413086 l -28.82306 18.91455 l -30.058594 16.368408 l -514.32605 -106.43445 l 21.928772 27.058472 l 0.0 0.0 l 0.0 0.0 l 0.0 0.0 l 26.614288 23.925903 l -49.065155 -519.23303 l 24.909088 -27.69342 l -47.439484 58.259216 l -45.839096 100.523865 l 12.095108 -35.691772 l 14.945023 -32.791565 l -35.634415 105.95007 l -5.0753174 38.57373 l 0.0 0.0 l 1.5258789e-05 0.00012207031 l 0.0 0.00024414062 l 1.28125 36.72632 l 61.950104 -405.45972 l -23.048813 -34.97699 l -18.67978 -37.697144 l 69.075134 104.6463 l 31.155975 28.397034 l 46.564545 21.891296 l 0.0 0.0 l -3.0517578e-05 0.0 l -9.1552734e-05 6.1035156e-05 l -10.830048 3.552002 l -21.385834 21.246887 l -127.06763 -472.58444 l -9.7786255 35.163086 l 37.71234 -101.446045 l -15.293121 32.29425 l -31.53624 194.13693 l -2.0887146 -50.40805 l 0.0 0.0 l 1.5258789e-05 -0.00015258789 l 7.6293945e-05 -0.00061035156 l 4.168976 -37.679688 l 4.2067413 135.5133 l 10.427811 44.1062 l 13.824142 623.1059 l 11.584412 31.949463 l -20.666748 -65.44177 l -6.4050293 -34.2594 l 58.034683 160.03369 l -16.75882 -29.520386 l 141.69951 149.1394 l -29.129791 -18.88684 l 59.549347 35.273193 l 208.6535 42.844482 l -37.69934 1.2580566 l 0.0 0.0 l 0.0 0.0 l 0.0 0.0 l -36.691284 -3.7781982 l -35.488922 -6.307251 l -34.22168 -8.83252 l -32.858765 -11.31543 l 213.51785 25.190308 l 35.17694 -6.2958984 l 33.94098 -8.826294 l 32.61676 -11.331909 l 237.72412 -424.90955 l -8.444153 -36.125 l 13.51886 73.77222 l 1.68927 39.049683 l 0.0 0.0 l 0.0 0.0 l 0.0 0.0 l -3.8378906 36.029175 l -23.208496 -183.56311 l -15.1970215 -33.2016 l -18.595093 -31.781738 l 112.408264 -406.04984 l 0.0 0.0 l 0.0 9.1552734e-05 l 0.0 0.0002746582 l -1.6096191 23.12326 l 0.27209473 -63.292267 l -3.00354 86.36978 l -3.7524414 22.15802 l -3.9554443 -184.63983 l 6.6864014 37.22342 l -48.09729 271.29422 l 0.0 0.0 l 0.0 0.0 l 0.0 0.0 l -11.792908 17.809387 l 31.183777 -57.06311 l -9.108154 19.76416 l 30.106445 -82.114624 l -5.7998047 20.856934 l -7.0271606 20.915161 l -162.56213 187.09204 l 0.0 0.0 l 0.0 0.0 l 0.0 0.0 l 18.293518 -10.52124 l 17.263428 -11.290649 l -6.7870483 49.246826 l 25.29596 28.788513 l 28.849854 -117.64429 l -14.888794 14.035278 l -15.804749 13.226318 l 58.305054 -58.294006 l -13.297302 15.857544 l 25.538696 -493.69067 l -20.05542 -29.833725 l 37.50244 61.252884 l 26.785278 67.15329 l -12.033997 -34.266327 l -131.70093 -169.7736 l -30.664185 -19.705322 l -31.825623 -16.910797 l 119.14374 83.80997 l 0.0 0.0 l 0.0 -1.5258789e-05 l 0.0 0.0 l -27.533997 -24.87555 l -125.27313 -73.393486 l -34.977356 -11.76561 l -36.5542 -9.172073 l -236.8707 10.656662 l -35.97592 11.855522 l -67.44043 31.594315 l 32.82086 -17.041054 l 269.32532 -43.626457 l -39.470825 -3.922203 l 0.0 0.0 l 0.0 0.0 l 0.0 0.0 l -41.97589 1.3178711 l -79.61096 10.551727 l 38.96924 -6.5863953 l -268.4729 128.76685 l -23.868988 28.546295 l -20.853088 29.59143 l 71.36313 -85.26782 l 0.0 0.0 l 0.0 0.0 l 0.0 0.0 l 30.032227 -22.426712 " /> </g> </svg>