<?xml version="1.0" standalone="no"?><!DOCTYPE svg PUBLIC "-//W3C//DTD SVG 1.1//EN" "http://www.w3.org/Graphics/SVG/1.1/DTD/svg11.dtd" ><svg xmlns="http://www.w3.org/2000/svg" xmlns:xlink="http://www.w3.org/1999/xlink" version="1.1" viewBox="-10 0 692 1000"><g transform="matrix(1 0 0 -1 0 800)"><path stroke="black" fill="none" d="M 967.0656 1258.823 l 11.786743 -33.367188 l 8.185425 -30.557007 l -35.434937 97.576416 l -15.250916 27.08545 l -20.859009 30.466797 l -19.858704 24.59668 l -24.864624 26.328857 l 0.0 0.0 l -6.1035156e-05 0.00012207031 l -0.00018310547 0.00012207031 l -27.15924 21.138672 l -29.715454 19.481567 l -29.230713 15.917847 l -514.5591 -106.21875 l 21.960144 27.071167 l 0.0 0.0 l 0.0025939941 0.002319336 l 0.44503784 0.39978027 l 25.47757 22.90393 l -31.41745 -537.5871 l 1.9837036 -2.2164307 l -41.212677 51.245056 l -43.476593 93.30133 l 19.66513 -50.505493 l 1.172699 -2.5900269 l -33.09027 106.729614 l -3.941681 34.953247 l 0.0 0.0 l 0.76667786 22.128906 l 60.790314 -398.07684 l -25.331467 -40.29364 l -13.627136 -27.496216 l 73.15405 109.54602 l 23.628021 20.5224 l 46.420288 23.093079 l 0.0 0.0 l -2.7562866 0.9266968 l -23.939697 20.350586 l -130.85551 -467.712 l -8.9496155 32.177887 l 34.311325 -93.91971 l -11.146194 23.53595 l -32.55435 194.79276 l -0.005935669 -0.29180908 l -1.2019501 -56.386597 l 0.0 0.0 l 2.1380615 -19.323273 l 6.02034 127.4924 l 9.566483 40.468933 l 14.761444 626.0514 l 10.591476 29.213013 l -21.70459 -71.72302 l -4.6598663 -24.92334 l 57.43979 157.46008 l -16.324371 -28.757324 l 140.90419 148.34021 l -28.345703 -18.378418 l 59.13669 35.009033 l 206.46008 43.022095 l -35.28534 1.178833 l 0.0 0.0 l 0.0014648438 0.0 l -27.162903 -2.8182373 l -8.86377 -0.88513184 l -36.998596 -6.5947266 l -35.451263 -9.312134 l -30.094727 -10.363403 l 213.43387 24.811523 l 34.284058 -6.135742 l 34.754395 -9.071045 l 31.715088 -11.018311 l 237.88367 -425.66846 l -8.216614 -35.152954 l 13.811218 83.883545 l -0.33831787 -9.638672 l 1.640564 38.449585 l 0.0 0.0 l -0.00091552734 0.008666992 l -3.7332764 35.027344 l -23.537415 -183.29669 l -14.694885 -32.09961 l -18.791138 -32.23651 l 112.003174 -401.3138 l 0.0 0.0 l -0.87109375 12.3237 l -0.037597656 -53.679535 l 0.00061035156 0.025970459 l -3.913208 87.49988 l -2.6862793 15.874084 l -3.775879 -180.7544 l 6.156128 34.252197 l -48.03894 271.92285 l 0.0 0.0 l -0.0015258789 0.0022583008 l -0.2033081 0.30682373 l -11.265137 17.012085 l 29.003052 -52.52655 l -6.319763 13.717041 l 24.928528 -64.83319 l -0.38378906 1.404419 l -7.283325 22.211609 l -163.39154 189.86932 l 0.0 0.0 l 0.00061035156 -0.00030517578 l 0.015319824 -0.008911133 l 21.874268 -12.870972 l 11.965759 -7.824951 l -3.569519 49.901733 l 23.198242 26.40387 l 26.12915 -113.930725 l -10.575012 9.97113 l -15.988892 13.469177 l 54.62207 -54.178894 l -9.312866 11.106262 l 23.160461 -494.1056 l -18.3255 -27.2621 l 36.82141 60.201355 l 26.216858 65.33984 l -11.029785 -31.407593 l -134.06305 -171.85353 l -35.095093 -21.851326 l -23.120178 -12.286293 l 116.89722 82.58595 l 0.0 0.0 l -0.0018920898 -0.0017089844 l -0.24401855 -0.21995544 l -26.603638 -24.034897 l -128.10907 -74.69285 l -32.160522 -10.819199 l -36.716248 -9.252228 l -239.61554 11.303101 l -33.100952 10.905548 l -61.248657 28.270027 l 23.929749 -12.426048 l 268.3667 -45.0412 l -1.2710571 -0.12413025 l -35.852905 -3.4719467 l 0.0 0.0 l -0.09918213 0.003227234 l -38.273254 1.2084656 l -80.03851 10.230904 l 35.838196 -6.0587463 l -269.36383 130.5843 l -26.546112 32.670486 l -15.151794 21.499207 l 70.01999 -83.30954 l 0.0 0.0 l 0.0029296875 -0.0021972656 l 0.51782227 -0.38591003 l 28.734406 -21.457642 " /> </g> </svg>