<?xml version="1.0" standalone="no"?><!DOCTYPE svg PUBLIC "-//W3C//DTD SVG 1.1//EN" "http://www.w3.org/Graphics/SVG/1.1/DTD/svg11.dtd" ><svg xmlns="http://www.w3.org/2000/svg" xmlns:xlink="http://www.w3.org/1999/xlink" version="1.1" viewBox="-10 0 692 1000"><g transform="matrix(1 0 0 -1 0 800)"><path stroke="black" fill="none" d="M 966.9821 1259.0735 l 11.521973 -32.158813 l 8.954346 -33.428833 l -34.56653 96.458374 l -16.6297 29.531738 l -19.21222 28.266357 l -21.746033 26.93274 l -24.323975 25.654907 l 0.0 0.0 l 0.0 0.0 l 0.0 0.0 l -27.517334 21.417969 l -28.806763 18.904297 l -30.07373 16.376587 l -514.3218 -106.438354 l 21.929626 27.05957 l 0.0 0.0 l 0.0 0.0 l 0.0 0.0 l 26.625427 23.935791 l -49.38681 -518.8985 l 25.326935 -28.157715 l -47.55298 58.387085 l -45.882156 100.65546 l 11.957138 -35.421814 l 15.19603 -33.34198 l -35.680786 105.93591 l -5.0927887 38.725952 l 0.0 0.0 l 0.0 0.0 l 0.0 0.0 l 1.2874603 36.906494 l 61.971237 -405.5943 l -23.007217 -34.880066 l -18.77185 -37.883057 l 69.00078 104.55701 l 31.293182 28.540527 l 46.526276 21.88324 l 0.0 0.0 l 0.0 0.0 l -3.0517578e-05 0.0 l -10.936371 3.5860596 l -21.339294 21.263184 l -126.9986 -472.6732 l -9.793747 35.21747 l 37.774338 -101.58319 l -15.368713 32.453888 l -31.51767 194.12494 l -2.089737 -50.429626 l 0.0 0.0 l 0.0 0.0 l 0.0 -3.0517578e-05 l 4.1910553 -37.87909 l 4.173691 135.65945 l 10.443497 44.172485 l 13.807053 623.0522 l 11.602509 31.99939 l -20.647827 -65.32727 l -6.4368286 -34.429565 l 58.045517 160.08057 l -16.766724 -29.534302 l 141.71399 149.15405 l -29.144073 -18.89624 l 59.556854 35.278076 l 208.69345 42.84131 l -37.74225 1.2593994 l 0.0 0.0 l 0.0 0.0 l 0.0 0.0 l -36.704468 -3.779541 l -35.461426 -6.302002 l -34.19928 -8.82373 l -32.90912 -11.332764 l 213.51941 25.197144 l 35.193176 -6.298828 l 33.92621 -8.821899 l 32.633118 -11.337524 l 237.72125 -424.89575 l -8.448303 -36.1427 l 13.519714 73.76355 l 1.6897583 39.064087 l 0.0 0.0 l 0.0 0.0 l 0.0 0.0 l -3.8394165 36.043945 l -23.202454 -183.56805 l -15.206177 -33.22168 l -18.591553 -31.773438 l 112.40961 -406.05057 l 0.0 0.0 l 0.0 3.0517578e-05 l 0.0 0.0 l -1.6170654 23.234802 l 0.27770996 -63.467438 l -2.9869385 86.348724 l -3.7718506 22.272583 l -3.9587402 -184.71066 l 6.696045 37.277557 l -48.099182 271.28412 l 0.0 0.0 l 0.0 0.0 l 0.0 0.0 l -11.797913 17.816895 l 31.22351 -57.145752 l -9.158936 19.874329 l 30.200806 -82.429504 l -5.898926 21.212646 l -7.0220947 20.89032 l -162.54645 187.04108 l 0.0 0.0 l 0.0 0.0 l 0.0 0.0 l 18.227417 -10.477905 l 17.359985 -11.353821 l -6.845703 49.234924 l 25.334167 28.83197 l 28.899475 -117.711975 l -14.967468 14.109314 l -15.801392 13.221863 l 58.372192 -58.368958 l -13.369873 15.944153 l 25.58197 -493.68314 l -20.086914 -29.880585 l 37.51483 61.272064 l 26.795654 67.18631 l -12.052307 -34.31842 l -131.65784 -169.7357 l -30.583435 -19.666199 l -31.984314 -16.995087 l 119.18353 83.83121 l 0.0 0.0 l 0.0 0.0 l 0.0 0.0 l -27.54535 -24.885788 l -125.221375 -73.3698 l -35.028748 -11.782852 l -36.55121 -9.170616 l -236.82071 10.644882 l -36.02832 11.872833 l -67.55325 31.6549 l 32.98288 -17.12516 l 269.3428 -43.600677 l -39.526733 -3.927719 l 0.0 0.0 l 0.0 0.0 l 0.0 0.0 l -42.02838 1.3193817 l -79.60321 10.557571 l 39.026306 -6.5960083 l -268.45667 128.7337 l -23.82022 28.47113 l -20.95697 29.738922 l 71.38919 -85.3047 l 0.0 0.0 l 0.0 0.0 l 0.0 0.0 l 30.0448 -22.436127 " /> </g> </svg>