<?xml version="1.0" standalone="no"?><!DOCTYPE svg PUBLIC "-//W3C//DTD SVG 1.1//EN" "http://www.w3.org/Graphics/SVG/1.1/DTD/svg11.dtd" ><svg xmlns="http://www.w3.org/2000/svg" xmlns:xlink="http://www.w3.org/1999/xlink" version="1.1" viewBox="-10 0 692 1000"><g transform="matrix(1 0 0 -1 0 800)"><path stroke="black" fill="none" d="M 160.12596 912.43024 l 9.448074 -35.668823 l 12.244797 -34.80719 l -28.569931 107.994995 l -4.057373 38.044495 l 0.0 0.0 l 0.0 0.0 l 0.0 0.0 l 1.5075684 41.90753 l 4.5383606 40.81653 l 7.5488434 39.49951 l 10.568756 38.25952 l 13.588684 37.01953 l 16.608612 35.77954 l 19.628494 34.53955 l 22.648453 33.29956 l 25.672165 32.059326 l 0.0 0.0 l 0.0 0.0 l 0.0 0.0 l 30.994019 28.880127 l 32.203033 25.844604 l 33.398987 22.799683 l 34.604584 19.76294 l 35.799255 16.719482 l 36.999268 13.679565 l 38.264435 10.646362 l 39.301025 7.5808105 l 40.635376 4.5664062 l 0.0 0.0 l 0.0 0.0 l 0.0 0.0 l 41.653015 -1.4949951 l 40.54901 -4.500244 l 39.448975 -7.500244 l 38.348938 -10.500244 l 37.2489 -13.5 l 36.154175 -16.50354 l 35.048645 -19.500244 l 33.94818 -22.50061 l 32.85016 -25.499878 l 0.0 0.0 l 0.0 0.0 l 0.0 0.0 l 29.635864 -30.340088 l 26.518188 -31.419556 l 23.398254 -32.499756 l 20.278381 -33.579834 l 17.19104 -34.718628 l 14.004272 -35.64807 l 18.691406 -74.55017 l -7.7370605 37.594604 l 12.459717 -76.77966 l 0.0 0.0 l 0.0 0.0 l 0.0 0.0 l -1.5169678 -36.215576 l -22.743408 -112.20764 l 10.561035 37.747314 l 7.6082764 37.47711 l -48.602295 -153.1756 l 16.680054 39.09558 l -36.47174 -78.93756 l -22.796326 -40.353455 l -25.832153 -40.91797 l -450.1206 -315.0593 l -36.642395 -49.948853 l -36.91684 -50.323334 l -44.936066 -277.5243 l 16.944824 -12.584748 l 17.4599 -12.967308 l 16.482178 -12.241148 l 17.351624 -12.886875 l -85.538025 63.528267 l -16.943848 12.584 l -17.133362 12.724892 l 59.177734 188.74603 l -36.639587 -49.944763 l -36.95865 -50.378906 l -19.77472 -63.025475 l 17.047638 -12.661404 l -34.166534 25.38171 l 368.97055 502.9979 l 0.0 0.0 l -0.0004272461 -6.1035156e-05 l -0.0067749023 -0.00091552734 l -5.4748535 -0.7225952 l -6.8498535 -0.8826904 l -5.994995 -0.7532959 l -3.3765259 -0.41497803 l -35.68817 -3.7285767 l 0.0 0.0 l 0.02960205 0.0024414062 l 6.028076 0.49993896 l 4.9241333 0.45220947 l 0.0 0.0 l 0.0234375 0.002319336 l 3.3754883 0.3474121 l 6.0911865 0.6552124 l 5.244446 0.5895386 l 3.1730957 0.36730957 l -45.47516 -97.27811 l -36.63617 -49.94043 l -109.18927 166.20413 l -32.651062 12.7724 l -33.856537 16.89447 l -28.39389 17.082275 l 200.10577 -68.28461 l 39.873047 -1.343689 l 0.0 0.0 l -3.1976929 -0.0748291 l -0.008605957 -0.00024414062 l 0.0 0.0 l 9.508545 0.33203125 l 0.009887695 0.0005493164 l 5.100952 0.29736328 l 0.0 0.0 l 26.406311 -43.27594 l -114.101776 48.40497 l -34.632355 7.0950317 l -214.73929 132.51471 l -22.55754 29.406555 l -20.629608 31.649658 l -17.539246 32.201416 l 86.995834 -122.798706 l 0.0 0.0 l 0.0 0.0 l 3.0517578e-05 0.0 l 28.848175 -24.265808 " /> </g> </svg>