<?xml version="1.0" standalone="no"?><!DOCTYPE svg PUBLIC "-//W3C//DTD SVG 1.1//EN" "http://www.w3.org/Graphics/SVG/1.1/DTD/svg11.dtd" ><svg xmlns="http://www.w3.org/2000/svg" xmlns:xlink="http://www.w3.org/1999/xlink" version="1.1" viewBox="-10 0 692 1000"><g transform="matrix(1 0 0 -1 0 800)"><path stroke="black" fill="none" d="M 160.11137 912.48486 l 9.518188 -35.933167 l 12.240128 -34.78076 l -28.560257 107.8244 l -4.079422 38.25464 l 0.0 0.0 l 0.0 0.0 l 0.0 0.0 l 1.5099335 41.97815 l 4.5302124 40.741943 l 7.5499725 39.5 l 10.569962 38.26001 l 13.589981 37.019897 l 16.609955 35.78003 l 19.62996 34.539917 l 22.649963 33.30005 l 25.67006 32.06006 l 0.0 0.0 l 0.0 0.0 l 0.0 0.0 l 30.999847 28.880005 l 32.200073 25.840088 l 33.399994 22.799927 l 34.600098 19.76001 l 35.799988 16.720093 l 36.99997 13.679932 l 38.2016 10.640259 l 39.397522 7.5994873 l 40.60089 4.5601807 l 0.0 0.0 l 0.0 0.0 l 0.0 0.0 l 41.650085 -1.4998779 l 40.549988 -4.5 l 39.44995 -7.5 l 38.349976 -10.5 l 37.24994 -13.5 l 36.150146 -16.500122 l 35.049988 -19.5 l 33.94995 -22.5 l 32.849976 -25.5 l 0.0 0.0 l 0.0 0.0 l 0.0 0.0 l 29.639893 -30.340088 l 26.52002 -31.419922 l 23.399902 -32.5 l 20.279907 -33.58008 l 17.160767 -34.661377 l 14.039185 -35.73767 l 18.719238 -74.71582 l -7.798462 37.892334 l 12.479614 -76.87744 l 0.0 0.0 l 0.0 0.0 l 0.0 0.0 l -1.5198975 -36.288147 l -22.798706 -112.346375 l 10.638062 38.022827 l 7.6002197 37.450745 l -48.639038 -153.27734 l 16.718994 39.18756 l -36.479797 -78.95941 l -22.799927 -40.350098 l -25.839783 -40.92975 l -449.9153 -314.78696 l -36.893524 -50.29117 l -36.90042 -50.3006 l -44.998383 -277.4031 l 17.0961 -12.6971035 l 17.109009 -12.7067175 l 17.084503 -12.688467 l 17.106323 -12.704697 l -85.500946 63.50071 l -17.0961 12.697086 l -17.10083 12.700624 l 59.39444 188.99362 l -36.893494 -50.291077 l -36.90146 -50.30198 l -19.799347 -63.00064 l 17.098694 -12.699032 l -34.19919 25.399548 l 368.99976 503.0 l 0.0 0.0 l 0.0 0.0 l 0.0 0.0 l -5.899719 -0.7786865 l -5.7581787 -0.7435913 l -5.561157 -0.701355 l -5.3199463 -0.6538086 l -35.980774 -3.717041 l 3.6032104 0.2845459 l 4.0733643 0.34881592 l 4.133423 0.38110352 l 0.0 0.0 l 0.0 0.0 l 0.0 0.0 l 4.449951 0.4580078 l 4.6862183 0.5038452 l 4.840332 0.54125977 l 4.963867 0.574646 l -46.035522 -97.10446 l -36.89337 -50.290955 l -108.93652 166.21957 l -32.893738 12.867554 l -31.949158 15.759277 l -30.837036 18.552124 l 200.39258 -68.6311 l 42.50464 -1.2773438 l -2.6154785 -0.0871582 l -2.9968872 -0.06524658 l 0.0 0.0 l 0.0 0.0 l 0.0 0.0 l 9.014709 0.3008423 l 3.544983 0.19433594 l 3.0621338 0.19354248 l 25.507446 -43.42627 l -113.934326 48.458557 l -34.89325 7.1486206 l -214.25256 131.95447 l -23.105865 30.121582 l -20.405762 31.308777 l -17.676483 32.45343 l 87.03888 -122.87787 l 0.0 0.0 l 0.0 0.0 l 0.0 0.0 l 28.898743 -24.30896 " /> </g> </svg>