<?xml version="1.0" standalone="no"?><!DOCTYPE svg PUBLIC "-//W3C//DTD SVG 1.1//EN" "http://www.w3.org/Graphics/SVG/1.1/DTD/svg11.dtd" ><svg xmlns="http://www.w3.org/2000/svg" xmlns:xlink="http://www.w3.org/1999/xlink" version="1.1" viewBox="-10 0 692 1000"><g transform="matrix(1 0 0 -1 0 800)"><path stroke="black" fill="none" d="M 356.0 803.0 l 0.0 0.0 l -32.299988 24.869995 l -28.900024 26.609985 l -25.5 28.350037 l -22.09999 30.089966 l -75.737625 -40.921753 l 0.0 0.0 l 4.544693 -11.679626 l 37.192932 118.0014 l -11.899994 35.309998 l -51.66333 -24.777283 l 0.0 0.0 l 1.0103302 26.718506 l 0.0 0.0 l 7.40506 56.620056 l 0.23194885 0.1352539 l 6.781021 39.14856 l 9.995224 38.043823 l 12.977493 36.803833 l 15.959747 35.563843 l 18.941986 34.32373 l 21.924255 33.083984 l 26.524445 31.744995 l 0.0 0.0 l -0.0016174316 0.00012207031 l 28.384247 28.928955 l -7.5808105 27.68164 l 0.0 0.0 l 41.184265 0.3166504 l 32.927338 22.68164 l 9.55838 41.26172 l 27.18283 -20.170288 l 35.44571 16.474731 l 36.65085 13.479126 l 68.09158 13.619141 l 0.70214844 0.11694336 l -3.4230957 33.180298 l 53.1084 -26.87268 l 0.0 0.0 l -0.0016479492 0.0030517578 l -0.30303955 0.56640625 l 21.66626 28.823242 l 21.788635 -28.774536 l 40.091003 -4.654541 l 38.975647 -7.613159 l 37.860107 -10.5720215 l 36.74475 -13.530884 l 24.219849 4.665161 l 13.880066 -22.776245 l 34.404053 -19.664795 l 0.018493652 0.0048828125 l 33.105347 -22.775024 l 32.83429 -25.445557 l 0.0 0.0 l -0.00079345703 -0.00024414062 l 27.80951 -30.339478 l 25.672485 -31.2594 l 22.600403 -32.35852 l 19.528503 -33.457397 l 31.57666 -61.89978 l 0.25097656 -0.5708008 l -62.47998 -1.3776855 l 3.8400269 -36.049927 l 0.0 0.0 l 76.05292 -25.731934 l 0.0 0.0 l 8.363281 -83.089355 l 0.0 0.0 l -91.17621 32.141235 l -8.450012 -36.150024 l 87.8241 -77.31909 l 0.0 0.0 l 1.9202881 13.855896 l -116.78436 -4.456787 l 85.679016 -100.41223 l 0.3812256 0.82714844 l -126.62024 37.505066 l -25.350037 -28.849976 l -28.72998 -27.390015 l 0.0 0.0 l 18.200012 -10.459961 l 17.399963 -11.380005 l 16.600037 -12.299988 l 15.799988 -13.220032 l 15.0 -14.140015 l 14.200012 -15.059998 l 48.61371 21.337463 l -0.0068969727 -0.010375977 l -21.093567 -41.94586 l -22.167847 -35.356262 l 0.24383545 0.039611816 l 42.470764 -14.20459 l 9.179993 -19.919983 l 8.099976 -20.399963 l 7.0200195 -20.880005 l 5.9399414 -21.360046 l 4.8601074 -21.839966 l 3.7799072 -22.320007 l 2.7000732 -22.799988 l 1.6199951 -23.279999 l 0.0 0.0 l -1.3399658 -40.26001 l -4.0200195 -38.78 l -6.7000732 -37.299988 l -9.380005 -35.820007 l -12.059937 -34.339996 l -14.740051 -32.860016 l -17.419983 -31.37999 l -20.099976 -29.90001 l -22.78003 -28.419998 l 0.0 0.0 l -27.549988 -24.89 l -29.049988 -22.269989 l -30.549988 -19.65001 l -32.05005 -17.029999 l -33.549988 -14.409996 l -35.049988 -11.790001 l -36.549988 -9.170006 l -38.049988 -6.5499954 l -39.549988 -3.9300003 l 0.0 0.0 l -42.05005 1.3199997 l -40.549988 3.959999 l -87.347626 248.42728 l 0.0 0.0 l -15.211578 -20.860352 l 25.959229 -211.72693 l -65.51782 -105.35423 l 0.0 0.0 l 37.124695 -27.557426 l 0.0 0.0 l -96.17151 71.42786 l 0.0 0.0 l -3.6309204 2.7275925 l 19.387695 156.17404 l 0.0 0.0 l -43.286835 -57.40686 l -8.470154 -74.52167 l 0.14529419 -0.11603165 l -25.621857 21.936394 l -5.8085938 125.57033 l -23.799988 28.440002 l -21.000015 29.800003 l -18.199997 31.160004 l -15.400009 32.51999 l -12.599991 33.880005 l -9.800003 35.24002 l -7.0 36.599976 l -4.199997 37.960022 l 0.0 0.0 l 2.0899963 50.440002 l 458.9641 58.91974 l 0.0 0.0 l -75.81299 -128.05432 l 0.0 0.0 l -366.43112 160.65454 l 197.42221 4.9155884 l 0.0 0.0 l -1.8968811 0.9331665 l 215.63754 -41.827698 l 0.0 0.0 l -135.9347 12.729431 l 0.0 0.0 l -256.36285 195.23804 l -10.418655 18.33075 l 0.0 0.0 l 128.29979 -149.06549 l 0.0 0.0 l -21.796448 132.94623 l 35.53 25.480042 " /> </g> </svg>