<?xml version="1.0" standalone="no"?><!DOCTYPE svg PUBLIC "-//W3C//DTD SVG 1.1//EN" "http://www.w3.org/Graphics/SVG/1.1/DTD/svg11.dtd" ><svg xmlns="http://www.w3.org/2000/svg" xmlns:xlink="http://www.w3.org/1999/xlink" version="1.1" viewBox="-10 0 692 1000"><g transform="matrix(1 0 0 -1 0 800)"><path stroke="black" fill="none" d="M 162.27943 904.36914 l 0.30220032 -1.173523 l 12.333664 -36.38739 l -29.90686 131.5976 l -0.13719177 1.2241211 l 0.27496338 38.786987 l 0.03604126 1.1096802 l 5.6651154 51.123657 l 7.3927 39.436646 l 10.401657 38.196777 l 13.410599 36.956665 l 16.419556 35.716675 l 19.428467 34.476685 l 22.437454 33.236694 l 25.95169 31.96582 l 0.0 0.0 l -9.1552734e-05 0.0 l -0.00036621094 0.00012207031 l 30.202423 28.89624 l 32.611023 26.472168 l 33.261597 22.765259 l 35.22711 20.149902 l 35.69626 16.648315 l 36.897736 13.621094 l 46.955017 11.512573 l 25.95581 4.9833984 l 45.396057 5.449707 l 0.0 0.0 l -6.1035156e-05 0.00012207031 l -0.00048828125 0.0008544922 l 42.06482 -0.8334961 l 40.415527 -4.545288 l 39.311096 -7.533203 l 38.206482 -10.520996 l 37.10199 -13.509155 l 36.72113 -16.971802 l 34.86084 -19.54834 l 33.708008 -22.579102 l 32.863586 -25.48059 l 0.0 0.0 l -6.1035156e-05 0.0 l -0.00018310547 0.0 l 29.085693 -30.343384 l 26.27179 -31.372925 l 23.165771 -32.45862 l 20.059814 -33.544067 l 21.382568 -42.638306 l 9.17395 -23.248535 l 14.839355 -51.63257 l -0.15686035 0.79248047 l 9.792847 -87.078674 l 0.0 0.0 l -0.2783203 -6.744995 l -15.098022 -93.01141 l 0.3774414 1.3047485 l 8.253418 39.452393 l -43.504272 -139.10077 l 11.274048 26.368835 l -35.352783 -75.90985 l -0.03552246 -0.05303955 l -22.266724 -40.767456 l -24.764465 -39.297485 l -478.5302 -352.73013 l -1.9430542 -2.6470642 l -39.143433 -53.40915 l -36.311584 -294.2931 l 0.3518982 -0.2614088 l 38.289673 -28.436956 l 0.0 0.0 l 7.8175964 -5.8065834 l -90.66916 67.340866 l -0.33288574 0.24702072 l -17.179535 12.773331 l 29.192474 154.49225 l -1.6267395 -2.1918335 l -44.752686 -60.860435 l -16.36493 -66.46188 l 9.983185 -7.455559 l -29.65326 22.914127 l 365.24283 502.74432 l 0.0 0.0 l -28.744934 -3.5664062 l 0.0 0.0 l -69.3927 -133.05066 l -1.3267822 -1.8277893 l -143.8807 164.44846 l -1.1166382 0.4144287 l -57.8584 30.21576 l 250.2048 -62.536682 l 0.0 0.0 l 14.147034 -31.025574 l 0.0 0.0 l -137.26297 40.985962 l -1.0692139 0.20831299 l -241.41814 160.16046 l 0.0 0.0 l -36.421402 58.628662 l -0.41592407 0.760437 l 89.67761 -120.75537 l 0.0 0.0 l 15.083038 -12.813721 " /> </g> </svg>