<?xml version="1.0" standalone="no"?><!DOCTYPE svg PUBLIC "-//W3C//DTD SVG 1.1//EN" "http://www.w3.org/Graphics/SVG/1.1/DTD/svg11.dtd" ><svg xmlns="http://www.w3.org/2000/svg" xmlns:xlink="http://www.w3.org/1999/xlink" version="1.1" viewBox="-10 0 692 1000"><g transform="matrix(1 0 0 -1 0 800)"><path stroke="black" fill="none" d="M 160.7454 910.11145 l 6.6572113 -25.14624 l 12.430405 -35.861694 l -28.954498 114.7843 l -3.0880737 28.851685 l 0.0 0.0 l 1.0903473 32.776917 l 0.23136902 7.1536255 l 4.8624725 43.78125 l 7.503937 39.481445 l 10.520676 38.241577 l 13.537476 37.001465 l 16.554214 35.761475 l 19.570969 34.521362 l 22.587753 33.281494 l 25.755188 32.03235 l 0.0 0.0 l 0.0 0.0 l -3.0517578e-05 0.0 l 30.76361 28.884888 l 32.320374 26.025146 l 33.359467 22.789795 l 34.78366 19.874146 l 35.769623 16.699097 l 36.970062 13.66272 l 40.76425 10.895508 l 35.46234 6.833618 l 42.006836 4.8166504 l 0.0 0.0 l 0.0 0.0 l 0.0 0.0 l 41.769226 -1.3005371 l 40.51062 -4.5131836 l 39.4093 -7.5097656 l 38.307922 -10.5061035 l 37.206665 -13.502686 l 36.31732 -16.638184 l 34.994568 -19.51416 l 33.87915 -22.523193 l 32.85547 -25.494019 l 0.0 0.0 l 0.0 0.0 l 0.0 0.0 l 29.476074 -30.341309 l 26.447327 -31.40625 l 23.33136 -32.487793 l 20.215515 -33.56958 l 18.396729 -36.996704 l 12.614746 -32.0813 l 17.583374 -67.95801 l -5.2926025 25.742554 l 11.596802 -74.52173 l 0.0 0.0 l -0.009033203 -0.21057129 l -1.3198242 -31.4823 l -20.54419 -106.68585 l 7.497925 26.782288 l 7.9276123 38.527588 l -47.135742 -149.12695 l 15.124878 35.434692 l -36.14984 -78.06659 l -22.654175 -40.487793 l -25.525024 -40.451843 l -458.29266 -325.89532 l -26.64862 -36.32544 l -37.569794 -51.227997 l -42.45523 -282.34787 l 10.923859 -8.113096 l 24.36679 -18.09703 l 0.0 0.0 l 0.062194824 -0.04619026 l 26.62085 -19.770964 l -87.01404 64.624985 l -10.884247 8.08334 l -18.42807 13.6907215 l 50.55243 178.89291 l -26.533966 -36.16191 l -39.23474 -53.440605 l -18.793884 -64.01396 l 15.015564 -11.16394 l -32.868317 24.671906 l 366.19397 502.70206 l 0.0 0.0 l -17.3667 -2.21698 l 0.0 0.0 l -28.391846 -3.1651611 l 0.0 0.0 l 18.351196 1.961853 l 0.0 0.0 l -51.81537 -107.50583 l -26.39801 -35.990265 l -119.249695 165.58862 l -22.991669 8.984863 l -57.743835 30.787415 l 0.0 0.0 l 205.5062 -64.623535 l 0.0 0.0 l 39.05835 -0.3546753 l 0.0 0.0 l 25.534058 -39.62683 l -0.004638672 0.01739502 l -120.75943 46.25348 l -24.248566 4.9627686 l -234.11063 154.81256 l -1.0097656 1.3071289 l -29.263382 44.856567 l -12.077469 22.17157 l 85.85327 -120.10913 l 0.0 0.0 l 0.036071777 -0.029174805 l 26.230316 -22.05841 " /> </g> </svg>