<?xml version="1.0" standalone="no"?><!DOCTYPE svg PUBLIC "-//W3C//DTD SVG 1.1//EN" "http://www.w3.org/Graphics/SVG/1.1/DTD/svg11.dtd" ><svg xmlns="http://www.w3.org/2000/svg" xmlns:xlink="http://www.w3.org/1999/xlink" version="1.1" viewBox="-10 0 692 1000"><g transform="matrix(1 0 0 -1 0 800)"><path stroke="black" fill="none" d="M 160.11137 912.48486 l 9.51384 -35.916748 l 12.2404175 -34.78235 l -28.560867 107.83502 l -4.0780487 38.241577 l 0.0 0.0 l 0.0 0.0 l 0.0 0.0 l 1.5097961 41.973755 l 4.530716 40.74646 l 7.5498962 39.5 l 10.569885 38.26001 l 13.589905 37.019897 l 16.609879 35.78003 l 19.629852 34.539917 l 22.649887 33.30005 l 25.670181 32.059937 l 0.0 0.0 l 0.0 0.0 l 0.0 0.0 l 30.999481 28.880005 l 32.200256 25.840332 l 33.399933 22.799927 l 34.600372 19.760254 l 35.799957 16.720093 l 36.99994 13.679932 l 38.205475 10.640503 l 39.39154 7.5983887 l 40.603027 4.560547 l 0.0 0.0 l 0.0 0.0 l 0.0 0.0 l 41.65027 -1.4995117 l 40.549927 -4.500122 l 39.44989 -7.5 l 38.349915 -10.5 l 37.249878 -13.5 l 36.15039 -16.500244 l 35.049866 -19.500122 l 33.94989 -22.5 l 32.849976 -25.5 l 0.0 0.0 l 0.0 0.0 l 0.0 0.0 l 29.639648 -30.340088 l 26.519897 -31.419922 l 23.39978 -32.5 l 20.279907 -33.579956 l 17.162598 -34.66504 l 14.036987 -35.732056 l 18.71753 -74.70557 l -7.7946777 37.8739 l 12.478394 -76.87134 l 0.0 0.0 l 0.0 0.0 l 0.0 0.0 l -1.5197754 -36.28369 l -22.795166 -112.33777 l 10.633301 38.005737 l 7.600586 37.45233 l -48.63672 -153.271 l 16.716675 39.181824 l -36.47937 -78.95807 l -22.799683 -40.35028 l -25.839355 -40.929016 l -449.92807 -314.8039 l -36.87787 -50.269867 l -36.90146 -50.302032 l -44.994507 -277.41064 l 17.0867 -12.690113 l 17.130829 -12.722931 l 17.047028 -12.660635 l 17.121582 -12.716034 l -85.503265 63.502426 l -17.086609 12.690049 l -17.102875 12.702133 l 59.38095 188.97821 l -36.877655 -50.26953 l -36.90503 -50.306763 l -19.797821 -63.002182 l 17.09552 -12.69669 l -34.197144 25.398434 l 368.99902 503.00003 l 0.0 0.0 l 0.0 0.0 l 0.0 0.0 l -5.874817 -0.7753906 l -5.826111 -0.7522583 l -5.588196 -0.70458984 l -5.1989746 -0.638916 l -35.862 -3.7099 l 0.22424316 0.01776123 l 2.9037476 0.22924805 l 4.34729 0.3703003 l 4.167053 0.38397217 l 0.0 0.0 l 6.1035156e-05 0.0 l 0.00012207031 0.0 l 4.3999023 0.45281982 l 4.7736206 0.51330566 l 4.8655396 0.54418945 l 4.852417 0.5617676 l -46.00067 -97.115265 l -36.87738 -50.269135 l -108.95224 166.21863 l -32.87863 12.861633 l -32.06784 15.829895 l -30.684998 18.460693 l 200.37473 -68.60956 l 41.9364 -1.295044 l -1.6870728 -0.056274414 l -3.3754883 -0.07788086 l 0.0 0.0 l 6.1035156e-05 0.0 l 0.0 0.0 l 9.049744 0.30291748 l 4.088135 0.22888184 l 2.0534058 0.12976074 l 25.935913 -43.39331 l -113.94476 48.45526 l -34.877045 7.1452637 l -214.28284 131.98932 l -23.071747 30.077087 l -20.419693 31.330017 l -17.667938 32.437744 l 87.03618 -122.872925 l 0.0 0.0 l 0.0 0.0 l 0.0 0.0 l 28.8956 -24.306274 " /> </g> </svg>