<?xml version="1.0" standalone="no"?><!DOCTYPE svg PUBLIC "-//W3C//DTD SVG 1.1//EN" "http://www.w3.org/Graphics/SVG/1.1/DTD/svg11.dtd" ><svg xmlns="http://www.w3.org/2000/svg" xmlns:xlink="http://www.w3.org/1999/xlink" version="1.1" viewBox="-10 0 692 1000"><g transform="matrix(1 0 0 -1 0 800)"><path stroke="black" fill="none" d="M 356.0 803.0 l 0.0 0.0 l -32.299988 24.869995 l -28.900024 26.609985 l -25.5 28.350037 l -22.09999 30.089966 l -75.93297 -38.88849 l 0.0 0.0 l 41.93297 104.28851 l -11.899994 35.309998 l -48.019547 -11.69574 l 0.0 0.0 l 11.488068 74.171326 l 0.022918701 0.013427734 l 5.693573 38.748535 l 8.60762 37.521973 l 11.498749 36.28186 l 14.389862 35.04187 l 17.28099 33.80188 l 20.172134 32.56201 l 27.335861 31.060913 l 0.0 0.0 l 23.315186 28.97107 l -0.89541626 27.540894 l 0.0 0.0 l 37.887146 5.668335 l 31.786163 22.395752 l 13.996674 36.195923 l 27.91391 -11.890137 l 34.590363 15.882324 l 35.807922 12.994629 l 66.68323 8.654663 l 0.0 0.0 l -0.34539795 31.058472 l 51.812805 -24.450928 l 0.0 0.0 l -0.09069824 0.16955566 l 22.747864 26.801392 l 25.116821 -23.112305 l 38.983032 -5.0272217 l 37.830322 -7.8865967 l 36.67755 -10.745972 l 35.52484 -13.605469 l 25.547424 -0.10241699 l 17.26007 -21.898193 l 32.844482 -20.062378 l 0.006225586 0.0017089844 l 31.12323 -23.424194 l 32.07257 -25.452515 l 0.0 0.0 l 24.11145 -30.200195 l 23.62622 -30.872192 l 20.670166 -32.016724 l 17.714233 -33.161255 l 36.808105 -60.813965 l 0.0 0.0 l -57.036743 -4.0201416 l 3.8400269 -36.049927 l 0.0 0.0 l 84.220764 -108.604065 l 0.0 0.0 l -90.980774 31.924011 l -8.450012 -36.150024 l 80.333496 -70.54187 l 0.0 0.0 l -107.373474 2.6218872 l 84.61908 -95.39349 l 0.0 0.0 l -125.17908 33.313477 l -25.350037 -28.849976 l -28.72998 -27.390015 l 0.0 0.0 l 18.200012 -10.459961 l 17.399963 -11.380005 l 16.600037 -12.299988 l 15.799988 -13.220032 l 15.0 -14.140015 l 14.200012 -15.059998 l 42.99756 12.9539795 l 0.0 0.0 l -16.997559 -45.833984 l -13.302307 -21.900024 l 0.02508545 0.0040893555 l 35.33722 -15.364075 l 9.179993 -19.919983 l 8.099976 -20.399963 l 7.0200195 -20.880005 l 5.9399414 -21.360046 l 4.8601074 -21.839966 l 3.7799072 -22.320007 l 2.7000732 -22.799988 l 1.6199951 -23.279999 l 0.0 0.0 l -1.3399658 -40.26001 l -4.0200195 -38.78 l -6.7000732 -37.299988 l -9.380005 -35.820007 l -12.059937 -34.339996 l -14.740051 -32.860016 l -17.419983 -31.37999 l -20.099976 -29.90001 l -22.78003 -28.419998 l 0.0 0.0 l -27.549988 -24.89 l -29.049988 -22.269989 l -30.549988 -19.65001 l -32.05005 -17.029999 l -33.549988 -14.409996 l -35.049988 -11.790001 l -36.549988 -9.170006 l -38.049988 -6.5499954 l -39.549988 -3.9300003 l 0.0 0.0 l -42.05005 1.3199997 l -40.549988 3.959999 l -99.226135 230.0405 l 0.0 0.0 l 22.62616 -214.2005 l -58.354187 -109.65892 l 0.0 0.0 l -65.342865 48.447495 l 0.0 0.0 l 10.762726 136.2801 l -35.33304 -29.768188 l -13.95163 -75.90185 l 0.0 0.0 l -12.865234 17.403267 l -16.765778 126.078094 l -23.799988 28.440002 l -21.000015 29.800003 l -18.199997 31.160004 l -15.400009 32.51999 l -12.599991 33.880005 l -9.800003 35.24002 l -7.0 36.599976 l -4.199997 37.960022 l 0.0 0.0 l 2.0899963 50.440002 l 388.2898 -46.707428 l 0.0 0.0 l -371.5698 138.22739 l 130.48502 37.760803 l 0.0 0.0 l 122.56885 -52.7016 l 0.0 0.0 l -243.30652 203.26929 l 0.0 0.0 l 73.85266 -42.728455 l 31.350006 28.599976 l 35.53 25.480042 " /> </g> </svg>