<?xml version="1.0" standalone="no"?><!DOCTYPE svg PUBLIC "-//W3C//DTD SVG 1.1//EN" "http://www.w3.org/Graphics/SVG/1.1/DTD/svg11.dtd" ><svg xmlns="http://www.w3.org/2000/svg" xmlns:xlink="http://www.w3.org/1999/xlink" version="1.1" viewBox="-10 0 692 1000"><g transform="matrix(1 0 0 -1 0 800)"><path stroke="black" fill="none" d="M 160.11467 912.4725 l 9.498947 -35.860596 l 12.241394 -34.787964 l -28.562912 107.87128 l -4.0733795 38.19696 l 0.0 0.0 l 0.0 0.0 l 0.0 0.0 l 1.5093079 41.95868 l 4.53244 40.76233 l 7.5496674 39.499878 l 10.569626 38.259888 l 13.58963 37.019897 l 16.609589 35.779907 l 19.629547 34.539795 l 22.649551 33.299927 l 25.670639 32.059814 l 0.0 0.0 l 0.0 0.0 l 0.0 0.0 l 30.99826 28.880005 l 32.200867 25.841309 l 33.39972 22.799927 l 34.60132 19.760864 l 35.799805 16.719849 l 36.999786 13.679932 l 38.21884 10.641846 l 39.371033 7.5943604 l 40.61035 4.5618896 l 0.0 0.0 l 0.0 0.0 l 0.0 0.0 l 41.65088 -1.4985352 l 40.549744 -4.500122 l 39.449707 -7.5 l 38.34967 -10.500122 l 37.249634 -13.5 l 36.151245 -16.500977 l 35.04962 -19.500122 l 33.949463 -22.500122 l 32.850037 -25.5 l 0.0 0.0 l 0.0 0.0 l 0.0 0.0 l 29.638794 -30.340088 l 26.51947 -31.4198 l 23.399475 -32.5 l 20.279541 -33.579956 l 17.169067 -34.677124 l 14.029541 -35.713013 l 18.71167 -74.67041 l -7.781616 37.81067 l 12.474121 -76.850464 l 0.0 0.0 l 0.0 0.0 l 0.0 0.0 l -1.519165 -36.26837 l -22.783447 -112.30829 l 10.616943 37.947144 l 7.602417 37.457947 l -48.62903 -153.24939 l 16.708374 39.162292 l -36.4776 -78.95337 l -22.79889 -40.351013 l -25.837769 -40.926514 l -449.97168 -314.86176 l -36.824524 -50.197144 l -36.904938 -50.306854 l -44.981262 -277.4364 l 17.054535 -12.666244 l 17.205414 -12.778294 l 16.919037 -12.565603 l 17.173706 -12.754734 l -85.51114 63.508278 l -17.05426 12.666024 l -17.109772 12.707291 l 59.3349 188.92563 l -36.82373 -50.19597 l -36.917175 -50.323105 l -19.792603 -63.007458 l 17.084686 -12.688694 l -34.190216 25.394646 l 368.99542 502.99988 l 0.0 0.0 l 0.0 0.0 l -0.00012207031 0.0 l -5.788574 -0.76397705 l -6.0580444 -0.7817993 l -5.680298 -0.7156372 l -4.786133 -0.5881958 l -35.457214 -3.6854248 l 0.07092285 0.0056152344 l 1.4353027 0.113464355 l 5.2825317 0.44348145 l 4.2974243 0.39520264 l 0.0 0.0 l 0.0007324219 6.1035156e-05 l 0.018188477 0.0018310547 l 4.1954346 0.43182373 l 5.0721436 0.54541016 l 4.951355 0.5545044 l 4.471985 0.5177002 l -45.88159 -97.15213 l -36.822754 -50.19467 l -109.00592 166.21533 l -32.827087 12.841431 l -32.473053 16.071045 l -30.165985 18.148438 l 200.31384 -68.53595 l 40.368713 -1.3430786 l -0.062927246 -0.0021362305 l -3.4884033 -0.081848145 l -0.0020141602 -6.1035156e-05 l 0.0 0.0 l 0.00018310547 0.0 l 9.1651 0.30981445 l 0.022521973 0.0012817383 l 5.7192383 0.33288574 l 0.07312012 0.0045776367 l 26.13562 -43.360596 l -113.98035 48.443848 l -34.821594 7.133911 l -214.38626 132.10834 l -22.955261 29.92517 l -20.46724 31.402405 l -17.638779 32.384277 l 87.02698 -122.85608 l 0.0 0.0 l 0.0 0.0 l 0.0 0.0 l 28.884918 -24.29718 " /> </g> </svg>