<?xml version="1.0" standalone="no"?><!DOCTYPE svg PUBLIC "-//W3C//DTD SVG 1.1//EN" "http://www.w3.org/Graphics/SVG/1.1/DTD/svg11.dtd" ><svg xmlns="http://www.w3.org/2000/svg" xmlns:xlink="http://www.w3.org/1999/xlink" version="1.1" viewBox="-10 0 692 1000"><g transform="matrix(1 0 0 -1 0 800)"><path stroke="black" fill="none" d="M 160.29611 911.79333 l 8.681519 -32.778564 l 12.295776 -35.096863 l -28.675568 109.8598 l -3.809021 35.68097 l 0.0 0.0 l 0.00015258789 -0.0014038086 l 1.1765594 31.998718 l 0.29769897 9.2057495 l 4.6273804 41.63086 l 7.5365143 39.494507 l 10.555542 38.25464 l 13.574631 37.014526 l 16.593658 35.77466 l 19.612701 34.534424 l 22.631775 33.294678 l 25.69519 32.05188 l 0.0 0.0 l 0.0 0.0 l 0.0 0.0 l 30.930511 28.88147 l 32.23526 25.894165 l 33.388123 22.796997 l 34.653778 19.793457 l 35.791138 16.713867 l 36.99121 13.674927 l 38.95102 10.714844 l 38.246704 7.3754883 l 41.012268 4.6348877 l 0.0 0.0 l 0.0 0.0 l 0.0 0.0 l 41.684753 -1.4411621 l 40.538452 -4.5039062 l 39.43805 -7.5028076 l 38.337708 -10.501831 l 37.237305 -13.500732 l 36.198975 -16.540527 l 35.033752 -19.50415 l 33.92926 -22.506836 l 32.851746 -25.498169 l 0.0 0.0 l 0.0 0.0 l 0.0 0.0 l 29.591858 -30.340454 l 26.498718 -31.415894 l 23.379883 -32.49646 l 20.261047 -33.577026 l 17.522339 -35.34436 l 13.622559 -34.668335 l 18.387085 -72.7395 l -7.065674 34.33911 l 12.236206 -75.84131 l 0.0 0.0 l -0.00012207031 -0.00390625 l -0.03125 -0.73205566 l -1.4475098 -34.55548 l -22.139282 -110.69104 l 9.719727 34.735596 l 7.695923 37.765686 l -48.199463 -152.0636 l 16.25293 38.090027 l -36.38336 -78.6983 l -22.757263 -40.39038 l -25.747742 -40.789917 l -452.36526 -318.03558 l -33.89743 -46.20694 l -37.09616 -50.571808 l -44.25467 -278.8492 l 15.291077 -11.356526 l 21.29544 -15.815974 l 0.4230957 -0.31422424 l 9.475067 -7.037014 l 20.033112 -14.878365 l -85.94345 63.829502 l -15.279449 11.347811 l -17.489014 12.990175 l 56.808624 186.0397 l -33.86386 -46.159058 l -37.58383 -51.219856 l -19.50531 -63.29698 l 16.489502 -12.250099 l -33.809967 25.186745 l 367.61368 502.83743 l 0.0 0.0 l -0.32122803 -0.0423584 l -18.34076 -2.3452148 l -0.78253174 -0.09680176 l 0.0 0.0 l -28.70288 -3.1729126 l 0.0 0.0 l 5.6936646 0.5545654 l 0.0 0.0 l 13.718689 1.5110474 l 0.5718384 0.06567383 l 0.0 0.0 l -46.660583 -100.02316 l -33.824097 -46.108765 l -111.952545 166.03506 l -29.997925 11.732056 l -54.707367 29.30487 l -1.7368469 1.0446167 l 197.02072 -64.52777 l 0.020324707 -0.0005493164 l 33.694397 -1.3081055 l 0.0 0.0 l 16.276184 0.77441406 l 0.0 0.0 l 24.103333 -42.408936 l -0.03277588 0.12237549 l -115.898895 47.69641 l -31.780273 6.5093994 l -220.05998 138.63922 l -16.563492 21.589844 l -23.076584 35.375854 l -16.039062 29.446533 l 86.57115 -121.97015 l 0.0 0.0 l 0.0009460449 -0.00079345703 l 0.04196167 -0.033996582 l 28.207 -23.722534 " /> </g> </svg>