<?xml version="1.0" standalone="no"?><!DOCTYPE svg PUBLIC "-//W3C//DTD SVG 1.1//EN" "http://www.w3.org/Graphics/SVG/1.1/DTD/svg11.dtd" ><svg xmlns="http://www.w3.org/2000/svg" xmlns:xlink="http://www.w3.org/1999/xlink" version="1.1" viewBox="-10 0 692 1000"><g transform="matrix(1 0 0 -1 0 800)"><path stroke="black" fill="none" d="M 160.1645 912.28595 l 9.274414 -35.014038 l 12.256332 -34.872803 l -28.593857 108.41742 l -4.002289 37.519775 l 0.0 0.0 l 0.0 -0.00012207031 l 3.0517578e-05 -0.00024414062 l 1.5012054 41.73761 l 4.5585327 41.000977 l 7.546051 39.498413 l 10.56575 38.258423 l 13.58551 37.018433 l 16.605225 35.778442 l 19.624924 34.53833 l 22.644669 33.298462 l 25.677399 32.057617 l 0.0 0.0 l 0.0 0.0 l 0.0 0.0 l 30.979614 28.880493 l 32.210327 25.855835 l 33.396545 22.799072 l 34.615723 19.769775 l 35.797424 16.718262 l 36.997406 13.678467 l 38.419983 10.661865 l 39.062195 7.5343018 l 40.720764 4.581909 l 0.0 0.0 l 0.0 0.0 l 0.0 0.0 l 41.660156 -1.4827881 l 40.54663 -4.5010986 l 39.446533 -7.5008545 l 38.346375 -10.500488 l 37.246277 -13.500244 l 36.164368 -16.51184 l 35.045227 -19.50122 l 33.94391 -22.501953 l 32.850525 -25.499512 l 0.0 0.0 l 0.0 0.0 l 0.0 0.0 l 29.625916 -30.34021 l 26.513733 -31.418701 l 23.394104 -32.499023 l 20.274475 -33.5791 l 17.266113 -34.860474 l 13.917725 -35.426025 l 18.622559 -74.140015 l -7.584961 36.857056 l 12.409912 -76.5459 l 0.0 0.0 l 0.0 -0.00024414062 l -0.00012207031 -0.0010986328 l -1.5091553 -36.026062 l -22.606567 -111.864075 l 10.370483 37.065063 l 7.628174 37.54248 l -48.510986 -152.9237 l 16.583252 38.867798 l -36.451782 -78.88336 l -22.787476 -40.361816 l -25.812988 -40.888977 l -450.62912 -315.73352 l -36.02057 -49.101166 l -36.957428 -50.37964 l -44.781708 -277.82443 l 16.57019 -12.306505 l 18.328796 -13.612647 l 2.3206482 -1.7235126 l 12.669983 -9.40987 l 17.959076 -13.338028 l -85.62988 63.596508 l -16.566772 12.303952 l -17.213928 12.784988 l 58.64102 188.13295 l -36.010773 -49.087143 l -37.10028 -50.56942 l -19.713684 -63.086987 l 16.921204 -12.568226 l -34.085754 25.33754 l 368.73752 502.97134 l 0.0 0.0 l -0.014282227 -0.0018920898 l -4.272705 -0.56396484 l -9.553345 -1.2272339 l -6.994629 -0.8726196 l -0.17364502 -0.021362305 l -32.7865 -3.506775 l 0.0 0.0 l 1.4205933 0.117370605 l 9.000977 0.8464966 l 0.0 0.0 l 0.13256836 0.013671875 l 8.101379 0.8786011 l 6.162903 0.69976807 l 0.18469238 0.02130127 l -45.451416 -97.86612 l -35.999146 -49.072388 l -109.81525 166.1658 l -32.05002 12.536743 l -38.58011 19.705933 l -22.343567 13.442261 l 199.39551 -67.4267 l 0.1593628 -0.004699707 l 36.466614 -1.3752441 l -0.5118408 -0.012145996 l 0.0 0.0 l 10.512085 0.39868164 l 0.0 0.0 l 0.56469727 0.033203125 l 29.68634 -42.850464 l -114.5163 48.272156 l -33.986267 6.9624023 l -215.94464 133.90216 l -21.199646 27.635742 l -21.183945 32.493774 l -17.199387 31.577332 l 86.89227 -122.60504 l 0.0 0.0 l 6.1035156e-05 -6.1035156e-05 l 0.00021362305 -0.00018310547 l 28.719727 -24.156372 " /> </g> </svg>