<?xml version="1.0" standalone="no"?>
<!DOCTYPE svg PUBLIC "-//W3C//DTD SVG 1.1//EN" "http://www.w3.org/Graphics/SVG/1.1/DTD/svg11.dtd" >
<svg xmlns="http://www.w3.org/2000/svg" xmlns:xlink="http://www.w3.org/1999/xlink" version="1.1" viewBox="-10 0 1274 2048">
  <g transform="matrix(1 0 0 -1 0 1638)">
   <path fill="currentColor"
d="M87 782q0 369 172 589q154 199 373 199t373 -199q172 -220 172 -599q0 -378 -172 -598q-154 -199 -372 -199t-374 199q-172 220 -172 608zM316 781q0 -257 89 -427q89 -167 227 -167q137 0 227 167q90 166 90 419t-90 420q-90 166 -227 166q-136 0 -226 -166
q-90 -165 -90 -412z" />
  </g>

</svg>
