<?xml version="1.0" standalone="no"?>
<!DOCTYPE svg PUBLIC "-//W3C//DTD SVG 1.1//EN" "http://www.w3.org/Graphics/SVG/1.1/DTD/svg11.dtd" >
<svg xmlns="http://www.w3.org/2000/svg" xmlns:xlink="http://www.w3.org/1999/xlink" version="1.1" viewBox="-10 0 1274 2048">
  <g transform="matrix(1 0 0 -1 0 1638)">
   <path fill="currentColor"
d="M1077 1326h-476l-76 -256q17 2 32.5 3t28.5 1q225 0 369 -152q145 -151 145 -387q0 -244 -164 -402t-413 -158q-307 0 -484 288l176 149q73 -124 147 -175q74 -50 181 -50q140 0 235 98q95 101 95 245q0 148 -94 242q-94 97 -235 97q-157 0 -271 -137h-77l243 812h638
v-218z" />
  </g>

</svg>
