<?xml version="1.0" standalone="no"?>
<!DOCTYPE svg PUBLIC "-//W3C//DTD SVG 1.1//EN" "http://www.w3.org/Graphics/SVG/1.1/DTD/svg11.dtd" >
<svg xmlns="http://www.w3.org/2000/svg" xmlns:xlink="http://www.w3.org/1999/xlink" version="1.1" viewBox="-10 0 1274 2048">
  <g transform="matrix(1 0 0 -1 0 1638)">
   <path fill="currentColor"
d="M460 -53l-171 127l369 503q-30 -4 -51 -6t-34 -2q-187 0 -324 143q-136 142 -136 342q0 213 151 364q152 152 364 152q211 0 367 -150q156 -149 156 -352q0 -180 -152 -389zM340 1071q0 -125 85 -210q86 -86 207 -86t206 85q86 86 86 207t-86 207q-85 85 -207 85
q-120 0 -205 -85q-86 -86 -86 -203z" />
  </g>

</svg>
