<?xml version="1.0" standalone="no"?>
<!DOCTYPE svg PUBLIC "-//W3C//DTD SVG 1.1//EN" "http://www.w3.org/Graphics/SVG/1.1/DTD/svg11.dtd" >
<svg xmlns="http://www.w3.org/2000/svg" xmlns:xlink="http://www.w3.org/1999/xlink" version="1.1" viewBox="-10 0 841 2048">
  <g transform="matrix(1 0 0 -1 0 1638)">
   <path fill="currentColor"
d="M708 808l-186 -99q-44 90 -109 90q-31 0 -53 -20.5t-22 -52.5q0 -56 130 -111q179 -77 241 -142t62 -175q0 -141 -104 -236q-101 -90 -244 -90q-245 0 -347 239l192 89q40 -70 61 -89q41 -38 98 -38q114 0 114 104q0 60 -88 112q-34 17 -68 33t-69 33q-98 48 -138 96
q-51 61 -51 157q0 127 87 210q89 83 216 83q187 0 278 -193z" />
  </g>

</svg>
