<?xml version="1.0" standalone="no"?>
<!DOCTYPE svg PUBLIC "-//W3C//DTD SVG 1.1//EN" "http://www.w3.org/Graphics/SVG/1.1/DTD/svg11.dtd" >
<svg xmlns="http://www.w3.org/2000/svg" xmlns:xlink="http://www.w3.org/1999/xlink" version="1.1" viewBox="-10 0 1143 2048">
  <g transform="matrix(1 0 0 -1 0 1638)">
   <path fill="currentColor"
d="M1029 434h-698q9 -120 78 -191q69 -70 177 -70q84 0 139 40q54 40 123 148l190 -106q-44 -75 -93 -128.5t-105 -88t-121 -50.5t-141 -16q-218 0 -350 140q-132 141 -132 374q0 231 128 374q129 141 342 141q215 0 340 -137q124 -136 124 -377zM798 618q-47 180 -227 180
q-41 0 -77 -12.5t-65.5 -36t-50.5 -56.5t-32 -75h452z" />
  </g>

</svg>
