<?xml version="1.0" standalone="no"?>
<!DOCTYPE svg PUBLIC "-//W3C//DTD SVG 1.1//EN" "http://www.w3.org/Graphics/SVG/1.1/DTD/svg11.dtd" >
<svg xmlns="http://www.w3.org/2000/svg" xmlns:xlink="http://www.w3.org/1999/xlink" version="1.1" viewBox="-10 0 1221 2048">
  <g transform="matrix(1 0 0 -1 0 1638)">
   <path fill="currentColor"
d="M185 0v1544h232q155 0 247 -24q93 -24 157 -81q65 -59 103 -147q39 -89 39 -180q0 -166 -127 -281q123 -42 194 -147q72 -104 72 -242q0 -181 -128 -306q-77 -77 -173 -107q-105 -29 -263 -29h-353zM418 881h73q130 0 190.5 57.5t60.5 169.5q0 109 -62 165.5t-180 56.5
h-82v-449zM418 219h144q158 0 232 62q78 67 78 170q0 100 -75 168q-73 67 -261 67h-118v-467z" />
  </g>

</svg>
