<?xml version="1.0" standalone="no"?>
<!DOCTYPE svg PUBLIC "-//W3C//DTD SVG 1.1//EN" "http://www.w3.org/Graphics/SVG/1.1/DTD/svg11.dtd" >
<svg xmlns="http://www.w3.org/2000/svg" xmlns:xlink="http://www.w3.org/1999/xlink" version="1.1" viewBox="-10 0 1445 2048">
  <g transform="matrix(1 0 0 -1 0 1638)">
   <path fill="currentColor"
d="M1326 1461v-276q-202 169 -418 169q-238 0 -401 -171q-164 -170 -164 -416q0 -243 164 -410t402 -167q123 0 209 40q48 20 99.5 54t108.5 82v-281q-200 -113 -420 -113q-331 0 -565 231q-233 233 -233 562q0 295 195 526q240 283 621 283q208 0 402 -113z" />
  </g>

</svg>
