<?xml version="1.0" standalone="no"?><!DOCTYPE svg PUBLIC "-//W3C//DTD SVG 1.1//EN" "http://www.w3.org/Graphics/SVG/1.1/DTD/svg11.dtd" ><svg xmlns="http://www.w3.org/2000/svg" xmlns:xlink="http://www.w3.org/1999/xlink" version="1.1" viewBox="-10 0 692 1000"><g transform="matrix(1 0 0 -1 0 800)"><path stroke="black" fill="none" d="M 1069.0303 528.6267 l 1.2789307 35.62097 l 0.0 0.0 l 0.0 0.00012207031 l 0.0 0.0004272461 l -2.1450195 26.39502 l -2.9866943 -96.6192 l -6.4353027 -33.51068 l -8.896973 -32.05243 l -11.542236 -31.231384 l -14.069946 -30.018402 l -57.603516 -83.40762 l 0.0 0.0 l 0.0 0.0 l 0.0 0.0 l 21.790466 26.724152 l 19.158752 27.740143 l -88.866455 -96.43947 l -16.715454 -12.099472 l 33.0802 25.161255 l 15.956909 13.978516 l -159.88477 -91.094574 l 21.490845 5.499649 l 0.0 0.0 l 6.1035156e-05 1.5258789e-05 l 0.0 0.0 l 18.59198 7.3948975 l 18.328735 8.387039 l 17.923218 9.323151 l 17.352966 10.149857 l -116.32898 -45.697235 l -23.63208 -4.3467255 l -24.759338 -3.7764893 l -25.712585 -3.1828918 l -26.88855 -2.6149902 l -27.82489 -2.0252686 l -58.9339 -2.32016 l 29.940735 0.86798096 l -65.27887 -0.86927795 l -70.55362 -0.00010681152 l 35.223297 0.0 l -70.595215 0.0 l -35.275543 0.0 l -70.60306 0.0 l 35.29184 0.0 l -70.65271 -6.1035156e-05 l -35.22473 0.0 l -78.02928 -154.57988 l 0.0058288574 154.40004 l 42.700623 0.17990112 l -42.706818 154.22035 l 0.00050354004 308.58966 l -4.5776367e-05 -154.1152 l -1.5258789e-05 308.728 l 0.00010681152 154.38226 l -9.1552734e-05 154.44714 l -7.6293945e-05 155.01953 l 0.0 153.48926 l 92.65109 154.65906 l -23.467285 0.0 l -22.641907 0.0 l -46.413895 0.0 l 23.031631 0.0 l 139.36353 0.0 l 23.018341 0.0 l -69.41431 0.0 l 23.0307 0.0 l 92.84204 0.0 l 0.0 0.0 l 0.0 0.0 l 0.0 0.0 l -23.186127 0.0 l 53.60492 -0.24133301 l 29.047516 -0.71850586 l 204.6405 -29.436768 l 17.018555 -6.4005127 l 16.585815 -7.1152344 l 16.034668 -7.79187 l 15.370422 -8.408325 l -83.17578 35.63745 l -17.967834 5.0343018 l 0.0 0.0 l 6.1035156e-05 0.0 l 0.00024414062 -0.00012207031 l -20.172607 4.0563965 l -21.81372 3.6435547 l -23.097107 3.1480713 l -23.49347 2.5766602 l -52.04251 3.8544922 l 26.537445 -1.6767578 l 244.24194 -75.06885 l -14.1311035 9.668701 l 27.878235 -20.13147 l 0.0 0.0 l 0.0 0.0 l -6.1035156e-05 0.0 l 12.79541 -12.158081 l 12.0546875 -12.529419 l 11.707581 -13.308838 l 11.180481 -13.922852 l 10.485779 -14.295288 l 10.053955 -15.022339 l 40.924194 -84.231445 l 5.8042603 -17.759644 l 9.366272 -35.931274 l -4.279236 17.935303 l -24.963318 71.533936 l 0.0 0.0 l 0.0 0.0 l 0.0 0.0 l 7.401123 -17.798706 l -15.8255005 34.554443 l -8.926086 16.107056 l 54.795593 -176.62549 l 1.164856 -18.057007 l 0.0 0.0 l 0.0 0.0 l 0.0 0.0 l -1.2697754 -32.661865 l -1.8548584 68.931885 l -2.7230225 18.014282 l 0.7583008 -118.68921 l -6.331238 -30.558716 l -8.897034 -29.667358 l -11.455383 -28.664795 l -13.940186 -27.531128 l -16.511719 -26.576294 l -19.064453 -25.572815 l 2.366211 -33.493958 l -23.946777 8.979614 l 0.0 0.0 l 0.0 0.0 l 6.1035156e-05 0.0 l 47.164734 -19.344238 l 22.067444 -11.594421 l 20.804565 -12.714966 l 154.75427 -245.19324 l -5.0288086 25.164368 l -14.360352 48.28528 l 7.861084 -23.681946 l -17.253052 46.962463 l -22.984802 44.230225 l 12.148743 -21.657349 l -25.895996 42.91638 l 0.0 0.0 l 0.0 6.1035156e-05 l -0.00024414062 0.00024414062 l -15.610168 18.928284 l -17.046875 18.120972 l -17.712585 16.471558 l -18.888123 15.339172 " /> </g> </svg>