<?xml version="1.0" standalone="no"?><!DOCTYPE svg PUBLIC "-//W3C//DTD SVG 1.1//EN" "http://www.w3.org/Graphics/SVG/1.1/DTD/svg11.dtd" ><svg xmlns="http://www.w3.org/2000/svg" xmlns:xlink="http://www.w3.org/1999/xlink" version="1.1" viewBox="-10 0 692 1000"><g transform="matrix(1 0 0 -1 0 800)"><path stroke="black" fill="none" d="M 1069.0308 528.6431 l 1.2736816 35.60919 l 0.0 0.0 l -0.00012207031 0.0018920898 l -0.0146484375 0.17871094 l -2.0914307 25.735474 l -3.0512695 -96.327576 l -6.5203857 -33.777863 l -8.744385 -31.503052 l -11.596313 -31.403717 l -14.045532 -29.966248 l -57.61206 -83.426025 l 0.0 0.0 l 0.0 0.0 l 0.0 0.0 l 21.864075 26.83078 l 19.05896 27.595673 l -88.857605 -96.41409 l -16.68042 -12.074051 l 33.08069 25.164246 l 15.925232 13.95076 l -159.77551 -91.05725 l 21.400635 5.476349 l 0.0 0.0 l 0.00012207031 4.5776367e-05 l 0.0006713867 0.0002746582 l 18.4953 7.3564453 l 18.518677 8.476456 l 18.051758 9.4032135 l 17.022156 9.956345 l -116.25409 -45.642303 l -23.588684 -4.3387604 l -24.878479 -3.7921448 l -25.574036 -3.1657715 l -27.029846 -2.62706 l -27.667786 -2.013855 l -58.87091 -2.3205261 l 29.77362 0.8631134 l -65.203735 -0.86753845 l -70.44168 -0.00035095215 l 35.038116 0.0 l -70.58365 0.0 l -35.21646 0.0 l -70.610565 0.0 l 35.272217 0.0 l -70.77997 -0.00022888184 l -35.04306 4.5776367e-05 l -78.07582 -154.57976 l 0.01991272 154.40013 l 42.677963 0.17979431 l -42.699112 154.2211 l 0.0017089844 308.0818 l -0.00015258789 -153.42752 l -1.5258789e-05 308.55417 l 0.00036621094 154.33954 l -0.00032043457 154.56116 l -0.0002593994 156.51501 l 0.0 151.29053 l 92.29161 155.2843 l -24.112625 0.0 l -21.294495 0.0 l -46.447464 0.0 l 22.625137 0.0 l 139.75832 0.0 l 22.579803 0.0 l -68.966064 0.0 l 22.621979 0.0 l 92.943054 0.0 l 0.0 0.0 l -3.0517578e-05 0.0 l -3.0517578e-05 0.0 l -23.15213 0.0 l 53.68933 -0.24438477 l 28.896576 -0.7147217 l 204.90741 -29.525757 l 16.70111 -6.281006 l 16.624146 -7.1279297 l 16.142395 -7.8446045 l 15.274902 -8.356079 l -83.96246 35.848633 l -17.120361 4.7973633 l 0.0 0.0 l 0.0009765625 -0.00036621094 l -14.760376 2.961792 l -5.1499634 1.0437012 l -22.450378 3.748169 l -23.790344 3.2160645 l -22.101501 2.4240723 l -52.33844 3.8892822 l 26.410767 -1.6689453 l 244.12573 -74.945435 l -13.844116 9.472412 l 27.777222 -20.062134 l 0.0 0.0 l 0.0 0.0 l -6.1035156e-05 0.0 l 12.953552 -12.322632 l 11.727905 -12.190308 l 11.846558 -13.450928 l 11.350708 -14.146973 l 10.282532 -14.017944 l 10.111633 -15.100464 l 41.006958 -84.47632 l 5.6936646 -17.421387 l 9.381531 -35.958008 l -4.253479 17.82727 l -24.97113 71.56726 l 0.0 0.0 l 0.0 0.0 l 0.0 0.0 l 7.3796387 -17.74707 l -15.838684 34.56543 l -8.86853 16.003174 l 54.785095 -176.78369 l 1.1522217 -17.855225 l 0.0 0.0 l 0.0 0.0 l 0.0 0.00012207031 l -1.2689819 -32.59558 l -1.8665771 68.9364 l -2.7063599 17.904053 l 0.7302246 -118.7594 l -6.2859497 -30.338745 l -8.914001 -29.757446 l -11.516785 -28.796936 l -13.868286 -27.389221 l -16.51587 -26.59143 l -19.099304 -25.62799 l 2.0673218 -33.33423 l -23.624268 8.857666 l 0.0 0.0 l 0.0 0.0 l 0.0 0.0 l 47.272278 -19.402588 l 22.230164 -11.70166 l 20.429321 -12.485596 l 154.83691 -245.15259 l -5.001831 25.029846 l -14.264282 48.008545 l 7.718384 -23.25232 l -17.187622 46.77539 l -22.851807 44.01355 l 11.928589 -21.26477 l -25.85498 42.831543 l 0.0 0.0 l -0.00079345703 0.0010375977 l -0.049682617 0.060180664 l -15.182007 18.409058 l -17.642883 18.775085 l -17.404846 16.185547 l -18.907654 15.361328 " /> </g> </svg>