<?xml version="1.0" standalone="no"?><!DOCTYPE svg PUBLIC "-//W3C//DTD SVG 1.1//EN" "http://www.w3.org/Graphics/SVG/1.1/DTD/svg11.dtd" ><svg xmlns="http://www.w3.org/2000/svg" xmlns:xlink="http://www.w3.org/1999/xlink" version="1.1" viewBox="-10 0 692 1000"><g transform="matrix(1 0 0 -1 0 800)"><path stroke="black" fill="none" d="M 1069.0582 529.54346 l 0.00048828125 0.01763916 l -0.38842773 51.580566 l 0.0 0.0 l -5.1938477 -97.354675 l -11.191895 -48.437683 l -0.42370605 -1.5378418 l -14.513672 -40.68106 l -12.702759 -27.104034 l -58.080383 -84.43338 l 0.0 0.0 l 6.1035156e-05 3.0517578e-05 l 0.0 6.1035156e-05 l 25.900635 32.67816 l 13.58429 19.668365 l -88.37207 -95.02107 l -1.28302 -0.92352295 l -13.476685 -9.755615 l 33.10797 25.328568 l 14.18811 12.428497 l -153.78027 -89.010605 l 25.719788 7.8876953 l 0.0 0.0 l 3.9608154 1.5745239 l 28.942322 13.382782 l 25.103699 13.795975 l 0.524292 0.30586243 l -113.798096 -43.59529 l -21.208435 -3.9026337 l -31.414795 -4.650818 l -17.97351 -2.2260132 l -34.781494 -3.2894287 l -19.046082 -1.3870697 l -55.41693 -2.3411865 l 20.605774 0.5965271 l -61.08081 -0.7720337 l -64.3009 -0.014144897 l 24.87674 -3.0517578e-05 l -69.949615 4.5776367e-05 l -31.974335 -4.5776367e-05 l -71.02081 -0.00019836426 l 34.19513 3.0517578e-05 l -77.76282 -0.009002686 l -25.075043 0.0014953613 l -80.6286 -154.57239 l 0.79248047 154.4053 l 41.434433 0.1739502 l -42.276276 154.26254 l 0.067993164 280.21478 l -0.006134033 -115.69574 l -0.00077819824 299.0147 l 0.0149383545 151.99512 l -0.012741089 160.81403 l 0.0040283203 1.5947266 l -0.014480591 236.97949 l -0.00030517578 30.64978 l 72.56734 189.59131 l -18.470215 0.0 l 0.0 0.0 l -36.70372 0.0 l 1.0192719 0.0 l 160.72272 0.0 l 0.6147766 0.0 l -46.46814 0.0 l 0.97650146 0.0 l 96.57648 -0.00012207031 l 0.0 0.0 l -0.15536499 0.0 l -20.00653 -0.00012207031 l 58.31955 -0.4099121 l 20.615356 -0.5085449 l 219.55124 -34.40515 l 0.6430664 -0.23913574 l 17.366272 -7.3116455 l 22.053772 -10.73877 l 10.035278 -5.4873047 l -98.92865 39.493164 l 0.0 0.0 l -13.722473 2.7659912 l 0.0 0.0 l -47.963806 7.659912 l -19.314636 2.2543945 l 0.0 0.0 l -56.81122 4.536377 l 0.020050049 -0.0014648438 l 19.436737 -1.2342529 l 237.7508 -68.17029 l -0.3505249 0.24084473 l 24.000671 -17.446167 l 0.0 0.0 l 16.789673 -16.195923 l 0.0 0.0 l 0.03125 -0.033081055 l 18.568604 -20.305908 l 20.690552 -26.441772 l 0.3255005 -0.44311523 l 12.079895 -17.75061 l -0.016845703 0.024658203 l 45.56476 -97.93701 l 0.18890381 -0.5769043 l 9.654358 -35.710327 l -2.8370972 11.902954 l -25.26831 73.08057 l 0.0 0.0 l 0.006713867 -0.016235352 l 6.0629272 -14.586792 l -16.56305 35.1698 l -5.7091675 10.304077 l 54.20691 -185.4585 l 0.0 0.0 l 0.22241211 -3.281128 l -0.98773193 -32.454346 l -2.5115356 69.17993 l -1.7906494 11.857544 l -0.810791 -122.61621 l -0.1998291 -0.9538574 l -3.6015015 -17.310669 l -9.845581 -34.70117 l -14.884399 -36.049133 l -9.923462 -19.599243 l -16.741394 -27.422607 l -21.01477 -28.654175 l -0.0071411133 -0.012023926 l -14.322998 -24.561218 l -4.4766235 1.6351929 l 0.0 0.0 l 51.71582 -22.072327 l 31.159424 -17.586365 l 0.7496338 -0.45666504 l 158.4607 -242.36584 l -3.5179443 17.649658 l -9.00061 32.823486 l 0.26940918 -0.8024292 l -13.973389 37.636475 l -15.553711 32.12372 l 0.4185791 -0.74072266 l -26.511536 42.021057 l 0.0 0.0 l -42.50482 45.15918 l -0.86120605 0.8100586 l -19.639648 16.260376 " /> </g> </svg>