<?xml version="1.0" standalone="no"?><!DOCTYPE svg PUBLIC "-//W3C//DTD SVG 1.1//EN" "http://www.w3.org/Graphics/SVG/1.1/DTD/svg11.dtd" ><svg xmlns="http://www.w3.org/2000/svg" xmlns:xlink="http://www.w3.org/1999/xlink" version="1.1" viewBox="-10 0 692 1000"><g transform="matrix(1 0 0 -1 0 800)"><path stroke="black" fill="none" d="M 1069.1261 531.77295 l 0.0 0.0 l -0.8223877 37.463257 l -8.964478 -110.347046 l -6.873047 -27.05597 l 0.0 0.0 l -17.44397 -48.672516 l -9.377563 -20.01596 l -59.224426 -86.90723 l 0.0 0.0 l 0.00024414062 0.00033569336 l 0.0032348633 0.0043029785 l 35.878113 47.133698 l 0.6791382 0.98220825 l -87.82239 -92.51663 l -0.2296753 -0.16540527 l -9.773315 -7.059326 l 33.175476 25.735474 l 9.8862915 8.658661 l -138.9336 -83.94212 l 16.017334 5.7917633 l 0.0 0.0 l 43.119568 20.85559 l 10.265869 5.834152 l 0.0 0.0 l -115.74609 -43.278687 l -15.313904 -2.8226166 l -47.60144 -6.777252 l -0.9069214 -0.114868164 l -52.222534 -4.713608 l -0.6889038 -0.051223755 l -43.869263 -2.1760101 l 0.7423706 0.02027893 l -53.710876 -0.61950684 l -49.09366 -0.048309326 l 1.1188965 -4.5776367e-05 l -69.78555 0.00010681152 l -23.945435 -0.00012207031 l -72.036804 -0.0007019043 l 31.52774 9.1552734e-05 l -95.05542 -0.030700684 l -1.3092651 0.004180908 l -86.03096 -154.55325 l 2.7056732 154.41812 l 38.35492 0.15950012 l -41.229126 154.36513 l 0.23213196 211.20392 l -0.020935059 -22.255402 l -0.002670288 275.39102 l 0.0024414062 0.10321045 l 0.048568726 146.08594 l -0.043533325 176.29907 l 0.00018310547 0.067993164 l -0.033966064 255.64502 l 0.0 0.0 l 49.740173 192.51648 l 0.0 0.0 l -26.466034 0.0 l 0.0 0.0 l 150.08362 0.0 l 0.0 0.0 l -35.870667 0.0 l 0.0 0.0 l 80.93262 -0.0013427734 l 0.0 0.0 l -3.2339478 0.00036621094 l 69.79254 -0.8195801 l 1.1826477 -0.025512695 l 229.15445 -36.95642 l 0.0 0.0 l 5.666504 -2.5483398 l 36.692932 -17.905762 l 0.3661499 -0.19787598 l -102.983765 39.96277 l 0.0 0.0 l -73.67029 11.233398 l 0.0 0.0 l -51.23291 4.3133545 l 0.0 0.0 l 2.2893677 -0.16638184 l 248.95874 -69.94043 l 0.0 0.0 l 16.585999 -12.029053 l 30.62384 -29.365112 l 0.0 0.0 l 6.0790405 -6.642212 l 25.51709 -31.974976 l 0.0 0.0 l 10.924805 -16.053223 l -0.004638672 0.0068359375 l 46.67798 -100.290405 l 0.0 0.0 l 7.006592 -24.861694 l -0.11254883 0.48828125 l -24.107239 70.882935 l 0.0 0.0 l 1.7115479 -4.128662 l -18.356873 36.666626 l -0.15576172 0.2821045 l 53.509583 -193.90735 l 0.0 0.0 l -0.8353882 -16.419312 l -4.1087646 69.78308 l -0.0657959 0.4482422 l -1.7097168 -123.994385 l 0.0 0.0 l -0.024841309 -0.111206055 l -12.150513 -46.93396 l -23.223999 -54.008728 l -0.57177734 -1.1317749 l -16.88263 -28.657043 l -25.758057 -36.148376 l 0.0 0.0 l -15.355713 -17.334595 l 0.0 0.0 l 66.079346 -30.477112 l 14.948242 -8.816711 l 0.0 0.0 l 157.77277 -229.47516 l -0.16625977 0.9491577 l -10.72998 38.54303 l 0.0 0.0 l -9.1032715 24.897339 l -20.55194 43.495483 l 0.0 0.0 l -32.583313 48.413635 l -41.10437 41.335938 l 0.0 0.0 l -7.1593018 5.511841 " /> </g> </svg>