<?xml version="1.0" standalone="no"?><!DOCTYPE svg PUBLIC "-//W3C//DTD SVG 1.1//EN" "http://www.w3.org/Graphics/SVG/1.1/DTD/svg11.dtd" ><svg xmlns="http://www.w3.org/2000/svg" xmlns:xlink="http://www.w3.org/1999/xlink" version="1.1" viewBox="-10 0 692 1000"><g transform="matrix(1 0 0 -1 0 800)"><path stroke="black" fill="none" d="M 1068.4731 575.92725 l 0.0 0.0 l -38.224 -200.45306 l 0.0 0.0 l -59.981445 -92.08377 l 0.0 0.0 l 29.089905 38.696136 l -101.18579 -98.86705 l 0.0 0.0 l 47.3338 35.9843 l 0.0 0.0 l -51.178772 111.34387 l -66.10004 0.0 l -0.7112427 -185.96419 l 0.0 0.0 l -81.74725 -19.860474 l 0.0 0.0 l -49.741455 205.82466 l -66.10004 0.0 l 49.6958 -214.7381 l 0.0 0.0 l -153.7359 -5.603882 l 0.0 0.0 l -28.159882 220.34198 l -66.100006 0.0 l -17.199982 -37.5 l -17.200012 -37.5 l -17.199982 -37.5 l -17.200012 -37.5 l 72.60062 -70.35927 l -18.747772 -0.03994751 l 0.0 0.0 l -56.234497 -0.023895264 l 0.47406006 0.00015258789 l -85.88898 -3.6069946 l 18.996582 -75.97005 l -17.200012 -37.5 l -17.200012 -37.5 l -25.09999 0.0 l -25.100006 0.0 l -23.91153 0.0 l -26.288467 0.0 l -25.100006 0.0 l -25.09999 0.0 l -25.100006 0.0 l -25.099998 0.0 l -25.099998 0.0 l -25.100002 0.0 l 208.42809 154.61127 l 0.62841797 -0.0014801025 l -34.132538 155.85445 l 6.5540924 155.23215 l -4.1234283 321.2512 l 0.0 0.0 l 0.59458923 58.687195 l 0.559433 458.2268 l 0.0 0.0 l 279.89136 -319.26154 l -166.84506 559.39996 l 0.0 0.0 l 184.90335 -1.3634033 l 0.0 0.0 l 134.7417 -229.83655 l 93.154724 187.37439 l 0.0 0.0 l -88.33722 27.642212 l 0.0 0.0 l 147.98248 113.18335 l 25.670654 -195.4408 l 0.0 0.0 l 52.845215 -63.654785 l 0.0 0.0 l 56.1839 -120.976074 l 0.0 0.0 l -36.609436 90.47327 l 0.0 0.0 l 46.20813 -132.62378 l 0.0 0.0 l -9.186279 -158.19421 l 0.0 0.0 l -27.799194 -105.951416 l 0.0 0.0 l -43.332336 -30.801025 l 0.0 0.0 l 188.32233 -188.01935 l 0.0 0.0 l -84.01929 102.91052 l 0.0 0.0 l 273.91626 -182.32233 l 73.70007 -164.1 l 73.69995 -164.1 l 73.70007 -164.1 l 73.69995 -164.1 l -25.5 0.0 l -25.5 0.0 l -25.5 0.0 l -25.5 0.0 l -25.5 0.0 l -25.5 0.0 l -25.5 0.0 l -25.5 0.0 l -25.5 0.0 l -25.5 0.0 " /> </g> </svg>