<?xml version="1.0" standalone="no"?><!DOCTYPE svg PUBLIC "-//W3C//DTD SVG 1.1//EN" "http://www.w3.org/Graphics/SVG/1.1/DTD/svg11.dtd" ><svg xmlns="http://www.w3.org/2000/svg" xmlns:xlink="http://www.w3.org/1999/xlink" version="1.1" viewBox="-10 0 692 1000"><g transform="matrix(1 0 0 -1 0 800)"><path stroke="black" fill="none" d="M 1067.8463 580.3796 l 0.0 0.0 l -45.733765 -219.53366 l 0.0 0.0 l -73.72809 -94.551025 l 0.0 0.0 l -54.25171 106.30289 l -66.10004 0.0 l -86.1438 -206.17679 l 0.0 0.0 l -46.056152 206.17679 l -66.10004 0.0 l -99.934814 -220.10713 l 0.0 0.0 l -32.265167 220.10713 l -66.100006 0.0 l -17.199982 -37.5 l -17.200012 -37.5 l -17.199982 -37.5 l -17.200012 -37.5 l 52.115723 -69.592896 l 0.0 0.0 l -60.697388 -0.86087036 l 0.0 0.0 l -43.01834 -42.046234 l -17.199982 -37.5 l -17.200012 -37.5 l -17.200012 -37.5 l -25.09999 0.0 l -25.100006 0.0 l -24.180756 0.0 l -26.019241 0.0 l -25.100006 0.0 l -25.09999 0.0 l -25.100006 0.0 l -25.099998 0.0 l -25.099998 0.0 l -25.100002 0.0 l 198.57042 155.35936 l 0.0 0.0 l -28.658432 159.12276 l 22.377045 157.24106 l -4.256897 258.3826 l 0.0 0.0 l 49.01097 165.2768 l 221.35692 89.21747 l -166.95169 559.2524 l 0.0 0.0 l 319.75168 -231.05237 l 57.137207 200.44446 l 0.0 0.0 l 95.66278 127.75549 l 21.768188 -192.47827 l 0.0 0.0 l 76.17926 -97.53052 l 0.0 0.0 l 36.859924 -286.0149 l 0.0 0.0 l -15.323303 -180.44067 l 0.0 0.0 l 114.99988 -124.84216 l 0.0 0.0 l 207.716 -103.29346 l 73.70007 -164.1 l 73.69995 -164.1 l 73.70007 -164.1 l 73.69995 -164.1 l -25.5 0.0 l -25.5 0.0 l -25.5 0.0 l -25.5 0.0 l -25.5 0.0 l -25.5 0.0 l -25.5 0.0 l -25.5 0.0 l -25.5 0.0 l -25.5 0.0 " /> </g> </svg>