<?xml version="1.0" standalone="no"?><!DOCTYPE svg PUBLIC "-//W3C//DTD SVG 1.1//EN" "http://www.w3.org/Graphics/SVG/1.1/DTD/svg11.dtd" ><svg xmlns="http://www.w3.org/2000/svg" xmlns:xlink="http://www.w3.org/1999/xlink" version="1.1" viewBox="-10 0 692 1000"><g transform="matrix(1 0 0 -1 0 800)"><path stroke="black" fill="none" d="M 1069.0325 528.69916 l 1.2258301 35.933594 l 0.0 0.0 l -0.0072021484 0.0871582 l -1.9362793 23.827087 l -3.2718506 -95.33179 l -6.811035 -34.690033 l -8.223511 -29.62735 l -11.781006 -31.992157 l -13.961914 -29.788147 l -57.641357 -83.48883 l 0.0 0.0 l 0.0 0.0 l 0.0 0.0 l 22.115356 27.194763 l 18.718323 27.102386 l -88.82739 -96.32739 l -16.560913 -11.987259 l 33.082397 25.174469 l 15.817139 13.856033 l -159.40247 -90.9299 l 21.138062 5.4149323 l 0.0 0.0 l 0.0025634766 0.0010223389 l 0.34429932 0.13700867 l 17.776123 7.070404 l 19.167236 8.781754 l 18.49054 9.676544 l 15.892822 9.29567 l -115.99841 -45.454742 l -23.440613 -4.3116302 l -25.285156 -3.8455658 l -25.101135 -3.1072998 l -27.512146 -2.668274 l -27.131348 -1.9748535 l -58.656006 -2.3218231 l 29.203186 0.84654236 l -64.947205 -0.8616028 l -70.0596 -0.0012054443 l 34.405853 0.0 l -70.54419 0.0 l -35.01474 0.0 l -70.63608 -1.5258789e-05 l 35.2052 0.0 l -71.21448 -0.00077819824 l -34.42282 0.0001373291 l -78.23465 -154.5793 l 0.067993164 154.40045 l 42.60057 0.1794281 l -42.67279 154.22368 l 0.0058288574 306.3478 l -0.0005340576 -151.07971 l -6.1035156e-05 307.96057 l 0.0012817383 154.19366 l -0.0010986328 154.95026 l -0.00088500977 161.62097 l -3.0517578e-05 143.78394 l 91.0643 157.41895 l -26.315933 0.0 l -16.694153 0.0 l -46.562103 0.0 l 21.23732 0.0 l 141.10623 0.0 l 21.08252 0.0 l -67.43561 0.0 l 21.22641 0.0 l 93.28241 0.0 l 0.0 0.0 l -0.00015258789 0.0 l -0.00079345703 0.0 l -23.029755 0.0 l 53.977448 -0.25476074 l 28.381287 -0.7017822 l 205.8186 -29.829346 l 15.617371 -5.873169 l 16.754822 -7.1712646 l 16.510254 -8.02478 l 14.948914 -8.177612 l -86.64838 36.569702 l -14.000244 3.9241943 l 0.0 0.0 l -15.080078 3.0517578 l -4.158203 0.84265137 l -24.624207 4.105591 l -26.157043 3.447998 l -17.349243 1.9029541 l -53.348602 4.0080566 l 25.978058 -1.6419678 l 243.72906 -74.5238 l -12.864075 8.802002 l 27.42981 -19.823853 l 0.0 0.0 l -6.1035156e-05 0.00012207031 l -0.00018310547 0.00012207031 l 13.495972 -12.886353 l 1.9788208 -2.0603027 l 8.633606 -8.972168 l 12.320984 -13.935913 l 11.931885 -14.911987 l 9.588379 -13.071655 l 10.308655 -15.366943 l 41.28955 -85.31238 l 5.316162 -16.266235 l 9.433472 -36.049683 l -4.165344 17.458618 l -24.997192 71.67969 l 0.0 0.0 l 6.1035156e-05 0.0 l 0.0 -0.00012207031 l 7.305664 -17.56958 l -15.883789 34.603027 l -8.671936 15.64856 l 54.749146 -177.32349 l 0.012145996 -0.19555664 l 1.0958862 -16.953735 l 0.0 0.0 l -6.1035156e-05 0.0007324219 l -1.2651367 -32.386475 l -1.9066772 68.95154 l -2.649414 17.527832 l 0.6343384 -118.99939 l -6.1313477 -29.587402 l -8.971985 -30.065063 l -11.726318 -29.24823 l -13.622864 -26.904419 l -16.529846 -26.643188 l -19.218506 -25.816284 l 1.0470581 -32.789062 l -22.516357 8.438721 l 0.0 0.0 l 0.00024414062 -0.00012207031 l 0.0014648438 -0.00048828125 l 47.630554 -19.598633 l 22.785767 -12.06781 l 19.148132 -11.702454 l 155.11908 -245.0138 l -4.909546 24.570557 l -13.936768 47.06372 l 7.2318115 -21.7854 l -16.964478 46.13672 l -22.397766 43.273743 l 11.176941 -19.924316 l -25.89502 42.76007 l 0.0 0.0 l -0.034606934 0.041931152 l -13.727417 16.645264 l -19.677856 21.00824 l -16.354248 15.209106 l -18.974426 15.436951 " /> </g> </svg>