<?xml version="1.0" standalone="no"?><!DOCTYPE svg PUBLIC "-//W3C//DTD SVG 1.1//EN" "http://www.w3.org/Graphics/SVG/1.1/DTD/svg11.dtd" ><svg xmlns="http://www.w3.org/2000/svg" xmlns:xlink="http://www.w3.org/1999/xlink" version="1.1" viewBox="-10 0 692 1000"><g transform="matrix(1 0 0 -1 0 800)"><path stroke="black" fill="none" d="M 1069.0383 528.89044 l 0.0036621094 0.12188721 l 0.7125244 41.1698 l 0.0 0.0 l -1.0418701 12.829224 l -4.024536 -91.93201 l -7.803467 -37.804443 l -6.4451904 -23.223328 l -12.411377 -34.00116 l -13.676758 -29.180084 l -57.741028 -83.703186 l 0.0 0.0 l 0.0 0.0 l 0.0 0.0 l 22.973145 28.437378 l 17.555237 25.418274 l -88.72424 -96.03145 l -16.152893 -11.690918 l 33.088196 25.209381 l 15.44812 13.532639 l -158.12878 -90.4951 l 20.77295 5.4167023 l 0.0 0.0 l 0.1272583 0.05064392 l 16.19043 6.4398804 l 21.381714 9.824081 l 19.988708 10.609756 l 12.036926 7.0399933 l -115.12567 -44.814377 l -22.934937 -4.218979 l -26.673767 -4.0279846 l -23.48645 -2.9076538 l -29.158936 -2.8089905 l -25.299683 -1.8416901 l -57.92224 -2.3262177 l 27.255554 0.78990173 l -64.07135 -0.8413086 l -68.755005 -0.004135132 l 32.24713 -1.5258789e-05 l -70.409515 1.5258789e-05 l -34.32596 -1.5258789e-05 l -70.723236 -4.5776367e-05 l 34.97638 0.0 l -72.69794 -0.0026397705 l -32.305176 0.00044250488 l -78.77698 -154.57773 l 0.2321167 154.40155 l 42.336395 0.17819214 l -42.582962 154.23248 l 0.01991272 300.42758 l -0.0018005371 -143.06378 l -0.00022888184 305.93396 l 0.0043792725 153.69562 l -0.0037384033 156.27863 l -0.0030517578 179.05408 l -9.1552734e-05 118.15442 l 86.87398 164.70728 l -33.838516 0.0 l -1.1795502 0.0 l -46.761505 0.0 l 16.498993 0.0 l 145.70828 0.0 l 15.970428 0.0 l -62.210327 0.0 l 16.461731 0.0 l 94.376465 0.0 l 0.0 0.0 l -0.0030212402 0.0 l -0.45336914 -0.00012207031 l -22.09497 0.0 l 54.96112 -0.28979492 l 26.621979 -0.65808105 l 208.92963 -30.865967 l 11.917114 -4.480591 l 17.201294 -7.319336 l 17.766113 -8.639526 l 13.835754 -7.568115 l -95.81848 39.031372 l -0.980896 0.27624512 l -18.395752 3.9973145 l -0.9180908 0.18591309 l -32.04608 5.3258057 l -34.23755 4.239868 l -1.2662964 0.13964844 l -56.65506 4.397705 l 0.1390686 -0.010009766 l 24.361633 -1.539917 l 242.37476 -73.08447 l -9.518127 6.5133057 l 26.21582 -18.989746 l 0.0 0.0 l -0.0009765625 0.00061035156 l 15.376038 -14.831299 l 0.40563965 -0.4222412 l 6.3981934 -6.6569824 l 13.940735 -15.591797 l 13.916077 -17.523926 l 7.218689 -9.84082 l 10.981201 -16.276978 l 42.254272 -88.16675 l 4.0272217 -12.3220215 l 9.610901 -36.362793 l -3.864441 16.200073 l -25.078552 72.045166 l 0.0 0.0 l 0.00024414062 -0.00048828125 l 0.003967285 -0.009643555 l 7.041443 -16.935669 l -16.037659 34.731445 l -8.000732 14.437866 l 54.62628 -179.1665 l 0.0014038086 -0.022705078 l 0.9421997 -14.515259 l 0.0 0.0 l -1.2385254 -31.87085 l -2.0437622 69.003296 l -2.454834 16.243286 l 0.3069458 -119.818726 l -1.03302 -4.93042 l -4.5704346 -22.091919 l -9.169922 -31.115356 l -12.441772 -30.78888 l -12.78479 -25.249512 l -16.577759 -26.819763 l -19.625427 -26.459167 l -0.04034424 -0.06756592 l -2.3961792 -30.86029 l -18.649902 6.9779053 l 0.0 0.0 l 0.004699707 -0.0017089844 l 48.77295 -20.23822 l 24.68274 -13.317993 l 14.773865 -9.0286255 l 156.08234 -244.54016 l -4.5942383 23.002747 l -12.8186035 43.837708 l 5.5701904 -16.776917 l -16.202515 43.956055 l -20.84729 40.747803 l 8.610657 -15.347778 l -28.131165 45.061646 l 0.0 0.0 l -6.642212 8.053833 l -26.625671 28.632812 l -12.767151 11.875488 l -19.202393 15.695129 " /> </g> </svg>