<?xml version="1.0" standalone="no"?><!DOCTYPE svg PUBLIC "-//W3C//DTD SVG 1.1//EN" "http://www.w3.org/Graphics/SVG/1.1/DTD/svg11.dtd" ><svg xmlns="http://www.w3.org/2000/svg" xmlns:xlink="http://www.w3.org/1999/xlink" version="1.1" viewBox="-10 0 692 1000"><g transform="matrix(1 0 0 -1 0 800)"><path stroke="black" fill="none" d="M 1069.358 539.385 l 0.0 0.0 l -15.376465 -133.117 l 0.0 0.0 l -25.220093 -67.699066 l -0.27062988 -0.58517456 l -60.71765 -90.36096 l 0.0 0.0 l 0.007080078 0.009460449 l 35.95819 47.358917 l 0.0 0.0 l -89.41504 -93.40782 l 0.0 0.0 l -0.12243652 -0.085998535 l 33.67633 27.319443 l 0.21459961 0.18725586 l -120.85144 -76.76332 l 0.0 0.0 l 50.665344 25.54242 l 0.0 0.0 l -126.75891 -44.774902 l -0.47802734 -0.09284973 l -59.6532 -8.272202 l 0.0 0.0 l -38.81775 -3.3060303 l 0.0 0.0 l -54.5719 -2.682785 l 0.0 0.0 l -37.022583 -0.45002747 l -63.379944 -0.16143799 l 0.0 0.0 l -83.01373 -0.0032653809 l -0.7954712 -0.00015258789 l -71.243164 -0.0027008057 l 22.420776 0.00033569336 l -92.40875 -0.30911255 l 0.0 0.0 l -86.33095 -154.27026 l 9.237747 154.46187 l 27.84082 0.11016846 l -37.65396 154.71541 l 0.992218 186.10397 l 0.0 0.0 l -0.2802887 280.98663 l 0.00038146973 0.016113281 l 0.17376709 126.35022 l -0.14859009 229.16846 l 0.0 0.0 l -0.081451416 186.12402 l 49.649017 225.96313 l 0.0 0.0 l 87.630554 0.0 l 0.0 0.0 l 79.962555 -0.034301758 l 0.0 0.0 l 82.34308 -1.3302002 l 0.0 0.0 l 216.99457 -37.047607 l 0.0 0.0 l 45.669556 -22.601562 l 0.0 0.0 l -107.900024 42.645874 l 0.0 0.0 l -73.03943 11.114258 l 0.0 0.0 l 224.15222 -84.11682 l 0.0 0.0 l 28.159485 -28.722412 l 0.0 0.0 l 31.623352 -40.509277 l 3.3745728 -4.908081 l 0.0 0.0 l 51.654053 -112.5741 l 1.8798218 -6.420288 l 0.0 0.0 l -19.780396 56.73413 l 0.0 0.0 l -17.336609 35.18799 l 0.0 0.0 l 52.059875 -192.59937 l 0.0 0.0 l -5.822998 60.31653 l 0.0 0.0 l -6.2279663 -150.35742 l 0.0 0.0 l -4.0012207 -15.565674 l -31.19934 -74.749146 l 0.0 0.0 l -6.5057373 -11.529053 l -32.435364 -44.302185 l 0.0 0.0 l 64.29242 -55.03369 l 0.0 0.0 l 155.79211 -214.63757 l 0.0 0.0 l -35.599243 90.85077 l 0.0 0.0 l -48.184265 65.0177 l 0.0 0.0 l -25.261108 24.643127 l 0.0 0.0 " /> </g> </svg>