<?xml version="1.0" standalone="no"?><!DOCTYPE svg PUBLIC "-//W3C//DTD SVG 1.1//EN" "http://www.w3.org/Graphics/SVG/1.1/DTD/svg11.dtd" ><svg xmlns="http://www.w3.org/2000/svg" xmlns:xlink="http://www.w3.org/1999/xlink" version="1.1" viewBox="-10 0 692 1000"><g transform="matrix(1 0 0 -1 0 800)"><path stroke="black" fill="none" d="M 1069.0303 528.6267 l 1.2797852 35.633606 l 0.0 0.0 l 0.0 0.0 l 0.0 0.0 l -2.1557617 26.526855 l -2.9677734 -96.70465 l -6.4104004 -33.432404 l -8.941528 -32.21335 l -11.526489 -31.180908 l -14.077148 -30.033691 l -57.600952 -83.40222 l 0.0 0.0 l 0.0 0.0 l 0.0 0.0 l 21.76892 26.692932 l 19.187927 27.78244 l -88.86902 -96.446884 l -16.725708 -12.106918 l 33.08008 25.16037 l 15.9661255 13.986633 l -159.91675 -91.105484 l 21.518494 5.5069275 l 0.0 0.0 l 0.0 0.0 l 0.0 0.0 l 18.618958 7.405609 l 18.273071 8.360855 l 17.88556 9.299713 l 17.44989 10.206528 l -116.35089 -45.713333 l -23.644775 -4.349045 l -24.724487 -3.7718964 l -25.753174 -3.187912 l -26.847107 -2.6114655 l -27.870972 -2.0286102 l -58.95233 -2.320053 l 29.989685 0.8694 l -65.3009 -0.8697815 l -70.586365 -3.0517578e-05 l 35.277527 0.0 l -70.5986 0.0 l -35.292847 0.0 l -70.60086 0.0 l 35.297577 0.0 l -70.61542 -1.5258789e-05 l -35.277954 0.0 l -78.015656 -154.57993 l 0.0017089844 154.40001 l 42.707245 0.17993164 l -42.70906 154.22014 l 0.0001373291 308.73837 l -1.5258789e-05 -154.31656 l 0.0 308.7789 l 3.0517578e-05 154.39478 l -3.0517578e-05 154.41376 l -1.5258789e-05 154.58154 l 0.0 154.13318 l 92.75638 154.47595 l -23.278275 0.0 l -23.036545 0.0 l -46.404068 0.0 l 23.15068 0.0 l 139.2479 0.0 l 23.14682 0.0 l -69.54562 0.0 l 23.150421 0.0 l 92.81232 0.0 l 0.0 0.0 l 0.0 0.0 l 0.0 0.0 l -23.195953 0.0 l 53.58023 -0.24047852 l 29.091705 -0.7194824 l 204.56235 -29.410889 l 17.111511 -6.435425 l 16.574585 -7.1115723 l 16.003174 -7.776367 l 15.398376 -8.423706 l -82.945435 35.575684 l -18.210266 5.102051 l 0.0 0.0 l 0.0 0.0 l 0.0 0.0 l -20.255066 4.072876 l -21.627197 3.612915 l -22.894104 3.1281738 l -23.901123 2.621338 l -51.955902 3.8443604 l 26.574615 -1.6790771 l 244.27594 -75.10498 l -14.21521 9.726074 l 27.907776 -20.151611 l 0.0 0.0 l 0.0 0.0 l 0.0 0.0 l 12.7491455 -12.109863 l 12.15033 -12.628784 l 11.666931 -13.267212 l 11.130615 -13.8573 l 10.545349 -14.376465 l 10.036987 -14.99939 l 40.900024 -84.15979 l 5.836609 -17.858765 l 9.361816 -35.92334 l -4.286804 17.966919 l -24.960999 71.52405 l 0.0 0.0 l 0.0 0.0 l 0.0 0.0 l 7.4074097 -17.81372 l -15.821655 34.55127 l -8.942932 16.137451 l 54.798706 -176.57922 l 1.168457 -18.115723 l 0.0 0.0 l 0.0 0.0 l 0.0 0.0 l -1.2699585 -32.681763 l -1.8513794 68.930664 l -2.7279663 18.046509 l 0.7665405 -118.66858 l -6.3444824 -30.623169 l -8.89209 -29.640991 l -11.437378 -28.626038 l -13.961243 -27.572754 l -16.51056 -26.571838 l -19.0542 -25.556702 l 2.4537354 -33.54065 l -24.041016 9.015259 l 0.0 0.0 l 0.0 0.0 l 0.0 0.0 l 47.133118 -19.327148 l 22.019775 -11.562988 l 20.91449 -12.782166 l 154.7301 -245.20508 l -5.036743 25.203735 l -14.388428 48.366333 l 7.90271 -23.8078 l -17.272095 47.017273 l -23.023804 44.2937 l 12.213257 -21.7724 l -25.912537 42.946777 l 0.0 0.0 l 0.0 0.0 l 0.0 0.0 l -15.716614 19.057373 l -16.872314 17.929382 l -17.802673 16.555237 l -18.882385 15.332703 " /> </g> </svg>