<?xml version="1.0" standalone="no"?><!DOCTYPE svg PUBLIC "-//W3C//DTD SVG 1.1//EN" "http://www.w3.org/Graphics/SVG/1.1/DTD/svg11.dtd" ><svg xmlns="http://www.w3.org/2000/svg" xmlns:xlink="http://www.w3.org/1999/xlink" version="1.1" viewBox="-10 0 692 1000"><g transform="matrix(1 0 0 -1 0 800)"><path stroke="black" fill="none" d="M 244.30112 453.34818 l 65.223206 -104.69507 l -34.929382 51.36963 l -76.897095 165.73514 l -16.307053 59.069397 l 37.278778 -116.2359 l -48.11824 355.60602 l 9.748169 55.78961 l -15.600372 -112.903564 l -1.9491119 -58.333435 l 0.0 0.0 l 0.0 0.0 l 0.0 0.0 l 6.9896393 -62.915955 l 331.66025 -142.5354 l -21.307343 38.69696 l -32.795654 81.98505 l 14.751129 -41.734985 l 125.36627 -183.56079 l -33.524292 31.715118 l 0.0 0.0 l 0.0 0.0 l 0.0 0.0 l -27.877197 35.67682 l -90.206696 201.22592 l -8.195221 44.773438 l -6.5608826 94.16376 l 0.0 0.0 l 0.0 0.0 l 0.0 0.0 l 1.6390381 -47.81195 l 3.2933655 94.800415 l 8.183441 45.30829 l 26.242035 86.25714 l -14.757324 -42.352356 l -187.34662 147.95514 l 29.24466 49.391113 l -54.601715 -100.08545 l -21.454758 -51.976196 l -17.53949 -53.20813 l 358.30176 204.52698 l 31.15564 34.755127 l 0.0 0.0 l 0.0 0.0 l 0.0 0.0 l -59.051575 -71.05786 l -24.585327 -37.777588 l -21.321167 -39.32129 l -56.10956 264.14856 l 55.04715 42.447754 l -107.280426 -90.56055 l -49.40912 -53.769043 l 0.0 0.0 l 0.0 0.0 l 0.0 0.0 l 275.24188 212.24585 l -60.67926 -31.124512 l 124.19739 56.598877 l 66.329956 19.809814 l 69.14972 14.149414 l 154.60858 3.9707031 l -41.17749 3.3896484 l -41.460754 1.130127 l 0.0 0.0 l 0.0 0.0 l 0.0 0.0 l -8.07019 -162.61389 l -43.823425 -8.5448 l -83.205505 -27.360962 l 40.84796 15.38916 l 221.17914 22.290771 l -42.778015 5.069702 l 0.0 0.0 l 0.0 0.0 l 0.0 0.0 l -46.847595 -1.7098389 l 421.7876 27.587158 l 0.0 -27.58081 l 0.0 82.75134 l 0.0 -27.534912 l 0.0 55.1687 l 0.0 -220.7782 l 0.0 27.582397 l 0.0 27.617065 l 0.0 27.580933 l -335.53076 174.91248 l 40.595703 -7.9052734 l 40.36328 -10.176758 l 40.035156 -12.422241 l 39.792847 -14.694824 l 39.51172 -16.955933 l 39.196045 -19.198242 l -193.60461 -77.76843 l 42.19458 -11.822876 l 83.60034 -33.799072 l -41.652344 18.586548 l -465.8969 -43.232666 l -36.343018 -25.645142 l 74.19562 47.877197 l 633.54236 -78.16223 l 0.0 -27.586304 l 0.0 0.0 l 0.0 0.0 l 0.0 0.0 l -40.537964 32.108643 l -81.91626 54.07788 l 41.09253 -25.345459 l 42.21167 -1013.27747 l 0.0 28.082062 l 0.0 28.11731 l 0.0 28.08078 l 0.0 28.150513 l 0.0 28.041443 l 0.0 28.112335 l -55.069824 13.105743 l 10.785767 8.05307 l -21.49292 -15.848938 l -10.546875 -7.480072 l 65.10718 49.20523 l 11.206421 9.157227 l 0.009765625 -28.085938 l -33.36914 1.3997803 l 11.005981 8.612976 l -84.96753 -60.82541 l 10.17627 6.3682556 l 0.0 0.0 l 0.0 0.0 l 0.0 0.0 l 10.352661 6.938507 l -40.711548 -25.229126 l 10.027222 5.8039246 l -49.5094 -26.267365 l 9.692261 4.6602173 l 19.771729 10.244812 l -9.888672 -5.246063 l -29.339844 -14.107208 l -9.629517 -4.1376953 l 0.0 0.0 l 0.0 0.0 l 0.0 0.0 l -18.312866 -6.800873 l -19.045532 -5.9986267 l -19.801147 -5.2025757 l -20.514954 -4.396759 l -43.28241 -6.400757 l 22.004822 2.7993164 l 163.54803 -192.74731 l 40.992554 16.946915 l 40.607178 19.214035 l 40.194336 21.466629 l 0.0 0.0 l 0.0 0.0 l 0.0 0.0 l 0.0 28.09517 l -353.5791 101.02542 l 23.47284 1.1991272 l -47.713684 -1.5997009 l 0.0 0.0 l 0.0 0.0 l 0.0 0.0 l -45.372192 5.0091248 l -127.26691 35.070557 l 41.0036 -15.047455 l 42.334717 -11.666504 l 262.12634 -226.83405 l 41.791992 12.427589 l -84.003296 -22.600334 l -42.591797 -7.908478 l -43.008728 -5.6509476 l -43.393738 -3.3895187 l 0.0 0.0 l 0.0 0.0 l 0.0 0.0 l -65.22888 2.3099823 l -186.47601 318.44342 l -36.49286 25.045044 l 74.476746 -46.757904 l 85.19269 -289.79895 l -61.33911 11.5479355 l -59.412537 16.17073 l -57.46997 20.789886 l -55.53009 25.409874 l -53.589935 30.029861 l -51.648346 34.646988 l -49.7117 39.273117 l 0.0 0.0 l 0.0 0.0 l 0.0 0.0 l -44.268707 47.558777 " /> </g> </svg>