<?xml version="1.0" standalone="no"?><!DOCTYPE svg PUBLIC "-//W3C//DTD SVG 1.1//EN" "http://www.w3.org/Graphics/SVG/1.1/DTD/svg11.dtd" ><svg xmlns="http://www.w3.org/2000/svg" xmlns:xlink="http://www.w3.org/1999/xlink" version="1.1" viewBox="-10 0 692 1000"><g transform="matrix(1 0 0 -1 0 800)"><path stroke="black" fill="none" d="M 185.0 0.0 l 0.0 154.4 l 79.925446 264.92206 l 0.0 0.0 l 7.4890137 -14.719757 l -83.37891 195.659 l 0.0 0.0 l 21.460464 -66.44513 l -34.371628 353.7729 l 0.0 0.0 l -11.847168 -150.26892 l 0.0 0.0 l 308.01123 -134.38019 l 0.0 0.0 l 83.21881 -133.60818 l 0.0 0.0 l -130.16495 311.7266 l 0.0 0.0 l 16.152893 183.30463 l 0.0 0.0 l -165.48697 194.45953 l 0.0 0.0 l -73.970276 -162.24548 l 0.0 0.0 l 375.4942 209.38733 l 0.0 0.0 l -86.10446 -118.423584 l 0.0 0.0 l -306.4277 302.0592 l 0.0 154.40002 l 23.199997 0.0 l 23.199997 0.0 l 23.200012 0.0 l 23.199982 0.0 l 23.200012 0.0 l 23.200012 0.0 l 23.199982 0.0 l 23.200012 0.0 l 23.200012 0.0 l 72.9209 -179.9945 l 2.3810425 1.8376465 l -113.50586 -100.15869 l 0.0 0.0 l -1.191864 -1.3204346 l 92.96576 279.39587 l 29.110016 -0.7199707 l 27.850006 -1.1999512 l 26.589966 -1.6800537 l 25.330017 -2.1600342 l 24.070007 -2.6398926 l -27.103882 -114.89856 l 0.0 0.0 l 71.46387 108.17847 l 20.29004 -4.079956 l 0.0 0.0 l 14.817688 -54.314575 l 21.22229 43.39453 l 17.150024 -6.449951 l 16.569946 -7.1099854 l 11.48291 -14.050537 l 19.917114 -2.1495361 l 14.830017 -9.089966 l 28.201233 14.680542 l 128.88446 16.598755 l -0.8892212 0.08068848 l -50.513733 1.7648926 l 0.0 0.0 l -65.032776 -65.37488 l 12.190002 -12.669922 l 11.650024 -13.25 l 11.109985 -13.830078 l -9.712891 -59.68457 l -78.3501 -27.590576 l 0.0 0.0 l 2.4863892 0.8864746 l 205.73608 34.760254 l -38.288452 -0.15856934 l 0.0 0.0 l 407.56885 91.4624 l 0.0 0.0 l 0.00012207031 -159.1643 l 0.0 0.0 l -274.04236 200.78577 l 0.0 0.0 l 159.52698 -59.513916 l 0.0 0.0 l -124.32776 -102.1792 l 37.94519 -13.106934 l 0.0 0.0 l -233.68207 -2.166748 l -258.96405 -54.763916 l 0.0 0.0 l 15.728882 10.480591 l 255.71521 8.523315 l 5.0700073 -17.940063 l 4.289978 -17.97998 l 384.00854 -26.171387 l 0.0 0.0 l -54.186157 40.269165 l 0.0 0.0 l -323.5824 -50.177734 l 1.9500122 -18.100098 l 1.1699829 -18.139893 l 0.0 0.0 l -1.2700195 -32.690063 l -3.8099976 -31.670044 l -6.3499756 -30.649902 l -8.890015 -29.630005 l -11.429993 -28.610046 l -13.969971 -27.589966 l -16.51001 -26.570007 l -19.049988 -25.549988 l -21.590027 -24.53003 l 0.0 0.0 l 24.080017 -9.030029 l 23.039978 -10.289978 l 22.0 -11.549988 l 20.960022 -12.809998 l 19.919983 -14.070007 l 18.880005 -15.330017 l 17.840027 -16.589966 l 16.799988 -17.850037 l 15.76001 -19.109985 l 0.0 0.0 l 13.679993 -21.140015 l 12.239929 -21.820007 l 10.800049 -22.5 l 9.359985 -23.179993 l 7.920044 -23.859985 l 6.4799805 -24.539978 l 5.040039 -25.220032 l 3.5999756 -25.899963 l 2.1600342 -26.580017 l 0.0 0.0 l -1.2800293 -35.640015 l -3.8399658 -34.51999 l -6.4000244 -33.399994 l -8.960083 -32.28 l -11.519897 -31.160004 l 248.53992 -121.85562 l 0.0 0.0 l -0.00048828125 80.30707 l 0.0 0.0 l -95.33508 30.335876 l 0.0 0.0 l 70.010864 47.083466 l 0.0 0.0 l -127.16467 -79.85297 l 0.0 0.0 l -34.51013 -15.99942 l 0.0 0.0 l -47.987183 -15.264984 l 0.0 0.0 l -7.303955 -1.7302856 l -50.650757 -9.747955 l 0.0 0.0 l 217.82043 -171.94641 l 0.0 0.0 l 73.648926 56.889465 l 0.0 0.0 l -448.39032 119.97534 l 0.0 0.0 l -83.49176 24.033691 l 0.0 0.0 l 2.7076416 -0.89486694 l 348.61975 -239.6171 l 0.0 0.0 l -89.909546 -21.68808 l 0.0 0.0 l -130.03369 141.28278 l -17.48999 -10.230011 l -17.869995 -9.289993 l -18.25 -8.350006 l -18.630005 -7.4099884 l 0.0 0.0 l 97.025085 -118.40418 l 0.0 0.0 l -43.122864 1.5309601 l 0.0 0.0 l -224.51447 331.38416 l 0.0 0.0 l 37.498535 -23.81961 l 65.34369 -205.48132 l -11.399536 -83.625496 l 0.0 0.0 l -39.080444 76.665504 l -32.489014 -55.16809 l -22.231018 50.52809 l -35.184875 -31.820122 l -23.775085 29.500114 l -32.593933 -6.344589 l -52.020996 27.453827 l -21.285095 -21.109238 l -82.86398 98.87877 l 0.0 0.0 l -19.149078 23.17633 l 31.413055 -122.0551 l -35.299988 0.0 l -35.299988 0.0 l -35.30002 0.0 l -35.299988 0.0 l -35.300003 0.0 " /> </g> </svg>