<?xml version="1.0" standalone="no"?><!DOCTYPE svg PUBLIC "-//W3C//DTD SVG 1.1//EN" "http://www.w3.org/Graphics/SVG/1.1/DTD/svg11.dtd" ><svg xmlns="http://www.w3.org/2000/svg" xmlns:xlink="http://www.w3.org/1999/xlink" version="1.1" viewBox="-10 0 692 1000"><g transform="matrix(1 0 0 -1 0 800)"><path stroke="black" fill="none" d="M 244.81824 452.49503 l 0.34613037 -0.5710449 l 38.262985 -64.65369 l -2.2560425 3.3150024 l -88.152374 189.7427 l -11.65065 42.190613 l 35.349365 -109.70041 l -45.326996 365.17307 l 6.856491 39.27069 l -16.195068 -150.16302 l -0.42977905 -12.6519165 l 0.0 0.0 l 6.31279 -60.204285 l -0.0025177002 0.028808594 l 316.23825 -119.392334 l -1.3304749 2.2946167 l -25.87326 58.205933 l 0.74490356 -2.1518555 l 103.64935 -168.95798 l -6.713379 6.306885 l 0.0 0.0 l -25.418945 32.548645 l -100.857056 242.14542 l -0.6338806 2.805481 l -6.5136414 68.313354 l 0.0 0.0 l 8.979309 107.68811 l 0.0 0.0 l 25.614197 93.006226 l -10.557922 -30.260498 l -181.98227 156.10852 l 20.819977 35.168213 l -57.318222 -108.54089 l -29.005508 -77.67871 l -0.9128876 -2.753662 l 361.08844 199.69653 l 24.034729 26.843018 l 0.0 0.0 l -0.0048217773 -0.0053710938 l -77.14627 -99.08569 l -1.4332886 -2.1689453 l -23.091553 -41.477295 l -55.4122 261.8601 l 50.502808 38.943726 l -107.925415 -91.51294 l -0.72424316 -0.79663086 l -47.05237 -51.18103 l 0.0 0.0 l 262.1147 205.43738 l -43.635315 -22.392212 l 120.06073 54.80237 l 66.33807 19.464722 l 68.61804 13.231201 l 152.40308 5.053467 l -37.22046 3.065796 l -42.71881 1.2376709 l 0.0 0.0 l -6.1035156e-05 0.0 l 0.0 0.0 l -39.933044 -168.7915 l -2.0302734 -0.40148926 l -91.677 -28.80481 l 0.19696045 0.07043457 l 37.335815 14.065186 l 219.8551 23.359863 l -41.344604 4.6691895 l 0.0 0.0 l -0.2265625 -0.008300781 l -41.127502 -1.5015869 l 418.0431 7.321411 l 0.0 -0.6274414 l 0.0 68.86426 l 0.0 0.0 l 0.0 21.30835 l 0.0 -186.17188 l 0.0 1.0231934 l 0.0 53.16577 l 0.0 0.6641846 l -305.05603 175.63489 l 2.1712036 -0.4116211 l 77.16278 -20.68042 l 1.4349365 -0.4395752 l 59.423218 -22.02124 l 57.971558 -26.51233 l 1.6037598 -0.7832031 l -153.56299 -90.93176 l 1.9940186 -0.555542 l 83.87695 -32.355835 l -29.53479 13.181274 l -476.6781 -47.409424 l -25.369751 -17.899536 l 67.22504 43.256104 l 637.27496 -97.404175 l 0.044799805 -4.22229 l 0.0 0.0 l -37.240967 28.24768 l -76.13977 50.70569 l 29.292358 -18.080566 l 44.956787 -993.4573 l 0.0 1.0582123 l 0.0 54.117874 l 0.0 0.68917847 l 0.0 57.858246 l 0.0 0.0 l 0.0 30.244934 l 0.0 -0.013763428 l -47.066406 22.135223 l 0.13000488 0.09692383 l -26.09082 -19.003021 l 0.0 0.0 l 71.14026 44.997437 l 0.0 0.0 l 1.027832 -10.097961 l -24.041382 1.0548401 l 0.19616699 0.1534729 l -71.3374 -51.863922 l 0.0 0.0 l 5.630493 3.785492 l 0.0 0.0 l -30.57312 -19.041931 l 0.0 0.0 l -32.27307 -17.522064 l 2.4851074 1.2422485 l 0.0 0.0 l -34.594727 -16.124634 l -0.39282227 -0.16940308 l 0.0 0.0 l -23.536865 -8.494629 l -12.031982 -3.7996216 l -37.526123 -9.255432 l -0.4437256 -0.09542847 l -43.223145 -6.8115845 l 13.765747 1.750885 l 176.16089 -188.49338 l 29.18164 12.060944 l 52.088745 25.602615 l 31.292114 30.364426 l 0.0 0.0 l 0.012084961 6.2041016 l -336.33356 109.615234 l 0.4696045 0.021209717 l -55.8385 0.205719 l 0.0 0.0 l -19.129028 2.1055908 l -138.12183 35.93445 l 0.1873169 -0.062164307 l 71.67975 -23.387543 l 0.0 0.0 l 281.04926 -226.93297 l 28.940063 8.603249 l -89.22107 -23.131836 l -29.540894 -5.487343 l -56.771545 -7.1444244 l -33.325623 -2.6153412 l 0.0 0.0 l 0.005554199 0.00045776367 l -63.646973 2.2590332 l 0.19824219 -0.003501892 l -196.23322 323.82254 l -25.11969 17.234894 l 69.35968 -43.3945 l 73.54498 -288.16235 l -44.10742 8.294144 l -63.459045 17.31388 l -57.465332 20.61139 l -55.60199 25.21659 l -53.455383 29.809006 l -49.045105 29.866608 l -52.43857 44.23706 l 0.0 0.0 l -9.1552734e-05 0.00015258789 l -0.000579834 0.0007171631 l -42.22986 45.61389 " /> </g> </svg>