<?xml version="1.0" standalone="no"?><!DOCTYPE svg PUBLIC "-//W3C//DTD SVG 1.1//EN" "http://www.w3.org/Graphics/SVG/1.1/DTD/svg11.dtd" ><svg xmlns="http://www.w3.org/2000/svg" xmlns:xlink="http://www.w3.org/1999/xlink" version="1.1" viewBox="-10 0 692 1000"><g transform="matrix(1 0 0 -1 0 800)"><path stroke="black" fill="none" d="M 244.30112 453.34818 l 65.1826 -104.63489 l -34.879547 51.296356 l -76.914246 165.77179 l -16.299957 59.04358 l 37.275833 -116.22589 l -48.113983 355.6206 l 9.743759 55.764404 l -15.601273 -112.96039 l -1.946991 -58.269287 l 0.0 0.0 l 0.0 0.0 l 0.0 0.0 l 6.9888 -62.90631 l 331.63672 -142.5 l -21.276855 38.641357 l -32.785126 81.94879 l 14.729706 -41.674377 l 125.33325 -183.53873 l -33.48651 31.67926 l 0.0 0.0 l 0.0 0.0 l 0.0 0.0 l -27.870361 35.66919 l -90.22296 201.2883 l -8.183685 44.70935 l -6.562958 94.17273 l 0.0 0.0 l 0.0 0.0 l 0.0 -6.1035156e-05 l 1.6367493 -47.743958 l 3.3256226 94.89813 l 8.143402 45.08673 l 26.246979 86.29852 l -14.750916 -42.333923 l -187.33844 147.96759 l 29.231812 49.369385 l -54.60585 -100.09839 l -21.466278 -52.01538 l -17.514114 -53.131042 l 358.30594 204.51947 l 31.14508 34.74341 l 0.0 0.0 l 0.0 0.0 l 0.0 0.0 l -59.079468 -71.10095 l -24.549957 -37.723145 l -21.323883 -39.324707 l -56.10852 264.14514 l 55.040222 42.442383 l -107.2814 -90.56201 l -49.407013 -53.766724 l 0.0 0.0 l 0.0 0.0 l 0.0 0.0 l 275.22223 212.23584 l -60.65326 -31.111084 l 124.1911 56.59607 l 66.329956 19.809326 l 69.148865 14.147949 l 154.60529 3.972412 l -41.171448 3.3891602 l -41.462708 1.130249 l 0.0 0.0 l 0.0 0.0 l 0.0 0.0 l -8.118774 -162.62329 l -43.7594 -8.532349 l -83.21869 -27.363281 l 40.842834 15.387329 l 221.17719 22.292358 l -42.773193 5.069214 l 0.0 0.0 l 0.0 0.0 l 0.0 0.0 l -46.84192 -1.7097168 l 421.78192 27.556274 l 0.0 -27.534424 l 0.0 82.63367 l 0.0 -27.377808 l 0.0 55.09314 l 0.0 -220.72534 l 0.0 27.539673 l 0.0 27.658203 l 0.0 27.535156 l -335.48425 174.91833 l 40.536865 -7.893799 l 40.419678 -10.192749 l 39.97522 -12.403687 l 39.823853 -14.706299 l 39.539795 -16.970459 l 39.138184 -19.169922 l -193.54297 -77.78882 l 42.132935 -11.805664 l 83.601074 -33.796875 l -41.63391 18.578247 l -465.91333 -43.239014 l -36.326294 -25.6333 l 74.185 47.870117 l 633.54803 -78.19153 l 0.00012207031 -27.553345 l 0.0 0.0 l 0.0 0.0 l 0.0 0.0 l -40.53296 32.105347 l -81.90747 54.072754 l 41.074585 -25.33435 l 42.21582 -1013.2472 l 0.0 28.038773 l 0.0 28.159027 l 0.0 28.034393 l 0.0 28.27243 l 0.0 27.900146 l 0.0 28.14212 l -55.057495 13.119629 l 10.763306 8.036316 l -21.523926 -15.870544 l -10.478882 -7.431946 l 65.12463 49.217804 l 11.137451 9.102295 l 0.033081055 -28.05194 l -33.35486 1.3992615 l 10.984253 8.595947 l -84.91345 -60.7901 l 10.130981 6.339813 l 0.0 0.0 l 0.0 0.0 l -0.00012207031 0.0 l 10.34729 6.9348755 l -40.666992 -25.20288 l 9.960327 5.7651978 l -49.35144 -26.18863 l 9.492554 4.5641785 l 19.80017 10.2565 l -9.825317 -5.212433 l -29.375122 -14.124725 l -9.616455 -4.1320496 l 0.0 0.0 l 0.0 0.0 l 0.0 0.0 l -18.319824 -6.8030396 l -19.034912 -5.99527 l -19.828125 -5.2087708 l -20.478455 -4.388916 l -43.28827 -6.4026794 l 21.992249 2.7977295 l 163.56732 -192.74081 l 40.974487 16.939453 l 40.624756 19.223785 l 40.180786 21.458572 l 0.0 0.0 l 0.0 0.0 l 0.0 1.5258789e-05 l 0.0 28.08339 l -353.5528 101.03853 l 23.431335 1.196991 l -47.698547 -1.5989685 l 0.0 0.0 l 0.0 0.0 l 0.0 0.0 l -45.353333 5.0070496 l -127.28345 35.07187 l 41.157043 -15.0896 l 42.128906 -11.609772 l 262.19012 -226.84378 l 41.77234 12.421745 l -84.01123 -22.601143 l -42.5719 -7.9047775 l -43.029724 -5.6532288 l -43.378723 -3.3883667 l 0.0 0.0 l 0.0 0.0 l 0.0 0.0 l -65.226135 2.3099365 l -186.4906 318.4516 l -36.475464 25.033142 l 74.46893 -46.752777 l 85.17493 -289.79645 l -61.312805 11.542976 l -59.418762 16.172478 l -57.46997 20.789612 l -55.530212 25.409576 l -53.58969 30.029526 l -51.64438 34.639694 l -49.71585 39.28067 l 0.0 0.0 l 0.0 0.0 l 0.0 0.0 l -44.265625 47.555847 " /> </g> </svg>