<?xml version="1.0" standalone="no"?><!DOCTYPE svg PUBLIC "-//W3C//DTD SVG 1.1//EN" "http://www.w3.org/Graphics/SVG/1.1/DTD/svg11.dtd" ><svg xmlns="http://www.w3.org/2000/svg" xmlns:xlink="http://www.w3.org/1999/xlink" version="1.1" viewBox="-10 0 692 1000"><g transform="matrix(1 0 0 -1 0 800)"><path stroke="black" fill="none" d="M 185.0 0.0 l 0.0 154.4 l 141.86469 155.82547 l 0.0 0.0 l -95.90454 171.38968 l 0.0 0.0 l -66.20145 250.66702 l 0.0 0.0 l 458.76572 -321.05383 l 0.0 0.0 l -183.20975 530.2608 l 0.0 0.0 l -238.88531 53.310852 l 0.0 0.0 l 320.54813 139.12628 l 0.0 0.0 l -336.97748 255.6737 l 0.0 154.40002 l 23.199997 0.0 l 23.199997 0.0 l 23.200012 0.0 l 23.199982 0.0 l 23.200012 0.0 l 23.200012 0.0 l 23.199982 0.0 l 23.200012 0.0 l 23.200012 0.0 l 119.608734 -144.05249 l 0.0 0.0 l -194.38275 -181.85669 l 0.0 0.0 l 128.344 325.66907 l 29.110016 -0.7199707 l 27.850006 -1.1999512 l 26.589966 -1.6800537 l 25.330017 -2.1600342 l 24.070007 -2.6398926 l 17.732971 -68.23035 l 26.627014 61.510254 l 20.29004 -4.079956 l 0.0 0.0 l 15.608826 -43.17224 l 20.431152 32.252197 l 17.150024 -6.449951 l 16.569946 -7.1099854 l 12.503967 -12.627808 l 18.896057 -3.5722656 l 14.830017 -9.089966 l 14.25 -9.75 l 136.27899 40.760742 l 0.0 0.0 l -47.69452 0.35375977 l -62.18451 -63.614502 l 12.190002 -12.669922 l 11.650024 -13.25 l 11.109985 -13.830078 l 10.570007 -14.410034 l -19.422485 -46.560425 l 0.0 0.0 l 88.10364 9.4198 l 0.0 0.0 l 410.16724 69.434326 l 0.0 0.0 l -277.11987 51.00464 l 0.0 0.0 l 73.19299 -162.05115 l 0.0 0.0 l -230.63153 -2.50708 l -186.9306 -13.729736 l 0.0 0.0 l 199.41064 -22.030273 l 5.0700073 -17.940063 l 4.289978 -17.97998 l 402.2389 16.377686 l 0.0 0.0 l -395.9989 -52.45764 l 1.9500122 -18.100098 l 1.1699829 -18.139893 l 0.0 0.0 l -1.2700195 -32.690063 l -3.8099976 -31.670044 l -6.3499756 -30.649902 l -8.890015 -29.630005 l -11.429993 -28.610046 l -13.969971 -27.589966 l -16.51001 -26.570007 l -19.049988 -25.549988 l -21.590027 -24.53003 l 0.0 0.0 l 24.080017 -9.030029 l 23.039978 -10.289978 l 22.0 -11.549988 l 20.960022 -12.809998 l 19.919983 -14.070007 l 18.880005 -15.330017 l 17.840027 -16.589966 l 16.799988 -17.850037 l 15.76001 -19.109985 l 0.0 0.0 l 13.679993 -21.140015 l 12.239929 -21.820007 l 10.800049 -22.5 l 9.359985 -23.179993 l 7.920044 -23.859985 l 6.4799805 -24.539978 l 5.040039 -25.220032 l 3.5999756 -25.899963 l 2.1600342 -26.580017 l 0.0 0.0 l -1.2800293 -35.640015 l -3.8399658 -34.51999 l -6.4000244 -33.399994 l -8.960083 -32.28 l -11.519897 -31.160004 l 248.5232 -143.51672 l 0.0 0.0 l -78.061646 144.79114 l 0.0 0.0 l -136.6482 -70.6651 l 0.0 0.0 l -78.76337 -17.965057 l 0.0 0.0 l -4.9729614 -0.98760986 l 240.72327 -160.56407 l 0.0 0.0 l -294.04034 106.547424 l -98.117615 60.525436 l 0.0 0.0 l 177.45203 -237.80551 l 0.0 0.0 l -129.52441 140.95007 l -17.48999 -10.230011 l -17.869995 -9.289993 l -18.25 -8.350006 l -18.630005 -7.4099884 l 0.0 0.0 l 73.700806 -114.924225 l 0.0 0.0 l -174.5625 284.53284 l 0.0 0.0 l 33.091675 -184.39862 l -24.271606 -59.956665 l -26.208374 52.996674 l -31.207031 -43.261528 l -23.513 38.62153 l -33.77246 -24.940048 l -25.1875 22.62004 l -33.20697 -4.9072723 l -48.233 21.234406 l -24.460052 -16.327133 l -77.21649 92.19043 l 0.0 0.0 l 6.6164856 -92.19043 l -35.299988 0.0 l -35.299988 0.0 l -35.30002 0.0 l -35.299988 0.0 l -35.300003 0.0 " /> </g> </svg>