<?xml version="1.0" standalone="no"?><!DOCTYPE svg PUBLIC "-//W3C//DTD SVG 1.1//EN" "http://www.w3.org/Graphics/SVG/1.1/DTD/svg11.dtd" ><svg xmlns="http://www.w3.org/2000/svg" xmlns:xlink="http://www.w3.org/1999/xlink" version="1.1" viewBox="-10 0 692 1000"><g transform="matrix(1 0 0 -1 0 800)"><path stroke="black" fill="none" d="M 246.06938 450.43088 l 0.022216797 -0.03665161 l 31.278488 -53.569855 l 0.0 0.0 l -95.65227 218.69809 l -0.56840515 2.0223389 l 30.854828 -94.5188 l -38.584076 388.28442 l 0.23242188 1.3982544 l -14.961868 -152.97186 l 0.0 0.0 l 4.886917 -45.18402 l 0.0 0.0 l 307.53217 -112.581116 l 0.0 0.0 l -13.746185 30.695312 l 0.0 0.0 l 91.397064 -153.88016 l 0.0 0.0 l -11.760376 17.20578 l -117.32727 300.18835 l 0.0 0.0 l 7.487488 131.24097 l 0.0 0.0 l 17.571259 71.03412 l -0.65893555 -1.7653809 l -168.77774 176.52069 l 0.9408264 1.6052246 l -64.35333 -129.76294 l -16.003418 -45.541626 l 0.0 0.0 l 375.83023 212.93115 l 5.3934326 6.1013184 l 0.0 0.0 l -83.97458 -111.54358 l 0.0 0.0 l -8.333557 -16.473755 l -53.72751 256.3318 l 39.524902 30.47876 l -109.48364 -93.8136 l -0.08175659 -0.08984375 l -41.707 -45.34961 l 228.35883 186.77917 l -2.5939941 -1.3647461 l 110.19983 50.53015 l 66.35779 18.63086 l 67.33362 11.013306 l 147.07513 7.6689453 l -27.661316 2.2833252 l -45.77417 1.4875488 l 0.0 0.0 l -0.00018310547 -0.00012207031 l -41.779785 -168.84424 l 0.0 0.0 l -88.32031 -27.882568 l 0.026550293 0.009521484 l 29.497742 11.097656 l 216.65656 25.942505 l -52.29596 3.1712646 l 0.0 0.0 l -13.668945 -0.49621582 l 408.99725 12.583374 l 0.0 0.0 l 0.0 79.34033 l 0.0 0.0 l 0.0 -171.02112 l 0.0 0.0 l 0.0 39.301514 l 0.0 0.0 l -289.80115 177.24341 l 0.0 0.0 l 58.143677 -16.268066 l 0.0 0.0 l 90.66077 -34.365723 l 31.609863 -14.956299 l 0.0 0.0 l -146.0597 -93.90271 l 0.0 0.0 l 60.398438 -21.973022 l -1.4406738 0.6483154 l -501.54388 -58.024292 l -0.9682007 -0.6783447 l 52.49298 33.583374 l 645.7758 -95.282715 l 0.0 0.0 l -28.607056 22.534424 l -62.185303 42.559326 l 1.53125 -0.9848633 l 50.84314 -986.5573 l 0.0 0.0 l 0.0 40.03604 l 0.0 0.0 l 0.0 75.60327 l 0.0 10.297974 l 0.0 0.0 l -49.210693 27.90152 l 0.0 0.0 l -14.097046 -10.329468 l 59.246216 25.803436 l 0.0 0.0 l -19.080322 4.5093994 l 0.0 0.0 l -72.22986 -52.640717 l 0.0 0.0 l -30.512817 -18.46695 l -26.119995 -14.094757 l 0.0 0.0 l -32.533325 -15.157135 l 0.0 0.0 l -35.856567 -12.493713 l -0.383667 -0.13009644 l -37.17163 -9.2535095 l 0.0 0.0 l -32.91681 -5.6586304 l 0.32055664 0.040618896 l 200.17328 -179.03941 l 1.583252 0.64512634 l 78.8916 40.648315 l 9.173828 22.915588 l 0.0 0.0 l -340.15295 110.56415 l 0.0 0.0 l -68.4079 2.1876526 l 0.0 0.0 l -136.1012 34.734436 l 0.024902344 -0.008239746 l 64.02429 -20.87738 l 306.86835 -221.85046 l 1.0036621 0.29410553 l -104.93616 -25.345276 l -1.0515747 -0.19900513 l -86.98065 -10.19178 l -7.162903 -0.5927429 l 0.0 0.0 l -61.647278 1.985115 l 0.022705078 -0.0004043579 l -219.14966 336.80554 l -0.7960205 0.5395813 l 60.148987 -37.441376 l 45.40741 -284.20877 l -2.680664 0.47225952 l -73.03381 20.037003 l -57.4541 20.180191 l -55.775757 24.74968 l -53.130463 29.275452 l -42.756317 18.318497 l -59.115326 56.34198 l 0.0 0.0 l -0.002105713 0.0027008057 l -37.215393 40.802505 " /> </g> </svg>