<?xml version="1.0" standalone="no"?><!DOCTYPE svg PUBLIC "-//W3C//DTD SVG 1.1//EN" "http://www.w3.org/Graphics/SVG/1.1/DTD/svg11.dtd" ><svg xmlns="http://www.w3.org/2000/svg" xmlns:xlink="http://www.w3.org/1999/xlink" version="1.1" viewBox="-10 0 692 1000"><g transform="matrix(1 0 0 -1 0 800)"><path stroke="black" fill="none" d="M 244.30382 453.34372 l 65.04404 -104.42935 l -34.70941 51.046112 l -76.97287 165.89682 l -16.275711 58.95569 l 37.265793 -116.191864 l -48.099457 355.67044 l 9.728699 55.678345 l -15.60437 -113.15436 l -1.9397125 -58.05017 l 0.0 0.0 l 0.0 0.0 l 0.0 0.0 l 6.985916 -62.873474 l 331.55643 -142.37933 l -21.172699 38.451538 l -32.749237 81.82526 l 14.656586 -41.46765 l 125.22037 -183.46329 l -33.35724 31.556671 l 0.0 0.0 l 0.0 -3.0517578e-05 l 0.0 0.0 l -27.847229 35.64319 l -90.27841 201.50137 l -8.144287 44.49066 l -6.5700073 94.19995 l 0.0 0.0 l 0.0 -6.1035156e-05 l 3.0517578e-05 -0.0004272461 l 1.6288757 -47.508423 l 3.4357605 95.23175 l 8.006653 44.330383 l 26.263885 86.43976 l -14.729034 -42.270935 l -187.31052 148.01007 l 29.187958 49.295288 l -54.62001 -100.142334 l -21.5056 -52.149292 l -17.427475 -52.868164 l 358.32043 204.49414 l 31.108887 34.703247 l 0.0 0.0 l 0.0 0.0 l 0.0 0.0 l -59.17462 -71.247925 l -24.42923 -37.537476 l -21.333282 -39.33618 l -56.10489 264.13318 l 55.01657 42.424194 l -107.28476 -90.56702 l -49.39981 -53.75879 l 0.0 0.0 l 0.0 0.0 l 0.0 0.0 l 275.15515 212.20178 l -60.564514 -31.065674 l 124.16962 56.586792 l 66.329956 19.807495 l 69.14612 14.143188 l 154.59375 3.9780273 l -41.150818 3.3875732 l -41.46924 1.1307373 l 0.0 0.0 l 0.0 0.0 l 0.0 0.0 l -8.284729 -162.65552 l -43.54077 -8.489624 l -83.263794 -27.371094 l 40.825623 15.380859 l 221.17023 22.297852 l -42.756653 5.067505 l 0.0 0.0 l 0.0 0.0 l 0.0 0.0 l -46.822327 -1.7089844 l 421.7624 27.450806 l 0.0 -27.376465 l 0.0 82.2323 l 0.0 -26.841553 l 0.0 54.835327 l 0.0 -220.54517 l 0.0 27.393799 l 0.0 27.798828 l 0.0 27.37854 l -335.32556 174.9386 l 40.33606 -7.8546143 l 40.61194 -10.247681 l 39.770874 -12.34021 l 39.929443 -14.745483 l 39.635986 -17.020264 l 38.940674 -19.073242 l -193.33276 -77.858154 l 41.92273 -11.746704 l 83.60339 -33.789673 l -41.5708 18.55017 l -465.96942 -43.260742 l -36.269165 -25.593018 l 74.14868 47.84607 l 633.56744 -78.29175 l 0.00048828125 -27.440552 l 0.0 0.0 l 0.0 0.0 l 0.0 0.0 l -40.51587 32.094116 l -81.87744 54.055176 l 41.013184 -25.296509 l 42.230103 -1013.144 l 0.0 27.89093 l 0.0 28.301544 l 0.0 27.876007 l 0.0 28.68866 l 0.0 27.417725 l 0.0 28.243835 l -55.01526 13.166931 l 10.686768 7.9792175 l -21.62976 -15.944336 l -10.247192 -7.2676086 l 65.18445 49.260742 l 10.901611 8.914673 l 0.11303711 -27.935883 l -33.306274 1.3974915 l 10.910156 8.537872 l -84.728516 -60.669586 l 9.975464 6.2424927 l 0.0 0.0 l 0.0 0.0 l 0.0 -3.0517578e-05 l 10.3289795 6.9227905 l -40.514893 -25.113281 l 9.731689 5.6329346 l -48.811646 -25.919739 l 8.810547 4.2362366 l 19.897339 10.296356 l -9.608765 -5.0976257 l -29.496094 -14.184479 l -9.571533 -4.112732 l 0.0 0.0 l 0.0 0.0 l 0.0 0.0 l -18.343872 -6.8105164 l -18.998413 -5.9838257 l -19.92041 -5.2298584 l -20.35376 -4.3621826 l -43.308105 -6.409149 l 21.94934 2.7922668 l 163.63293 -192.71866 l 40.912964 16.914024 l 40.68457 19.25705 l 40.134644 21.43155 l 0.0 0.0 l 0.0 3.0517578e-05 l 0.0 3.0517578e-05 l -0.00012207031 28.042694 l -353.463 101.08327 l 23.289734 1.1896973 l -47.647278 -1.5963745 l 0.0 0.0 l -6.1035156e-05 0.0 l 0.0 0.0 l -45.28833 4.9999084 l -127.339966 35.076355 l 41.68103 -15.2335205 l 41.426025 -11.416107 l 262.40778 -226.87704 l 41.705444 12.401833 l -84.03845 -22.603912 l -42.503906 -7.892174 l -43.10138 -5.6609955 l -43.327454 -3.3844376 l 0.0 0.0 l 0.0 0.0 l 0.0 0.0 l -65.216736 2.3097687 l -186.54034 318.47958 l -36.41626 24.992493 l 74.44232 -46.73526 l 85.11426 -289.78793 l -61.223083 11.526039 l -59.43982 16.178421 l -57.46997 20.788689 l -55.53058 25.408577 l -53.58899 30.028366 l -51.63083 34.614807 l -49.72998 39.306442 l 0.0 0.0 l 0.0 0.0 l 0.0 0.0 l -44.255066 47.545776 " /> </g> </svg>