<?xml version="1.0" standalone="no"?><!DOCTYPE svg PUBLIC "-//W3C//DTD SVG 1.1//EN" "http://www.w3.org/Graphics/SVG/1.1/DTD/svg11.dtd" ><svg xmlns="http://www.w3.org/2000/svg" xmlns:xlink="http://www.w3.org/1999/xlink" version="1.1" viewBox="-10 0 692 1000"><g transform="matrix(1 0 0 -1 0 800)"><path stroke="black" fill="none" d="M 244.31302 453.32852 l 64.57088 -103.72766 l -34.12851 50.191742 l -77.173004 166.3237 l -16.192932 58.65564 l 37.23149 -116.075714 l -48.049835 355.84055 l 9.677307 55.384644 l -15.614944 -113.81677 l -1.9148254 -57.300537 l 0.0 0.0 l 0.0 6.1035156e-05 l 0.0 0.00012207031 l 6.975998 -62.76294 l 331.28223 -141.96735 l -20.817078 37.803528 l -32.626617 81.40332 l 14.406799 -40.76184 l 124.83499 -183.20578 l -32.9151 31.13742 l 0.0 0.0 l 0.0 -3.0517578e-05 l 6.1035156e-05 -3.0517578e-05 l -27.769043 35.555145 l -90.46774 202.22885 l -8.009735 43.743958 l -6.5926514 94.25592 l 0.0 0.0 l 6.1035156e-05 -0.0017700195 l 0.0057678223 -0.1539917 l 1.5947571 -46.51349 l 3.811798 96.37079 l 7.539917 41.748108 l 26.321564 86.92206 l -14.654388 -42.05603 l -187.21512 148.15503 l 29.038177 49.04236 l -54.66832 -100.2926 l -21.639832 -52.6062 l -17.131699 -51.97058 l 358.36975 204.40771 l 30.98529 34.565918 l 0.0 0.0 l 0.0 0.0 l 0.0 0.0 l -59.49939 -71.749756 l -24.017029 -36.903442 l -21.365356 -39.375366 l -56.09247 264.0924 l 54.93576 42.36194 l -107.296234 -90.583984 l -49.37503 -53.731567 l 0.0 0.0 l 0.0 0.0 l 0.0 0.0 l 274.92606 212.08545 l -60.261536 -30.910522 l 124.09607 56.55481 l 66.33014 19.801392 l 69.13666 14.126831 l 154.5545 3.9973145 l -41.080444 3.381836 l -41.491577 1.1326904 l 0.0 0.0 l 0.0 0.0 l 0.0 0.0 l -8.851196 -162.76538 l -42.79431 -8.344238 l -83.41791 -27.397339 l 40.766663 15.3585205 l 221.14673 22.316895 l -42.70111 5.0615234 l 0.0 0.0 l 0.0 0.0 l -6.1035156e-05 0.0 l -46.7547 -1.706543 l 421.69586 27.090454 l 0.0 -26.836548 l 0.0 80.86133 l 0.0 -25.010498 l 0.0 53.9552 l 0.0 -219.92993 l 0.0 26.895752 l 0.0 28.27893 l 0.0 26.843994 l -334.7838 175.00745 l 39.650635 -7.7209473 l 41.268555 -10.434814 l 39.072998 -12.123535 l 40.29004 -14.879395 l 39.96411 -17.190186 l 38.266357 -18.74292 l -192.61487 -78.09509 l 41.204712 -11.54541 l 83.61157 -33.765015 l -41.355347 18.454102 l -466.161 -43.33496 l -36.074097 -25.455322 l 74.02472 47.763794 l 633.63385 -78.63379 l 0.0015869141 -27.054932 l 0.0 0.0 l 0.0 0.0 l 0.0 0.00012207031 l -40.45764 32.055176 l -81.77466 53.995117 l 40.803345 -25.167236 l 42.27893 -1012.7917 l 0.0 27.38617 l 0.0 28.788116 l 0.0 27.335236 l 0.0 30.109833 l 0.0 25.770569 l 0.0 28.591156 l -54.871338 13.328461 l 10.425659 7.7841797 l -21.99121 -16.196228 l -9.456055 -6.706543 l 65.38867 49.40735 l 10.09668 8.274109 l 0.38598633 -27.539673 l -33.14026 1.391449 l 10.656738 8.339691 l -84.09717 -60.25821 l 9.439575 5.9068604 l 0.0009765625 0.00064086914 l 0.0 0.0 l -0.00012207031 -6.1035156e-05 l 10.27124 6.884186 l -39.99597 -24.807343 l 8.95166 5.181305 l -46.969116 -25.00174 l 6.4821777 3.1166687 l 20.229004 10.432434 l -8.869385 -4.705658 l -29.90918 -14.388489 l -9.416626 -4.046234 l 0.0 0.0 l 0.0 0.0 l 0.0 3.0517578e-05 l -18.427368 -6.836609 l -18.873657 -5.944702 l -20.235596 -5.3019104 l -19.92804 -4.270996 l -43.375916 -6.431183 l 21.802856 2.7736511 l 163.85718 -192.64307 l 40.703003 16.827156 l 40.88867 19.37062 l 39.97693 21.345139 l 0.0 0.0 l 0.0 0.00018310547 l 0.0 0.000869751 l -0.00048828125 27.897125 l -353.15643 101.23596 l 22.806274 1.1647949 l -47.47809 -1.5869141 l 0.0 0.0 l -0.00018310547 3.0517578e-05 l -0.00079345703 9.1552734e-05 l -45.059998 4.974762 l -127.5329 35.091736 l 43.46997 -15.724915 l 39.026306 -10.754822 l 263.15106 -226.99068 l 41.47693 12.333847 l -84.131226 -22.613358 l -42.27191 -7.8491364 l -43.34601 -5.687546 l -43.152344 -3.3709946 l 0.0 0.0 l 0.0 0.0 l 0.0 0.0 l -65.18463 2.3091965 l -186.71033 318.57513 l -36.21405 24.853638 l 74.35138 -46.675446 l 84.907104 -289.75885 l -60.916687 11.468185 l -59.51178 16.198746 l -57.46985 20.785515 l -55.53186 25.405136 l -53.58661 30.024445 l -51.584534 34.52983 l -49.77829 39.394455 l 0.0 0.0 l 0.0 0.0 l 0.0 0.0 l -44.219025 47.51146 " /> </g> </svg>