<?xml version="1.0" standalone="no"?><!DOCTYPE svg PUBLIC "-//W3C//DTD SVG 1.1//EN" "http://www.w3.org/Graphics/SVG/1.1/DTD/svg11.dtd" ><svg xmlns="http://www.w3.org/2000/svg" xmlns:xlink="http://www.w3.org/1999/xlink" version="1.1" viewBox="-10 0 692 1000"><g transform="matrix(1 0 0 -1 0 800)"><path stroke="black" fill="none" d="M 244.34447 453.27667 l 62.95543 -101.33185 l -32.145172 47.27475 l -77.85629 167.78107 l -15.910278 57.631104 l 37.11438 -115.679016 l -47.880417 356.42126 l 9.501785 54.381958 l -15.651047 -116.07837 l -1.8292694 -54.723755 l 0.0 0.0 l 3.0517578e-05 0.00048828125 l 0.00022888184 0.0071411133 l 6.94133 -62.40973 l 330.34595 -140.56091 l -19.602936 35.591125 l -32.208008 79.96283 l 13.554138 -38.35211 l 123.51932 -182.3265 l -31.39618 29.697052 l 0.0 0.0 l 0.00030517578 -0.00024414062 l 0.0024414062 -0.002319336 l -27.514038 35.2659 l -91.11423 204.71262 l -7.550415 41.194458 l -6.6537476 94.01483 l 0.0 0.0 l 0.0030517578 -0.08117676 l 1.4846802 -43.28888 l 5.0957336 100.25964 l 5.9462585 32.93158 l 26.518585 88.56854 l -14.399506 -41.322083 l -186.88953 148.64984 l 28.526794 48.1792 l -54.833176 -100.80591 l -22.09816 -54.16626 l -16.12181 -48.906067 l 358.5382 204.11249 l 30.5625 34.096313 l 0.0 0.0 l 0.0 0.0 l -6.1035156e-05 0.0 l -60.60736 -73.461914 l -22.609741 -34.739014 l -21.474823 -39.5094 l -56.05017 263.9536 l 54.659943 42.14917 l -107.33536 -90.64172 l -49.289337 -53.63733 l 0.0 0.0 l 3.0517578e-05 0.00012207031 l 3.0517578e-05 0.0 l 274.14258 211.68652 l -59.22699 -30.380493 l 123.84497 56.4458 l 66.33063 19.780396 l 69.10437 14.071167 l 154.42065 4.0629883 l -40.84027 3.3621826 l -41.56781 1.1392822 l 0.0 0.0 l 0.0 0.0 l 0.0 0.0 l -10.785339 -163.14038 l -40.245667 -7.8476562 l -83.94397 -27.487305 l 40.56543 15.282471 l 221.06635 22.381714 l -42.519714 5.0406494 l 0.0 0.0 l -0.00018310547 0.0 l -0.001159668 0.0 l -46.514343 -1.697876 l 421.46857 25.860352 l 0.0 -24.993408 l 0.0 76.180664 l 0.0 -18.758667 l 0.0 50.950195 l 0.0 -217.82947 l 0.0 25.19519 l 0.0 29.91809 l 0.0 25.019165 l -332.93402 175.24231 l 37.309998 -7.2644043 l 43.510498 -11.073975 l 36.690308 -11.383911 l 41.521362 -15.336426 l 41.084595 -17.770264 l 35.964233 -17.615112 l -190.16406 -78.90405 l 38.75305 -10.858398 l 83.63989 -33.680542 l -40.619873 18.125977 l -466.81543 -43.5885 l -35.40802 -24.985107 l 73.60162 47.483276 l 633.86035 -79.80176 l 0.0053710938 -25.730103 l 0.0 0.0 l 0.0 0.00024414062 l 0.0 0.0010986328 l -40.258423 31.912964 l -81.424194 53.790405 l 40.08716 -24.726318 l 42.445557 -1011.58856 l 0.0 25.662827 l 0.0 30.44934 l 0.0 25.489014 l 0.0 34.961975 l 0.0 20.14682 l 0.0 29.776947 l -54.379883 13.879974 l 9.53418 7.1183167 l -23.22522 -17.056305 l -6.754883 -4.790924 l 66.08569 49.90793 l 7.348633 6.0870667 l 1.317749 -26.18692 l -32.57373 1.3708191 l 9.792114 7.6629944 l -81.94177 -58.853607 l 7.5584717 4.7289734 l 0.004638672 0.0028381348 l 0.0 0.0 l 10.124268 6.7841797 l -0.018798828 -0.012512207 l -38.204834 -23.750397 l 6.287964 3.6394043 l -40.67798 -21.867401 l 0.28479004 0.1368103 l 19.60913 10.054321 l -6.345215 -3.36734 l -31.319214 -15.084961 l -8.838257 -3.7977905 l -0.035888672 -0.015472412 l 0.0 0.0 l 0.00036621094 0.00015258789 l -18.726562 -6.9316406 l -18.447998 -5.8112183 l -21.311523 -5.5479126 l -18.47461 -3.9595947 l -43.60742 -6.506439 l 21.302795 2.7099915 l 164.62274 -192.38484 l 39.986084 16.530579 l 41.58557 19.758408 l 39.438354 21.117737 l 0.0 0.0 l 0.0 0.0032348633 l -0.0012207031 0.5200958 l -0.00024414062 26.813568 l -352.10968 101.75737 l 21.15564 1.079773 l -46.96649 -1.5473022 l 0.0 0.0 l -0.0031738281 0.00033569336 l -0.4928589 0.054870605 l -43.722412 4.826935 l -128.19177 35.144165 l 49.57782 -17.402618 l 30.833252 -8.49707 l 265.68848 -227.3786 l 40.6969 12.101715 l -84.447876 -22.645622 l -41.479797 -7.7021713 l -44.181396 -5.7781982 l -42.553223 -3.324997 l 0.0 0.0 l 0.0 0.0 l 6.1035156e-05 7.6293945e-06 l -65.076294 2.3071136 l -187.29053 318.90146 l -35.523743 24.379547 l 74.04077 -46.471283 l 84.200134 -289.65952 l -59.87079 11.270683 l -59.757385 16.268135 l -57.469543 20.774681 l -55.536255 25.393402 l -53.57843 30.011047 l -51.426514 34.239655 l -49.943237 39.695023 l 0.0 0.0 l 0.0 0.0 l 0.0 0.0 l -44.095886 47.39418 " /> </g> </svg>