<?xml version="1.0" standalone="no"?><!DOCTYPE svg PUBLIC "-//W3C//DTD SVG 1.1//EN" "http://www.w3.org/Graphics/SVG/1.1/DTD/svg11.dtd" ><svg xmlns="http://www.w3.org/2000/svg" xmlns:xlink="http://www.w3.org/1999/xlink" version="1.1" viewBox="-10 0 692 1000"><g transform="matrix(1 0 0 -1 0 800)"><path stroke="black" fill="none" d="M 244.4518 453.09958 l 57.440002 -93.15213 l -25.373657 37.31549 l -80.18918 172.75684 l -14.945297 54.13324 l 36.714523 -114.324615 l -47.301956 358.4039 l 8.902512 50.95862 l -15.774277 -123.79993 l -1.530304 -45.724792 l 0.0 0.0 l 0.00047302246 0.013916016 l 6.8167267 -61.38611 l -0.027145386 0.31121826 l 327.17654 -136.07 l -15.457642 28.037354 l -30.778748 75.04474 l 10.642914 -30.124817 l 119.027405 -179.32446 l -26.098755 24.674622 l 0.0 0.0 l 0.006286621 -0.00592041 l -26.74939 34.37787 l -93.32135 213.19269 l -5.9821777 32.49005 l -6.6733093 88.153076 l 0.0 0.0 l 0.9133911 -27.067444 l 9.479309 113.53705 l 0.50631714 2.8363037 l 27.190033 94.183716 l -13.529236 -38.816162 l -185.77783 150.33954 l 26.780884 45.23169 l -55.396133 -102.55823 l -23.662964 -59.492798 l -12.673828 -38.442932 l 359.11346 203.10443 l 29.109253 32.482056 l 0.0 0.0 l -0.00024414062 -0.00024414062 l -0.0017089844 -0.001953125 l -64.37891 -79.29468 l -17.80487 -27.348999 l -21.848602 -39.966797 l -55.90564 263.47937 l 53.7182 41.422974 l -107.469055 -90.83911 l -48.98297 -53.300537 l 0.0 0.0 l 0.00030517578 0.00024414062 l 271.45383 210.30994 l -55.694824 -28.5708 l 122.98767 56.073486 l 66.33234 19.708862 l 68.9942 13.880859 l 153.96362 4.2873535 l -40.020264 3.295044 l -41.82831 1.1617432 l 0.0 0.0 l 0.0 0.0 l 0.0 0.0 l -17.388794 -164.42078 l -31.544006 -6.1520996 l -85.74011 -27.794434 l 39.878418 15.022583 l 220.79199 22.603394 l -41.997375 4.9659424 l 0.0 0.0 l -0.0040893555 -0.00012207031 l -0.817688 -0.030151367 l -44.78076 -1.6343994 l 420.69257 21.660522 l 0.0 -18.700806 l 0.0 60.200195 l 0.0 -0.5288086 l 0.0 43.805054 l 0.0 -210.65771 l 0.0 19.389038 l 0.0 35.514893 l 0.0 18.78833 l -326.61853 176.04468 l 29.318848 -5.7060547 l 51.164917 -13.256226 l 28.555298 -8.858276 l 45.725098 -16.897095 l 44.910156 -19.750732 l 28.104492 -13.7647705 l -181.79675 -81.666016 l 30.382812 -8.512329 l 83.73645 -33.392456 l -38.108643 17.00586 l -469.04974 -44.454224 l -33.13391 -23.379883 l 72.15704 46.525635 l 634.6339 -83.78943 l 0.016967773 -21.110718 l 0.0 0.0 l 0.0 0.0040283203 l -39.577515 31.332642 l -80.22705 53.091675 l 37.6416 -23.220825 l 43.014526 -1007.4811 l 0.0 19.779053 l 0.0 36.121063 l 0.0 19.185547 l 0.0 51.52823 l 0.0 1.3080139 l 0.0 33.463684 l 0.0 -0.07678223 l -52.70166 15.839691 l 6.489868 4.84494 l -27.437622 -19.992493 l -0.21508789 -0.15264893 l 71.14746 53.518738 l 0.23278809 0.2602539 l 2.232666 -23.208435 l -30.639526 1.300293 l 6.839966 5.352661 l -74.58264 -54.058044 l 0.89001465 0.5545349 l 0.0 0.0 l 9.886108 6.6061096 l -0.005859375 -0.00390625 l -32.171753 -20.19574 l 0.17993164 0.104034424 l -39.0979 -21.019226 l 0.0 0.0 l 13.536621 6.853363 l -0.2529297 -0.13537598 l -33.608032 -16.125824 l -6.790283 -2.9180603 l -0.06677246 -0.028747559 l 0.0 0.0 l -19.911621 -7.3265076 l -16.994507 -5.35553 l -24.984741 -6.3878174 l -13.512451 -2.8963623 l -44.397827 -6.763397 l 19.595276 2.4927063 l 167.23663 -191.50327 l 37.538452 15.518028 l 43.964966 21.082352 l 37.597656 21.129944 l 0.0 0.0 l -0.00036621094 0.16958618 l -0.0028076172 24.462418 l -348.5357 103.537506 l 15.5199585 0.78948975 l -45.990906 -1.3262329 l 0.0 0.0 l -0.16351318 0.018188477 l -40.407166 4.461487 l -130.44135 35.32318 l 70.43146 -23.130554 l 2.8648682 -0.789978 l 274.34747 -228.70178 l 38.033447 11.309174 l -85.529175 -22.755768 l -38.775085 -7.200424 l -47.03357 -6.0877075 l -40.495544 -3.1669388 l 0.0 0.0 l 0.00024414062 2.2888184e-05 l 0.0017700195 0.0001449585 l -64.72052 2.298874 l -189.27148 320.0155 l -33.166748 22.761017 l 72.980286 -45.774292 l 81.786316 -289.32034 l -56.299744 10.596382 l -60.59601 16.505035 l -57.468567 20.737686 l -55.551147 25.353348 l -53.550537 29.965271 l -50.887054 33.248993 l -50.506897 40.721954 l 0.0 0.0 l -3.0517578e-05 1.5258789e-05 l 0.0 3.0517578e-05 l -43.674896 46.993042 " /> </g> </svg>