<?xml version="1.0" standalone="no"?><!DOCTYPE svg PUBLIC "-//W3C//DTD SVG 1.1//EN" "http://www.w3.org/Graphics/SVG/1.1/DTD/svg11.dtd" ><svg xmlns="http://www.w3.org/2000/svg" xmlns:xlink="http://www.w3.org/1999/xlink" version="1.1" viewBox="-10 0 692 1000"><g transform="matrix(1 0 0 -1 0 800)"><path stroke="black" fill="none" d="M 1326.0 1461.0 l 0.0 -27.599976 l 0.0 -27.599976 l 0.0 -27.600098 l 0.0 -27.599976 l 0.0 -27.599976 l 0.0 -27.599976 l 0.0 -27.599976 l 0.0 -27.600098 l 0.0 -27.599976 l -18.197021 -504.10712 l 0.0 0.0 l 1.8144531 268.4165 l 0.0 0.0 l -36.213257 141.51935 l 0.0 0.0 l -31.260254 79.7168 l -34.00769 45.03589 l -37.469727 42.1084 l -40.93164 39.18103 l -42.40747 46.142822 l 0.0 0.0 l -50.987427 -31.823608 l -42.49994 8.449951 l -42.78003 5.0699463 l 0.0 0.0 l -46.849976 -1.7099609 l -45.350037 -5.130005 l -43.849976 -8.549927 l -42.349976 -11.970093 l -40.850037 -15.390015 l -39.349976 -18.809937 l -37.850037 -22.22998 l -36.349976 -25.650024 l -34.849976 -29.069946 l 0.0 0.0 l -31.160034 -34.76001 l -27.880005 -36.28003 l -24.599976 -37.80005 l -21.320007 -39.319946 l -18.040009 -40.839966 l -14.759979 -42.360046 l -11.480011 -43.880005 l -8.200012 -45.400024 l -4.919983 -46.919983 l 0.0 0.0 l 1.6399841 -47.839966 l 4.9200134 -46.320007 l 8.200012 -44.799988 l 11.47998 -43.28003 l 14.76001 -41.76001 l 18.040009 -40.23999 l 21.319977 -38.71997 l 24.600006 -37.200043 l 27.880005 -35.679993 l 0.0 0.0 l 33.539978 -31.72998 l 35.02002 -28.390015 l 36.5 -25.049988 l 37.97998 -21.710022 l 39.460022 -18.369995 l 40.940002 -15.029999 l 42.419983 -11.690002 l 43.900024 -8.350006 l 45.380005 -5.0099792 l 0.0 0.0 l 24.22998 0.3999939 l -57.722473 -111.838425 l 0.0 0.0 l 103.96246 115.03844 l 22.01001 2.7999878 l 1.338501 -54.911682 l 0.0 0.0 l 61.927734 40.682556 l 0.0 0.0 l -1.6762695 27.429138 l 19.050049 6.0 l 16.535156 -5.9986877 l 0.0018310547 0.012786865 l 11.407959 16.925476 l 12.69458 -0.45239258 l 0.0 0.0 l 6.7854004 9.572571 l 9.845093 4.9802246 l 9.914917 5.26001 l 9.985107 5.540161 l 7.2441406 17.45169 l 12.935669 -5.5317993 l 10.19519 6.379944 l 0.0 0.0 l 10.35498 6.940094 l 4.974243 35.935455 l 16.065674 -21.215485 l 10.685059 7.7800293 l 5.5270996 58.115967 l 16.172852 -41.715942 l 25.051147 150.93832 l 0.0 0.0 l -2.9111328 -133.41837 l 11.234985 9.179932 l 0.0 -28.100006 l 0.0 -28.100006 l 0.0 -28.100006 l 0.0 -28.099976 l 0.0 -28.100006 l 0.0 -28.100006 l 0.0 -28.100006 l 0.0 -28.09999 l 0.0 -28.100006 l 0.0 -28.100006 l 0.0 0.0 l -40.19995 -21.469986 l -40.599976 -19.210007 l -41.0 -16.949997 l -41.400024 -14.690002 l -41.80005 -12.43 l -42.19995 -10.169998 l -42.600037 -7.9100037 l -43.0 -5.6500015 l -43.399963 -3.3899994 l 0.0 0.0 l -112.61273 107.07355 l 0.0 0.0 l -15.907288 -97.83354 l -61.349976 11.549995 l -1.1159058 73.21989 l 0.0 0.0 l -76.10132 -4.15007 l 0.0 0.0 l -96.87555 -0.51979065 l 0.0 0.0 l -47.106995 2.5761719 l 0.0 0.0 l -56.450256 55.923813 l -249.85638 -166.8884 l 0.0 0.0 l 235.23154 109.04249 l 0.0 0.0 l -79.35513 144.67589 l -127.673096 21.315948 l 53.113068 79.56406 l -72.221436 60.285004 l 16.301453 48.274994 l -20.970001 57.160004 l -13.757355 53.96759 l -14.202652 66.11243 l 8.743118 79.36023 l -0.015716553 -0.016418457 l -13.767395 41.936157 l 5.849991 57.080017 l 13.073395 60.33252 l 10.326614 49.987488 l 17.550003 53.23999 l -12.45578 52.730713 l 59.255783 49.9093 l 29.25 49.400024 l -62.804413 53.27478 l 0.09591675 -0.005126953 l 160.47314 310.90588 l 0.0 0.0 l 37.02533 -214.17554 l 55.05002 42.44995 l 49.214172 171.34949 l 0.0 0.0 l 69.345825 -103.42944 l 63.98352 96.03418 l 0.0 0.0 l 65.856445 -50.75415 l 5.3011475 44.51538 l 0.0 0.0 l 107.22089 -20.728638 l 0.0 0.0 l 25.309937 -7.7523193 l 62.078064 -22.067505 l 0.0 0.0 l 23.849976 24.153076 l 19.205017 -42.742798 l 0.0 0.0 l 85.93713 -58.012695 l 0.0 0.0 l 16.717896 77.02539 l 40.059937 -12.429932 l 39.78003 -14.690063 l 39.5 -16.949951 l 39.21997 -19.20996 " /> </g> </svg>