<?xml version="1.0" standalone="no"?><!DOCTYPE svg PUBLIC "-//W3C//DTD SVG 1.1//EN" "http://www.w3.org/Graphics/SVG/1.1/DTD/svg11.dtd" ><svg xmlns="http://www.w3.org/2000/svg" xmlns:xlink="http://www.w3.org/1999/xlink" version="1.1" viewBox="-10 0 692 1000"><g transform="matrix(1 0 0 -1 0 800)"><path stroke="black" fill="none" d="M 1314.7803 734.27954 l -12.352417 -63.89618 l 22.379517 201.18695 l 0.0 0.0 l 0.0 -0.00018310547 l 0.0 -0.0009765625 l -2.4727783 -69.3479 l -4.914917 137.41571 l -11.65979 62.593018 l -16.918335 62.128662 l -21.352905 58.23999 l -26.328613 56.07617 l -31.076294 53.172485 l -35.853394 50.432007 l -40.630737 47.69165 l -69.65881 64.565674 l 24.256958 -19.584229 l 0.0 0.0 l 0.0 0.0 l 0.0 0.0 l -199.7887 -1177.7357 l 0.0 0.0 l 0.00024414062 7.6293945e-05 l 0.00091552734 0.00038146973 l 26.824951 10.525879 l -53.411743 -18.66806 l 80.50391 30.745926 l 26.362427 13.192001 l 52.022644 30.352753 l -25.314453 -15.501404 l 51.445923 32.98352 l 25.773438 18.82904 l 25.382202 19.9469 l 25.118408 21.318604 l 0.0 0.0 l 0.0 0.0 l 0.0 0.0 l 42.33252 48.06961 l 37.352295 50.78473 l 32.369873 53.500977 l 27.508423 56.601776 l 22.239136 58.511536 l -452.1811 -426.71774 l -30.674438 -6.3919525 l -33.395264 -5.6400604 l -34.932617 -4.689148 l -38.224304 -3.9377136 l -38.50952 -2.9338531 l -41.739075 -2.1609344 l -44.114502 -1.2976227 l -31.706665 0.0001373291 l -66.1254 0.00036621094 l -29.178955 -1.5258789e-05 l 63.074524 0.0007324219 l -322.14716 -154.30284 l 128.1624 154.302 l -39.50244 0.0 l 2.4725647 0.0 l -71.51338 4.5776367e-05 l -18.296371 1.5258789e-05 l 190.94128 -6.1035156e-05 l -29.132477 0.0 l 62.77893 0.0 l -225.84972 154.4252 l -0.04118347 154.36862 l -0.039718628 154.4108 l -0.011779785 154.3808 l 0.01109314 154.41058 l 0.033233643 154.40326 l 0.055389404 308.46338 l -0.053649902 -153.85559 l 0.7842407 308.59302 l 33.622055 0.0 l 29.563751 0.0 l 33.583908 0.0 l 31.484497 0.0 l 33.261627 0.0 l 31.630005 0.0 l 129.98813 0.0 l 0.0 0.0 l -0.0010986328 0.0 l -0.046966553 0.0 l -30.88327 0.0 l -35.844482 0.0 l -29.52066 0.0 l 184.82117 -1.8150635 l -42.522217 1.3441162 l 84.711914 -3.6550293 l 40.277893 -3.2592773 l 37.468018 -4.1054688 l 101.63422 -17.942749 l -32.49048 7.003174 l -32.894775 5.8096924 l 95.458984 -20.672363 l 0.0 0.0 l 0.0029907227 -0.0010986328 l 0.48077393 -0.16113281 l 27.477295 -9.210083 l 29.01416 -11.18103 l 27.38971 -12.036133 l 53.639587 -28.043335 l -26.323792 14.532837 l 52.655884 -30.651245 l 25.262817 -17.036865 " /> </g> </svg>