<?xml version="1.0" standalone="no"?><!DOCTYPE svg PUBLIC "-//W3C//DTD SVG 1.1//EN" "http://www.w3.org/Graphics/SVG/1.1/DTD/svg11.dtd" ><svg xmlns="http://www.w3.org/2000/svg" xmlns:xlink="http://www.w3.org/1999/xlink" version="1.1" viewBox="-10 0 692 1000"><g transform="matrix(1 0 0 -1 0 800)"><path stroke="black" fill="none" d="M 1314.7943 734.3505 l -12.421509 -64.25244 l 22.401245 201.31183 l 0.0 0.0 l 0.0 0.0 l 0.0 -6.1035156e-05 l -2.4851074 -69.69861 l -4.7487793 136.93079 l -11.86499 63.69403 l -16.785156 61.620422 l -21.46399 58.544067 l -26.301392 55.97278 l -31.071777 53.184937 l -35.850952 50.444702 l -40.63025 47.704712 l -69.77283 64.646484 l 24.365234 -19.673218 l 0.0 0.0 l 0.0 0.0 l 0.0 0.0 l -199.79901 -1177.7396 l 0.0 0.0 l 0.0 0.0 l 6.1035156e-05 1.5258789e-05 l 26.979553 10.58638 l -53.62262 -18.747208 l 80.50818 30.734665 l 26.502136 13.2612915 l 52.28949 30.527603 l -25.855774 -15.832764 l 51.78119 33.193176 l 25.650757 18.702423 l 25.366577 19.977386 l 25.119507 21.32666 l 0.0 0.0 l 0.0 0.0 l 0.0 0.0 l 42.33069 48.076935 l 37.350708 50.795532 l 32.369873 53.514435 l 27.424805 56.34601 l 22.359863 58.828613 l -452.08838 -426.783 l -30.869263 -6.4329987 l -33.179443 -5.60466 l -35.142883 -4.718033 l -37.62018 -3.8898315 l -39.21698 -2.9877014 l -41.676086 -2.1531982 l -43.88507 -1.2922363 l -31.914062 3.0517578e-05 l -64.62253 0.00010681152 l -31.173737 0.0 l 63.728943 0.00021362305 l -322.24112 -154.37149 l 129.65979 154.37125 l -56.82483 0.0 l 23.3508 0.0 l -95.798325 6.1035156e-05 l 193.30214 -6.1035156e-05 l -31.160126 0.0 l 63.642365 0.0 l -226.154 154.40741 l -0.012054443 154.39081 l -0.011642456 154.40317 l -0.0034484863 154.39441 l 0.003250122 154.40308 l 0.009735107 154.40088 l 0.016220093 308.70142 l -0.015716553 -154.24048 l 0.22970581 308.73938 l 32.757935 0.0 l 31.569275 0.0 l 32.746765 0.0 l 32.131866 0.0 l 32.652344 0.0 l 32.1745 0.0 l 129.72397 0.0 l 0.0 0.0 l -9.1552734e-05 0.0 l -0.00021362305 0.0 l -31.979828 0.0 l -33.408875 0.0 l -31.55664 0.0 l 185.99411 -1.8327637 l -43.32672 1.3695068 l 85.170166 -3.6726074 l 39.897583 -3.2315674 l 37.6886 -4.129883 l 101.59589 -17.940796 l -32.072998 6.930176 l -33.57727 5.930176 l 95.60901 -20.685059 l 0.0 0.0 l 0.00018310547 -0.00012207031 l 0.00079345703 -0.00024414062 l 28.524231 -9.561035 l 28.431396 -10.97522 l 27.57373 -12.116699 l 53.66815 -28.069214 l -26.497864 14.629761 l 52.616333 -30.61499 l 25.423523 -17.145142 " /> </g> </svg>