<?xml version="1.0" standalone="no"?><!DOCTYPE svg PUBLIC "-//W3C//DTD SVG 1.1//EN" "http://www.w3.org/Graphics/SVG/1.1/DTD/svg11.dtd" ><svg xmlns="http://www.w3.org/2000/svg" xmlns:xlink="http://www.w3.org/1999/xlink" version="1.1" viewBox="-10 0 692 1000"><g transform="matrix(1 0 0 -1 0 800)"><path stroke="black" fill="none" d="M 1326.0 1461.0 l 0.0 -27.599976 l 0.0 -27.599976 l 0.0 -27.600098 l 0.0 -27.599976 l 0.0 -27.599976 l 0.0 -27.599976 l 0.0 -27.599976 l 0.0 -27.600098 l 0.0 -27.599976 l -20.38562 -524.7866 l -0.2199707 -1.1984863 l 17.224365 137.99329 l 0.0 0.0 l -13.007446 153.99274 l 0.0 0.0 l -36.514526 129.53473 l -0.73083496 1.8415527 l -30.953125 74.198975 l -31.93042 50.801758 l -36.32434 48.006836 l -40.718384 45.211914 l -47.919067 49.154785 l 2.1297607 -1.5505371 l 0.0 0.0 l -50.310425 -37.010864 l -42.49994 8.449951 l -42.78003 5.0699463 l 0.0 0.0 l -46.849976 -1.7099609 l -45.350037 -5.130005 l -43.849976 -8.549927 l -42.349976 -11.970093 l -40.850037 -15.390015 l -39.349976 -18.809937 l -37.850037 -22.22998 l -36.349976 -25.650024 l -34.849976 -29.069946 l 0.0 0.0 l -31.160034 -34.76001 l -27.880005 -36.28003 l -24.599976 -37.80005 l -21.320007 -39.319946 l -18.040009 -40.839966 l -14.759979 -42.360046 l -11.480011 -43.880005 l -8.200012 -45.400024 l -4.919983 -46.919983 l 0.0 0.0 l 1.6399841 -47.839966 l 4.9200134 -46.320007 l 8.200012 -44.799988 l 11.47998 -43.28003 l 14.76001 -41.76001 l 18.040009 -40.23999 l 21.319977 -38.71997 l 24.600006 -37.200043 l 27.880005 -35.679993 l 0.0 0.0 l 33.539978 -31.72998 l 35.02002 -28.390015 l 36.5 -25.049988 l 37.97998 -21.710022 l 39.460022 -18.369995 l 40.940002 -15.029999 l 42.419983 -11.690002 l 43.900024 -8.350006 l 45.380005 -5.0099792 l 0.0 0.0 l 24.22998 0.3999939 l -33.325317 -103.55467 l 0.0 0.0 l -25.267883 -8.677063 l 104.83319 115.43175 l 22.01001 2.7999878 l -48.61554 -86.01108 l 0.0 0.0 l 1.1704102 0.6496582 l 51.307373 27.918686 l 0.0 0.0 l 15.2664795 9.779343 l 49.17169 42.98062 l 12.3396 23.882782 l 16.01538 -9.747345 l 0.009399414 0.06777954 l 11.920166 20.61914 l 12.95105 -0.87042236 l 0.0 0.0 l -0.00024414062 0.00030517578 l 6.529175 9.990295 l 9.845093 4.9802246 l 9.914917 5.26001 l 9.985107 5.540161 l 6.4208984 20.858582 l 13.758911 -8.93869 l 10.19519 6.379944 l 0.0 0.0 l 10.35498 6.940094 l 3.3660889 44.34604 l 17.673828 -29.626068 l 10.685059 7.7800293 l 3.9841309 72.77704 l 17.71582 -56.377014 l 25.76416 161.77487 l 0.49523926 1.3806763 l -4.119385 -145.63559 l 11.234985 9.179932 l 0.0 -28.100006 l 0.0 -28.100006 l 0.0 -28.100006 l 0.0 -28.099976 l 0.0 -28.100006 l 0.0 -28.100006 l 0.0 -28.100006 l 0.0 -28.09999 l 0.0 -28.100006 l 0.0 -28.100006 l 0.0 0.0 l -40.19995 -21.469986 l -40.599976 -19.210007 l -41.0 -16.949997 l -41.400024 -14.690002 l -41.80005 -12.43 l -42.19995 -10.169998 l -42.600037 -7.9100037 l -43.0 -5.6500015 l -43.399963 -3.3899994 l 0.0 0.0 l -102.07428 111.69545 l -0.58776855 -0.1013031 l -25.857971 -102.35414 l -61.349976 11.549995 l 19.716125 79.95313 l -0.8078003 -0.060821533 l -88.756836 -7.6348267 l 0.0 0.0 l -16.021729 -0.85424805 l -87.88806 -2.3263245 l -0.48510742 0.0031280518 l -47.021942 0.23236084 l 0.48361206 -0.01071167 l -56.868286 57.74832 l -255.70671 -199.0134 l 0.007217407 0.039634705 l 26.051514 141.05428 l 0.0 0.0 l 215.06546 -0.0005340576 l 0.0 0.0 l -79.39746 144.75 l -153.46619 13.066864 l 78.90616 87.81314 l -84.50287 62.32498 l 28.582886 46.235016 l -20.970001 57.160004 l -13.009705 52.470215 l -14.950302 67.6098 l 13.351242 84.175476 l -0.13795471 -0.14416504 l -18.25328 37.248657 l 5.849991 57.080017 l 14.046799 61.660095 l 9.35321 48.659912 l 17.550003 53.23999 l -22.38655 52.95642 l 69.186554 49.683594 l 29.25 49.400024 l -90.9088 163.96179 l -7.2916107 -80.41907 l 53.4068 280.66638 l 0.0 0.0 l 85.8876 0.0007324219 l 0.0 0.0 l 93.695984 -214.20984 l 55.05002 42.44995 l -57.943573 171.7572 l 0.0 0.0 l 75.27539 -0.00036621094 l 0.0 0.0 l 101.22818 -103.83679 l -24.463623 102.68628 l 0.0 0.0 l 25.636719 -1.0714111 l 128.66687 -56.33484 l -15.839111 47.784546 l 0.9036865 -0.0871582 l 103.42792 -17.685425 l 0.0 0.0 l -45.821594 8.992554 l 0.0 0.0 l 105.15112 -26.056274 l 53.21216 -21.175781 l 0.3675537 -0.17016602 l 22.358276 26.5177 l 17.73938 -46.118042 l -0.40026855 0.19689941 l 67.483215 -41.725952 l 0.51330566 -0.35327148 l 36.524414 64.27026 l 40.059937 -12.429932 l 39.78003 -14.690063 l 39.5 -16.949951 l 39.21997 -19.20996 " /> </g> </svg>