<?xml version="1.0" standalone="no"?><!DOCTYPE svg PUBLIC "-//W3C//DTD SVG 1.1//EN" "http://www.w3.org/Graphics/SVG/1.1/DTD/svg11.dtd" ><svg xmlns="http://www.w3.org/2000/svg" xmlns:xlink="http://www.w3.org/1999/xlink" version="1.1" viewBox="-10 0 692 1000"><g transform="matrix(1 0 0 -1 0 800)"><path stroke="black" fill="none" d="M 1314.7983 734.37134 l -12.441772 -64.35681 l 22.40747 201.34619 l 0.0 0.0 l 0.0 0.0 l 0.0 0.0 l -2.4885254 -69.79889 l -4.7001953 136.78882 l -11.925049 64.01648 l -16.746216 61.471558 l -21.49646 58.63318 l -26.293457 55.942505 l -31.070435 53.1886 l -35.85022 50.448364 l -40.630127 47.708496 l -69.806274 64.670166 l 24.396973 -19.699219 l 0.0 0.0 l 0.0 0.0 l 0.0 0.0 l -199.79993 -1177.74 l 0.0 0.0 l 0.0 0.0 l 0.0 0.0 l 27.022522 10.603165 l -53.68445 -18.770386 l 80.50952 30.731354 l 26.54303 13.281586 l 52.367676 30.578812 l -26.014343 -15.92981 l 51.879333 33.254578 l 25.614868 18.665344 l 25.361938 19.986298 l 25.119873 21.32904 l 0.0 0.0 l 0.0 0.0 l 0.0 0.0 l 42.3302 48.0791 l 37.35022 50.798676 l 32.369873 53.51837 l 27.400269 56.271088 l 22.395264 58.921448 l -452.06122 -426.80206 l -30.92633 -6.4450226 l -33.11621 -5.5942993 l -35.204468 -4.726486 l -37.4433 -3.8758087 l -39.424194 -3.003479 l -41.657654 -2.1509247 l -43.81781 -1.2906647 l -31.974854 1.5258789e-05 l -64.18231 3.0517578e-05 l -31.757996 0.0 l 63.920624 6.1035156e-05 l -322.26865 -154.3916 l 130.09836 154.39153 l -61.898438 0.0 l 29.466705 0.0 l -97.55315 6.1035156e-05 l 193.9936 -6.1035156e-05 l -31.753998 0.0 l 63.895233 0.0 l -226.2431 154.40222 l -0.0035247803 154.39728 l -0.0034179688 154.40091 l -0.0010070801 154.39838 l 0.0009460449 154.40088 l 0.0028533936 154.4002 l 0.004760742 308.77124 l -0.0046081543 -154.35327 l 0.067276 308.78223 l 32.504837 0.0 l 32.156693 0.0 l 32.50157 0.0 l 32.321472 0.0 l 32.473877 0.0 l 32.333984 0.0 l 129.63718 0.0 l 0.0 0.0 l 0.0 0.0 l -3.0517578e-05 0.0 l -32.277863 0.0 l -32.695496 0.0 l -32.152985 0.0 l 186.33768 -1.8378906 l -43.562378 1.376831 l 85.30444 -3.6777344 l 39.786133 -3.2235107 l 37.753174 -4.136963 l 101.58472 -17.940186 l -31.950745 6.9088135 l -33.77716 5.965454 l 95.67163 -20.695068 l 0.0 0.0 l 0.0 0.0 l 6.1035156e-05 0.0 l 28.671692 -9.610474 l 28.260681 -10.915039 l 27.627686 -12.140259 l 53.676514 -28.076782 l -26.54889 14.658203 l 52.604797 -30.60437 l 25.47052 -17.17688 " /> </g> </svg>