<?xml version="1.0" standalone="no"?><!DOCTYPE svg PUBLIC "-//W3C//DTD SVG 1.1//EN" "http://www.w3.org/Graphics/SVG/1.1/DTD/svg11.dtd" ><svg xmlns="http://www.w3.org/2000/svg" xmlns:xlink="http://www.w3.org/1999/xlink" version="1.1" viewBox="-10 0 692 1000"><g transform="matrix(1 0 0 -1 0 800)"><path stroke="black" fill="none" d="M 1314.0121 730.38513 l -8.564331 -44.34674 l 20.509277 176.04486 l 0.0 0.0 l -1.1190186 -31.876099 l -14.026611 164.02332 l -0.45581055 2.4805908 l -24.174683 89.71161 l -15.256958 41.559204 l -27.822754 61.74695 l -31.322021 52.4906 l -35.98889 49.734375 l -40.655884 46.978394 l -63.405396 60.13269 l 18.16626 -14.594116 l 0.003540039 -0.0026855469 l 0.0 0.0 l -181.90411 -1170.88 l 0.0 0.0 l 1.6855469 0.6597748 l -42.294006 -14.503754 l 80.26709 31.364166 l 0.045410156 0.024612427 l 18.652588 9.36554 l 37.3786 20.758408 l -0.47729492 -0.29389954 l 37.92169 24.454498 l 32.50403 25.776276 l 26.237305 18.275208 l 25.05481 20.878601 l 0.0 0.0 l 0.0 3.0517578e-05 l 0.0 6.1035156e-05 l 42.431885 47.663208 l 37.44519 50.192932 l 32.362183 52.76172 l 32.10266 70.63803 l 15.610474 41.112183 l -457.266 -423.13812 l -19.984009 -4.1392975 l -45.239136 -7.582138 l -23.394836 -3.104477 l -71.37128 -6.56546 l -1.373169 -0.10652161 l -43.511047 -2.4575348 l -56.705994 -1.5935364 l -20.326782 0.005844116 l -89.116516 0.025344849 l 0.0 0.0 l 47.970215 0.017654419 l -316.99207 -150.53583 l 0.106933594 0.5871668 l 92.12172 149.91536 l 0.0 0.0 l -70.58804 4.5776367e-05 l 0.0 0.0 l 154.19061 -6.1035156e-05 l 0.0 0.0 l 35.742645 0.0 l -209.1544 155.40085 l -1.6392365 153.1517 l -1.5807037 154.82913 l -0.46835327 153.63422 l 0.440979 154.82306 l 1.3228912 154.53369 l 2.204834 295.3988 l -2.135666 -132.73157 l 31.211914 300.56006 l 21.501434 0.00012207031 l 0.0 0.0 l 53.90721 0.0 l 0.0 0.0 l 0.63079834 0.0 l 66.39984 -0.00024414062 l 0.0 0.0 l 2.0454102 0.0 l 140.10446 0.00012207031 l 0.0 0.0 l -76.611206 0.00012207031 l 0.0 0.0 l 140.77274 -0.8425293 l -1.1358032 0.037353516 l 62.326782 -2.7739258 l 61.14691 -4.781372 l 25.365417 -2.7712402 l 103.734985 -18.04712 l -0.0051879883 0.0009765625 l -55.393982 11.00647 l -0.65008545 0.11682129 l 108.327515 -26.224731 l 0.0 0.0 l 42.10382 -16.138916 l 17.288696 -7.6175537 l 52.072144 -26.619995 l -16.769592 9.210327 l 54.82373 -32.638184 l 16.447754 -11.098633 " /> </g> </svg>