<?xml version="1.0" standalone="no"?><!DOCTYPE svg PUBLIC "-//W3C//DTD SVG 1.1//EN" "http://www.w3.org/Graphics/SVG/1.1/DTD/svg11.dtd" ><svg xmlns="http://www.w3.org/2000/svg" xmlns:xlink="http://www.w3.org/1999/xlink" version="1.1" viewBox="-10 0 692 1000"><g transform="matrix(1 0 0 -1 0 800)"><path stroke="black" fill="none" d="M 1314.7324 734.03723 l -12.116699 -62.67975 l 22.302368 200.67072 l 0.0 0.0 l -0.00024414062 -0.0036621094 l -0.024536133 -0.65844727 l -2.402954 -67.40344 l -5.4819336 139.07135 l -10.959106 58.833923 l -17.373413 63.863586 l -20.97351 57.20215 l -26.42163 56.428955 l -31.091553 53.130005 l -35.861816 50.38867 l -40.632324 47.647217 l -69.269775 64.28992 l 23.88684 -19.280273 l 0.0 0.0 l 0.0 0.0 l 0.0 0.0 l -199.66833 -1177.6896 l 0.0 0.0 l 0.003479004 0.0013427734 l 0.62683105 0.24639893 l 25.587158 10.040298 l -52.691772 -18.397842 l 80.4892 30.784393 l 25.88556 12.955444 l 51.11139 29.755737 l -23.466125 -14.370041 l 50.301575 32.267715 l 26.19226 19.261353 l 25.435303 19.842865 l 25.114624 21.291046 l 0.0 0.0 l 0.0 0.0 l 0.0 0.0 l 42.3385 48.044495 l 37.358154 50.747925 l 32.369385 53.454956 l 27.794312 57.47519 l 21.82666 57.428833 l -452.4975 -426.49496 l -30.009216 -6.2517853 l -34.132263 -5.760895 l -34.21472 -4.5905457 l -40.286804 -4.101227 l -36.093994 -2.7499847 l -41.9541 -2.1873322 l -44.89795 -1.31604 l -30.998596 0.00050354004 l -71.25647 0.0012664795 l -22.368347 -7.6293945e-05 l 60.84018 0.0024871826 l -321.82642 -154.06844 l 123.05005 154.06558 l -30.865234 0.0 l 0.0 0.0 l -72.60872 4.5776367e-05 l -15.059845 1.5258789e-05 l 182.88078 -6.1035156e-05 l -22.209625 0.0 l 59.831024 0.0 l -224.81087 154.4859 l -0.140625 154.29291 l -0.13560486 154.4368 l -0.04017639 154.33435 l 0.037826538 154.43628 l 0.113479614 154.41144 l 0.18914795 307.6504 l -0.18321228 -152.54114 l 2.6775665 308.09314 l 36.572403 0.0 l 22.716415 0.0 l 36.442062 0.0 l 1.3031921 0.0 l 27.97116 0.0 l 35.341797 0.0 l 0.18386841 0.0 l 29.587067 0.0 l 130.5149 0.0 l 0.0 0.0 l -0.04232788 0.0 l -26.932953 0.0 l -44.16031 0.0 l -22.569244 0.0 l 180.81625 -1.7545166 l -39.77527 1.2574463 l 83.14734 -3.5948486 l 41.576416 -3.354004 l 36.714966 -4.022461 l 101.76489 -17.949219 l -33.915955 7.2523193 l -30.564514 5.3986816 l 95.688354 -20.878052 l 0.0 0.0 l 0.15808105 -0.052978516 l 25.135376 -8.425171 l 31.003967 -11.883545 l 26.761108 -11.76123 l 53.542114 -27.954712 l -25.72931 14.201538 l 52.79077 -30.77478 l 24.714355 -16.667358 " /> </g> </svg>