<?xml version="1.0" standalone="no"?><!DOCTYPE svg PUBLIC "-//W3C//DTD SVG 1.1//EN" "http://www.w3.org/Graphics/SVG/1.1/DTD/svg11.dtd" ><svg xmlns="http://www.w3.org/2000/svg" xmlns:xlink="http://www.w3.org/1999/xlink" version="1.1" viewBox="-10 0 692 1000"><g transform="matrix(1 0 0 -1 0 800)"><path stroke="black" fill="none" d="M 1314.7996 734.37744 l -12.449341 -64.39636 l 22.40979 201.35889 l 0.0 0.0 l 0.0 0.0 l 0.0 0.0 l -2.4898682 -69.83649 l -4.6817627 136.73499 l -11.947876 64.13861 l -16.731323 61.415283 l -21.508911 58.66687 l -26.290283 55.93103 l -31.069946 53.18982 l -35.849976 50.44983 l -40.630127 47.70996 l -69.81885 64.67908 l 24.408936 -19.708984 l 0.0 0.0 l 0.0 0.0 l 0.0 0.0 l -199.79999 -1177.74 l 0.0 0.0 l 0.0 0.0 l 0.0 0.0 l 27.038513 10.609421 l -53.707886 -18.779175 l 80.51001 30.730103 l 26.558533 13.289276 l 52.397217 30.59822 l -26.07434 -15.966583 l 51.916443 33.277832 l 25.601318 18.651306 l 25.36023 19.989685 l 25.119995 21.329926 l 0.0 0.0 l 0.0 0.0 l 0.0 0.0 l 42.329956 48.079926 l 37.349976 50.799866 l 32.369995 53.519867 l 27.39087 56.242676 l 22.408813 58.956665 l -452.05103 -426.8093 l -30.947876 -6.449585 l -33.092285 -5.5903625 l -35.227783 -4.7296906 l -37.37628 -3.8704987 l -39.502686 -3.0094452 l -41.650635 -2.1500702 l -43.79242 -1.2900696 l -31.997803 0.0 l -64.015656 0.0 l -31.979248 0.0 l 63.993195 0.0 l -322.27905 -154.39922 l 130.26447 154.39922 l -63.819748 0.0 l 31.7827 0.0 l -98.21767 6.1035156e-05 l 194.25545 -6.1035156e-05 l -31.978882 0.0 l 63.990997 0.0 l -226.27686 154.40024 l -0.00030517578 154.39978 l -0.000289917 154.40009 l -9.1552734e-05 154.39984 l 9.1552734e-05 154.40002 l 0.00024414062 154.40002 l 0.00039672852 308.7976 l -0.00038146973 -154.396 l 0.0057678223 308.79846 l 32.40898 0.0 l 32.379135 0.0 l 32.408722 0.0 l 32.39325 0.0 l 32.40634 0.0 l 32.39435 0.0 l 129.60321 0.0 l 0.0 0.0 l 0.0 0.0 l 0.0 0.0 l -32.389557 0.0 l -32.425354 0.0 l -32.378784 0.0 l 186.4678 -1.8399658 l -43.651672 1.3797607 l 85.355286 -3.6796875 l 39.743958 -3.220337 l 37.77765 -4.1396484 l 101.580444 -17.940186 l -31.904419 6.900879 l -33.852844 5.9786377 l 95.69751 -20.699463 l 0.0 0.0 l 0.0 0.0 l 0.0 0.0 l 28.725037 -9.628418 l 28.196045 -10.89209 l 27.648132 -12.14917 l 53.679688 -28.079712 l -26.568176 14.668945 l 52.600403 -30.600342 l 25.488403 -17.188843 " /> </g> </svg>