<?xml version="1.0" standalone="no"?><!DOCTYPE svg PUBLIC "-//W3C//DTD SVG 1.1//EN" "http://www.w3.org/Graphics/SVG/1.1/DTD/svg11.dtd" ><svg xmlns="http://www.w3.org/2000/svg" xmlns:xlink="http://www.w3.org/1999/xlink" version="1.1" viewBox="-10 0 692 1000"><g transform="matrix(1 0 0 -1 0 800)"><path stroke="black" fill="none" d="M 1314.7996 734.37744 l -12.447632 -64.38739 l 22.409302 201.35602 l 0.0 0.0 l 0.0 0.0 l 0.0 0.0 l -2.489502 -69.828 l -4.686035 136.7472 l -11.942627 64.11096 l -16.734741 61.42798 l -21.506104 58.6593 l -26.291016 55.933594 l -31.070068 53.189575 l -35.849976 50.449463 l -40.630127 47.709717 l -69.81604 64.677 l 24.40625 -19.706787 l 0.0 0.0 l 0.0 0.0 l 0.0 0.0 l -199.79999 -1177.74 l 0.0 0.0 l 0.0 0.0 l 0.0 0.0 l 27.034912 10.608002 l -53.702576 -18.777176 l 80.50989 30.730392 l 26.554993 13.287537 l 52.390564 30.593811 l -26.060791 -15.958252 l 51.90808 33.272552 l 25.60437 18.65451 l 25.360596 19.988892 l 25.119995 21.329742 l 0.0 0.0 l 0.0 0.0 l 0.0 0.0 l 42.33008 48.079742 l 37.349976 50.79959 l 32.369995 53.51953 l 27.392944 56.249146 l 22.405762 58.94867 l -452.05334 -426.80768 l -30.942993 -6.4485626 l -33.097717 -5.5912476 l -35.222473 -4.7289734 l -37.39148 -3.8716888 l -39.484863 -3.0081024 l -41.652283 -2.1502686 l -43.798157 -1.2902069 l -31.992615 1.5258789e-05 l -64.053375 0.0 l -31.929138 0.0 l 63.976746 1.5258789e-05 l -322.27667 -154.39749 l 130.22682 154.39748 l -63.384476 0.0 l 31.25801 0.0 l -98.06711 6.1035156e-05 l 194.19614 -6.1035156e-05 l -31.927948 0.0 l 63.9693 0.0 l -226.26921 154.4007 l -0.0010223389 154.3992 l -0.0010070801 154.40027 l -0.000289917 154.39954 l 0.0002746582 154.4002 l 0.0008392334 154.40009 l 0.0013885498 308.79163 l -0.0013427734 -154.38635 l 0.019699097 308.7948 l 32.43071 0.0 l 32.328735 0.0 l 32.429764 0.0 l 32.376984 0.0 l 32.42163 0.0 l 32.380676 0.0 l 129.61096 0.0 l 0.0 0.0 l 0.0 0.0 l 0.0 0.0 l -32.36432 0.0 l -32.48654 0.0 l -32.327637 0.0 l 186.4383 -1.8394775 l -43.63141 1.3791504 l 85.34375 -3.6793213 l 39.75354 -3.2210693 l 37.772095 -4.139038 l 101.58142 -17.940186 l -31.914917 6.90271 l -33.835693 5.975708 l 95.69153 -20.698486 l 0.0 0.0 l 0.0 0.0 l 0.0 0.0 l 28.713074 -9.62439 l 28.210693 -10.897339 l 27.643494 -12.147095 l 53.678955 -28.079102 l -26.563782 14.666504 l 52.60138 -30.601196 l 25.484314 -17.186157 " /> </g> </svg>