<?xml version="1.0" standalone="no"?><!DOCTYPE svg PUBLIC "-//W3C//DTD SVG 1.1//EN" "http://www.w3.org/Graphics/SVG/1.1/DTD/svg11.dtd" ><svg xmlns="http://www.w3.org/2000/svg" xmlns:xlink="http://www.w3.org/1999/xlink" version="1.1" viewBox="-10 0 692 1000"><g transform="matrix(1 0 0 -1 0 800)"><path stroke="black" fill="none" d="M 1314.5692 733.2099 l -11.312012 -58.52655 l 21.99939 197.85992 l 0.0 0.0 l -0.0073242188 -0.19622803 l -2.2271729 -62.438904 l -7.4176025 144.724 l -8.567017 45.999756 l -18.92688 69.78699 l -19.678467 53.658447 l -26.739014 57.633667 l -31.143799 52.98523 l -35.890625 50.240356 l -40.637573 47.495728 l -67.941284 63.348145 l 22.613281 -18.23523 l 0.0008544922 -0.0007324219 l 0.0 0.0 l -0.00012207031 0.00012207031 l -198.26465 -1177.1516 l 0.0 0.0 l 0.18530273 0.0728302 l 22.970093 9.014923 l -50.2334 -17.475266 l 80.4389 30.915741 l 0.25378418 0.1378479 l 24.003479 12.009903 l 48.000366 27.717484 l -17.15564 -10.5073395 l 46.39441 29.823837 l 27.622192 20.737213 l 25.616943 19.487762 l 25.10144 21.197083 l 0.0 0.0 l 0.0 0.0 l 0.0 3.0517578e-05 l 42.359375 47.95862 l 37.377808 50.622192 l 32.367676 53.297913 l 28.770386 60.457092 l 20.418457 53.732483 l -453.57776 -425.73453 l -27.738098 -5.7732086 l -36.648438 -6.1734924 l -31.76355 -4.253891 l -47.328735 -4.6594696 l -27.847046 -2.122223 l -42.68805 -2.2774506 l -47.572998 -1.3789062 l -28.580994 0.0017089844 l -88.774994 0.004348755 l -0.9611511 -0.00016784668 l 55.05728 0.008407593 l -320.73123 -153.26816 l 105.59531 153.2584 l -1.3685303 0.0 l -84.79643 4.5776367e-05 l -4.0109406 0.0 l 155.36057 -4.5776367e-05 l -0.8639221 0.0 l 52.05664 0.0 l -221.26404 154.69318 l -0.48013306 154.0344 l -0.46296692 154.5257 l -0.13717651 154.17572 l 0.12915039 154.52386 l 0.38746643 154.43909 l 0.6457825 304.875 l -0.6255188 -148.05347 l 9.141754 306.3866 l 46.645477 0.0 l 1.0101929 0.0 l 44.52838 0.0 l 0.20092773 0.0 l 21.527496 0.0 l 42.44394 -0.00012207031 l 0.027374268 0.0 l 23.396362 0.0 l 127.94046 0.00012207031 l 0.0 0.0 l -9.095581 0.0 l -72.552216 0.0 l -0.91256714 0.0 l 169.21957 -1.5478516 l -30.396667 0.96154785 l 77.80548 -3.3894043 l 46.009888 -3.6773682 l 34.14386 -3.7390137 l 102.21118 -17.971436 l -0.013244629 0.0024414062 l -38.76953 8.100586 l -22.608704 3.9951172 l 105.11743 -24.477783 l 0.0 0.0 l 7.539917 -2.5272217 l 37.797302 -14.282349 l 24.615234 -10.82251 l 53.209106 -27.652344 l -23.699585 13.070801 l 53.251343 -31.1969 l 22.841614 -15.405884 " /> </g> </svg>