<?xml version="1.0" standalone="no"?><!DOCTYPE svg PUBLIC "-//W3C//DTD SVG 1.1//EN" "http://www.w3.org/Graphics/SVG/1.1/DTD/svg11.dtd" ><svg xmlns="http://www.w3.org/2000/svg" xmlns:xlink="http://www.w3.org/1999/xlink" version="1.1" viewBox="-10 0 692 1000"><g transform="matrix(1 0 0 -1 0 800)"><path stroke="black" fill="none" d="M 185.01157 3.8146914e-05 l 85.14786 2.5465852e-11 l -85.187225 154.4 l 0.0 154.4 l 0.0 154.4 l 0.0 154.46875 l 0.0 154.3086 l 233.00003 -191.86572 l -3.0517578e-05 -51.49359 l 0.006225586 103.45233 l -0.0009460449 51.23645 l 0.30749512 51.680298 l 59.68515 0.0026855469 l 119.98929 0.010192871 l -59.680237 0.0 l 120.60156 0.0 l 58.72882 0.0 l 117.734375 0.0 l -55.548706 0.0 l 118.8916 0.0 l -713.7146 191.469 l 0.0 154.3092 l 233.00781 -52.622192 l -0.007537842 -73.487854 l -6.1035156e-05 36.222412 l -0.00024414062 185.50275 l 0.0 -36.83777 l 0.0 -37.353638 l 0.0 -36.826904 l -232.99997 170.0498 l 0.0 154.10046 l 0.0 154.47473 l 85.20062 0.0 l 85.19891 0.0 l 122.75119 -590.0 l 61.081055 0.0 l 58.724243 0.0 l 60.54669 0.0 l 60.31079 0.0 l 59.682007 0.0 l -337.89532 590.0 l 85.19891 0.0 l 85.200195 -0.00012207031 l 85.19977 -0.00024414062 l 85.1994 -0.00048828125 l -363.3982 -219.66711 l -6.1035156e-05 -36.222168 l -0.00015258789 -74.2074 l -3.0517578e-05 36.83496 l 61.996826 74.26245 l 61.770813 0.0 l 324.8313 218.99805 l 85.20001 -0.0017089844 l 85.20099 -109.07776 l 0.0 21.35437 l -0.00012207031 21.945679 l 0.00012207031 22.017944 l 0.0 21.841309 l 0.0 21.913696 l -371.49597 -218.99146 l -61.768738 0.0 l 185.34058 0.0 l -61.473694 0.0 l 185.50134 0.00012207031 l -61.77014 0.0 l 185.66333 21.812012 l 0.0032958984 -21.81189 l 0.0 0.0 l 0.0 0.0 l 0.0 0.0 l -61.861572 0.009521484 l 61.861816 65.725464 l -0.00012207031 21.839233 l 0.0024414062 -43.76111 l -18.002563 -547.60156 l 0.0 -20.136414 l 0.0 -23.615295 l 0.0 -20.067566 l 0.0 129.51935 l 0.0 -20.13623 l 0.0 -22.016296 l -59.781616 -109.74524 l 59.690186 -0.0036621094 l 0.087524414 218.51086 l 0.0036010742 -22.767212 l 6.1035156e-05 -20.08667 l -59.980774 43.301758 l -60.53131 0.029968262 l -59.678833 0.00012207031 l 198.19116 -953.96436 l 0.0 21.780685 l 0.0 22.103662 l 0.0 21.711853 l 0.0 131.3439 l 0.0 -21.72351 l 0.0 -21.926788 l 0.0 -22.049942 l 0.0 -21.723747 l 0.0 -21.931717 l -0.01184082 131.38144 l -61.894287 -0.00065612793 l -61.893738 -0.0007019043 l -46.560852 -218.99837 l 85.14795 -0.00014165626 l -100.48822 218.99709 l -61.898315 -0.00035095215 l -61.90039 -0.0005645752 l -61.92932 0.0026245117 l -61.86029 4.5776367e-05 l 7.3322144 -218.99944 l 85.288025 -0.0002601889 l 85.02576 -3.8882827e-06 l -301.1326 218.99959 l 61.47354 7.6293945e-05 l -123.69467 0.0066223145 l 0.0057678223 51.58307 l 107.77203 -270.58917 l -85.61279 -0.00019923916 l -84.62494 -2.099965e-06 l 62.45697 322.28455 l 0.0 51.492798 l 0.0 51.894684 l 0.0 51.237854 " /> </g> </svg>