<?xml version="1.0" standalone="no"?><!DOCTYPE svg PUBLIC "-//W3C//DTD SVG 1.1//EN" "http://www.w3.org/Graphics/SVG/1.1/DTD/svg11.dtd" ><svg xmlns="http://www.w3.org/2000/svg" xmlns:xlink="http://www.w3.org/1999/xlink" version="1.1" viewBox="-10 0 692 1000"><g transform="matrix(1 0 0 -1 0 800)"><path stroke="black" fill="none" d="M 185.45894 3.8144586e-05 l 83.12567 1.1168595e-09 l -84.692474 154.4 l 0.0 154.4 l 0.0 154.4 l 0.0 157.13495 l 0.0 150.76477 l 233.00198 -194.41772 l -0.00045776367 -47.36505 l 0.24780273 113.24194 l -0.038482666 37.130737 l 12.23877 54.798645 l 43.590454 0.10644531 l 111.81171 0.40527344 l -43.390198 0.0 l 136.17987 0.0 l 0.0 0.0 l 5.5265503 0.0 l 115.80487 0.0 l 0.0 0.0 l 95.43121 0.0 l -710.40405 194.14465 l 0.0 150.78381 l 233.31186 -53.479492 l 0.05001831 -0.28076172 l -0.3501892 -45.576782 l -0.002380371 2.208374 l -0.009338379 185.57556 l 0.0 -26.666992 l 0.0 -47.19214 l 0.0 -26.234009 l -232.99997 175.86658 l 0.0 142.47595 l 0.0 157.37524 l 85.22586 0.0 l 85.15604 0.0 l 124.73886 -589.9995 l 0.36358643 6.1035156e-05 l 98.78357 -0.0005493164 l 5.343994 0.0 l 77.87927 0.00012207031 l 68.48761 -0.00012207031 l 43.46454 0.0 l -333.83557 590.0 l 85.15607 0.0 l 85.20874 -0.0040283203 l 85.191895 -0.01184082 l 85.17499 -0.01977539 l -363.32706 -245.54724 l -0.002532959 -2.2020264 l -0.0063171387 -74.45654 l -0.00061035156 26.551636 l 65.75299 76.683716 l 56.75949 0.0008544922 l 326.04663 218.92493 l 85.19867 -0.07043457 l 85.23889 -92.69678 l 0.00012207031 0.96533203 l -0.002319336 22.943237 l 0.0025634766 26.589844 l 0.0 19.563843 l 0.0 22.444458 l -375.21918 -218.65906 l -56.67798 0.0 l 171.39563 0.0 l -44.93158 -0.00012207031 l 177.79321 0.0045166016 l -56.730957 -0.00061035156 l 184.23926 18.399902 l -0.0007324219 -0.01965332 l 0.11340332 -17.998291 l 0.0 0.0 l -60.350586 0.0010986328 l 60.379517 66.7168 l -0.004272461 19.4823 l 0.09338379 -42.25415 l -18.099121 -571.264 l 0.0 0.0 l 0.0 -31.785767 l 0.0 0.0 l 0.0 97.51184 l 0.0 0.0 l 0.0 -8.972351 l -47.42743 -119.26099 l 43.78827 -0.14422607 l 3.484192 199.53107 l 0.11791992 -17.35205 l 0.0 0.0 l -55.32556 35.177795 l -77.26837 1.1920166 l -43.33612 0.005554199 l 193.9671 -952.58167 l 0.0 17.151415 l 0.0 30.005554 l 0.0 14.412151 l 0.0 129.16728 l 0.0 -14.875809 l 0.0 -22.965836 l 0.0 -27.867996 l 0.0 -14.885017 l 0.0 -23.162476 l -0.46923828 130.6614 l -61.672974 -0.025878906 l -61.653076 -0.028518677 l -45.041138 -218.93492 l 83.12952 -0.005637765 l -100.03284 218.88432 l -61.833252 -0.013900757 l -61.91388 -0.022247314 l -63.066956 0.10437012 l -60.3219 0.0019073486 l 8.5842285 -218.97803 l 88.70093 -0.010355253 l 78.265564 -0.0001547496 l -286.87607 218.98395 l 44.928192 0.003326416 l -119.609344 0.2637329 l 0.23007202 50.925873 l 106.685 -270.16934 l -101.62866 -0.007929517 l -62.312347 -8.357654e-05 l 56.908173 325.56418 l 0.0 47.33435 l 0.0 63.327454 l 0.0 37.18689 " /> </g> </svg>