<?xml version="1.0" standalone="no"?><!DOCTYPE svg PUBLIC "-//W3C//DTD SVG 1.1//EN" "http://www.w3.org/Graphics/SVG/1.1/DTD/svg11.dtd" ><svg xmlns="http://www.w3.org/2000/svg" xmlns:xlink="http://www.w3.org/1999/xlink" version="1.1" viewBox="-10 0 692 1000"><g transform="matrix(1 0 0 -1 0 800)"><path stroke="black" fill="none" d="M 185.0034 3.8146954e-05 l 85.19551 3.637979e-12 l -85.19888 154.4 l 0.0 154.4 l 0.0 154.4 l 0.0 154.40594 l 0.0 154.39209 l 232.99997 -191.8056 l 0.0 -51.59088 l 0.0005493164 103.22168 l -9.1552734e-05 51.568787 l 0.026367188 51.606873 l 60.064392 0.00024414062 l 120.181915 0.0008544922 l -60.063965 0.0 l 120.234436 0.0 l 59.98242 0.0 l 119.9884 0.0 l -59.709534 0.0 l 120.08777 0.0 l -713.7926 191.40594 l 0.0 154.39227 l 233.00064 -52.60205 l -0.00064086914 -74.138855 l 0.0 37.02478 l -3.0517578e-05 185.50018 l 0.0 -37.077515 l 0.0 -37.121704 l 0.0 -37.076538 l -232.99997 169.91272 l 0.0 154.37439 l 0.0 154.40637 l 85.20004 0.0 l 85.19992 0.0 l 122.704346 -590.0 l 60.184113 0.0 l 59.982056 0.0 l 60.138245 0.0 l 60.118164 0.0 l 60.064087 0.0 l -337.99094 590.0 l 85.19992 0.0 l 85.19995 0.0 l 85.20001 0.0 l 85.19995 -0.00012207031 l -363.39987 -219.05725 l 0.0 -37.02466 l -3.0517578e-05 -74.20068 l 0.0 37.077393 l 61.908295 74.20532 l 61.888947 0.0 l 324.80267 218.99988 l 85.20001 -0.00024414062 l 85.20007 -109.463745 l 0.0 21.853271 l 0.0 21.903809 l 0.0 21.910156 l 0.0 21.894897 l 0.0 21.901245 l -371.40826 -218.99927 l -61.888733 0.0 l 185.66919 0.0 l -61.863403 0.0 l 185.68292 0.0 l -61.888855 0.0 l 185.6969 21.892456 l 0.00024414062 -21.892456 l 0.0 0.0 l 0.0 0.0 l 0.0 0.0 l -61.89673 0.0008544922 l 61.89673 65.70215 l 0.0 21.894775 l 0.00024414062 -43.796753 l -18.000244 -546.32007 l 0.0 -21.748718 l 0.0 -22.04712 l 0.0 -21.742859 l 0.0 131.23865 l 0.0 -21.748657 l 0.0 -21.909973 l -60.072693 -109.52106 l 60.06482 -0.00030517578 l 0.007507324 218.95801 l 0.00036621094 -21.974365 l 0.0 -21.744446 l -60.089844 43.757263 l -60.136963 0.0025634766 l -60.063904 0.0 l 198.29071 -953.9969 l 0.0 21.889765 l 0.0 21.91747 l 0.0 21.883854 l 0.0 131.39519 l 0.0 -21.884842 l 0.0 -21.902313 l 0.0 -21.912857 l 0.0 -21.88488 l 0.0 -21.902725 l -0.0009765625 131.3984 l -61.899536 -4.5776367e-05 l -61.899475 -7.6293945e-05 l -46.59668 -218.99985 l 85.19556 -1.2152188e-05 l -100.49896 218.99976 l -61.89984 -3.0517578e-05 l -61.900085 -6.1035156e-05 l -61.902527 0.00022888184 l -61.896545 1.5258789e-05 l 7.3027344 -218.99995 l 85.20758 -2.232068e-05 l 85.18506 -3.3356264e-07 l -301.4685 218.99995 l 61.863403 0.0 l -123.790955 0.0005645752 l 0.0005187988 51.598557 l 107.79764 -270.59906 l -85.23544 -1.7092021e-05 l -85.150665 -1.8014543e-07 l 62.587708 322.20728 l 0.0 51.59076 l 0.0 51.625305 l 0.0 51.56894 " /> </g> </svg>