<?xml version="1.0" standalone="no"?><!DOCTYPE svg PUBLIC "-//W3C//DTD SVG 1.1//EN" "http://www.w3.org/Graphics/SVG/1.1/DTD/svg11.dtd" ><svg xmlns="http://www.w3.org/2000/svg" xmlns:xlink="http://www.w3.org/1999/xlink" version="1.1" viewBox="-10 0 692 1000"><g transform="matrix(1 0 0 -1 0 800)"><path stroke="black" fill="none" d="M 190.34941 3.8119168e-05 l 61.02008 1.2998498e-08 l -79.284 154.4 l 0.0 154.4 l 0.0 154.4 l 0.0 186.28082 l 0.0 112.02515 l 233.0235 -222.31482 l -0.005432129 -2.5078735 l 8.363617 124.929016 l 0.0 0.0 l 35.09778 57.3291 l 0.0 0.0 l 101.10211 16.058594 l 0.0 0.0 l 184.0846 0.0 l 161.76874 0.0010375977 l 0.0 0.0 l -723.43494 223.3927 l 0.0 112.24603 l 236.63568 -62.850525 l 0.0 0.0 l -2.3746033 -12.840454 l -1.2611389 139.3194 l 0.0 0.0 l 0.0 -53.79004 l 0.0 0.0 l -232.99994 259.03796 l 0.0 15.401978 l 0.0 189.08191 l 85.501495 0.0 l 84.68744 0.0 l 146.46753 -589.99457 l 0.0 0.0 l 70.15875 -0.0034179688 l 134.27563 -0.00048828125 l 52.164368 -0.0012207031 l 0.0 0.0 l -317.56476 589.9997 l 84.68744 0.0 l 85.30249 -0.04626465 l 85.10553 -0.13867188 l 84.90851 -0.23120117 l -361.35815 -257.52734 l -1.2174683 -39.01892 l 0.0 0.0 l 106.729614 77.89099 l 2.3666992 0.009643555 l 338.9431 218.12561 l 85.184204 -0.82092285 l 85.550354 -82.772095 l 0.0 0.0 l 0.107177734 57.642456 l 0.0 0.4020996 l -0.00012207031 22.512207 l 0.0 -0.0146484375 l -415.91882 -215.01147 l -1.9171753 -0.00024414062 l 120.9397 0.00036621094 l 0.0 0.0 l 128.33551 0.05065918 l -2.1865234 -0.0064697266 l 162.49377 2.4974365 l 0.0 0.0 l -35.805176 1.9678955 l 44.175537 77.5509 l -0.0059814453 0.3079834 l 1.0454102 -32.369507 l -19.156128 -480.49005 l 0.0 0.0 l 0.0 -143.01105 l 0.0 0.0 l -44.859802 197.97296 l 0.0 0.0 l -108.37848 3.3717651 l 0.0 0.0 l 171.23828 -949.2685 l 0.0 0.013147354 l 0.0 53.787704 l 0.0 0.0 l 0.0 114.76788 l 0.0 0.0 l -0.00012207031 -7.375519 l 0.00012207031 -58.76554 l 0.0 0.0 l -0.00012207031 -9.446449 l -5.4696045 122.790405 l -59.25354 -0.30178833 l -59.021667 -0.33239746 l -28.428589 -218.24146 l 61.064453 -0.06571871 l -95.054016 217.65163 l -61.122314 -0.1620636 l -62.06134 -0.25930786 l -75.50281 1.2166443 l -43.50525 0.02217102 l 22.270203 -218.74394 l 126.009705 -0.12070967 l 4.378296 -0.0018023103 l -232.34186 218.51608 l 0.0 0.0 l -109.588806 3.4098358 l 0.005065918 0.010787964 l 2.6770325 43.730972 l 94.80203 -265.58002 l -0.032836914 0.00035353005 l -140.29605 -0.087182164 l 0.0 0.0 l 41.471863 361.4091 l 3.0517578e-05 2.2786255 l -0.00024414062 95.99063 l 0.0 0.0 " /> </g> </svg>