<?xml version="1.0" standalone="no"?><!DOCTYPE svg PUBLIC "-//W3C//DTD SVG 1.1//EN" "http://www.w3.org/Graphics/SVG/1.1/DTD/svg11.dtd" ><svg xmlns="http://www.w3.org/2000/svg" xmlns:xlink="http://www.w3.org/1999/xlink" version="1.1" viewBox="-10 0 692 1000"><g transform="matrix(1 0 0 -1 0 800)"><path stroke="black" fill="none" d="M 185.0394 3.814677e-05 l 85.02202 9.458745e-11 l -85.15643 154.4 l 0.0 154.4 l 0.0 154.4 l 0.0 154.63464 l 0.0 154.08813 l 233.00015 -192.0246 l -6.1035156e-05 -51.236633 l 0.021270752 104.06146 l -0.0032958984 50.358704 l 1.0499268 51.87439 l 58.683655 0.009094238 l 119.48044 0.03479004 l -58.666565 0.0 l 121.57086 0.0 l 0.595459 0.0 l 54.822937 0.0 l 111.782104 0.0 l -44.560974 0.0 l 115.73273 0.0 l -713.50867 191.6355 l 0.0 154.08984 l 233.02673 -52.675537 l -0.025756836 -71.768616 l -0.00021362305 34.1037 l -0.00079345703 185.50952 l 0.0 -36.204956 l 0.0 -37.9657 l 0.0 -36.167847 l -232.99997 170.41174 l 0.0 153.37708 l 0.0 154.65527 l 85.20221 0.0 l 85.19623 0.0 l 122.87488 -589.99994 l 63.449677 -6.1035156e-05 l 55.40271 0.0 l 61.625183 0.0 l 60.81958 0.0 l 58.672913 0.0 l -337.6427 590.0 l 85.19623 0.0 l 85.20068 -0.00036621094 l 85.19934 -0.0009765625 l 85.197876 -0.0017089844 l -363.39377 -221.27734 l -0.00021362305 -34.10315 l -0.0005493164 -74.22522 l -6.1035156e-05 36.19519 l 62.23053 74.413086 l 61.459045 0.0 l 324.90692 218.99353 l 85.19989 -0.0059814453 l 85.20337 -108.05847 l 0.0 20.037231 l -0.00024414062 22.056274 l 0.00024414062 22.302368 l 0.0 21.699585 l 0.0 21.946655 l -371.72766 -218.9707 l -61.451965 0.0 l 184.4729 0.0 l -60.444397 0.0 l 185.02173 0.00036621094 l -61.456604 0.0 l 185.57465 21.599731 l 0.011230469 -21.59729 l 0.0 0.0 l 0.0 0.00012207031 l 0.0 0.00012207031 l -61.768616 0.030151367 l 61.769592 65.78711 l -0.00036621094 21.692627 l 0.008056641 -43.66736 l -18.008545 -550.9853 l 0.0 -15.878601 l 0.0 -27.75653 l 0.0 -15.643616 l 0.0 124.979126 l 0.0 -15.878235 l 0.0 -22.296997 l -59.01288 -110.33734 l 58.700684 -0.012390137 l 0.29888916 217.32983 l 0.012207031 -24.860779 l 0.00018310547 -15.708862 l -59.692688 42.098877 l -61.572815 0.10223389 l -58.661926 0.00048828125 l 197.92834 -953.8783 l 0.0 21.492634 l 0.0 22.595348 l 0.0 21.25764 l 0.0 131.20847 l 0.0 -21.29741 l 0.0 -21.991455 l 0.0 -22.411957 l 0.0 -21.298218 l 0.0 -22.0083 l -0.040283203 131.33664 l -61.880493 -0.0022277832 l -61.878784 -0.0024414062 l -46.46631 -218.99442 l 85.0224 -0.0004836442 l -100.45996 218.99007 l -61.894226 -0.0011901855 l -61.901245 -0.0019073486 l -62.000122 0.008956909 l -61.764587 0.00016784668 l 7.4101562 -218.99811 l 85.50037 -0.00088834047 l 84.6051 -1.3275421e-05 l -300.24545 218.99861 l 60.444 0.000289917 l -123.44046 0.022613525 l 0.019744873 51.54219 l 107.70441 -270.56308 l -86.609406 -0.00068024505 l -83.23654 -7.1697323e-06 l 62.111694 322.48862 l 0.0 51.23404 l 0.0 52.60605 l 0.0 50.363556 " /> </g> </svg>