<?xml version="1.0" standalone="no"?><!DOCTYPE svg PUBLIC "-//W3C//DTD SVG 1.1//EN" "http://www.w3.org/Graphics/SVG/1.1/DTD/svg11.dtd" ><svg xmlns="http://www.w3.org/2000/svg" xmlns:xlink="http://www.w3.org/1999/xlink" version="1.1" viewBox="-10 0 692 1000"><g transform="matrix(1 0 0 -1 0 800)"><path stroke="black" fill="none" d="M 185.13445 3.8146274e-05 l 84.59242 3.274181e-10 l -85.05133 154.4 l 0.0 154.4 l 0.0 154.4 l 0.0 155.20105 l 0.0 153.33527 l 233.00055 -192.56671 l -0.00012207031 -50.35962 l 0.0725708 106.141235 l -0.011260986 47.36206 l 3.5846558 52.536804 l 55.264435 0.031188965 l 117.74313 0.11871338 l -55.20581 0.0 l 124.88037 0.0 l 0.041015625 0.0 l 44.07483 0.0 l 91.45972 0.0 l -7.046509 0.0 l 104.947754 0.0 l -712.8053 192.20392 l 0.0 153.34088 l 233.09131 -52.857666 l -0.08792114 -65.89868 l -0.0006713867 26.869934 l -0.002746582 185.53265 l 0.0 -34.04419 l 0.0 -40.05591 l 0.0 -33.91748 l -232.99997 171.64758 l 0.0 150.90747 l 0.0 155.27148 l 85.20755 0.0 l 85.18713 0.0 l 123.29715 -589.9999 l 71.53665 -0.00012207031 l 44.062317 0.0 l 65.307434 6.1035156e-05 l 62.5567 -6.1035156e-05 l 55.22754 0.0 l -336.7802 590.0 l 85.18713 0.0 l 85.202515 -0.0012207031 l 85.19769 -0.0034179688 l 85.19263 -0.005859375 l -363.37863 -226.77539 l -0.0007324219 -26.86792 l -0.0018615723 -74.28589 l -0.00018310547 34.010498 l 63.028534 74.92737 l 60.39438 0.00024414062 l 325.1651 218.97803 l 85.199646 -0.020629883 l 85.211365 -104.57837 l 0.0 15.540039 l -0.00061035156 22.433838 l 0.0007324219 23.27356 l 0.0 21.21582 l 0.0 22.059448 l -372.51862 -218.90015 l -60.370483 0.0 l 181.51038 0.0 l -56.930115 0.0 l 183.38416 0.0013427734 l -60.386047 -0.00024414062 l 185.27216 20.874878 l -0.0056152344 -0.14880371 l 0.04260254 -20.694092 l 0.0 0.0 l -0.00012207031 0.00061035156 l -61.450012 0.079589844 l 61.45465 65.9978 l -0.0012207031 21.191895 l 0.02734375 -43.34729 l -18.029053 -562.5382 l 0.0 -1.4221802 l 0.0 -41.81494 l 0.0 -0.9472656 l 0.0 109.8858 l 0.0 -1.4213257 l 0.0 -23.174438 l -56.388306 -112.35889 l 55.32245 -0.042297363 l 1.0204468 213.29773 l 0.04156494 -32.00885 l 0.0006713867 -1.0493164 l -58.70929 38.279175 l -65.12848 0.3491211 l -55.190002 0.0016479492 l 197.03094 -953.58453 l 0.0 20.50917 l 0.0 24.274063 l 0.0 19.706856 l 0.0 130.74605 l 0.0 -19.842651 l 0.0 -22.212189 l 0.0 -23.64798 l 0.0 -19.845352 l 0.0 -22.269775 l -0.13745117 131.18367 l -61.833496 -0.007583618 l -61.827637 -0.008346558 l -46.143494 -218.98094 l 84.59363 -0.0016512629 l -100.36322 218.96611 l -61.880432 -0.0040740967 l -61.904053 -0.006515503 l -62.24182 0.030563354 l -61.437744 0.0005645752 l 7.6761475 -218.99356 l 86.2254 -0.0030329835 l 83.168945 -4.532514e-05 l -297.21677 218.9953 l 56.929047 0.0009765625 l -122.57257 0.07723999 l 0.06738281 51.402557 l 107.47345 -270.47388 l -90.01184 -0.002322502 l -78.49637 -2.4478999e-05 l 60.93289 323.18533 l 0.0 50.350616 l 0.0 55.03488 l 0.0 47.37851 " /> </g> </svg>