<?xml version="1.0" standalone="no"?><!DOCTYPE svg PUBLIC "-//W3C//DTD SVG 1.1//EN" "http://www.w3.org/Graphics/SVG/1.1/DTD/svg11.dtd" ><svg xmlns="http://www.w3.org/2000/svg" xmlns:xlink="http://www.w3.org/1999/xlink" version="1.1" viewBox="-10 0 692 1000"><g transform="matrix(1 0 0 -1 0 800)"><path stroke="black" fill="none" d="M 247.35696 3.7822865e-05 l 0.0 0.0 l -60.2455 154.39998 l 0.0 154.40001 l 0.0 154.4 l 1.5258789e-05 263.57727 l 0.0 0.0 l 330.42868 -12.022949 l 0.0 0.0 l 419.56598 20.737 l 0.0 0.0 l -749.9946 313.33142 l 0.0 0.0 l 231.28525 46.98401 l 0.0 0.0 l -231.28526 293.7932 l 0.0 154.40002 l 32.39998 0.0 l 32.40001 0.0 l 23.914719 0.0 l 40.885284 0.0 l 38.33972 0.0 l 26.460297 0.0 l 334.59723 -588.2275 l 0.0 0.0 l -272.3428 588.2275 l 34.945557 0.0 l 44.27945 0.0 l -0.0119018555 0.0 l 33.75244 -0.460083 l 52.65442 -0.07885742 l 32.705627 -3.6010742 l 51.393066 1.9842529 l 26.126892 -9.344238 l 55.6756 6.649658 l -203.27417 -213.7262 l 0.0 0.0 l 249.17859 189.13647 l 42.37091 18.526855 l -0.012451172 -0.026367188 l 16.311523 -35.95044 l 28.190002 -10.890015 l 40.52643 37.297974 l 14.233582 -62.858032 l 26.570007 -14.669922 l 49.714966 77.73035 l 0.0 0.0 l -160.68555 -198.14185 l 0.0 0.0 l 160.89734 66.63843 l 0.0 0.0 l 50.953247 -17.506958 l 0.0 0.0 l 45.410034 -44.96997 l 40.630005 -47.710083 l 35.849976 -50.44995 l 31.069946 -53.190063 l 26.29004 -55.92993 l 21.51001 -58.670044 l 16.72998 -61.409973 l 11.949951 -64.150024 l 7.170044 -66.88995 l 0.0 0.0 l -2.4899902 -69.84003 l -310.79828 103.049866 l 0.0 0.0 l 290.87823 -234.56989 l -17.429932 -61.679993 l -22.410034 -58.95996 l -27.390015 -56.24002 l -32.369995 -53.52002 l -37.349976 -50.799988 l -42.329956 -48.079987 l 0.0 0.0 l -25.119995 -21.330017 l -25.360107 -19.98999 l -25.599976 -18.649994 l -9.99292 -205.79428 l 0.0 0.0 l -0.30566406 108.928 l 0.0 0.0 l -63.451294 39.184128 l -31.05011 -3.5178528 l -28.348572 -3.874771 l -25.491394 -18.685226 l 0.0 0.0 l 38.073364 -180.77342 l 0.0 0.0 l -80.52142 191.81706 l -52.8349 -1.8891602 l -24.23706 -36.674484 l -39.543335 33.651825 l -33.05664 -42.251816 l -75.16174 52.90338 l 0.0 0.0 l 128.17047 -209.84138 l 0.0 0.0 l -177.95874 150.48799 l -30.21814 45.67917 l -33.78186 -45.67917 l -71.546265 59.05829 l 0.0 0.0 l -37.66638 -209.57869 l 0.0 0.0 l 19.883148 374.02896 l 0.0 0.0 l -38.6705 -223.50854 l -32.0 0.0 l -32.0 0.0 l -32.0 0.0 l -32.000015 0.0 " /> </g> </svg>