<?xml version="1.0" standalone="no"?><!DOCTYPE svg PUBLIC "-//W3C//DTD SVG 1.1//EN" "http://www.w3.org/Graphics/SVG/1.1/DTD/svg11.dtd" ><svg xmlns="http://www.w3.org/2000/svg" xmlns:xlink="http://www.w3.org/1999/xlink" version="1.1" viewBox="-10 0 692 1000"><g transform="matrix(1 0 0 -1 0 800)"><path stroke="black" fill="none" d="M 203.26395 3.8052043e-05 l 3.0721893 4.2535248e-08 l -65.42912 154.4 l 0.0 154.4 l 0.0 154.4 l 0.0 263.2478 l 0.0 9.723328 l 233.20996 -237.61884 l 0.0 0.0 l 97.49423 231.61792 l 0.0 0.0 l 218.13733 4.829895 l 0.0 0.0 l 198.13043 0.042175293 l -746.9719 300.591 l 0.0 10.477539 l 275.4956 -76.17615 l 0.0 0.0 l -42.496735 125.05078 l 0.0 0.0 l -232.99887 262.6372 l 0.0 0.0 l 0.0 186.37732 l 32.399963 0.0 l 32.40001 0.0 l 21.429459 0.0 l 43.370544 0.0 l 40.079407 0.0 l 24.720612 0.0 l 228.14032 -589.9368 l 0.0 0.0 l 146.57843 -0.050109863 l 0.0 0.0 l -313.2099 589.98694 l 35.69113 0.0 l 47.75882 0.0 l -0.05859375 0.0 l 30.319763 -0.460083 l 55.28882 0.3022461 l 30.071228 -3.9821777 l 54.806213 3.508667 l 22.713745 -10.868652 l 61.49115 10.079346 l -344.9024 -243.79846 l 0.0 0.0 l 86.98602 25.502563 l 0.0 0.0 l 298.00525 190.27649 l 46.01184 26.243652 l -0.13702393 -0.29040527 l 12.795166 -43.4032 l 28.190002 -10.890015 l 44.29785 51.781006 l 10.462158 -77.341064 l 72.033875 -9.688599 l 4.265869 70.47937 l 0.0 0.0 l -0.00012207031 8.98645 l 0.0 0.0 l -402.36566 -205.4226 l 0.0 0.0 l 90.34412 0.0032958984 l 151.318 0.51342773 l 0.0 0.0 l 149.77228 1.9423828 l 0.0 0.0 l 12.216797 76.98169 l 0.0 0.0 l 2.6622314 -14.485352 l 92.61267 -60.22998 l 40.630005 -47.710083 l 35.849976 -50.44995 l 31.069946 -53.190063 l 26.29004 -55.92993 l 21.51001 -58.670044 l 16.72998 -61.409973 l 11.949951 -64.150024 l 7.170044 -66.88995 l 0.0 0.0 l -2.4899902 -69.84003 l -303.27045 86.01538 l 0.0 0.0 l -87.12976 65.851074 l 0.0 0.0 l 370.48016 -283.38647 l -17.429932 -61.679993 l -22.410034 -58.95996 l -27.390015 -56.24002 l -32.369995 -53.52002 l -37.349976 -50.799988 l -42.329956 -48.079987 l 0.0 0.0 l -25.119995 -21.330017 l -25.360107 -19.98999 l -25.599976 -18.649994 l -9.990112 -268.52206 l 0.0 0.0 l 0.0 8.479982 l -0.0014648438 146.18413 l 0.0 0.0 l 0.0008544922 -88.666534 l 0.0 0.0 l -18.674133 141.98013 l -52.864258 -1.0303497 l -52.072998 -1.134903 l -25.037842 -21.0504 l 0.0 0.0 l 40.479065 -195.35979 l 3.1636963 -0.21654534 l -82.273865 214.38857 l -59.244873 -0.55332947 l -21.644043 -45.778915 l -40.8067 44.8936 l -31.793274 -53.49359 l -76.54956 57.647446 l -1.6820068 0.051208496 l 60.99701 -218.1013 l 73.62482 -0.3486786 l 0.0 0.0 l -181.34027 154.30132 l -29.696228 59.05829 l -34.303772 -59.05829 l -84.59317 74.618835 l 0.0 0.0 l 9.157257 24.77031 l 63.42212 -253.46077 l 0.0 0.0 l -99.27164 -0.21961859 l 22.003967 380.28207 l 0.0 0.0 l -0.0027770996 19.375488 l -38.71576 -245.36633 l -32.0 0.0 l -32.0 0.0 l -32.0 0.0 l -32.000015 0.0 " /> </g> </svg>