<?xml version="1.0" standalone="no"?><!DOCTYPE svg PUBLIC "-//W3C//DTD SVG 1.1//EN" "http://www.w3.org/Graphics/SVG/1.1/DTD/svg11.dtd" ><svg xmlns="http://www.w3.org/2000/svg" xmlns:xlink="http://www.w3.org/1999/xlink" version="1.1" viewBox="-10 0 692 1000"><g transform="matrix(1 0 0 -1 0 800)"><path stroke="black" fill="none" d="M 186.56683 3.8138827e-05 l 78.11784 3.808964e-09 l -83.467224 154.4 l 0.0 154.4 l 0.0 154.4 l 0.0 163.73767 l 0.0 141.98871 l 233.00687 -200.73761 l -0.0016174316 -37.14093 l 0.8461304 137.48517 l -0.12911987 2.322815 l 41.78351 62.397034 l 3.7381897 0.36328125 l 91.55527 1.3838501 l -3.074463 0.0 l 196.5329 0.0 l 0.0 0.0 l 133.38904 0.00012207031 l 4.5598145 -6.1035156e-05 l -702.20654 200.77069 l 0.0 142.05347 l 234.06485 -55.602417 l 0.0048217773 -0.027160645 l -0.96151733 -38.44812 l 0.0 0.0 l -0.108184814 164.77277 l 0.0 -1.8009033 l 0.0 -71.23523 l 0.0 -1.2059326 l -232.99997 191.4762 l 0.0 113.68848 l 0.0 164.5581 l 85.2883 0.0 l 85.049866 0.0 l 129.66132 -589.9984 l 0.031311035 0.0 l 98.54999 -0.0014038086 l 0.0 0.0 l 88.787476 0.00024414062 l 88.73712 -0.0004272461 l 3.317627 0.0 l -323.7965 590.0 l 85.049866 0.0 l 85.22998 -0.013549805 l 85.17236 -0.040649414 l 85.114624 -0.06762695 l -363.07874 -248.45264 l 0.0 0.0 l -0.10241699 -54.21167 l -0.001953125 1.5927734 l 75.05484 82.172485 l 44.349274 0.0029296875 l 329.0562 218.74377 l 85.19537 -0.24047852 l 85.33099 -84.270386 l 0.0 0.0 l -0.005859375 8.026733 l 0.008911133 37.91211 l 0.0 13.923706 l 0.0 23.759033 l 0.0 -0.08618164 l -384.43933 -217.74988 l -44.071045 -0.00012207031 l 136.8617 -0.00012207031 l -3.9693604 -0.00012207031 l 158.70789 0.015136719 l -44.25177 -0.001953125 l 180.7127 9.949707 l 0.0 0.0 l 0.22924805 -5.465088 l -56.454468 -3.1766357 l 56.70862 69.17163 l -0.014526367 13.645142 l 0.31896973 -38.521973 l -18.338623 -579.2687 l 0.0 0.0 l 0.0 67.71057 l 0.0 0.0 l -16.833008 -122.1438 l 4.4093018 -0.49230957 l 10.958374 182.05292 l 0.0 0.0 l -42.460205 31.336792 l -118.71655 4.069824 l -2.9021606 0.018981934 l 183.54425 -949.15765 l 0.0 5.6873417 l 0.0 49.57409 l 0.0 0.45148468 l 0.0 119.66044 l 0.0 -0.65223694 l 0.0 -22.804657 l 0.0 -42.27604 l 0.0 -0.65732574 l 0.0 -23.50238 l -1.6020508 128.8783 l -61.124878 -0.088378906 l -61.056946 -0.09736633 l -41.27771 -218.77782 l 78.13086 -0.019248545 l -98.90491 218.60507 l -61.67218 -0.047470093 l -61.947327 -0.07594299 l -65.884155 0.3563385 l -56.512268 0.006500244 l 11.684631 -218.925 l 97.15289 -0.035355046 l 61.524353 -0.00052834814 l -251.57068 218.94519 l 3.958191 0.011352539 l -109.49576 0.9004364 l 0.024871826 0.05317688 l 0.76068115 49.245193 l 103.99304 -269.12967 l -0.40118408 0.0043130964 l -140.88974 -0.03138616 l -7.056671 -0.00028534816 l 43.1669 333.686 l 0.0 37.036224 l 0.0 91.640015 l 0.0 2.4783936 " /> </g> </svg>