<?xml version="1.0" standalone="no"?><!DOCTYPE svg PUBLIC "-//W3C//DTD SVG 1.1//EN" "http://www.w3.org/Graphics/SVG/1.1/DTD/svg11.dtd" ><svg xmlns="http://www.w3.org/2000/svg" xmlns:xlink="http://www.w3.org/1999/xlink" version="1.1" viewBox="-10 0 692 1000"><g transform="matrix(1 0 0 -1 0 800)"><path stroke="black" fill="none" d="M 185.0034 3.8146954e-05 l 85.18472 7.275958e-12 l -85.19626 154.4 l 0.0 154.4 l 0.0 154.4 l 0.0 154.42017 l 0.0 154.37317 l 233.0 -191.81921 l -3.0517578e-05 -51.568848 l 0.0018310547 103.273926 l -0.0002746582 51.49353 l 0.09005737 51.623474 l 59.978485 0.00079345703 l 120.138275 0.0029907227 l -59.97705 0.0 l 120.31763 0.0 l 59.698425 0.0 l 119.47778 0.0 l -58.766968 0.0 l 119.81683 0.0 l -713.775 191.42023 l 0.0 154.37347 l 233.00226 -52.606567 l -0.0021972656 -73.991455 l -3.0517578e-05 36.843018 l -6.1035156e-05 185.50073 l 0.0 -37.023193 l 0.0 -37.174194 l 0.0 -37.02002 l -232.99997 169.94385 l 0.0 154.31226 l 0.0 154.42188 l 85.200165 0.0 l 85.19971 0.0 l 122.714935 -590.0 l 60.38736 0.0 l 59.697083 0.0 l 60.230774 0.0 l 60.161804 0.0 l 59.97754 0.0 l -337.9693 590.0 l 85.19971 0.0 l 85.20001 0.0 l 85.19995 -0.00012207031 l 85.19983 -0.00012207031 l -363.3995 -219.19543 l -3.0517578e-05 -36.842896 l -3.0517578e-05 -74.20215 l 0.0 37.02246 l 61.928345 74.21826 l 61.862152 0.0 l 324.80914 218.99939 l 85.20001 -0.00048828125 l 85.20032 -109.37634 l 0.0 21.740234 l 0.0 21.91333 l 0.0 21.93457 l 0.0 21.882812 l 0.0 21.90393 l -371.4281 -218.99744 l -61.861572 0.0 l 185.59473 0.0 l -61.775146 0.0 l 185.64185 0.0 l -61.862 0.0 l 185.68927 21.874268 l 0.0009765625 -21.874268 l 0.0 0.0 l 0.0 0.0 l 0.0 0.0 l -61.888733 0.0028076172 l 61.888855 65.70752 l -0.00012207031 21.882202 l 0.0007324219 -43.788696 l -18.000732 -546.6104 l 0.0 -21.383484 l 0.0 -22.402344 l 0.0 -21.363342 l 0.0 130.84918 l 0.0 -21.383423 l 0.0 -21.934021 l -60.006775 -109.57184 l 59.97998 -0.0010986328 l 0.025634766 218.85675 l 0.0010986328 -22.153992 l 0.0 -21.368896 l -60.065125 43.654053 l -60.22632 0.0087890625 l -59.976624 0.0 l 198.26813 -953.9895 l 0.0 21.865053 l 0.0 21.95965 l 0.0 21.84489 l 0.0 131.38358 l 0.0 -21.848297 l 0.0 -21.907867 l 0.0 -21.943909 l 0.0 -21.848373 l 0.0 -21.909294 l -0.0034179688 131.39456 l -61.898376 -0.00018310547 l -61.898132 -0.00021362305 l -46.588562 -218.99951 l 85.18475 -4.1490188e-05 l -100.49658 218.99915 l -61.899475 -0.00010681152 l -61.900146 -0.00016784668 l -61.90857 0.00077819824 l -61.888367 1.5258789e-05 l 7.3094482 -218.99983 l 85.22577 -7.620758e-05 l 85.14899 -1.1388511e-06 l -301.3924 218.99988 l 61.775085 1.5258789e-05 l -123.769165 0.0019378662 l 0.0017089844 51.595047 l 107.79181 -270.59683 l -85.32089 -5.83558e-05 l -85.031586 -6.150658e-07 l 62.558105 322.22476 l 0.0 51.568604 l 0.0 51.68631 l 0.0 51.493927 " /> </g> </svg>