<?xml version="1.0" standalone="no"?><!DOCTYPE svg PUBLIC "-//W3C//DTD SVG 1.1//EN" "http://www.w3.org/Graphics/SVG/1.1/DTD/svg11.dtd" ><svg xmlns="http://www.w3.org/2000/svg" xmlns:xlink="http://www.w3.org/1999/xlink" version="1.1" viewBox="-10 0 692 1000"><g transform="matrix(1 0 0 -1 0 800)"><path stroke="black" fill="none" d="M 1037.0 1325.0 l -80.9588 48.013306 l 0.0 0.0 l -50.619385 -48.013306 l -56.172424 0.0 l -56.172424 0.0 l -56.172424 0.0 l -56.172485 0.0 l -61.20508 0.0 l 0.0 0.0 l -89.18213 0.0 l -56.172394 0.0 l -56.172455 0.0 l 0.0 -37.099976 l 0.0 -37.099976 l 0.0 -37.100098 l 0.0 -37.099976 l 0.0 -37.099976 l 0.0 -37.099976 l 0.0 -37.099976 l 0.0 -37.100098 l 0.0 -37.099915 l 0.0 -37.100037 l 54.301727 0.0 l 61.654022 0.0 l 0.0 0.0 l 83.648315 0.0 l 54.301636 0.0 l 54.301758 0.0 l 54.301758 0.0 l 54.301697 0.0 l 54.301758 0.0 l 48.437622 -35.506897 l 0.0 0.0 l 81.44971 35.506897 l 0.0 -21.899963 l 0.0 -21.900024 l -57.982727 -21.900024 l 57.982727 -21.899963 l 0.0 -21.900024 l 0.0 -21.899963 l 0.0 -21.900024 l 0.0 -21.899963 l 0.0 -21.900024 l 0.0 -21.900024 l -81.986145 121.314514 l 0.0 0.0 l -14.039734 -121.314514 l 0.0 0.0 l -88.16321 0.0 l -54.301697 0.0 l -54.301758 0.0 l -54.301758 0.0 l -59.396484 0.0 l 0.0 0.0 l -85.90576 0.0 l -54.301727 0.0 l -54.301727 0.0 l 0.0 -67.08563 l 0.0 -36.11432 l 0.0 -46.084595 l 0.0 -67.08563 l 0.0 -41.62979 l 0.0 -40.569122 l 0.0 -67.08566 l 0.0 -47.145203 l 0.0 -35.05371 l 0.0 -81.997345 l 0.0 0.0 l 61.899994 13.851044 l 61.899994 0.0 l 61.900024 0.0 l 61.899963 0.0 l 61.900024 0.0 l 61.900024 0.0 l 61.899963 0.0 l 61.900024 0.0 l 61.899963 0.0 l 61.900024 0.0 l 0.0 -21.899994 l 0.0 -21.899994 l 0.0 -21.90001 l 0.0 -21.899994 l 0.0 -21.900002 l 0.0 -21.900002 l 0.0 -21.900002 l 0.0 -21.899998 l 0.0 -21.9 l 0.0 -21.9 l -85.20001 0.0 l -85.20001 0.0 l -85.19995 0.0 l -85.20001 0.0 l -85.20001 0.0 l -85.19995 0.0 l -101.180664 51.972332 l -59.988953 -51.97235 l 0.0 0.0 l -124.40819 4.672038e-07 l 0.0 0.0 l -38.746643 1.157001e-06 l 0.0 0.0 l -16.475586 154.4 l 0.0 154.40001 l 0.0 154.4 l 0.0 154.39996 l 0.0 154.40002 l 0.0 154.39996 l 0.0 154.39996 l 0.0 154.40002 l 0.0 154.40002 l 0.0 154.40002 l 79.47243 0.0 l 79.47244 0.0 l 79.47244 0.0 l 79.47244 0.0 l 125.60248 0.0 l 0.0 0.0 l 87.86029 0.0 l 79.47241 0.0 l 79.47247 0.0 l 80.597046 -10.39978 l 0.0 0.0 l 81.10553 10.39978 l 0.0 -21.900024 l 0.0 -21.900024 l 0.0 -21.900024 l 0.0 -21.899902 l -80.40387 12.27832 l 0.0 0.0 l 80.40387 -56.07837 l 0.0 -21.900024 l 0.0 -21.900024 l 0.0 -21.899902 l 0.0 -21.900024 " /> </g> </svg>