<?xml version="1.0" standalone="no"?><!DOCTYPE svg PUBLIC "-//W3C//DTD SVG 1.1//EN" "http://www.w3.org/Graphics/SVG/1.1/DTD/svg11.dtd" ><svg xmlns="http://www.w3.org/2000/svg" xmlns:xlink="http://www.w3.org/1999/xlink" version="1.1" viewBox="-10 0 692 1000"><g transform="matrix(1 0 0 -1 0 800)"><path stroke="black" fill="none" d="M 956.0 1325.0 l 0.0 0.0 l 0.0 0.0 l 0.0 0.0 l 0.0 43.764404 l 0.0 -21.84668 l -53.799805 -21.917725 l -53.80011 0.0 l -53.80017 0.0 l -53.80017 0.0 l -53.80011 0.0 l -107.59216 0.0 l 53.78955 0.0 l -107.5968 0.0 l -53.80008 0.0 l -53.80014 0.0 l 0.0 -37.099976 l 0.0 -37.099976 l 0.0 -37.100098 l 0.0 -37.099976 l 0.0 -37.099976 l 0.0 -37.099976 l 0.0 -37.099976 l 0.0 -37.100098 l 0.0 -37.099915 l 0.0 -37.100037 l 51.900146 0.0 l 103.79266 0.0 l -51.88983 0.0 l 103.79663 0.0 l 51.900085 0.0 l 51.900146 0.0 l 51.900146 0.0 l 51.900085 0.0 l 51.900208 0.0 l 51.89972 -0.035583496 l 0.0 -21.846619 l 0.0 -21.916443 l 0.00012207031 -21.911743 l -6.1035156e-05 -21.882385 l -6.1035156e-05 -43.817444 l 0.0 -21.88031 l 0.0 43.788696 l 0.0 -65.7337 l 0.0 -21.84668 l -6.1035156e-05 -21.916443 l -103.77588 -0.0013427734 l 51.867737 0.0 l -103.79181 0.0 l -51.900146 0.0 l -51.900146 0.0 l -103.79248 0.0 l 51.88983 0.0 l -103.796814 0.0 l -51.900085 0.0 l -51.900146 0.0 l 0.0 -73.49963 l 0.0 -73.50049 l 0.0 -73.49963 l 0.0 -73.50046 l 0.0 -73.499664 l 0.0 -73.50046 l 0.0 -146.98958 l 0.0 73.48671 l 0.00036621094 -146.99796 l -0.0026550293 -73.498825 l -23.335052 0.0 l -23.2435 0.0 l -69.79263 0.0 l 23.128265 0.0 l 23.34024 0.0 l -70.021545 0.0 l -23.128265 0.0 l -23.340256 0.0 l -46.60167 2.7284841e-11 l 23.294128 -1.4551915e-11 l -23.29741 154.4 l 0.0 154.40001 l 0.0 154.4 l 0.0 154.39996 l 0.0 154.40002 l 0.0 154.39996 l 0.0 154.39996 l 0.0 154.40002 l 0.0 154.40002 l 0.0 154.40002 l 77.10011 0.0 l 77.10013 0.0 l 77.10016 0.0 l 77.10013 0.0 l 77.109955 0.0 l 77.08606 0.0 l 77.10303 0.0 l 77.1001 0.0 l 77.10016 0.0 l 77.10016 -43.79065 l 0.0 21.880981 l 0.0 21.907715 l 0.0 -109.61731 l 0.0 -21.736084 l 0.0 -21.939941 l 0.0 65.705444 l 0.0 21.88208 " /> </g> </svg>