<?xml version="1.0" standalone="no"?><!DOCTYPE svg PUBLIC "-//W3C//DTD SVG 1.1//EN" "http://www.w3.org/Graphics/SVG/1.1/DTD/svg11.dtd" ><svg xmlns="http://www.w3.org/2000/svg" xmlns:xlink="http://www.w3.org/1999/xlink" version="1.1" viewBox="-10 0 692 1000"><g transform="matrix(1 0 0 -1 0 800)"><path stroke="black" fill="none" d="M 956.0 1325.0 l 0.0 0.0 l 0.0 0.0 l 0.0 0.0 l 0.0 43.67871 l 0.0 -21.717773 l -53.799377 -21.960938 l -53.800415 0.0 l -53.800537 0.0 l -53.800415 0.0 l -53.800415 0.0 l -107.573425 0.0 l 53.764282 0.0 l -107.58887 0.0 l -53.800385 0.0 l -53.800446 0.0 l 0.0 -37.099976 l 0.0 -37.099976 l 0.0 -37.100098 l 0.0 -37.099976 l 0.0 -37.099976 l 0.0 -37.099976 l 0.0 -37.099976 l 0.0 -37.100098 l 0.0 -37.099915 l 0.0 -37.100037 l 51.900482 0.0 l 103.774994 0.0 l -51.865356 0.0 l 103.78845 0.0 l 51.90039 0.0 l 51.90045 0.0 l 51.900513 0.0 l 51.90039 0.0 l 51.90045 0.0 l 51.89923 -0.121398926 l 0.0 -21.718018 l 0.0 -21.955933 l 0.0004272461 -21.940186 l -0.00018310547 -21.839844 l -0.00024414062 -43.85962 l 0.0 -21.832642 l 0.0 43.761414 l -6.1035156e-05 -65.815125 l 0.0 -21.718018 l -0.00018310547 -21.956116 l -103.71759 -0.0045166016 l 51.789734 0.0 l -103.77197 0.0 l -51.900513 0.0 l -51.90045 0.0 l -103.774414 0.0 l 51.865234 0.0 l -103.78888 0.0 l -51.90042 0.0 l -51.900482 0.0 l 0.0 -73.49884 l 0.0 -73.50159 l 0.0 -73.49878 l 0.0 -73.50162 l 0.0 -73.49881 l 0.0 -73.50162 l 0.0 -146.96432 l 0.0 73.45459 l 0.0012207031 -146.99298 l -0.009002686 -73.49602 l -23.41977 0.0 l -23.107117 0.0 l -69.533325 0.0 l 22.713623 0.0 l 23.437347 0.0 l -70.315 0.0 l -22.713593 0.0 l -23.43747 0.0 l -46.605698 9.276846e-11 l 23.279938 -4.7293724e-11 l -23.291138 154.4 l 0.0 154.40001 l 0.0 154.4 l 0.0 154.39996 l 0.0 154.40002 l 0.0 154.39996 l 0.0 154.39996 l 0.0 154.40002 l 0.0 154.40002 l 0.0 154.40002 l 77.10042 0.0 l 77.100464 0.0 l 77.10043 0.0 l 77.10043 0.0 l 77.134125 0.0 l 77.05249 0.0 l 77.11011 0.0 l 77.1004 0.0 l 77.100464 0.0 l 77.10065 -43.767944 l 0.0 21.835083 l 0.0 21.926147 l 0.0 -109.900635 l 0.0 -21.340332 l 0.0 -22.036255 l 0.0 65.718994 l 0.0 21.838745 " /> </g> </svg>