<?xml version="1.0" standalone="no"?><!DOCTYPE svg PUBLIC "-//W3C//DTD SVG 1.1//EN" "http://www.w3.org/Graphics/SVG/1.1/DTD/svg11.dtd" ><svg xmlns="http://www.w3.org/2000/svg" xmlns:xlink="http://www.w3.org/1999/xlink" version="1.1" viewBox="-10 0 692 1000"><g transform="matrix(1 0 0 -1 0 800)"><path stroke="black" fill="none" d="M 1037.0 1325.0 l -80.99957 5.2990723 l 0.0 0.0 l 0.00048828125 11.385864 l -52.85724 -16.684937 l -54.494873 0.0 l -54.494934 0.0 l -54.494812 0.0 l -54.494873 0.0 l -65.570984 0.0 l 1.3017578 0.0 l -93.90521 0.0 l -54.494843 0.0 l -54.494904 0.0 l 0.0 -37.099976 l 0.0 -37.099976 l 0.0 -37.100098 l 0.0 -37.099976 l 0.0 -37.099976 l 0.0 -37.099976 l 0.0 -37.099976 l 0.0 -37.100098 l 0.0 -37.099915 l 0.0 -37.100037 l 52.603455 0.0 l 64.21454 0.0 l -1.2365112 0.0 l 89.676575 0.0 l 52.603394 0.0 l 52.603516 0.0 l 52.603455 0.0 l 52.603394 0.0 l 52.603516 0.0 l 50.751892 -30.325073 l -0.013366699 -6.07666 l 0.0 0.0 l 81.986145 36.401733 l 0.0 -21.899963 l 0.0 -21.900024 l -79.93964 -37.38562 l 0.0 0.0 l 79.93964 -6.4143677 l 0.0 -21.900024 l 0.0 -21.899963 l 0.0 -21.900024 l 0.0 -21.899963 l 0.0 -21.900024 l 0.0 -21.900024 l -81.999146 83.669556 l 0.0 0.0 l -0.00048828125 15.972839 l -0.73535156 -86.06976 l 0.38153076 -6.383362 l 0.0 0.0 l -66.6095 -7.18927 l 0.0 0.0 l -88.96863 0.0 l -52.603455 0.0 l -52.603516 0.0 l -63.341125 0.0 l 1.2177734 0.0 l -90.53119 0.0 l -52.603455 0.0 l -52.603455 0.0 l 0.0 -71.62128 l 0.0 -31.578674 l 0.0 -44.469177 l 0.0 -71.62128 l 0.0 -38.709564 l 0.0 -37.338257 l 0.0 -71.62131 l 0.0 -45.840424 l 0.0 -30.207428 l 0.0 -90.50174 l 0.0 2.4847412 l 61.899994 15.024414 l 61.899994 0.0 l 61.900024 0.0 l 61.899963 0.0 l 61.900024 0.0 l 61.900024 0.0 l 61.899963 0.0 l 61.900024 0.0 l 61.899963 0.0 l 61.900024 0.0 l 0.0 -21.899994 l 0.0 -21.899994 l 0.0 -21.90001 l 0.0 -21.899994 l 0.0 -21.900002 l 0.0 -21.900002 l 0.0 -21.900002 l 0.0 -21.899998 l 0.0 -21.9 l 0.0 -21.9 l -85.20001 0.0 l -85.20001 0.0 l -85.19995 0.0 l -85.20001 0.0 l -85.20001 0.0 l -85.19995 0.0 l -105.86127 67.19468 l -14.245148 -67.194695 l 0.0 0.0 l -10.545959 2.3101165e-10 l -57.25116 6.548362e-11 l 0.0 0.0 l -98.42351 1.1452357e-08 l 0.0 0.0 l -36.82962 1.3466342e-07 l 0.2498169 -5.9535523e-09 l -17.893188 154.4 l 0.0 154.40001 l 0.0 154.4 l 0.0 154.39996 l 0.0 154.40002 l 0.0 154.39996 l 0.0 154.39996 l 0.0 154.40002 l 0.0 154.40002 l 0.0 154.40002 l 77.794876 0.0 l 77.79486 0.0 l 77.79489 0.0 l 77.79486 0.0 l 131.19 0.0 l 2.6381836 0.0 l 92.247375 0.0 l 77.79486 0.0 l 77.79492 0.0 l 78.15082 -17.447998 l 0.0 0.0 l 0.0015869141 6.859253 l 81.00275 10.588745 l 0.0 -21.900024 l 0.0 -21.900024 l 0.0 -21.900024 l 0.0 -21.899902 l -80.98871 -54.056152 l 0.0 0.0 l -0.0065307617 66.65906 l 0.0 0.0 l 80.99524 -56.402954 l 0.0 -21.900024 l 0.0 -21.900024 l 0.0 -21.899902 l 0.0 -21.900024 " /> </g> </svg>