<?xml version="1.0" standalone="no"?><!DOCTYPE svg PUBLIC "-//W3C//DTD SVG 1.1//EN" "http://www.w3.org/Graphics/SVG/1.1/DTD/svg11.dtd" ><svg xmlns="http://www.w3.org/2000/svg" xmlns:xlink="http://www.w3.org/1999/xlink" version="1.1" viewBox="-10 0 692 1000"><g transform="matrix(1 0 0 -1 0 800)"><path stroke="black" fill="none" d="M 956.0 1325.0391 l 0.0 0.0 l 0.0 0.012939453 l 0.0 25.52063 l 0.0 0.0 l -53.52368 -25.98816 l -54.00348 0.0 l -54.0036 0.0 l -54.00348 0.0 l -54.00354 0.0 l -95.28992 0.0 l 37.243652 0.0 l -102.409 0.0 l -54.00348 0.0 l -54.00354 0.0 l 0.0 -37.099976 l 0.0 -37.099976 l 0.0 -37.100098 l 0.0 -37.099976 l 0.0 -37.099976 l 0.0 -37.099976 l 0.0 -37.099976 l 0.0 -37.100098 l 0.0 -37.099915 l 0.0 -37.100037 l 52.10605 0.0 l 92.20566 0.0 l -35.800964 0.0 l 98.40332 0.0 l 52.106018 0.0 l 52.10608 0.0 l 52.106018 0.0 l 52.106018 0.0 l 52.10608 0.0 l 51.558044 -18.087097 l 0.0 0.0 l 0.0017089844 -23.545288 l 6.1035156e-05 0.0079956055 l 0.18408203 -40.56079 l -0.0107421875 -0.33380127 l -0.17736816 -64.586365 l 0.0 -0.11871338 l 6.1035156e-05 34.836853 l -0.06317139 -80.89148 l 0.0 0.0 l -0.04046631 -23.615173 l -0.00036621094 0.007751465 l -65.58447 -2.1138916 l 1.7589722 0.0 l -91.83844 0.0 l -52.106018 0.0 l -52.10608 0.0 l -91.94989 0.0 l 35.761597 0.0 l -98.61975 0.0 l -52.105988 0.0 l -52.10605 0.0 l 0.0 -72.94971 l 0.0 -74.24628 l 0.0 -72.94971 l 0.0 -74.24625 l 0.0 -72.94974 l 0.0 -74.24625 l 0.0 -130.45206 l 0.0 52.43312 l 0.5678711 -143.7399 l -4.172333 -71.65321 l -0.013244629 0.0 l -36.119476 -4.9112714e-11 l 0.0 0.0 l -49.19751 -5.456968e-12 l 11.1293335 -2.5465852e-11 l 0.0 0.0 l -89.66728 8.094503e-10 l -11.080765 -5.2023097e-10 l 0.0 0.0 l -49.253952 4.2613465e-08 l 13.995285 -2.1578671e-08 l -19.187912 154.4 l 0.0 154.40001 l 0.0 154.4 l 0.0 154.39996 l 0.0 154.40002 l 0.0 154.39996 l 0.0 154.39996 l 0.0 154.40002 l 0.0 154.40002 l 0.0 154.40002 l 77.30351 0.0 l 77.30353 0.0 l 77.30353 0.0 l 77.30353 0.0 l 92.942566 0.0 l 55.069946 0.0 l 81.75726 0.0 l 77.30353 0.0 l 77.30353 0.0 l 77.40869 -37.003784 l 0.0 0.0 l 0.0 0.14489746 l -0.0004272461 33.757446 l 0.0015258789 -133.07642 l -0.0004272461 -9.640015 l 0.0 0.0 l 0.00012207031 74.49988 l 0.0 0.2886963 " /> </g> </svg>