<?xml version="1.0" standalone="no"?><!DOCTYPE svg PUBLIC "-//W3C//DTD SVG 1.1//EN" "http://www.w3.org/Graphics/SVG/1.1/DTD/svg11.dtd" ><svg xmlns="http://www.w3.org/2000/svg" xmlns:xlink="http://www.w3.org/1999/xlink" version="1.1" viewBox="-10 0 692 1000"><g transform="matrix(1 0 0 -1 0 800)"><path stroke="black" fill="none" d="M 956.0 1325.0 l 0.0 0.0 l 0.0 0.0 l 0.0 0.0 l 0.0 43.385864 l 0.0 -21.27771 l -53.797974 -22.108154 l -53.801453 0.0 l -53.801575 0.0 l -53.801453 0.0 l -53.801514 0.0 l -107.5094 0.0 l 53.67816 0.0 l -107.56183 0.0 l -53.801453 0.0 l -53.801514 0.0 l 0.0 -37.099976 l 0.0 -37.099976 l 0.0 -37.100098 l 0.0 -37.099976 l 0.0 -37.099976 l 0.0 -37.099976 l 0.0 -37.099976 l 0.0 -37.100098 l 0.0 -37.099915 l 0.0 -37.100037 l 51.90155 0.0 l 103.71466 0.0 l -51.781555 0.0 l 103.760315 0.0 l 51.90149 0.0 l 51.90155 0.0 l 51.90155 0.0 l 51.90149 0.0 l 51.90155 0.0 l 51.8974 -0.41448975 l 0.0 -21.278809 l 6.1035156e-05 -22.09076 l 0.0013427734 -22.037292 l -0.00061035156 -21.694641 l -0.00079345703 -44.003662 l 0.0 -21.66986 l 0.0 43.668274 l -0.00012207031 -66.0932 l 0.0 -21.278564 l -0.0006713867 -22.091492 l -103.51874 -0.01550293 l 51.5235 0.0 l -103.70441 0.0 l -51.90155 0.0 l -51.90155 0.0 l -103.71277 0.0 l 51.78125 0.0 l -103.7619 0.0 l -51.90149 0.0 l -51.90155 0.0 l 0.0 -73.49597 l 0.0 -73.50549 l 0.0 -73.49591 l 0.0 -73.50549 l 0.0 -73.49594 l 0.0 -73.50549 l 0.0 -146.87822 l 0.0 73.344955 l 0.004180908 -146.97601 l -0.030700684 -73.486404 l -23.709045 0.0 l -22.64148 0.0 l -68.64801 0.0 l 21.297974 0.0 l 23.76892 0.0 l -71.316864 0.0 l -21.297897 0.0 l -23.769333 1.8189894e-12 l -46.619507 3.1468517e-10 l 23.231522 -1.6007107e-10 l -23.269745 154.4 l 0.0 154.40001 l 0.0 154.4 l 0.0 154.39996 l 0.0 154.40002 l 0.0 154.39996 l 0.0 154.39996 l 0.0 154.40002 l 0.0 154.40002 l 0.0 154.40002 l 77.10149 0.0 l 77.1015 0.0 l 77.1015 0.0 l 77.1015 0.0 l 77.21655 0.0 l 76.93787 0.0 l 77.13434 0.0 l 77.10144 0.0 l 77.10156 0.0 l 77.102234 -43.69043 l 0.0 21.6781 l 0.0 21.989502 l 0.0 -110.86792 l 0.0 -19.989014 l 0.0 -22.365234 l 0.0 65.76477 l 0.0 21.690918 " /> </g> </svg>