<?xml version="1.0" standalone="no"?><!DOCTYPE svg PUBLIC "-//W3C//DTD SVG 1.1//EN" "http://www.w3.org/Graphics/SVG/1.1/DTD/svg11.dtd" ><svg xmlns="http://www.w3.org/2000/svg" xmlns:xlink="http://www.w3.org/1999/xlink" version="1.1" viewBox="-10 0 692 1000"><g transform="matrix(1 0 0 -1 0 800)"><path stroke="black" fill="none" d="M 956.0 1325.0 l 0.0 0.0 l 0.0 0.0 l 0.0 0.0 l 0.0 43.78955 l 0.0 -21.8844 l -53.799927 -21.905151 l -53.80005 0.0 l -53.80005 0.0 l -53.80005 0.0 l -53.80005 0.0 l -107.59766 0.0 l 53.796936 0.0 l -107.59912 0.0 l -53.799988 0.0 l -53.80005 0.0 l 0.0 -37.099976 l 0.0 -37.099976 l 0.0 -37.100098 l 0.0 -37.099976 l 0.0 -37.099976 l 0.0 -37.099976 l 0.0 -37.099976 l 0.0 -37.100098 l 0.0 -37.099915 l 0.0 -37.100037 l 51.900055 0.0 l 103.79782 0.0 l -51.897034 0.0 l 103.79907 0.0 l 51.900024 0.0 l 51.900024 0.0 l 51.900085 0.0 l 51.899963 0.0 l 51.900085 0.0 l 51.899902 -0.010437012 l 0.0 -21.884338 l 0.0 -21.904846 l 6.1035156e-05 -21.903442 l -6.1035156e-05 -21.894775 l 0.0 -43.805115 l 0.0 -21.894287 l 0.0 43.79669 l 0.0 -65.70984 l 0.0 -21.8844 l 0.0 -21.904846 l -103.79297 -0.00036621094 l 51.890564 0.0 l -103.79755 0.0 l -51.900085 0.0 l -51.900024 0.0 l -103.79779 0.0 l 51.897034 0.0 l -103.79913 0.0 l -51.899994 0.0 l -51.900055 0.0 l 0.0 -73.49988 l 0.0 -73.50018 l 0.0 -73.49988 l 0.0 -73.50009 l 0.0 -73.49991 l 0.0 -73.50015 l 0.0 -146.99695 l 0.0 73.49611 l 0.00012207031 -146.99939 l -0.00079345703 -73.49965 l -23.310272 0.0 l -23.283417 0.0 l -69.86859 0.0 l 23.249725 0.0 l 23.311768 0.0 l -69.93558 0.0 l -23.24971 0.0 l -23.311798 0.0 l -46.60048 7.275958e-12 l 23.298279 -3.637979e-12 l -23.29924 154.4 l 0.0 154.40001 l 0.0 154.4 l 0.0 154.39996 l 0.0 154.40002 l 0.0 154.39996 l 0.0 154.39996 l 0.0 154.40002 l 0.0 154.40002 l 0.0 154.40002 l 77.10002 0.0 l 77.10004 0.0 l 77.10007 0.0 l 77.10004 0.0 l 77.102875 0.0 l 77.09595 0.0 l 77.10089 0.0 l 77.10004 0.0 l 77.10004 0.0 l 77.10004 -43.79724 l 0.0 21.89441 l 0.0 21.902222 l 0.0 -109.5343 l 0.0 -21.85205 l 0.0 -21.911743 l 0.0 65.70166 l 0.0 21.894775 " /> </g> </svg>