<?xml version="1.0" standalone="no"?><!DOCTYPE svg PUBLIC "-//W3C//DTD SVG 1.1//EN" "http://www.w3.org/Graphics/SVG/1.1/DTD/svg11.dtd" ><svg xmlns="http://www.w3.org/2000/svg" xmlns:xlink="http://www.w3.org/1999/xlink" version="1.1" viewBox="-10 0 692 1000"><g transform="matrix(1 0 0 -1 0 800)"><path stroke="black" fill="none" d="M 956.0 1325.0034 l 0.0 0.0 l 0.0 0.00036621094 l 0.0 0.006225586 l 0.0 27.276001 l 0.0 -0.5423584 l -53.719055 -26.779297 l -53.85956 0.0 l -53.85968 0.0 l -53.85962 0.0 l -53.85956 0.0 l -103.994446 0.0 l 48.950745 0.0 l -106.07965 0.0 l -53.85956 0.0 l -53.85962 0.0 l 0.0 -37.099976 l 0.0 -37.099976 l 0.0 -37.100098 l 0.0 -37.099976 l 0.0 -37.099976 l 0.0 -37.099976 l 0.0 -37.099976 l 0.0 -37.100098 l 0.0 -37.099915 l 0.0 -37.100037 l 51.960358 0.0 l 100.40408 0.0 l -47.184692 0.0 l 102.21936 0.0 l 51.960327 0.0 l 51.96039 0.0 l 51.960327 0.0 l 51.960327 0.0 l 51.96039 0.0 l 51.799377 -16.496765 l -6.1035156e-05 -0.5475464 l 0.0009765625 -26.120789 l 6.1035156e-05 0.028137207 l 0.053894043 -27.391724 l -0.022705078 -13.728516 l -0.032409668 -51.906433 l 0.0 -12.7404785 l 6.1035156e-05 38.55847 l -0.0061035156 -81.35162 l 0.00061035156 -0.54626465 l -0.024902344 -26.139587 l -0.0012817383 0.026672363 l -92.60571 -0.6435547 l 36.913025 0.0 l -99.995544 0.0 l -51.960327 0.0 l -51.96039 0.0 l -100.32916 0.0 l 47.173157 0.0 l -102.282776 0.0 l -51.960297 0.0 l -51.960358 0.0 l 0.0 -73.338806 l 0.0 -73.71857 l 0.0 -73.33887 l 0.0 -73.71854 l 0.0 -73.33884 l 0.0 -73.71857 l 0.0 -142.15323 l 0.0 67.32965 l 0.1663208 -146.04514 l -1.2220459 -72.95908 l -0.0715332 1.8189894e-12 l -39.50827 -2.5465852e-11 l -0.55651855 -1.8189894e-12 l -56.46762 0.0 l 0.0 0.0 l 25.444244 1.8189894e-12 l -0.010498047 0.0 l -86.423584 6.548362e-11 l 0.0 0.0 l -25.45227 1.8189894e-11 l 0.010421753 0.0 l -47.38774 1.2481905e-08 l 20.574707 -6.320988e-09 l -22.095596 154.4 l 0.0 154.40001 l 0.0 154.4 l 0.0 154.39996 l 0.0 154.40002 l 0.0 154.39996 l 0.0 154.39996 l 0.0 154.40002 l 0.0 154.40002 l 0.0 154.40002 l 77.15959 0.0 l 77.15964 0.0 l 77.15961 0.0 l 77.15961 0.0 l 81.74014 0.0 l 70.64758 0.0 l 78.46405 0.0 l 77.15961 0.0 l 77.15967 0.0 l 77.19043 -39.436768 l 0.0 0.32214355 l -6.1035156e-05 12.744385 l -0.00012207031 25.461792 l 0.00030517578 -126.365845 l 0.0 0.0 l 0.0 -23.834229 l 0.0 0.009887695 l 6.1035156e-05 68.26843 l -6.1035156e-05 13.579468 " /> </g> </svg>