<?xml version="1.0" standalone="no"?><!DOCTYPE svg PUBLIC "-//W3C//DTD SVG 1.1//EN" "http://www.w3.org/Graphics/SVG/1.1/DTD/svg11.dtd" ><svg xmlns="http://www.w3.org/2000/svg" xmlns:xlink="http://www.w3.org/1999/xlink" version="1.1" viewBox="-10 0 692 1000"><g transform="matrix(1 0 0 -1 0 800)"><path stroke="black" fill="none" d="M 956.0 1325.0002 l 0.0 0.0 l 0.0 0.0 l 0.0 0.0 l 0.0 38.970093 l 0.0 -14.646851 l -53.776306 -24.32666 l -53.817383 0.0 l -53.817566 0.0 l -53.817444 0.0 l -53.817444 0.0 l -106.543945 0.0 l 52.3797 0.0 l -107.154724 0.0 l -53.817413 0.0 l -53.817474 0.0 l 0.0 -37.099976 l 0.0 -37.099976 l 0.0 -37.100098 l 0.0 -37.099976 l 0.0 -37.099976 l 0.0 -37.099976 l 0.0 -37.099976 l 0.0 -37.100098 l 0.0 -37.099915 l 0.0 -37.100037 l 51.917694 0.0 l 102.80533 0.0 l -50.51892 0.0 l 103.3371 0.0 l 51.917603 0.0 l 51.917725 0.0 l 51.917725 0.0 l 51.917603 0.0 l 51.917725 0.0 l 51.870483 -4.831787 l 0.0 -14.658936 l 0.00030517578 -24.123291 l 0.01574707 -23.500305 l -0.006591797 -19.506592 l -0.009521484 -46.174316 l 0.0 -19.217224 l 0.0 42.26477 l -0.0017700195 -70.28424 l 0.00048828125 -14.65564 l -0.0076293945 -24.131775 l -100.52161 -0.18066406 l 47.510437 0.0 l -102.68567 0.0 l -51.917725 0.0 l -51.917725 0.0 l -102.78339 0.0 l 50.515564 0.0 l -103.35565 0.0 l -51.917633 0.0 l -51.917694 0.0 l 0.0 -73.45276 l 0.0 -73.564026 l 0.0 -73.45282 l 0.0 -73.563995 l 0.0 -73.45279 l 0.0 -73.564026 l 0.0 -145.58041 l 0.0 71.69275 l 0.048706055 -146.72034 l -0.35791016 -73.34156 l -28.068237 -7.275958e-12 l -15.62381 0.0 l -55.30539 -1.8189894e-12 l 0.90753174 0.0 l 27.820953 1.8189894e-12 l -0.046447754 0.0 l -86.36966 5.456968e-12 l -0.90740967 -1.8189894e-12 l -27.825195 2.0008883e-11 l 0.045806885 1.8189894e-12 l -46.87346 3.6543497e-09 l 22.50177 -1.8517312e-09 l -22.947235 154.4 l 0.0 154.40001 l 0.0 154.4 l 0.0 154.39996 l 0.0 154.40002 l 0.0 154.39996 l 0.0 154.39996 l 0.0 154.40002 l 0.0 154.40002 l 0.0 154.40002 l 77.11745 0.0 l 77.11746 0.0 l 77.11746 0.0 l 77.11746 0.0 l 78.459045 0.0 l 75.210144 0.0 l 77.49951 0.0 l 77.11743 0.0 l 77.11755 0.0 l 77.126465 -42.522095 l -6.1035156e-05 1.8435059 l 0.0 17.469238 l 0.0 22.943237 l 6.1035156e-05 -125.44519 l 0.0 -0.80773926 l 0.0 -26.13916 l 0.0 0.041870117 l 6.1035156e-05 66.41333 l -6.1035156e-05 19.463013 " /> </g> </svg>