<?xml version="1.0" standalone="no"?><!DOCTYPE svg PUBLIC "-//W3C//DTD SVG 1.1//EN" "http://www.w3.org/Graphics/SVG/1.1/DTD/svg11.dtd" ><svg xmlns="http://www.w3.org/2000/svg" xmlns:xlink="http://www.w3.org/1999/xlink" version="1.1" viewBox="-10 0 692 1000"><g transform="matrix(1 0 0 -1 0 800)"><path stroke="black" fill="none" d="M 956.0 1325.0 l 0.0 0.0 l 0.0 0.0 l 0.0 0.0 l 0.0 42.38611 l 0.0 -19.775635 l -53.79303 -22.610718 l -53.805115 0.0 l -53.805176 0.0 l -53.805115 0.0 l -53.805054 0.0 l -107.29071 0.0 l 53.384033 0.0 l -107.469604 0.0 l -53.805084 0.0 l -53.805145 0.0 l 0.0 -37.099976 l 0.0 -37.099976 l 0.0 -37.100098 l 0.0 -37.099976 l 0.0 -37.099976 l 0.0 -37.099976 l 0.0 -37.099976 l 0.0 -37.100098 l 0.0 -37.099915 l 0.0 -37.100037 l 51.905212 0.0 l 103.50867 0.0 l -51.495544 0.0 l 103.66449 0.0 l 51.90509 0.0 l 51.905212 0.0 l 51.905212 0.0 l 51.90515 0.0 l 51.905212 0.0 l 51.891296 -1.4152222 l 0.0 -19.779114 l 0.00012207031 -22.551208 l 0.0045776367 -22.368713 l -0.0018920898 -21.198975 l -0.0028076172 -44.495422 l 0.0 -21.114197 l 0.0 43.35028 l -0.00048828125 -67.0426 l 0.00012207031 -19.778198 l -0.0022583008 -22.55371 l -102.83978 -0.05291748 l 50.61438 0.0 l -103.47363 0.0 l -51.905212 0.0 l -51.905212 0.0 l -103.5022 0.0 l 51.494507 0.0 l -103.66986 0.0 l -51.90515 0.0 l -51.905212 0.0 l 0.0 -73.486145 l 0.0 -73.5188 l 0.0 -73.486145 l 0.0 -73.51874 l 0.0 -73.486176 l 0.0 -73.51874 l 0.0 -146.58423 l 0.0 72.97067 l 0.014251709 -146.91809 l -0.10482788 -73.45359 l -24.696564 -1.8189894e-12 l -21.051697 0.0 l -65.625336 0.0 l 16.464539 0.0 l 24.901001 0.0 l -74.73743 1.8189894e-12 l -16.464386 0.0 l -24.90239 5.456968e-12 l -46.66667 1.0713848e-09 l 23.066208 -5.4205884e-10 l -23.196686 154.4 l 0.0 154.40001 l 0.0 154.4 l 0.0 154.39996 l 0.0 154.40002 l 0.0 154.39996 l 0.0 154.39996 l 0.0 154.40002 l 0.0 154.40002 l 0.0 154.40002 l 77.10512 0.0 l 77.1051 0.0 l 77.10513 0.0 l 77.1051 0.0 l 77.49805 0.0 l 76.54645 0.0 l 77.21704 0.0 l 77.1051 0.0 l 77.10516 0.0 l 77.10773 -43.42578 l 0.0 21.142212 l 0.0 22.205566 l 0.0 -114.170166 l 0.0 -15.37561 l 0.0 -23.488281 l 0.0 65.92114 l 0.0 21.18628 " /> </g> </svg>