<?xml version="1.0" standalone="no"?><!DOCTYPE svg PUBLIC "-//W3C//DTD SVG 1.1//EN" "http://www.w3.org/Graphics/SVG/1.1/DTD/svg11.dtd" ><svg xmlns="http://www.w3.org/2000/svg" xmlns:xlink="http://www.w3.org/1999/xlink" version="1.1" viewBox="-10 0 692 1000"><g transform="matrix(1 0 0 -1 0 800)"><path stroke="black" fill="none" d="M 1054.522 1265.5929 l 0.0 0.0 l -129.15161 24.768188 l -48.73004 -3.585083 l -76.80371 -24.801025 l 0.0 0.0 l -55.352783 136.16418 l 0.0 0.0 l -63.61316 -189.75403 l 0.0 0.0 l -11.185486 149.59656 l -54.040405 -21.602173 l -52.59796 -24.925415 l -51.155396 -28.248901 l -64.74603 33.311768 l 0.0 -37.099976 l 19.436188 -53.153687 l 0.0 0.0 l -19.436188 -21.046387 l -13.21582 -32.305786 l -24.925537 -47.565186 l 38.141357 -31.428955 l 141.94781 44.55127 l 0.0 0.0 l -224.54343 -85.23779 l 0.0 0.0 l 82.59561 -70.613464 l -1.3508606 -96.29993 l 0.0 0.0 l 45.703705 116.07025 l 0.0 0.0 l 59.447144 -56.87036 l 51.900024 0.0 l 51.900024 0.0 l 51.899963 0.0 l 51.900024 0.0 l 51.900024 0.0 l 51.899963 0.0 l 51.900024 0.0 l 567.878 184.807 l 0.0 0.0 l -515.978 -206.70697 l 0.0 -21.900024 l 0.0 -21.900024 l 0.0 -21.899963 l 0.0 -21.900024 l 51.197327 -40.114563 l 0.0 0.0 l 373.6883 165.94666 l 0.0 0.0 l -419.0511 -353.73126 l 0.0 0.0 l 197.37054 -44.018982 l 0.0 0.0 l 430.64 -85.37317 l 0.0 0.0 l -653.86163 218.19891 l -83.78345 29.592407 l -51.899963 0.0 l -51.900024 0.0 l -51.900024 0.0 l -51.899963 0.0 l -51.900024 0.0 l -51.900024 0.0 l -99.58728 0.19799805 l -20.863678 52.37146 l 0.0 0.0 l 14.058685 -136.5658 l 0.0 0.0 l 17.203156 -66.390015 l 0.0 0.0 l -98.34427 -174.64957 l 0.0 0.0 l 191.8822 13.370514 l 0.0 0.0 l 345.05353 -329.72327 l 0.0 0.0 l 493.55817 88.127716 l 0.0 0.0 l -919.69293 64.29523 l 0.0 0.0 l 251.97906 -14.070038 l 0.0 0.0 l 428.0957 70.45563 l 0.0 0.0 l -707.14233 -302.41983 l -23.299988 0.0 l -23.299988 0.0 l -23.300018 0.0 l -23.299988 0.0 l -23.300018 0.0 l -23.299988 0.0 l -23.300003 0.0 l -23.300003 0.0 l -23.299988 0.0 l -23.300003 0.0 l 0.0 154.4 l 0.0 154.40001 l 0.0 154.4 l 58.25853 132.74835 l 8.777649 151.3111 l 0.0 0.0 l 14.133728 170.62555 l 0.0 0.0 l -81.16991 162.91492 l 0.0 154.40002 l 0.0 154.40002 l 0.0 154.40002 l 77.09999 0.0 l 77.100006 0.0 l 77.100006 0.0 l 77.100006 0.0 l 77.099976 0.0 l 77.099976 0.0 l 77.10004 0.0 l 77.099976 0.0 l 34.54657 -86.162964 l 0.0 0.0 l 119.65344 86.162964 l 0.0 -21.900024 l 0.0 -21.900024 l 161.60974 -54.59485 l 0.0 0.0 l 143.48376 -51.870117 l 0.0 0.0 l -104.37195 -174.95667 l 0.0 0.0 l -200.72156 193.82166 l 0.0 -21.900024 l 0.0 -21.900024 l 0.0 -21.900024 l 0.0 -21.899902 " /> </g> </svg>