<?xml version="1.0" standalone="no"?><!DOCTYPE svg PUBLIC "-//W3C//DTD SVG 1.1//EN" "http://www.w3.org/Graphics/SVG/1.1/DTD/svg11.dtd" ><svg xmlns="http://www.w3.org/2000/svg" xmlns:xlink="http://www.w3.org/1999/xlink" version="1.1" viewBox="-10 0 692 1000"><g transform="matrix(1 0 0 -1 0 800)"><path stroke="black" fill="none" d="M 1093.3027 1251.7526 l -48.758667 17.69873 l -102.56671 20.242554 l 0.0 0.0 l 0.0 0.0 l 0.0 0.0 l 52.079285 -7.585449 l -146.67151 0.85266113 l 46.30139 5.0343018 l -91.61975 -13.516846 l -43.43927 -11.821655 l -0.65740967 167.96667 l -58.182983 -21.136597 l 16.9151 -162.05505 l -40.346375 -18.612915 l -38.64453 -21.921509 l 5.885498 176.73328 l -54.140015 -30.54834 l -52.100098 -35.24817 l -50.06021 -39.947754 l -48.019135 -44.652588 l 0.0 0.0 l 0.0 0.0 l 0.0 0.0 l -39.949005 -49.86035 l -35.248077 -51.89917 l 140.99347 -48.63025 l -24.724518 -37.136597 l 120.13486 135.78333 l -35.516663 -28.68689 l 0.0 0.0 l 0.0 0.0 l 0.0 0.0 l -31.529724 -34.03015 l -225.79285 -97.30994 l -21.105133 -57.89679 l 46.9823 113.953674 l 106.94116 -111.71216 l -14.941376 -42.465393 l -11.611725 -44.088684 l 44.817932 127.31018 l 892.4794 32.6593 l 0.0 0.0 l 0.0 0.0 l 0.0 0.0 l 16.527222 15.830322 l -55.328735 32.2146 l 154.87708 63.135864 l -16.780396 -16.072876 l -16.172974 -15.490845 l -49.605835 -47.514038 l 16.190796 15.508057 l 16.63623 15.93457 l -487.34186 -343.84314 l -0.0012207031 23.168762 l -6.1035156e-05 20.099548 l 48.782776 1.7947388 l 255.12347 0.004333496 l -63.6698 0.0 l -127.29309 0.0 l 63.361816 0.0 l 382.57385 -0.00018310547 l -63.355835 6.1035156e-05 l 127.6239 -0.013916016 l 63.662598 -6.2751465 l 0.0 0.19519043 l 0.0 5.1712036 l 0.0 -15.995911 l 0.0 0.0 l 0.0 -0.09448242 l 0.0 -11.877319 l 0.0 0.0 l 0.0 -21.255737 l 0.0 -0.52319336 l 0.0 0.0 l 0.0 13.963257 l 0.0 0.21429443 l -0.39990234 -48.031677 l 0.0028076172 0.24151611 l -318.5559 84.28204 l 63.669067 0.0 l -354.59094 -220.34949 l -38.41632 -0.00012207031 l -38.518433 21.49347 l -0.00012207031 -21.337708 l 356.9959 -91.56485 l -13.740723 -27.755219 l 25.642822 57.59552 l -60.19226 61.56787 l 37.603394 0.00018310547 l 38.553345 -0.5621338 l -6.6636963 -30.471924 l -108.92786 31.034424 l -38.957886 0.0 l -37.583984 0.0 l -38.93347 0.0 l -38.2146 0.0 l 470.13086 -254.62091 l -15.0373535 -22.551147 l -33.62451 -44.51773 l 0.0 0.0 l 0.0 0.0 l 0.0 3.0517578e-05 l 17.28247 21.994232 l 45.630615 68.45361 l 12.6345215 22.791779 l 40.989258 96.96283 l 0.0 0.0 l -0.00048828125 -0.001373291 l -0.030273438 -0.0871582 l -8.280151 -23.86084 l -10.528442 -26.42337 l -9.867676 -22.03122 l 42.157227 131.01395 l 4.896118 27.189148 l -11.300537 -57.450073 l 24.4104 182.49182 l -1.8898926 -30.246521 l -3.1254883 -34.42047 l -3.3919678 -28.682617 l -676.6359 147.1311 l 0.0 -22.137695 l 0.0 -21.32721 l 0.0 -22.235596 l 0.0 -22.13739 l 0.0 -21.328064 l -522.2092 59.051147 l -5.511261 48.528442 l 3.1179504 98.227234 l -4.9775085 -47.455994 l 0.0 0.0 l 0.0 0.0 l 0.0 0.0 l 16.650421 -146.6095 l 12.946808 -45.220093 l 36.99774 -84.99988 l -20.337097 41.56372 l -142.47641 -80.374084 l 25.35791 -55.346466 l 30.032013 -53.58676 l 131.4924 107.944336 l 27.731659 -37.924896 l 111.236145 -324.8379 l 54.772827 -25.807991 l 56.037415 -20.91354 l 118.523926 -28.113102 l -60.07611 11.687202 l 623.5333 172.51788 l -46.41687 -41.05728 l -153.53894 -94.387566 l 53.709595 26.740234 l 50.83374 31.24096 l -933.11676 171.11423 l 39.18976 -49.718292 l 43.906555 -47.961227 l 0.0 0.0 l 0.0 0.0 l 0.0 0.0 l 49.2547 -39.96231 l 50.496216 -34.855927 l 7.9415283 228.77681 l -34.83252 29.401459 l 0.0 0.0 l 0.0 0.0 l 0.0 0.0 l 105.7735 -78.6384 l -35.195618 22.698822 l 72.23035 -43.12732 l 112.8761 -41.768524 l -39.850403 11.452118 l -34.818726 12.852539 l 153.92615 -36.917435 l 0.0 0.0 l 0.0020751953 7.6293945e-05 l 0.2142334 0.007522583 l 32.72522 1.1163788 l -72.064026 3.4966125 l 76.42029 -221.771 l 62.768494 -2.3012905 l 0.0 0.0 l 0.0 1.9073486e-06 l -0.00018310547 5.722046e-06 l 62.664673 7.248564 l 61.080444 12.200111 l 57.8031 16.821499 l -120.27673 211.56279 l -28.737305 -9.601501 l 62.9209 23.878296 l 27.455933 13.869659 l -123.56549 -46.193054 l -31.860535 -5.659897 l 186.90942 70.75322 l 26.725586 18.521576 l 0.0 0.0 l -0.00024414062 -0.00021362305 l -0.0041503906 -0.0028686523 l 25.868774 23.596222 l 25.401367 26.619965 l 19.691528 23.701141 l 19.047485 26.730225 l -973.0581 91.427734 l -16.136444 59.097412 l -11.558823 61.141235 l -6.9287567 62.967773 l 0.0 0.0 l 0.0 0.0 l 0.0 0.0 l 2.3517303 66.196106 l 7.109604 64.447876 l 11.668976 61.671814 l 610.47046 555.45917 l -62.26013 -11.742554 l 162.39014 18.061646 l -35.76068 0.7359619 l 0.0 0.0 l 0.0 0.0 l 0.0 0.0 l 140.85364 -11.825317 l -36.490723 5.3845215 l -32.23871 3.4083252 l 234.23615 -56.907837 l 0.0 0.0 l 0.0 0.0 l 0.0 0.0 l 30.484863 -16.035034 l 29.13269 -17.137817 l 30.089233 -19.620117 l 29.427246 -21.080322 l -250.307 115.26782 l 33.320557 -8.081909 l 33.306274 -9.691895 l 32.35547 -11.016724 l 264.98962 -252.07397 l 16.475342 15.781128 l -12.342407 46.22632 l 28.954712 -30.22583 l -87.53198 85.62695 l 29.1333 -26.562378 l -58.716797 51.605103 l -128.21301 -178.55762 l -42.0636 37.872314 l -44.065308 33.05127 l -45.1532 27.636108 " /> </g> </svg>