<?xml version="1.0" standalone="no"?><!DOCTYPE svg PUBLIC "-//W3C//DTD SVG 1.1//EN" "http://www.w3.org/Graphics/SVG/1.1/DTD/svg11.dtd" ><svg xmlns="http://www.w3.org/2000/svg" xmlns:xlink="http://www.w3.org/1999/xlink" version="1.1" viewBox="-10 0 692 1000"><g transform="matrix(1 0 0 -1 0 800)"><path stroke="black" fill="none" d="M 1093.0245 1251.8518 l -47.546875 17.26001 l -102.6781 20.32019 l 0.0 0.0 l 0.0040893555 -0.00061035156 l 0.836853 -0.12219238 l 49.89746 -7.267578 l -135.8659 1.7340088 l 33.54962 3.6463623 l -89.28125 -13.390259 l -42.246277 -11.499512 l -2.1085815 167.44739 l -56.748047 -20.61206 l 15.562805 -162.64075 l -41.756165 -19.501465 l -35.329468 -20.04065 l 4.932129 176.08301 l -54.139282 -30.484253 l -52.103638 -35.17395 l -50.068054 -39.86389 l -47.986725 -44.751465 l 0.0 0.0 l 0.0 0.0 l 0.0 0.0 l -39.909637 -49.874756 l -35.17401 -51.868042 l 135.69714 -56.399292 l -17.916107 -26.915894 l 116.44571 131.64417 l -0.5282593 -0.4276123 l -32.87085 -26.545288 l 0.0 0.0 l 0.00091552734 0.0007324219 l -31.182617 -33.68933 l -227.45609 -101.18683 l -19.364075 -53.11682 l 46.295013 112.15387 l 106.9877 -111.01892 l -14.995056 -43.450684 l -11.29071 -42.87268 l 44.737793 126.928894 l 892.7523 32.915466 l 0.0 0.0 l 0.016601562 0.015991211 l 13.390503 12.828491 l -51.40149 33.940674 l 0.15661621 -0.13757324 l 148.7898 59.625244 l -23.782837 -22.779907 l -0.56140137 -0.5378418 l -41.114014 -39.38025 l 0.7657471 0.73339844 l 17.589722 16.848145 l -485.08508 -338.5349 l 0.00036621094 0.018432617 l -0.020019531 34.765198 l 0.0 0.0 l 47.695007 6.906128 l 252.15643 0.17193604 l -58.61914 0.0 l -115.38782 -0.00018310547 l 46.363037 0.0 l 373.79773 -0.0064697266 l -46.12256 0.0010986328 l 128.55676 -0.55267334 l 0.030639648 -0.0031738281 l 58.296143 -22.56543 l 0.0 0.0 l -0.28979492 -50.755005 l 0.0 0.0 l -316.83704 73.881775 l 0.3876953 6.1035156e-05 l 58.195312 0.0 l -353.84967 -220.3313 l -35.168396 -0.0038452148 l -39.23462 5.7215576 l -0.0017089844 -0.7840576 l 347.14014 -116.09769 l -0.49121094 -1.0098572 l 21.39624 48.708862 l -31.956299 63.42462 l 2.821289 0.0056762695 l 40.61963 -22.371338 l -0.25256348 -1.6055908 l -118.89197 23.992737 l -56.72693 0.0 l -2.0924072 0.0 l -55.70276 0.0 l -27.13916 0.0 l 463.56567 -259.69904 l -10.663208 -15.999756 l -34.27588 -45.59366 l 0.0 0.0 l 0.020385742 0.025909424 l 14.341553 18.252808 l 52.448975 79.51907 l 0.0 0.0 l 0.5822754 1.0722046 l 45.98535 102.93976 l 0.0 0.0 l -21.417847 -53.8179 l 0.0 0.0 l 39.864136 133.57477 l 0.0 0.0 l -6.1171875 -31.316162 l 19.671753 136.34796 l 0.0 0.0 l -4.777588 -46.53247 l 0.0 0.0 l -677.96405 127.96301 l 0.0 -31.359497 l 0.0 -0.69781494 l 0.0 -33.66223 l 0.0 -31.345642 l 0.0 -0.7046509 l -523.3413 64.153564 l -4.0087585 35.273926 l 2.6508484 100.449036 l -4.880615 -46.521423 l 0.0 0.0 l 0.0 6.1035156e-05 l 0.0 0.0 l 16.666626 -146.59308 l 12.822601 -44.836914 l 36.910522 -84.99338 l -19.83667 40.542572 l -141.17447 -83.2471 l 23.337372 -50.940918 l 30.110016 -53.850494 l 132.36285 106.56073 l 27.018768 -36.950836 l 114.965515 -326.69583 l 62.643555 -28.445763 l 40.80487 -15.231125 l 121.77875 -29.397455 l -0.034606934 0.009256363 l -57.17206 11.181351 l 619.7848 171.65994 l -0.25317383 -0.21282959 l -42.54956 -37.635254 l -152.33813 -94.68132 l 60.67932 31.40538 l 37.009277 22.742447 l -927.17017 170.11511 l 36.07669 -45.77179 l 44.599335 -48.824112 l 0.0 0.0 l 0.0009765625 -0.0007324219 l 0.04510498 -0.03413391 l 59.4256 -46.962585 l 36.77289 -25.385666 l 9.165649 228.26454 l -32.58612 27.504364 l 0.0 0.0 l 0.00018310547 -0.00018310547 l 0.0017700195 -0.0014648438 l 81.05902 -62.653778 l -2.0654907 1.3241272 l 54.803467 -32.557373 l 93.71167 -38.607056 l -34.36023 11.724091 l 0.0 0.0 l 146.04956 -32.24489 l 0.0 0.0 l -25.596313 3.1317444 l 101.26306 -222.19817 l 16.303955 -0.65060425 l 0.0 0.0 l 57.644897 6.6562424 l 81.65466 16.084452 l 42.02112 12.223629 l -132.51648 207.79044 l 0.0 0.0 l 66.11328 27.577148 l 0.0 0.0 l -134.52734 -44.7153 l -1.4727783 -0.2661438 l 206.76196 88.715576 l 0.0 0.0 l 12.002686 12.087769 l 60.32556 64.26932 l 0.0 0.0 l 7.3240967 10.892853 l -964.4516 107.63461 l -14.835663 54.342896 l -11.900406 62.740173 l -6.8787537 62.475586 l 0.0 0.0 l 3.0517578e-05 -0.00024414062 l 2.4171753 66.83905 l 9.422501 76.39398 l 8.5252075 45.05896 l 610.1024 559.3051 l -60.71472 -11.453613 l 154.2456 18.125732 l -27.834229 0.5748291 l 0.0 0.0 l 0.006286621 0.0 l 136.5315 -11.25293 l -0.02368164 0.0032958984 l -56.60791 7.3513184 l 0.0 0.0 l 226.91907 -56.39148 l 0.0 0.0 l 0.059936523 -0.032104492 l 50.53601 -27.883911 l 1.4333496 -0.8405762 l 43.11841 -28.07605 l 20.788574 -14.888428 l -240.49365 111.693726 l 24.029419 -5.826294 l 42.08545 -12.484253 l 22.866943 -7.784546 l 269.63147 -251.0658 l 0.045898438 0.046020508 l 11.595825 11.125244 l -4.2928467 41.8136 l 21.380737 -21.91211 l -79.07263 78.90674 l 20.722534 -18.891968 l -55.48462 48.704224 l -131.82495 -175.3695 l -38.711304 34.86316 l -53.970215 39.307495 l -32.859863 20.112427 " /> </g> </svg>