<?xml version="1.0" standalone="no"?><!DOCTYPE svg PUBLIC "-//W3C//DTD SVG 1.1//EN" "http://www.w3.org/Graphics/SVG/1.1/DTD/svg11.dtd" ><svg xmlns="http://www.w3.org/2000/svg" xmlns:xlink="http://www.w3.org/1999/xlink" version="1.1" viewBox="-10 0 692 1000"><g transform="matrix(1 0 0 -1 0 800)"><path stroke="black" fill="none" d="M 1089.9824 1252.9375 l -34.30005 12.464233 l -85.25726 18.447754 l 0.0 0.0 l 17.442383 -2.5368652 l -99.73248 2.6550293 l 0.0 0.0 l -87.5766 -14.819336 l -29.204712 -7.977661 l -17.972351 161.7721 l -41.061768 -14.880371 l 0.7803955 -169.04224 l -57.16815 -29.214722 l -1.0861816 -0.61413574 l -3.493225 170.1084 l -54.13147 -29.78247 l -52.1427 -34.364258 l -50.15399 -38.946167 l -47.64447 -45.82263 l 0.0 0.0 l -9.1552734e-05 0.0 l -0.00045776367 0.00048828125 l -39.46643 -50.041992 l -34.36429 -51.528076 l 120.015594 -77.20361 l 0.0 0.0 l 90.41388 107.086914 l 0.0 0.0 l -3.574646 -2.873169 l -34.055115 -35.31958 l -245.63754 -143.56696 l -0.6560364 -1.7601318 l 39.10617 93.37494 l 107.49646 -103.44037 l -15.581879 -54.221558 l -7.781616 -29.579956 l 43.861908 122.760864 l 0.0077819824 0.009216309 l 896.19543 36.389526 l 0.0 0.0 l -29.637451 32.331177 l 0.0 0.0 l 111.78198 46.10791 l 0.0 0.0 l -28.068604 -26.88379 l 0.0 0.0 l -471.4261 -296.32068 l 0.0 0.0 l 28.63556 3.4262695 l 219.72241 2.0046387 l -3.4621582 -0.0006713867 l -87.87927 -0.0012207031 l 0.0 0.0 l 356.4707 -0.21057129 l 0.0 0.0 l 165.5232 -44.423218 l 0.0 0.0 l -297.14258 44.634705 l 0.0 0.0 l 3.076294 0.00036621094 l -345.74664 -220.13208 l -1.3651733 -0.03479004 l -43.94635 4.7070312 l 373.94025 -43.49341 l 0.0 0.0 l -19.323608 32.909668 l 0.0 0.0 l -148.7937 5.69104 l 0.0 0.0 l -72.66345 -0.00024414062 l 0.0 0.0 l 430.04626 -284.78122 l 0.0 0.0 l -23.223389 -31.083649 l 0.0 0.0 l 87.47864 143.60022 l 0.0 0.0 l 52.166748 222.92236 l 0.0 0.0 l -681.1993 74.461365 l 0.0 0.0 l 0.0 -71.42267 l 0.0 0.0 l -526.0842 87.810425 l 0.0 0.0 l 0.3279724 97.14026 l -3.7962341 -36.076538 l 0.0 0.0 l 0.0005187988 0.004699707 l 16.818237 -146.64557 l 11.464996 -40.6485 l -0.0047302246 0.01763916 l 35.96176 -84.94037 l -0.031677246 0.066223145 l -14.334625 29.313782 l -126.94208 -114.65341 l 1.2888184 -2.8667908 l 30.923615 -56.648193 l 141.87823 91.43564 l 19.2258 -26.302734 l 155.73297 -347.0061 l 49.21295 -19.876144 l 0.0 0.0 l 131.1192 -33.95553 l 0.0 0.0 l -25.84021 5.7620544 l 578.8133 162.28699 l 0.0 0.0 l -3.300171 -2.772232 l -139.21094 -97.89263 l 46.065674 26.884933 l 0.0 0.0 l -885.4752 144.55148 l 2.0841064 -2.67807 l 58.60916 -63.11197 l 0.0 0.0 l 74.4588 -56.425858 l 0.0 0.0 l -0.4713745 238.22997 l -6.0046997 5.059784 l 0.0 0.0 l 150.48859 -99.37741 l 0.0 0.0 l 164.00867 -49.142044 l 0.0 0.0 l 125.9823 -221.31929 l 0.0 0.0 l 149.36182 28.957937 l 0.0 0.0 l -189.83899 195.4777 l 0.0 0.0 l 188.67346 77.778076 l 0.0 0.0 l -869.837 245.3771 l -0.6748047 2.5825195 l -15.575424 80.00525 l -0.002105713 0.020812988 l -6.0561523 54.83142 l 2.8590546 76.10724 l 0.0029754639 0.02746582 l 15.164108 103.472046 l 0.0 0.0 l 599.7772 568.286 l -43.820618 -8.294922 l 126.03491 17.521973 l 0.0 0.0 l 82.260864 -4.7976074 l 0.0 0.0 l 235.52832 -63.744507 l 0.0 0.0 l 88.19299 -55.056885 l 0.0 0.0 l -197.31055 95.688965 l 0.0 0.0 l 47.32544 -14.88147 l 0.0 0.0 l 305.86047 -226.47974 l 0.0 0.0 l -22.958496 -21.916016 l 0.0 0.0 l -44.690796 96.263794 l 0.0 0.0 l -33.394287 29.403442 l -171.30872 -140.51782 l -2.1573486 2.050537 l -84.89563 60.261963 l 0.0 0.0 " /> </g> </svg>