<?xml version="1.0" standalone="no"?><!DOCTYPE svg PUBLIC "-//W3C//DTD SVG 1.1//EN" "http://www.w3.org/Graphics/SVG/1.1/DTD/svg11.dtd" ><svg xmlns="http://www.w3.org/2000/svg" xmlns:xlink="http://www.w3.org/1999/xlink" version="1.1" viewBox="-10 0 692 1000"><g transform="matrix(1 0 0 -1 0 800)"><path stroke="black" fill="none" d="M 1092.3353 1252.0978 l -44.5459 16.173584 l -101.723755 20.332886 l 0.0 0.0 l 0.22943115 -0.033447266 l 45.958252 -6.694336 l -109.10663 3.916748 l 2.140808 0.22766113 l -83.66022 -13.095459 l -39.29181 -10.70166 l -5.7023926 166.16174 l -53.194458 -19.313599 l 12.213989 -164.09094 l -45.24762 -21.701904 l -27.119873 -15.383057 l 2.57135 174.47278 l -54.137512 -30.325317 l -52.112488 -34.99048 l -50.087524 -39.656006 l -47.907227 -44.995728 l 0.0 0.0 l 0.0 0.0 l -3.0517578e-05 0.0 l -39.81128 -49.91089 l -34.99057 -51.791016 l 122.58118 -75.638794 l -1.157898 -1.7583008 l 107.41211 121.54712 l -0.03479004 -0.028198242 l -27.679565 -22.346313 l 0.0 0.0 l -30.760681 -33.196655 l -231.57489 -110.78766 l -15.052551 -41.27948 l 44.59305 107.69678 l 107.10297 -109.302124 l -15.127991 -45.890747 l -10.495758 -39.86133 l 44.539368 125.98468 l 895.8761 35.898865 l 0.0 0.0 l 3.2322998 3.1011963 l -41.675415 38.21521 l 0.017578125 -0.015380859 l 134.24158 50.46814 l -10.775269 -10.320801 l 0.0 0.0 l -36.541992 -35.000977 l 0.0 0.0 l 6.7263184 6.442749 l -479.49664 -325.38916 l 0.0 0.0 l 0.29278564 18.674805 l 44.64325 14.661072 l 244.80878 0.5871582 l -46.111572 -0.00018310547 l -85.90527 -0.00061035156 l 4.2684326 0.0 l 352.0625 -0.022094727 l -3.4562988 0.00390625 l 130.87769 -1.887085 l 0.0 0.0 l 44.999634 -42.727356 l 0.0 0.0 l -312.49097 44.63318 l 0.036254883 0.0 l 45.95166 6.1035156e-05 l -352.01398 -220.28613 l -27.125183 -0.013122559 l -40.918945 4.9039307 l 0.0 0.0 l 349.8562 -108.96237 l 0.0 0.0 l 15.981934 35.91086 l -15.102295 67.913086 l 0.0 0.0 l 23.910278 -22.036499 l 0.0 0.0 l -136.36047 22.219543 l -32.908936 0.0 l 0.0 0.0 l -79.25256 0.0 l -1.1431885 0.0 l 448.73914 -272.27472 l -0.57922363 -0.8911438 l -32.585938 -43.88971 l 0.0 0.0 l 4.574585 5.824585 l 73.71655 116.11948 l 0.0 0.0 l 31.395752 74.79526 l 0.0 0.0 l 13.236816 54.33554 l 0.0 0.0 l 17.64624 116.92078 l 0.0 0.0 l -681.2597 79.95087 l 0.0 -13.809143 l 0.0 0.0 l 0.0 -51.957703 l 0.0 -13.88678 l 0.0 0.0 l -526.14484 86.89484 l -0.29608154 2.5231934 l 1.5022583 105.87799 l -4.6390076 -44.191895 l 0.0 0.0 l 3.0517578e-05 0.00024414062 l 0.00015258789 0.0014038086 l 16.704956 -146.56885 l 12.515045 -43.88806 l -0.033935547 0.12646484 l 36.728455 -85.10385 l -0.22763062 0.4761963 l -18.369781 37.537567 l -137.95026 -90.36188 l 18.333618 -40.030945 l 30.303192 -54.50351 l 134.5185 103.13428 l 25.253326 -34.538605 l 124.20099 -331.29694 l 82.13483 -34.978035 l 3.0964355 -1.1641846 l 129.82538 -32.572872 l -0.0087890625 0.0023612976 l -50.092102 9.958454 l 610.50165 169.5353 l -0.022827148 -0.019165039 l -33.829468 -29.881516 l -149.36438 -95.40882 l 77.93909 42.958336 l 2.788208 1.7049408 l -912.45795 167.6323 l 28.367462 -35.998505 l 46.74231 -51.284622 l 0.0 0.0 l 0.037994385 -0.028762817 l 84.30817 -64.06714 l 2.7977905 -1.9401093 l 12.187073 227.00291 l -26.889465 22.693695 l 0.0 0.0 l 0.005065918 -0.0042419434 l 84.10864 -64.2251 l 0.0 0.0 l 27.240662 -16.723206 l 87.74164 -40.890656 l 0.0 0.0 l 129.03516 -30.341888 l 0.0 0.0 l 108.363525 -220.11647 l 0.0 0.0 l 30.254456 5.2819424 l 132.60559 25.703775 l 2.9620361 0.84440994 l -58.343384 237.62613 l 0.0 0.0 l -129.49384 -43.315277 l 0.0 0.0 l 202.49396 87.986115 l 0.0 0.0 l 71.38269 75.571106 l 0.0 0.0 l -958.9734 127.95581 l -11.614258 42.568665 l -12.746338 66.69983 l -0.016998291 0.16870117 l -6.7198486 60.93988 l 0.0 0.0 l 2.5612793 68.57849 l 0.0309906 0.28601074 l 15.119247 105.69171 l 0.740448 3.9215088 l 609.1904 568.8262 l -56.887512 -10.738037 l 134.07611 18.284546 l -6.5997925 0.14147949 l 0.0 0.0 l 124.24463 -9.801147 l 0.0 0.0 l -38.612427 4.8356934 l 226.15173 -59.052002 l 0.0 0.0 l 41.17517 -22.883057 l 0.0 0.0 l 62.034058 -41.05713 l 0.83813477 -0.5928955 l -217.63428 103.88074 l 1.5228271 -0.36242676 l 63.324097 -19.2771 l 0.97265625 -0.32788086 l 278.56885 -248.9054 l 0.0 0.0 l 0.62597656 0.6390381 l 15.6414795 30.885986 l 2.6396484 -1.3428955 l -58.13855 62.28357 l 0.8787842 -0.7965088 l -48.4657 42.420044 l -140.76965 -167.47424 l -30.409424 27.411255 l -78.49927 54.800415 l -2.4476318 1.5001221 " /> </g> </svg>