<?xml version="1.0" standalone="no"?><!DOCTYPE svg PUBLIC "-//W3C//DTD SVG 1.1//EN" "http://www.w3.org/Graphics/SVG/1.1/DTD/svg11.dtd" ><svg xmlns="http://www.w3.org/2000/svg" xmlns:xlink="http://www.w3.org/1999/xlink" version="1.1" viewBox="-10 0 692 1000"><g transform="matrix(1 0 0 -1 0 800)"><path stroke="black" fill="none" d="M 1093.3079 1251.7507 l -48.78723 17.708984 l -102.56067 20.240234 l 0.0 0.0 l 0.0 0.0 l 0.0 0.0 l 52.10742 -7.5895996 l -146.92615 0.8319092 l 46.601807 5.0670166 l -91.674805 -13.519775 l -43.467407 -11.829224 l -0.62316895 167.97888 l -58.216797 -21.148926 l 16.94696 -162.04126 l -40.31311 -18.592041 l -38.722656 -21.965698 l 5.907898 176.74854 l -54.140015 -30.549927 l -52.099976 -35.249878 l -50.060028 -39.949707 l -48.019928 -44.65027 l 0.0 0.0 l 0.0 0.0 l 0.0 0.0 l -39.94992 -49.859985 l -35.249847 -51.900024 l 141.11829 -48.44702 l -24.884949 -37.37744 l 120.2218 135.88086 l -35.56537 -28.726318 l 0.0 0.0 l 0.0 0.0 l 0.0 0.0 l -31.539124 -34.039185 l -225.75366 -97.21863 l -21.146149 -58.0094 l 46.998474 113.99609 l 106.94006 -111.728516 l -14.9401245 -42.4422 l -11.619263 -44.11731 l 44.819824 127.31915 l 892.47986 32.659912 l 0.0 0.0 l 0.0 0.0 l 0.0 0.0 l 16.593872 15.894043 l -55.421387 32.17383 l 155.01697 63.221924 l -16.615479 -15.914795 l -16.563477 -15.86499 l -49.783325 -47.68396 l 16.564941 15.866455 l 16.603027 15.902832 l -487.39496 -343.96826 l -6.1035156e-05 22.00885 l -6.1035156e-05 21.745605 l 48.80768 1.3881226 l 255.19336 0.00036621094 l -63.788696 0.0 l -127.57373 0.0 l 63.76233 0.0 l 382.78076 0.0 l -63.761963 0.0 l 127.60205 -0.0012207031 l 63.788208 -9.863281 l 0.0 4.5928345 l 0.0 5.192505 l 0.0 -15.485168 l 0.0 -0.3920288 l 0.0 -4.1497803 l 0.0 -6.473633 l 0.0 -3.4764404 l 0.0 -16.208069 l 0.0 -4.730835 l 0.0 -0.0009765625 l 0.0 0.0 l 0.0 0.00012207031 l 0.0 10.54718 l 0.0 4.59906 l -0.4091797 -49.475098 l -318.5868 85.32483 l 63.78882 0.0 l -354.6084 -220.34991 l -38.49286 0.0 l -38.501526 21.865051 l -6.1035156e-05 -21.851746 l 357.2282 -90.95703 l -14.060059 -28.399536 l 25.75 57.81903 l -60.857666 61.52411 l 38.423096 0.0 l 38.50464 -0.048217773 l -6.815674 -31.155823 l -108.69226 31.204102 l -38.539307 0.0 l -38.421387 0.0 l -38.53723 0.0 l -38.475464 0.0 l 470.28552 -254.50125 l -15.140381 -22.705505 l -33.60205 -44.483276 l 0.0 0.0 l 0.0 0.0 l 0.0 0.0 l 17.344238 22.072693 l 45.465576 68.18518 l 12.922852 23.311249 l 40.81726 96.67062 l 0.0 0.0 l 0.0 0.0 l 0.0 -3.0517578e-05 l -8.530518 -24.583649 l -9.725342 -24.500458 l -10.674316 -23.831116 l 42.077515 129.86761 l 5.2927246 29.393127 l -11.4646 -58.31848 l 24.58374 184.60199 l -2.036377 -32.580933 l -2.8918457 -32.20764 l -3.6644287 -30.98407 l -676.56647 147.87976 l 0.0 -21.92041 l 0.0 -21.85083 l 0.0 -21.928833 l 0.0 -21.92035 l 0.0 -21.850891 l -522.1825 58.967773 l -5.5466614 48.84076 l 3.1289673 98.174866 l -4.9797974 -47.477966 l 0.0 0.0 l 0.0 0.0 l 0.0 0.0 l 16.650024 -146.60992 l 12.949738 -45.229126 l 36.999817 -85.0 l -20.348907 41.58777 l -142.50708 -80.3064 l 25.405518 -55.450287 l 30.030182 -53.580566 l 131.4719 107.97696 l 27.748474 -37.947845 l 111.148254 -324.79413 l 54.587402 -25.745842 l 56.3963 -21.047432 l 118.447205 -28.082836 l -60.143677 11.698902 l 623.62164 172.53809 l -46.501953 -41.132904 l -153.56738 -94.38064 l 53.54541 26.63031 l 51.159424 31.441216 l -933.25684 171.13779 l 39.263123 -49.81128 l 43.89142 -47.94182 l 0.0 0.0 l 0.0 0.0 l 0.0 0.0 l 49.012726 -39.79564 l 50.81964 -35.07907 l 7.9126587 228.78885 l -34.88507 29.445862 l 0.0 0.0 l 0.0 0.0 l 0.0 0.0 l 106.35541 -79.01468 l -35.976685 23.202728 l 72.64142 -43.376648 l 113.32764 -41.843002 l -38.49701 10.901688 l -37.535095 13.855835 l 154.5747 -37.175903 l 0.0 0.0 l 0.0 0.0 l 6.1035156e-05 0.0 l 33.958862 1.1570587 l -73.44989 3.4905548 l 75.8349 -221.76094 l 63.775757 -2.336687 l 0.0 0.0 l 0.0 0.0 l 0.0 0.0 l 62.870422 7.2590294 l 60.59558 12.108589 l 58.17505 16.929836 l -118.67078 212.09961 l -31.034424 -10.368042 l 61.89624 23.258179 l 29.644531 14.976166 l -123.597046 -46.382248 l -32.582275 -5.787979 l 185.52954 69.698944 l 28.302979 19.617859 l 0.0 0.0 l 0.0 0.0 l 0.0 0.0 l 26.161133 23.836426 l 23.909912 24.937836 l 21.207764 25.528534 l 18.940063 26.629456 l -973.261 91.04587 l -16.167114 59.20941 l -11.550766 61.103577 l -6.929886 62.978943 l 0.0 0.0 l 0.0 0.0 l 0.0 0.0 l 2.3501434 66.1814 l 7.05513 64.16638 l 11.743042 62.063293 l 610.4791 555.3684 l -62.29657 -11.749268 l 162.58203 18.06018 l -35.942932 0.739624 l 0.0 0.0 l 0.0 0.0 l 0.0 0.0 l 140.9508 -11.838745 l -34.688965 5.19751 l -34.763123 3.6750488 l 234.86127 -56.973877 l 0.0 0.0 l 0.0 0.0 l 0.0 0.0 l 29.99585 -15.74707 l 29.788574 -17.523682 l 29.779053 -19.418945 l 29.63086 -21.226196 l -250.53821 115.35205 l 33.53943 -8.13501 l 33.099365 -9.626221 l 32.5791 -11.092773 l 264.88025 -252.09778 l 16.589233 15.889648 l -12.5321045 46.330322 l 29.133179 -30.42163 l -87.73132 85.78516 l 29.331543 -26.743042 l -58.79297 51.673584 l -128.12793 -178.63281 l -42.14258 37.943237 l -43.83191 32.90381 l -45.44287 27.813354 " /> </g> </svg>