<?xml version="1.0" standalone="no"?><!DOCTYPE svg PUBLIC "-//W3C//DTD SVG 1.1//EN" "http://www.w3.org/Graphics/SVG/1.1/DTD/svg11.dtd" ><svg xmlns="http://www.w3.org/2000/svg" xmlns:xlink="http://www.w3.org/1999/xlink" version="1.1" viewBox="-10 0 692 1000"><g transform="matrix(1 0 0 -1 0 800)"><path stroke="black" fill="none" d="M 1093.2854 1251.7587 l -48.683228 17.671387 l -102.58203 20.248657 l 0.0 0.0 l 0.0 0.0 l 6.1035156e-05 0.0 l 52.00409 -7.574585 l -145.99915 0.9074707 l 45.507935 4.947998 l -91.47424 -13.508911 l -43.36505 -11.801636 l -0.74768066 167.93433 l -58.09369 -21.103882 l 16.830933 -162.09155 l -40.434082 -18.668213 l -38.438232 -21.804443 l 5.826172 176.69275 l -54.139954 -30.544312 l -52.10034 -35.24353 l -50.0607 -39.942627 l -48.01712 -44.65869 l 0.0 0.0 l 0.0 0.0 l 0.0 0.0 l -39.946564 -49.861206 l -35.24347 -51.89734 l 140.66391 -49.113525 l -24.300873 -36.500732 l 119.905304 135.52588 l -35.38794 -28.582642 l 0.0 0.0 l 0.0 0.0 l 6.1035156e-05 0.0 l -31.505127 -34.00659 l -225.8963 -97.55115 l -20.996796 -57.599365 l 46.939514 113.841675 l 106.94406 -111.66901 l -14.944702 -42.526733 l -11.591766 -44.013 l 44.812958 127.2865 l 892.47986 32.6593 l 0.0 0.0 l 0.0 0.00012207031 l 0.00012207031 0.00012207031 l 16.349487 15.660156 l -55.08435 32.32202 l 154.50806 62.908936 l -17.216187 -16.490234 l -15.141602 -14.503052 l -49.13733 -47.065308 l 15.203003 14.56189 l 16.72351 16.01831 l -487.20142 -343.51294 l -0.0040893555 26.23175 l -0.00024414062 15.75293 l 48.71698 2.8685303 l 254.93884 0.014709473 l -63.35547 0.0 l -126.55237 0.0 l 62.304077 0.0 l 382.02783 -0.0005493164 l -62.28357 0.00012207031 l 127.68201 -0.047424316 l 63.330566 -4.387512 l 0.0 0.0 l 0.0 1.3015137 l 0.0 -18.722473 l 0.0 0.0 l 0.0 -1.1414185 l 0.0 -27.114868 l 0.0 0.0 l 0.0 17.408997 l 0.0 0.0 l -0.37548828 -49.70404 l 0.00024414062 0.02557373 l -318.4641 82.38208 l 63.35254 0.0 l -354.5448 -220.34833 l -38.214233 -0.00036621094 l -38.56299 20.512085 l -0.00024414062 -19.980347 l 356.3827 -93.1698 l -12.897705 -26.053802 l 25.359985 57.00534 l -58.435303 61.68341 l 35.43872 0.00048828125 l 38.682373 -1.9191895 l -6.262451 -28.665771 l -109.55017 30.586304 l -40.0636 0.0 l -35.372314 0.0 l -39.980225 0.0 l -37.52539 0.0 l 469.7223 -254.93689 l -14.765137 -22.143494 l -33.682373 -44.60672 l 0.0 0.0 l 0.0 6.1035156e-05 l 0.00012207031 0.00015258789 l 17.118042 21.784882 l 46.066162 69.16254 l 0.13244629 0.24349976 l 11.740845 21.176422 l 41.33911 97.43469 l 0.0 0.0 l -0.01965332 -0.056488037 l -7.6070557 -21.91803 l -12.649048 -31.501343 l -7.737549 -17.278137 l 42.36743 134.04114 l 3.848999 21.369019 l -10.867676 -55.15689 l 23.953003 176.9194 l -1.5031738 -24.081848 l -3.7425537 -40.2641 l -2.6723633 -22.605042 l -676.8194 145.15411 l 0.0 -22.711548 l 0.0 -19.944397 l 0.0 -23.045715 l 0.0 -22.710388 l 0.0 -19.94751 l -522.27966 59.271362 l -5.4177856 47.703674 l 3.0888977 98.36548 l -4.9714966 -47.39795 l 0.0 0.0 l 0.0 0.0 l 0.0 0.0 l 16.651428 -146.6084 l 12.939087 -45.196228 l 36.99234 -84.99945 l -20.30597 41.500183 l -142.39542 -80.55286 l 25.232208 -55.072327 l 30.036835 -53.60318 l 131.5466 107.858246 l 27.687286 -37.86429 l 111.4682 -324.9535 l 55.262573 -25.972122 l 55.0896 -20.55996 l 118.72644 -28.193018 l -59.897583 11.6563015 l 623.3001 172.4645 l -46.192017 -40.85759 l -153.46423 -94.40584 l 54.14331 27.030518 l 49.97351 30.712158 l -932.7467 171.05205 l 38.996063 -49.472717 l 43.946777 -48.012726 l 0.0 0.0 l 0.0 0.0 l 0.0 -1.5258789e-05 l 49.89331 -40.402252 l 49.642334 -34.266647 l 8.0177 228.74493 l -34.693665 29.28418 l 0.0 0.0 l 0.0 -3.0517578e-05 l 0.0 0.0 l 104.236694 -77.64462 l -33.133118 21.368134 l 71.14496 -42.468933 l 111.68359 -41.571808 l -43.424377 12.905731 l -27.645264 10.203064 l 152.62561 -36.22043 l 0.0 0.0 l 0.09729004 0.00340271 l 29.745178 1.018753 l -68.404175 3.5125885 l 77.966064 -221.79758 l 60.089355 -2.2070484 l 0.0 0.0 l -0.0006713867 2.670288e-05 l -0.015563965 0.00062179565 l 62.156372 7.219534 l 62.360596 12.441811 l 56.821167 16.5354 l -124.51782 210.14517 l -22.671265 -7.5772705 l 65.62671 25.5159 l 21.676392 10.947632 l -123.482056 -45.69345 l -29.954834 -5.32164 l 190.55347 73.53737 l 22.459595 15.55722 l 0.0 0.0 l -0.009033203 -0.0061950684 l 25.190308 23.026215 l 29.339844 31.062042 l 15.687622 18.875427 l 19.331299 26.996307 l -972.52264 92.43616 l -16.055511 58.801575 l -11.580078 61.240784 l -6.925766 62.93811 l 0.0 0.0 l 0.0 0.0 l 0.0 0.0 l 2.3559265 66.23511 l 7.253525 65.19122 l 11.473358 60.63806 l 610.44763 555.6985 l -62.164 -11.724609 l 161.88336 18.065674 l -35.27832 0.7261963 l 0.0 0.0 l 0.0 0.0 l 6.1035156e-05 0.0 l 140.59589 -11.790039 l -41.24829 5.878662 l -25.572693 2.7037354 l 232.58844 -56.734985 l 0.0 0.0 l 0.00012207031 -0.00012207031 l 0.00024414062 -0.00012207031 l 31.772583 -16.793823 l 27.400635 -16.118652 l 30.90857 -20.151245 l 28.889648 -20.69519 l -249.69641 115.04553 l 32.74243 -7.9415283 l 33.85254 -9.865723 l 31.765015 -10.815552 l 265.27856 -252.01123 l 16.17456 15.494263 l -11.841553 45.951782 l 28.483398 -29.708496 l -87.005615 85.20874 l 28.609985 -26.085083 l -58.515625 51.42456 l -128.43787 -178.35925 l -41.85498 37.68518 l -44.68152 33.44055 l -44.388306 27.167847 " /> </g> </svg>