<?xml version="1.0" standalone="no"?><!DOCTYPE svg PUBLIC "-//W3C//DTD SVG 1.1//EN" "http://www.w3.org/Graphics/SVG/1.1/DTD/svg11.dtd" ><svg xmlns="http://www.w3.org/2000/svg" xmlns:xlink="http://www.w3.org/1999/xlink" version="1.1" viewBox="-10 0 692 1000"><g transform="matrix(1 0 0 -1 0 800)"><path stroke="black" fill="none" d="M 1093.3079 1251.7507 l -48.78076 17.706665 l -102.56201 20.240723 l 0.0 0.0 l 0.0 0.0 l 0.0 0.0 l 52.101074 -7.588623 l -146.86847 0.83654785 l 46.533752 5.0595703 l -91.66235 -13.519043 l -43.461 -11.827515 l -0.63098145 167.97607 l -58.209106 -21.146118 l 16.939758 -162.04443 l -40.32068 -18.59668 l -38.704956 -21.955688 l 5.902832 176.745 l -54.140015 -30.54956 l -52.099976 -35.24939 l -50.06009 -39.94934 l -48.019745 -44.650757 l 0.0 0.0 l 0.0 0.0 l 0.0 0.0 l -39.949707 -49.860107 l -35.24945 -51.89978 l 141.09 -48.488525 l -24.848602 -37.322876 l 120.20215 135.85876 l -35.554382 -28.717407 l 0.0 0.0 l 0.0 0.0 l 0.0 0.0 l -31.536987 -34.03711 l -225.76254 -97.23932 l -21.13684 -57.983948 l 46.994812 113.98645 l 106.94031 -111.72473 l -14.940399 -42.44745 l -11.617584 -44.11084 l 44.819397 127.31714 l 892.47974 32.65973 l 0.0 0.0 l 0.0 0.0 l 0.0 0.0 l 16.578735 15.879639 l -55.40027 32.183105 l 154.98523 63.202393 l -16.652832 -15.950684 l -16.475098 -15.780151 l -49.743042 -47.645508 l 16.480103 15.785278 l 16.610596 15.910034 l -487.38287 -343.93988 l -0.00036621094 22.271606 l -6.1035156e-05 21.37268 l 48.802063 1.4802246 l 255.17755 0.0012817383 l -63.76184 0.0 l -127.51013 0.0 l 63.67163 0.0 l 382.7339 -6.1035156e-05 l -63.670044 0.0 l 127.607056 -0.0040283203 l 63.759766 -9.050415 l 0.0 3.3684082 l 0.0 5.4158325 l 0.0 -15.93219 l 0.0 -0.105163574 l 0.0 -3.0891113 l 0.0 -9.789917 l 0.0 -0.2142334 l 0.0 -17.742859 l 0.0 -3.8063965 l 0.0 -0.0045166016 l 0.0 0.0 l 0.0 11.353699 l 0.0 3.3898315 l -0.4071045 -48.93219 l -318.5791 85.14331 l 63.761597 0.0 l -354.60437 -220.34985 l -38.475525 0.0 l -38.50537 21.780884 l -6.1035156e-05 -21.73529 l 357.17554 -91.09473 l -13.987671 -28.25357 l 25.725708 57.768402 l -60.70691 61.533997 l 38.237427 6.1035156e-05 l 38.515625 -0.16461182 l -6.78125 -31.000916 l -108.745605 31.16565 l -38.634155 0.0 l -38.23169 0.0 l -38.626953 0.0 l -38.41638 0.0 l 470.2505 -254.52835 l -15.117065 -22.670563 l -33.607178 -44.49109 l 0.0 0.0 l 0.0 0.0 l 0.0 0.0 l 17.330322 22.054932 l 45.50293 68.246 l 12.857544 23.193573 l 40.858154 96.74228 l 0.0 0.0 l 0.0 -9.1552734e-05 l -0.00012207031 -0.00030517578 l -8.482544 -24.445038 l -9.907349 -24.936096 l -10.491577 -23.42334 l 42.09558 130.12729 l 5.202881 28.89386 l -11.427368 -58.121765 l 24.544434 184.12396 l -2.0031738 -32.052124 l -2.9448242 -32.708923 l -3.6026611 -30.462708 l -676.5822 147.7102 l 0.0 -21.969666 l 0.0 -21.732178 l 0.0 -21.998352 l 0.0 -21.969543 l 0.0 -21.732422 l -522.1886 58.986633 l -5.5386353 48.77002 l 3.1264648 98.18677 l -4.9792786 -47.473022 l 0.0 0.0 l 0.0 0.0 l 0.0 0.0 l 16.650116 -146.60986 l 12.949066 -45.22705 l 36.99936 -84.99997 l -20.346222 41.582306 l -142.50015 -80.32172 l 25.394745 -55.426758 l 30.030579 -53.58197 l 131.47653 107.969574 l 27.74466 -37.942657 l 111.16815 -324.80402 l 54.629456 -25.759918 l 56.315002 -21.017101 l 118.46454 -28.089691 l -60.128357 11.696251 l 623.6016 172.53351 l -46.482666 -41.11577 l -153.56091 -94.38221 l 53.58264 26.655212 l 51.08557 31.395851 l -933.22504 171.13243 l 39.24649 -49.79019 l 43.894836 -47.946213 l 0.0 0.0 l 0.0 0.0 l 0.0 0.0 l 49.067535 -39.833405 l 50.7464 -35.02852 l 7.9191895 228.78613 l -34.87317 29.435791 l 0.0 0.0 l 0.0 0.0 l 0.0 0.0 l 106.22357 -78.92944 l -35.799744 23.088562 l 72.54834 -43.32013 l 113.22528 -41.82614 l -38.80359 11.026367 l -36.91974 13.62854 l 154.42029 -37.1176 l 0.0 0.0 l 0.00012207031 0.0 l 0.0005493164 3.0517578e-05 l 33.73529 1.1497955 l -73.135925 3.491928 l 75.96747 -221.76321 l 63.547913 -2.3286839 l 0.0 0.0 l 0.0 0.0 l 0.0 1.9073486e-06 l 62.823425 7.256674 l 60.705444 12.129322 l 58.09082 16.905293 l -119.034546 211.978 l -30.5141 -10.194397 l 62.128357 23.398682 l 29.148804 14.725494 l -123.589966 -46.339386 l -32.418762 -5.758972 l 185.8421 69.937775 l 27.94751 19.370789 l 0.0 0.0 l 0.0 -3.0517578e-05 l -0.00012207031 -3.0517578e-05 l 26.092163 23.78009 l 24.247803 25.318909 l 20.864258 25.114563 l 18.964355 26.652283 l -973.21497 91.132355 l -16.160156 59.184082 l -11.552612 61.11212 l -6.9296265 62.97638 l 0.0 0.0 l 0.0 0.0 l 0.0 0.0 l 2.3504944 66.18469 l 7.0674744 64.230225 l 11.726257 61.97455 l 610.4772 555.38904 l -62.28833 -11.747803 l 162.53857 18.060547 l -35.901672 0.73876953 l 0.0 0.0 l 0.0 0.0 l 0.0 0.0 l 140.92883 -11.835693 l -35.097168 5.239868 l -34.191223 3.614624 l 234.71954 -56.958862 l 0.0 0.0 l 0.0 0.0 l 0.0 0.0 l 30.106812 -15.812378 l 29.639893 -17.43628 l 29.849365 -19.464478 l 29.584717 -21.193237 l -250.48584 115.33301 l 33.48987 -8.122925 l 33.14624 -9.641113 l 32.528442 -11.075562 l 264.90503 -252.0924 l 16.563477 15.865112 l -12.489258 46.306763 l 29.092773 -30.37732 l -87.68616 85.74939 l 29.286621 -26.702148 l -58.775635 51.65808 l -128.14722 -178.61584 l -42.124756 37.927246 l -43.884766 32.937256 l -45.377197 27.773193 " /> </g> </svg>