<?xml version="1.0" standalone="no"?><!DOCTYPE svg PUBLIC "-//W3C//DTD SVG 1.1//EN" "http://www.w3.org/Graphics/SVG/1.1/DTD/svg11.dtd" ><svg xmlns="http://www.w3.org/2000/svg" xmlns:xlink="http://www.w3.org/1999/xlink" version="1.1" viewBox="-10 0 692 1000"><g transform="matrix(1 0 0 -1 0 800)"><path stroke="black" fill="none" d="M 1093.2263 1251.7798 l -48.425903 17.578247 l -102.62579 20.267944 l 0.0 0.0 l 0.00024414062 0.0 l 0.001159668 -0.00012207031 l 51.738037 -7.5358887 l -143.70355 1.0947266 l 42.79889 4.653076 l -90.97742 -13.481934 l -43.111633 -11.733154 l -1.0559692 167.82397 l -57.78888 -20.992554 l 16.543701 -162.21594 l -40.73358 -18.856934 l -37.73401 -21.404907 l 5.623657 176.55469 l -54.13983 -30.530762 l -52.101074 -35.227783 l -50.062347 -39.924683 l -48.010223 -44.67981 l 0.0 0.0 l 0.0 0.0 l 0.0 0.0 l -39.9382 -49.864258 l -35.227753 -51.890625 l 139.53873 -50.76416 l -22.854462 -34.329346 l 119.12158 134.64648 l -34.94525 -28.224365 l 0.0 0.0 l 6.1035156e-05 0.00012207031 l 0.00018310547 0.00012207031 l -31.424194 -33.928345 l -226.24966 -98.374756 l -20.626923 -56.583923 l 46.793518 113.45929 l 106.95395 -111.52173 l -14.956116 -42.736023 l -11.52356 -43.75464 l 44.79593 127.205444 l 892.49774 32.675354 l 0.0 0.0 l 0.00048828125 0.00048828125 l 0.01184082 0.011352539 l 15.7146 15.052612 l -54.250122 32.68872 l 153.24817 62.13391 l -18.703857 -17.915161 l -11.620483 -11.130493 l -47.53784 -45.533203 l 11.830444 11.331543 l 17.021729 16.303955 l -486.722 -342.3852 l 0.0025024414 0.13220215 l -0.016479492 36.55713 l -0.00079345703 1.130127 l 48.49243 6.3170776 l 254.30853 0.050354004 l -62.28247 0.0 l -124.02319 -6.1035156e-05 l 58.69275 0.0 l 380.16333 -0.0018920898 l -58.622437 0.00036621094 l 127.88025 -0.16192627 l 0.3482666 -0.03552246 l 61.848755 -4.633301 l 0.0 0.0 l 0.0 -16.805603 l 0.0 0.0 l -0.00061035156 -11.172424 l 0.0 0.0 l -0.2915039 -42.373047 l 0.0 0.0 l -318.1593 75.18341 l 62.271973 0.0 l -354.38727 -220.34448 l -37.52423 -0.001159668 l -38.71515 17.161438 l -0.0007324219 -15.345886 l 354.28912 -98.64963 l -10.019653 -20.244781 l 24.394531 54.990295 l -52.436768 62.07788 l 28.047974 0.0016479492 l 39.122803 -6.552429 l -4.892334 -22.499329 l -111.67517 29.056396 l -43.8385 0.0 l -27.821411 0.0 l -43.55359 0.0 l -35.172485 0.0 l 468.3275 -256.01572 l -13.835815 -20.751678 l -33.86267 -44.88852 l 0.0 0.0 l 0.00061035156 0.0007019043 l 0.018676758 0.023773193 l 16.520264 21.024506 l 47.55371 71.582855 l 0.018920898 0.034851074 l 9.254883 16.701324 l 41.395264 95.76883 l 0.0 0.0 l -4.1520996 -11.954987 l -19.88916 -48.838715 l -0.5241699 -1.1813049 l 43.14441 144.50793 l 0.28393555 1.555603 l -9.39978 -47.385254 l 22.391235 157.89404 l -0.18286133 -3.034851 l -5.849243 -60.215027 l -0.21801758 -1.8756714 l -677.4433 138.42487 l 0.0 -24.670593 l 0.0 -15.223328 l 0.0 -25.811768 l 0.0 -24.666626 l 0.0 -15.234009 l -522.52014 60.023193 l -5.098572 44.887817 l 2.9896545 98.837524 l -4.9509277 -47.199646 l 0.0 0.0 l 0.0 0.0 l 0.0 0.0 l 16.654907 -146.60468 l 12.912689 -45.11487 l 36.973785 -84.99805 l -20.199646 41.283264 l -142.11884 -81.16324 l 24.802948 -54.136383 l 30.053436 -53.65921 l 131.7315 107.5643 l 27.535858 -37.65735 l 112.26044 -325.3482 l 56.934692 -26.532501 l 51.853516 -19.35276 l 119.41791 -28.465872 l -59.287964 11.550802 l 622.5038 172.28223 l -45.424194 -40.17581 l -153.2091 -94.468254 l 55.6239 28.021606 l 47.03662 28.906685 l -931.4834 170.83981 l 38.334686 -48.634308 l 44.086975 -48.19075 l 0.0 0.0 l 6.1035156e-05 -6.1035156e-05 l 0.00021362305 -0.00015258789 l 52.070587 -41.90193 l 46.726868 -32.25473 l 8.277771 228.63608 l -34.218628 28.882996 l 0.0 0.0 l 0.0 0.0 l 6.1035156e-05 -3.0517578e-05 l 98.98877 -74.250946 l -26.091187 16.82486 l 67.43915 -40.22107 l 107.61218 -40.900177 l -55.62677 17.868652 l -3.1536865 1.1572571 l 152.69318 -33.682495 l 0.0 0.0 l 14.753906 0.51623535 l -55.908752 3.5671387 l 83.243774 -221.88832 l 50.730103 -1.8768101 l 0.0 0.0 l -0.022094727 0.00088119507 l 60.583984 7.113905 l 66.731445 13.267017 l 53.468384 15.558609 l -138.9978 205.30513 l -1.9708252 -0.6695862 l 74.87561 31.110474 l 1.9505615 0.9747925 l -123.20422 -43.99124 l -23.448242 -4.166794 l 202.99524 83.043045 l 6.793335 4.6783447 l 0.0 0.0 l 23.949951 21.821198 l 42.786865 46.22818 l 2.017334 2.3996277 l 20.300049 27.904602 l -970.6942 95.87924 l -15.779175 57.791504 l -11.652634 61.580444 l -6.915451 62.836 l 0.0 0.0 l 1.5258789e-05 -6.1035156e-05 l 0.0 0.0 l 2.3701324 66.36926 l 7.744873 67.729126 l 10.805481 57.108765 l 610.36945 556.51544 l -61.835693 -11.663208 l 160.15308 18.079346 l -33.620667 0.6925049 l 0.0 0.0 l 0.00024414062 0.0 l 0.0021972656 0.0 l 139.70288 -11.668945 l -0.21411133 0.029541016 l -57.27771 7.5360107 l -2.814087 0.29821777 l 227.00049 -56.164917 l 0.0 0.0 l 0.0013427734 -0.0007324219 l 0.09667969 -0.051635742 l 36.03601 -19.312988 l 21.486938 -12.639404 l 33.705566 -21.964722 l 27.054443 -19.37976 l -247.61157 114.286255 l 30.768555 -7.4624023 l 35.71765 -10.458862 l 29.749268 -10.128906 l 266.26465 -251.79712 l 0.25891113 0.2602539 l 14.888794 14.254639 l -10.13147 45.014404 l 26.87439 -27.942383 l -85.208496 83.78113 l 26.82312 -24.455566 l -57.82898 50.80835 l -129.2052 -177.682 l -41.142822 37.0459 l -46.785767 34.769653 l -41.77661 25.569458 " /> </g> </svg>