<?xml version="1.0" standalone="no"?><!DOCTYPE svg PUBLIC "-//W3C//DTD SVG 1.1//EN" "http://www.w3.org/Graphics/SVG/1.1/DTD/svg11.dtd" ><svg xmlns="http://www.w3.org/2000/svg" xmlns:xlink="http://www.w3.org/1999/xlink" version="1.1" viewBox="-10 0 692 1000"><g transform="matrix(1 0 0 -1 0 800)"><path stroke="black" fill="none" d="M 1081.9492 1255.8044 l -1.5568848 0.60095215 l -75.35089 18.176392 l 0.0 0.0 l -130.3844 2.1778564 l -77.74774 -20.507446 l -0.84991455 -0.26257324 l -53.77997 148.37036 l -1.7088623 -0.53027344 l -36.18567 -185.16101 l -26.123535 -14.308228 l 0.0 0.0 l -8.144531 164.46057 l -54.11084 -27.929321 l -52.24585 -32.225952 l -50.38086 -36.522827 l -67.95203 43.068604 l 0.0 -37.099976 l 21.103546 -54.53076 l 0.0 0.0 l -0.0018920898 0.0014648438 l -21.101654 -19.670776 l -17.08664 -30.901611 l -32.226044 -50.63037 l 111.415985 -73.90381 l 84.29599 92.89087 l 0.0 0.0 l -14.583801 -16.672485 l -251.25232 -141.82605 l 0.0 0.0 l 26.471466 63.98816 l 108.839905 -83.42737 l -17.13153 -82.664795 l -0.21200562 -0.83825684 l 43.24594 118.115295 l 0.0032043457 0.0037841797 l 62.019836 -53.833313 l 51.900024 0.0 l 51.900024 0.0 l 51.899963 0.0 l 51.900024 0.0 l 51.900024 0.0 l 51.899963 0.0 l 51.900024 0.0 l 454.57538 102.0083 l 0.0 0.0 l 95.09961 63.349365 l 0.0 0.0 l -497.77502 -187.25763 l 0.0 -21.900024 l 0.0 -21.900024 l 0.0 -21.899963 l 51.076294 -62.596924 l 0.0 0.0 l 172.77747 0.22613525 l 0.0 0.0 l -36.70337 -0.014038086 l 492.7356 -44.645935 l 0.0 0.0 l -219.45325 44.656616 l 0.0 0.0 l -439.70142 -218.21948 l 0.0 0.0 l -9.222351 2.0059204 l 350.37653 -51.093018 l 0.0 0.0 l -176.66467 46.921814 l 0.0 0.0 l 351.1311 -313.69568 l 0.0 0.0 l 92.33496 164.57068 l 0.0 0.0 l -635.4993 242.37805 l 0.0 0.0 l -96.98755 58.105835 l -51.899963 0.0 l -51.900024 0.0 l -51.900024 0.0 l -51.899963 0.0 l -51.900024 0.0 l -51.900024 0.0 l -113.554565 0.25598145 l -6.6032104 60.11487 l -0.71188354 -6.4839478 l 0.0 0.0 l 16.999695 -148.77753 l 7.8799133 -29.58783 l 0.0 0.0 l 34.217285 -86.30249 l 0.0 0.0 l -0.6986084 1.468689 l -125.46588 -117.23859 l 0.0 0.0 l 12.244141 -20.302307 l 167.00604 51.49402 l 0.7711792 -1.0756836 l 191.27228 -360.73148 l 0.0 0.0 l 122.26953 -37.78299 l 0.0 0.0 l 508.06848 107.20506 l 0.0 0.0 l -58.792725 -37.36734 l 0.0 0.0 l -837.1997 144.10838 l 0.0 0.0 l 118.33923 -102.681854 l 0.0 0.0 l -3.1503906 240.52151 l 0.0 0.0 l 224.62225 -123.27954 l 0.0 0.0 l 360.35663 -216.31644 l 0.0 0.0 l 0.67529297 272.60345 l 0.0 0.0 l -722.345 -324.84393 l -23.299988 0.0 l -23.299988 0.0 l -23.300018 0.0 l -23.299988 0.0 l -23.300018 0.0 l -23.299988 0.0 l -23.300003 0.0 l -23.300003 0.0 l -23.299988 0.0 l -23.300003 0.0 l 0.0 154.4 l 0.0 154.40001 l 0.0 154.4 l 83.66875 112.284485 l 0.0 0.0 l -14.779968 91.95148 l 0.0 0.0 l -1.4789276 14.965332 l 1.6132965 120.33856 l 0.0 0.0 l 11.489655 72.64264 l -80.5128 205.41742 l 0.0 154.40002 l 0.0 154.40002 l 0.0 154.40002 l 77.09999 0.0 l 77.100006 0.0 l 77.100006 0.0 l 77.100006 0.0 l 77.099976 0.0 l 77.099976 0.0 l 77.10004 0.0 l 77.099976 0.0 l 32.558167 -93.1687 l -1.6734009 -0.3861084 l 123.31525 93.55481 l 0.0 -21.900024 l 75.10803 -61.13855 l 0.0 0.0 l 265.3025 -80.77161 l 0.0 0.0 l -122.20032 52.33545 l 0.0 0.0 l 327.76868 -224.80603 l 0.0 0.0 l -110.658325 107.63098 l 0.0 0.0 l -183.20862 -131.7395 l 0.0 0.0 l -46.42102 31.144653 l -205.69092 197.8446 l 0.0 -21.900024 l 0.0 -21.900024 l 0.0 -21.900024 l 0.0 -21.899902 " /> </g> </svg>