<?xml version="1.0" standalone="no"?><!DOCTYPE svg PUBLIC "-//W3C//DTD SVG 1.1//EN" "http://www.w3.org/Graphics/SVG/1.1/DTD/svg11.dtd" ><svg xmlns="http://www.w3.org/2000/svg" xmlns:xlink="http://www.w3.org/1999/xlink" version="1.1" viewBox="-10 0 692 1000"><g transform="matrix(1 0 0 -1 0 800)"><path stroke="black" fill="none" d="M 1019.11066 940.2797 l 0.074645996 0.012023926 l 47.13977 0.13006592 l 246.0675 -168.29315 l 0.74645996 -618.8025 l -144.32178 -154.0015 l -11.130249 -1.2826058e-07 l 0.0 0.0 l 76.65759 1.4903344e-07 l 0.0 0.0 l 68.71277 3.9595034e-07 l 0.0 0.0 l -223.12549 128.48428 l -0.008911133 -51.435875 l 19.131714 -77.045105 l 0.0 0.0 l 25.10315 0.0021909662 l -0.008544922 2.0212494e-05 l -912.79333 -0.005517242 l 0.0 0.0 l 50.741913 4.4165063e-09 l 0.0 0.0 l 79.96164 -5.4278644e-09 l 0.0 0.0 l 50.1261 -9.822543e-10 l 0.0 0.0 l -205.77823 153.5918 l 1.1493835 -0.16775513 l 226.35938 -62.605453 l -0.042633057 105.34979 l -0.0005493164 3.2245483 l -2.0240479 90.83261 l 0.5585327 70.29654 l -231.21066 70.81415 l -0.068725586 -112.02661 l 1.5219269 299.0562 l -0.11508179 153.76581 l 0.47236633 153.69238 l 1.5942688 154.89404 l 229.12952 147.46619 l 0.02532959 -42.98291 l -231.21193 191.07666 l 0.006164551 -0.048950195 l 0.28457642 -111.39502 l 76.83089 279.15015 l 0.0 0.0 l -21.582657 0.009765625 l -51.218506 -0.01586914 l -0.32229614 0.0010986328 l 173.54524 0.020507812 l 0.0 0.0 l -51.09546 -0.00048828125 l 0.0 0.0 l 104.24417 -44.008545 l 0.08944702 -2.3791504 l 0.5567627 -178.2633 l -0.0013122559 -1.7855225 l 0.002380371 97.12842 l 739.13586 129.30762 l 0.0 0.0 l 8.294067 -0.0021972656 l -62.32666 -0.030273438 l 0.0 0.0 l 186.37854 0.033691406 l 0.0 0.0 l -32.30066 0.0 l 0.0 0.0 l -37.933594 0.0 l 0.5319824 0.0 l -135.70032 -227.71704 l -0.017333984 43.00171 l 0.43530273 110.40662 l 0.0 0.0 l 232.33923 -80.51672 l 0.7475586 -151.00781 l 0.26123047 -308.93176 l -0.97558594 151.7284 l -228.04163 159.91968 l -4.834717 -226.48907 l -0.0013427734 43.031067 l -0.09082031 70.85388 l -0.00024414062 0.026123047 l -0.016357422 44.034058 l -665.8103 -156.6048 l -0.079315186 88.91034 l -0.0011291504 2.1895752 l 324.93622 -166.81793 l -0.02960205 6.1035156e-05 l -108.82593 -0.0146484375 l 0.0 0.0 l 199.62683 -0.0020141602 l 98.64984 0.00030517578 l 2.71344 0.0 l -502.40952 -0.0036010742 l 0.0 0.0 l 94.10843 0.00030517578 l 0.0 0.0 l 9.205078 -218.9591 l -47.67679 -0.007019043 l -71.16257 -2.9978638 l 0.8384094 -69.372314 l 0.32537842 -71.42493 l 0.9296875 -72.4241 l 1.3015137 -72.24121 l 660.4252 -145.67734 l 2.915039 -68.90199 l 0.30578613 140.77321 l 0.013183594 -0.123687744 l 229.68188 -48.562622 l 2.02417 153.14972 l 1.0512695 153.51956 l -229.63538 -39.359314 l -3.3186035 86.98956 l -0.00012207031 51.078674 l -0.028442383 -267.07285 l 0.0041503906 51.497406 l -314.38696 221.05005 l -2.5458374 0.009277344 l 234.508 0.04638672 l -98.86456 0.012573242 l -2.661316 0.00018310547 l -230.51929 0.0021362305 l -47.554993 -0.00018310547 " /> </g> </svg>