<?xml version="1.0" standalone="no"?><!DOCTYPE svg PUBLIC "-//W3C//DTD SVG 1.1//EN" "http://www.w3.org/Graphics/SVG/1.1/DTD/svg11.dtd" ><svg xmlns="http://www.w3.org/2000/svg" xmlns:xlink="http://www.w3.org/1999/xlink" version="1.1" viewBox="-10 0 692 1000"><g transform="matrix(1 0 0 -1 0 800)"><path stroke="black" fill="none" d="M 1017.4036 940.0006 l 66.55829 0.00030517578 l 233.0282 -168.00061 l 0.0015869141 -617.60254 l -116.93262 -154.39914 l -22.713623 -7.275958e-12 l -23.437256 1.3096724e-10 l 93.59802 -1.382432e-10 l 22.570557 -1.4551915e-11 l -46.202515 2.910383e-11 l 69.94299 3.783498e-10 l 23.102417 -1.1641532e-10 l -232.92847 144.16612 l 0.0 -72.05546 l 0.12878418 -72.110664 l 23.110474 -5.894908e-07 l 23.35559 1.0105869e-05 l -945.4601 -1.1848817e-05 l 23.117874 0.0 l 92.8035 0.0 l -22.727264 0.0 l -23.853836 0.0 l -22.69249 0.0 l 93.14731 0.0 l 23.112732 0.0 l 23.800873 0.0 l 22.727142 0.0 l 23.342316 0.0 l -232.9011 154.39825 l 232.98816 -82.25791 l -9.1552734e-05 72.17167 l 0.0 71.951355 l -0.0043640137 72.14058 l 0.0012207031 72.09607 l -232.99615 102.63129 l -0.00015258789 -154.30869 l 0.0032806396 308.779 l -0.00024414062 154.39868 l 0.0010223389 154.39844 l 0.0034332275 154.40112 l 232.99165 161.17029 l 6.1035156e-05 -60.362427 l -232.99614 207.9635 l 0.00062561035 -154.30737 l 70.020065 308.73608 l 23.09169 0.0 l -46.49312 0.0 l -23.360184 0.0 l -23.23584 0.0 l 209.22949 0.0 l -22.727234 0.0 l -23.346558 0.0 l -23.508026 0.0 l -23.098694 0.0 l 116.42279 -0.09484863 l 0.00021362305 -60.27417 l 0.0011901855 -120.92456 l 0.0 -60.271362 l 0.0 120.74658 l 712.73267 120.81836 l 23.116333 0.0 l 23.325562 0.0 l -93.045654 0.0 l 23.110352 0.0 l 209.62756 0.0 l -23.116821 0.0 l -23.476074 0.0 l -23.101929 0.0 l -46.63159 0.0 l 23.240112 0.0 l -139.78027 -241.57007 l -0.00012207031 60.36255 l 0.00024414062 60.724 l 0.0 59.982788 l 232.99927 -93.90027 l 0.0017089844 -154.39258 l 0.00048828125 -308.8003 l -0.0020751953 154.39429 l -232.98926 161.19714 l -0.010498047 -241.56738 l 0.0 60.36255 l -0.00012207031 60.422485 l -0.00012207031 60.36487 l -665.9996 -181.14697 l -0.00015258789 60.461426 l 0.0 60.273315 l 332.98264 -181.16779 l -66.92859 -6.1035156e-05 l -66.142456 0.0 l 199.72308 0.0 l 66.66913 0.0 l 66.46179 0.0 l -532.76556 0.0 l 0.0 0.0 l 0.0 0.0 l 0.0 0.0 l 66.9444 0.0 l 66.13873 0.0 l 0.08404541 -218.99988 l -66.559235 0.0 l -66.60986 -0.0064697266 l 0.0018310547 -72.094055 l 0.0007019043 -72.09863 l 0.0019836426 -72.10065 l 0.0028076172 -72.10031 l 665.9879 -144.20316 l 0.0063476562 -72.093124 l 0.00061035156 144.19258 l 232.99292 -51.693512 l 0.0043945312 154.39734 l 0.0021972656 154.39807 l -232.99268 -40.796875 l -0.0072021484 72.13214 l 0.0 72.05463 l -0.00012207031 -288.354 l 0.00012207031 72.0556 l -266.50354 216.31024 l -66.46124 0.0 l 266.33057 6.1035156e-05 l -66.669495 6.1035156e-05 l -66.46167 0.0 l -199.8667 0.0 l -66.55896 0.0 " /> </g> </svg>