<?xml version="1.0" standalone="no"?><!DOCTYPE svg PUBLIC "-//W3C//DTD SVG 1.1//EN" "http://www.w3.org/Graphics/SVG/1.1/DTD/svg11.dtd" ><svg xmlns="http://www.w3.org/2000/svg" xmlns:xlink="http://www.w3.org/1999/xlink" version="1.1" viewBox="-10 0 692 1000"><g transform="matrix(1 0 0 -1 0 800)"><path stroke="black" fill="none" d="M 1017.5467 940.024 l 64.93701 0.012207031 l 234.12097 -168.02509 l 0.064086914 -617.7031 l -133.71716 -154.36581 l -0.9067383 -2.4738256e-10 l -27.819946 5.0276867e-09 l 0.04650879 4.4383341e-10 l 108.997314 -5.81349e-09 l 0.23791504 -3.6379788e-11 l -36.748535 6.2573235e-10 l 71.611694 1.5163096e-08 l 15.434937 -4.831236e-09 l -230.15381 142.8518 l -0.0007324219 -70.3273 l 5.124878 -72.524414 l 15.760132 -2.3461136e-05 l 25.512085 0.00040220347 l -940.03375 -0.00047157082 l 16.05159 -1.4551915e-11 l 77.41904 -2.1827873e-11 l -1.088562 -7.275958e-12 l -44.759384 0.0 l -0.7159271 0.0 l 92.69824 1.4551915e-11 l 15.846436 -7.275958e-12 l 43.233856 -2.1827873e-11 l 1.0866699 0.0 l 24.398651 0.0 l -229.06345 154.33066 l 232.52893 -80.624855 l -0.0036621094 74.952385 l -6.1035156e-05 66.18367 l -0.17364502 73.71477 l 0.047943115 71.94525 l -232.84651 99.96463 l -0.0058898926 -150.76495 l 0.1305542 307.96408 l -0.0098724365 154.34564 l 0.040527344 154.33923 l 0.13676453 154.44238 l 232.66795 160.02185 l 0.002166748 -58.905884 l -232.84659 206.54822 l 0.024932861 -150.71484 l 74.67822 306.2572 l 15.009064 0.00024414062 l -42.345367 -0.00024414062 l -25.695114 -0.0013427734 l -20.746796 0.0007324219 l 190.97404 0.0010986328 l -1.087616 0.0 l -24.569244 0.0 l -31.578674 0.0 l -15.288544 0.0 l 113.42709 -3.7753906 l 0.008056641 -55.390747 l 0.0473938 -125.76135 l -0.00015258789 -55.27661 l 0.00024414062 118.67407 l 717.8793 121.53003 l 15.987183 0.0 l 24.32373 -0.00024414062 l -87.06311 -0.0007324219 l 15.755493 0.00024414062 l 206.8147 0.0007324219 l -16.004272 0.0 l -30.313354 0.0 l -15.414551 0.0 l -47.85681 0.0 l 20.917358 0.0 l -139.01892 -240.40906 l -0.0014648438 58.90747 l 0.009887695 73.297485 l -0.0034179688 43.79431 l 232.97424 -90.02673 l 0.064086914 -154.10889 l 0.022460938 -308.81134 l -0.083740234 154.17084 l -232.57458 161.09009 l -0.41479492 -240.30365 l -0.00012207031 58.909973 l -0.0078125 61.296753 l -0.0013427734 58.99829 l -665.98376 -179.09003 l -0.00680542 62.845764 l -9.1552734e-05 55.360962 l 332.30826 -179.92084 l -79.6781 -0.0013427734 l -48.386963 0.0 l 196.73859 -6.1035156e-05 l 69.34949 0.0 l 61.100708 0.0 l -531.3247 0.0 l 0.0 0.0 l 0.0024719238 0.0 l 0.2979126 -6.1035156e-05 l 79.90039 -6.1035156e-05 l 48.241333 6.1035156e-05 l 3.3444824 -218.99664 l -64.976654 -0.00061035156 l -66.991394 -0.25720215 l 0.07192993 -71.86597 l 0.027893066 -72.042114 l 0.07977295 -72.12778 l 0.1116333 -72.11212 l 665.5218 -144.32672 l 0.25 -71.82565 l 0.026245117 143.906 l 232.71655 -51.441467 l 0.17358398 154.29276 l 0.09020996 154.32443 l -232.7113 -40.67639 l -0.28479004 73.37732 l 0.0 70.29669 l -0.0024414062 -286.57043 l 0.00036621094 70.33258 l -270.51666 216.70746 l -61.07953 0.0008544922 l 263.6386 0.003967285 l -69.3678 0.0010375977 l -61.09436 6.1035156e-05 l -202.45587 0.00012207031 l -64.96625 0.0 " /> </g> </svg>