<?xml version="1.0" standalone="no"?><!DOCTYPE svg PUBLIC "-//W3C//DTD SVG 1.1//EN" "http://www.w3.org/Graphics/SVG/1.1/DTD/svg11.dtd" ><svg xmlns="http://www.w3.org/2000/svg" xmlns:xlink="http://www.w3.org/1999/xlink" version="1.1" viewBox="-10 0 692 1000"><g transform="matrix(1 0 0 -1 0 800)"><path stroke="black" fill="none" d="M 979.0 804.0 l 63.80005 0.0 l 27.974487 175.29211 l 0.0 0.0 l 99.62549 -175.29211 l 63.799927 0.0 l 77.23511 -22.62738 l 50.36499 22.62738 l 63.799927 0.0 l 63.80005 0.0 l 63.799927 0.0 l 63.80005 0.0 l 0.0 -5.0999756 l 0.0 -5.1000366 l 0.0 -5.0999756 l 0.0 -5.1000366 l 0.0 -5.0999756 l 0.0 -5.0999756 l 0.0 -5.1000366 l 0.0 -5.0999756 l 0.0 -5.1000366 l 0.0 -5.0999756 l 0.0 0.0 l -0.41003418 -34.400024 l -1.2299805 -33.599976 l -2.0500488 -32.799988 l -2.869995 -32.0 l -3.6899414 -31.200012 l -4.51001 -30.400024 l -5.329956 -29.599976 l -6.1500244 -28.799988 l -6.9699707 -28.0 l 0.0 0.0 l -8.550049 -24.640015 l -9.650024 -24.320007 l -10.75 -24.0 l -11.849976 -23.679993 l -12.949951 -23.359985 l -14.050049 -23.040009 l -15.150024 -22.720001 l -16.25 -22.399994 l -17.349976 -22.080017 l 0.0 0.0 l -44.170044 -45.979996 l -46.51001 -41.14 l -56.423096 -25.085236 l -43.61682 -42.67476 l 8.098267 -107.07557 l 0.0 0.0 l -117.49829 58.67557 l -80.98303 25.74799 l 0.0 0.0 l 34.744263 -83.683174 l 0.0 0.0 l -135.4112 21.635183 l 0.0 0.0 l -63.870056 2.3400002 l -62.00995 7.0200005 l -60.150024 11.700001 l -58.289978 16.379997 l -56.429993 21.059998 l -54.570007 25.740005 l -52.710022 30.41999 l -50.849976 35.100006 l -216.13348 -172.1396 l 0.0 0.0 l -60.90831 144.9787 l 0.0 0.0 l 169.79948 89.990234 l 0.0 0.0 l -24.907715 74.71066 l 6.510681 51.07779 l -71.190674 54.20221 l -134.5214 -60.31784 l 0.0 0.0 l 88.32138 173.11786 l -16.169983 59.21997 l -61.641464 39.547424 l 43.161453 84.53259 l 0.0 0.0 l -44.5029 62.474792 l 53.902893 67.845215 l -48.3965 78.306885 l 76.59651 43.85309 l 21.149994 58.02002 l -79.16243 58.285217 l 184.8751 84.94592 l 0.0 0.0 l -161.7319 67.371826 l 0.0 0.0 l -32.431747 302.2749 l 0.0 0.0 l 163.63332 -2.9544678 l 0.0 0.0 l 36.898407 -140.61694 l 0.0 0.0 l 117.59927 -73.02649 l 52.099976 35.25 l 54.140015 30.550049 l 56.179993 25.849976 l 58.21997 21.150024 l 60.26001 16.449951 l 62.299988 11.75 l 64.34003 7.050049 l 0.0 0.0 l 35.960022 -0.73999023 l 35.47998 -2.2199707 l 81.35199 61.288574 l 0.0 0.0 l 142.47644 19.780884 l 0.0 0.0 l -153.07043 -161.4336 l 0.0 0.0 l 66.36194 56.684082 l 33.08008 -9.619995 l 32.599976 -11.099976 l 32.119995 -12.580078 l 0.0 0.0 l 29.949951 -15.719971 l 34.064453 -5.588623 l 8.713501 -114.859375 l 46.472046 62.248047 l 29.550049 -23.080078 l 29.449951 -24.919922 l 29.350098 -26.76001 l 29.25 -28.599976 l 29.149902 -30.440063 l -16.599976 -15.900024 l -16.599976 -15.899902 l -16.599976 -15.900024 l -16.599976 -15.900024 l -16.600098 -15.900024 l -16.599976 -15.900024 l -16.599976 -15.899902 l -16.599976 -15.900024 l -16.599976 -15.900024 l -40.776 -95.68286 l 0.024169922 0.07977295 l -11.397217 123.17694 l -43.770996 47.6062 l -42.150024 37.94995 l -43.809937 32.890015 l -45.470093 27.829956 l -56.206055 -143.54504 l 0.0 0.0 l -3.6207275 171.43005 l 0.0 0.0 l -86.54315 25.244995 l -52.110046 7.589966 l 0.0 0.0 l -48.20996 -1.6899414 l -46.630005 -5.0700684 l -45.049988 -8.449951 l -43.47003 -11.829956 l -41.890015 -15.210083 l -40.309998 -18.589966 l -38.72998 -21.96997 l -37.150024 -25.349976 l -35.569946 -28.72998 l 0.0 0.0 l -31.54004 -34.04004 l -28.220001 -35.71997 l -24.899994 -37.400024 l -58.797607 -2.0114746 l 0.0 0.0 l 169.97821 -102.99005 l 0.0 0.0 l 328.51965 -0.6589966 l 0.0 0.0 l -503.19403 -17.782776 l -11.206207 -88.756714 l -4.980011 -47.48004 l 0.0 0.0 l 63.150208 -63.744873 l 0.0 0.0 l -55.750214 -35.815125 l 9.773285 -40.30414 l 3.7929688 -64.22998 l 25.283752 -31.155823 l -14.446716 -44.722473 l 58.84671 -36.637543 l -43.674835 -37.10852 l 102.87482 -36.971497 l 0.0 0.0 l 34.890015 -29.450012 l 35.47003 -26.349976 l 36.049988 -23.25 l 36.630005 -20.150024 l 37.20996 -17.049988 l 37.79004 -13.949982 l 38.369995 -10.850021 l 38.950012 -7.75 l 39.52997 -4.649994 l 0.0 0.0 l 34.049988 1.1600037 l 33.350037 3.4799957 l 32.649963 5.800003 l 31.950012 8.12001 l 31.25 10.439972 l 33.979492 -34.82115 l 3.5651855 104.254654 l 0.0 0.0 l 52.00537 -24.193481 l 28.449951 19.720001 l 0.0 0.0 l 114.019775 -12.096344 l -64.059814 60.73633 l 21.350098 25.700012 l 18.929932 26.619995 l 47.375244 26.769318 l -16.775269 29.230682 l 11.670044 29.380005 l 9.25 30.299988 l 8.109863 55.22632 l -39.779907 -24.006287 l -38.5 0.0 l -38.5 0.0 l -38.5 0.0 l -38.5 0.0 l -38.673584 110.63489 l 0.0 0.0 l -0.9790039 -198.15994 l 0.0 0.0 l -75.84735 87.525055 l -38.5 0.0 l -38.5 0.0 l 0.0 21.899963 l 0.0 21.900024 l 0.0 21.899963 l 0.0 21.900024 l -32.519836 41.592957 l 65.15509 7.6466675 l 0.0 0.0 l -350.69897 0.5447998 l 0.0 0.0 l 318.06372 37.81555 l 0.0 21.900024 l 0.0 21.900024 " /> </g> </svg>