<?xml version="1.0" standalone="no"?><!DOCTYPE svg PUBLIC "-//W3C//DTD SVG 1.1//EN" "http://www.w3.org/Graphics/SVG/1.1/DTD/svg11.dtd" ><svg xmlns="http://www.w3.org/2000/svg" xmlns:xlink="http://www.w3.org/1999/xlink" version="1.1" viewBox="-10 0 692 1000"><g transform="matrix(1 0 0 -1 0 800)"><path stroke="black" fill="none" d="M 1017.40106 940.0002 l 66.596375 0.0 l 233.00244 -168.0 l 0.00012207031 -617.6002 l -116.53711 -154.39992 l -23.249634 -7.275958e-12 l -23.311768 1.4551915e-11 l 93.23413 -1.4551915e-11 l 23.237427 0.0 l -46.565918 7.275958e-12 l 69.90369 2.910383e-11 l 23.283081 -7.275958e-12 l -232.9939 144.1971 l 0.0 -72.09618 l 0.011108398 -72.100914 l 23.283691 -5.0567905e-08 l 23.304688 8.669449e-07 l -945.5879 -1.0164658e-06 l 23.284378 0.0 l 93.166 0.0 l -23.250854 0.0 l -23.347534 0.0 l -23.247879 0.0 l 93.19545 0.0 l 23.283966 0.0 l 23.342957 0.0 l 23.250885 0.0 l 23.303589 0.0 l -232.9915 154.39984 l 232.99898 -82.29638 l 0.0 72.10615 l 0.0 72.08725 l -0.00036621094 72.103485 l 9.1552734e-05 72.09964 l -232.99966 102.69412 l -1.5258789e-05 -154.39218 l 0.000289917 308.79816 l -3.0517578e-05 154.3999 l 9.1552734e-05 154.39984 l 0.000289917 154.40015 l 232.99928 161.19739 l 0.0 -60.39673 l -232.99966 207.99683 l 6.1035156e-05 -154.39197 l 69.91031 308.79443 l 23.282135 0.0 l -46.590836 0.0 l -23.305176 0.0 l -23.294495 0.0 l 209.65965 0.0 l -23.250885 0.0 l -23.303986 0.0 l -23.317871 0.0 l -23.282715 0.0 l 116.49338 -0.008178711 l 3.0517578e-05 -60.38916 l 9.1552734e-05 -120.81067 l 0.0 -60.388916 l 0.0 120.79529 l 712.6113 120.801636 l 23.284302 0.0 l 23.302124 0.0 l -93.186646 0.0 l 23.28357 0.0 l 209.69385 0.0 l -23.284302 0.0 l -23.315063 0.0 l -23.282959 0.0 l -46.602783 0.0 l 23.2948 0.0 l -139.79822 -241.59741 l 0.0 60.39685 l 0.0 60.427612 l 0.0 60.364258 l 233.0 -93.991455 l 0.00012207031 -154.39929 l 0.0 -308.80005 l -0.00012207031 154.39954 l -232.99915 161.1997 l -0.0008544922 -241.59717 l 0.0 60.39685 l 0.0 60.401855 l 0.0 60.396973 l -666.0 -181.19537 l -3.0517578e-05 60.405212 l 0.0 60.389038 l 332.99854 -181.19714 l -66.628174 0.0 l -66.56079 0.0 l 199.7934 0.0 l 66.60596 0.0 l 66.588135 0.0 l -532.79706 0.0 l 0.0 0.0 l 0.0 0.0 l 0.0 0.0 l 66.62955 0.0 l 66.560455 0.0 l 0.0072021484 -218.99994 l -66.5965 0.0 l -66.60086 -0.0005493164 l 0.00015258789 -72.09949 l 6.1035156e-05 -72.099915 l 0.00015258789 -72.100006 l 0.00024414062 -72.10004 l 665.9989 -144.20026 l 0.00061035156 -72.09941 l 0.0 144.19933 l 232.99939 -51.699432 l 0.00036621094 154.39978 l 0.00024414062 154.39978 l -232.99939 -40.799683 l -0.00061035156 72.10278 l 0.0 72.09607 l 0.0 -288.39603 l 0.0 72.09619 l -266.40894 216.30087 l -66.58807 0.0 l 266.39404 0.0 l -66.60596 0.0 l -66.58807 0.0 l -199.80573 0.0 l -66.5965 0.0 " /> </g> </svg>