<?xml version="1.0" standalone="no"?><!DOCTYPE svg PUBLIC "-//W3C//DTD SVG 1.1//EN" "http://www.w3.org/Graphics/SVG/1.1/DTD/svg11.dtd" ><svg xmlns="http://www.w3.org/2000/svg" xmlns:xlink="http://www.w3.org/1999/xlink" version="1.1" viewBox="-10 0 692 1000"><g transform="matrix(1 0 0 -1 0 800)"><path stroke="black" fill="none" d="M 979.0 804.0 l 63.80005 0.0 l -7.027954 139.37073 l 0.0 0.0 l 1.982666 0.37554932 l 132.64526 -139.74628 l 63.799927 0.0 l 81.170166 -29.25476 l 46.42993 29.25476 l 63.799927 0.0 l 63.80005 0.0 l 63.799927 0.0 l 63.80005 0.0 l 0.0 -5.0999756 l 0.0 -5.1000366 l 0.0 -5.0999756 l 0.0 -5.1000366 l 0.0 -5.0999756 l 0.0 -5.0999756 l 0.0 -5.1000366 l 0.0 -5.0999756 l 0.0 -5.1000366 l 0.0 -5.0999756 l 0.0 0.0 l -0.41003418 -34.400024 l -1.2299805 -33.599976 l -2.0500488 -32.799988 l -2.869995 -32.0 l -3.6899414 -31.200012 l -4.51001 -30.400024 l -5.329956 -29.599976 l -6.1500244 -28.799988 l -6.9699707 -28.0 l 0.0 0.0 l -8.550049 -24.640015 l -9.650024 -24.320007 l -10.75 -24.0 l -11.849976 -23.679993 l -12.949951 -23.359985 l -14.050049 -23.040009 l -15.150024 -22.720001 l -16.25 -22.399994 l -17.349976 -22.080017 l 0.0 0.0 l -44.170044 -45.979996 l -46.51001 -41.14 l -58.641235 -21.800507 l -41.39868 -45.959488 l -111.95325 -107.079926 l 0.0 0.0 l 130.0199 2.281824e-05 l 0.0 0.0 l -127.466675 58.6799 l -82.90857 31.863255 l -0.02758789 -2.4684906 l 31.396606 -88.036156 l 7.1257324 -0.019770026 l 0.0 0.0 l -137.23615 22.361156 l 0.0 0.0 l -63.870056 2.3400002 l -62.00995 7.0200005 l -60.150024 11.700001 l -58.289978 16.379997 l -56.429993 21.059998 l -54.570007 25.740005 l -52.710022 30.41999 l -50.849976 35.100006 l -307.93524 -172.13992 l 0.0 0.0 l 143.47852 -2.009183e-07 l 0.0 0.0 l -158.22757 151.64066 l 0.05632019 -0.008224487 l 214.19536 -15.623154 l -0.1234436 57.092407 l 0.0 0.0 l -6.93454 101.53105 l 1.9069519 65.94272 l -83.24637 54.38446 l -143.64441 -60.549652 l -0.23464966 -9.728119 l 97.67905 183.07779 l -16.169983 59.21997 l -76.3129 33.234802 l 57.832886 90.845215 l 0.0 0.0 l -58.2258 61.389587 l 67.62579 68.93042 l -66.013 83.05377 l 94.21301 39.1062 l 21.149994 58.02002 l -109.91986 58.96039 l 219.78531 114.30994 l 0.076416016 -2.1827393 l -226.885 151.46912 l 0.0 0.0 l 0.99263 -7.739746 l 34.46878 207.41101 l 0.0 0.0 l -31.255676 -0.028930664 l 0.0 0.0 l 152.25287 0.21398926 l 0.0 0.0 l 64.50638 -42.704224 l 0.0 0.0 l 6.451233 -167.83057 l 0.0 0.0 l -0.0859375 60.71106 l 119.29288 -76.309326 l 52.099976 35.25 l 54.140015 30.550049 l 56.179993 25.849976 l 58.21997 21.150024 l 60.26001 16.449951 l 62.299988 11.75 l 64.34003 7.050049 l 0.0 0.0 l 35.960022 -0.73999023 l 35.47998 -2.2199707 l 147.74567 81.02734 l 0.0 0.0 l -49.27417 -0.35021973 l 173.375 0.39282227 l 0.0 0.0 l -54.939697 0.0 l 0.0 0.0 l -148.9093 -194.2008 l -0.052734375 2.2077637 l 5.6922607 115.279175 l 96.56299 -37.656128 l 32.599976 -11.099976 l 32.119995 -12.580078 l 0.0 0.0 l 29.949951 -15.719971 l 35.29883 -2.0823975 l 2.552124 -142.81873 l 51.399048 86.70117 l 29.550049 -23.080078 l 29.449951 -24.919922 l 29.350098 -26.76001 l 29.25 -28.599976 l 29.149902 -30.440063 l -16.599976 -15.900024 l -16.599976 -15.899902 l -16.599976 -15.900024 l -16.599976 -15.900024 l -16.600098 -15.900024 l -16.599976 -15.900024 l -16.599976 -15.899902 l -16.599976 -15.900024 l -16.599976 -15.900024 l -47.857056 -119.05072 l 0.70910645 2.340088 l -4.040161 142.9383 l -44.731934 48.952393 l -42.150024 37.94995 l -43.809937 32.890015 l -85.37915 37.0365 l -16.506592 -190.00818 l -0.0041503906 2.2475586 l -0.31066895 94.92151 l 0.0 0.0 l -0.056518555 4.634033 l -89.58295 132.12854 l -52.110046 7.589966 l 0.0 0.0 l -48.20996 -1.6899414 l -46.630005 -5.0700684 l -45.049988 -8.449951 l -43.47003 -11.829956 l -41.890015 -15.210083 l -40.309998 -18.589966 l -38.72998 -21.96997 l -37.150024 -25.349976 l -35.569946 -28.72998 l 0.0 0.0 l -31.54004 -34.04004 l -28.220001 -35.71997 l -24.899994 -37.400024 l -61.989502 7.1046143 l -0.21246338 46.66272 l 0.0 0.0 l 305.40643 -159.36176 l 0.0 0.0 l -76.61127 -0.035461426 l 225.73712 -0.021240234 l 55.539978 0.0008544922 l 0.0 0.0 l -478.54254 -0.13067627 l 0.0 0.0 l -44.02774 -106.41907 l -4.980011 -47.48004 l 0.0 0.0 l 98.6337 -64.841736 l -2.660492 -0.022766113 l -81.509186 -10.236633 l 2.8625183 -62.78717 l 1.1109314 -69.79492 l 27.81253 -27.566711 l -24.638428 -45.639923 l 69.03842 -35.720093 l -64.594696 -36.86203 l 123.79468 -37.217987 l 0.0 0.0 l 34.890015 -29.450012 l 35.47003 -26.349976 l 36.049988 -23.25 l 36.630005 -20.150024 l 37.20996 -17.049988 l 37.79004 -13.949982 l 38.369995 -10.850021 l 38.950012 -7.75 l 39.52997 -4.649994 l 0.0 0.0 l 34.049988 1.1600037 l 33.350037 3.4799957 l 32.649963 5.800003 l 31.950012 8.12001 l 56.281616 22.863922 l 9.952393 -61.18129 l 1.0441895 132.50026 l 0.0018310547 -0.017669678 l 53.52002 -38.48523 l 28.449951 19.720001 l 0.0 0.0 l 139.7445 -22.627716 l -89.784546 71.2677 l 21.350098 25.700012 l 18.929932 26.619995 l 56.415405 26.54358 l -25.81543 29.45642 l 11.670044 29.380005 l 9.25 30.299988 l 8.484741 62.25757 l -40.154785 -31.037537 l -38.5 0.0 l -38.5 0.0 l -38.5 0.0 l -65.85791 -4.843689 l -11.330444 122.936035 l -0.00024414062 2.045105 l -0.09729004 -217.30078 l 0.013061523 2.5615845 l -76.72711 94.601746 l -38.5 0.0 l -38.5 0.0 l 0.0 21.899963 l 0.0 21.900024 l 0.0 21.899963 l 0.0 21.900024 l -152.81439 49.050293 l 0.0 0.0 l 185.91357 0.6524658 l -55.244446 0.034423828 l 0.0 0.0 l -274.4958 0.016357422 l -2.4608154 -0.0005493164 l 299.10187 37.846985 l 0.0 21.900024 l 0.0 21.900024 " /> </g> </svg>