<?xml version="1.0" standalone="no"?><!DOCTYPE svg PUBLIC "-//W3C//DTD SVG 1.1//EN" "http://www.w3.org/Graphics/SVG/1.1/DTD/svg11.dtd" ><svg xmlns="http://www.w3.org/2000/svg" xmlns:xlink="http://www.w3.org/1999/xlink" version="1.1" viewBox="-10 0 692 1000"><g transform="matrix(1 0 0 -1 0 800)"><path stroke="black" fill="none" d="M 1017.44293 940.007 l 66.112976 0.0036010742 l 233.32837 -168.00732 l 0.018676758 -617.6302 l -121.542725 -154.38998 l -16.463745 -9.458745e-11 l -24.901245 1.4915713e-09 l 97.840454 -1.5716068e-09 l 14.795776 -1.3096724e-10 l -41.965088 3.0559022e-10 l 70.40137 4.438334e-09 l 20.996338 -1.4115358e-09 l -232.16626 143.80511 l -0.00024414062 -71.58078 l 1.5009766 -72.224304 l 21.091675 -6.8716035e-06 l 23.947876 0.00011780266 l -943.96967 -0.0001381199 l 21.176987 0.0 l 88.57785 -7.275958e-12 l -16.623749 0.0 l -29.755966 0.0 l -16.218231 0.0 l 92.58598 0.0 l 21.116913 0.0 l 29.138489 -7.275958e-12 l 16.622375 0.0 l 23.793274 0.0 l -231.84702 154.37968 l 232.86203 -81.80936 l -0.0010681152 72.93544 l -3.0517578e-05 70.36716 l -0.050842285 72.57295 l 0.014038086 72.05466 l -232.95505 101.898834 l -0.0017242432 -153.33533 l 0.038238525 308.55515 l -0.00289917 154.3841 l 0.011871338 154.3822 l 0.04006958 154.41241 l 232.90273 160.85486 l 0.00064086914 -59.962402 l -232.95506 207.57483 l 0.00730896 -153.32056 l 71.2995 308.05518 l 20.871643 0.0 l -45.353836 0.0 l -24.00151 -0.00036621094 l -22.552185 0.00012207031 l 204.2153 0.00036621094 l -16.623108 0.0 l -23.842804 0.0 l -25.724762 0.0 l -20.953491 0.0 l 115.599945 -1.105835 l 0.002380371 -58.93274 l 0.013885498 -122.253174 l -6.1035156e-05 -58.899414 l 6.1035156e-05 120.177246 l 714.14624 121.013916 l 21.158203 0.0 l 23.599731 -0.00012207031 l -91.402466 -0.00012207031 l 21.09021 0.0 l 208.85498 0.00024414062 l -21.163208 0.0 l -25.354126 0.0 l -20.990479 0.0 l -46.968018 0.0 l 22.60205 0.0 l -139.57117 -241.25122 l -0.00036621094 59.96289 l 0.0028076172 64.17749 l -0.0009765625 55.536377 l 232.99243 -92.8363 l 0.018798828 -154.31458 l 0.006591797 -308.8034 l -0.024536133 154.33295 l -232.87537 161.16772 l -0.12158203 -241.22028 l 0.0 59.963562 l -0.002319336 60.662598 l -0.00036621094 59.989502 l -665.99524 -180.58197 l -0.0019836426 61.116394 l -3.0517578e-05 58.92395 l 332.79742 -180.82526 l -70.43048 -0.0004272461 l -61.265564 0.0 l 198.90332 0.0 l 67.405334 0.0 l 64.98926 0.0 l -532.39026 0.0 l 0.0 0.0 l 0.00015258789 0.0 l 0.00061035156 0.0 l 70.605194 -6.1035156e-05 l 61.22287 6.1035156e-05 l 0.9795532 -218.99896 l -66.12451 -0.00018310547 l -66.71466 -0.07537842 l 0.021087646 -72.03143 l 0.008148193 -72.08307 l 0.023376465 -72.10809 l 0.032714844 -72.10358 l 665.8599 -144.23709 l 0.07324219 -72.01965 l 0.0076904297 144.11389 l 232.91699 -51.6243 l 0.05078125 154.36862 l 0.026489258 154.37784 l -232.91553 -40.763794 l -0.08337402 72.47412 l 0.0 71.57184 l -0.0007324219 -287.86414 l 0.00012207031 71.58234 l -267.60577 216.41931 l -64.98303 0.00024414062 l 265.5912 0.001159668 l -67.410706 0.00030517578 l -64.987366 6.1035156e-05 l -200.57788 0.0 l -66.12152 0.0 " /> </g> </svg>