<?xml version="1.0" standalone="no"?><!DOCTYPE svg PUBLIC "-//W3C//DTD SVG 1.1//EN" "http://www.w3.org/Graphics/SVG/1.1/DTD/svg11.dtd" ><svg xmlns="http://www.w3.org/2000/svg" xmlns:xlink="http://www.w3.org/1999/xlink" version="1.1" viewBox="-10 0 692 1000"><g transform="matrix(1 0 0 -1 0 800)"><path stroke="black" fill="none" d="M 1017.40106 940.0002 l 66.58783 6.1035156e-05 l 233.0083 -168.00012 l 0.00036621094 -617.6007 l -116.62671 -154.39975 l -23.128174 -7.275958e-12 l -23.34021 4.3655746e-11 l 93.31653 -4.3655746e-11 l 23.086426 0.0 l -46.483643 7.275958e-12 l 69.9126 1.09139364e-10 l 23.242188 -3.6379788e-11 l -232.97913 144.19008 l 0.0 -72.08696 l 0.037719727 -72.10312 l 23.244507 -1.7265847e-07 l 23.316284 2.9599396e-06 l -945.559 -3.4704353e-06 l 23.246658 0.0 l 93.08386 0.0 l -23.132233 0.0 l -23.46222 0.0 l -23.12207 0.0 l 93.18454 0.0 l 23.245178 0.0 l 23.446686 0.0 l 23.132233 0.0 l 23.312378 0.0 l -232.97102 154.39949 l 232.99654 -82.287674 l -3.0517578e-05 72.12099 l 0.0 72.05647 l -0.0012817383 72.11189 l 0.00036621094 72.098816 l -232.99889 102.6799 l -3.0517578e-05 -154.37329 l 0.0009613037 308.79385 l -7.6293945e-05 154.3996 l 0.000289917 154.39954 l 0.0010070801 154.40039 l 232.99756 161.19128 l 3.0517578e-05 -60.389038 l -232.99889 207.98926 l 0.00018310547 -154.3728 l 69.93518 308.78125 l 23.238998 0.0 l -46.56871 0.0 l -23.317627 0.0 l -23.28122 0.0 l 209.56221 0.0 l -23.132263 0.0 l -23.31363 0.0 l -23.360931 0.0 l -23.241028 0.0 l 116.47739 -0.027832031 l 6.1035156e-05 -60.36316 l 0.00033569336 -120.836426 l 0.0 -60.362305 l 0.0 120.7843 l 712.6388 120.80542 l 23.246338 0.0 l 23.307373 0.0 l -93.154785 0.0 l 23.244385 0.0 l 209.67883 0.0 l -23.246338 0.0 l -23.351562 0.0 l -23.241943 0.0 l -46.609253 0.0 l 23.282349 0.0 l -139.79407 -241.59119 l -0.00012207031 60.389038 l 0.00012207031 60.49475 l 0.0 60.277832 l 232.99976 -93.9707 l 0.00048828125 -154.39783 l 0.00012207031 -308.8001 l -0.00061035156 154.39838 l -232.99683 161.1991 l -0.0030517578 -241.5904 l 0.0 60.388977 l 0.0 60.406616 l -0.00012207031 60.38965 l -665.9998 -181.18439 l -6.1035156e-05 60.41803 l 0.0 60.362793 l 332.99493 -181.19055 l -66.69623 0.0 l -66.466 0.0 l 199.77747 0.0 l 66.62024 0.0 l 66.55951 0.0 l -532.7899 0.0 l 0.0 0.0 l 0.0 0.0 l 0.0 0.0 l 66.7009 0.0 l 66.464874 0.0 l 0.024658203 -218.99994 l -66.58807 0.0 l -66.602905 -0.0018920898 l 0.0005493164 -72.098206 l 0.00018310547 -72.09967 l 0.000579834 -72.10016 l 0.0008239746 -72.1001 l 665.99646 -144.2009 l 0.0018310547 -72.09799 l 0.00024414062 144.19781 l 232.99792 -51.69812 l 0.0012207031 154.39926 l 0.0007324219 154.39938 l -232.99792 -40.799072 l -0.0020751953 72.109436 l 0.0 72.08673 l 0.0 -288.38654 l 0.0 72.086975 l -266.43036 216.30298 l -66.559326 0.0 l 266.37964 6.1035156e-05 l -66.62036 0.0 l -66.55945 0.0 l -199.81952 0.0 l -66.58801 0.0 " /> </g> </svg>