<?xml version="1.0" standalone="no"?><!DOCTYPE svg PUBLIC "-//W3C//DTD SVG 1.1//EN" "http://www.w3.org/Graphics/SVG/1.1/DTD/svg11.dtd" ><svg xmlns="http://www.w3.org/2000/svg" xmlns:xlink="http://www.w3.org/1999/xlink" version="1.1" viewBox="-10 0 692 1000"><g transform="matrix(1 0 0 -1 0 800)"><path stroke="black" fill="none" d="M 1017.41254 940.0021 l 66.45734 0.0010375977 l 233.09619 -168.00208 l 0.005493164 -617.6088 l -117.97693 -154.39706 l -21.29773 -2.910383e-11 l -23.769043 4.3655746e-10 l 94.559204 -4.5838533e-10 l 20.809204 -4.3655746e-11 l -45.242554 9.458745e-11 l 70.046875 1.2951205e-09 l 22.625244 -4.0745363e-10 l -232.75574 144.08434 l -0.00012207031 -71.94792 l 0.43969727 -72.136406 l 22.653076 -2.0126463e-06 l 23.489868 3.4503602e-05 l -945.1225 -4.0454383e-05 l 22.678177 0.0 l 91.84622 -7.275958e-12 l -21.344574 0.0 l -25.190918 0.0 l -21.2258 0.0 l 93.02014 0.0 l 22.660614 0.0 l 25.01004 0.0 l 21.344177 0.0 l 23.444489 0.0 l -232.66231 154.39404 l 232.95958 -82.15629 l -0.00030517578 72.34469 l 0.0 71.59247 l -0.014892578 72.238525 l 0.0040893555 72.0867 l -232.98682 102.46536 l -0.0005187988 -154.0882 l 0.011199951 308.72827 l -0.0008392334 154.39539 l 0.003479004 154.39478 l 0.011734009 154.40363 l 232.9715 161.09888 l 0.00018310547 -60.27185 l -232.98682 207.87549 l 0.0021362305 -154.08374 l 70.309906 308.5818 l 22.588745 0.0 l -46.235 0.0 l -23.505478 -0.00012207031 l -23.080963 0.0 l 208.09357 0.00012207031 l -21.34439 0.0 l -23.458984 0.0 l -24.010193 0.0 l -22.612732 0.0 l 116.23639 -0.32385254 l 0.0007019043 -59.970337 l 0.004058838 -121.225586 l 0.0 -59.96045 l 0.0 120.61755 l 713.05286 120.86267 l 22.67273 0.0 l 23.387695 0.0 l -92.67346 -0.00012207031 l 22.65271 0.0 l 209.45251 0.00012207031 l -22.674194 0.0 l -23.90149 0.0 l -22.623657 0.0 l -46.707764 0.0 l 23.095581 0.0 l -139.73291 -241.4978 l -0.00012207031 60.271973 l 0.0007324219 61.506348 l -0.00024414062 58.975464 l 232.9978 -93.65918 l 0.005493164 -154.37488 l 0.001953125 -308.80103 l -0.0072021484 154.38037 l -232.9635 161.19055 l -0.03564453 -241.48883 l 0.0 60.272156 l -0.00061035156 60.47693 l -0.00012207031 60.279785 l -665.99866 -181.01898 l -0.000579834 60.609802 l 0.0 59.96765 l 332.94067 -181.09021 l -67.721924 -0.00012207031 l -65.0376 0.0 l 199.53735 0.0 l 66.83588 0.0 l 66.128235 0.0 l -532.6819 0.0 l 0.0 0.0 l 3.0517578e-05 0.0 l 0.0 0.0 l 67.77521 0.0 l 65.025055 0.0 l 0.28692627 -218.99963 l -66.460724 -6.1035156e-05 l -66.633606 -0.022094727 l 0.0061950684 -72.079895 l 0.002380371 -72.09509 l 0.0068359375 -72.102325 l 0.0095825195 -72.10104 l 665.959 -144.21085 l 0.021484375 -72.07649 l 0.0021972656 144.17476 l 232.97571 -51.677826 l 0.014892578 154.39084 l 0.0076904297 154.39346 l -232.97522 -40.789368 l -0.024414062 72.209595 l 0.0 71.94531 l -0.00024414062 -288.24307 l 0.00012207031 71.948395 l -266.75323 216.33496 l -66.1264 6.1035156e-05 l 266.1631 0.00030517578 l -66.8374 0.00012207031 l -66.127686 0.0 l -200.02783 0.0 l -66.45984 0.0 " /> </g> </svg>