<?xml version="1.0" standalone="no"?><!DOCTYPE svg PUBLIC "-//W3C//DTD SVG 1.1//EN" "http://www.w3.org/Graphics/SVG/1.1/DTD/svg11.dtd" ><svg xmlns="http://www.w3.org/2000/svg" xmlns:xlink="http://www.w3.org/1999/xlink" version="1.1" viewBox="-10 0 692 1000"><g transform="matrix(1 0 0 -1 0 800)"><path stroke="black" fill="none" d="M 1017.901 940.0819 l 0.583374 0.095336914 l 60.338806 -0.053710938 l 236.82727 -168.08582 l 0.21875 -617.95215 l -135.41809 -154.28328 l 0.0 0.0 l -25.441895 4.780304e-09 l 0.010498047 1.0186341e-10 l 94.17908 -9.255018e-09 l 0.0 0.0 l -15.299072 -7.1668182e-09 l 75.74402 5.1790266e-08 l 0.48449707 -4.263711e-09 l -227.31982 139.59697 l -0.0025634766 -66.047615 l 17.497437 -73.549034 l 0.6158447 -3.2033713e-05 l 27.793945 0.0013251407 l -0.03161621 7.536332e-05 l -926.5641 -0.0016854065 l 0.77568054 -2.910383e-11 l 71.03175 1.4551915e-11 l 0.0 0.0 l -33.562805 -3.6379788e-11 l 0.0 0.0 l 100.88965 -5.0931703e-11 l 0.6575012 -1.4551915e-11 l 54.527924 -8.731149e-11 l 0.0 0.0 l 8.534851 0.0 l -219.55975 154.16328 l 231.39166 -76.580734 l -0.012512207 81.83864 l -0.00015258789 51.900406 l -0.5928345 77.61311 l 0.16360474 71.57175 l -232.47592 93.36087 l -0.020126343 -141.98914 l 0.445755 305.94608 l -0.033706665 154.2143 l 0.13835144 154.19269 l 0.46694946 154.54468 l 231.86636 157.17749 l 0.0074157715 -55.298706 l -232.47627 203.04333 l 0.109191895 -0.8687744 l -0.024047852 -140.9497 l 86.21385 300.1189 l 0.3527832 0.00012207031 l -37.43361 -0.00036621094 l -31.477402 -0.004638672 l -14.582809 0.0025634766 l 179.74498 0.0037841797 l 0.0 0.0 l -9.075043 0.0 l -51.565094 -0.00012207031 l -0.43515015 0.0 l 110.49637 -12.889893 l 0.027496338 -43.297363 l 0.16177368 -137.73926 l -0.00045776367 -42.90735 l 0.00079345703 113.54175 l 730.6249 123.292114 l 0.73461914 0.0 l 24.393066 -0.0008544922 l -72.24744 -0.0021972656 l 0.61376953 0.00024414062 l 196.77637 0.0029296875 l -0.7451172 0.0 l -44.890503 0.0 l -0.47729492 0.0 l -46.79126 0.0 l 15.165527 0.0 l -137.13342 -237.53381 l -0.005004883 55.3042 l 0.033447266 104.43494 l -0.01159668 3.7103271 l 232.91211 -80.44031 l 0.21887207 -153.40637 l 0.076538086 -308.83862 l -0.2857666 153.61755 l -231.54773 160.82495 l -1.4160156 -237.17407 l -0.00036621094 55.312744 l -0.026611328 63.461792 l -0.0030517578 0.25769043 l -0.0018310547 55.356567 l -665.94446 -173.99622 l -0.023254395 68.75049 l -0.00033569336 43.195923 l 330.63818 -176.83301 l -0.32861328 0.0006713867 l -110.92285 -0.0052490234 l -4.4179077 -6.1035156e-05 l 189.349 -0.00018310547 l 75.98718 6.1035156e-05 l 47.82428 0.0 l -526.87305 -0.00030517578 l 0.0 0.0 l 0.1211853 0.0 l 112.0249 -6.1035156e-05 l 3.923523 6.1035156e-05 l 11.414856 -218.98865 l -61.057526 -0.0020751953 l -67.93634 -0.87805176 l 0.24557495 -71.301025 l 0.09527588 -71.90228 l 0.27230835 -72.19495 l 0.38119507 -72.14136 l 664.3671 -144.63269 l 0.85388184 -71.16333 l 0.08947754 143.19629 l 232.0321 -50.81729 l 0.59277344 154.03381 l 0.3079834 154.14212 l -232.01453 -40.37805 l -0.9720459 76.46106 l 0.0 65.94299 l -0.008300781 -282.1534 l 0.0012207031 66.06564 l -280.45514 217.69122 l -47.752136 0.0028686523 l 256.97223 0.0134887695 l -76.05005 0.0036621094 l -47.802612 6.1035156e-05 l -208.86761 0.00061035156 l -61.02191 -6.1035156e-05 " /> </g> </svg>