<?xml version="1.0" standalone="no"?><!DOCTYPE svg PUBLIC "-//W3C//DTD SVG 1.1//EN" "http://www.w3.org/Graphics/SVG/1.1/DTD/svg11.dtd" ><svg xmlns="http://www.w3.org/2000/svg" xmlns:xlink="http://www.w3.org/1999/xlink" version="1.1" viewBox="-10 0 692 1000"><g transform="matrix(1 0 0 -1 0 800)"><path stroke="black" fill="none" d="M 418.0 927.5667 l 66.600006 9.616638 l 66.600006 0.0 l 66.599976 0.0 l 66.60004 0.0 l 66.599976 0.0 l 66.599976 0.0 l 66.60004 0.0 l 66.599976 0.0 l 66.599976 0.0 l 66.60004 0.0 l 0.0 60.400024 l 0.0 60.400024 l 0.0 60.399902 l 0.0 60.400024 l 0.0 60.400024 l 0.0 60.400024 l 0.0 60.400024 l 0.0 60.399902 l 0.0 60.400024 l 0.0 60.400024 l 23.299927 0.0 l 23.300049 0.0 l 23.300049 0.0 l 23.299927 0.0 l 23.300049 0.0 l 23.299927 0.0 l 23.300049 0.0 l 23.300049 0.0 l 23.299927 0.0 l 23.300049 0.0 l 0.0 -154.40002 l 0.0 -154.3999 l 0.0 -154.40002 l 0.0 -154.40002 l 0.0 -154.39996 l 0.0 -154.40002 l 0.0 -154.39996 l 0.0 -154.40002 l 0.0 -154.39998 l 0.0 -154.4 l -23.300049 0.0 l -23.299927 0.0 l -23.300049 0.0 l -23.300049 0.0 l -23.299927 0.0 l -23.300049 0.0 l -23.299927 0.0 l -23.300049 0.0 l -23.300049 0.0 l -23.299927 0.0 l 0.0 72.1 l 0.0 72.1 l 0.0 72.100006 l 0.0 72.100006 l 0.0 72.099976 l 0.0 72.100006 l 0.0 72.100006 l 0.0 72.099976 l 0.0 72.10004 l 0.0 72.099976 l -66.60004 0.0 l -66.599976 0.0 l -66.599976 0.0 l -66.60004 0.0 l -66.599976 0.0 l -66.599976 0.0 l -66.60004 0.0 l -66.599976 0.0 l -66.600006 0.0 l -66.600006 36.062378 l 0.0 -130.29486 l 0.0 -49.96753 l 0.0 -72.099976 l 0.0 -50.462555 l 0.0 -93.73746 l 0.0 -57.67502 l 0.0 -86.52496 l 0.0 -64.88753 l 0.0 -79.31248 l 0.0 -72.100006 l -23.299988 0.0 l -23.300018 0.0 l -23.299988 0.0 l -23.300018 0.0 l -23.299988 0.0 l -23.299988 0.0 l -23.300003 0.0 l -23.300003 0.0 l -23.300003 0.0 l -23.300003 0.0 l 0.0 154.4 l 0.0 154.4 l 0.0 154.4 l 0.0 154.4 l 0.0 154.39996 l 0.0 154.40002 l 0.0 154.40002 l 0.0 154.3999 l 0.0 154.40002 l 0.0 154.40002 l 23.300003 0.0 l 23.300003 0.0 l 23.300003 0.0 l 23.300003 0.0 l 23.299988 0.0 l 23.299988 0.0 l 23.300018 0.0 l 23.299988 0.0 l 23.300018 0.0 l 23.299988 0.0 l 0.0 0.0 l 0.0 -60.400024 l 0.0 -60.400024 l 0.0 -41.449463 l 0.0 -79.350464 l 0.0 -65.208374 l 0.0 -55.591675 l 0.0 -60.400024 l 0.0 -46.257812 l 0.0 -74.542114 l 0.0 -60.400024 " /> </g> </svg>