<?xml version="1.0" standalone="no"?><!DOCTYPE svg PUBLIC "-//W3C//DTD SVG 1.1//EN" "http://www.w3.org/Graphics/SVG/1.1/DTD/svg11.dtd" ><svg xmlns="http://www.w3.org/2000/svg" xmlns:xlink="http://www.w3.org/1999/xlink" version="1.1" viewBox="-10 0 692 1000"><g transform="matrix(1 0 0 -1 0 800)"><path stroke="black" fill="none" d="M 418.0 926.4001 l 0.0 -154.40106 l 0.0 -154.39868 l 0.0 -154.40097 l 0.0 -154.39984 l 0.0 -154.39983 l 0.0 -154.39983 l -23.299988 0.0 l -23.300018 0.0 l -23.299988 0.0 l -23.300018 0.0 l -23.299988 0.0 l -23.299988 0.0 l -23.300003 0.0 l -23.300003 0.0 l -23.300003 0.0 l -23.300003 0.0 l 0.0 154.4 l 0.0 154.4 l 0.0 154.4 l 0.0 154.4 l 0.0 154.39996 l 0.0 154.40002 l 0.0 154.40002 l 0.0 154.3999 l 0.0 154.40002 l 0.0 154.40002 l 23.300003 0.0 l 23.300003 0.0 l 23.300003 0.0 l 23.300003 0.0 l 23.299988 0.0 l 23.299988 0.0 l 23.300018 0.0 l 23.299988 0.0 l 23.300018 0.0 l 23.299988 0.0 l 0.0 0.0 l 0.0 0.0 l 0.0 0.0 l 0.0 -154.40051 l 0.0 -154.39941 l 0.0 -154.40039 " /> </g> </svg>