<?xml version="1.0" standalone="no"?><!DOCTYPE svg PUBLIC "-//W3C//DTD SVG 1.1//EN" "http://www.w3.org/Graphics/SVG/1.1/DTD/svg11.dtd" ><svg xmlns="http://www.w3.org/2000/svg" xmlns:xlink="http://www.w3.org/1999/xlink" version="1.1" viewBox="-10 0 692 1000"><g transform="matrix(1 0 0 -1 0 800)"><path stroke="black" fill="none" d="M 418.0 926.5001 l 0.0 -156.0232 l 0.0 -152.33209 l 0.0 -155.95529 l 0.0 -154.1437 l 0.0 -154.1437 l 0.0 -154.1437 l -23.299988 0.0 l -23.300018 0.0 l -23.299988 0.0 l -23.300018 0.0 l -23.299988 0.0 l -23.299988 0.0 l -23.300003 0.0 l -23.300003 0.0 l -23.300003 0.0 l -23.300003 0.0 l 0.0 154.4 l 0.0 154.4 l 0.0 154.4 l 0.0 154.4 l 0.0 154.39996 l 0.0 154.40002 l 0.0 154.40002 l 0.0 154.3999 l 0.0 154.40002 l 0.0 154.40002 l 23.300003 0.0 l 23.300003 0.0 l 23.300003 0.0 l 23.300003 0.0 l 23.299988 0.0 l 23.299988 0.0 l 23.300018 0.0 l 23.299988 0.0 l 23.300018 0.0 l 23.299988 0.0 l 0.0 0.0 l 0.0 0.0 l 0.0 0.0 l 0.0 -155.07336 l 0.0 -153.55579 l 0.0 -155.07336 " /> </g> </svg>