<?xml version="1.0" standalone="no"?><!DOCTYPE svg PUBLIC "-//W3C//DTD SVG 1.1//EN" "http://www.w3.org/Graphics/SVG/1.1/DTD/svg11.dtd" ><svg xmlns="http://www.w3.org/2000/svg" xmlns:xlink="http://www.w3.org/1999/xlink" version="1.1" viewBox="-10 0 692 1000"><g transform="matrix(1 0 0 -1 0 800)"><path stroke="black" fill="none" d="M 418.0 926.74176 l 66.600006 12.433289 l 66.600006 0.0 l 66.599976 0.0 l 66.60004 0.0 l 66.599976 0.0 l 66.599976 0.0 l 66.60004 0.0 l 66.599976 0.0 l 66.599976 0.0 l 66.60004 0.0 l 0.0 60.400024 l 0.0 60.400024 l 0.0 60.399902 l 0.0 60.400024 l 0.0 60.400024 l 0.0 60.400024 l 0.0 60.400024 l 0.0 60.399902 l 0.0 60.400024 l 0.0 60.400024 l 23.299927 0.0 l 23.300049 0.0 l 23.300049 0.0 l 23.299927 0.0 l 23.300049 0.0 l 23.299927 0.0 l 23.300049 0.0 l 23.300049 0.0 l 23.299927 0.0 l 23.300049 0.0 l 0.0 -154.40002 l 0.0 -154.3999 l 0.0 -154.40002 l 0.0 -154.40002 l 0.0 -154.39996 l 0.0 -154.40002 l 0.0 -154.39996 l 0.0 -154.40002 l 0.0 -154.39998 l 0.0 -154.4 l -23.300049 0.0 l -23.299927 0.0 l -23.300049 0.0 l -23.300049 0.0 l -23.299927 0.0 l -23.300049 0.0 l -23.299927 0.0 l -23.300049 0.0 l -23.300049 0.0 l -23.299927 0.0 l 0.0 72.1 l 0.0 72.1 l 0.0 72.100006 l 0.0 72.100006 l 0.0 72.099976 l 0.0 72.100006 l 0.0 72.100006 l 0.0 72.099976 l 0.0 72.10004 l 0.0 72.099976 l -66.60004 0.0 l -66.599976 0.0 l -66.599976 0.0 l -66.60004 0.0 l -66.599976 0.0 l -66.599976 0.0 l -66.60004 0.0 l -66.599976 0.0 l -66.600006 0.0 l -66.600006 46.624817 l 0.0 -147.33972 l 0.0 -43.485107 l 0.0 -72.099976 l 0.0 -44.12509 l 0.0 -100.07492 l 0.0 -53.450043 l 0.0 -90.74994 l 0.0 -62.77504 l 0.0 -81.424965 l 0.0 -72.10001 l -23.299988 0.0 l -23.300018 0.0 l -23.299988 0.0 l -23.300018 0.0 l -23.299988 0.0 l -23.299988 0.0 l -23.300003 0.0 l -23.300003 0.0 l -23.300003 0.0 l -23.300003 0.0 l 0.0 154.4 l 0.0 154.4 l 0.0 154.4 l 0.0 154.4 l 0.0 154.39996 l 0.0 154.40002 l 0.0 154.40002 l 0.0 154.3999 l 0.0 154.40002 l 0.0 154.40002 l 23.300003 0.0 l 23.300003 0.0 l 23.300003 0.0 l 23.300003 0.0 l 23.299988 0.0 l 23.299988 0.0 l 23.300018 0.0 l 23.299988 0.0 l 23.300018 0.0 l 23.299988 0.0 l 0.0 0.0 l 0.0 0.0 l 0.0 -60.400024 l 0.0 -60.400024 l 0.0 -35.899048 l 0.0 -84.90088 l 0.0 -66.6167 l 0.0 -54.18335 l 0.0 -60.400024 l 0.0 -42.1156 l 0.0 -78.684326 l 0.0 -60.400024 " /> </g> </svg>