<?xml version="1.0" standalone="no"?><!DOCTYPE svg PUBLIC "-//W3C//DTD SVG 1.1//EN" "http://www.w3.org/Graphics/SVG/1.1/DTD/svg11.dtd" ><svg xmlns="http://www.w3.org/2000/svg" xmlns:xlink="http://www.w3.org/1999/xlink" version="1.1" viewBox="-10 0 692 1000"><g transform="matrix(1 0 0 -1 0 800)"><path stroke="black" fill="none" d="M 570.4934 1510.89 l 23.165588 0.0 l 46.49701 0.0 l -22.844421 0.0 l -70.46277 0.0 l -23.23175 0.0 l -23.562653 0.0 l -23.221497 0.0 l 178.0864 -66.93567 l 0.0 -99.70337 l 55.712036 166.63916 l -23.671509 -0.00012207031 l -22.837463 0.0 l -9.202881 33.089233 l -178.14017 -232.90259 l 0.0 -99.882324 l 178.13962 -66.74963 l 0.00012207031 99.84119 l 0.00018310547 -199.7992 l 6.1035156e-05 -99.882324 l -178.13998 -33.099854 l 3.0517578e-05 99.92993 l 0.0 99.8407 l -3.0517578e-05 -499.47888 l 3.0517578e-05 100.03937 l 0.0 99.7052 l 178.14001 -166.59534 l 0.0 99.84204 l 0.0 99.90344 l -181.49884 -402.14032 l 2.1007996 33.535736 l 1.2572937 35.78299 l -6.301117 -100.49344 l -3.7773132 -28.759705 l 188.21918 162.38376 l 0.0 0.0 l 0.0 0.0 l 0.0 0.0 l -0.24993896 -34.88434 l -5.996338 -121.31979 l 2.2450562 27.549652 l 1.7531738 29.493591 l 1.2471924 31.179443 l -191.84079 -120.835266 l -5.4565735 -24.04486 l -31.339142 -71.454315 l 9.917358 13.425873 l 0.0 0.0 l 0.0 0.0 l 0.0 0.0 l 7.9913635 17.010925 l 7.1216736 19.290283 l 188.58939 6.3451233 l -4.232361 -20.246124 l 0.0 0.0 l 0.0 0.0 l 0.0 3.0517578e-05 l -5.342102 -19.66098 l 13.341858 62.142242 l 3.2477417 23.951263 l -22.684631 -105.29385 l -6.697876 -18.307663 l -7.4780884 -17.898758 l -8.128479 -17.164612 l -89.43591 -111.96641 l 25.663086 23.27465 l 24.164368 26.033905 l 0.0 0.0 l 0.0 0.0 l 6.1035156e-05 1.5258789e-05 l 10.9436035 14.721573 l 10.271423 15.38382 l 9.524414 15.927063 l -136.48615 -133.70418 l 28.699463 17.79728 l -58.949005 -32.873558 l -64.99097 -21.906834 l 33.20877 9.569483 l -68.061646 -16.434849 l -36.320007 -4.1098404 l 0.0 0.0 l 0.0 0.0 l 0.0 0.0 l -57.59407 3.0363321 l 28.566055 -2.2749038 l -84.71884 11.396088 l 27.849243 -5.316043 l -82.449295 20.514511 l 27.090454 -8.353977 l -83.29157 82.46614 l 11.315643 19.752762 l 11.419945 19.934807 l -45.578262 -79.56458 l 11.372131 19.852013 l 14.620453 -32.820946 l 26.289726 -11.373993 l 38.892708 183.50183 l -11.391335 -19.884872 l -11.408318 -19.91452 l -11.390778 -19.883896 l 201.08565 43.063293 l 0.0 0.0 l -3.0517578e-05 0.0 l -3.0517578e-05 0.0 l -15.098267 1.7064514 l 35.240448 -0.9163208 l 18.926056 2.3762512 l 17.55127 3.9389648 l 16.362366 5.5447845 l 14.996246 7.0894623 l 26.031769 18.780655 l -12.1631775 -10.009277 l -229.01955 17.07341 l 16.626266 -9.664551 l -44.922684 0.64468384 l 11.379791 19.865433 l 0.0 0.0 l 0.0 0.0 l 0.0 0.0 l 113.5215 -51.847153 l -15.445328 3.9580078 l -15.809692 5.134308 l -32.1678 13.644348 l 16.099167 -7.3502655 l 254.83394 1180.9062 " /> </g> </svg>