<?xml version="1.0" standalone="no"?><!DOCTYPE svg PUBLIC "-//W3C//DTD SVG 1.1//EN" "http://www.w3.org/Graphics/SVG/1.1/DTD/svg11.dtd" ><svg xmlns="http://www.w3.org/2000/svg" xmlns:xlink="http://www.w3.org/1999/xlink" version="1.1" viewBox="-10 0 692 1000"><g transform="matrix(1 0 0 -1 0 800)"><path stroke="black" fill="none" d="M 570.84924 1510.89 l 3.7546387 0.0 l 16.913452 0.0 l 43.26831 0.0 l -16.924316 0.0 l -73.26282 0.0 l -21.43811 0.0 l -25.29654 0.0 l -21.319275 0.0 l 177.51474 -68.48718 l 0.00030517578 -97.60828 l 54.13568 166.09717 l -26.56549 -0.0015869141 l -16.842346 0.0 l -10.725647 32.86743 l -178.14172 -232.82324 l 3.0517578e-05 -99.69263 l 178.1354 -66.32117 l 0.0010986328 99.21423 l 0.0025024414 -199.7904 l 0.00018310547 -99.69281 l -178.13928 -32.992065 l 0.00033569336 100.248535 l 0.0 99.20856 l -0.00024414062 -499.25305 l 0.0002746582 101.52405 l 0.0 97.629944 l 178.13995 -165.58655 l 0.0 99.22394 l -0.00024414062 99.93939 l -181.48605 -401.82297 l 2.109314 33.916504 l 1.2284546 34.961914 l -6.313141 -100.423584 l -3.7488403 -28.543213 l 188.21057 162.31638 l 0.0 0.0 l 0.0 0.0 l 0.0 -6.1035156e-05 l -0.24957275 -34.822998 l -5.9572754 -120.89166 l 2.192749 26.90683 l 1.7866821 30.171326 l 1.2171631 30.427551 l -191.84897 -120.678406 l -5.4202576 -23.883453 l -31.329468 -71.50058 l 9.887878 13.380798 l 0.0 0.0 l 0.0 -3.0517578e-05 l -3.0517578e-05 -3.0517578e-05 l 8.113525 17.341553 l 6.926361 18.760864 l 188.47607 5.653595 l -0.042907715 -0.20407104 l -3.9957886 -19.120941 l 0.0 0.0 l 0.00012207031 0.0007019043 l -5.263733 -19.379303 l 13.255615 61.846405 l 3.2233276 23.751587 l -23.05304 -106.1875 l -6.1428833 -16.790802 l -7.77771 -18.63147 l -7.899353 -16.680862 l -89.391846 -112.03463 l 25.48285 23.111015 l 24.214233 26.080246 l 0.0 0.0 l 6.1035156e-05 9.1552734e-05 l 0.00030517578 0.00035095215 l 10.872986 14.626648 l 10.499573 15.744354 l 9.250977 15.469559 l -136.23181 -133.42903 l 28.480927 17.661682 l -58.83194 -32.804893 l -64.46884 -21.766523 l 32.44989 9.35084 l -67.86603 -16.37996 l -36.319855 -4.1081333 l 0.0 0.0 l 0.0 0.0 l 0.0 0.0 l -57.104767 2.9972477 l 27.8844 -2.2205977 l -84.3864 11.354393 l 27.627838 -5.273864 l -82.2286 20.456024 l 26.882118 -8.289789 l -82.562325 83.59734 l 10.416748 18.183632 l 11.632469 20.305756 l -45.34666 -79.187195 l 11.075123 19.340652 l 15.158096 -32.831066 l 25.647469 -11.096802 l 39.02806 183.30829 l -11.298912 -19.723541 l -11.497002 -20.069336 l -11.292458 -19.71225 l 200.97665 42.998856 l 0.0 0.0 l -0.002319336 0.0002593994 l -0.27075195 0.030776978 l -14.425354 1.6305542 l 34.71283 -0.877182 l 19.416656 2.4429474 l 17.031921 3.8213806 l 16.81369 5.7023315 l 14.530487 6.8705597 l 23.812195 16.869324 l -8.7864685 -7.230789 l -229.65428 16.150635 l 16.160233 -9.393326 l -44.525024 0.9077301 l 11.163925 19.496262 l 0.0 0.0 l 0.0 -3.0517578e-05 l -1.5258789e-05 0.0 l 112.57883 -51.602737 l -14.116638 3.6170044 l -16.019577 5.1801453 l -31.398392 13.264587 l 14.70488 -6.713745 l 255.30217 1180.7592 " /> </g> </svg>