<?xml version="1.0" standalone="no"?><!DOCTYPE svg PUBLIC "-//W3C//DTD SVG 1.1//EN" "http://www.w3.org/Graphics/SVG/1.1/DTD/svg11.dtd" ><svg xmlns="http://www.w3.org/2000/svg" xmlns:xlink="http://www.w3.org/1999/xlink" version="1.1" viewBox="-10 0 692 1000"><g transform="matrix(1 0 0 -1 0 800)"><path stroke="black" fill="none" d="M 598.9552 1510.89 l 0.0 0.0 l 139.75543 -1.300415 l 0.0 0.0 l -176.87494 -270.67737 l 0.019958496 -3.848877 l 172.31232 -11.681641 l 0.0 0.0 l 5.3605957 -251.09314 l 0.081970215 -3.906433 l -177.8039 21.74762 l 0.13900757 87.42163 l 0.0 0.0 l -0.089263916 -431.63123 l 0.0 0.0 l 0.08428955 118.330444 l 178.12646 -8.483032 l 0.0 0.0 l -0.09429932 39.881042 l -178.76901 -299.267 l 0.0 0.0 l -9.841827 -115.57239 l 0.0 0.0 l 188.30334 122.859375 l 0.0 0.0 l -3.8481445 -86.002014 l 0.0 0.0 l -203.13284 -114.369415 l 0.0 0.0 l -21.908112 -39.618958 l 0.0 0.0 l 218.72693 88.785065 l 0.0 0.0 l -40.188965 -141.10938 l 0.0 0.0 l -62.68634 -90.89427 l 0.0 0.0 l 35.18921 42.837112 l 0.0 0.0 l -104.359375 -98.47267 l 0.0 0.0 l -26.137726 -14.922703 l -63.356262 -27.62407 l -57.345978 -13.043517 l -23.994812 -9.233486 l -12.341248 5.9458413 l 0.0 0.0 l -0.0007324219 -0.0003862381 l -29.385254 0.22541618 l -65.31204 8.784842 l 0.0 0.0 l -48.464478 10.963808 l 0.0 0.0 l -63.877968 111.67168 l 0.0 0.0 l 2.8815155 -89.30651 l 0.0 0.0 l 33.944756 153.87616 l 0.0 0.0 l -15.311005 -26.727264 l 0.0 0.0 l 204.53513 36.141144 l 0.0 0.0 l 85.342926 22.625534 l 0.0 0.0 l -233.33801 29.457397 l 0.0 0.0 l 35.74913 -21.142273 l 0.0 0.0 l -10.922714 220.6846 l 0.0 154.4 l 0.0 154.39996 l 0.0 154.40002 l 0.0 154.40002 l 0.0 154.3999 l 0.0 154.40002 l 0.0 154.40002 l 23.300003 0.0 l 23.300003 0.0 l 23.300003 0.0 l 23.300003 0.0 l 23.299988 0.0 l 23.299988 0.0 l 23.300018 0.0 l 23.299988 0.0 l 23.300018 0.0 l 91.835144 -103.50635 l 0.028808594 0.087890625 " /> </g> </svg>