<?xml version="1.0" standalone="no"?><!DOCTYPE svg PUBLIC "-//W3C//DTD SVG 1.1//EN" "http://www.w3.org/Graphics/SVG/1.1/DTD/svg11.dtd" ><svg xmlns="http://www.w3.org/2000/svg" xmlns:xlink="http://www.w3.org/1999/xlink" version="1.1" viewBox="-10 0 692 1000"><g transform="matrix(1 0 0 -1 0 800)"><path stroke="black" fill="none" d="M 513.8323 1510.8898 l 0.0 0.0 l -178.1867 -261.1068 l 0.0 0.0 l 110.20325 -6.8479004 l 63.460754 -260.8026 l 0.0 0.0 l -173.664 93.00256 l 0.0 0.0 l 0.0 -310.67926 l 0.0 0.0 l 177.87482 -8.211243 l 0.0 0.0 l -186.72873 -368.82404 l 0.0 0.0 l 181.21555 -0.2793579 l 0.0 0.0 l -200.44925 -82.87799 l 0.0 0.0 l 146.569 -110.71925 l 0.0 0.0 l -75.56018 -91.68648 l 0.0 0.0 l -133.46265 -78.27991 l 0.0 0.0 l -36.739594 -22.277004 l -22.762604 7.1417246 l -23.837402 -7.141724 l -13.207092 5.476069 l 0.0 0.0 l -29.624023 -0.70315266 l -47.044647 6.169367 l 0.0 0.0 l -118.52136 33.142986 l 0.0 0.0 l 20.429039 148.56982 l 0.0 0.0 l 225.46411 24.79889 l 0.0 0.0 l -159.3395 32.306732 l 0.0 0.0 l 5.34346 213.43927 l 0.0 154.4 l 0.0 154.39996 l 0.0 154.40002 l 0.0 154.40002 l 0.0 154.3999 l 0.0 154.40002 l 0.0 154.40002 l 23.300003 0.0 l 23.300003 0.0 l 23.300003 0.0 l 23.300003 0.0 l 23.299988 0.0 l 23.299988 0.0 l 23.300018 0.0 l 23.299988 0.0 l 23.300018 0.0 l 115.193085 -32.278076 l 0.0 0.0 " /> </g> </svg>