<?xml version="1.0" standalone="no"?><!DOCTYPE svg PUBLIC "-//W3C//DTD SVG 1.1//EN" "http://www.w3.org/Graphics/SVG/1.1/DTD/svg11.dtd" ><svg xmlns="http://www.w3.org/2000/svg" xmlns:xlink="http://www.w3.org/1999/xlink" version="1.1" viewBox="-10 0 692 1000"><g transform="matrix(1 0 0 -1 0 800)"><path stroke="black" fill="none" d="M 577.4048 1510.89 l 0.0 0.0 l 10.842285 0.0 l -85.284485 0.0 l 0.0 0.0 l -33.598907 0.0 l 0.0 0.0 l 168.077 -134.33386 l 0.011352539 -8.690186 l 14.731018 143.2096 l 0.0 0.0 l -14.642883 23.277466 l 0.0 0.0 l -178.20923 -229.45496 l 0.001739502 -91.647095 l 177.95682 -48.13391 l 0.043945312 72.60474 l 0.09918213 -199.41663 l 0.007080078 -91.653076 l -178.11127 -28.415894 l 0.013977051 113.769165 l 0.00021362305 72.38281 l -0.009918213 -489.67035 l -0.0018310547 0.4979248 l 0.012237549 164.03558 l 0.00015258789 9.554626 l 178.13837 -122.77136 l 0.0005493164 72.99121 l -0.011474609 101.46625 l -180.94415 -388.35663 l 2.4709473 50.07724 l 0.043884277 1.2286682 l -6.862732 -98.57141 l -2.5399475 -19.356018 l 187.83633 158.4079 l 0.0 0.0 l -0.0007324219 -0.09063721 l -0.22320557 -31.082764 l -4.300354 -102.72162 l 0.0869751 1.0348816 l 3.09552 57.52408 l 0.03503418 0.8467102 l -192.29007 -116.34943 l -0.010864258 -0.044067383 l -3.8675232 -16.989105 l -30.920166 -73.46445 l 0.0 0.0 l 7.013794 9.44574 l 0.0 0.0 l 14.920593 33.393677 l 0.14031982 0.37597656 l 184.95935 -13.398743 l 0.0 0.0 l -0.55633545 -2.0412598 l 9.601929 49.32245 l 2.190979 15.277618 l 0.0 0.0 l -27.135742 -112.44336 l 0.0 0.0 l -14.636841 -33.8132 l -0.1461792 -0.31010437 l -85.550415 -110.7708 l 17.832397 16.166489 l 32.065796 35.77118 l 0.0 0.0 l 2.1542969 2.894455 l 20.182312 31.043411 l 0.15655518 0.25956726 l -127.94754 -125.9585 l 19.207214 11.907188 l -53.86447 -29.890892 l -42.309235 -15.811914 l 1.211792 0.3505001 l -60.532227 -14.329236 l -36.315033 -4.0359964 l 0.0 0.0 l 0.0 -2.861023e-06 l 0.0 -6.198883e-06 l -36.33818 1.3388224 l 0.8961334 -0.070761204 l -72.21892 9.739793 l 18.231888 -3.483838 l -72.862625 17.97395 l 18.04071 -5.5657387 l -71.131485 97.53308 l 0.0 0.0 l 12.437866 21.711227 l -0.0051498413 -0.009002686 l -35.512333 -63.16246 l 0.23244858 0.50975037 l 36.213295 -36.13142 l 0.71047974 -0.3216362 l 42.4522 176.08264 l -7.376503 -12.876526 l -15.260956 -26.639755 l -7.119667 -12.428162 l 190.06596 41.14586 l 0.0 0.0 l 20.879028 -0.33970642 l 40.235718 5.272812 l 0.23846436 0.04878235 l 25.476624 8.745361 l 0.0 0.0 l 0.1281128 0.06399536 l 21.988983 12.294937 l -214.5663 11.076645 l 0.30714417 -0.17590332 l -31.573486 14.365051 l 1.365387 2.6085815 l 0.0 0.0 l 96.4449 -45.806534 l 0.0 0.0 l -5.891266 2.0651245 l -27.80272 10.4272 l 0.0 0.0 l 259.76483 1181.5392 " /> </g> </svg>