<?xml version="1.0" standalone="no"?><!DOCTYPE svg PUBLIC "-//W3C//DTD SVG 1.1//EN" "http://www.w3.org/Graphics/SVG/1.1/DTD/svg11.dtd" ><svg xmlns="http://www.w3.org/2000/svg" xmlns:xlink="http://www.w3.org/1999/xlink" version="1.1" viewBox="-10 0 692 1000"><g transform="matrix(1 0 0 -1 0 800)"><path stroke="black" fill="none" d="M 574.9968 1510.89 l 0.0 0.0 l 0.105651855 0.0 l 43.60962 0.0 l 0.0 0.0 l -91.800476 0.0 l -1.098938 0.0 l -44.93982 0.0 l -0.7213745 0.0 l 172.42798 -86.57312 l 0.0033569336 -73.1853 l 35.76013 159.77905 l -18.869812 -0.015991211 l 0.0 0.0 l -16.864502 30.279785 l 6.1035156e-05 -0.01574707 l -178.16037 -231.88232 l 0.00048828125 -97.48279 l 178.0864 -61.325684 l 0.012817383 91.905396 l 0.029052734 -199.68774 l 0.0020751953 -97.4845 l -178.13156 -31.735168 l 0.0040893555 103.96222 l 6.1035156e-05 91.840454 l -0.00289917 -496.62103 l 0.0030517578 118.83075 l 3.0517578e-05 73.438416 l 178.13956 -153.82654 l 0.00012207031 92.018616 l -0.0033569336 100.358765 l -181.33719 -398.12418 l 2.2086487 38.355347 l 0.89242554 25.391113 l -6.45343 -99.6095 l -3.416809 -26.019775 l 188.1094 161.44699 l 0.0 0.0 l 0.0 -0.0020141602 l -0.0014038086 -0.1786499 l -0.24273682 -33.844116 l -5.5021973 -115.90091 l 1.5830688 19.4133 l 2.1774902 38.071564 l 0.8671875 21.662872 l -191.94485 -118.84961 l -0.05923462 -0.24050903 l -4.9375 -21.761383 l -31.217072 -72.04001 l 0.0020446777 0.0031433105 l 9.412659 12.69043 l 0.0 0.0 l -0.0050964355 -0.0063476562 l 9.672058 21.363281 l 4.649719 12.588959 l 187.15543 -2.407257 l 0.0 0.0 l -1.024353 -4.9356384 l -5.105896 -19.73935 l 12.249695 58.397766 l 2.9398193 21.424042 l -0.0018920898 -0.013122559 l -27.34674 -116.591705 l -0.22717285 -0.6224518 l -10.716003 -25.658829 l -5.227844 -11.041763 l -88.87866 -112.83005 l 23.38147 21.203575 l 25.254578 27.238472 l 0.0 0.0 l 0.05102539 0.06877136 l 9.543396 12.838821 l 13.159546 19.947067 l 6.064087 10.136322 l -133.26755 -130.22165 l 25.933746 16.081104 l -57.46753 -32.00451 l -58.382294 -20.130981 l 23.603699 6.802149 l -65.5856 -15.7401085 l -36.31842 -4.088258 l 0.0 0.0 l 0.0 -4.7683716e-07 l 0.0 -4.7683716e-07 l -51.40094 2.541668 l 19.93866 -1.5875559 l -80.511475 10.868363 l 25.047073 -4.782201 l -79.65606 19.774277 l 24.453667 -7.5415783 l -74.061676 96.783516 l 0.4378128 0.76428986 l 13.610504 23.758202 l -0.022529602 -0.039367676 l -42.624367 -74.74882 l 7.6129417 13.379852 l 21.425335 -32.94902 l 18.16072 -7.8656387 l 40.60591 181.05206 l -10.22155 -17.84288 l -12.530846 -21.874023 l -10.146317 -17.711548 l 191.3008 43.203323 l 0.0 0.0 l -1.690094 0.18971252 l 28.621033 -0.42749023 l 25.135529 3.220337 l 10.977997 2.4506836 l 22.074799 7.538864 l 0.2347107 0.1121521 l 8.865997 4.206848 l 19.21225 12.12532 l 0.0 0.0 l -227.75105 13.015488 l 10.727661 -6.231674 l -39.889435 3.974121 l 8.59462 15.091232 l 0.001449585 0.0027160645 l 0.0 0.0 l 101.641495 -48.655197 l -0.5215454 0.13024902 l -16.572998 5.2260895 l -22.429382 8.837662 l 0.46826172 -0.21398926 l 258.7442 1179.9653 " /> </g> </svg>