<?xml version="1.0" standalone="no"?><!DOCTYPE svg PUBLIC "-//W3C//DTD SVG 1.1//EN" "http://www.w3.org/Graphics/SVG/1.1/DTD/svg11.dtd" ><svg xmlns="http://www.w3.org/2000/svg" xmlns:xlink="http://www.w3.org/1999/xlink" version="1.1" viewBox="-10 0 692 1000"><g transform="matrix(1 0 0 -1 0 800)"><path stroke="black" fill="none" d="M 571.7888 1510.89 l 0.78186035 0.0 l 13.290894 0.0 l 34.742126 0.0 l -1.3858643 0.0 l -80.56189 0.0 l -16.701782 0.0 l -29.875244 0.0 l -16.295837 0.0 l 176.00525 -72.58435 l 0.0009765625 -92.07544 l 49.97284 164.66577 l -34.207703 -0.005493164 l -1.194458 -0.00012207031 l -14.56311 32.281982 l 0.0005493164 -0.09875488 l -178.14651 -232.5149 l 0.00012207031 -99.19202 l 178.1243 -65.18945 l 0.0037841797 97.55847 l 0.008483887 -199.76721 l 0.00061035156 -99.192505 l -178.13751 -32.707275 l 0.0011901855 101.08978 l 0.0 97.53949 l -0.0008239746 -498.65686 l 0.00088500977 105.4447 l 0.0 92.1496 l 178.13986 -162.92242 l 6.1035156e-05 97.59161 l -0.0009765625 100.034424 l -181.45233 -400.98505 l 2.131836 34.92209 l 1.1523132 32.79373 l -6.3449097 -100.23917 l -3.673645 -27.971558 l 188.18777 162.13297 l 0.0 0.0 l 0.0 -0.00012207031 l 0.0 -0.00048828125 l -0.24841309 -34.65512 l -5.854248 -119.76108 l 2.0546875 25.209229 l 1.8751831 31.96106 l 1.1378784 28.441986 l -191.8707 -120.2641 l -5.32428 -23.457184 l -31.304016 -71.6228 l 0.004058838 0.006286621 l 9.797607 13.244965 l 0.0 0.0 l -0.00021362305 -0.0002746582 l -0.001953125 -0.0024414062 l 8.446594 18.227753 l 6.410614 17.36267 l 188.17688 3.8274841 l -0.0048217773 -0.023040771 l -3.4732056 -16.631592 l 0.0 0.0 l -5.105652 -18.870941 l 13.02771 61.065155 l 3.1591187 23.224304 l -0.010009766 -0.07058716 l -24.016174 -108.47687 l -4.677185 -12.785049 l -8.568909 -20.566406 l -7.2941284 -15.403381 l -89.27557 -112.21482 l 25.006775 22.678902 l 24.375854 26.242859 l 0.0 0.0 l 0.0010986328 0.0015106201 l 0.09851074 0.1326294 l 10.558044 14.203186 l 11.102234 16.696442 l 8.528992 14.261353 l -135.5603 -132.70242 l 27.9039 17.303616 l -58.522858 -32.623573 l -63.089966 -21.396006 l 30.445862 8.773457 l -67.34943 -16.235006 l -36.31952 -4.1036267 l 0.0 0.0 l 0.0 0.0 l 0.0 0.0 l -55.812622 2.8940358 l 26.08435 -2.0771875 l -83.50856 11.244287 l 27.043182 -5.1624813 l -81.64581 20.30158 l 26.331985 -8.120287 l -80.63659 86.58455 l 8.042976 14.039955 l 12.19371 21.285362 l -44.735054 -78.19064 l 10.290798 17.990288 l 16.577877 -32.857788 l 23.951416 -10.364811 l 39.385513 182.79716 l -11.054848 -19.2975 l -11.731209 -20.478165 l -11.032806 -19.259018 l 200.14113 42.89099 l 0.0 0.0 l -0.112579346 0.012786865 l -12.982086 1.4680481 l 33.31949 -0.7738037 l 20.71222 2.619049 l 15.660461 3.5108643 l 18.005554 6.1183777 l 1.2359619 0.5908966 l 12.064423 5.701645 l 17.950928 11.82196 l -0.51434326 -0.42396545 l -230.68555 14.244293 l 14.929535 -8.677078 l -43.47487 1.6023865 l 10.590179 18.514175 l 0.00036621094 0.0007019043 l 0.0 0.0 l -7.6293945e-05 -0.00012207031 l 110.09277 -50.95082 l -10.607864 2.7164764 l -16.573868 5.301178 l -29.366547 12.261719 l 11.022949 -5.0328064 l 256.5387 1180.3708 " /> </g> </svg>