<?xml version="1.0" standalone="no"?><!DOCTYPE svg PUBLIC "-//W3C//DTD SVG 1.1//EN" "http://www.w3.org/Graphics/SVG/1.1/DTD/svg11.dtd" ><svg xmlns="http://www.w3.org/2000/svg" xmlns:xlink="http://www.w3.org/1999/xlink" version="1.1" viewBox="-10 0 692 1000"><g transform="matrix(1 0 0 -1 0 800)"><path stroke="black" fill="none" d="M 570.4934 1510.89 l 23.331299 0.0 l 46.711243 0.0 l -23.237244 0.0 l -70.27692 0.0 l -23.350769 0.0 l -23.447601 0.0 l -23.347748 0.0 l 178.12433 -66.83264 l 0.0 -99.84253 l 55.81665 166.67517 l -23.479492 0.0 l -23.23529 0.0 l -9.101807 33.10388 l -178.14008 -232.90784 l 0.0 -99.894775 l 178.1399 -66.7782 l 6.1035156e-05 99.88281 l 0.0 -199.7998 l 6.1035156e-05 -99.89484 l -178.14001 -33.106995 l 0.0 99.90875 l 0.0 99.88263 l 0.0 -499.49384 l 0.0 99.94086 l 0.0 99.842896 l 178.14001 -166.6623 l 0.0 99.88306 l 0.0 99.90106 l -181.49966 -402.16135 l 2.1002502 33.510468 l 1.2591858 35.837433 l -6.3003235 -100.49808 l -3.7792053 -28.774048 l 188.21976 162.38818 l 0.0 0.0 l 0.0 0.0 l 0.0 0.0 l -0.25 -34.888367 l -5.9989014 -121.348206 l 2.2485352 27.592316 l 1.7509155 29.448639 l 1.2492065 31.22931 l -191.84024 -120.84567 l -5.4589844 -24.055573 l -31.339783 -71.45123 l 9.9192505 13.428772 l 0.0 0.0 l 0.0 0.0 l 0.0 0.0 l 7.9833374 16.989075 l 7.134613 19.32544 l 188.59692 6.390991 l -4.244873 -20.305481 l 0.0 0.0 l 0.0 0.0 l 0.0 0.0 l -5.3476562 -19.681458 l 13.347595 62.161865 l 3.2493286 23.964539 l -22.660156 -105.23456 l -6.734741 -18.408325 l -7.458191 -17.850143 l -8.143677 -17.196716 l -89.43881 -111.96187 l 25.675018 23.2855 l 24.161316 26.031136 l 0.0 0.0 l 0.0 0.0 l 0.0 0.0 l 10.94812 14.727554 l 10.256287 15.359894 l 9.5425415 15.957428 l -136.50305 -133.72244 l 28.713959 17.806274 l -58.956757 -32.878113 l -65.025635 -21.916143 l 33.259155 9.58399 l -68.074646 -16.438492 l -36.320007 -4.109954 l 0.0 0.0 l 0.0 0.0 l 0.0 0.0 l -57.62654 3.0389261 l 28.611282 -2.2785077 l -84.74089 11.398855 l 27.863937 -5.318841 l -82.46394 20.51839 l 27.104279 -8.358236 l -83.33996 82.39109 l 11.375282 19.85688 l 11.405846 19.910187 l -45.59363 -79.58962 l 11.391838 19.88594 l 14.584774 -32.82027 l 26.332352 -11.392384 l 38.88372 183.51468 l -11.397469 -19.895569 l -11.402428 -19.904251 l -11.397301 -19.895279 l 201.08884 43.06801 l 0.0 0.0 l 0.0 0.0 l -3.0517578e-05 0.0 l -15.120819 1.7089844 l 35.275482 -0.9189148 l 18.893494 2.3718262 l 17.585724 3.946762 l 16.332428 5.5343323 l 15.027161 7.1039734 l 26.179016 18.907486 l -12.387207 -10.193649 l -228.97743 17.134644 l 16.657196 -9.682541 l -44.94908 0.6272278 l 11.394089 19.889877 l 0.0 0.0 l 0.0 0.0 l 0.0 0.0 l 113.58409 -51.86331 l -15.533508 3.9806366 l -15.795761 5.131256 l -32.218857 13.669556 l 16.19168 -7.392502 l 254.80286 1180.916 " /> </g> </svg>