<?xml version="1.0" standalone="no"?><!DOCTYPE svg PUBLIC "-//W3C//DTD SVG 1.1//EN" "http://www.w3.org/Graphics/SVG/1.1/DTD/svg11.dtd" ><svg xmlns="http://www.w3.org/2000/svg" xmlns:xlink="http://www.w3.org/1999/xlink" version="1.1" viewBox="-10 0 692 1000"><g transform="matrix(1 0 0 -1 0 800)"><path stroke="black" fill="none" d="M 594.9212 1510.89 l 0.0 0.0 l -85.50757 0.0 l 0.0 0.0 l 141.18616 -131.70386 l 0.0 0.0 l 9.41333 138.55835 l 0.0 0.0 l -187.23026 -227.79504 l 0.00592041 -71.72266 l 177.5145 -3.0944824 l 0.15002441 6.70813 l 0.33862305 -198.49078 l 0.024291992 -71.74335 l -178.04187 -17.083374 l 0.04763794 147.2522 l 0.00079345703 5.951416 l -0.033843994 -465.9402 l -0.00015258789 0.0368042 l 0.033569336 165.01575 l 0.0 0.0 l 178.13693 -69.7807 l 0.0018920898 8.027588 l -0.039123535 105.247314 l -179.60226 -355.00803 l 1.0220947 24.545929 l 0.0 0.0 l -8.768982 -110.74191 l -0.091796875 -0.7227478 l 187.38498 144.02539 l 0.0 0.0 l -0.090270996 -13.31366 l -3.5864868 -98.010376 l 0.0 0.0 l 2.116455 42.615326 l 0.0 0.0 l -193.56293 -117.05359 l 0.0 0.0 l -0.2901001 -1.1561279 l -32.84671 -82.81406 l 0.0 0.0 l 20.821167 40.405518 l 0.0 0.0 l 186.46207 -9.106201 l 0.0 0.0 l 10.635254 59.35898 l 0.0 0.0 l -31.071167 -121.0936 l -9.433105 -21.31285 l 0.0 0.0 l -72.56378 -100.47582 l 0.80633545 0.71777344 l 40.03369 45.365257 l 0.0 0.0 l 15.328674 24.030838 l 0.0 0.0 l -110.84656 -113.47024 l 0.572937 0.35173798 l -45.894257 -25.36974 l -45.670227 -17.912804 l 0.0 0.0 l -60.28018 -14.341918 l -36.30786 -3.8600087 l 0.0 0.0 l -6.1035156e-05 -2.9087067e-05 l -0.00015258789 -7.915497e-05 l -34.971497 1.186419 l 0.0 0.0 l -57.960007 7.042662 l 0.5200348 -0.10202694 l -55.22502 12.878318 l 0.6158905 -0.192667 l -63.99169 104.255905 l 5.333557 9.322189 l 0.0 0.0 l -28.742298 -62.57965 l 0.0 0.0 l 30.408955 -29.173035 l 0.0 0.0 l 38.781105 162.36598 l -0.24565125 -0.4288025 l -21.998833 -38.40149 l -0.15634155 -0.2729187 l 209.5871 39.170624 l 0.0 0.0 l 35.229767 5.0572357 l 0.0 0.0 l 44.2912 16.322739 l 0.0 0.0 l 4.011902 2.2364807 l -211.84904 14.713196 l 0.0 0.0 l -25.677078 15.21788 l 0.0 0.0 l 86.55835 -42.20346 l 0.0 0.0 l -30.816406 12.065033 l 266.757 1185.1648 l 0.91973877 2.8046875 " /> </g> </svg>