<?xml version="1.0" standalone="no"?><!DOCTYPE svg PUBLIC "-//W3C//DTD SVG 1.1//EN" "http://www.w3.org/Graphics/SVG/1.1/DTD/svg11.dtd" ><svg xmlns="http://www.w3.org/2000/svg" xmlns:xlink="http://www.w3.org/1999/xlink" version="1.1" viewBox="-10 0 692 1000"><g transform="matrix(1 0 0 -1 0 800)"><path stroke="black" fill="none" d="M 570.57404 1510.89 l 22.599792 0.0 l 45.765564 0.0 l -21.503296 0.0 l -71.097046 0.0 l -22.82544 0.0 l -23.955444 0.0 l -22.790558 0.0 l 177.95688 -67.28711 l 6.1035156e-05 -99.22876 l 55.35498 166.51636 l -24.327148 -0.00048828125 l -21.47931 0.0 l -9.547852 33.03894 l -178.14053 -232.88452 l 0.0 -99.839355 l 178.1387 -66.65259 l 0.00030517578 99.6991 l 0.0007324219 -199.79712 l 6.1035156e-05 -99.83942 l -178.13983 -33.07544 l 0.00012207031 100.00214 l 0.0 99.69751 l -9.1552734e-05 -499.42773 l 9.1552734e-05 100.37567 l 0.0 99.23511 l 178.14001 -166.36682 l 0.0 99.70203 l -6.1035156e-05 99.91156 l -181.49594 -402.06842 l 2.1027222 33.62201 l 1.2507629 35.596954 l -6.3038635 -100.4776 l -3.7708435 -28.710663 l 188.21722 162.36859 l 0.0 0.0 l 0.0 0.0 l 0.0 0.0 l -0.24987793 -34.870544 l -5.987488 -121.22281 l 2.2332153 27.404022 l 1.7607422 29.647125 l 1.2404175 31.009125 l -191.84265 -120.79974 l -5.4483337 -24.0083 l -31.336945 -71.46478 l 9.910828 13.4158325 l 0.0 0.0 l 0.0 0.0 l 0.0 0.0 l 8.01889 17.085632 l 7.077423 19.17035 l 188.56372 6.1884766 l -4.189392 -20.04181 l 0.0 0.0 l 0.0 6.1035156e-05 l 0.0 0.00015258789 l -5.3234253 -19.592865 l 13.322327 62.075226 l 3.2421875 23.906036 l -22.768066 -105.49631 l -6.5721436 -17.964035 l -7.5459595 -18.064743 l -8.076599 -17.055023 l -89.4259 -111.98186 l 25.622253 23.23758 l 24.17511 26.04367 l 0.0 0.0 l 0.0 1.5258789e-05 l 6.1035156e-05 1.5258789e-05 l 10.928223 14.700882 l 10.32312 15.4655 l 9.462463 15.823425 l -136.42853 -133.64185 l 28.649933 17.766556 l -58.922485 -32.857998 l -64.87268 -21.875048 l 33.036865 9.519951 l -68.017334 -16.422413 l -36.319977 -4.109454 l 0.0 0.0 l 0.0 0.0 l 0.0 0.0 l -57.483215 3.0274782 l 28.411621 -2.2626014 l -84.643524 11.386641 l 27.799088 -5.306486 l -82.3993 20.50126 l 27.043251 -8.339434 l -83.126366 82.72241 l 11.112007 19.397285 l 11.468094 20.018837 l -45.5258 -79.47908 l 11.304848 19.73616 l 14.742252 -32.823235 l 26.144226 -11.311199 l 38.92337 183.458 l -11.370399 -19.848328 l -11.428406 -19.9496 l -11.3685 -19.845001 l 201.07092 43.04756 l 0.0 0.0 l -0.00012207031 0.0 l -0.000579834 7.6293945e-05 l -15.016998 1.6973419 l 35.12094 -0.90745544 l 19.03717 2.3913727 l 17.433624 3.912323 l 16.4646 5.580475 l 14.890747 7.039871 l 25.52893 18.347656 l -11.398193 -9.379837 l -229.16335 16.864365 l 16.52069 -9.603104 l -44.83261 0.7042694 l 11.330963 19.781921 l 0.0 0.0 l 0.0 0.0 l 0.0 0.0 l 113.30788 -51.7919 l -15.144318 3.8807526 l -15.857239 5.144684 l -31.9935 13.558319 l 15.783295 -7.20607 l 254.94 1180.8729 " /> </g> </svg>