<?xml version="1.0" standalone="no"?><!DOCTYPE svg PUBLIC "-//W3C//DTD SVG 1.1//EN" "http://www.w3.org/Graphics/SVG/1.1/DTD/svg11.dtd" ><svg xmlns="http://www.w3.org/2000/svg" xmlns:xlink="http://www.w3.org/1999/xlink" version="1.1" viewBox="-10 0 692 1000"><g transform="matrix(1 0 0 -1 0 800)"><path stroke="black" fill="none" d="M 655.0 1544.0 l 0.0 -99.900024 l 236.75739 -30.376587 l 0.0 0.0 l -25.248169 -25.645508 l 126.16315 -178.44983 l -58.651123 -61.47058 l 0.0 0.0 l -194.29797 109.40039 l 0.0 0.0 l -16.842224 -17.134033 l -67.88104 -195.92383 l 166.6836 -8.893799 l 2.6584473 2.576538 l -141.4856 -142.45624 l 2.9160156 2.9508057 l 12.378357 -139.52417 l 64.177795 -85.821106 l 139.73541 -160.25146 l -0.031982422 0.018127441 l -52.95343 61.615723 l -265.22595 -28.502136 l 50.76593 -65.64346 l 18.131409 -34.77884 l 236.53308 -262.46387 l 0.0 0.0 l 99.736084 200.63512 l 0.0 0.0 l -304.0207 26.22702 l -38.998474 -47.22827 l 106.97107 -33.801605 l 0.0 0.0 l -113.97107 -12.31839 l -4.25 -20.330017 l 0.0 0.0 l -5.3499756 -19.690002 l -6.050049 -19.069977 l -6.75 -18.450012 l -7.449951 -17.830002 l -8.150024 -17.210007 l -8.849976 -16.589996 l -9.550049 -15.970001 l -10.25 -15.349991 l -10.949951 -14.730011 l 0.0 0.0 l 580.70605 72.644135 l 0.0 0.0 l -46.47632 -214.26091 l 0.0 0.0 l -584.06976 92.296776 l -27.200012 -20.549995 l -28.71997 -17.810001 l -37.5795 57.150333 l -0.0059509277 1.6967163 l -17.85559 -112.58182 l -0.2720337 -0.009397417 l -46.24164 -0.06517598 l -0.26004028 -0.0056100786 l -28.56012 0.741336 l -29.348755 -0.7196638 l -12.615509 -0.08438747 l -27.543701 0.5166669 l -23.757233 0.19559288 l -23.72464 0.3259884 l -23.692047 0.45638394 l -36.193253 23.433033 l -27.11 8.359999 l -26.730003 9.880001 l -26.349998 11.400002 l -25.970001 12.920002 l 11.400002 19.899994 l 11.400002 19.900002 l 11.399994 19.900002 l 11.400002 19.899994 l 11.400002 19.90001 l 11.400002 19.899994 l 11.399994 19.899994 l 11.400002 19.90001 l 11.399994 19.899994 l 11.400009 19.90001 l 0.0 0.0 l 28.116486 37.69638 l 1.4300537 -141.98584 l 20.463455 75.21945 l 16.229996 -7.4100037 l 16.01001 -6.269989 l 15.789993 -5.130005 l 15.570007 -3.9900055 l 15.350006 -2.8499908 l 15.130005 -1.7100067 l 0.0 0.0 l 20.159973 0.79000854 l 18.880005 2.369995 l 17.600006 3.949997 l 16.320007 5.529999 l 15.039978 7.1100006 l 13.76001 8.690002 l 16.22348 -41.548416 l -0.00030517578 0.015823364 l 2.2524414 60.060226 l 15.12439 17.02237 l 0.0 0.0 l 7.980011 16.980011 l -22.48059 27.631866 l 35.920593 13.408112 l 5.4599915 24.059998 l -39.975403 27.142181 l 48.375397 28.05783 l -47.79892 35.500732 l 52.83893 29.139252 l -56.121124 48.421387 l 0.0 0.0 l -232.11888 -15.599304 l -0.5129852 -10.057678 l 267.3513 176.40277 l 0.0 0.0 l 46.55197 -41.340088 l 0.0 0.0 l -23.89029 177.73291 l -289.51016 6.1329346 l -0.5028076 -9.91803 l 231.28143 341.35895 l 0.0 0.0 l 12.327484 -204.31995 l 0.0 0.0 l 148.69995 151.4237 l 0.0 0.0 l -393.61655 241.47229 l 0.0 0.0 l -0.349823 -184.6737 l 232.84586 238.26306 l 0.0 0.0 l 0.0039978027 -87.44141 l -70.85602 240.06128 l 0.0 0.0 l 64.61124 -43.553833 l 0.0 0.0 l -186.71976 43.604614 l 0.0 0.0 l -29.737183 0.0 l 0.0 0.0 l 304.92236 -33.109863 l 23.399963 0.0 l 23.400024 0.0 l 23.400024 0.0 l 23.399963 0.0 l 23.400024 0.0 l 23.399963 0.0 l 23.400024 0.0 l 23.400024 0.0 l 449.05292 -144.1272 l 0.0 0.0 l 75.86536 176.87341 l 0.0 0.0 " /> </g> </svg>