<?xml version="1.0" standalone="no"?><!DOCTYPE svg PUBLIC "-//W3C//DTD SVG 1.1//EN" "http://www.w3.org/Graphics/SVG/1.1/DTD/svg11.dtd" ><svg xmlns="http://www.w3.org/2000/svg" xmlns:xlink="http://www.w3.org/1999/xlink" version="1.1" viewBox="-10 0 692 1000"><g transform="matrix(1 0 0 -1 0 800)"><path stroke="black" fill="none" d="M 1084.2473 1543.8914 l 0.0 0.0 l -61.02124 -40.000122 l -81.97009 -83.9939 l 0.0 0.0 l 150.19202 -156.87744 l -102.038025 -103.11597 l -4.1378174 -4.1586914 l -160.38568 144.78894 l -0.041870117 -0.04321289 l -60.742676 -62.20703 l 0.0 0.0 l 79.84039 -223.94092 l 50.09607 50.142212 l -189.46973 -189.96558 l 50.190247 50.27112 l 3.9282837 -150.02301 l 68.43616 -84.88696 l 140.20532 -166.43762 l -0.4352417 0.24649048 l -64.72272 77.55618 l -265.349 -37.97589 l 54.184082 -67.80475 l 314.92877 -388.03192 l 0.0 0.0 l -66.8465 81.5209 l 121.10437 221.23206 l -4.484253 6.1838074 l -310.63135 9.902924 l 72.21002 -87.75839 l -3.343689 4.2061768 l 387.47797 -100.85928 l -4.220581 5.448578 l -57.92334 -232.64786 l 0.0 0.0 l 221.0282 1.5013075 l 0.0 0.0 l -884.6145 76.2204 l -0.0025939941 44.919685 l -5.2437744 -122.58135 l -14.072174 -0.029456947 l -32.507385 0.007622719 l -14.031555 -0.019006103 l -27.341156 0.23453686 l -25.071625 -0.21078463 l -20.170593 -0.024716519 l -24.542953 0.15132824 l -23.433914 0.057287812 l -23.424377 0.09547979 l -23.414825 0.13367182 l -0.0693512 307.01022 l 0.41885376 -150.76395 l 232.86143 36.55342 l -0.0018310547 0.10002136 l 0.6614685 62.679993 l 0.18270874 63.23636 l 0.41156006 64.10803 l 0.16885376 63.80002 l -1.2427368 81.2092 l -0.024414062 -2.8344116 l -232.4361 60.193542 l -0.1502533 -112.12314 l 269.19452 202.11014 l 0.0 0.0 l -30.031555 -30.031494 l 0.0 0.0 l 90.78934 -22.847412 l -0.022460938 0.016723633 l -329.78256 271.69592 l -0.14726257 -112.082214 l 232.4716 374.84998 l -0.0015258789 2.1517334 l 1.7215881 -131.18103 l 0.0 0.0 l 10.806519 -83.68878 l 0.0 0.0 l 150.38654 150.70001 l 3.2978516 3.319336 l -399.06558 275.77222 l 0.000579834 -0.055786133 l -0.14230347 -255.37793 l 0.0 0.0 l 232.98715 284.59106 l -0.00036621094 1.9561768 l 0.00033569336 -120.142456 l 0.0 0.0 l -53.785492 258.61792 l 0.0 0.0 l -51.095337 -0.0008544922 l 0.0 0.0 l 104.2536 -44.83838 l 0.089538574 -2.4725342 l -153.37436 47.312256 l 0.0 0.0 l -21.92041 0.0 l -51.147568 0.0 l -0.31503296 0.0 l 949.662 -188.12964 l -3.9660645 -4.3204346 l 109.26257 177.97327 l 0.0 0.0 l -93.92554 14.476196 l 0.0 0.0 " /> </g> </svg>