<?xml version="1.0" standalone="no"?><!DOCTYPE svg PUBLIC "-//W3C//DTD SVG 1.1//EN" "http://www.w3.org/Graphics/SVG/1.1/DTD/svg11.dtd" ><svg xmlns="http://www.w3.org/2000/svg" xmlns:xlink="http://www.w3.org/1999/xlink" version="1.1" viewBox="-10 0 692 1000"><g transform="matrix(1 0 0 -1 0 800)"><path stroke="black" fill="none" d="M 1111.729 1543.9998 l -28.565186 0.00012207031 l -42.042725 -0.00024414062 l 3.3342285 0.00036621094 l -84.12799 -61.54895 l -119.20953 -122.18494 l 58.715515 60.18103 l 152.21979 -156.16443 l -70.03723 -70.14453 l -69.31683 -69.41614 l -132.80444 172.79236 l -119.07538 -122.046875 l 58.720886 60.1864 l 53.546265 -250.74371 l 69.65497 69.75458 l -209.25336 -209.55475 l 69.6557 69.755554 l 0.42596436 -154.36774 l 70.18701 -84.50287 l 140.39856 -168.9812 l -70.16284 84.450745 l -265.39966 -41.871155 l 55.58954 -68.69339 l 333.4626 -412.02216 l -58.553406 72.33767 l -51.42566 63.54193 l 196.53967 133.6666 l -69.71643 83.923645 l -294.71802 -10.151337 l 110.913086 -137.03467 l -55.215393 68.22534 l 449.14288 -173.95802 l -69.7146 83.91824 l -95.1134 -253.34654 l 22.735107 -5.820766e-11 l 62.432983 1.2732926e-11 l -28.691772 -5.0931703e-11 l 193.8518 56.713894 l -13.861084 25.79256 l 9.911621 -82.506454 l 0.02709961 1.5970727e-09 l 51.440063 -1.7019556e-07 l 0.0 0.0 l -106.87695 -1.3349563e-08 l -3.9556885 -1.9917934e-09 l -58.268555 -4.1836756e-10 l -2.7556152 -7.2759576e-10 l -736.3941 64.00168 l 0.0 63.760315 l -0.038604736 -127.7616 l -23.232117 -0.00021678297 l -23.367737 5.609804e-05 l -23.231781 -0.00013987196 l -23.329742 0.0017260304 l -23.31305 -0.0015512304 l -23.276947 -0.00018189655 l -23.309158 0.0011136722 l -23.30098 0.00042159902 l -23.300919 0.00070266565 l -23.300842 0.0009837328 l -0.0005187988 308.7868 l 0.0030822754 -154.37321 l 232.99898 37.29451 l 0.004852295 63.89177 l 0.0013427734 63.895126 l 0.0030517578 63.90152 l 0.0012207031 63.89926 l -0.009124756 127.45712 l -0.00018310547 -63.44937 l -232.99586 106.05875 l -0.0010986328 -154.08893 l 272.87573 215.60303 l 0.0 0.0 l 0.05114746 0.05114746 l 7.389038 7.389038 l -17.358978 -17.358948 l 2.9644165 2.9643555 l -9.191254 -9.191223 l -5.618622 -5.6185913 l -2.8642273 -2.8642578 l -6.015869 -6.015869 l -4.1813965 -4.1813965 l -4.920807 -4.9208374 l 103.421906 -20.799622 l -336.55 307.8322 l -0.001083374 -154.08862 l 232.99611 341.05066 l 0.0 61.158203 l 3.519226 -184.6524 l 55.38614 -0.0087890625 l -58.62079 61.151917 l -0.28393555 -122.77576 l 0.0 0.0 l 0.0 0.0 l 3.0517578e-05 6.1035156e-05 l 120.51376 123.52374 l 59.681885 61.171143 l -413.19525 276.79224 l -0.0010986328 -156.73975 l -3.0517578e-05 -151.06372 l 233.0 277.8418 l 0.0 61.154907 l -3.0517578e-05 -183.57922 l 0.0 60.151367 l -24.814728 246.74646 l -21.344513 0.0 l -23.458893 0.0 l -24.010193 0.0 l -22.612732 0.0 l 116.23645 -0.32995605 l 0.0007019043 -61.162598 l -162.67133 61.492554 l 22.591675 0.0 l -46.238647 0.0 l -23.504944 0.0 l -23.080338 0.0 l 1004.9394 -140.15564 l -69.31555 -69.41736 l 202.77808 209.57251 l -22.79602 0.00012207031 l -31.598022 -0.003540039 l -8.763916 -69.39075 l -114.95361 69.394775 l 28.586426 0.0 l 33.537964 0.0 l 28.483765 0.0 " /> </g> </svg>