<?xml version="1.0" standalone="no"?><!DOCTYPE svg PUBLIC "-//W3C//DTD SVG 1.1//EN" "http://www.w3.org/Graphics/SVG/1.1/DTD/svg11.dtd" ><svg xmlns="http://www.w3.org/2000/svg" xmlns:xlink="http://www.w3.org/1999/xlink" version="1.1" viewBox="-10 0 692 1000"><g transform="matrix(1 0 0 -1 0 800)"><path stroke="black" fill="none" d="M 1105.6445 1543.9966 l -1.6878662 0.002319336 l -44.196167 -0.09460449 l -84.222046 -60.910156 l -108.65527 -111.36694 l 43.96167 45.058594 l 154.56226 -153.65369 l -72.56549 -72.74951 l -64.16705 -64.260254 l -134.98364 170.57983 l -107.091 -109.75903 l 44.024353 45.123047 l 58.30188 -245.88135 l 68.10962 68.20508 l -207.69025 -208.00708 l 68.1178 68.216125 l 0.7026367 -154.02448 l 70.048706 -84.5332 l 140.38324 -168.78024 l -69.767395 83.92551 l -265.39563 -41.563416 l 55.478516 -68.6232 l 331.99823 -410.1267 l -0.35040283 0.46501923 l -89.67749 110.63883 l -6.9402466 8.573135 l 180.97656 152.49283 l -64.56256 77.781525 l -295.97528 -8.566864 l 107.85516 -133.14142 l -51.116943 63.167145 l 444.2707 -168.18246 l -64.53992 77.71846 l -78.34375 -251.71117 l 0.0 0.0 l 45.534668 -4.8912625e-09 l -2.0170898 -5.820766e-10 l 188.776 56.713886 l -2.4335938 4.5476418 l 35.37964 -61.26152 l 0.0 0.0 l -116.23389 -6.6359644e-06 l 0.0 0.0 l -777.444 65.08567 l -0.00024414062 62.27175 l -0.4498291 -127.35232 l -22.508392 -0.0025270078 l -24.089874 0.0006539263 l -22.504883 -0.0016304664 l -23.646667 0.020120084 l -23.451965 -0.018082466 l -23.031555 -0.0021203419 l -23.406631 0.01298191 l -23.311478 0.004914522 l -23.310669 0.00819087 l -23.30986 0.011467226 l -0.0059509277 308.64645 l 0.03593445 -154.08806 l 232.98813 37.235962 l 0.05657959 63.803925 l 0.015655518 63.843063 l 0.035308838 63.917847 l 0.01449585 63.89142 l -0.1065979 123.80313 l -0.0021362305 -58.64691 l -232.9516 102.42163 l -0.012878418 -150.77325 l 278.338 220.2901 l 0.0 0.0 l -8.730011 -8.72998 l 0.0 0.0 l -15.754242 -15.754211 l -4.653473 -4.6534424 l 0.0 0.0 l -10.436493 -10.436584 l -0.073272705 -0.07324219 l -4.1849365 -4.1849365 l 101.52411 -21.861145 l -336.0171 304.97845 l -0.012619019 -150.76971 l 232.95465 343.72107 l -0.00012207031 56.450806 l 41.023315 -183.0794 l 5.1505127 -0.1038208 l -42.856354 56.378418 l -3.2261047 -118.14435 l 0.0 0.0 l 0.0025634766 0.0034179688 l 0.52111816 0.6906128 l 123.24936 126.16846 l 55.226685 56.599976 l -412.0785 276.71216 l -0.012893677 -181.67395 l -0.00024414062 -115.51111 l 232.9999 271.89417 l -6.1035156e-05 56.41272 l -0.00012207031 -170.57129 l -3.0517578e-05 44.71338 l -40.956757 250.43909 l -1.0883179 0.0 l -24.569244 0.0 l -31.578674 0.0 l -15.288544 0.0 l 113.42792 -3.8466797 l 0.0079956055 -56.500366 l -158.10294 60.347046 l 15.042999 0.0 l -42.38768 0.0 l -25.689041 0.0 l -20.739334 0.0 l 1000.0297 -143.94592 l -64.15234 -64.27417 l 173.65894 208.20264 l 0.0 0.0 l -12.657715 -0.028564453 l -21.16565 -63.964478 l 0.008911133 0.033081055 l -95.28723 63.97754 l 1.8803711 0.0 l 59.43933 0.0 l 1.1729736 0.0 " /> </g> </svg>