<?xml version="1.0" standalone="no"?><!DOCTYPE svg PUBLIC "-//W3C//DTD SVG 1.1//EN" "http://www.w3.org/Graphics/SVG/1.1/DTD/svg11.dtd" ><svg xmlns="http://www.w3.org/2000/svg" xmlns:xlink="http://www.w3.org/1999/xlink" version="1.1" viewBox="-10 0 692 1000"><g transform="matrix(1 0 0 -1 0 800)"><path stroke="black" fill="none" d="M 1112.251 1544.0 l -30.882446 0.0 l -60.470764 0.0 l 28.717957 0.0 l -90.59326 -61.59558 l -120.11499 -123.112915 l 59.9812 61.47827 l 152.0188 -156.37976 l -69.82031 -69.92102 l -69.758545 -69.85852 l -132.61755 172.98218 l -120.103455 -123.10095 l 59.98163 61.478638 l 53.138306 -251.16083 l 69.78754 69.88751 l -209.38745 -209.6875 l 69.78766 69.88757 l 0.40222168 -154.39722 l 70.19891 -84.500244 l 140.39978 -168.99841 l -70.19672 84.49579 l -265.40002 -41.897522 l 55.59912 -68.69946 l 333.58813 -412.18475 l -55.853333 69.012054 l -55.241882 68.25751 l 197.87476 132.05156 l -70.15851 84.45056 l -294.61017 -10.287262 l 111.175354 -137.36865 l -55.566956 68.65924 l 449.5608 -174.45346 l -70.15845 84.45009 l -100.860596 -253.48683 l 30.473877 -5.456968e-12 l 62.402832 1.8189894e-12 l -30.984985 -3.637979e-12 l 179.4508 84.32898 l 7.981079 -84.32898 l 36.59497 -1.5283149e-08 l 23.450806 -3.0377123e-10 l -93.32263 -2.3646862e-11 l -28.862793 -1.6916601e-10 l -33.522217 -3.6379788e-11 l -28.759766 -6.366463e-11 l -729.4515 63.90868 l 0.0 63.88802 l -0.0032958984 -127.79671 l -23.29419 -1.8597042e-05 l -23.305817 4.812453e-06 l -23.294128 -1.199912e-05 l -23.302582 0.00014807002 l -23.301086 -0.00013307454 l -23.298035 -1.5604266e-05 l -23.300781 9.553798e-05 l -23.30008 3.6167476e-05 l -23.30008 6.0279184e-05 l -23.30008 8.439098e-05 l -4.5776367e-05 308.79883 l 0.0002746582 -154.39767 l 232.9999 37.29953 l 0.0004272461 63.899307 l 0.00012207031 63.899582 l 0.00024414062 63.900146 l 0.00012207031 63.899933 l -0.00079345703 127.77057 l 0.0 -63.86133 l -232.99965 106.37067 l -0.00010681152 -154.37329 l 271.67212 214.46594 l 0.45993042 0.4598999 l 3.7743225 3.774353 l 5.0349426 5.034912 l -19.042084 -19.042053 l 4.642578 4.642517 l -9.564941 -9.564941 l -4.87027 -4.870178 l -4.633911 -4.633972 l -4.904297 -4.904358 l -4.7469482 -4.746887 l -4.810364 -4.810364 l 103.58472 -20.708557 l -336.5957 308.07703 l -9.1552734e-05 -154.37335 l 232.99966 340.82153 l 0.0 61.562134 l 0.3019104 -184.78741 l 59.69568 -0.00061035156 l -59.973175 61.561462 l -0.024353027 -123.163574 l 0.0 0.0 l 0.0 0.0 l 0.0 0.0 l 120.22699 123.22778 l 60.064087 61.563354 l -413.29105 276.7992 l -9.1552734e-05 -154.60083 l 0.0 -154.11365 l 233.0 278.35193 l 0.0 61.56189 l 0.0 -184.69519 l 0.0 61.475708 l -23.429962 246.42969 l -23.132233 0.0 l -23.31363 0.0 l -23.360931 0.0 l -23.241028 0.0 l 116.47739 -0.028320312 l 6.1035156e-05 -61.562378 l -163.06323 61.5907 l 23.239258 0.0 l -46.569016 0.0 l -23.317581 0.0 l -23.281158 0.0 l 1005.36053 -139.83044 l -69.75842 -69.85864 l 208.83191 209.68921 l -30.387573 0.0 l -31.1427 -0.00036621094 l -7.699951 -69.85632 l -116.6416 69.85669 l 30.8844 0.0 l 31.309082 0.0 l 30.87561 0.0 " /> </g> </svg>