<?xml version="1.0" standalone="no"?><!DOCTYPE svg PUBLIC "-//W3C//DTD SVG 1.1//EN" "http://www.w3.org/Graphics/SVG/1.1/DTD/svg11.dtd" ><svg xmlns="http://www.w3.org/2000/svg" xmlns:xlink="http://www.w3.org/1999/xlink" version="1.1" viewBox="-10 0 692 1000"><g transform="matrix(1 0 0 -1 0 800)"><path stroke="black" fill="none" d="M 1110.3506 1543.999 l -22.445557 0.00061035156 l -40.08972 -0.0061035156 l 0.0 0.0 l -84.042114 -61.419434 l -116.8186 -119.73425 l 55.37317 56.755127 l 152.75049 -155.59558 l -70.609985 -70.73462 l -68.15021 -68.24817 l -133.2981 172.29114 l -116.36047 -119.26318 l 55.39154 56.773926 l 54.623596 -249.64215 l 69.30487 69.4035 l -208.89923 -209.2041 l 69.30731 69.4068 l 0.48864746 -154.28998 l 70.1557 -84.509766 l 140.39502 -168.93564 l -70.07324 84.33176 l -265.39874 -41.801453 l 55.564392 -68.67749 l 333.13086 -411.59274 l -65.683655 81.1198 l -41.3479 51.08925 l 193.01392 137.93152 l -68.54883 82.532196 l -295.0028 -9.792389 l 110.22034 -136.15268 l -54.286926 67.07944 l 448.03912 -172.64961 l -68.54224 82.51373 l -79.93652 -252.97606 l 2.3040771 -1.9463187e-10 l 62.507446 4.1836756e-11 l -22.63623 -1.70985e-10 l 192.68933 56.713894 l -11.272217 20.979717 l 15.009033 -77.69361 l 0.0 0.0 l 36.52478 -4.2252395e-07 l -112.343506 -1.7914499e-07 l 0.0 0.0 l -46.497437 -1.3258614e-08 l 0.0 0.0 l -742.15356 64.247246 l -9.1552734e-05 63.423096 l -0.13174438 -127.66888 l -23.068146 -0.00074014347 l -23.531342 0.00019153068 l -23.067108 -0.00047755265 l -23.40155 0.0058930367 l -23.344513 -0.005296232 l -23.221375 -0.0006210337 l -23.331223 0.003802314 l -23.30336 0.0014394298 l -23.303131 0.0023990497 l -23.302887 0.0033586733 l -0.001739502 308.755 l 0.010528564 -154.30862 l 232.99652 37.28125 l 0.016571045 63.871872 l 0.0045776367 63.883316 l 0.010345459 63.905243 l 0.0042419434 63.89746 l -0.031219482 126.629364 l -0.00061035156 -62.36142 l -232.98584 105.23477 l -0.003768921 -153.33777 l 277.04688 219.59857 l 0.0 0.0 l 1.6180725 1.618103 l -12.925659 -12.92572 l 0.119659424 0.11968994 l -9.780487 -9.780457 l -7.465088 -7.465088 l -0.07620239 -0.07623291 l -7.195801 -7.195801 l -2.6878662 -2.6878662 l -5.212555 -5.2125244 l 102.991974 -21.0401 l -336.42926 307.18567 l -0.003692627 -153.33673 l 232.98671 341.65558 l -3.0517578e-05 60.091797 l 12.015442 -184.29602 l 44.005737 -0.030334473 l -55.0495 60.070496 l -0.96398926 -121.744446 l 0.0 0.0 l 0.00012207031 0.00018310547 l 0.00076293945 0.0010375977 l 121.26477 124.296814 l 58.672607 60.13562 l -412.94226 276.77417 l -0.003768921 -162.38843 l -7.6293945e-05 -143.00964 l 232.99997 276.4944 l -3.0517578e-05 60.08069 l -3.0517578e-05 -180.63245 l 0.0 56.654053 l -28.471558 247.58301 l -16.623627 0.0 l -23.842468 0.0 l -25.724762 0.0 l -20.953491 0.0 l 115.60019 -1.126709 l 0.0023498535 -60.106323 l -161.63638 61.233032 l 20.881592 0.0 l -45.366257 0.0 l -23.99974 0.0 l -22.550003 0.0 l 1003.82715 -141.01428 l -68.145874 -68.2522 l 186.79126 209.2644 l -2.7495117 0.0007324219 l -32.79944 -0.012084961 l -11.573364 -68.1615 l 0.111450195 0.4124756 l -110.60779 67.76257 l 22.51831 0.0 l 39.42383 0.0 l 22.167358 0.0 " /> </g> </svg>