<?xml version="1.0" standalone="no"?><!DOCTYPE svg PUBLIC "-//W3C//DTD SVG 1.1//EN" "http://www.w3.org/Graphics/SVG/1.1/DTD/svg11.dtd" ><svg xmlns="http://www.w3.org/2000/svg" xmlns:xlink="http://www.w3.org/1999/xlink" version="1.1" viewBox="-10 0 692 1000"><g transform="matrix(1 0 0 -1 0 800)"><path stroke="black" fill="none" d="M 1089.5768 1543.9883 l 0.0 0.0 l -33.752808 -1.104248 l -89.645935 -58.386963 l -80.783936 -82.79932 l 5.000305 5.1240234 l 160.74841 -147.02356 l -79.24225 -79.62866 l -50.56781 -50.644653 l -140.7384 164.73694 l -0.8909302 -0.91760254 l -74.552185 -76.392334 l 5.2142334 5.3444824 l 70.86047 -233.04102 l 64.02881 64.11304 l -203.56256 -203.91986 l 64.05646 64.15082 l 1.4334106 -153.11798 l 69.68335 -84.61334 l 140.34296 -168.24951 l -68.723145 82.53839 l -265.38507 -40.75067 l 55.18524 -68.437775 l 328.1313 -405.12134 l -0.024108887 0.03199768 l -92.09912 113.36081 l 0.0 0.0 l 169.39197 165.70535 l -50.95233 61.561707 l -299.29553 -4.382721 l 99.78009 -122.86029 l -40.294067 49.809723 l 431.40454 -152.93066 l -50.875122 61.346344 l -78.4032 -247.39252 l 24.369263 -6.392111e-08 l 0.0 0.0 l 241.19409 17.515465 l 0.0 0.0 l -129.30981 -17.515163 l 0.0 0.0 l -767.96875 67.947945 l -0.00076293945 58.340797 l -1.5358582 -126.2715 l -20.59726 -0.0086277425 l -25.996765 0.0022326428 l -20.585327 -0.005566759 l -24.483643 0.06869426 l -23.818878 -0.061737396 l -22.383423 -0.0072393008 l -23.664047 0.044323016 l -23.339218 0.016779222 l -23.336426 0.027965382 l -23.333633 0.039151564 l -0.020324707 308.2758 l 0.122680664 -153.33502 l 232.95943 37.081345 l 0.19320679 63.57196 l 0.053497314 63.705643 l 0.12054443 63.960907 l 0.049468994 63.870728 l -0.36398315 114.15387 l -0.007293701 -45.964905 l -232.8347 92.81702 l -0.044006348 -142.0174 l 269.6059 209.5108 l 0.0 0.0 l -20.334106 -20.334045 l 0.0 0.0 l -12.263519 -12.263489 l 0.0 0.0 l -0.3132019 -0.31323242 l 97.957825 -23.218933 l -0.23675537 0.17663574 l -334.373 297.26575 l -0.043121338 -142.00543 l 232.84523 350.773 l -0.00048828125 44.019653 l 42.627502 -176.92297 l 0.0 0.0 l -31.300873 41.415405 l -10.254089 -104.93091 l 0.0 0.0 l 0.14187622 0.18804932 l 131.49649 134.50836 l 43.46161 44.528564 l -409.12946 276.50037 l 0.011520386 -1.1088867 l -0.05555725 -246.40979 l -0.0008392334 -21.625366 l 232.9996 256.188 l -0.00012207031 43.889282 l -0.0005187988 -136.22021 l -6.1035156e-05 3.9490967 l -49.606934 260.18677 l 0.0 0.0 l -9.075043 0.0 l -51.565094 -0.00012207031 l -0.43515015 0.0 l 110.49921 -13.133179 l 0.027252197 -44.188843 l -146.03894 57.322144 l 0.36206055 0.0 l -37.47151 0.0 l -31.456665 0.0 l -14.557358 0.0 l 987.0645 -153.95532 l -50.517456 -50.692017 l 169.28638 204.11328 l 0.0 0.0 l -28.881958 -49.258057 l 0.0 0.0 l -87.42969 49.792236 l 0.0 0.0 l 43.795654 0.0 l 0.0 0.0 " /> </g> </svg>