<?xml version="1.0" standalone="no"?><!DOCTYPE svg PUBLIC "-//W3C//DTD SVG 1.1//EN" "http://www.w3.org/Graphics/SVG/1.1/DTD/svg11.dtd" ><svg xmlns="http://www.w3.org/2000/svg" xmlns:xlink="http://www.w3.org/1999/xlink" version="1.1" viewBox="-10 0 692 1000"><g transform="matrix(1 0 0 -1 0 800)"><path stroke="black" fill="none" d="M 1112.251 1544.0 l -31.036255 0.0 l -61.693542 0.0 l 30.402283 0.0 l -91.02228 -61.598755 l -120.17505 -123.17456 l 60.065186 61.564453 l 152.00543 -156.39404 l -69.80585 -69.90625 l -69.7879 -69.88782 l -132.60516 172.99475 l -120.17163 -123.1709 l 60.065308 61.564453 l 53.111206 -251.1886 l 69.796326 69.89636 l -209.39636 -209.69635 l 69.79645 69.89636 l 0.40057373 -154.39917 l 70.19971 -84.50006 l 140.3999 -168.99957 l -70.198975 84.49878 l -265.40002 -41.899292 l 55.59973 -68.69986 l 333.5965 -412.19553 l -55.674194 68.791405 l -55.495056 68.57039 l 197.96326 131.94441 l -70.187805 84.485504 l -294.60303 -10.296295 l 111.19281 -137.39081 l -55.590332 68.68805 l 449.5885 -174.48634 l -70.18787 84.48538 l -101.24194 -253.49614 l 30.987305 -1.8189894e-12 l 62.40088 1.8189894e-12 l -31.137085 -1.8189894e-12 l 179.41492 84.44991 l 7.8530273 -84.44991 l 32.78015 -4.476533e-09 l 28.930298 -8.913048e-11 l -93.5188 -7.275958e-12 l -30.51538 -4.9112714e-11 l -31.880249 -1.0913936e-11 l -30.48523 -1.8189894e-11 l -728.9908 63.90251 l 0.0 63.896492 l -0.0009765625 -127.79904 l -23.29831 -5.446949e-06 l -23.301697 1.4095422e-06 l -23.298248 -3.5144622e-06 l -23.300781 4.3368702e-05 l -23.300323 -3.897663e-05 l -23.299408 -4.5703855e-06 l -23.300232 2.7982423e-05 l -23.300018 1.0593212e-05 l -23.300018 1.7655359e-05 l -23.300034 2.4717549e-05 l -1.5258789e-05 308.79965 l 7.6293945e-05 -154.3993 l 232.99998 37.299866 l 0.00012207031 63.899796 l 3.0517578e-05 63.899902 l 6.1035156e-05 63.900024 l 3.0517578e-05 63.899963 l -0.00021362305 127.79141 l 0.0 -63.888702 l -232.99991 106.39139 l -3.0517578e-05 -154.39218 l 271.4797 214.27792 l 4.6342773 4.6343384 l 4.8688354 4.8687744 l -19.153748 -19.153748 l 4.7539062 4.753845 l -9.589752 -9.589722 l -4.820587 -4.8204956 l -4.751343 -4.751404 l -4.830536 -4.8305664 l -4.784485 -4.784424 l -4.803009 -4.8030396 l 103.59552 -20.702515 l -336.59875 308.09326 l -3.0517578e-05 -154.39221 l 232.99991 340.80627 l 0.0 61.58899 l 0.08843994 -184.79639 l 59.981598 -0.00012207031 l -60.062897 61.588623 l -0.007080078 -123.18921 l 0.0 0.0 l 0.0 0.0 l 0.0 0.0 l 120.207886 123.20813 l 60.089478 61.589355 l -413.2974 276.79956 l -3.0517578e-05 -154.45886 l 0.0 -154.31604 l 233.0 278.38586 l 0.0 61.588867 l 0.0 -184.76929 l 0.0 61.5636 l -23.338074 246.40869 l -23.250854 0.0 l -23.303986 0.0 l -23.317871 0.0 l -23.282715 0.0 l 116.49338 -0.008300781 l 3.0517578e-05 -61.58899 l -163.08925 61.59729 l 23.282242 0.0 l -46.590942 0.0 l -23.305145 0.0 l -23.294495 0.0 l 1005.3885 -139.80884 l -69.78784 -69.88794 l 209.23364 209.6969 l -30.891357 0.0 l -31.112427 -0.00012207031 l -7.6293945 -69.88721 l -116.75354 69.88733 l 31.036865 0.0 l 31.161133 0.0 l 31.034302 0.0 " /> </g> </svg>