<?xml version="1.0" standalone="no"?><!DOCTYPE svg PUBLIC "-//W3C//DTD SVG 1.1//EN" "http://www.w3.org/Graphics/SVG/1.1/DTD/svg11.dtd" ><svg xmlns="http://www.w3.org/2000/svg" xmlns:xlink="http://www.w3.org/1999/xlink" version="1.1" viewBox="-10 0 692 1000"><g transform="matrix(1 0 0 -1 0 800)"><path stroke="black" fill="none" d="M 1112.1327 1543.9999 l -30.357544 0.0 l -56.29602 -0.00012207031 l 22.96753 0.00012207031 l -89.12866 -61.58496 l -119.90985 -122.90283 l 59.694458 61.18445 l 152.06427 -156.33093 l -69.869385 -69.97168 l -69.65851 -69.7583 l -132.65985 172.93921 l -119.870605 -122.86218 l 59.696045 61.185913 l 53.230713 -251.0664 l 69.75751 69.85742 l -209.35706 -209.65741 l 69.75775 69.857666 l 0.40759277 -154.39056 l 70.19623 -84.500854 l 140.39954 -168.99448 l -70.18909 84.485565 l -265.3999 -41.89154 l 55.596924 -68.69809 l 333.5597 -412.1479 l -56.464966 69.76545 l -54.37738 67.189224 l 197.57227 132.41743 l -70.05835 84.33118 l -294.63458 -10.25647 l 111.11597 -137.29297 l -55.487366 68.56094 l 449.4662 -174.34123 l -70.05786 84.329605 l -99.558716 -253.45505 l 28.720703 -1.6370905e-11 l 62.409668 3.637979e-12 l -30.465454 -1.4551915e-11 l 179.57312 83.91611 l 8.418457 -83.91611 l 0.27038574 1.5896148e-08 l 49.349 -6.807022e-08 l 4.742798 -1.038643e-09 l -92.653076 -8.0035534e-11 l -23.220337 -5.820766e-10 l -39.128174 -1.2369128e-10 l -22.868774 -2.1282176e-10 l -731.0243 63.92975 l 0.0 63.859093 l -0.011291504 -127.78876 l -23.280151 -6.349427e-05 l -23.319824 1.6430742e-05 l -23.279999 -4.0967556e-05 l -23.308746 0.0005055426 l -23.303802 -0.00045434487 l -23.293243 -5.327628e-05 l -23.302689 0.00032618706 l -23.300278 0.00012348348 l -23.300278 0.00020580599 l -23.300247 0.00028812874 l -0.00015258789 308.7961 l 0.00091552734 -154.39215 l 232.9997 37.2984 l 0.0014343262 63.8976 l 0.00036621094 63.898575 l 0.00091552734 63.90045 l 0.00033569336 63.89978 l -0.0026550293 127.699524 l -6.1035156e-05 -63.767975 l -232.99878 106.30002 l -0.00033569336 -154.3089 l 272.3291 215.10791 l 0.11264038 0.11260986 l 2.7557678 2.7557373 l 5.6021423 5.602112 l -18.660797 -18.660767 l 4.26239 4.262329 l -9.480286 -9.480225 l -5.039795 -5.039734 l -4.2330017 -4.233032 l -5.156128 -5.156189 l -4.6188354 -4.6187744 l -4.8353577 -4.835388 l 103.54779 -20.729187 l -336.58533 308.02155 l -0.00032043457 -154.30884 l 232.99887 340.8734 l 0.0 61.47058 l 1.0307617 -184.75677 l 58.71939 -0.0024414062 l -59.66681 61.46869 l -0.08328247 -123.07587 l 0.0 0.0 l 0.0 0.0 l 0.0 0.0 l 120.29208 123.29498 l 59.97754 61.474487 l -413.26938 276.7976 l -0.00032043457 -155.08533 l 0.0 -153.42273 l 232.99998 278.23633 l 0.0 61.469727 l 0.0 -184.44238 l 0.0 61.17566 l -23.743652 246.50146 l -22.727264 0.0 l -23.346527 0.0 l -23.508026 0.0 l -23.098694 0.0 l 116.42282 -0.09667969 l 0.00021362305 -61.4718 l -162.97446 61.56848 l 23.09253 0.0 l -46.494156 0.0 l -23.360031 0.0 l -23.235657 0.0 l 1005.2652 -139.90405 l -69.6582 -69.75867 l 207.46057 209.66272 l -28.667847 0.0 l -31.24585 -0.0010986328 l -7.94104 -69.750854 l -116.259155 69.752075 l 30.363892 0.0 l 31.813965 0.0 l 30.33374 0.0 " /> </g> </svg>