<?xml version="1.0" standalone="no"?><!DOCTYPE svg PUBLIC "-//W3C//DTD SVG 1.1//EN" "http://www.w3.org/Graphics/SVG/1.1/DTD/svg11.dtd" ><svg xmlns="http://www.w3.org/2000/svg" xmlns:xlink="http://www.w3.org/1999/xlink" version="1.1" viewBox="-10 0 692 1000"><g transform="matrix(1 0 0 -1 0 800)"><path stroke="black" fill="none" d="M 655.0 1544.0 l 0.0 -99.900024 l 217.93573 -45.45569 l 0.0 0.0 l 34.59375 -249.80237 l 0.0 0.0 l -291.91827 -20.573242 l 0.0 0.0 l 39.388794 -83.76868 l 155.95331 -13.721924 l 0.0 0.0 l -127.62421 -136.37708 l 0.0 0.0 l 5.0463257 -138.49945 l 49.638855 -89.01056 l 138.13098 -139.13062 l 0.0 0.0 l -11.425903 6.4299927 l -264.80554 3.8432617 l 39.09546 -58.26422 l 13.740723 -33.97943 l 165.75641 -172.70187 l 0.0 0.0 l -141.71967 132.2435 l -30.786743 -42.371613 l 68.34454 -20.780975 l -75.34454 -25.33902 l -4.25 -20.330017 l 0.0 0.0 l -5.3499756 -19.690002 l -6.050049 -19.069977 l -6.75 -18.450012 l -7.449951 -17.830002 l -8.150024 -17.210007 l -8.849976 -16.589996 l -9.550049 -15.970001 l -10.25 -15.349991 l -10.949951 -14.730011 l 0.0 0.0 l 534.1958 -140.29947 l 0.0 0.0 l -584.0358 90.97948 l -27.200012 -20.549995 l -28.71997 -17.810001 l -37.00525 52.996838 l 0.0 0.0 l -19.200165 -104.66012 l 0.0 0.0 l -45.457336 -0.82269216 l 0.0 0.0 l -28.954712 1.5041544 l -40.902344 -2.4312372 l -0.15011597 -0.011896849 l -27.509003 1.4619418 l -24.86113 0.66779613 l -24.749817 1.1129942 l -24.638535 1.5581923 l -34.221603 19.674032 l -27.11 8.359999 l -26.730003 9.880001 l -26.349998 11.400002 l -25.970001 12.920002 l 11.400002 19.899994 l 11.400002 19.900002 l 11.399994 19.900002 l 11.400002 19.899994 l 11.400002 19.90001 l 11.400002 19.899994 l 11.399994 19.899994 l 11.400002 19.90001 l 11.399994 19.899994 l 11.400009 19.90001 l 0.0 0.0 l 25.573227 26.703156 l 4.8825226 -112.015396 l 19.554245 56.242233 l 16.229996 -7.4100037 l 16.01001 -6.269989 l 15.789993 -5.130005 l 15.570007 -3.9900055 l 15.350006 -2.8499908 l 15.130005 -1.7100067 l 0.0 0.0 l 20.159973 0.79000854 l 18.880005 2.369995 l 17.600006 3.949997 l 16.320007 5.529999 l 15.039978 7.1100006 l 13.76001 8.690002 l 15.99054 -28.724945 l 0.0 0.0 l 7.6893616 50.844162 l 9.920105 13.430786 l 0.0 0.0 l 7.980011 16.980011 l -15.770325 25.753418 l 29.210327 15.28656 l 5.4599915 24.059998 l -29.872711 26.978577 l 38.272705 28.221436 l -36.304474 34.512848 l 41.344482 30.127136 l -40.36035 35.37207 l -228.77254 -5.703491 l 0.0 0.0 l 247.73134 169.49854 l 0.0 0.0 l 22.66153 136.39288 l -270.39288 5.3550415 l 0.0 0.0 l 212.72752 158.39642 l 0.0 0.0 l 101.03931 93.458496 l -328.9464 89.037476 l 0.0 0.0 l 228.19135 56.722534 l 0.0 0.0 l -32.95117 305.86682 l 0.0 0.0 l -150.84735 23.572998 l 0.0 0.0 l 264.57965 -33.10974 l 23.399963 0.0 l 23.400024 0.0 l 23.400024 0.0 l 23.399963 0.0 l 23.400024 0.0 l 23.399963 0.0 l 23.400024 0.0 l 23.400024 0.0 l 524.1689 31.908936 l 0.0 0.0 " /> </g> </svg>