<?xml version="1.0" standalone="no"?><!DOCTYPE svg PUBLIC "-//W3C//DTD SVG 1.1//EN" "http://www.w3.org/Graphics/SVG/1.1/DTD/svg11.dtd" ><svg xmlns="http://www.w3.org/2000/svg" xmlns:xlink="http://www.w3.org/1999/xlink" version="1.1" viewBox="-10 0 692 1000"><g transform="matrix(1 0 0 -1 0 800)"><path stroke="black" fill="none" d="M 803.4412 0.031173684 l 68.21466 17.02954 l 0.0009765625 -14.474611 l 0.0022583008 58.302887 l 0.0 -14.372997 l 0.0 45.8754 l 0.0 0.0 l 0.0 76.15222 l 0.0 -31.347641 l 0.0 -0.70388794 l 0.0 65.26164 l 0.0 14.346466 l -87.96045 2.824585 l 41.343872 -1.5258789e-05 l -92.431885 -1.5258789e-05 l -41.379883 0.0 l -273.47855 529.856 l -0.09310913 -132.3075 l 0.0 -132.4899 l 0.0 -132.48987 l 3.2937012 -132.56041 l 51.701904 -0.007659912 l 32.58792 -0.00010681152 l 129.73752 -0.00062561035 l -32.69922 1.5258789e-05 l -48.05896 -9.1552734e-05 l 47.03528 -218.99988 l 63.1427 3.8198777e-11 l 69.00885 -1.1714292e-09 l -206.59113 -1.7231287e-08 l -67.03046 3.473815e-09 l -69.173065 -5.8851947e-07 l -68.549835 4.2679653e-07 l -68.702576 0.0 l -68.70259 0.0 l 0.0 154.4 l 0.0 154.4 l 0.0 154.4 l 0.0 154.4 l 0.0 154.40002 l 0.0 154.39996 l 0.0 154.39996 l 0.0 154.40002 l 0.0 154.40002 l 0.0 154.40002 l 23.300003 0.0 l 23.299988 0.0 l 23.300003 0.0 l 23.300003 0.0 l 23.299988 0.0 l 23.300018 0.0 l 23.299988 0.0 l 23.299988 0.0 l 23.300018 0.0 l 23.299957 0.0 l 0.0 0.0 l 0.0 0.0 l 0.0 0.0 l 0.0 -132.47998 l 0.0 -132.47998 l 0.0 -132.47986 l 0.0 -132.6128 l 0.0 -132.34717 " /> </g> </svg>