<?xml version="1.0" standalone="no"?><!DOCTYPE svg PUBLIC "-//W3C//DTD SVG 1.1//EN" "http://www.w3.org/Graphics/SVG/1.1/DTD/svg11.dtd" ><svg xmlns="http://www.w3.org/2000/svg" xmlns:xlink="http://www.w3.org/1999/xlink" version="1.1" viewBox="-10 0 692 1000"><g transform="matrix(1 0 0 -1 0 800)"><path stroke="black" fill="none" d="M 803.31213 0.002677767 l 68.658325 21.482182 l 0.00012207031 -21.263002 l 0.00018310547 65.06543 l 0.0 -21.254284 l 0.0 60.835896 l 0.0 -15.771484 l 0.0 85.531555 l 0.0 -22.710464 l 0.0 -19.94725 l 0.0 65.527985 l 0.0 21.251999 l -90.5564 0.24230957 l 45.052063 0.0 l -90.94006 0.0 l -45.055054 0.0 l -272.49255 529.9877 l -0.0079956055 -132.48352 l 0.0 -132.49911 l 0.0 -132.49915 l 0.28256226 -132.50517 l 45.940613 -0.00065612793 l 44.300873 -1.5258789e-05 l 135.64563 -4.5776367e-05 l -44.310486 0.0 l -45.62805 -1.5258789e-05 l 43.34619 -218.99998 l 68.22327 3.4106051e-12 l 68.7265 -1.00499165e-10 l -206.14215 -1.4781563e-09 l -68.55676 2.9785951e-10 l -68.7406 -5.048696e-08 l -68.6871 3.66133e-08 l -68.70021 0.0 l -68.700226 0.0 l 0.0 154.4 l 0.0 154.4 l 0.0 154.4 l 0.0 154.4 l 0.0 154.40002 l 0.0 154.39996 l 0.0 154.39996 l 0.0 154.40002 l 0.0 154.40002 l 0.0 154.40002 l 23.300003 0.0 l 23.299988 0.0 l 23.300003 0.0 l 23.300003 0.0 l 23.299988 0.0 l 23.300018 0.0 l 23.299988 0.0 l 23.299988 0.0 l 23.300018 0.0 l 23.299957 0.0 l 0.0 0.0 l 0.0 0.0 l 0.0 0.0 l 0.0 -132.49829 l 0.0 -132.49829 l 0.0 -132.49829 l 0.0 -132.50964 l 0.0 -132.48688 " /> </g> </svg>