<?xml version="1.0" standalone="no"?><!DOCTYPE svg PUBLIC "-//W3C//DTD SVG 1.1//EN" "http://www.w3.org/Graphics/SVG/1.1/DTD/svg11.dtd" ><svg xmlns="http://www.w3.org/2000/svg" xmlns:xlink="http://www.w3.org/1999/xlink" version="1.1" viewBox="-10 0 692 1000"><g transform="matrix(1 0 0 -1 0 800)"><path stroke="black" fill="none" d="M 803.7821 0.10642439 l 0.16870117 0.037241757 l 66.87427 5.2339725 l 0.00091552734 -0.47406197 l 0.010192871 44.370605 l 0.0 -0.43784714 l 0.0 42.365154 l 0.0 61.27221 l 0.0 -13.885941 l 0.0 0.0 l 0.0 74.40106 l 0.0 0.4288025 l -81.1051 5.3255463 l 31.551392 -1.5258789e-05 l -96.37158 -6.1035156e-05 l -31.674438 0.0 l -276.08234 529.5084 l -0.31793213 -131.84283 l 0.0 -132.46542 l 0.0 -132.4654 l 11.245422 -132.70628 l 66.916046 -0.026138306 l 1.9319763 -0.00035095215 l 113.860596 -0.0021514893 l -2.1901855 3.0517578e-05 l -54.32495 -0.00030517578 l 0.09637451 -4.5776367e-05 l 56.68097 -218.99953 l 49.726135 1.2983037e-10 l 69.754395 -3.999503e-09 l -207.77667 -5.8830665e-08 l -63.0 1.1860266e-08 l -70.31506 -2.0093314e-06 l -68.18735 1.4571744e-06 l -68.70882 0.0 l -68.70883 0.0 l 0.0 154.4 l 0.0 154.4 l 0.0 154.4 l 0.0 154.4 l 0.0 154.40002 l 0.0 154.39996 l 0.0 154.39996 l 0.0 154.40002 l 0.0 154.40002 l 0.0 154.40002 l 23.300003 0.0 l 23.299988 0.0 l 23.300003 0.0 l 23.300003 0.0 l 23.299988 0.0 l 23.300018 0.0 l 23.299988 0.0 l 23.299988 0.0 l 23.300018 0.0 l 23.299957 0.0 l 0.0 0.0 l 0.0 0.0 l 0.0 0.0 l 0.0 -132.43152 l 0.0 -132.43164 l 0.0 -132.43152 l 0.0 -132.88489 l 0.0 -131.97821 " /> </g> </svg>