<?xml version="1.0" standalone="no"?><!DOCTYPE svg PUBLIC "-//W3C//DTD SVG 1.1//EN" "http://www.w3.org/Graphics/SVG/1.1/DTD/svg11.dtd" ><svg xmlns="http://www.w3.org/2000/svg" xmlns:xlink="http://www.w3.org/1999/xlink" version="1.1" viewBox="-10 0 692 1000"><g transform="matrix(1 0 0 -1 0 800)"><path stroke="black" fill="none" d="M 803.3414 0.009133259 l 68.5578 20.473475 l 0.00030517578 -19.725153 l 0.0006713867 63.53344 l 0.0 -19.695396 l 0.0 49.09291 l 0.0 -1.1674194 l 0.0 80.7294 l 0.0 -24.667145 l 0.0 -15.232834 l 0.0 65.11264 l 0.0 19.687622 l -89.96832 0.827301 l 44.212036 -1.5258789e-05 l -91.278015 0.0 l -44.222534 0.0 l -272.71588 529.9578 l -0.027282715 -132.4436 l 0.0 -132.49704 l 0.0 -132.49704 l 0.96469116 -132.5177 l 47.24579 -0.002243042 l 41.64743 -3.0517578e-05 l 134.30719 -0.00018310547 l -41.680054 0.0 l -46.178772 -1.5258789e-05 l 44.181946 -218.99997 l 67.072266 1.1368684e-11 l 68.79047 -3.4310688e-10 l -206.24384 -5.0470135e-09 l -68.21097 1.0174972e-09 l -68.83859 -1.7237335e-07 l -68.656006 1.2500573e-07 l -68.700745 0.0 l -68.70076 0.0 l 0.0 154.4 l 0.0 154.4 l 0.0 154.4 l 0.0 154.4 l 0.0 154.40002 l 0.0 154.39996 l 0.0 154.39996 l 0.0 154.40002 l 0.0 154.40002 l 0.0 154.40002 l 23.300003 0.0 l 23.299988 0.0 l 23.300003 0.0 l 23.300003 0.0 l 23.299988 0.0 l 23.300018 0.0 l 23.299988 0.0 l 23.299988 0.0 l 23.300018 0.0 l 23.299957 0.0 l 0.0 0.0 l 0.0 0.0 l 0.0 0.0 l 0.0 -132.49414 l 0.0 -132.49414 l 0.0 -132.49414 l 0.0 -132.53296 l 0.0 -132.45526 " /> </g> </svg>