<?xml version="1.0" standalone="no"?><!DOCTYPE svg PUBLIC "-//W3C//DTD SVG 1.1//EN" "http://www.w3.org/Graphics/SVG/1.1/DTD/svg11.dtd" ><svg xmlns="http://www.w3.org/2000/svg" xmlns:xlink="http://www.w3.org/1999/xlink" version="1.1" viewBox="-10 0 692 1000"><g transform="matrix(1 0 0 -1 0 800)"><path stroke="black" fill="none" d="M 803.3011 0.00023320358 l 68.69641 21.864155 l 0.0 -21.845352 l 0.0 65.64556 l 0.0 -21.844608 l 0.0 65.282715 l 0.0 -21.374245 l 0.0 87.42255 l 0.0 -21.969528 l 0.0 -21.732483 l 0.0 65.68526 l 0.0 21.844406 l -90.77911 0.02078247 l 45.37018 0.0 l -90.81207 0.0 l -45.37036 0.0 l -272.40793 529.99896 l -0.0007019043 -132.4986 l 0.0 -132.49994 l 0.0 -132.49991 l 0.024230957 -132.50046 l 45.44638 -6.1035156e-05 l 45.305695 0.0 l 136.15247 0.0 l -45.30658 0.0 l -45.419495 0.0 l 43.029663 -219.0 l 68.65912 4.5474735e-13 l 68.70227 -8.6402e-12 l -206.10364 -1.2687451e-10 l -68.68765 2.5465852e-11 l -68.70349 -4.3310138e-09 l -68.69891 3.14094e-09 l -68.7 0.0 l -68.70001 0.0 l 0.0 154.4 l 0.0 154.4 l 0.0 154.4 l 0.0 154.4 l 0.0 154.40002 l 0.0 154.39996 l 0.0 154.39996 l 0.0 154.40002 l 0.0 154.40002 l 0.0 154.40002 l 23.300003 0.0 l 23.299988 0.0 l 23.300003 0.0 l 23.300003 0.0 l 23.299988 0.0 l 23.300018 0.0 l 23.299988 0.0 l 23.299988 0.0 l 23.300018 0.0 l 23.299957 0.0 l 0.0 0.0 l 0.0 0.0 l 0.0 0.0 l 0.0 -132.49988 l 0.0 -132.49988 l 0.0 -132.49976 l 0.0 -132.50085 l 0.0 -132.4989 " /> </g> </svg>