<?xml version="1.0" standalone="no"?><!DOCTYPE svg PUBLIC "-//W3C//DTD SVG 1.1//EN" "http://www.w3.org/Graphics/SVG/1.1/DTD/svg11.dtd" ><svg xmlns="http://www.w3.org/2000/svg" xmlns:xlink="http://www.w3.org/1999/xlink" version="1.1" viewBox="-10 0 692 1000"><g transform="matrix(1 0 0 -1 0 800)"><path stroke="black" fill="none" d="M 803.3011 0.00023320358 l 68.69891 21.889502 l 0.0 -21.883993 l 0.0 65.68406 l 0.0 -21.883778 l 0.0 65.577774 l 0.0 -21.746002 l 0.0 87.54801 l 0.0 -21.92035 l 0.0 -21.850952 l 0.0 65.695694 l 0.0 21.883713 l -90.793884 0.006088257 l 45.391296 0.0 l -90.80359 0.0 l -45.391296 0.0 l -272.4023 529.9997 l -0.00021362305 -132.49957 l 0.0 -132.5 l 0.0 -132.49997 l 0.0071105957 -132.50014 l 45.413574 -1.5258789e-05 l 45.372375 0.0 l 136.18607 0.0 l -45.37262 0.0 l -45.4057 0.0 l 43.008667 -219.0 l 68.68805 2.2737368e-13 l 68.70068 -2.5011104e-12 l -206.10107 -3.7289283e-11 l -68.69638 7.503331e-12 l -68.70102 -1.2685177e-09 l -68.69971 9.199539e-10 l -68.69998 0.0 l -68.7 0.0 l 0.0 154.4 l 0.0 154.4 l 0.0 154.4 l 0.0 154.4 l 0.0 154.40002 l 0.0 154.39996 l 0.0 154.39996 l 0.0 154.40002 l 0.0 154.40002 l 0.0 154.40002 l 23.300003 0.0 l 23.299988 0.0 l 23.300003 0.0 l 23.300003 0.0 l 23.299988 0.0 l 23.300018 0.0 l 23.299988 0.0 l 23.299988 0.0 l 23.300018 0.0 l 23.299957 0.0 l 0.0 0.0 l 0.0 0.0 l 0.0 0.0 l 0.0 -132.5 l 0.0 -132.49988 l 0.0 -132.5 l 0.0 -132.50024 l 0.0 -132.49963 " /> </g> </svg>