<?xml version="1.0" standalone="no"?><!DOCTYPE svg PUBLIC "-//W3C//DTD SVG 1.1//EN" "http://www.w3.org/Graphics/SVG/1.1/DTD/svg11.dtd" ><svg xmlns="http://www.w3.org/2000/svg" xmlns:xlink="http://www.w3.org/1999/xlink" version="1.1" viewBox="-10 0 692 1000"><g transform="matrix(1 0 0 -1 0 800)"><path stroke="black" fill="none" d="M 803.3036 0.00078699726 l 68.687805 21.777622 l 0.0 -21.713427 l 6.1035156e-05 65.51414 l 0.0 -21.710873 l 0.0 64.27533 l 0.0 -20.104996 l 0.0 86.99416 l 0.0 -22.137375 l 0.0 -21.328064 l 0.0 65.64963 l 0.0 21.710205 l -90.72864 0.07096863 l 45.298096 0.0 l -90.841064 0.0 l -45.29895 0.0 l -272.4271 529.9964 l -0.0023498535 -132.49518 l 0.0 -132.49976 l 0.0 -132.49973 l 0.08276367 -132.50153 l 45.55835 -0.00019836426 l 45.078064 0.0 l 136.0376 -1.5258789e-05 l -45.08087 0.0 l -45.466797 0.0 l 43.10144 -219.0 l 68.56036 9.094947e-13 l 68.70776 -2.9331204e-11 l -206.11237 -4.3291948e-10 l -68.65802 8.708412e-11 l -68.711914 -1.4787247e-08 l -68.69623 1.0723852e-08 l -68.70004 0.0 l -68.70006 0.0 l 0.0 154.4 l 0.0 154.4 l 0.0 154.4 l 0.0 154.4 l 0.0 154.40002 l 0.0 154.39996 l 0.0 154.39996 l 0.0 154.40002 l 0.0 154.40002 l 0.0 154.40002 l 23.300003 0.0 l 23.299988 0.0 l 23.300003 0.0 l 23.300003 0.0 l 23.299988 0.0 l 23.300018 0.0 l 23.299988 0.0 l 23.299988 0.0 l 23.300018 0.0 l 23.299957 0.0 l 0.0 0.0 l 0.0 0.0 l 0.0 0.0 l 0.0 -132.49951 l 0.0 -132.49951 l 0.0 -132.49951 l 0.0 -132.5028 l 0.0 -132.49615 " /> </g> </svg>