<?xml version="1.0" standalone="no"?><!DOCTYPE svg PUBLIC "-//W3C//DTD SVG 1.1//EN" "http://www.w3.org/Graphics/SVG/1.1/DTD/svg11.dtd" ><svg xmlns="http://www.w3.org/2000/svg" xmlns:xlink="http://www.w3.org/1999/xlink" version="1.1" viewBox="-10 0 692 1000"><g transform="matrix(1 0 0 -1 0 800)"><path stroke="black" fill="none" d="M 418.0 928.0 l 60.100006 61.599976 l 60.100006 61.599976 l 60.099976 61.600098 l 60.100037 61.599976 l 60.099976 61.599976 l 60.099976 61.599976 l 60.100037 61.599976 l 60.099976 61.600098 l 60.099976 61.599976 l 60.100037 61.599976 l 31.099976 0.0 l 31.099976 0.0 l 31.099976 0.0 l 31.100098 0.0 l 31.099976 0.0 l 31.099976 0.0 l 31.099976 0.0 l 31.100098 0.0 l 31.099976 0.0 l 31.099976 0.0 l -69.80005 -69.900024 l -69.79993 -69.900024 l -69.80005 -69.900024 l -69.80005 -69.8999 l -69.79993 -69.900024 l -69.80005 -69.900024 l -69.79999 -69.900024 l -69.79999 -69.89996 l -69.79999 -69.900024 l -69.80005 -69.89996 l 70.20001 -84.5 l 70.20001 -84.5 l 70.20001 -84.5 l 70.19995 -84.50003 l 70.20001 -84.5 l 70.20001 -84.5 l 70.19995 -84.5 l 70.20007 -84.5 l 70.19995 -84.5 l 70.19995 -84.5 l -31.199951 0.0 l -31.199951 0.0 l -31.200073 0.0 l -31.199951 0.0 l -31.200073 0.0 l -31.199951 0.0 l -31.199951 0.0 l -31.200073 0.0 l -31.199951 0.0 l -31.200012 0.0 l -55.600037 68.7 l -142.97601 -56.85797 l 0.0 0.0 l 48.452454 197.76387 l 0.0 0.0 l -177.47217 9.429367 l 0.0 0.0 l 49.595764 124.46471 l -55.600037 68.70001 l -55.599976 68.70001 l -55.599976 68.70001 l -55.600037 68.69995 l -55.638184 68.74939 l -35.308777 42.385376 l 25.7164 -51.977722 l -4.7694397 -4.8569946 l -4.799988 -4.800049 l -4.799988 -4.799988 l -4.8000183 -4.799988 l -4.799988 -4.799988 l -4.799988 -4.800049 l -4.803833 -4.8217163 l -4.7961426 -20.68811 l -3.0517578e-05 -47.990173 l 3.0517578e-05 -83.13324 l -3.0517578e-05 -44.666748 l 3.0517578e-05 -86.456665 l -3.0517578e-05 -41.343323 l 0.0 -63.90001 l 117.86725 -36.800842 l 0.0 0.0 l -117.86725 -90.99916 l 0.0 -63.9 l 253.69543 -63.89992 l 0.0 0.0 l -231.70828 -6.4322785e-06 l 0.0 0.0 l -68.58716 -7.498013e-05 l -23.299988 0.0 l -24.99701 5.7994064e-05 l -21.602997 -5.7994064e-05 l -23.299988 0.0 l -24.148468 5.7994064e-05 l -22.451538 -5.7994064e-05 l -23.300003 0.0 l -23.299927 5.7994064e-05 l 0.0 154.4 l 0.0 154.39998 l 0.0 154.4 l 0.0 154.40002 l 0.0 154.39996 l 0.0 154.40002 l 0.0 154.39996 l 0.0 154.40002 l 0.0 154.40002 l 0.0 154.40002 l 23.300003 0.0 l 23.299988 0.0 l 23.300003 0.0 l 23.300003 0.0 l 23.299988 0.0 l 23.300018 0.0 l 23.299988 0.0 l 23.299988 0.0 l 23.300018 0.0 l 23.299988 0.0 l 0.0 0.0 l -6.1035156e-05 -61.600098 l 3.0517578e-05 -68.176025 l -3.0517578e-05 -55.024048 l 3.0517578e-05 -74.752075 l -3.0517578e-05 -48.447876 l 3.0517578e-05 -81.32825 l -3.0517578e-05 -41.871704 l 0.0 -61.600098 l 3.0517578e-05 -44.346436 l 0.0 -111.73389 " /> </g> </svg>