<?xml version="1.0" standalone="no"?><!DOCTYPE svg PUBLIC "-//W3C//DTD SVG 1.1//EN" "http://www.w3.org/Graphics/SVG/1.1/DTD/svg11.dtd" ><svg xmlns="http://www.w3.org/2000/svg" xmlns:xlink="http://www.w3.org/1999/xlink" version="1.1" viewBox="-10 0 692 1000"><g transform="matrix(1 0 0 -1 0 800)"><path stroke="black" fill="none" d="M 804.9459 0.3633464 l 0.020629883 0.004561186 l 62.941467 6.104809 l 0.0 0.0 l 0.11853027 45.340565 l 0.0 0.0 l 0.0 27.015198 l 0.0 61.8816 l 0.0 0.0 l 0.0 68.14856 l 0.0 0.0 l -57.699524 9.264465 l 1.1097412 -3.0517578e-05 l -112.81433 -0.00022888184 l -1.178772 0.0 l -282.33167 528.32153 l -1.0854492 -130.25629 l 0.0 -132.38187 l 0.0 -132.38193 l 38.394287 -133.20424 l 37.069946 -0.07408142 l 0.0 0.0 l 115.174194 -0.024719238 l 0.0 0.0 l -50.208496 4.5776367e-05 l 0.01550293 -1.5258789e-05 l 90.023254 -218.9985 l 3.9424438 4.4269655e-10 l 72.27655 -1.3654699e-08 l -211.82452 -2.0086031e-07 l -49.238953 4.0492978e-08 l -74.21417 -6.860286e-06 l -66.94971 4.9751043e-06 l -68.73013 0.0 l -68.73015 0.0 l 0.0 154.4 l 0.0 154.4 l 0.0 154.4 l 0.0 154.4 l 0.0 154.40002 l 0.0 154.39996 l 0.0 154.39996 l 0.0 154.40002 l 0.0 154.40002 l 0.0 154.40002 l 23.300003 0.0 l 23.299988 0.0 l 23.300003 0.0 l 23.300003 0.0 l 23.299988 0.0 l 23.300018 0.0 l 23.299988 0.0 l 23.299988 0.0 l 23.300018 0.0 l 23.299957 0.0 l 0.0 0.0 l 0.0 0.0 l 0.0 0.0 l 0.0 -132.26636 l 0.0 -132.26636 l 0.0 -132.26624 l 0.0 -133.81415 l 0.0 -130.7185 " /> </g> </svg>