<?xml version="1.0" standalone="no"?><!DOCTYPE svg PUBLIC "-//W3C//DTD SVG 1.1//EN" "http://www.w3.org/Graphics/SVG/1.1/DTD/svg11.dtd" ><svg xmlns="http://www.w3.org/2000/svg" xmlns:xlink="http://www.w3.org/1999/xlink" version="1.1" viewBox="-10 0 692 1000"><g transform="matrix(1 0 0 -1 0 800)"><path stroke="black" fill="none" d="M 418.0 928.0 l 60.100006 61.599976 l 60.100006 61.599976 l 60.099976 61.600098 l 60.100037 61.599976 l 60.099976 61.599976 l 60.099976 61.599976 l 60.100037 61.599976 l 60.099976 61.600098 l 60.099976 61.599976 l 60.100037 61.599976 l 31.099976 0.0 l 31.099976 0.0 l 31.099976 0.0 l 31.100098 0.0 l 31.099976 0.0 l 31.099976 0.0 l 31.099976 0.0 l 31.100098 0.0 l 31.099976 0.0 l 31.099976 0.0 l -69.80005 -69.900024 l -69.79993 -69.900024 l -69.80005 -69.900024 l -69.80005 -69.8999 l -69.79993 -69.900024 l -69.80005 -69.900024 l -69.79999 -69.900024 l -69.79999 -69.89996 l -69.79999 -69.900024 l -69.80005 -69.89996 l 70.20001 -84.5 l 70.20001 -84.5 l 70.20001 -84.5 l 70.19995 -84.50003 l 70.20001 -84.5 l 70.20001 -84.5 l 70.19995 -84.5 l 70.20007 -84.5 l 70.19995 -84.5 l 70.19995 -84.5 l -31.199951 0.0 l -31.199951 0.0 l -31.200073 0.0 l -31.199951 0.0 l -31.200073 0.0 l -31.199951 0.0 l -31.199951 0.0 l -31.200073 0.0 l -31.199951 0.0 l -31.200012 0.0 l -55.600037 68.7 l -143.91437 -64.46453 l 0.0 0.0 l 48.132935 28.570004 l 1.3811646 83.09674 l 0.0 0.0 l 0.00012207031 93.15947 l 0.0 0.0 l -66.32269 9.94136 l 0.0 0.0 l -96.36017 -0.0026855469 l 0.0 0.0 l 34.683044 124.49962 l -55.600037 68.70001 l -55.599976 68.70001 l -55.599976 68.70001 l -55.600037 68.69995 l -55.638184 68.74939 l -44.255768 56.220154 l 34.66339 -65.8125 l -4.7694397 -4.8569946 l -4.799988 -4.800049 l -4.799988 -4.799988 l -4.8000183 -4.799988 l -4.799988 -4.799988 l -4.799988 -4.800049 l -4.803833 -4.8217163 l -4.796112 -25.348022 l -6.1035156e-05 -43.33026 l 6.1035156e-05 -88.76654 l -6.1035156e-05 -39.033447 l 6.1035156e-05 -93.063354 l -6.1035156e-05 -34.736633 l 73.608 -99.58032 l 0.0 0.0 l 103.746796 -0.9375 l -26.712952 0.012817383 l 0.0 0.0 l -150.64185 -91.19501 l 0.0 -63.9 l 256.23505 -63.89992 l 0.0 0.0 l 26.522217 -3.3891638e-08 l -225.64471 -6.857799e-07 l -2.8065186 1.3232057e-07 l -86.97595 -2.3416547e-05 l -37.230072 -5.7994064e-05 l -25.49405 7.498013e-05 l -21.105957 -7.498013e-05 l -23.299988 0.0 l -24.396973 7.498013e-05 l -22.203033 -7.498013e-05 l -23.300003 0.0 l -23.299911 7.498013e-05 l 0.0 154.4 l 0.0 154.4 l 0.0 154.4 l 0.0 154.4 l 0.0 154.40002 l 0.0 154.39996 l 0.0 154.39996 l 0.0 154.40002 l 0.0 154.40002 l 0.0 154.40002 l 23.300003 0.0 l 23.299988 0.0 l 23.300003 0.0 l 23.300018 0.0 l 23.299988 0.0 l 23.300018 0.0 l 23.299988 0.0 l 23.299988 0.0 l 23.300018 0.0 l 23.299957 0.0 l 0.0 0.0 l 0.0 0.0 l -6.1035156e-05 -61.600098 l 6.1035156e-05 -70.10205 l -6.1035156e-05 -53.098022 l 6.1035156e-05 -78.60425 l -6.1035156e-05 -44.595703 l 6.1035156e-05 -87.106445 l -6.1035156e-05 -36.093506 l 0.0 -61.600098 l 6.1035156e-05 -39.29303 l 0.0 -126.417725 " /> </g> </svg>