<?xml version="1.0" standalone="no"?><!DOCTYPE svg PUBLIC "-//W3C//DTD SVG 1.1//EN" "http://www.w3.org/Graphics/SVG/1.1/DTD/svg11.dtd" ><svg xmlns="http://www.w3.org/2000/svg" xmlns:xlink="http://www.w3.org/1999/xlink" version="1.1" viewBox="-10 0 692 1000"><g transform="matrix(1 0 0 -1 0 800)"><path stroke="black" fill="none" d="M 1622.5411 1162.2366 l -28.990723 164.9419 l -58.151245 329.6682 l 24.395142 -160.81836 l -77.904175 42.568848 l -57.43103 -121.14331 l -53.673218 -117.30493 l -808.6703 119.2782 l -170.96838 -92.00745 l 224.03198 -28.07788 l 52.891785 -119.755615 l -309.58633 -18.9729 l -32.287262 -164.90985 l 394.97614 63.624573 l 52.89612 -119.77472 l 695.69476 -199.6654 l 13.821533 -86.454895 l 14.973145 -93.65234 l -48.06482 278.08752 l -55.86035 -6.5598145 l 44.331177 99.455444 l 241.69897 -98.72644 l -28.558105 162.39008 l 57.889038 -330.46295 l -775.03973 -84.56653 l 105.454895 0.008972168 l -54.724854 -119.54654 l -267.576 65.61679 l 41.17108 -93.09912 l -287.4103 127.33728 l 32.16632 180.99945 l -15.3741455 -86.40143 l 139.02164 75.626465 l 43.388 -98.10846 l -145.97742 207.08093 l 56.258972 -6.6048584 l -43.30768 99.565796 l -82.990845 -466.43314 l -16.485596 -92.65753 l -16.627808 -93.46518 l -16.588531 -93.282745 l 399.2048 143.92856 l 345.98932 488.83826 l -54.537476 -119.2146 l -216.13727 0.44781494 l -52.637024 119.17926 l 728.5713 -617.5201 l -11.408081 71.35553 l -16.676758 104.31323 l -13.777832 86.18033 l 92.196655 -464.11423 l 21.830688 -1.1461384e-05 l 0.0 0.0 l 48.302734 1.8994408e-05 l 1.4990234 -4.1049934e-06 l -103.451416 90.87462 l 0.52111816 -1.1227112 l 138.41882 -89.75192 l 34.716064 -1.9041911e-06 l 1.848999 -3.6185398e-08 l 34.883667 5.9274896e-07 l 34.96631 -6.521916e-07 l 1.829834 -1.3118907e-08 l -82.04797 497.64233 l 33.398804 -189.12119 l 23.13794 -131.49016 l -589.9485 763.61566 l 55.49414 121.31622 l 53.67639 117.32593 l 32.2865 -448.40265 l -45.384277 -99.60925 l -136.92676 -300.52664 l 46.21643 101.433075 l 44.66211 98.02191 l -137.06445 -300.82104 l -45.38562 -99.61035 l -224.6643 100.37755 l 44.38141 -100.351166 l 45.95459 -100.401695 l 88.03497 -0.09779358 l -45.1687 -100.25071 l -593.4165 164.23264 l -64.68161 -93.28275 l 23.858734 2.1827873e-11 l 24.197235 6.548362e-11 l -120.680725 -1.09139364e-10 l -24.342438 -7.275958e-12 l -23.421143 0.0 l 72.20117 0.0 l 23.87564 0.0 l -168.6073 5.8705307e-05 l 0.0 2.0403968e-07 l 0.0 1.8208448e-07 l 47.74588 -5.9089998e-05 l -23.437378 -3.4197e-10 l 8.19545 165.99792 l 32.493988 165.99785 l 32.493988 165.99786 l 32.494003 165.99783 l 32.493958 165.99786 l 162.53241 829.9358 l -32.067657 -165.6847 l 84.90924 45.681885 " /> </g> </svg>