<?xml version="1.0" standalone="no"?><!DOCTYPE svg PUBLIC "-//W3C//DTD SVG 1.1//EN" "http://www.w3.org/Graphics/SVG/1.1/DTD/svg11.dtd" ><svg xmlns="http://www.w3.org/2000/svg" xmlns:xlink="http://www.w3.org/1999/xlink" version="1.1" viewBox="-10 0 692 1000"><g transform="matrix(1 0 0 -1 0 800)"><path stroke="black" fill="none" d="M 1621.9137 1164.7583 l -26.761108 153.6659 l -55.499878 304.81885 l -26.81018 -105.59827 l -11.876099 6.0024414 l -84.40393 -133.3263 l -40.59961 -88.58484 l -812.61646 111.58667 l -170.63138 -92.08728 l 224.37314 -28.908081 l 51.738525 -117.1499 l -310.50665 -29.341675 l -30.019867 -153.29266 l 394.72202 59.62384 l 51.78888 -117.37372 l 705.22894 -255.77759 l 2.3287354 -14.573425 l 15.753174 -98.47247 l -83.92322 261.96844 l -5.350464 -0.8022461 l 29.743652 90.45441 l 238.49133 -63.840637 l -21.718018 123.91968 l 52.44348 -314.0832 l -752.0176 -90.6037 l 79.39807 0.10479736 l -52.85852 -114.714325 l -237.48157 3.9860535 l 6.7614746 -15.294067 l -276.8632 111.74927 l 21.150604 121.3147 l -2.3103638 -12.884705 l 143.51532 38.609802 l 32.603027 -73.68689 l -105.24121 198.35156 l 5.7350464 -1.3282471 l -31.66687 90.675964 l -82.89331 -465.72058 l -15.266693 -85.810974 l -16.924255 -95.22516 l -16.46637 -93.09891 l 399.25558 143.16714 l 342.68018 482.85095 l -50.676025 -110.844666 l -219.73065 5.220642 l -48.768616 110.43237 l 717.39136 -551.4127 l 0.0 0.0 l -26.640625 166.56186 l -1.8195801 11.372253 l 117.145386 -444.0098 l 0.0 0.0 l -48.479614 66.085724 l 0.0 0.0 l 167.41882 -66.09353 l 0.0 0.0 l 62.504395 -3.3149554e-05 l 0.0 0.0 l -77.182495 493.83057 l -0.3474121 -1.4835205 l 52.578735 -287.20715 l 0.0 0.0 l -581.50476 742.3983 l 61.82556 135.34314 l 40.636597 88.82825 l 33.208862 -446.29858 l -42.020996 -92.24829 l -135.07959 -296.54773 l 51.720337 113.50827 l 33.600464 73.744415 l -136.68518 -299.9797 l -42.036133 -92.26091 l -225.3493 98.00696 l 44.183533 -99.83063 l 62.52118 -100.419846 l 66.02905 -0.07429123 l -39.506897 -99.72538 l -593.5922 163.51494 l -63.41992 -93.09889 l 2.2060242 4.7293724e-10 l 19.08142 -1.382432e-10 l 25.233429 6.8394e-10 l -122.60652 -1.2441888e-09 l -26.926025 -6.548362e-11 l -16.186752 0.0 l 71.1478 2.910383e-11 l 21.484924 -1.4551915e-11 l -167.61615 5.9007143e-05 l 0.0 0.0 l 4.5776367e-05 -7.570634e-08 l 0.00010681152 -8.7809894e-08 l 42.90297 -5.88269e-05 l -16.376068 -4.0599843e-09 l 6.0156555 165.97507 l 32.429947 165.97499 l 32.429947 165.975 l 32.429947 165.97498 l 32.42993 165.97504 l 162.87756 829.2505 l -27.460388 -162.32446 l 78.61389 42.292603 " /> </g> </svg>