<?xml version="1.0" standalone="no"?><!DOCTYPE svg PUBLIC "-//W3C//DTD SVG 1.1//EN" "http://www.w3.org/Graphics/SVG/1.1/DTD/svg11.dtd" ><svg xmlns="http://www.w3.org/2000/svg" xmlns:xlink="http://www.w3.org/1999/xlink" version="1.1" viewBox="-10 0 692 1000"><g transform="matrix(1 0 0 -1 0 800)"><path stroke="black" fill="none" d="M 1620.2568 1171.4172 l -20.873291 123.88867 l -48.49817 239.19775 l -43.888794 -19.429688 l 0.0 0.0 l -111.28662 -196.40466 l -6.0756836 -12.741821 l -823.0372 91.27478 l -169.74155 -92.29797 l 225.27402 -31.100342 l 0.31506348 -0.74035645 l 48.37799 -109.52893 l -312.937 -56.72278 l -24.032257 -122.61432 l 394.05093 49.0589 l 0.29504395 -0.947876 l 48.569946 -110.08545 l 713.6371 -299.0069 l 0.0 0.0 l 6.5614014 -40.90265 l -82.132935 233.92963 l 0.0 0.0 l 22.771973 66.559265 l 230.02039 28.284058 l -3.6550293 22.328857 l 38.063477 -270.82806 l -691.2218 -106.54651 l 10.588379 0.35772705 l -47.930115 -101.95346 l -217.92389 -23.243225 l 0.0 0.0 l -273.20233 125.2327 l 14.997681 91.60791 l 0.0 0.0 l 164.633 -5.793091 l 4.1226196 -9.19574 l -92.56506 197.4726 l 0.0 0.0 l -33.7146 57.633118 l -82.63565 -463.83896 l -12.047791 -67.730865 l -17.707153 -99.872894 l -16.143738 -92.61339 l 399.3898 141.15648 l 333.9411 467.04 l -40.478516 -88.74176 l -229.21997 17.82434 l -38.55316 87.334045 l 702.0003 -464.40625 l -14.126343 87.36926 l 0.0 0.0 l 108.46936 -426.84598 l 0.0 0.0 l 180.02466 -7.5664344 l 0.0 0.0 l -71.00928 483.76266 l -0.015136719 -0.06460571 l 48.953857 -262.2111 l -567.2838 744.2479 l 78.545166 172.38483 l 6.201538 13.572998 l 35.64453 -440.7425 l -33.139038 -72.80975 l -130.20215 -286.0403 l 66.25476 145.39584 l 4.3895264 9.633606 l -135.68335 -297.75793 l -33.190796 -72.85281 l -227.15839 91.746796 l 43.66101 -98.456024 l 106.26935 -100.46774 l 7.916687 -0.012228012 l -24.555237 -98.33811 l -594.0564 161.61966 l -60.088013 -92.61338 l 0.3734131 8.0035534e-11 l 14.12384 1.0768417e-09 l 27.969849 2.3210305e-09 l -127.692184 -4.2491592e-09 l -33.748596 -2.1100277e-10 l -0.5664215 0.0 l 71.85007 9.458745e-11 l 15.171539 -4.3655746e-11 l -164.96953 5.897428e-05 l 0.0 0.0 l 0.00050354004 -1.0711665e-07 l 0.007751465 -8.911702e-07 l 30.077118 -5.7918878e-05 l -0.64956665 -5.857146e-09 l 3.1800385 165.9147 l 32.260834 165.91463 l 32.26082 165.91464 l 32.260803 165.91461 l 32.260834 165.91467 l 163.789 827.4411 l -15.29364 -153.45093 l 61.98938 33.342285 " /> </g> </svg>