<?xml version="1.0" standalone="no"?><!DOCTYPE svg PUBLIC "-//W3C//DTD SVG 1.1//EN" "http://www.w3.org/Graphics/SVG/1.1/DTD/svg11.dtd" ><svg xmlns="http://www.w3.org/2000/svg" xmlns:xlink="http://www.w3.org/1999/xlink" version="1.1" viewBox="-10 0 692 1000"><g transform="matrix(1 0 0 -1 0 800)"><path stroke="black" fill="none" d="M 1622.595 1162.0203 l -29.182007 165.90918 l -58.378662 331.80005 l 28.787842 -165.55554 l -83.5686 45.70569 l -55.117188 -120.098145 l -54.794678 -119.7688 l -808.3317 119.93811 l -170.99731 -92.00061 l 224.00275 -28.006714 l 52.990723 -119.979004 l -309.50742 -18.083496 l -32.48175 -165.9065 l 394.99796 63.967773 l 52.99109 -119.98065 l 694.87683 -194.85175 l 14.807495 -92.62134 l 14.906128 -93.23883 l -44.988525 279.47028 l -60.19348 -7.053711 l 45.58264 100.2276 l 241.97412 -101.71918 l -29.144897 165.69037 l 58.3562 -331.86816 l -777.0148 -84.048584 l 107.69031 0.0007324219 l -54.88501 -119.96109 l -270.1577 70.90384 l 44.122986 -99.77368 l -288.31512 128.6745 l 33.11136 186.11957 l -16.494843 -92.70819 l 138.63611 78.802 l 44.313232 -100.20343 l -149.47205 207.82977 l 60.59326 -7.057495 l -44.306335 100.32837 l -82.999176 -466.49423 l -16.59021 -93.24487 l -16.602356 -93.31421 l -16.59903 -93.29851 l 399.20044 143.99388 l 346.27332 489.35184 l -54.868896 -119.93262 l -215.82892 0.03845215 l -52.968872 119.929565 l 730.97455 -632.2206 l -14.600464 91.326035 l -15.05249 94.15338 l -14.803711 92.59781 l 76.01819 -465.83823 l 26.922974 -1.0955425e-06 l 17.687134 -2.6870495e-08 l 26.955566 1.768644e-06 l 21.976562 -3.5363382e-07 l -109.89368 93.00051 l 134.78943 -93.00051 l 24.82788 -1.6335377e-07 l 22.008057 -3.1063578e-09 l 24.84253 5.0851973e-08 l 24.849365 -5.5949208e-08 l 22.006226 -1.1262804e-09 l -87.12329 497.9693 l 29.56018 -167.98346 l 28.680054 -163.03954 l -592.00696 773.1092 l 54.950928 120.112976 l 54.795166 119.77051 l 32.207275 -448.58307 l -45.67285 -100.24072 l -137.08508 -300.868 l 45.744263 100.39719 l 45.611084 100.10455 l -137.09705 -300.8932 l -45.672974 -100.24083 l -224.60553 100.58092 l 44.398315 -100.39581 l 44.533386 -100.400154 l 89.92297 -0.09980965 l -45.65454 -100.29578 l -593.4014 164.29422 l -64.789856 -93.29852 l 24.079315 7.275958e-12 l 24.108337 0.0 l -120.5155 -7.275958e-12 l -24.120804 0.0 l -24.041748 0.0 l 72.29152 0.0 l 24.08075 0.0 l -168.69205 5.8527847e-05 l 0.0 6.236187e-07 l 48.16104 -5.915134e-05 l -24.043152 -2.910383e-11 l 8.382446 165.9999 l 32.499496 165.99982 l 32.49948 165.99982 l 32.499466 165.99982 l 32.49948 165.99982 l 162.5028 829.99445 l -32.46292 -165.9729 l 85.44931 45.972656 " /> </g> </svg>