<?xml version="1.0" standalone="no"?><!DOCTYPE svg PUBLIC "-//W3C//DTD SVG 1.1//EN" "http://www.w3.org/Graphics/SVG/1.1/DTD/svg11.dtd" ><svg xmlns="http://www.w3.org/2000/svg" xmlns:xlink="http://www.w3.org/1999/xlink" version="1.1" viewBox="-10 0 692 1000"><g transform="matrix(1 0 0 -1 0 800)"><path stroke="black" fill="none" d="M 1622.5828 1162.0693 l -29.138672 165.69019 l -58.32715 331.31702 l 27.792725 -164.48242 l -82.2854 44.995117 l -55.641357 -120.33484 l -54.54065 -119.21069 l -808.40845 119.788574 l -170.99072 -92.0022 l 224.00934 -28.022827 l 52.968323 -119.928345 l -309.52527 -18.285034 l -32.437683 -165.68066 l 394.99298 63.890015 l 52.969604 -119.93396 l 695.06213 -195.94226 l 14.584106 -91.224365 l 14.921387 -93.33252 l -45.685547 279.15704 l -59.211792 -6.9418335 l 45.299072 100.05267 l 241.91187 -101.0412 l -29.011963 164.94269 l 58.250366 -331.5498 l -776.5674 -84.165955 l 107.18384 0.0026245117 l -54.848694 -119.86716 l -269.5728 69.706085 l 43.454224 -98.26163 l -288.1101 128.37161 l 32.897247 184.95966 l -16.240936 -91.27948 l 138.72345 78.08264 l 44.103638 -99.72888 l -148.68042 207.66016 l 59.61139 -6.954956 l -44.08008 100.15564 l -82.997314 -466.48044 l -16.566498 -93.11182 l -16.608124 -93.34839 l -16.59665 -93.29495 l 399.20145 143.9791 l 346.20892 489.2355 l -54.7937 -119.76996 l -215.89886 0.13116455 l -52.893677 119.75958 l 730.4301 -628.89026 l -13.877197 86.80188 l -15.420532 96.45502 l -14.571289 91.14398 l 79.68323 -465.44766 l 34.22107 -3.7404159e-06 l 2.6881104 -9.1741526e-08 l 34.33203 6.0385278e-06 l 17.333496 -1.2073815e-06 l -108.430176 92.518906 l 135.72974 -92.51891 l 27.067993 -5.577246e-07 l 17.440186 -1.0605774e-08 l 27.118286 1.7361947e-07 l 27.141235 -1.9102251e-07 l 17.434448 -3.8453614e-09 l -85.972534 497.89523 l 30.42981 -172.77203 l 27.424438 -155.8923 l -591.5405 770.9585 l 55.073975 120.38556 l 54.541626 119.2168 l 32.22534 -448.5423 l -45.607544 -100.09766 l -137.0492 -300.79065 l 45.851196 100.63187 l 45.39612 99.63272 l -137.08972 -300.87683 l -45.607788 -100.09801 l -224.6189 100.53485 l 44.39453 -100.3857 l 44.855347 -100.400505 l 89.49524 -0.09935188 l -45.544495 -100.28557 l -593.4048 164.28027 l -64.76532 -93.29495 l 24.029327 7.275958e-12 l 24.128479 2.1827873e-11 l -120.55292 -3.6379788e-11 l -24.17102 0.0 l -23.901154 0.0 l 72.27106 0.0 l 24.034271 0.0 l -168.67285 5.8620244e-05 l 0.0 2.529996e-07 l 0.0 2.5051122e-07 l 48.067 -5.9123333e-05 l -23.905914 -1.0186341e-10 l 8.340073 165.99945 l 32.498245 165.99937 l 32.498245 165.99936 l 32.49823 165.99939 l 32.49823 165.99933 l 162.50949 829.9812 l -32.373352 -165.9076 l 85.326965 45.90674 " /> </g> </svg>