<?xml version="1.0" standalone="no"?><!DOCTYPE svg PUBLIC "-//W3C//DTD SVG 1.1//EN" "http://www.w3.org/Graphics/SVG/1.1/DTD/svg11.dtd" ><svg xmlns="http://www.w3.org/2000/svg" xmlns:xlink="http://www.w3.org/1999/xlink" version="1.1" viewBox="-10 0 692 1000"><g transform="matrix(1 0 0 -1 0 800)"><path stroke="black" fill="none" d="M 1595.2863 1271.7751 l 0.0 0.0 l -35.017456 204.39282 l 0.0 0.0 l -951.55884 -116.90088 l -156.3305 -95.47424 l 238.85089 -64.13953 l 0.0 0.0 l 2.7943115 -6.571167 l -299.91882 -222.25378 l 0.0 0.0 l 400.4989 -17.556885 l 0.0 0.0 l 4.798828 -15.477844 l 763.4961 -68.15967 l 0.0 0.0 l -12.415283 -319.82672 l 0.0 0.0 l -744.7578 -140.22168 l 0.0 0.0 l -3.5448608 10.288025 l -208.45404 174.53442 l 0.0 0.0 l 32.653625 195.96014 l 0.0 0.0 l -125.992645 -458.39404 l 0.0 0.0 l -19.85138 -117.302246 l -11.28125 -85.29613 l 98.60721 29.62059 l 45.400024 0.0 l 45.399963 0.0 l 45.400024 0.0 l 45.400024 0.0 l 45.399963 0.0 l 75.80536 81.232666 l 258.63672 361.10474 l 0.0 0.0 l -223.51514 107.89191 l 0.0 0.0 l 798.81665 -769.22906 l 0.0 0.0 l -109.317505 332.2102 l 0.0 0.0 l -234.844 799.61035 l 0.0 0.0 l 12.629272 -462.35114 l 0.0 0.0 l -78.42139 -183.4498 l 0.0 0.0 l -147.38452 -322.8716 l 0.0 0.0 l -232.61029 44.52823 l 35.786194 -77.73927 l -19.381348 -20.43721 l 0.0 -21.899994 l 0.0 -21.900002 l 123.6828 -35.135445 l -5.816345 -78.32433 l 0.023376465 0.06922531 l -117.88983 47.690548 l -68.69995 -6.402388e-09 l -68.70001 0.0 l -68.70001 0.0 l -68.70001 0.0 l -68.70001 0.0 l -68.69995 0.0 l -70.985565 85.29605 l -36.490723 -85.296135 l 0.0 0.0 l 7.990082 -3.2225216e-08 l -144.73166 -4.0505256e-08 l 0.0 0.0 l 73.89465 -7.0867827e-09 l 0.0 0.0 l -152.71951 5.412944e-05 l 0.0 0.0 l 13.763962 -4.718966e-05 l 14.82312 165.00496 l 29.711945 165.00488 l 29.711945 165.00485 l 29.711945 165.00491 l 29.71193 165.00488 l -99.19212 101.37555 l 0.0 154.39996 l 0.0 154.40002 l 0.0 154.40002 l 0.0 154.40002 l 23.300003 0.0 l 23.299988 0.0 l 23.300003 0.0 l 23.300003 0.0 l 23.299988 0.0 l 23.300018 0.0 l 23.299988 0.0 l 23.299988 0.0 l 90.31793 81.19592 l 22.10147 -97.41272 l 0.0 0.0 " /> </g> </svg>