<?xml version="1.0" standalone="no"?><!DOCTYPE svg PUBLIC "-//W3C//DTD SVG 1.1//EN" "http://www.w3.org/Graphics/SVG/1.1/DTD/svg11.dtd" ><svg xmlns="http://www.w3.org/2000/svg" xmlns:xlink="http://www.w3.org/1999/xlink" version="1.1" viewBox="-10 0 692 1000"><g transform="matrix(1 0 0 -1 0 800)"><path stroke="black" fill="none" d="M 1622.3989 1162.8079 l -28.485596 162.38733 l -57.55066 324.03882 l 12.795044 -148.30872 l -62.946167 34.285034 l -63.541504 -123.9032 l -50.711426 -110.798706 l -809.56433 117.53577 l -170.892 -92.02551 l 224.10928 -28.265991 l 52.630493 -119.16528 l -309.79483 -21.3219 l -31.77359 -162.27808 l 394.91858 62.71826 l 52.645264 -119.230774 l 697.8547 -212.37714 l 11.2178955 -70.17078 l 15.149902 -94.74432 l -56.188232 274.4359 l -44.417725 -5.255493 l 41.026367 97.41632 l 240.97241 -90.823364 l -27.008545 153.67499 l 56.655396 -326.75232 l -769.82434 -85.93414 l 99.552 0.030639648 l -54.302063 -118.45184 l -260.75836 51.654907 l 33.375854 -75.47308 l -285.02094 123.80597 l 29.670837 167.4784 l -12.414673 -69.74689 l 140.03967 67.24066 l 40.944763 -92.57593 l -136.74902 205.10333 l 44.813232 -5.409485 l -40.670532 97.55188 l -82.96878 -466.2717 l -16.209473 -91.10651 l -16.694946 -93.86389 l -16.560883 -93.24109 l 399.2163 143.75607 l 345.2397 487.48187 l -53.66272 -117.31848 l -216.9513 1.5291138 l -51.76068 117.19769 l 722.2249 -578.6997 l -2.9777832 18.618408 l -20.966187 131.14294 l -11.068848 69.233215 l 116.07056 -459.56143 l 0.0 0.0 l 41.016113 0.00010779046 l 0.0 0.0 l -94.83142 85.26051 l 0.025512695 -0.054893494 l 149.87476 -85.20581 l 20.717651 -5.690163e-06 l 0.0 0.0 l 50.12451 1.0890747e-06 l 21.342773 -1.927758e-06 l 0.0 0.0 l -79.75659 496.7788 l 43.53589 -244.94063 l 8.502686 -48.176025 l -584.5128 738.5457 l 56.928467 124.4939 l 50.722412 110.869995 l 32.495483 -447.92596 l -44.622437 -97.94165 l -136.5083 -299.6253 l 47.46338 104.16861 l 42.156128 92.522064 l -136.97852 -300.63043 l -44.62683 -97.945404 l -224.81952 99.840515 l 44.33661 -100.233246 l 49.70758 -100.40581 l 83.04974 -0.09247017 l -43.88611 -100.1317 l -593.4563 164.07005 l -64.39581 -93.2411 l 23.276245 9.458745e-11 l 24.431976 2.0372681e-10 l -121.11699 -3.6379788e-10 l -24.927734 -2.1827873e-11 l -21.782257 0.0 l 71.96254 7.275958e-12 l 23.334045 0.0 l -168.38329 5.889046e-05 l 0.0 1.5451224e-07 l 0.0 -9.27721e-08 l 46.649323 -5.8947302e-05 l -21.837708 -1.1859811e-09 l 7.701645 165.99275 l 32.479477 165.99268 l 32.479477 165.99268 l 32.479492 165.99268 l 32.47946 165.99268 l 162.6106 829.7805 l -31.023926 -164.92346 l 83.48309 44.914062 " /> </g> </svg>