<?xml version="1.0" standalone="no"?><!DOCTYPE svg PUBLIC "-//W3C//DTD SVG 1.1//EN" "http://www.w3.org/Graphics/SVG/1.1/DTD/svg11.dtd" ><svg xmlns="http://www.w3.org/2000/svg" xmlns:xlink="http://www.w3.org/1999/xlink" version="1.1" viewBox="-10 0 692 1000"><g transform="matrix(1 0 0 -1 0 800)"><path stroke="black" fill="none" d="M 1536.223 1331.7788 l 0.0 0.0 l -1004.0061 106.864624 l -120.91525 -103.86218 l 288.2532 -194.2146 l 0.0 0.0 l -334.21515 -118.1615 l 409.609 -196.2315 l 0.0 0.0 l 597.61536 -174.37982 l 0.0 0.0 l -648.443 7.7817383 l 0.0 0.0 l -236.42569 -38.495117 l 0.0 0.0 l -42.87686 -233.10321 l -11.737976 -104.78143 l 1.5593872 -65.97305 l 86.55359 22.910309 l 45.400024 0.0 l 45.399963 0.0 l 45.400024 0.0 l 45.400024 0.0 l 45.399963 0.0 l 93.20044 7.9195557 l -54.09149 165.10016 l 0.0 0.0 l 869.4645 -390.54456 l 0.0 0.0 l -250.48096 864.3731 l 0.0 0.0 l -328.30505 -711.56366 l 0.0 0.0 l -193.5874 -0.98461914 l 14.990662 -23.031418 l -14.990662 -20.768585 l 0.0 -21.899994 l 0.0 -21.900002 l 0.0 -21.900002 l 136.85767 -35.452744 l 0.0 0.0 l -136.85767 -8.347256 l -68.69995 -6.402388e-09 l -68.70001 0.0 l -68.70001 0.0 l -68.70001 0.0 l -68.70001 0.0 l -68.69995 0.0 l -70.467804 65.97301 l -30.02298 -65.97308 l 0.0 0.0 l -70.18115 -1.4232864e-06 l 0.0 0.0 l -105.175156 1.5384125e-05 l 0.0 0.0 l -14.155746 162.6025 l 22.980972 162.60243 l 22.980972 162.60245 l 22.980972 162.60242 l 22.980972 162.60248 l -76.721054 113.38776 l 0.0 154.39996 l 0.0 154.40002 l 0.0 154.40002 l 0.0 154.40002 l 23.300003 0.0 l 23.299988 0.0 l 23.300003 0.0 l 23.300003 0.0 l 23.299988 0.0 l 23.300018 0.0 l 23.299988 0.0 l 23.299988 0.0 l 104.122284 -2.8283691 l -53.63321 -32.526978 " /> </g> </svg>