<?xml version="1.0" standalone="no"?><!DOCTYPE svg PUBLIC "-//W3C//DTD SVG 1.1//EN" "http://www.w3.org/Graphics/SVG/1.1/DTD/svg11.dtd" ><svg xmlns="http://www.w3.org/2000/svg" xmlns:xlink="http://www.w3.org/1999/xlink" version="1.1" viewBox="-10 0 692 1000"><g transform="matrix(1 0 0 -1 0 800)"><path stroke="black" fill="none" d="M 1614.6 1194.1523 l -0.7709961 22.2229 l -94.68469 248.79358 l 0.0 0.0 l -102.50964 -198.03992 l 0.0 0.0 l -838.9391 75.03467 l -166.70343 -93.01758 l 228.34985 -38.585327 l 0.018493652 -0.04345703 l 38.27649 -86.73364 l -321.23462 -150.20801 l -3.589325 -17.871948 l 391.7598 12.988159 l 0.015686035 -0.05029297 l 38.866516 -89.335815 l 721.35956 -312.82532 l 0.0 0.0 l -53.41687 255.29382 l 0.0 0.0 l 225.27637 32.380615 l 0.0 0.0 l 5.651001 -194.97827 l -655.18146 -166.85278 l 0.0 0.0 l -83.916565 -51.28961 l -174.55707 -62.67044 l -260.38123 169.94589 l -0.20709229 7.9868774 l 164.10413 35.412964 l 0.0 0.0 l -119.58154 230.95892 l 0.0 0.0 l -90.14804 -500.1786 l -1.0578613 -6.0021667 l -20.380096 -115.74063 l -15.042175 -90.955734 l 399.84808 134.29155 l 304.1042 413.0581 l -5.6623535 -13.277649 l -261.6183 60.856018 l -3.675537 8.471558 l 681.42505 -364.32803 l 0.0 0.0 l 124.45996 -426.48535 l 0.0 0.0 l 82.47449 449.39755 l 0.0 0.0 l -8.871826 -37.32959 l -472.16162 615.8035 l 50.041504 111.52417 l 0.0 0.0 l 18.181274 -477.80853 l -2.814087 -6.442505 l -113.54956 -250.16571 l 41.83606 91.7688 l 0.0 0.0 l -153.56348 -336.92877 l -2.9910889 -6.5894775 l -233.33484 70.37329 l 41.877075 -93.76283 l 113.62573 -100.41101 l 0.0 0.0 l -21.989075 -93.62228 l 0.602417 1.7797508 l -596.24365 153.36903 l -57.42459 -90.95573 l 0.0 0.0 l 0.15838623 1.8189894e-10 l 37.180603 7.90169e-09 l -145.05563 -1.4515535e-08 l -12.00119 -5.2386895e-10 l 0.0 0.0 l 81.97101 1.3096724e-10 l 0.34472656 -1.4551915e-11 l -162.34222 5.8591533e-05 l 0.0 0.0 l 0.014877319 -4.4858098e-07 l 28.189713 -5.754762e-05 l 0.0 0.0 l 4.3417206 165.70862 l 31.68341 165.70854 l 31.683395 165.70853 l 31.68338 165.70856 l 31.68341 165.7085 l 166.90094 821.2635 l 26.246155 -123.15491 l 5.2303467 2.7844238 " /> </g> </svg>