<?xml version="1.0" standalone="no"?><!DOCTYPE svg PUBLIC "-//W3C//DTD SVG 1.1//EN" "http://www.w3.org/Graphics/SVG/1.1/DTD/svg11.dtd" ><svg xmlns="http://www.w3.org/2000/svg" xmlns:xlink="http://www.w3.org/1999/xlink" version="1.1" viewBox="-10 0 692 1000"><g transform="matrix(1 0 0 -1 0 800)"><path stroke="black" fill="none" d="M 1622.595 1162.0203 l -29.194702 165.97339 l -58.3938 331.94153 l 29.079346 -165.86987 l -83.94446 45.91382 l -54.963623 -120.02881 l -54.86902 -119.93225 l -808.3094 119.98193 l -170.9992 -92.000244 l 224.0008 -28.001953 l 52.997314 -119.993774 l -309.5022 -18.024536 l -32.49466 -165.9726 l 394.99942 63.99054 l 52.997375 -119.99432 l 694.8225 -194.53229 l 14.872925 -93.03058 l 14.901733 -93.211365 l -44.784424 279.56207 l -60.480957 -7.086487 l 45.66565 100.27881 l 241.99243 -101.917725 l -29.183838 165.9093 l 58.387207 -331.96136 l -777.1459 -84.01428 l 107.83862 0.00024414062 l -54.89563 -119.98862 l -270.32904 71.25467 l 44.318848 -100.21658 l -288.37512 128.76321 l 33.17404 186.45935 l -16.569183 -93.12665 l 138.61053 79.012695 l 44.374634 -100.34247 l -149.70398 207.87946 l 60.88092 -7.0875244 l -44.37262 100.37897 l -82.999756 -466.4983 l -16.597137 -93.283844 l -16.600677 -93.30417 l -16.5997 -93.299576 l 399.2001 143.99821 l 346.2921 489.38596 l -54.890747 -119.980286 l -215.80853 0.011291504 l -52.990906 119.97937 l 731.13403 -633.196 l -14.812256 92.65111 l -14.944702 93.47925 l -14.871826 93.02362 l 74.9447 -465.9526 l 24.7854 -3.20877e-07 l 22.080322 -7.8701845e-09 l 24.794922 5.1802385e-07 l 23.33667 -1.03576895e-07 l -110.32251 93.14157 l 134.51416 -93.14157 l 24.171753 -4.7845212e-08 l 23.345825 -9.098309e-10 l 24.176147 1.48942e-08 l 24.177979 -1.6387144e-08 l 23.345337 -3.298799e-10 l -87.46033 497.991 l 29.30542 -166.58093 l 29.04773 -165.1329 l -592.14343 773.7391 l 54.914917 120.03308 l 54.869263 119.93286 l 32.20215 -448.5951 l -45.692017 -100.28265 l -137.09558 -300.89066 l 45.71289 100.32846 l 45.67395 100.24274 l -137.09912 -300.89798 l -45.69214 -100.282684 l -224.60156 100.59442 l 44.399475 -100.39877 l 44.439087 -100.400055 l 90.04816 -0.09994316 l -45.686707 -100.29877 l -593.4004 164.2983 l -64.79703 -93.29957 l 24.093933 0.0 l 24.102448 0.0 l -120.50453 0.0 l -24.106094 0.0 l -24.082932 0.0 l 72.2975 0.0 l 24.09439 0.0 l -168.6977 5.8690992e-05 l 0.0 4.1276508e-07 l 48.188583 -5.910372e-05 l -24.083344 -7.275958e-12 l 8.394852 166.00002 l 32.499863 165.99994 l 32.499847 165.99997 l 32.499832 165.99991 l 32.499847 166.0 l 162.50082 829.9983 l -32.489136 -165.99207 l 85.48517 45.992065 " /> </g> </svg>