<?xml version="1.0" standalone="no"?><!DOCTYPE svg PUBLIC "-//W3C//DTD SVG 1.1//EN" "http://www.w3.org/Graphics/SVG/1.1/DTD/svg11.dtd" ><svg xmlns="http://www.w3.org/2000/svg" xmlns:xlink="http://www.w3.org/1999/xlink" version="1.1" viewBox="-10 0 692 1000"><g transform="matrix(1 0 0 -1 0 800)"><path stroke="black" fill="none" d="M 184.99602 164.90019 l 0.020523071 164.90068 l 0.020523071 164.9007 l 0.020523071 164.90067 l -0.040420532 165.7478 l -0.0016784668 163.76813 l 232.98813 -15.6432495 l 0.0009765625 107.34088 l -232.98286 74.33386 l -0.0027008057 163.76855 l 225.17847 94.427246 l -114.58008 117.11499 l -110.00342 -46.039673 l -0.42486572 164.3186 l 337.67868 -353.1371 l 112.56238 -117.80151 l 112.56238 -117.80139 l 112.56232 -117.80133 l 112.56244 -117.80139 l -104.66699 -213.41687 l 112.56244 -117.501526 l 104.80322 213.117 l 225.16174 300.93732 l 0.032104492 213.99475 l 0.0 -106.54675 l 0.037231445 214.40027 l 0.03466797 107.308105 l 4.963867 107.31055 l 16.469604 0.0 l 24.901978 0.0 l 23.925415 0.0 l 22.546753 0.0 l 23.921143 0.0 l 22.63379 0.0 l 92.019775 0.0 l -21.158081 0.0 l -25.363525 0.0 l -20.977905 0.0 l 69.07617 -163.83301 l 0.018554688 -163.80139 l 0.018432617 -163.80139 l -112.5542 -1029.0791 l 112.513916 -117.42583 l -0.009399414 163.75543 l -0.018920898 163.81427 l -0.009399414 163.75542 l -0.018798828 163.8143 l -0.018798828 163.81427 l -0.009399414 163.75543 l -232.9408 -95.29907 l -0.00036621094 106.5437 l -0.0020751953 -214.67969 l 0.00012207031 -113.20105 l 0.0 -99.03296 l -112.56348 115.664 l -104.762695 -212.729 l 112.5 -117.489136 l 112.47119 -117.55246 l -562.92645 587.5095 l -112.556946 117.4892 l -112.55701 117.48926 l -112.53934 -98.696594 l -0.010467529 -108.0907 l -0.010498047 -108.090576 l -0.010467529 -108.09064 l -0.010498047 -108.09073 l -0.020965576 -108.149536 l -0.010467529 -108.09065 l -0.010467529 -108.09065 l -0.11380005 -108.09065 l -23.069122 0.0 l -46.568054 0.0 l 23.066162 0.0 l -46.497284 0.0 l -23.300476 0.0 l -23.300507 0.0 l -23.300522 0.0 l -23.300491 0.0 l -23.300507 0.0 l -23.296844 5.9122365e-05 l 0.0 -1.6476042e-07 l 0.0 -3.3117976e-07 " /> </g> </svg>