<?xml version="1.0" standalone="no"?><!DOCTYPE svg PUBLIC "-//W3C//DTD SVG 1.1//EN" "http://www.w3.org/Graphics/SVG/1.1/DTD/svg11.dtd" ><svg xmlns="http://www.w3.org/2000/svg" xmlns:xlink="http://www.w3.org/1999/xlink" version="1.1" viewBox="-10 0 692 1000"><g transform="matrix(1 0 0 -1 0 800)"><path stroke="black" fill="none" d="M 184.84178 164.90808 l 0.81658936 164.92763 l 0.8166046 164.92764 l 0.8166046 164.92761 l -1.6080322 198.64026 l -0.06700134 119.85339 l 232.52762 17.599365 l 0.039001465 77.890564 l -232.3183 114.44263 l -0.107788086 119.87219 l 224.3425 103.24524 l -191.40486 90.53186 l -9.258362 -4.9016113 l -16.909317 141.76196 l 332.9716 -342.9358 l 111.10248 -117.85535 l 111.10248 -117.85535 l 111.10242 -117.855225 l 111.10254 -117.855286 l -99.50342 -214.06842 l 111.10248 -117.562775 l 104.92566 213.77591 l 223.67981 302.385 l 1.2802734 190.50842 l -0.0018310547 -77.316895 l 1.4804688 206.65063 l 1.3793945 107.61914 l 25.470703 107.719604 l 10.601074 0.0 l 0.0 0.0 l 48.190796 0.0 l 0.3043213 0.0 l 37.273804 -0.00012207031 l 0.0 0.0 l 0.55163574 0.0 l 81.33887 -0.00012207031 l 0.0 0.0 l -32.841797 0.00012207031 l 0.0 0.0 l 60.48242 -165.11145 l 0.73376465 -163.85535 l 0.7336426 -163.85522 l -110.773315 -1028.2684 l 109.17029 -114.54767 l -0.37438965 162.0261 l -0.7487793 164.36786 l -0.37438965 162.02608 l -0.7487793 164.36792 l -0.7487793 164.3678 l -0.37438965 162.02612 l -230.64307 -71.98248 l -0.013916016 77.197205 l -0.08483887 -217.76868 l 0.0 -0.039001465 l 0.005126953 -177.36087 l 0.0 0.0 l -111.147095 89.75278 l -103.31506 -209.9733 l 108.62256 -117.06784 l 107.47412 -119.58798 l -560.0752 587.8794 l -110.88635 117.07037 l -110.886475 117.07031 l -110.187836 -98.56427 l -0.41708374 -107.72815 l -0.41711426 -107.72809 l -0.41708374 -107.72815 l -0.41708374 -107.72815 l -0.834198 -110.07239 l -0.41711426 -107.72815 l -0.41708374 -107.72813 l -4.5283813 -107.72813 l -14.110687 0.0 l -45.32968 0.0 l 13.9935 0.0 l -42.51117 0.0 l -23.320099 0.0 l -23.320099 0.0 l -23.320114 0.0 l -23.320084 0.0 l -23.320099 0.0 l -23.17804 5.897299e-05 l 0.0 0.0 l -3.0517578e-05 -4.8050424e-08 l -6.1035156e-05 -5.401671e-08 " /> </g> </svg>