<?xml version="1.0" standalone="no"?><!DOCTYPE svg PUBLIC "-//W3C//DTD SVG 1.1//EN" "http://www.w3.org/Graphics/SVG/1.1/DTD/svg11.dtd" ><svg xmlns="http://www.w3.org/2000/svg" xmlns:xlink="http://www.w3.org/1999/xlink" version="1.1" viewBox="-10 0 692 1000"><g transform="matrix(1 0 0 -1 0 800)"><path stroke="black" fill="none" d="M 131.0 0.0 l 52.155594 164.99435 l 2.7880554 164.99435 l 2.7880554 164.99438 l 2.7880707 164.99432 l -5.490204 280.0963 l -0.22871399 11.101379 l 231.38719 99.92267 l 0.13287354 4.987793 l -230.67226 213.7406 l -0.36802673 11.165161 l 222.27228 125.0824 l -214.61401 113.38574 l 0.0 0.0 l 15.455841 94.190796 l 246.60526 46.34973 l 53.0 -120.0 l 53.0 -120.0 l -31.290527 -124.02258 l 107.48718 -117.98877 l 107.48712 -117.98877 l 107.48706 -117.98865 l 107.48718 -117.98877 l -80.65802 -124.02246 l -6.0582275 -91.659485 l 107.48718 -117.71445 l 59.47107 89.37393 l 45.757935 126.03375 l 64.04199 113.96625 l 54.900024 120.0 l 101.06775 72.00372 l 4.371216 132.34625 l -0.0064697266 -4.961548 l 5.0546875 187.48938 l 4.7095947 108.38953 l 36.378296 108.732666 l 0.0 0.0 l 36.0437 0.0 l 0.0 0.0 l 141.78125 116.0 l -68.04736 -116.000854 l 0.0 0.0 l 53.226685 -0.008056641 l 0.0 0.0 l 28.058594 -168.26917 l 2.5048828 -163.98877 l 2.505005 -163.98865 l 127.7522 -217.7445 l 29.200073 -166.0 l 29.199951 -166.0 l 29.199951 -166.0 l 29.200073 -166.0 l 29.199951 -166.0 l -23.900024 0.0 l -23.899902 0.0 l -23.900024 0.0 l -23.900024 0.0 l -23.900024 5.0152e-41 l -23.900024 1.2032499e-30 l -23.899902 2.8865934e-20 l -23.900024 6.925775e-10 l -188.91553 21.483936 l 100.89014 -107.42009 l -1.2783203 157.74347 l 11.703735 114.592674 l -14.260132 51.146103 l -1.2781982 157.74345 l -29.161743 70.71045 l 26.605347 95.02838 l -56.405273 91.37158 l 53.848755 74.36719 l -1.2781982 157.74347 l -97.27063 47.48938 l -45.69995 -100.30005 l -81.9823 38.570312 l -0.047607422 4.576538 l -0.28979492 -225.47253 l 0.0 0.0 l 0.013061523 -127.464966 l -107.63489 61.91504 l -99.7301 -203.14908 l 99.02002 -116.024475 l -83.54846 -34.75084 l 178.64795 -89.878006 l -270.04785 -110.722 l -45.700073 -100.3 l -44.399963 100.4 l -44.400024 100.4 l -44.399963 100.40001 l -44.400024 100.399994 l -44.400024 100.399994 l -44.399963 100.400024 l -44.400024 100.39996 l 73.53351 97.017395 l -106.74933 116.03302 l -106.74939 116.03308 l -104.36447 -98.236755 l -1.4240723 -106.83038 l -1.4240417 -106.83032 l -1.4240723 -106.83032 l -1.4240417 -106.830414 l 17.225891 -62.125275 l -20.074005 -52.708954 l -1.4240417 -106.83035 l -1.4240723 -106.83036 l -15.424561 -106.83036 l -0.28604126 0.0 l -34.024963 0.0 l 0.24938965 0.0 l -41.277496 0.0 l -23.368622 0.0 l -23.368622 0.0 l -23.368637 0.0 l -23.368622 0.0 l -23.368622 0.0 l -22.913757 5.857597e-05 l 0.0 0.0 l -0.00032043457 -6.1460014e-08 l -29.856995 -5.851451e-05 l -24.100006 0.0 " /> </g> </svg>