<?xml version="1.0" standalone="no"?><!DOCTYPE svg PUBLIC "-//W3C//DTD SVG 1.1//EN" "http://www.w3.org/Graphics/SVG/1.1/DTD/svg11.dtd" ><svg xmlns="http://www.w3.org/2000/svg" xmlns:xlink="http://www.w3.org/1999/xlink" version="1.1" viewBox="-10 0 692 1000"><g transform="matrix(1 0 0 -1 0 800)"><path stroke="black" fill="none" d="M 184.99991 164.9 l 0.0001373291 164.9 l 0.00015258789 164.90002 l 0.00015258789 164.89996 l -0.000289917 164.90631 l -1.5258789e-05 164.8916 l 232.99992 -16.493774 l 0.0 108.09442 l -232.99988 73.30762 l -1.5258789e-05 164.89172 l 225.19984 94.20166 l -112.61456 117.79492 l -112.58092 -47.092163 l -0.003112793 164.89575 l 337.79907 -353.39807 l 112.59973 -117.80005 l 112.59973 -117.80005 l 112.59967 -117.79993 l 112.59979 -117.80005 l -104.79907 -213.40015 l 112.59973 -117.5 l 104.80005 213.1001 l 225.1997 300.90033 l 0.00024414062 214.59552 l 0.0 -107.29443 l 0.00024414062 214.59851 l 0.00024414062 107.30005 l 0.036621094 107.30017 l 23.249634 0.0 l 23.311768 0.0 l 23.304688 0.0 l 23.294434 0.0 l 23.304565 0.0 l 23.295044 0.0 l 93.19141 0.0 l -23.284302 0.0 l -23.315063 0.0 l -23.282959 0.0 l 69.89392 -163.8003 l 0.00012207031 -163.80005 l 0.00012207031 -163.79993 l -112.59961 -1029.1 l 112.599365 -117.49946 l -0.00012207031 163.79968 l -0.00012207031 163.80011 l -0.00012207031 163.79965 l -0.00012207031 163.80017 l -0.00012207031 163.80005 l -0.00012207031 163.79968 l -232.99951 -95.89557 l 0.0 107.29443 l 0.0 -214.60059 l 0.0 -107.343445 l 0.0 -107.23917 l -112.59973 117.78433 l -104.799805 -212.79953 l 112.599365 -117.49991 l 112.599 -117.5004 l -562.99945 587.5 l -112.59967 117.49994 l -112.59967 117.49994 l -112.59955 -98.69995 l -9.1552734e-05 -108.099976 l -6.1035156e-05 -108.099915 l -9.1552734e-05 -108.099915 l -6.1035156e-05 -108.099945 l -0.00015258789 -108.10034 l -9.1552734e-05 -108.09993 l -6.1035156e-05 -108.09993 l -0.0008544922 -108.09993 l -23.29831 0.0 l -46.599762 0.0 l 23.298279 0.0 l -46.599243 0.0 l -23.299988 0.0 l -23.299988 0.0 l -23.300034 0.0 l -23.299988 0.0 l -23.300003 0.0 l -23.299988 5.9097627e-05 l 0.0 -3.8573853e-07 " /> </g> </svg>