<?xml version="1.0" standalone="no"?><!DOCTYPE svg PUBLIC "-//W3C//DTD SVG 1.1//EN" "http://www.w3.org/Graphics/SVG/1.1/DTD/svg11.dtd" ><svg xmlns="http://www.w3.org/2000/svg" xmlns:xlink="http://www.w3.org/1999/xlink" version="1.1" viewBox="-10 0 692 1000"><g transform="matrix(1 0 0 -1 0 800)"><path stroke="black" fill="none" d="M 184.99991 164.9 l 0.006011963 164.90019 l 0.006011963 164.9002 l 0.006011963 164.90018 l -0.01184082 165.14832 l -0.00048828125 164.56848 l 232.99654 -16.249084 l 0.0002746582 107.87756 l -232.99498 73.602905 l -0.00079345703 164.5686 l 225.19371 94.2666 l -113.17996 117.599365 l -111.83948 -46.78943 l -0.12445068 164.72974 l 337.76443 -353.323 l 112.58905 -117.80054 l 112.58893 -117.800415 l 112.58899 -117.800354 l 112.58899 -117.800415 l -104.76105 -213.40497 l 112.58899 -117.50043 l 104.800964 213.10498 l 225.18884 300.91095 l 0.009399414 214.42273 l 0.0 -107.079346 l 0.010864258 214.54138 l 0.010131836 107.30249 l 1.4538574 107.3031 l 21.299438 0.0 l 23.769165 0.0 l 23.483276 0.0 l 23.079346 0.0 l 23.481934 0.0 l 23.104858 0.0 l 92.85437 0.0 l -22.67273 0.0 l -23.904297 0.0 l -22.619995 0.0 l 69.65881 -163.8097 l 0.0053710938 -163.80042 l 0.0053710938 -163.80042 l -112.58655 -1029.0939 l 112.57483 -117.47827 l -0.0028076172 163.78696 l -0.005493164 163.80417 l -0.0028076172 163.78694 l -0.005493164 163.80423 l -0.005493164 163.80414 l -0.0026855469 163.78699 l -232.98267 -95.72406 l -0.00012207031 107.07855 l -0.00061035156 -214.62335 l 0.0 -109.02838 l 0.0 -104.87866 l -112.58923 117.17438 l -104.789185 -212.7792 l 112.57068 -117.496826 l 112.562256 -117.51535 l -562.9784 587.50275 l -112.58734 117.496826 l -112.58746 117.49689 l -112.582214 -98.698975 l -0.0030517578 -108.09729 l -0.0030822754 -108.09723 l -0.0030517578 -108.09723 l -0.0030822754 -108.09735 l -0.006134033 -108.11447 l -0.0030822754 -108.097275 l -0.0030517578 -108.09726 l -0.033325195 -108.09726 l -23.232391 0.0 l -46.590637 0.0 l 23.231506 0.0 l -46.569916 0.0 l -23.30014 0.0 l -23.30014 0.0 l -23.300156 0.0 l -23.30014 0.0 l -23.300156 0.0 l -23.299072 5.9106285e-05 l 0.0 -4.2403553e-07 " /> </g> </svg>