<?xml version="1.0" standalone="no"?><!DOCTYPE svg PUBLIC "-//W3C//DTD SVG 1.1//EN" "http://www.w3.org/Graphics/SVG/1.1/DTD/svg11.dtd" ><svg xmlns="http://www.w3.org/2000/svg" xmlns:xlink="http://www.w3.org/1999/xlink" version="1.1" viewBox="-10 0 692 1000"><g transform="matrix(1 0 0 -1 0 800)"><path stroke="black" fill="none" d="M 184.99991 164.9 l 0.0017547607 164.90005 l 0.0017547607 164.90005 l 0.0017700195 164.90005 l -0.003479004 164.97272 l -0.0001373291 164.80292 l 232.99898 -16.426575 l 9.1552734e-05 108.03485 l -232.99854 73.388794 l -0.00022888184 164.80286 l 225.19817 94.21948 l -112.76987 117.74133 l -112.37726 -47.009033 l -0.036453247 164.8501 l 337.7896 -353.37744 l 112.5968 -117.80017 l 112.59674 -117.80017 l 112.59674 -117.80005 l 112.5968 -117.80017 l -104.788635 -213.40149 l 112.5968 -117.50006 l 104.80029 213.10144 l 225.19678 300.90326 l 0.0026855469 214.5481 l 0.0 -107.23547 l 0.0031738281 214.58289 l 0.0030517578 107.30078 l 0.42578125 107.3009 l 22.71399 0.0 l 23.4375 0.0 l 23.353638 0.0 l 23.235352 0.0 l 23.353271 0.0 l 23.242798 0.0 l 93.09888 0.0 l -23.116333 0.0 l -23.476929 0.0 l -23.10083 0.0 l 69.829346 -163.80286 l 0.0015869141 -163.80017 l 0.0015869141 -163.80005 l -112.59607 -1029.0983 l 112.59265 -117.49364 l -0.0008544922 163.79617 l -0.0015869141 163.80122 l -0.0008544922 163.79616 l -0.0015869141 163.80127 l -0.0015869141 163.80121 l -0.0008544922 163.7962 l -232.99487 -95.84851 l -0.00012207031 107.23517 l -0.00012207031 -214.60687 l 0.0 -107.80621 l 0.0 -106.59079 l -112.5968 117.61673 l -104.796875 -212.79388 l 112.59143 -117.499084 l 112.58887 -117.504486 l -562.99365 587.50073 l -112.59625 117.499084 l -112.596375 117.499084 l -112.59476 -98.699646 l -0.00088500977 -108.09924 l -0.00091552734 -108.09918 l -0.00088500977 -108.09918 l -0.00088500977 -108.09924 l -0.0018005371 -108.10422 l -0.00091552734 -108.0992 l -0.00088500977 -108.0992 l -0.009765625 -108.0992 l -23.280212 0.0 l -46.59723 0.0 l 23.279907 0.0 l -46.591187 0.0 l -23.300018 0.0 l -23.300049 0.0 l -23.300049 0.0 l -23.300034 0.0 l -23.300049 0.0 l -23.299728 5.90719e-05 l 0.0 -2.7214264e-07 " /> </g> </svg>