<?xml version="1.0" standalone="no"?><!DOCTYPE svg PUBLIC "-//W3C//DTD SVG 1.1//EN" "http://www.w3.org/Graphics/SVG/1.1/DTD/svg11.dtd" ><svg xmlns="http://www.w3.org/2000/svg" xmlns:xlink="http://www.w3.org/1999/xlink" version="1.1" viewBox="-10 0 692 1000"><g transform="matrix(1 0 0 -1 0 800)"><path stroke="black" fill="none" d="M 184.95366 164.90236 l 0.23916626 164.90808 l 0.23918152 164.90811 l 0.23918152 164.90805 l -0.47099304 174.78235 l -0.019622803 151.70612 l 232.86163 -6.5125732 l 0.011444092 99.25189 l -232.80034 85.35034 l -0.031570435 151.71167 l 224.94885 96.849365 l -135.68143 109.813354 l -82.331924 -34.740356 l -4.9526215 158.12305 l 336.38577 -350.3352 l 112.16144 -117.81616 l 112.161316 -117.816284 l 112.16138 -117.8161 l 112.16144 -117.81622 l -103.24872 -213.59583 l 112.16144 -117.51837 l 104.83685 213.29797 l 224.75464 301.33496 l 0.375 207.54376 l -0.00048828125 -98.51819 l 0.43359375 212.27173 l 0.40405273 107.39343 l 18.066284 107.42297 l 0.0 0.0 l 25.450073 0.0 l -0.010253906 0.0 l 30.600952 0.0 l 14.519653 0.0 l 30.540161 0.0 l 0.13000488 0.0 l 15.404419 0.0 l 79.441895 0.0 l -0.7342529 0.0 l -44.951782 0.0 l -0.4625244 0.0 l 64.52844 -164.1842 l 0.21496582 -163.81628 l 0.21484375 -163.81604 l -112.06494 -1028.8564 l 111.59546 -116.635284 l -0.10974121 163.28044 l -0.21923828 163.96632 l -0.10961914 163.28043 l -0.21936035 163.96637 l -0.21936035 163.96631 l -0.10961914 163.2804 l -232.3097 -88.894714 l -0.0040283203 98.483154 l -0.024902344 -215.52814 l -0.00024414062 -0.5574341 l 0.001953125 -175.53052 l 0.0 -10.93219 l -112.17456 92.901 l -104.36511 -211.9721 l 111.43494 -117.37344 l 111.09863 -118.11154 l -562.14325 587.6111 l -112.09808 117.374146 l -112.098145 117.374146 l -111.89346 -98.66016 l -0.122161865 -107.99115 l -0.122161865 -107.99103 l -0.122161865 -107.99109 l -0.122161865 -107.99112 l -0.24435425 -108.67767 l -0.122161865 -107.99109 l -0.122161865 -107.99108 l -1.3263245 -107.99108 l -20.60852 0.0 l -46.227936 0.0 l 20.574188 0.0 l -45.402405 0.0 l -23.305878 0.0 l -23.305878 0.0 l -23.305908 0.0 l -23.305878 0.0 l -23.305878 0.0 l -23.263535 5.900705e-05 l 0.0 0.0 l 0.0 -5.6585122e-08 l 0.0 -5.976108e-08 " /> </g> </svg>