<?xml version="1.0" standalone="no"?><!DOCTYPE svg PUBLIC "-//W3C//DTD SVG 1.1//EN" "http://www.w3.org/Graphics/SVG/1.1/DTD/svg11.dtd" ><svg xmlns="http://www.w3.org/2000/svg" xmlns:xlink="http://www.w3.org/1999/xlink" version="1.1" viewBox="-10 0 692 1000"><g transform="matrix(1 0 0 -1 0 800)"><path stroke="black" fill="none" d="M 184.99991 164.9 l 0.00050354004 164.90001 l 0.0005187988 164.90002 l 0.0005187988 164.9 l -0.0010223389 164.92133 l -3.0517578e-05 164.87152 l 232.9997 -16.478516 l 3.0517578e-05 108.08087 l -232.99957 73.32605 l -6.1035156e-05 164.87158 l 225.19946 94.20569 l -112.64975 117.78284 l -112.534775 -47.073364 l -0.010665894 164.88538 l 337.79694 -353.3933 l 112.59906 -117.80017 l 112.59906 -117.80005 l 112.599 -117.79999 l 112.59912 -117.80005 l -104.79669 -213.40045 l 112.59906 -117.5 l 104.80011 213.1004 l 225.1991 300.901 l 0.0007324219 214.58478 l 0.0 -107.28113 l 0.0009765625 214.59497 l 0.0008544922 107.30029 l 0.12475586 107.30029 l 23.128296 0.0 l 23.34021 0.0 l 23.315796 0.0 l 23.281006 0.0 l 23.315674 0.0 l 23.283203 0.0 l 93.17041 0.0 l -23.246216 0.0 l -23.351807 0.0 l -23.2417 0.0 l 69.87927 -163.8009 l 0.00048828125 -163.80005 l 0.00048828125 -163.79993 l -112.59888 -1029.0996 l 112.5979 -117.49814 l -0.00024414062 163.79889 l -0.00048828125 163.80035 l -0.00024414062 163.79886 l -0.00048828125 163.80038 l -0.00048828125 163.80035 l -0.00024414062 163.79889 l -232.99841 -95.88495 l -0.00012207031 107.28107 l 0.0 -214.60205 l 0.0 -107.44824 l 0.0 -107.092285 l -112.599 117.74634 l -104.799194 -212.79825 l 112.597534 -117.499725 l 112.59668 -117.50131 l -562.9981 587.50024 l -112.59888 117.499695 l -112.59894 117.499756 l -112.59845 -98.69983 l -0.0002746582 -108.09985 l -0.0002746582 -108.09973 l -0.00024414062 -108.09973 l -0.0002746582 -108.09979 l -0.0005187988 -108.10123 l -0.0002746582 -108.09978 l -0.00024414062 -108.09976 l -0.0028686523 -108.09976 l -23.29422 0.0 l -46.599182 0.0 l 23.294128 0.0 l -46.597443 0.0 l -23.299988 0.0 l -23.299988 0.0 l -23.300049 0.0 l -23.299988 0.0 l -23.300018 0.0 l -23.299927 5.9081394e-05 l 0.0 -3.140849e-07 " /> </g> </svg>