<?xml version="1.0" standalone="no"?><!DOCTYPE svg PUBLIC "-//W3C//DTD SVG 1.1//EN" "http://www.w3.org/Graphics/SVG/1.1/DTD/svg11.dtd" ><svg xmlns="http://www.w3.org/2000/svg" xmlns:xlink="http://www.w3.org/1999/xlink" version="1.1" viewBox="-10 0 692 1000"><g transform="matrix(1 0 0 -1 0 800)"><path stroke="black" fill="none" d="M 184.98642 164.90068 l 0.0700531 164.90236 l 0.0700531 164.90237 l 0.0700531 164.90234 l -0.13795471 167.7945 l -0.0057373047 161.03558 l 232.95946 -13.574768 l 0.0033569336 105.50842 l -232.94151 76.82947 l -0.009246826 161.03723 l 225.12645 94.97595 l -119.36041 115.460815 l -103.73468 -43.47986 l -1.450592 162.91504 l 337.38577 -352.50232 l 112.47156 -117.80481 l 112.4715 -117.80481 l 112.47156 -117.80469 l 112.47156 -117.80475 l -104.3457 -213.4574 l 112.47162 -117.50534 l 104.81085 213.15799 l 225.06946 301.0274 l 0.10986328 212.53326 l -0.00012207031 -104.727905 l 0.12695312 213.91809 l 0.1184082 107.32739 l 16.947998 107.33606 l 0.9123535 0.0 l 27.836426 0.0 l -0.044189453 0.0 l 25.479614 0.0 l 20.728271 0.0 l 25.420532 0.0 l 0.7130127 0.0 l 20.3125 0.0 l 89.17041 0.0 l -15.986938 0.0 l -30.345337 0.0 l -15.371704 0.0 l 67.08728 -163.9126 l 0.06298828 -163.80481 l 0.06298828 -163.80457 l -112.44336 -1029.0288 l 112.305786 -117.246735 l -0.032104492 163.64783 l -0.064208984 163.84872 l -0.032104492 163.64783 l -0.064331055 163.84872 l -0.064208984 163.84875 l -0.032104492 163.64777 l -232.79785 -93.848206 l -0.0010986328 104.71765 l -0.0073242188 -214.87189 l 0.00048828125 -127.44751 l 0.0 -79.074524 l -112.47534 110.50726 l -104.67273 -212.55756 l 112.25879 -117.46292 l 112.16028 -117.67911 l -562.7491 587.53253 l -112.45294 117.463135 l -112.453064 117.463135 l -112.393036 -98.68829 l -0.0357666 -108.06818 l -0.03579712 -108.068054 l -0.0357666 -108.068054 l -0.03579712 -108.06818 l -0.07156372 -108.269165 l -0.0357666 -108.0681 l -0.03579712 -108.0681 l -0.38845825 -108.0681 l -22.511688 0.0 l -46.491028 0.0 l 22.501617 0.0 l -46.249237 0.0 l -23.301697 0.0 l -23.301727 0.0 l -23.301727 0.0 l -23.301712 0.0 l -23.301727 0.0 l -23.28926 5.9094844e-05 l 0.0 -1.2473902e-07 l 0.0 -1.2983583e-07 l 0.0 -1.3026875e-07 " /> </g> </svg>