<?xml version="1.0" standalone="no"?><!DOCTYPE svg PUBLIC "-//W3C//DTD SVG 1.1//EN" "http://www.w3.org/Graphics/SVG/1.1/DTD/svg11.dtd" ><svg xmlns="http://www.w3.org/2000/svg" xmlns:xlink="http://www.w3.org/1999/xlink" version="1.1" viewBox="-10 0 692 1000"><g transform="matrix(1 0 0 -1 0 800)"><path stroke="black" fill="none" d="M 131.0 0.0 l 47.70279 165.22218 l 9.519043 165.22218 l 9.519028 165.22217 l 9.519028 165.2222 l -12.952057 280.685 l 0.0 0.0 l 215.79984 109.74609 l 0.0 0.0 l -210.22371 220.24255 l 0.0 0.0 l 204.69249 116.82446 l -206.7535 132.97095 l 0.0 0.0 l 258.17706 138.64221 l 53.0 -120.0 l 53.0 -120.0 l -12.195251 -123.11133 l 95.143616 -118.444336 l 95.14349 -118.44446 l 95.143555 -118.444275 l 95.143616 -118.4444 l -50.37903 -123.111206 l 7.320862 -98.07977 l 95.143616 -118.23221 l 58.435547 96.31198 l 47.82898 124.66687 l 61.970947 115.33313 l 54.900024 120.0 l 90.60889 82.87683 l 15.168579 119.73889 l 0.0 0.0 l 16.991089 178.1731 l 16.079834 111.019775 l 24.309814 112.190674 l 0.0 0.0 l 166.24182 116.00073 l -47.930542 -116.36792 l 0.0 0.0 l 71.399536 -178.72119 l 8.552368 -164.44434 l 8.55249 -164.44434 l 105.42615 -206.02222 l 29.200073 -166.0 l 29.199951 -166.0 l 29.199951 -166.0 l 29.200073 -166.0 l 29.199951 -166.0 l -23.900024 0.0 l -23.899902 0.0 l -23.900024 0.0 l -23.900024 0.0 l -23.900024 5.0152e-41 l -23.900024 1.2032499e-30 l -23.899902 2.8865934e-20 l -23.900024 6.925775e-10 l -151.53284 16.616945 l 72.62012 -83.085045 l -4.3641357 143.12173 l 5.67688 109.74635 l -14.405029 60.673035 l -4.3641357 143.12173 l -25.930908 75.80524 l 17.202637 94.614136 l -47.002563 91.78583 l 38.274414 78.633606 l -4.3641357 143.1217 l -78.61035 57.844727 l -45.69995 -100.30005 l -79.16028 31.796692 l 0.0 0.0 l -3.3684082 -337.52008 l 0.0 0.0 l -95.44214 45.83557 l -87.48999 -179.84955 l 66.234985 -112.46222 l -74.97424 -49.600418 l 127.823975 -92.23901 l -219.22388 -108.36099 l -45.700073 -100.3 l -44.399963 100.4 l -44.400024 100.4 l -44.399963 100.40001 l -44.400024 100.399994 l -44.400024 100.399994 l -44.399963 100.400024 l -44.400024 100.39996 l 46.816772 97.78369 l -92.624695 112.491516 l -92.624695 112.491516 l -84.48224 -97.11835 l -4.86203 -103.7652 l -4.86203 -103.76514 l -4.86203 -103.7652 l -4.86203 -103.7652 l 9.562958 -69.18762 l -19.286987 -61.90448 l -4.86203 -103.76518 l -4.86203 -103.76518 l -11.81073 -103.76518 l 0.0 0.0 l -33.019806 0.0 l 0.0 0.0 l -40.05133 0.0 l -23.534271 0.0 l -23.534332 0.0 l -23.534317 0.0 l -23.534302 0.0 l -23.534317 0.0 l -22.3331 5.3947966e-05 l 0.0 0.0 l -29.402435 -5.3947966e-05 l -24.100006 0.0 " /> </g> </svg>