<?xml version="1.0" standalone="no"?><!DOCTYPE svg PUBLIC "-//W3C//DTD SVG 1.1//EN" "http://www.w3.org/Graphics/SVG/1.1/DTD/svg11.dtd" ><svg xmlns="http://www.w3.org/2000/svg" xmlns:xlink="http://www.w3.org/1999/xlink" version="1.1" viewBox="-10 0 692 1000"><g transform="matrix(1 0 0 -1 0 800)"><path stroke="black" fill="none" d="M 273.94122 346.74454 l -39.215363 52.786407 l -62.854446 114.256165 l 28.757767 -58.45349 l -70.69368 184.12506 l 18.300293 -64.12146 l -37.809288 267.52148 l -1.5613403 -66.04956 l -0.81630707 2.1223145 l -0.00064849854 0.0017089844 l -6.1035156e-05 0.00012207031 l 0.0 0.0 l 8.752365 -72.21985 l 29.46891 318.24487 l -16.92714 -59.779053 l -11.668297 -59.171143 l 76.36907 230.9248 l -26.231995 -54.95862 l 93.13727 159.60486 l -35.770706 -51.286377 l 282.26202 250.7074 l 56.120667 25.685303 l -261.92438 -175.46411 l 0.0 0.0 l 0.0 0.0 l 3.0517578e-05 0.0 l 48.463013 44.371094 l 50.854614 40.05371 l 52.02353 34.8479 l 865.4683 -1142.593 l -50.407227 -39.32704 l 99.467285 83.80705 l 0.0 0.0 l 0.0 0.0 l 0.00012207031 0.0 l 40.388306 49.34375 l -184.44495 1045.6785 l -53.394287 30.45996 l 155.57825 -106.124756 l 0.0 0.0 l -0.00048828125 0.00048828125 l -0.012573242 0.010009766 l -49.687378 39.851562 l 94.48486 -87.744995 l -373.13452 217.79187 l -61.00946 11.737793 l 123.84808 -29.507446 l 53.060913 -19.586548 l -431.6255 39.781616 l -59.647827 -16.262085 l 122.4046 28.097168 l 63.490112 6.97229 l 0.0 0.0 l 0.00012207031 0.0 l 0.00079345703 0.0 l 64.663574 -2.3468018 l 539.14294 -287.93835 l 34.713623 -50.728638 l 31.030762 -54.19043 l 26.013428 -55.629272 l 56.916138 -242.07538 l 0.0 0.0 l 0.0 0.0 l 0.0 0.0 l -7.0931396 63.19879 l -11.955566 61.916077 l -16.470337 59.120728 l 33.127563 -249.92816 l -7.1245117 -63.432495 l -11.930298 -61.6817 l -16.623901 -59.40094 l -48.159912 -113.982605 l -30.205566 -52.20096 l 56.9209 108.60593 l -397.3401 -384.67056 l -58.28015 -20.823784 l -60.69525 -16.322525 l 230.65363 93.13369 l -54.608643 -30.222855 l -640.55865 -6.867157 l -52.43924 27.282547 l -49.44815 30.31305 l -49.72931 35.372955 l 0.0 0.0 l 0.0 0.0 l -6.1035156e-05 3.0517578e-05 l -49.678986 47.124374 l 603.042 -207.80832 l -64.572876 -6.986786 l 0.0 0.0 l 0.0 0.0 l 0.0 0.0 l -60.22052 2.1819458 l -56.58264 6.0611343 l -166.77448 43.454674 l 57.411194 -19.431007 l 51.173035 -13.35331 " /> </g> </svg>