<?xml version="1.0" standalone="no"?><!DOCTYPE svg PUBLIC "-//W3C//DTD SVG 1.1//EN" "http://www.w3.org/Graphics/SVG/1.1/DTD/svg11.dtd" ><svg xmlns="http://www.w3.org/2000/svg" xmlns:xlink="http://www.w3.org/1999/xlink" version="1.1" viewBox="-10 0 692 1000"><g transform="matrix(1 0 0 -1 0 800)"><path stroke="black" fill="none" d="M 185.0 0.0 l 0.0 164.9 l 53.53914 217.77444 l 0.0 0.0 l -45.246216 88.19269 l 0.0 0.0 l -45.73433 125.0282 l 0.0 0.0 l -38.83281 179.11115 l 0.0 0.0 l 17.193443 161.21234 l 0.0 0.0 l 48.755424 163.39093 l 0.0 0.0 l 63.56305 110.221924 l 0.0 0.0 l -53.2377 274.2683 l 0.0 164.90002 l 112.600006 -117.80005 l 301.51126 -52.980957 l 0.0 0.0 l -220.25394 -125.56641 l 0.0 0.0 l 256.5427 -174.85266 l 112.599976 -117.80005 l 112.599976 -117.79993 l 112.60004 -117.80005 l 112.60004 -117.79999 l 112.599976 -117.79999 l 230.8772 -193.6228 l 0.0 0.0 l -118.27722 183.1228 l 0.0 107.29999 l 0.0 107.29999 l 0.0 107.30005 l 0.0 107.29999 l 0.0 107.29999 l 76.29248 143.12317 l 0.0 0.0 l -249.83508 194.09119 l 0.0 0.0 l -284.1206 66.17236 l 0.0 0.0 l 457.6632 25.813354 l 23.299927 0.0 l 23.300049 0.0 l 23.300049 0.0 l 23.299927 0.0 l 23.300049 0.0 l 23.299927 0.0 l 23.300049 0.0 l 23.300049 0.0 l 23.299927 0.0 l 23.300049 0.0 l 0.0 -163.80005 l 0.0 -163.80005 l -29.935547 -174.07654 l 0.0 0.0 l 43.43335 -191.17029 l 0.0 0.0 l -5.8756104 -135.04724 l 0.0 0.0 l -24.138184 -125.58154 l 0.0 0.0 l -28.454956 -90.449646 l 0.0 0.0 l 44.970947 -266.47473 l 0.0 -163.8 l 0.0 -163.8 l -112.599976 117.5 l -412.5431 86.99127 l 0.0 0.0 l 162.56628 65.62288 l 0.0 0.0 l -87.82324 199.88585 l -112.599976 117.5 l -112.60004 117.49997 l -112.599976 117.5 l -112.599976 117.5 l -112.60004 117.5 l -112.599976 117.5 l 0.0 -108.099976 l 0.0 -108.099976 l 0.0 -108.10004 l 0.0 -108.099976 l 0.0 -108.099976 l 0.0 -108.10004 l 0.0 -108.099976 l -80.03604 -44.853516 l 0.0 0.0 l 427.68698 -191.03406 l 0.0 0.0 l -347.65094 -88.41243 l -23.300018 0.0 l -23.299988 0.0 l -23.299988 0.0 l -23.300018 0.0 l -23.299988 0.0 l -23.299988 0.0 l -23.300018 0.0 l -23.299988 0.0 l -23.300003 0.0 l -23.300003 0.0 " /> </g> </svg>