<?xml version="1.0" standalone="no"?><!DOCTYPE svg PUBLIC "-//W3C//DTD SVG 1.1//EN" "http://www.w3.org/Graphics/SVG/1.1/DTD/svg11.dtd" ><svg xmlns="http://www.w3.org/2000/svg" xmlns:xlink="http://www.w3.org/1999/xlink" version="1.1" viewBox="-10 0 692 1000"><g transform="matrix(1 0 0 -1 0 800)"><path stroke="black" fill="none" d="M 273.74124 347.00607 l -38.313477 51.576233 l -62.581955 113.57565 l 28.094345 -57.105225 l -70.199936 182.68707 l 17.877289 -62.64502 l -37.801804 263.27423 l -2.1536942 -60.405823 l -0.073036194 0.18878174 l -0.006477356 0.016784668 l 0.0 0.0 l 8.649895 -71.52435 l 29.350754 317.01825 l -19.027985 -70.63959 l -8.666199 -43.944336 l 75.18698 226.28693 l -25.613983 -53.664795 l 92.36223 158.3783 l -34.925644 -50.07495 l 282.49652 250.57178 l 54.848694 25.101807 l -261.04016 -175.01025 l 0.0 0.0 l 0.0020141602 0.0018310547 l 0.27694702 0.25305176 l 47.072937 43.09839 l 54.84662 42.969482 l 48.011475 32.161865 l 863.63794 -1144.1158 l -46.54065 -36.311935 l 98.51721 83.07765 l 0.0 0.0 l 0.0007324219 0.0009460449 l 0.03527832 0.04623413 l 39.55078 48.329407 l -186.73438 1048.3259 l -49.28369 28.116089 l 151.51208 -103.1084 l 0.0 0.0 l -43.52527 34.89868 l 78.20801 -71.249756 l 10.252563 -10.900513 l -370.83765 214.82886 l -0.03869629 0.005126953 l -57.873962 11.068237 l 157.18439 -42.161743 l 5.3271484 -1.9654541 l -423.15924 34.470337 l -55.041687 -15.004883 l 125.863464 28.279297 l 2.1412354 0.23083496 l 57.820496 6.194824 l 0.0 0.0 l 0.15216064 -0.0057373047 l 59.244507 -2.1617432 l 550.04376 -297.93835 l 25.801392 -37.71338 l 33.383423 -57.817627 l 25.41101 -54.34314 l 57.291138 -242.78937 l 0.0 0.0 l -0.00024414062 0.0021362305 l -0.024291992 0.21484375 l -6.8796387 61.281555 l -13.080322 66.88269 l -15.194702 54.54596 l 32.674805 -249.80219 l -6.959717 -61.96704 l -12.252686 -63.08484 l -16.239624 -58.02533 l -54.127075 -124.45447 l -22.378418 -38.67697 l 54.80005 104.83249 l -400.64465 -385.52908 l -53.91333 -19.26545 l -60.96405 -16.45597 l 229.09283 92.42705 l -53.31482 -29.507202 l -644.487 -5.131897 l -58.50592 31.2527 l -36.640045 22.459381 l -53.014038 37.413223 l 0.0 0.0 l -0.0027770996 0.0026397705 l -0.5204468 0.49534607 l -47.985077 45.51715 l 601.35864 -206.83115 l -64.047 -6.9495697 l 0.0 0.0 l -0.001953125 6.866455e-05 l -0.1663208 0.0060043335 l -70.95154 3.3658752 l -41.797546 4.474701 l -168.74109 43.291473 l 0.37145996 -0.112976074 l 90.08911 -27.854477 l 4.741516 -1.2397232 " /> </g> </svg>