<?xml version="1.0" standalone="no"?><!DOCTYPE svg PUBLIC "-//W3C//DTD SVG 1.1//EN" "http://www.w3.org/Graphics/SVG/1.1/DTD/svg11.dtd" ><svg xmlns="http://www.w3.org/2000/svg" xmlns:xlink="http://www.w3.org/1999/xlink" version="1.1" viewBox="-10 0 692 1000"><g transform="matrix(1 0 0 -1 0 800)"><path stroke="black" fill="none" d="M 273.89594 346.8038 l -39.011032 52.512268 l -62.79271 114.10196 l 28.607468 -58.14804 l -70.58183 183.79935 l 18.204483 -63.78705 l -37.807602 266.55933 l -1.7320786 -64.675964 l -0.5403366 1.404419 l -0.05307007 0.13793945 l -0.0028381348 0.007385254 l 0.0 0.0 l 8.711998 -72.01758 l 29.442146 317.96698 l -17.403076 -62.23938 l -10.98819 -55.72168 l 76.10129 229.87415 l -26.091995 -54.665527 l 92.96167 159.32703 l -35.57924 -51.011963 l 282.31512 250.67676 l 55.83249 25.552979 l -261.7366 -175.37268 l 0.0 0.0 l 0.00012207031 0.00012207031 l 0.0005187988 0.00048828125 l 48.223236 44.151367 l 51.758972 40.714233 l 51.114624 34.23938 l 865.0536 -1142.938 l -49.53125 -38.643997 l 99.246216 83.63411 l 0.0 0.0 l 0.00012207031 6.1035156e-05 l 0.00012207031 0.00021362305 l 40.212402 49.13208 l -184.96362 1046.2782 l -52.463013 29.928955 l 155.10071 -105.79614 l 0.0 0.0 l -0.017578125 0.014038086 l -48.72754 39.07837 l 80.65857 -73.22864 l 12.461548 -13.248901 l -372.6142 217.1206 l -60.307922 11.58728 l 131.40015 -32.374146 l 42.247314 -15.594727 l -429.70764 38.57837 l -58.60431 -15.977173 l 123.18817 28.138428 l 62.522156 6.8548584 l 0.0 0.0 l 0.0029907227 -0.00012207031 l 0.43878174 -0.016479492 l 63.197937 -2.2960205 l 541.6124 -290.20374 l 32.694702 -47.78015 l 31.56372 -55.012085 l 25.876953 -55.338013 l 57.002686 -242.25134 l 0.0 0.0 l 0.0 0.00012207031 l 0.0 0.00048828125 l -7.052002 62.82727 l -12.210327 63.0412 l -16.181396 58.08435 l 33.025024 -249.89966 l -7.087158 -63.100464 l -12.003296 -61.999573 l -16.536865 -59.089294 l -49.51172 -116.35492 l -28.432373 -49.137238 l 56.44043 107.75113 l -398.08875 -384.8651 l -57.290894 -20.470749 l -60.756104 -16.352753 l 230.30005 92.9736 l -54.31555 -30.06073 l -641.4486 -6.474045 l -53.81357 28.181946 l -46.5466 28.533875 l -50.45822 35.82068 l 0.0 0.0 l -0.00015258789 0.0001373291 l -0.00076293945 0.0007324219 l -49.42813 46.88672 l 602.6607 -207.58694 l -64.44049 -6.978836 l 0.0 0.0 l -0.00012207031 7.6293945e-06 l -0.00048828125 1.5258789e-05 l -62.70233 2.4519882 l -53.233215 5.7017365 l -167.21997 43.41771 l 64.898254 -21.364868 l 40.654358 -10.609085 " /> </g> </svg>