<?xml version="1.0" standalone="no"?><!DOCTYPE svg PUBLIC "-//W3C//DTD SVG 1.1//EN" "http://www.w3.org/Graphics/SVG/1.1/DTD/svg11.dtd" ><svg xmlns="http://www.w3.org/2000/svg" xmlns:xlink="http://www.w3.org/1999/xlink" version="1.1" viewBox="-10 0 692 1000"><g transform="matrix(1 0 0 -1 0 800)"><path stroke="black" fill="none" d="M 185.0 0.0 l 0.0 164.9 l 59.23741 220.69128 l -1.1143799 1.6282654 l -49.941864 83.283264 l 0.8286743 -1.6911926 l -50.134964 123.463715 l 0.47627258 -1.8562012 l -36.220604 189.48334 l 0.0 0.0 l 6.4132004 -48.703003 l 0.0 0.0 l 24.33577 264.95764 l 0.0 0.0 l -14.567688 -61.74298 l 50.14209 161.92657 l -0.6699829 -1.4321289 l 60.75415 108.99414 l -0.8829346 -1.2717285 l -48.65515 281.469 l 0.0 164.90002 l 112.600006 -117.80005 l 229.26956 -81.63953 l 0.0 0.0 l 1.9237671 0.83862305 l -189.52136 -124.9397 l 0.0 0.0 l 90.62488 68.217896 l 0.0 0.0 l 205.50317 -215.87732 l 112.599976 -117.80005 l 112.599976 -117.79993 l 112.60004 -117.80005 l 112.60004 -117.79999 l 112.599976 -117.79999 l 90.10889 -342.76178 l 0.0 0.0 l 140.57703 147.49387 l 0.0 0.0 l -118.08594 184.76791 l 0.0 107.29999 l 0.0 107.29999 l 0.0 107.30005 l 0.0 107.29999 l 0.0 107.29999 l -119.17456 309.60522 l 0.0 0.0 l 163.45825 -125.15723 l 0.0 0.0 l -333.59973 194.7478 l 0.0 0.0 l 67.00586 -21.743286 l -439.21844 21.770874 l 0.0 0.0 l 179.2984 27.808472 l 0.0 0.0 l 482.23022 22.168213 l 23.299927 0.0 l 23.300049 0.0 l 23.300049 0.0 l 23.299927 0.0 l 23.300049 0.0 l 23.299927 0.0 l 23.300049 0.0 l 23.300049 0.0 l 23.299927 0.0 l 23.300049 0.0 l 0.0 -163.80005 l -96.51672 -184.828 l 38.360718 -86.46912 l 0.0 0.0 l 0.71777344 -1.5856934 l 71.061646 -256.6129 l 0.0 0.0 l -26.406982 135.61035 l 0.0 0.0 l 21.256226 -269.14417 l -0.19812012 -1.8399658 l -25.700562 -120.57178 l -0.5097656 -1.7312622 l -31.494385 -85.59119 l 0.60754395 1.4550476 l 48.82263 -275.29135 l 0.0 -163.8 l 0.0 -163.8 l -112.599976 117.5 l -394.23047 91.51974 l 0.0 0.0 l -25.153137 -6.029045 l 162.8537 62.437088 l -1.3220215 -0.74134827 l -79.94812 205.31357 l -112.599976 117.5 l -112.60004 117.49997 l -112.599976 117.5 l -112.599976 117.5 l -112.60004 117.5 l -112.599976 117.5 l 0.0 -108.099976 l 0.0 -108.099976 l 0.0 -108.10004 l 0.0 -108.099976 l 0.0 -108.099976 l 0.0 -108.10004 l 0.0 -108.099976 l -18.559814 -96.34729 l 0.0 0.0 l -63.748413 53.086853 l 0.0 0.0 l 559.203 -193.75816 l 0.0 0.0 l -47.365723 -4.6386566 l 0.0 0.0 l -133.42377 13.157951 l 0.0 0.0 l -319.4053 -95.8007 l -23.299988 -3.6379788e-11 l -23.299988 0.0 l -23.300018 0.0 l -23.299988 0.0 l -23.299988 0.0 l -23.300018 0.0 l -23.299988 0.0 l -23.300003 0.0 l -23.300003 0.0 " /> </g> </svg>