<?xml version="1.0" standalone="no"?><!DOCTYPE svg PUBLIC "-//W3C//DTD SVG 1.1//EN" "http://www.w3.org/Graphics/SVG/1.1/DTD/svg11.dtd" ><svg xmlns="http://www.w3.org/2000/svg" xmlns:xlink="http://www.w3.org/1999/xlink" version="1.1" viewBox="-10 0 692 1000"><g transform="matrix(1 0 0 -1 0 800)"><path stroke="black" fill="none" d="M 273.21317 347.6967 l -35.931854 48.38034 l -61.86241 111.77872 l 26.342438 -53.54483 l -68.89607 178.88962 l 16.760223 -58.746033 l -37.78202 252.05817 l -1.9784546 -49.997498 l -0.0050735474 0.010559082 l 0.0 0.0 l 8.512917 -70.06372 l -0.023910522 0.26416016 l 29.062614 313.51465 l -0.09477234 -0.3723755 l -24.480988 -98.94702 l -0.739357 -3.7385864 l 72.06631 214.04431 l -23.981934 -50.24829 l 90.31552 155.13892 l -32.69409 -46.875977 l 283.1159 250.21375 l 0.53430176 0.23413086 l 50.955444 23.327148 l -258.01782 -173.18372 l 0.0 0.0 l 0.10244751 0.09362793 l 43.627777 39.94348 l 65.38855 50.669678 l 37.416626 25.068726 l 858.8045 -1148.1378 l -36.330322 -28.349731 l 96.33032 81.5741 l 0.0 0.0 l 0.029296875 0.038482666 l 37.118652 45.36142 l -192.78015 1055.3169 l -38.42859 21.926514 l 116.43396 -75.674805 l -2.8829346 2.3275146 l 69.84534 -64.49646 l 2.71167 -2.8833008 l -364.77216 207.00403 l -0.009460449 0.0013427734 l -49.725464 9.317505 l 156.22363 -42.744507 l 0.0 0.0 l -432.534 32.177856 l -42.878113 -11.685059 l 134.99756 28.760376 l 0.07922363 0.008544922 l 59.81836 4.6254883 l 0.0 0.0 l 36.232117 -1.345581 l 578.83 -324.34595 l 2.2681885 -3.3457031 l 39.59436 -67.394165 l 0.35095215 -0.77124023 l 23.469482 -50.17517 l 58.192993 -243.89282 l 0.0 0.0 l -0.011230469 0.10028076 l -6.30542 56.1261 l -16.050903 79.998474 l -11.825684 42.465088 l 31.479126 -249.46936 l -6.524292 -58.097168 l -13.104126 -66.79047 l -15.225098 -54.39258 l -69.88501 -152.1081 l -1.7145996 -2.973297 l 49.2052 94.877594 l -409.37122 -387.79608 l -42.38147 -15.150299 l -61.67383 -16.808388 l 224.97119 90.56097 l -49.898315 -27.61734 l -654.8608 -0.549469 l -74.52646 41.736908 l -2.8294067 1.727356 l -62.51056 43.587967 l 0.0 0.0 l -0.1505127 0.14326477 l -44.431366 42.1481 l 596.9133 -204.2507 l -0.31347656 -0.017295837 l -63.072144 -6.807747 l 0.0 0.0 l -0.08703613 0.0031433105 l -99.08777 6.4850464 l -2.798584 0.29016876 l -173.88959 42.85566 l 0.03100586 -0.009429932 l 89.496826 -27.436783 l 0.0 0.0 " /> </g> </svg>