<?xml version="1.0" standalone="no"?><!DOCTYPE svg PUBLIC "-//W3C//DTD SVG 1.1//EN" "http://www.w3.org/Graphics/SVG/1.1/DTD/svg11.dtd" ><svg xmlns="http://www.w3.org/2000/svg" xmlns:xlink="http://www.w3.org/1999/xlink" version="1.1" viewBox="-10 0 692 1000"><g transform="matrix(1 0 0 -1 0 800)"><path stroke="black" fill="none" d="M 273.95837 346.7221 l -39.29785 52.897125 l -62.879364 114.31839 l 28.818436 -58.576813 l -70.73883 184.25662 l 18.33899 -64.25653 l -37.809975 267.91003 l -1.4917908 -66.60571 l -0.89798737 2.3347778 l 0.0 0.0 l 0.0 0.0 l 8.75988 -72.27869 l 29.479729 318.35706 l -16.73497 -58.785522 l -11.942917 -60.564148 l 76.47722 231.34906 l -26.288544 -55.076904 l 93.20816 159.71704 l -35.847992 -51.397095 l 282.24057 250.71973 l 56.237 25.738647 l -261.99814 -175.49915 l 0.0 0.0 l 0.0 0.0 l 0.0 0.0 l 48.557587 44.457764 l 50.48941 39.786865 l 52.390533 35.093628 l 865.6357 -1142.4536 l -50.760864 -39.60286 l 99.55762 83.87816 l 0.0 0.0 l 0.0 0.0 l 0.0 0.0 l 40.458252 49.427826 l -184.23547 1045.4363 l -53.77014 30.674438 l 155.69739 -106.19849 l 0.0 0.0 l 0.0 0.0 l 0.0 0.0 l -50.012573 40.114014 l 95.03589 -88.256836 l -373.34467 218.06287 l -61.292664 11.798584 l 120.798584 -28.349854 l 57.42749 -21.198608 l -432.40002 40.26758 l -60.069153 -16.377075 l 122.088135 28.080566 l 63.908997 7.0186768 l 0.0 0.0 l 0.0 0.0 l 0.0 0.0 l 65.05029 -2.3596191 l 538.14575 -287.02368 l 35.52893 -51.91919 l 30.815552 -53.85852 l 26.068604 -55.74695 l 56.88086 -242.00201 l 0.0 0.0 l 0.0 0.0 l 0.0 0.0 l -7.109497 63.346252 l -11.852661 61.46173 l -16.587158 59.539185 l 33.169067 -249.9397 l -7.1396484 -63.56653 l -11.900757 -61.553345 l -16.659058 -59.526794 l -47.614014 -113.02463 l -30.92163 -53.43811 l 57.11499 108.95114 l -397.03784 -384.59207 l -58.679565 -20.966331 l -60.670715 -16.31031 l 230.79633 93.19833 l -54.72693 -30.288315 l -640.19934 -7.0259094 l -51.884247 26.919373 l -50.619812 31.031479 l -49.4375 35.194565 l 0.0 0.0 l 0.0 0.0 l 0.0 0.0 l -49.777466 47.217636 l 603.19604 -207.8977 l -64.62854 -6.989914 l 0.0 0.0 l 0.0 0.0 l 0.0 0.0 l -59.21588 2.072815 l -57.93518 6.206253 l -166.5946 43.469612 l 54.38788 -18.650116 l 55.420532 -14.461449 " /> </g> </svg>