<?xml version="1.0" standalone="no"?><!DOCTYPE svg PUBLIC "-//W3C//DTD SVG 1.1//EN" "http://www.w3.org/Graphics/SVG/1.1/DTD/svg11.dtd" ><svg xmlns="http://www.w3.org/2000/svg" xmlns:xlink="http://www.w3.org/1999/xlink" version="1.1" viewBox="-10 0 692 1000"><g transform="matrix(1 0 0 -1 0 800)"><path stroke="black" fill="none" d="M 273.95837 346.7221 l -39.292725 52.89026 l -62.877823 114.314514 l 28.814667 -58.569122 l -70.73602 184.24838 l 18.336594 -64.24811 l -37.809944 267.88586 l -1.4961243 -66.571106 l -0.8930969 2.3220825 l 0.0 0.0 l 0.0 0.0 l 0.0 0.0 l 8.759567 -72.27545 l 29.479057 318.3501 l -16.746918 -58.84735 l -11.925835 -60.477478 l 76.47048 231.32263 l -26.285019 -55.069458 l 93.20375 159.71008 l -35.843185 -51.39026 l 282.24188 250.719 l 56.229797 25.73523 l -261.99362 -175.49695 l 0.0 0.0 l 0.0 0.0 l 0.0 0.0 l 48.551727 44.452393 l 50.512146 39.803467 l 52.367706 35.07837 l 865.62524 -1142.4623 l -50.73889 -39.585724 l 99.552 83.87372 l 0.0 0.0 l 0.0 0.0 l 0.0 0.0 l 40.45398 49.422638 l -184.24854 1045.4513 l -53.746826 30.661133 l 155.69128 -106.19495 l 0.0 0.0 l 0.0 0.0 l -0.00012207031 0.0 l -49.994263 40.099243 l 95.00159 -88.224976 l -373.3316 218.04614 l -61.275024 11.794678 l 120.98834 -28.421753 l 57.15576 -21.098389 l -432.35187 40.237305 l -60.042908 -16.369873 l 122.10785 28.081543 l 63.882446 7.015869 l 0.0 0.0 l 0.0 0.0 l 0.0 0.0 l 65.02673 -2.3588867 l 538.2078 -287.08057 l 35.47815 -51.845093 l 30.82898 -53.87915 l 26.065186 -55.739746 l 56.883057 -242.00653 l 0.0 0.0 l 0.0 0.0 l 0.0 0.0 l -7.1085205 63.33716 l -11.859009 61.48993 l -16.579834 59.513184 l 33.16638 -249.93896 l -7.138672 -63.558228 l -11.902588 -61.56128 l -16.65686 -59.518982 l -47.64807 -113.08423 l -30.877075 -53.361145 l 57.102905 108.92963 l -397.05652 -384.59692 l -58.654785 -20.957458 l -60.67224 -16.311073 l 230.78748 93.19431 l -54.719604 -30.28424 l -640.2217 -7.016037 l -51.918762 26.94197 l -50.546936 30.98677 l -49.455597 35.205627 l 0.0 0.0 l 0.0 0.0 l 0.0 0.0 l -49.771393 47.21187 l 603.18646 -207.89214 l -64.62506 -6.989723 l 0.0 0.0 l 0.0 0.0 l 0.0 0.0 l -59.278442 2.079605 l -57.851013 6.1972275 l -166.60583 43.46869 l 54.57605 -18.698715 l 55.15619 -14.392494 " /> </g> </svg>