<?xml version="1.0" standalone="no"?><!DOCTYPE svg PUBLIC "-//W3C//DTD SVG 1.1//EN" "http://www.w3.org/Graphics/SVG/1.1/DTD/svg11.dtd" ><svg xmlns="http://www.w3.org/2000/svg" xmlns:xlink="http://www.w3.org/1999/xlink" version="1.1" viewBox="-10 0 692 1000"><g transform="matrix(1 0 0 -1 0 800)"><path stroke="black" fill="none" d="M 273.9545 346.72717 l -39.275192 52.86673 l -62.872528 114.30133 l 28.801788 -58.54297 l -70.72644 184.22046 l 18.32837 -64.21942 l -37.80979 267.80334 l -1.5109253 -66.45288 l -0.8762436 2.2781982 l -7.6293945e-06 0.0 l 0.0 0.0 l 0.0 0.0 l 8.758354 -72.263916 l 29.476746 318.32623 l -16.787735 -59.05841 l -11.867493 -60.18152 l 76.44751 231.23248 l -26.27301 -55.04431 l 93.188675 159.68616 l -35.82675 -51.3667 l 282.24646 250.71643 l 56.205048 25.723877 l -261.978 -175.48962 l 0.0 0.0 l 0.0 0.0 l 0.0 0.0 l 48.53174 44.434082 l 50.58972 39.86023 l 52.289734 35.026123 l 865.5897 -1142.492 l -50.663696 -39.5271 l 99.532715 83.85855 l 0.0 0.0 l 0.0 0.0 l 0.0 0.0 l 40.43921 49.404816 l -184.29309 1045.5028 l -53.666992 30.615479 l 155.66895 -106.18152 l 0.0 0.0 l 0.0 0.0 l -0.00012207031 0.00012207031 l -49.93091 40.047974 l 94.88452 -88.11621 l -373.28693 217.9884 l -61.214844 11.78186 l 121.63617 -28.667725 l 56.22815 -20.75586 l -432.18732 40.134033 l -59.95343 -16.345459 l 122.17511 28.085083 l 63.792297 7.0061035 l 0.0 0.0 l 0.0 0.0 l 6.1035156e-05 0.0 l 64.94586 -2.3562012 l 538.4197 -287.2749 l 35.30493 -51.592163 l 30.874756 -53.949707 l 26.053345 -55.71472 l 56.890625 -242.02222 l 0.0 0.0 l 0.0 0.0 l 0.0 0.0 l -7.1051025 63.30591 l -11.880859 61.586487 l -16.555054 59.424255 l 33.157593 -249.93652 l -7.135498 -63.529724 l -11.908813 -61.588562 l -16.649414 -59.49225 l -47.763916 -113.28775 l -30.724976 -53.098297 l 57.061646 108.85632 l -397.12085 -384.61365 l -58.569824 -20.927185 l -60.67749 -16.313667 l 230.7572 93.18058 l -54.694458 -30.27034 l -640.29803 -6.9823 l -52.036713 27.01912 l -50.298004 30.834152 l -49.517487 35.243423 l 0.0 0.0 l 0.0 0.0 l 0.0 0.0 l -49.75058 47.192154 l 603.15375 -207.87314 l -64.61316 -6.989067 l 0.0 0.0 l 0.0 0.0 l 0.0 0.0 l -59.491943 2.1027985 l -57.56372 6.166397 l -166.64398 43.465508 l 55.218323 -18.864609 l 54.253845 -14.157074 " /> </g> </svg>