<?xml version="1.0" standalone="no"?><!DOCTYPE svg PUBLIC "-//W3C//DTD SVG 1.1//EN" "http://www.w3.org/Graphics/SVG/1.1/DTD/svg11.dtd" ><svg xmlns="http://www.w3.org/2000/svg" xmlns:xlink="http://www.w3.org/1999/xlink" version="1.1" viewBox="-10 0 692 1000"><g transform="matrix(1 0 0 -1 0 800)"><path stroke="black" fill="none" d="M 271.4102 350.05463 l -27.800522 37.468933 l -59.405685 105.64346 l 20.361023 -41.388763 l -64.44441 165.92429 l 12.946335 -45.43402 l -37.7145 213.76416 l -1.0987396 -14.078125 l 0.0 0.0 l 8.012924 -66.115234 l -0.0023880005 0.026367188 l 27.975677 302.69244 l -0.0079193115 -0.03112793 l -23.462112 -95.845276 l 0.0 0.0 l 67.689224 204.41547 l -18.40979 -38.583496 l 83.32762 144.07935 l -25.075058 -35.954346 l 285.23053 248.99158 l 0.061279297 0.026855469 l 39.96039 18.274536 l -240.1854 -160.08301 l 0.0 0.0 l 23.851532 21.850464 l 101.38092 76.95984 l 1.756958 1.1933594 l 841.78864 -1162.2115 l -1.817627 -1.4353638 l 92.73096 81.33122 l 0.0 0.0 l 25.30188 30.616669 l -213.42175 1079.1855 l -1.8662109 1.0773926 l 109.930664 -73.15735 l 0.0 0.0 l 62.040283 -57.597412 l 0.0 0.0 l -364.7276 202.92163 l 0.0 0.0 l -21.814514 3.3284912 l 138.4165 -39.587524 l -468.2025 25.914917 l -2.000122 -0.5299072 l 166.83429 30.582153 l 0.0 0.0 l 47.01776 -1.5236816 l 0.0 0.0 l 588.7904 -327.25012 l 0.0 0.0 l 40.8468 -71.85327 l 0.041015625 -0.08984375 l 18.348755 -39.25952 l 60.30786 -239.11243 l 0.0 0.0 l -3.3461914 29.678223 l -26.192871 124.7785 l -0.52612305 1.9394531 l 27.599487 -249.05408 l -5.037964 -44.884705 l -16.010986 -79.44202 l -11.761108 -41.989624 l -69.073364 -151.81079 l 0.0 0.0 l 44.326538 85.103455 l -439.1654 -395.53625 l -3.0792236 -1.1250992 l -64.02728 -17.986809 l 210.89899 84.18975 l -38.2334 -21.164932 l -690.2791 15.095886 l -40.891144 23.610489 l 0.0 0.0 l -79.78433 58.220123 l 0.0 0.0 l -22.051208 20.892883 l 581.73584 -195.44049 l -0.028869629 -0.0015945435 l -69.04907 -6.1110916 l 0.0 0.0 l -79.934204 5.7491684 l 0.0 0.0 l -168.1911 38.46231 l 0.0 0.0 l 63.43878 -19.090614 " /> </g> </svg>