<?xml version="1.0" standalone="no"?><!DOCTYPE svg PUBLIC "-//W3C//DTD SVG 1.1//EN" "http://www.w3.org/Graphics/SVG/1.1/DTD/svg11.dtd" ><svg xmlns="http://www.w3.org/2000/svg" xmlns:xlink="http://www.w3.org/1999/xlink" version="1.1" viewBox="-10 0 692 1000"><g transform="matrix(1 0 0 -1 0 800)"><path stroke="black" fill="none" d="M 184.98753 926.3961 l 0.031677246 154.41376 l 0.097351074 154.30249 l -0.072402954 154.40051 l 105.29985 154.49622 l -25.75592 0.0 l -77.4494 0.0 l 29.904816 0.0 l 18.735214 0.0 l 109.30354 0.0 l 23.852173 0.0 l -51.611572 0.0 l 84.57431 0.0 l 18.84732 0.0 l 28.283997 0.0 l 0.0 0.0 l -3.0517578e-05 0.0 l -6.1035156e-05 0.0 l 107.763 -2.4278564 l -69.226776 2.142212 l 34.998383 -0.7885742 l 67.06879 -3.2949219 l 29.42572 -2.3636475 l 28.318665 -2.9632568 l 92.26544 -17.63794 l -18.35138 5.4609375 l -0.0006713867 0.00024414062 l 0.0 0.0 l 0.00012207031 0.0 l -23.119324 4.668457 l -23.783386 3.923584 l 123.3468 -38.029907 l 17.241577 -9.394897 l 17.601501 -10.807373 l -71.89551 36.773315 l 18.193787 -7.548584 l 70.87146 -41.077393 l 15.914185 -12.227661 l 16.1828 -13.760376 l 0.0 0.0 l 0.0 0.0 l 0.00018310547 -0.00024414062 l 29.988892 -32.537598 l 16.313232 -20.230225 l 81.40216 -199.04138 l 3.9385986 -37.94861 l 0.0 0.0 l -0.0028686523 -0.084228516 l -1.2816162 -37.4729 l -29.7984 177.9563 l 13.095337 -38.39673 l 6.7156982 -25.127563 l -36.450867 100.08972 l -15.863464 28.233398 l 28.343811 -393.86456 l 12.441162 33.561768 l 10.483765 38.872986 l 6.4987793 34.779785 l -196.16461 -287.42944 l 24.292847 13.542297 l 31.968506 21.314941 l 30.800354 24.471375 l 0.0 0.0 l 0.0024414062 0.002746582 l 0.43371582 0.49414062 l 23.061768 26.214294 l 22.207947 30.417358 l 17.947266 30.09961 l -632.35236 -922.5635 l 16.464539 -1.2669261e-09 l 24.900665 1.9594154e-08 l -70.036285 5.6000317e-08 l -39.67685 -7.694143e-08 l -1.2989807 -7.894414e-10 l 157.81116 377.40228 l 0.0 61.211243 l 0.0 63.55011 l 0.0 74.62109 l 0.0 46.027954 l -0.4393921 -622.7947 l -22.578827 -0.0066476744 l 23.018188 66.504776 l 0.0 57.658478 l 0.0 185.42358 l 0.0 -57.73784 l -0.00018310547 -62.994385 l -232.95857 -34.791977 l 16.713715 -154.07365 l 1.3448334 -6.468798e-05 l 27.874512 0.00060644076 l -0.058944702 8.176942e-05 l -45.85916 308.82297 l -0.046310425 154.37112 l -0.044662476 154.41885 l 272.10052 94.87604 l 0.0206604 0.0 l 10.52594 0.0 l 0.0 0.0 l 22.364777 0.0 l -0.22918701 0.0 l 27.075562 0.0 l 0.0 0.0 l 22.666687 0.00048828125 l -7.995178 -0.00012207031 l -0.010498047 0.0 l 28.828003 0.00018310547 l 0.0 0.0 l 206.2956 42.52588 l -47.431274 -16.31903 l 3.7751465 1.0701294 l -80.703125 -18.625732 l -31.328918 -4.4926147 l -425.96796 55.35376 " /> </g> </svg>