<?xml version="1.0" standalone="no"?><!DOCTYPE svg PUBLIC "-//W3C//DTD SVG 1.1//EN" "http://www.w3.org/Graphics/SVG/1.1/DTD/svg11.dtd" ><svg xmlns="http://www.w3.org/2000/svg" xmlns:xlink="http://www.w3.org/1999/xlink" version="1.1" viewBox="-10 0 692 1000"><g transform="matrix(1 0 0 -1 0 800)"><path stroke="black" fill="none" d="M 184.99893 926.39966 l 0.0027160645 154.40118 l 0.008346558 154.3916 l -0.006210327 154.40002 l 105.574265 154.4082 l -26.344757 0.0 l -79.04982 0.0 l 26.700668 0.0 l 25.742462 0.0 l 105.917694 0.0 l 26.181458 0.0 l -52.69806 0.0 l 79.66104 0.0 l 25.752106 0.0 l 26.561737 0.0 l 0.0 0.0 l 0.0 0.0 l 0.0 0.0 l 107.84235 -2.4298096 l -69.933624 2.1585693 l 35.868378 -0.80822754 l 66.274536 -3.244751 l 30.17926 -2.4243164 l 28.34729 -2.9693604 l 93.31183 -17.99646 l -19.639954 5.8443604 l 0.0 0.0 l 0.0 0.0 l 0.0 0.0 l -22.689514 4.5965576 l -24.484253 4.0390625 l 123.35895 -37.92932 l 17.788635 -9.692139 l 17.380676 -10.690918 l -72.28357 36.94397 l 18.748047 -7.7784424 l 70.44037 -40.82373 l 16.358337 -12.568115 l 15.942261 -13.576904 l 0.0 0.0 l 0.0 0.0 l 0.0 0.0 l 25.67517 -27.18274 l 22.069763 -27.370117 l 79.93744 -196.99231 l 3.9874268 -37.539795 l 0.0 0.0 l 0.0 -0.00012207031 l 0.0 -0.00036621094 l -1.4101562 -41.233032 l -30.43982 183.11584 l 12.066528 -33.901855 l 9.087463 -34.006714 l -35.95642 100.40991 l -17.167603 30.543213 l 28.340271 -394.86597 l 12.750977 34.401184 l 9.986633 36.46588 l 7.048401 37.723755 l -202.82495 -291.86383 l 32.572998 18.166077 l 31.421326 21.100159 l 29.505127 23.63147 l 0.0 0.0 l 0.0 6.1035156e-05 l 6.1035156e-05 0.0 l 24.09076 27.384155 l 21.377869 29.304443 l 18.415955 30.886108 l -637.1132 -922.8253 l 22.713623 -1.0868462e-10 l 23.437317 1.6807462e-09 l -69.91171 4.8044058e-09 l -24.704895 -6.600658e-09 l -21.401657 -6.9576345e-11 l 162.63533 376.30316 l 0.0 62.572266 l 0.0 62.77292 l 0.0 63.722687 l 0.0 61.269775 l -0.03768921 -626.6393 l -23.238129 -0.00057028 l 23.275818 63.0264 l 0.0 62.2675 l 0.0 187.87042 l 0.0 -62.274338 l -3.0517578e-05 -62.72525 l -232.99643 -33.79367 l 1.4338074 -154.37201 l 21.407196 -5.684564e-06 l 23.701782 5.2159605e-05 l -46.541504 308.80197 l -0.003982544 154.39752 l -0.003829956 154.40164 l 269.8785 94.88873 l 19.072052 0.0 l -7.535309 0.0 l 30.78061 0.0 l -9.675049 0.0 l 23.466766 0.0 l 7.5139465 0.0 l 22.435974 6.1035156e-05 l -10.560303 0.0 l 23.815125 -6.1035156e-05 l 7.5252686 0.0 l 207.09851 43.325073 l -74.09778 -24.07251 l 36.243347 10.294495 l -80.572266 -19.7359 l -42.227295 -6.053528 l -423.16324 55.752625 " /> </g> </svg>