<?xml version="1.0" standalone="no"?><!DOCTYPE svg PUBLIC "-//W3C//DTD SVG 1.1//EN" "http://www.w3.org/Graphics/SVG/1.1/DTD/svg11.dtd" ><svg xmlns="http://www.w3.org/2000/svg" xmlns:xlink="http://www.w3.org/1999/xlink" version="1.1" viewBox="-10 0 692 1000"><g transform="matrix(1 0 0 -1 0 800)"><path stroke="black" fill="none" d="M 108.0 779.0 l 0.0 0.0 l 2.3899994 64.28003 l 68.82457 81.34589 l -49.704575 41.69409 l 16.730011 58.75995 l 37.28018 55.822876 l 10.519806 56.177124 l 2.707962 84.974976 l -9.839355 154.46338 l 0.0056762695 -0.03894043 l 114.67572 -85.19934 l 0.0 0.0 l 48.559998 44.45996 l -120.378876 208.25989 l 0.0 0.0 l -19.452316 -0.00012207031 l 242.7112 -133.37976 l -150.27777 133.3794 l 0.0 0.0 l 141.08481 -0.0029296875 l 0.0 0.0 l 119.75299 -77.21643 l -18.791443 75.06738 l 0.0 0.0 l -24.964172 0.99401855 l 0.0 0.0 l 108.89368 -6.6864014 l 0.0 0.0 l 0.37078857 -0.04309082 l 88.227356 -13.382324 l -34.056763 6.4310303 l 0.0 0.0 l 137.17133 -49.59839 l 0.0 0.0 l 3.5889282 -2.0964355 l -47.69104 25.363403 l 0.0 0.0 l 100.39093 -64.05859 l 0.0 0.0 l 20.780884 -21.227417 l 0.0 0.0 l 113.76105 -298.2921 l 0.0 0.0 l -73.81677 248.31396 l 0.0 0.0 l 48.0849 -383.35052 l 0.0 0.0 l 4.207947 6.0894165 l 66.96234 494.8761 l 57.54004 -21.240112 l 55.660034 -25.95996 l 53.779907 -30.679932 l 51.900024 -35.400024 l 50.02002 -40.119995 l 0.0 0.0 l 45.03003 -48.150024 l 40.29004 -50.05005 l 35.549927 -51.94995 l 30.810059 -53.849976 l 26.069946 -55.75 l 21.329956 -57.650024 l 16.590088 -59.549988 l 11.849976 -61.450012 l 7.1099854 -63.350037 l 0.0 0.0 l -2.380005 -65.589966 l -7.1400146 -63.570007 l -11.900024 -61.549988 l -16.659912 -59.53003 l -21.420044 -57.50995 l -26.179932 -55.49002 l -30.940063 -53.47 l -35.69995 -51.450012 l -40.460083 -49.429993 l 0.0 0.0 l -48.789917 -44.27002 l -50.77002 -39.609985 l -52.75 -34.949997 l -54.72998 -30.290009 l -56.710083 -25.62999 l -58.68994 -20.970009 l -60.670044 -16.309998 l -62.649963 -11.650002 l -64.630005 -6.989998 l 0.0 0.0 l -45.085754 697.05664 l 0.0 0.0 l 142.44403 131.69623 l 0.0 0.0 l -214.51831 -820.4729 l -56.75 10.349998 l -55.52997 14.4900055 l -54.309998 18.62999 l -53.090027 22.770004 l -159.6565 -156.28996 l 0.0 0.0 l -93.04062 1.9209583e-05 l 0.0 0.0 l 150.46713 457.65848 l 0.0 0.0 l 0.0 137.53207 l 0.0 0.0 l -16.51117 -587.4228 l 0.0 0.0 l 16.465088 90.52369 l -0.04937744 142.68259 l 0.0 0.0 l -227.30408 -130.87363 l 0.0 0.0 l 7.3191376 -55.627323 l -5.28804 257.57986 l 42.028442 87.566986 l -48.32173 62.90741 l -14.558273 51.412598 l -23.580002 61.419983 l 32.069733 44.12903 l 320.9618 93.00098 l 0.0 0.0 l 117.7048 5.8258667 l 0.0 0.0 l -440.4647 54.083862 " /> </g> </svg>