<?xml version="1.0" standalone="no"?><!DOCTYPE svg PUBLIC "-//W3C//DTD SVG 1.1//EN" "http://www.w3.org/Graphics/SVG/1.1/DTD/svg11.dtd" ><svg xmlns="http://www.w3.org/2000/svg" xmlns:xlink="http://www.w3.org/1999/xlink" version="1.1" viewBox="-10 0 692 1000"><g transform="matrix(1 0 0 -1 0 800)"><path stroke="black" fill="none" d="M 184.95743 926.3869 l 0.108184814 154.44708 l 0.33236694 154.06714 l -0.2472229 154.40161 l 104.57527 154.72864 l -0.20578003 0.0 l -23.99524 0.0 l -73.22304 0.0 l 38.366165 0.0 l 1.0119019 0.0 l 117.46353 0.0 l 17.701172 0.0 l -48.74243 0.0 l 97.54904 0.0 l 1.1490173 0.0 l 32.283478 0.0 l 0.0 0.0 l -0.0002746582 0.0 l -0.001739502 0.0 l 107.568146 -2.4229736 l -67.36008 2.0992432 l 32.70102 -0.73657227 l 69.16608 -3.4274902 l 27.43573 -2.203247 l 28.243103 -2.9471436 l 89.50226 -16.691284 l -14.872437 4.4259033 l -0.0028686523 0.0008544922 l 0.0 0.0 l -24.329529 4.8809814 l -21.93274 3.6185303 l 123.31494 -38.295776 l 1.1908569 -0.6520996 l 14.606079 -7.9576416 l 18.18451 -11.11499 l -70.87073 36.32263 l 16.730286 -6.9415283 l 72.00964 -41.747192 l 0.5519409 -0.42797852 l 14.189331 -10.900635 l 16.845581 -14.27417 l 0.0 0.0 l 0.0007324219 -0.0007324219 l 0.026916504 -0.028442383 l 41.325867 -46.620728 l 1.170105 -1.4482422 l 85.21173 -204.37976 l 0.009155273 -0.096191406 l 3.6120605 -44.411255 l 0.0 0.0 l -0.7642212 -22.369751 l -28.104553 164.33154 l 15.812073 -50.266846 l 0.47821045 -1.7758789 l -37.782227 99.340454 l -12.419617 22.133545 l 28.353088 -391.22015 l 11.623108 31.34497 l 11.796631 45.229797 l 5.0473022 27.005493 l -178.57623 -275.71942 l 2.4335327 1.3356934 l 33.40692 21.878357 l 34.822876 27.375427 l 0.0 0.0 l 0.13079834 0.14898682 l 21.19934 24.098999 l 24.399963 33.356323 l 16.709534 28.02246 l -619.78 -921.87195 l 0.90753174 -3.290097e-09 l 27.819733 6.586333e-08 l -0.04663086 5.880338e-09 l -70.318756 1.8531682e-07 l -1.1725769 2.825309e-07 l -38.759552 -5.204465e-07 l 0.0 0.0 l 157.57706 380.30484 l 0.0 57.617126 l 0.0 65.602356 l 0.0 0.33114624 l 0.0 103.07007 l 0.0 5.778137 l -1.5001831 -612.6422 l -20.83783 -0.022696577 l 22.33789 75.690315 l 3.0517578e-05 45.487167 l -3.0517578e-05 178.96216 l 6.1035156e-05 -45.75815 l -0.00064086914 -63.705093 l -232.85858 -37.428223 l 18.661987 -153.28389 l 0.0 0.0 l 25.660934 -6.470224e-05 l -0.011962891 1.6601756e-05 l -44.25992 308.87875 l -0.15812683 154.30136 l -0.15248108 154.46439 l 277.8753 94.84247 l 0.0 0.0 l 1.6130371 0.0 l 27.88208 0.0 l 0.0 0.0 l 22.441498 0.0 l 20.982971 0.0016479492 l -1.3565674 -0.0004272461 l 0.0 0.0 l 26.942871 0.005065918 l 199.52277 40.411194 l -36.532104 -12.715454 l 0.0 0.0 l -103.49353 -22.111877 l -2.562683 -0.3725586 l -433.3608 54.30249 " /> </g> </svg>