<?xml version="1.0" standalone="no"?><!DOCTYPE svg PUBLIC "-//W3C//DTD SVG 1.1//EN" "http://www.w3.org/Graphics/SVG/1.1/DTD/svg11.dtd" ><svg xmlns="http://www.w3.org/2000/svg" xmlns:xlink="http://www.w3.org/1999/xlink" version="1.1" viewBox="-10 0 692 1000"><g transform="matrix(1 0 0 -1 0 800)"><path stroke="black" fill="none" d="M 184.99968 926.3999 l 0.00024414062 154.40002 l 0.0007171631 154.39929 l -0.0005340576 154.40002 l 105.59779 154.40063 l -26.395264 0.0 l -79.18712 0.0 l 26.425797 0.0 l 26.343597 0.0 l 105.62723 0.0 l 26.381287 0.0 l -52.79126 0.0 l 79.23956 0.0 l 26.34439 0.0 l 26.41388 0.0 l 0.0 0.0 l 0.0 0.0 l 0.0 0.0 l 107.849304 -2.4299316 l -69.99426 2.159912 l 35.942993 -0.8099365 l 66.20642 -3.2403564 l 30.243896 -2.4295654 l 28.349731 -2.9699707 l 93.40161 -18.0271 l -19.749695 5.876953 l 0.0 0.0 l 0.0 0.0 l 0.0 0.0 l -22.653381 4.5906982 l -24.544373 4.04895 l 123.359924 -37.920776 l 17.835571 -9.717651 l 17.361755 -10.680908 l -72.31683 36.95862 l 18.795532 -7.7980957 l 70.40344 -40.802124 l 16.396484 -12.597168 l 15.921875 -13.561523 l 0.0 0.0 l 0.0 0.0 l 0.0 0.0 l 25.304749 -26.723022 l 22.56366 -27.982666 l 79.81177 -196.81653 l 3.9898071 -37.55774 l 0.0 0.0 l 0.0 0.0 l 0.0 0.0 l -1.4191895 -41.49585 l -30.494812 183.55847 l 11.9783325 -33.516235 l 9.290894 -34.768433 l -35.914 100.43738 l -17.27948 30.741333 l 28.339966 -394.9519 l 12.777527 34.473267 l 9.944031 36.2594 l 7.09552 37.976196 l -203.3963 -292.2442 l 33.283325 18.562744 l 31.37439 21.081726 l 29.399841 23.566101 l 0.0 0.0 l 0.0 0.0 l 0.0 0.0 l 24.135864 27.435242 l 21.30664 29.208984 l 18.456177 30.953613 l -637.52167 -922.8478 l 23.249725 -9.549694e-12 l 23.311768 1.4415491e-10 l -69.901 4.120011e-10 l -23.420502 -5.6616045e-10 l -23.137161 -5.9117156e-12 l 163.06013 376.20886 l 0.0 62.689026 l 0.0 62.70627 l 0.0 62.78769 l 0.0 62.57733 l -0.0032348633 -626.96906 l -23.294678 -4.8922302e-05 l 23.297913 62.728 l 0.0 62.6629 l 0.0 188.0803 l 0.0 -62.663498 l 0.0 -62.702164 l -232.9997 -33.708023 l 0.1230011 -154.3976 l 23.137619 -4.876583e-07 l 23.334473 4.474586e-06 l -46.594986 308.80017 l -0.00033569336 154.39978 l -0.00033569336 154.40015 l 269.68793 94.88983 l 21.383118 0.0 l -10.519928 0.0 l 32.261047 0.0 l -10.703461 0.0 l 21.760132 0.0 l 10.518158 0.0 l 21.671692 0.0 l -10.77948 0.0 l 21.79004 0.0 l 10.519043 0.0 l 206.41425 43.393616 l -76.385376 -24.73767 l 39.028687 11.085815 l -80.561035 -19.831116 l -43.162292 -6.187439 l -422.9226 55.786804 " /> </g> </svg>