<?xml version="1.0" standalone="no"?><!DOCTYPE svg PUBLIC "-//W3C//DTD SVG 1.1//EN" "http://www.w3.org/Graphics/SVG/1.1/DTD/svg11.dtd" ><svg xmlns="http://www.w3.org/2000/svg" xmlns:xlink="http://www.w3.org/1999/xlink" version="1.1" viewBox="-10 0 692 1000"><g transform="matrix(1 0 0 -1 0 800)"><path stroke="black" fill="none" d="M 108.0 779.0 l 0.0 0.0 l 2.3899994 64.28003 l 54.857285 77.06293 l -35.73729 45.97705 l 16.730011 58.75995 l 33.70758 56.07141 l 14.092407 55.92859 l 31.070007 53.23999 l -33.59366 154.61658 l 0.0 0.0 l 110.073654 -53.656494 l 0.0 0.0 l 48.559998 44.45996 l -97.234085 208.2572 l 0.0 0.0 l 200.11409 -133.3772 l -7.7323914 132.61731 l 0.0 0.0 l 118.29242 -76.457275 l -27.236084 74.279785 l 0.0 0.0 l 124.93762 -9.4021 l 0.0 0.0 l 52.179382 -8.960571 l 0.0 0.0 l 108.17102 -43.7041 l 0.0 0.0 l -29.236511 17.99878 l 93.96167 -67.14697 l 0.0 0.0 l 49.87195 -56.29712 l 0.0 0.0 l 75.00354 -254.81421 l 0.0 0.0 l 45.467346 366.44653 l 57.54004 -21.240112 l 55.660034 -25.95996 l 53.779907 -30.679932 l 51.900024 -35.400024 l 50.02002 -40.119995 l 0.0 0.0 l 45.03003 -48.150024 l 40.29004 -50.05005 l 35.549927 -51.94995 l 30.810059 -53.849976 l 26.069946 -55.75 l 21.329956 -57.650024 l 16.590088 -59.549988 l 11.849976 -61.450012 l 7.1099854 -63.350037 l 0.0 0.0 l -2.380005 -65.589966 l -7.1400146 -63.570007 l -11.900024 -61.549988 l -16.659912 -59.53003 l -21.420044 -57.50995 l -26.179932 -55.49002 l -30.940063 -53.47 l -35.69995 -51.450012 l -40.460083 -49.429993 l 0.0 0.0 l -48.789917 -44.27002 l -50.77002 -39.609985 l -52.75 -34.949997 l -54.72998 -30.290009 l -56.710083 -25.62999 l -58.68994 -20.970009 l -60.670044 -16.309998 l -62.649963 -11.650002 l -64.630005 -6.989998 l 0.0 0.0 l 18.10669 750.54596 l 0.0 0.0 l -135.26672 -742.266 l -56.75 10.349998 l -55.52997 14.4900055 l -54.309998 18.62999 l -53.090027 22.770004 l -246.2735 -156.27188 l 0.0 0.0 l 144.04333 482.98007 l 0.0 0.0 l -1.4156189 -325.2185 l 0.0 0.0 l -2.3828125 67.40114 l -192.89319 -192.56412 l 0.0 0.0 l -10.252411 287.28976 l 23.604218 79.7135 l -45.090866 61.28369 l -17.789139 53.036316 l -23.580002 61.419983 l 20.649872 48.689514 l 343.70905 90.251465 l 0.0 0.0 l -349.84808 59.063843 " /> </g> </svg>