<?xml version="1.0" standalone="no"?><!DOCTYPE svg PUBLIC "-//W3C//DTD SVG 1.1//EN" "http://www.w3.org/Graphics/SVG/1.1/DTD/svg11.dtd" ><svg xmlns="http://www.w3.org/2000/svg" xmlns:xlink="http://www.w3.org/1999/xlink" version="1.1" viewBox="-10 0 692 1000"><g transform="matrix(1 0 0 -1 0 800)"><path stroke="black" fill="none" d="M 184.5037 926.2478 l 1.2610931 154.9497 l 3.8743286 150.51978 l -2.8818817 154.41858 l 0.08239746 -0.56481934 l 94.272675 158.79626 l 0.0 0.0 l -1.46698 0.0 l -50.008087 0.0 l 0.0 0.0 l 128.25595 0.0 l 0.0 0.0 l -28.043854 0.0 l 97.21304 -0.00024414062 l 20.5596 0.00024414062 l 0.0 0.0 l 106.89642 -2.3486328 l -0.012939453 0.00024414062 l -39.21405 1.4505615 l 1.017273 -0.021362305 l 97.83478 -5.357422 l 0.8654175 -0.06518555 l 23.683228 -2.4245605 l 84.85614 -13.4453125 l 0.0 0.0 l -42.0459 7.9418945 l -0.38360596 0.0637207 l 123.15997 -40.0968 l 0.0 0.0 l 0.16430664 -0.091674805 l 26.848816 -15.684204 l -55.427673 29.531494 l 0.2994995 -0.12475586 l 80.25787 -47.01819 l 0.0 0.0 l 0.34625244 -0.27209473 l 31.702087 -27.168701 l 0.0 0.0 l 9.931946 -10.508057 l 113.399536 -246.89331 l 0.0 0.0 l 1.2764282 -50.322266 l -13.901428 113.269165 l 0.0 0.0 l -60.539 133.17871 l 0.0 0.0 l 49.860474 -386.088 l 0.36810303 0.91223145 l 17.11316 67.65552 l 0.0 0.0 l -161.08167 -254.92249 l 0.0 0.0 l 70.63214 58.6333 l 0.0 0.0 l 43.13391 60.947998 l 0.39440918 0.65460205 l -605.5148 -915.3863 l 11.133972 -1.6795589e-06 l 0.0 0.0 l -69.718414 4.0467835e-06 l 0.0 0.0 l -0.35629272 2.493689e-07 l 124.595795 424.04922 l 0.0 3.5000916 l 0.0 96.48224 l 0.0 0.0 l 0.0 73.15393 l -17.487305 -596.46924 l -0.4099121 -0.047419548 l 17.89328 109.42004 l 0.0 0.0 l 0.00088500977 133.73283 l 0.0 0.0 l -0.0051574707 -25.237442 l -231.35146 -77.15929 l 0.0060272217 -0.047698975 l 58.94005 -140.97638 l 0.0 0.0 l -58.35118 309.3519 l -1.8432617 153.25021 l -1.7774353 155.15027 l 314.43222 94.33667 l 0.0 0.0 l 71.45209 0.7704468 l 0.0 0.0 l 164.72137 30.536133 l 0.0 0.0 l -59.341187 -14.719299 l -491.79114 43.039795 " /> </g> </svg>