<?xml version="1.0" standalone="no"?><!DOCTYPE svg PUBLIC "-//W3C//DTD SVG 1.1//EN" "http://www.w3.org/Graphics/SVG/1.1/DTD/svg11.dtd" ><svg xmlns="http://www.w3.org/2000/svg" xmlns:xlink="http://www.w3.org/1999/xlink" version="1.1" viewBox="-10 0 692 1000"><g transform="matrix(1 0 0 -1 0 800)"><path stroke="black" fill="none" d="M 184.99635 926.39886 l 0.009277344 154.40405 l 0.028518677 154.37146 l -0.021209717 154.40015 l 105.512085 154.4281 l -26.211334 0.0 l -78.68729 0.0 l 27.426544 0.0 l 24.15503 0.0 l 106.68475 0.0 l 25.653778 0.0 l -52.451935 0.0 l 80.77411 0.0 l 24.187866 0.0 l 26.952118 0.0 l 0.0 0.0 l 0.0 0.0 l 0.0 0.0 l 107.82413 -2.4293213 l -69.77347 2.1547852 l 35.671234 -0.80371094 l 66.45447 -3.2561035 l 30.008606 -2.4106445 l 28.34082 -2.9680176 l 93.07477 -17.915161 l -19.34961 5.7579346 l 0.0 0.0 l 6.1035156e-05 0.0 l 0.0 0.0 l -22.785522 4.6124268 l -24.32544 4.0129395 l 123.35614 -37.95215 l 17.664734 -9.624756 l 17.430725 -10.717285 l -72.19568 36.905273 l 18.622437 -7.7263184 l 70.538086 -40.881226 l 16.25769 -12.490967 l 15.996277 -13.618042 l 0.0 0.0 l 0.0 0.0 l 0.0 0.0 l 26.652893 -28.396362 l 20.765747 -25.752563 l 80.269226 -197.45654 l 3.9797974 -37.532593 l 0.0 0.0 l -6.1035156e-05 -0.0018310547 l -0.0056152344 -0.16418457 l -1.3794556 -40.334473 l -30.294495 181.9469 l 12.299622 -34.920044 l 8.55011 -31.99524 l -36.06842 100.3374 l -16.872192 30.019897 l 28.341125 -394.6391 l 12.680786 34.21106 l 10.099243 37.01117 l 6.923889 37.056885 l -201.3161 -290.8593 l 30.697205 17.118591 l 31.545288 21.148804 l 29.787537 23.809265 l 0.0 0.0 l 0.00012207031 0.00012207031 l 0.0006713867 0.00079345703 l 23.966675 27.243286 l 21.565979 29.55658 l 18.309753 30.707947 l -636.03467 -922.766 l 21.297943 -3.7107384e-10 l 23.76883 5.7389116e-09 l -69.93991 1.6402282e-08 l -28.09668 -2.2535914e-08 l -16.818665 -2.3783286e-10 l 161.51355 376.55215 l 0.0 62.263947 l 0.0 62.948975 l 0.0 66.19159 l 0.0 57.816895 l -0.12869263 -625.7683 l -23.088776 -0.0019470584 l 23.217468 63.814396 l 0.0 61.223373 l 0.0 187.3161 l 0.0 -61.246628 l -6.1035156e-05 -62.78621 l -232.98787 -34.019836 l 4.89534 -154.30441 l 16.83754 -1.9408311e-05 l 24.671783 0.00017808404 l -46.400284 308.80676 l -0.0135650635 154.39154 l -0.013076782 154.40552 l 270.3819 94.885864 l 0.13220215 0.0 l 12.836731 0.0 l -0.4564209 0.0 l 27.67395 0.0 l -6.959259 0.0 l 27.973541 0.0 l 0.4397583 0.0 l 23.595093 0.00012207031 l -9.943909 0.0 l -0.03765869 0.0 l 29.162903 -6.1035156e-05 l 0.44854736 0.0 l 208.07642 43.144104 l -68.0567 -22.31604 l 28.88794 8.204773 l -80.60193 -19.484375 l -39.75836 -5.69989 l -423.7986 55.66223 " /> </g> </svg>