<?xml version="1.0" standalone="no"?><!DOCTYPE svg PUBLIC "-//W3C//DTD SVG 1.1//EN" "http://www.w3.org/Graphics/SVG/1.1/DTD/svg11.dtd" ><svg xmlns="http://www.w3.org/2000/svg" xmlns:xlink="http://www.w3.org/1999/xlink" version="1.1" viewBox="-10 0 692 1000"><g transform="matrix(1 0 0 -1 0 800)"><path stroke="black" fill="none" d="M 184.85463 926.3554 l 0.36935425 154.56091 l 1.1347656 153.26355 l -0.8440857 154.40552 l 102.10132 155.5221 l -0.03579712 0.0 l -18.856354 0.0 l -58.793365 0.0 l 19.319748 0.0 l 0.0 0.0 l 133.7595 0.0 l 0.5545654 0.0 l -42.80081 0.0 l 96.99988 0.0 l 0.0 0.0 l 31.366577 0.0 l 0.0 0.0 l -0.0054626465 0.0 l 107.04257 -2.406128 l -0.068603516 0.0015869141 l -60.91815 1.9506836 l 24.8573 -0.5592041 l 76.32678 -3.880005 l 20.641602 -1.6557617 l 27.984924 -2.8918457 l 80.068115 -13.459351 l -2.2338867 0.6654053 l 0.0 0.0 l -29.23291 5.8363037 l -15.614197 2.5767822 l 123.206055 -39.20288 l 0.21673584 -0.118652344 l 10.647949 -5.810669 l 20.17517 -12.165283 l -67.371826 34.783936 l 11.733276 -4.8688965 l 75.89581 -44.033813 l 0.105529785 -0.08178711 l 10.631165 -8.17749 l 19.41156 -16.348877 l 0.0 0.0 l 0.026611328 -0.028198242 l 39.915283 -45.091675 l 0.0 0.0 l 87.59564 -209.31995 l 0.0014648438 -0.01550293 l 2.618164 -64.10144 l 0.0 0.0 l -21.391052 144.51294 l 8.456116 -29.047241 l 0.0 0.0 l -46.514282 112.98743 l -0.82373047 1.5914307 l 28.546936 -382.47552 l 8.830078 23.776428 l 16.278809 66.93335 l 0.25360107 1.3334961 l -164.95477 -261.9947 l 0.0 0.0 l 12.386353 8.846436 l 55.139587 44.789978 l 0.0 0.0 l 7.345825 8.338379 l 31.884033 43.390564 l 12.483643 20.930725 l -616.71826 -919.51086 l 0.0 0.0 l 25.441376 6.277787e-08 l -0.010528564 1.3278623e-09 l -71.478455 6.5146014e-07 l -0.20629883 4.8048605e-08 l -34.355804 -5.3915664e-07 l 154.97113 390.21472 l 0.0 45.3461 l 0.0 72.60922 l 0.0 0.029815674 l 0.0 103.25687 l 0.0 0.0 l -5.1219482 -611.24695 l -14.893646 -0.077490926 l 20.015167 107.05171 l 9.1552734e-05 3.9353638 l -3.0517578e-05 156.8978 l 0.00012207031 -4.8573303 l -0.002166748 -66.131195 l -232.51715 -46.428925 l 0.10446167 -0.82629395 l 26.541855 -149.73811 l 12.17923 -0.025182348 l 0.0 0.0 l -38.651306 309.06894 l -0.5398712 154.06323 l -0.52059937 154.61975 l 296.28043 94.727905 l 0.0 0.0 l 44.321472 0.0 l 0.0 0.0 l 25.078064 0.04840088 l 0.0 0.0 l 7.5897217 -0.026855469 l 183.5094 33.336853 l -1.734314 -0.6455078 l -115.97168 -26.48291 l 0.0 0.0 l -439.22736 53.31433 " /> </g> </svg>