<?xml version="1.0" standalone="no"?><!DOCTYPE svg PUBLIC "-//W3C//DTD SVG 1.1//EN" "http://www.w3.org/Graphics/SVG/1.1/DTD/svg11.dtd" ><svg xmlns="http://www.w3.org/2000/svg" xmlns:xlink="http://www.w3.org/1999/xlink" version="1.1" viewBox="-10 0 692 1000"><g transform="matrix(1 0 0 -1 0 800)"><path stroke="black" fill="none" d="M 184.99968 926.3999 l 0.00079345703 154.40027 l 0.0024414062 154.39758 l -0.0018157959 154.40002 l 105.59248 154.40234 l -26.38382 0.0 l -79.15604 0.0 l 26.488068 0.0 l 26.207413 0.0 l 105.69304 0.0 l 26.335999 0.0 l -52.77014 0.0 l 79.33505 0.0 l 26.210236 0.0 l 26.447357 0.0 l 0.0 0.0 l 0.0 0.0 l 0.0 0.0 l 107.84772 -2.4299316 l -69.9805 2.159668 l 35.926056 -0.8095703 l 66.22186 -3.241333 l 30.229248 -2.4283447 l 28.349182 -2.9698486 l 93.38129 -18.020142 l -19.724854 5.869507 l 0.0 0.0 l 0.0 0.0 l 0.0 0.0 l -22.66156 4.592041 l -24.530762 4.046631 l 123.35974 -37.922607 l 17.824951 -9.711914 l 17.366028 -10.683105 l -72.309326 36.9552 l 18.78479 -7.793579 l 70.411804 -40.807007 l 16.387817 -12.590698 l 15.926514 -13.564941 l 0.0 0.0 l 0.0 0.0 l 0.0 0.0 l 25.388672 -26.827148 l 22.451782 -27.843872 l 79.84021 -196.85632 l 3.9893188 -37.5531 l 0.0 0.0 l 0.0 0.0 l 0.0 0.0 l -1.4171753 -41.437134 l -30.48236 183.45825 l 11.998291 -33.603516 l 9.244812 -34.595947 l -35.923584 100.43115 l -17.25415 30.696533 l 28.340027 -394.9325 l 12.771545 34.45691 l 9.953674 36.306152 l 7.084839 37.919067 l -203.2669 -292.15808 l 33.122437 18.4729 l 31.38501 21.085938 l 29.423645 23.58081 l 0.0 0.0 l 0.0 0.0 l 0.0 0.0 l 24.125732 27.423767 l 21.322754 29.23059 l 18.447083 30.938354 l -637.42914 -922.8427 l 23.128265 -3.1832315e-11 l 23.34021 4.924914e-10 l -69.90341 1.4069883e-09 l -23.711487 -1.933131e-09 l -22.743988 -2.046363e-11 l 162.9639 376.23022 l 0.0 62.662567 l 0.0 62.721375 l 0.0 62.999542 l 0.0 62.281067 l -0.011047363 -626.89435 l -23.28186 -0.00016703119 l 23.292908 62.7956 l 0.0 62.573322 l 0.0 188.03278 l 0.0 -62.575348 l 0.0 -62.707397 l -232.99896 -33.727432 l 0.4199524 -154.3918 l 22.745605 -1.6649701e-06 l 23.417694 1.5277194e-05 l -46.58287 308.8006 l -0.0011749268 154.39926 l -0.0011138916 154.40048 l 269.73108 94.88959 l 20.859589 0.0 l -9.843811 0.0 l 31.92569 0.0 l -10.4704895 0.0 l 22.146759 0.0 l 9.837555 0.0 l 21.844849 0.0 l -10.729797 0.0 l 22.24878 0.0 l 9.84082 0.0 l 206.56927 43.37805 l -75.86713 -24.586914 l 38.397644 10.906494 l -80.56354 -19.80951 l -42.9505 -6.1571045 l -422.9771 55.779053 " /> </g> </svg>