<?xml version="1.0" standalone="no"?><!DOCTYPE svg PUBLIC "-//W3C//DTD SVG 1.1//EN" "http://www.w3.org/Graphics/SVG/1.1/DTD/svg11.dtd" ><svg xmlns="http://www.w3.org/2000/svg" xmlns:xlink="http://www.w3.org/1999/xlink" version="1.1" viewBox="-10 0 692 1000"><g transform="matrix(1 0 0 -1 0 800)"><path stroke="black" fill="none" d="M 412.23566 189.70067 l -40.41931 45.53923 l 288.1875 -207.4295 l -38.808655 16.496716 l 116.888245 -42.98276 l 40.80493 -10.5065 l -248.89514 103.49069 l -4.602173 2.8110123 l -61.163605 42.377213 l 0.0 0.0 l 0.000579834 -0.00039672852 l 0.012664795 -0.008773804 l 845.62463 -68.9688 l 0.027709961 0.0015563965 l 36.59326 20.639664 l 0.0 0.0 l 54.605957 -55.92722 l 0.21154785 -0.21670914 l -23.096191 23.669651 l 0.0 0.0 l -114.74658 -10.166981 l -0.22766113 -0.09623337 l -68.409546 -29.209858 l -2.835083 -1.097765 l 381.7401 -48.31346 l 0.8470459 0.0 l -55.892944 0.0 l 0.0 0.0 l 102.70691 0.0 l 0.0 0.0 l 1.4753418 0.0 l 59.349487 0.0 l 0.0 0.0 l 61.706055 0.0 l -304.5398 26.19487 l -0.0076904297 0.0078498125 l -12.828003 13.145854 l 29.57788 -30.121046 l -0.3166504 0.30734062 l -602.2716 -1.2776108 l 43.241516 -4.556013 l 65.40851 -2.3557796 l 0.0 0.0 l 0.18713379 0.015382767 l 40.920166 3.3044224 l 52.319824 7.2045746 l 50.061646 10.332916 l 31.137451 7.99843 l -837.77527 342.01294 l 32.8183 -53.30014 l -84.800354 170.21286 l 22.718811 -58.249573 l -53.980988 185.32559 l 12.620178 -63.198853 l -18.331467 196.10974 l -2.297226 -64.291626 l 0.0 0.0 l 1.5258789e-05 0.00048828125 l 0.00024414062 0.006591797 l 10.563843 138.8758 l 11.229675 58.67505 l 17.614517 63.60034 l 21.490417 57.851624 l 57.182953 109.32434 l -29.195648 -50.157837 l 71.2348 109.93555 l 1.4033203 1.6831055 l 37.783875 45.171997 l 0.0 0.0 l 0.11306763 0.099975586 l 44.13095 39.085938 l 218.27112 130.94482 l 52.436462 18.689453 l -112.78961 -45.58008 l -55.711853 -30.852661 l -47.58957 -31.084106 l 288.2335 125.96533 l 43.90808 8.198486 l 66.19757 7.5147705 l 0.0 0.0 l 0.0 0.0 l -6.1035156e-05 0.0 l 114.08148 -7.8095703 l -55.51416 5.788452 l 115.87897 -16.706787 l 50.05957 -12.722046 l 53.572998 -17.853394 l 243.16882 -149.61975 l -46.07263 41.732178 l 0.0 0.0 l -30.77478 21.39978 l 235.24841 -279.05792 l 2.697998 -5.2631226 l -91.41797 145.03784 l 0.0 0.0 l -212.38623 179.65076 l -46.575073 23.567505 l 253.7456 -1110.0151 l 27.156982 35.121796 l 41.714478 63.952972 l 27.219116 50.429108 l 0.0 0.0 l 37.56433 516.821 l 24.53772 -95.52167 l 1.3775635 -6.737793 l 11.225586 -100.34332 l 0.0 0.0 l -1.2648926 -32.076965 l -22.820679 -144.68329 l 11.694458 52.263123 l 0.0 0.0 " /> </g> </svg>