<?xml version="1.0" standalone="no"?><!DOCTYPE svg PUBLIC "-//W3C//DTD SVG 1.1//EN" "http://www.w3.org/Graphics/SVG/1.1/DTD/svg11.dtd" ><svg xmlns="http://www.w3.org/2000/svg" xmlns:xlink="http://www.w3.org/1999/xlink" version="1.1" viewBox="-10 0 692 1000"><g transform="matrix(1 0 0 -1 0 800)"><path stroke="black" fill="none" d="M 412.8044 189.05672 l -42.972443 48.417694 l 296.6816 -211.48157 l -49.4162 21.01038 l 111.310425 -42.005 l 51.952454 -13.372758 l -227.04895 89.14301 l -37.44574 22.885056 l -53.043762 37.420403 l 0.0 0.0 l 6.1035156e-05 -3.0517578e-05 l 9.1552734e-05 -7.6293945e-05 l 842.1605 -69.19654 l 0.2874756 0.016067505 l 39.812744 20.885582 l 0.0 0.0 l 3.45813 -3.5450516 l 44.990845 -46.104687 l 7.8415527 -8.035736 l -25.72168 26.359524 l 0.5427246 -0.55612564 l -113.03088 -10.369045 l -48.95337 -21.735744 l -30.301514 -11.719667 l 373.67798 -45.716347 l 20.5708 0.0 l -64.586914 0.0 l 2.1278076 0.0 l 97.342285 0.0 l 0.033203125 0.0 l 21.059204 0.0 l 43.317993 0.0 l -1.6798096 0.0 l 73.52661 0.0 l 0.0 0.0 l -310.3274 25.208548 l -0.03503418 0.035824776 l -14.352295 14.70807 l 0.0 0.0 l 36.402954 -37.249763 l -8.116577 8.302708 l -609.6687 -1.8269558 l 54.617798 -5.746771 l 61.820435 -2.1826172 l 0.0 0.0 l 0.003479004 0.0002861023 l 0.60510254 0.04973793 l 44.28064 3.574604 l 47.28534 6.494234 l 46.00183 9.164126 l 39.836548 10.233997 l -840.41614 342.1735 l 33.420532 -54.282898 l -85.273865 171.25735 l 23.13684 -59.324677 l -54.270187 186.46008 l 12.853394 -64.366394 l -18.287994 199.48279 l -2.4055023 -67.37305 l 0.0 0.0 l 0.0 6.1035156e-05 l 0.0 6.1035156e-05 l 10.024048 136.11554 l 11.951157 62.44037 l 17.286041 62.24243 l 21.886093 58.918213 l 58.326385 111.04663 l -31.07254 -53.38379 l 69.371704 107.94458 l 40.7507 48.978394 l 0.0 0.0 l 0.0021972656 0.0018310547 l 0.32424927 0.28649902 l 47.07669 41.70923 l 213.15796 127.84436 l 55.70581 19.856567 l -112.51416 -45.31128 l -54.232666 -29.811401 l -50.637512 -33.075195 l 280.07806 124.78772 l 55.64032 10.391602 l 63.385315 6.994995 l 0.0 0.0 l 0.0 0.0 l 0.0 0.0 l 114.84381 -7.887451 l -56.54358 5.89563 l 113.6452 -16.093994 l 53.220703 -13.526611 l 53.386963 -17.829834 l 250.99731 -156.91016 l -50.156372 46.24597 l 0.0 0.0 l -0.036132812 0.024902344 l -44.178833 30.704834 l 229.86133 -256.57336 l 22.569214 -44.42755 l -91.36133 148.52155 l -6.091675 7.9658203 l -209.37463 177.33801 l -49.61206 25.103638 l 249.0747 -1117.5563 l 34.52014 44.659378 l 35.658447 54.05139 l 35.581055 66.784546 l -3.1761475 -6.890106 l 33.443848 527.13336 l 21.046265 -74.964905 l 10.3029785 -51.01129 l 9.327393 -78.01007 l 0.0 0.0 l -0.0073242188 -0.18029785 l -2.0257568 -53.635742 l -30.124634 -162.54956 l 19.444214 80.19891 l 1.2845459 6.520691 " /> </g> </svg>