<?xml version="1.0" standalone="no"?><!DOCTYPE svg PUBLIC "-//W3C//DTD SVG 1.1//EN" "http://www.w3.org/Graphics/SVG/1.1/DTD/svg11.dtd" ><svg xmlns="http://www.w3.org/2000/svg" xmlns:xlink="http://www.w3.org/1999/xlink" version="1.1" viewBox="-10 0 692 1000"><g transform="matrix(1 0 0 -1 0 800)"><path stroke="black" fill="none" d="M 410.29382 191.89923 l -31.702362 35.711533 l 259.18674 -193.59486 l -2.630188 1.1023712 l 135.97021 -46.33731 l 2.7825317 -0.7301717 l -243.98004 103.9041 l 0.0 0.0 l -60.62564 41.971153 l 0.0 0.0 l 0.018493652 -0.012802124 l 857.22253 -68.03262 l 0.0 0.0 l 23.622437 19.695778 l 51.576782 -51.51926 l 0.0 0.0 l -11.307373 11.596664 l -125.95044 -3.9943924 l -0.02355957 -0.00995636 l -67.12512 -28.543839 l 0.0 0.0 l 371.97693 -48.611954 l 0.0 0.0 l -26.979736 -1.9073486e-06 l 119.02942 -1.9073486e-06 l 0.0 0.0 l 84.09668 0.0 l 0.0 0.0 l -304.6671 29.560505 l 0.0 0.0 l -2.6820068 2.7488823 l 24.81018 -23.421349 l 0.0 0.0 l -574.09485 -3.7758675 l 4.4015503 -0.4906311 l 87.32593 -2.1521206 l 0.0 0.0 l 18.526917 1.4843178 l 69.50867 9.62983 l 63.922974 14.32341 l 1.770874 0.45182467 l -829.0934 341.37875 l 30.762146 -49.944702 l -83.183716 166.64667 l 21.291595 -54.57895 l -52.993576 181.45206 l 11.823914 -59.212463 l -18.479889 184.59326 l -1.9185028 -53.52826 l 0.0 0.0 l 0.00048828125 0.013427734 l 12.3984375 148.07458 l 8.766388 45.81958 l 18.735977 68.23639 l 0.3639679 0.9562378 l 19.775574 53.253967 l 53.27893 103.44415 l -22.787445 -39.143677 l 77.595795 116.73291 l 0.051483154 0.061767578 l 40.272125 45.264893 l 0.0 0.0 l 26.983643 23.865234 l 235.7284 141.53088 l 41.274414 14.704834 l -113.730225 -46.497925 l -60.762024 -34.40808 l -37.18329 -24.285767 l 316.0777 129.98608 l 3.8554077 0.71118164 l 75.78735 9.296753 l 0.0 0.0 l -0.00018310547 0.00012207031 l 111.48694 -7.5516357 l -51.999573 5.4223633 l 123.505554 -18.799194 l 39.266968 -9.975098 l 54.20813 -17.93396 l 216.44067 -124.72839 l -46.645874 36.26538 l 0.0 0.0 l 231.01624 -274.30823 l 0.0 0.0 l -77.57007 123.01538 l -228.80457 197.01501 l -36.206177 18.322754 l 269.69324 -1084.268 l 2.027588 2.57135 l 62.38086 97.746185 l 1.0385742 1.8139343 l 60.108032 497.9108 l 13.843506 -55.115295 l 0.0 0.0 l 11.067261 -117.481445 l 0.0 0.0 l -12.234375 -116.70801 l 0.0 0.0 " /> </g> </svg>