<?xml version="1.0" standalone="no"?><!DOCTYPE svg PUBLIC "-//W3C//DTD SVG 1.1//EN" "http://www.w3.org/Graphics/SVG/1.1/DTD/svg11.dtd" ><svg xmlns="http://www.w3.org/2000/svg" xmlns:xlink="http://www.w3.org/1999/xlink" version="1.1" viewBox="-10 0 692 1000"><g transform="matrix(1 0 0 -1 0 800)"><path stroke="black" fill="none" d="M 412.971 188.86812 l -43.720245 49.260788 l 299.1695 -212.6684 l -52.52307 22.3324 l 109.6767 -41.71862 l 55.21753 -14.212265 l -220.65039 84.94067 l -47.06537 28.76461 l -50.658813 35.96392 l 0.0 0.0 l 3.0517578e-05 0.0 l 0.0 -1.5258789e-05 l 841.1355 -69.25601 l 38.829956 23.315125 l 0.0 0.0 l 0.020019531 -0.0205307 l 10.069458 -10.319649 l 38.84546 -39.808125 l 10.852783 -11.121738 l -33.201782 34.024895 l 8.59082 -8.803745 l -114.48291 -8.425159 l -43.18811 -19.51844 l -38.34729 -14.831171 l 371.31775 -44.955254 l 26.743164 0.0 l -81.071655 0.0 l 21.338867 0.0 l 90.66809 0.0 l 0.2520752 0.0 l 26.644043 0.0 l 54.124023 0.0 l -21.198364 0.0 l 76.20752 0.0 l 2.9244385 0.0 l -310.64075 24.91966 l -15.483765 15.86752 l 0.770874 -0.78999805 l 38.27307 -39.205585 l -10.93335 11.19993 l -611.30304 -2.5432892 l 57.94983 -6.095537 l 61.012512 -2.111929 l 0.0 0.0 l 0.00018310547 1.5258789e-05 l 0.00091552734 7.8201294e-05 l 45.75287 3.6938457 l 45.810852 6.2861805 l 44.812622 8.821796 l 42.38452 10.888781 l -841.1896 342.22052 l 33.596893 -54.57077 l -85.41254 171.5633 l 23.259277 -59.639557 l -54.35489 186.79236 l 12.921692 -64.708374 l -18.275269 200.47076 l -2.4369812 -68.26947 l 0.0 0.0 l 0.0 0.0 l 0.0 0.0 l 9.865646 135.29907 l 12.16246 63.543213 l 17.18985 61.844727 l 22.001984 59.23059 l 58.661285 111.55109 l -31.622284 -54.328735 l 68.82602 107.36157 l 41.371338 49.743896 l 0.0 0.0 l 0.00012207031 0.00012207031 l 0.000579834 0.00048828125 l 48.16501 42.676758 l 211.66034 126.93628 l 56.66339 20.198364 l -112.43347 -45.232544 l -53.79944 -29.506348 l -51.530212 -33.658447 l 277.6894 124.44275 l 59.07666 11.034058 l 62.56134 6.8428955 l 0.0 0.0 l 0.0 0.0 l 0.0 0.0 l 115.06738 -7.9105225 l -56.845093 5.927124 l 112.990906 -15.914429 l 54.146606 -13.762329 l 53.33252 -17.822876 l 253.29016 -159.04553 l -52.22644 48.171997 l 0.0 0.0 l -0.0009765625 0.00061035156 l -0.04248047 0.029418945 l -47.23413 32.82849 l 228.28357 -249.98792 l 28.389282 -55.8985 l -74.27661 127.22235 l -31.482666 41.11792 l -201.95386 168.16125 l -50.501587 25.553589 l 247.70667 -1119.7651 l 36.676758 47.452866 l 33.884644 51.151276 l 47.92639 93.043304 l -18.119995 -39.233093 l 36.35437 539.0104 l 20.023682 -68.94397 l 12.917114 -63.97876 l 8.680176 -73.72534 l 0.0 0.0 l -0.00012207031 -0.0034179688 l -0.022705078 -0.560791 l -2.143921 -57.362488 l -32.263916 -167.7825 l 16.634155 62.599823 l 8.189697 41.967407 " /> </g> </svg>