<?xml version="1.0" standalone="no"?><!DOCTYPE svg PUBLIC "-//W3C//DTD SVG 1.1//EN" "http://www.w3.org/Graphics/SVG/1.1/DTD/svg11.dtd" ><svg xmlns="http://www.w3.org/2000/svg" xmlns:xlink="http://www.w3.org/1999/xlink" version="1.1" viewBox="-10 0 692 1000"><g transform="matrix(1 0 0 -1 0 800)"><path stroke="black" fill="none" d="M 413.0341 188.79669 l -44.022217 49.601227 l 300.1741 -213.14764 l -53.77765 22.866241 l 109.01703 -41.60298 l 56.53595 -14.551263 l -218.06659 83.24374 l -50.94983 31.13881 l -49.694885 35.375183 l 0.0 0.0 l 0.0 0.0 l 0.0 0.0 l 840.7207 -69.27941 l 39.02942 23.559273 l 0.0 0.0 l 0.0 -7.6293945e-06 l 0.0 -7.6293945e-06 l 12.05481 -12.353645 l 36.364014 -37.265537 l 12.0686035 -12.367878 l -36.22229 37.120216 l 12.011963 -12.309639 l -115.24048 -7.464752 l -40.859985 -18.623081 l -41.59619 -16.087614 l 370.3645 -44.64792 l 29.235718 0.0 l -87.72839 0.0 l 29.099854 0.0 l 87.969604 0.0 l 29.239624 0.0 l 58.48755 0.0 l -29.096436 0.0 l 59.04236 0.0 l 28.63733 0.0 l -317.03516 24.803005 l -23.98108 24.57556 l 11.813965 -12.106919 l 36.350952 -37.251755 l -12.070679 12.369846 l -611.96295 -2.8325481 l 59.295288 -6.23637 l 60.717407 -2.080822 l 0.0 0.0 l 0.0 0.0 l 0.0 0.0 l 46.07202 3.7193642 l 45.215393 6.2021656 l 44.332397 8.683562 l 43.413452 11.153185 l -841.50195 342.23953 l 33.66812 -54.68701 l -85.46854 171.68683 l 23.308716 -59.766724 l -54.3891 186.92657 l 12.94928 -64.8465 l -18.270126 200.86975 l -2.4496765 -68.63074 l 0.0 0.0 l 0.0 0.0 l 0.0 0.0 l 9.801651 134.96857 l 12.247803 63.988525 l 17.151001 61.684082 l 22.048767 59.35675 l 58.79654 111.75482 l -31.844269 -54.710205 l 68.60568 107.12598 l 41.642822 50.071533 l 0.0 0.0 l 0.0 0.0 l 0.0 0.0 l 48.45276 42.93347 l 211.05563 126.56958 l 57.05005 20.336304 l -112.40088 -45.200684 l -53.62451 -29.383179 l -51.890717 -33.894043 l 276.72482 124.30359 l 60.464233 11.293335 l 62.228638 6.781616 l 0.0 0.0 l 0.0 0.0 l 0.0 0.0 l 115.15765 -7.9198 l -56.966858 5.9396973 l 112.726746 -15.841919 l 54.520508 -13.857544 l 53.310425 -17.819946 l 254.21619 -159.90784 l -53.174683 49.027344 l 0.0 0.0 l 0.0 0.0 l 0.0 0.0 l -48.401978 33.640503 l 227.64648 -247.32861 l 30.73938 -60.53058 l -67.377686 118.62164 l -41.735718 54.505005 l -198.95728 164.45544 l -50.860718 25.735352 l 247.15405 -1120.657 l 37.54773 48.580917 l 33.168457 49.980194 l 52.911377 103.64673 l -24.154419 -52.293396 l 37.529663 543.8064 l 19.610718 -66.512695 l 13.9729 -69.21509 l 8.406982 -72.28491 l 0.0 0.0 l 0.0 0.0 l 0.0 0.0 l -2.2089844 -59.296814 l -33.127686 -169.89557 l 15.499268 55.493164 l 10.978149 56.281067 " /> </g> </svg>