<?xml version="1.0" standalone="no"?><!DOCTYPE svg PUBLIC "-//W3C//DTD SVG 1.1//EN" "http://www.w3.org/Graphics/SVG/1.1/DTD/svg11.dtd" ><svg xmlns="http://www.w3.org/2000/svg" xmlns:xlink="http://www.w3.org/1999/xlink" version="1.1" viewBox="-10 0 692 1000"><g transform="matrix(1 0 0 -1 0 800)"><path stroke="black" fill="none" d="M 413.0341 188.79669 l -44.003418 49.580032 l 300.1116 -213.11783 l -53.699585 22.833025 l 109.058044 -41.610176 l 56.45392 -14.5301695 l -218.22736 83.34933 l -50.70813 30.991081 l -49.754883 35.411827 l 0.0 0.0 l 0.0 0.0 l 0.0 0.0 l 840.74646 -69.27796 l 39.005127 23.556335 l 0.0 0.0 l 0.0 -4.5776367e-05 l 0.00012207031 -0.00012207031 l 11.944336 -12.240471 l 36.518433 -37.42374 l 11.99292 -12.29034 l -36.0343 36.927612 l 11.799072 -12.091488 l -115.19336 -7.5245132 l -41.004883 -18.678791 l -41.394043 -16.009436 l 370.42383 -44.667038 l 29.080688 0.0 l -87.31421 0.0 l 28.616943 0.0 l 88.13757 0.0 l 29.09375 0.0 l 58.216064 0.0 l -28.605103 0.0 l 60.110474 0.0 l 27.037354 0.0 l -316.6372 24.810265 l -23.45227 24.033714 l 11.123535 -11.399364 l 36.473755 -37.376705 l -11.999878 12.2970495 l -611.92194 -2.8145494 l 59.21161 -6.2276077 l 60.73523 -2.0828 l 0.0 0.0 l 0.0 0.0 l 0.0 0.0 l 46.052734 3.717825 l 45.25244 6.2073936 l 44.362305 8.692163 l 43.349365 11.136733 l -841.4824 342.23834 l 33.663696 -54.67978 l -85.46506 171.67914 l 23.305634 -59.75882 l -54.386963 186.91824 l 12.947571 -64.83789 l -18.270462 200.84491 l -2.448883 -68.60828 l 0.0 0.0 l 0.0 0.0 l 0.0 0.0 l 9.805634 134.98914 l 12.242493 63.960815 l 17.153412 61.69409 l 22.045883 59.348938 l 58.788116 111.742065 l -31.830475 -54.686523 l 68.619385 107.14075 l 41.62558 50.05078 l 0.0 0.0 l 0.0 0.0 l 3.0517578e-05 0.0 l 48.43521 42.917847 l 211.09326 126.59241 l 57.026 20.327759 l -112.40289 -45.20276 l -53.635437 -29.390747 l -51.868256 -33.879395 l 276.78488 124.312256 l 60.37787 11.277222 l 62.24933 6.7854004 l 0.0 0.0 l 0.0 0.0 l 0.0 0.0 l 115.15204 -7.9191895 l -56.95929 5.938965 l 112.743225 -15.846558 l 54.497192 -13.8515625 l 53.31189 -17.82019 l 254.15845 -159.85413 l -53.11377 48.97278 l 0.0 0.0 l 0.0 0.0 l 0.0 0.00012207031 l -48.333862 33.593018 l 227.68604 -247.49402 l 30.593262 -60.24237 l -67.80701 119.1568 l -41.09778 53.671997 l -199.14368 164.68604 l -50.83838 25.723999 l 247.18848 -1120.6014 l 37.49341 48.51071 l 33.213135 50.05307 l 52.601196 102.98694 l -23.77893 -51.480713 l 37.456543 543.50793 l 19.636353 -66.66394 l 13.907227 -68.88928 l 8.424194 -72.36969 l 0.0 0.0 l 0.0 0.0 l 0.0 0.0 l -2.206543 -59.21643 l -33.073975 -169.76407 l 15.569946 55.935394 l 10.804565 55.39038 " /> </g> </svg>