<?xml version="1.0" standalone="no"?><!DOCTYPE svg PUBLIC "-//W3C//DTD SVG 1.1//EN" "http://www.w3.org/Graphics/SVG/1.1/DTD/svg11.dtd" ><svg xmlns="http://www.w3.org/2000/svg" xmlns:xlink="http://www.w3.org/1999/xlink" version="1.1" viewBox="-10 0 692 1000"><g transform="matrix(1 0 0 -1 0 800)"><path stroke="black" fill="none" d="M 403.66394 199.40558 l -2.0219116 2.2493591 l 259.54016 -188.04836 l 0.0 0.0 l 119.15582 -40.459324 l 0.0 0.0 l -236.47943 102.4901 l -54.13275 37.101715 l 0.0 0.0 l 848.8688 -60.69552 l 0.0 0.0 l 59.695435 -16.354168 l 0.0 0.0 l -130.34204 -17.449303 l 0.0 0.0 l -47.187744 -19.844936 l 339.92017 -52.023403 l 0.0 0.0 l 150.75122 -2.861023e-05 l 0.0 0.0 l -276.69458 52.182045 l 0.0 0.0 l 53.36621 -47.409576 l -560.20166 -1.3175468 l 0.0 0.0 l 83.881775 0.5811081 l 0.0 0.0 l 101.078186 15.398543 l 31.820435 7.6869926 l 0.0 0.0 l -818.516 334.1603 l 23.741974 -38.488495 l -77.66412 154.47092 l 16.418701 -42.04666 l -49.622284 168.22717 l 9.105301 -45.602295 l -18.986618 145.27374 l -0.52005005 -13.952576 l 0.0 0.0 l 18.557983 176.68903 l 0.4330902 2.326355 l 22.487991 83.66681 l 0.041870117 0.11004639 l 15.485474 41.66742 l 39.94983 83.36774 l -1.1481018 -1.9521484 l 99.55316 140.35376 l 0.0 0.0 l 34.884125 31.141846 l 0.0 0.0 l 272.7037 158.19751 l 3.22052 1.1206055 l -116.99744 -49.65149 l -78.00433 -46.546997 l -1.9814453 -1.2890625 l 312.47943 125.67322 l 0.0 0.0 l 74.52991 8.878052 l 0.0 0.0 l 102.72577 -6.765381 l -39.999817 4.1724854 l 149.54431 -25.942871 l 2.6135254 -0.6459961 l 56.181396 -18.159424 l 176.61731 -91.44104 l 0.0 0.0 l 159.92188 -165.02563 l 0.0 0.0 l -262.68054 225.26367 l -1.645752 0.8404541 l 256.43616 -1083.6738 l 0.0 0.0 l 58.538696 88.17493 l 0.0 0.0 l 95.270386 391.9746 l 0.0 0.0 l -10.348633 -163.4997 l 0.0 0.0 " /> </g> </svg>