<?xml version="1.0" standalone="no"?><!DOCTYPE svg PUBLIC "-//W3C//DTD SVG 1.1//EN" "http://www.w3.org/Graphics/SVG/1.1/DTD/svg11.dtd" ><svg xmlns="http://www.w3.org/2000/svg" xmlns:xlink="http://www.w3.org/1999/xlink" version="1.1" viewBox="-10 0 692 1000"><g transform="matrix(1 0 0 -1 0 800)"><path stroke="black" fill="none" d="M 418.0 627.0 l 0.0 -62.700012 l 0.0 -62.69998 l 0.0 -62.700012 l 0.0 -62.69998 l 0.0 -62.700012 l -38.640137 -85.06302 l 0.0 0.0 l 375.94238 -228.65137 l 0.0 0.0 l -287.60605 138.2893 l 0.0 0.0 l 883.223 -77.82357 l 0.0 0.0 l -195.84094 -51.23589 l 0.0 0.0 l 533.18555 -36.99621 l 0.0 0.0 l -198.94153 15.470255 l 0.0 0.0 l -566.4344 -11.810596 l 0.0 0.0 l 150.01154 12.830237 l 0.0 0.0 l -678.1994 11.490842 l -23.300018 -2.5843292e-09 l -23.299988 0.0 l -23.300018 0.0 l -23.299988 0.0 l -23.299988 0.0 l -23.300003 0.0 l -23.300003 0.0 l -23.300003 0.0 l -23.300003 0.0 l 0.0 154.4 l 135.52661 150.01248 l 0.9972534 -1.4405212 l -60.042633 114.96634 l 0.66903687 -1.5914307 l -38.99945 125.40723 l 0.3335724 -1.6828613 l -17.062424 125.29706 l 0.0 0.0 l 17.255936 163.24768 l 0.0 0.0 l 28.88649 108.49695 l 0.0 0.0 l 0.5938568 1.5518799 l 54.643234 117.15491 l 0.0 0.0 l 105.00479 142.13367 l 0.0 0.0 l -227.80627 37.246582 l 0.0 154.40002 l 0.0 154.3999 l 26.40001 0.0 l 26.399994 0.0 l 26.40001 0.0 l 26.399994 0.0 l 26.399994 0.0 l 26.399994 0.0 l 26.400024 0.0 l 26.399994 0.0 l 26.399994 0.0 l 26.399994 0.0 l 0.0 0.0 l 37.850006 -0.26989746 l 35.94998 -0.8100586 l 34.049988 -1.3499756 l 32.150024 -1.8900146 l 30.25 -2.4300537 l 137.862 -142.57263 l 0.0 0.0 l -193.98474 -84.50757 l -42.461853 -26.573853 l 0.0 0.0 l 177.93457 243.12415 l 22.650024 -4.590088 l 0.0 0.0 l 19.76001 -5.880005 l 19.279968 -6.839966 l 18.800049 -7.7999268 l 18.320007 -8.76001 l 17.839966 -9.720093 l 17.359985 -10.679932 l 8.322998 -59.92871 l 24.957031 35.68872 l 34.697937 -31.734497 l -0.13995361 0.13549805 l 74.09271 -5.319214 l -1.6276855 0.17407227 l 161.48407 -30.94812 l 0.0 0.0 l 19.949463 -7.3771973 l -204.70654 -22.610596 l 17.289978 -30.76001 l 14.630005 -32.119995 l 538.9163 -207.05371 l 0.0 0.0 l -266.75977 251.80786 l 0.0 0.0 l -250.87653 -113.0741 l 6.6499634 -36.200073 l 3.9899902 -37.559937 l 0.0 0.0 l 547.0681 -803.219 l 0.0 0.0 l 83.37134 222.78061 l 0.0 0.0 l -636.11945 499.1584 l -7.0999756 -38.0 l -9.940002 -36.23999 l -12.780029 -34.47998 l -15.619995 -32.72003 l -18.45996 -30.95996 l -21.299988 -29.200012 l -24.140015 -27.440002 l 0.0 0.0 l -29.390015 -23.559998 l -31.369995 -21.080017 l -33.349976 -18.599976 l -35.330017 -16.119995 l -37.309998 -13.640015 l -39.29004 -11.160034 l -41.26996 -8.679993 l -43.25 -6.200012 l -45.23004 -3.7199707 l -10.799988 0.0 l -10.799988 0.0 l -10.799988 0.0 l -10.799988 0.0 l -10.800018 0.0 l -10.800018 0.0 l -10.799988 0.0 l -10.799988 0.0 l -10.800018 0.0 l -10.799988 0.0 " /> </g> </svg>