<?xml version="1.0" standalone="no"?><!DOCTYPE svg PUBLIC "-//W3C//DTD SVG 1.1//EN" "http://www.w3.org/Graphics/SVG/1.1/DTD/svg11.dtd" ><svg xmlns="http://www.w3.org/2000/svg" xmlns:xlink="http://www.w3.org/1999/xlink" version="1.1" viewBox="-10 0 692 1000"><g transform="matrix(1 0 0 -1 0 800)"><path stroke="black" fill="none" d="M 413.0198 188.81288 l -43.93927 49.50772 l 299.8982 -213.01602 l -53.433105 22.719612 l 109.19824 -41.634743 l 56.17383 -14.458151 l -218.7763 83.70982 l -49.882874 30.486694 l -49.959686 35.536926 l 0.0 0.0 l 0.0 0.0 l 0.0 0.0 l 840.8347 -69.27302 l 38.933838 23.534065 l 0.0 0.0 l 0.00048828125 -0.0005874634 l 0.017578125 -0.017990112 l 11.53772 -11.823906 l 37.045532 -37.9639 l 11.734741 -12.025604 l -35.3927 36.27003 l 11.072266 -11.34668 l -115.03235 -7.728546 l -41.49951 -18.869007 l -40.703857 -15.74251 l 370.62634 -44.73233 l 28.551147 0.0 l -85.900024 0.0 l 26.968262 0.0 l 88.71069 0.0 l 28.595947 0.0 l 57.289062 0.0 l -26.927124 0.0 l 63.75708 0.0 l 21.57483 0.0 l -315.2788 24.835047 l -21.647095 22.183737 l 8.766235 -8.983614 l 36.893433 -37.803314 l -11.758301 12.048508 l -611.78174 -2.7530975 l 58.92578 -6.197689 l 60.79663 -2.0895119 l 0.0 0.0 l 6.1035156e-05 1.9073486e-06 l 0.0 1.9073486e-06 l 45.98639 3.7125225 l 45.378906 6.2252426 l 44.464355 8.721531 l 43.13086 11.080562 l -841.4162 342.23428 l 33.64859 -54.65506 l -85.45317 171.6529 l 23.29515 -59.73181 l -54.379715 186.88971 l 12.941711 -64.80853 l -18.27156 200.76013 l -2.4461823 -68.531555 l 0.0 0.0 l 0.0 0.0 l 0.0 0.0 l 9.819229 135.05939 l 12.224365 63.86621 l 17.161667 61.72827 l 22.035934 59.322083 l 58.75937 111.69879 l -31.783295 -54.60547 l 68.6662 107.190796 l 41.567078 49.98047 l 0.0 0.0 l 0.0 0.0 l 3.0517578e-05 0.0 l 48.37506 42.864136 l 211.22174 126.67029 l 56.943848 20.298462 l -112.40985 -45.209473 l -53.672546 -29.416992 l -51.791687 -33.829224 l 276.98975 124.341675 l 60.08313 11.222168 l 62.320007 6.798462 l 0.0 0.0 l 0.0 0.0 l 0.0 0.0 l 115.13287 -7.9172363 l -56.93341 5.9362793 l 112.79938 -15.861938 l 54.417725 -13.831299 l 53.31653 -17.8208 l 253.96179 -159.67102 l -52.907837 48.787964 l 0.0 0.0 l 0.0 0.00012207031 l -0.00024414062 0.00012207031 l -48.099243 33.42993 l 227.82141 -248.05896 l 30.093994 -59.25836 l -69.272705 120.98407 l -38.919556 50.82788 l -199.78027 165.47339 l -50.762085 25.685425 l 247.30591 -1120.4121 l 37.30835 48.271072 l 33.365234 50.30185 l 51.542236 100.734314 l -22.496948 -48.706146 l 37.206787 542.4891 l 19.724121 -67.18048 l 13.682861 -67.776794 l 8.482788 -72.66394 l 0.0 0.0 l -0.00012207031 -0.00018310547 l 0.0 -0.0009765625 l -2.197998 -58.935974 l -32.890503 -169.31516 l 15.811035 57.44516 l 10.21228 52.349487 " /> </g> </svg>