<?xml version="1.0" standalone="no"?><!DOCTYPE svg PUBLIC "-//W3C//DTD SVG 1.1//EN" "http://www.w3.org/Graphics/SVG/1.1/DTD/svg11.dtd" ><svg xmlns="http://www.w3.org/2000/svg" xmlns:xlink="http://www.w3.org/1999/xlink" version="1.1" viewBox="-10 0 692 1000"><g transform="matrix(1 0 0 -1 0 800)"><path stroke="black" fill="none" d="M 418.0 627.0 l 0.0 -62.700012 l 0.0 -62.69998 l 0.0 -62.700012 l 0.0 -62.69998 l 0.0 -62.700012 l -34.641144 -71.46814 l 74.79422 -96.29123 l 0.0 0.0 l 646.6809 -149.36415 l 0.0 0.0 l 307.84705 41.21993 l 0.0 0.0 l -557.826 -55.4625 l 0.0 0.0 l -460.15503 17.866081 l -23.300018 -2.5843292e-09 l -23.299988 0.0 l -23.300018 0.0 l -23.299988 0.0 l -23.299988 0.0 l -23.300003 0.0 l -23.300003 0.0 l -23.300003 0.0 l -23.300003 0.0 l 0.0 154.4 l 125.73395 149.04227 l 0.0 0.0 l -54.681885 116.61633 l 0.0 0.0 l -34.10495 128.97827 l 0.0 0.0 l 1.1392365 283.44873 l 0.0 0.0 l 56.430862 171.07776 l 0.0 0.0 l 132.72684 194.0409 l 0.0 0.0 l -227.24405 37.595703 l 0.0 154.40002 l 0.0 154.3999 l 26.40001 0.0 l 26.399994 0.0 l 26.40001 0.0 l 26.399994 0.0 l 26.399994 0.0 l 26.399994 0.0 l 26.400024 0.0 l 26.399994 0.0 l 26.399994 0.0 l 26.399994 0.0 l 0.0 0.0 l 37.850006 -0.26989746 l 35.94998 -0.8100586 l 34.049988 -1.3499756 l 32.150024 -1.8900146 l 30.25 -2.4300537 l 28.349976 -2.9699707 l -121.11688 -247.95996 l 0.0 0.0 l 172.11688 240.40002 l 22.650024 -4.590088 l 0.0 0.0 l 19.76001 -5.880005 l 19.279968 -6.839966 l 18.800049 -7.7999268 l 18.320007 -8.76001 l 17.839966 -9.720093 l 17.359985 -10.679932 l 10.261475 -48.98938 l 23.018555 24.74939 l 15.919983 -13.560059 l 0.0 0.0 l 85.57184 -22.970337 l 0.0 0.0 l 163.1637 -31.51892 l 0.0 0.0 l -180.90552 -29.630737 l 17.289978 -30.76001 l 14.630005 -32.119995 l 433.36017 -81.78345 l 0.0 0.0 l -412.08014 13.463501 l 6.6499634 -36.200073 l 3.9899902 -37.559937 l 0.0 0.0 l 583.55273 -683.2815 l 0.0 0.0 l -589.2327 602.00146 l -7.0999756 -38.0 l -9.940002 -36.23999 l -12.780029 -34.47998 l -15.619995 -32.72003 l -18.45996 -30.95996 l -21.299988 -29.200012 l -24.140015 -27.440002 l 0.0 0.0 l -29.390015 -23.559998 l -31.369995 -21.080017 l -33.349976 -18.599976 l -35.330017 -16.119995 l -37.309998 -13.640015 l -39.29004 -11.160034 l -41.26996 -8.679993 l -43.25 -6.200012 l -45.23004 -3.7199707 l -10.799988 0.0 l -10.799988 0.0 l -10.799988 0.0 l -10.799988 0.0 l -10.800018 0.0 l -10.800018 0.0 l -10.799988 0.0 l -10.799988 0.0 l -10.800018 0.0 l -10.799988 0.0 " /> </g> </svg>