<?xml version="1.0" standalone="no"?><!DOCTYPE svg PUBLIC "-//W3C//DTD SVG 1.1//EN" "http://www.w3.org/Graphics/SVG/1.1/DTD/svg11.dtd" ><svg xmlns="http://www.w3.org/2000/svg" xmlns:xlink="http://www.w3.org/1999/xlink" version="1.1" viewBox="-10 0 692 1000"><g transform="matrix(1 0 0 -1 0 800)"><path stroke="black" fill="none" d="M 1756.0 -28.0 l -29.300049 0.0 l -29.299927 0.0 l -29.300049 0.0 l -29.299927 0.0 l -29.300049 0.0 l -29.300049 0.0 l -29.299927 0.0 l -29.300049 0.0 l -29.299927 0.0 l -29.300049 0.0 l -12.099976 12.4 l -12.099976 12.4 l -12.100098 12.4 l -12.099976 12.4 l -12.099976 12.400002 l -12.099976 12.399998 l -12.099976 12.399998 l -12.100098 12.400002 l -12.099976 12.400002 l -12.099976 12.400002 l 0.0 0.0 l -39.04004 -23.560005 l -39.91992 -21.079998 l -40.80005 -18.600002 l -56.85913 -31.332537 l 0.0 0.0 l -27.239502 45.978825 l -19.366821 -47.611343 l 0.0 0.0 l -41.719482 132.69853 l 0.0 0.0 l -76.5553 -133.0724 l 0.0 0.0 l -62.569946 -1.7167342 l 0.0 0.0 l 0.4017334 -0.115139484 l -173.01312 228.47014 l 0.0 0.0 l 73.60156 -244.49933 l 2.3328247 88.6177 l 0.0 0.0 l -116.85278 -63.6577 l -55.190002 18.72 l -53.809998 22.880001 l -52.430054 27.04 l -136.9129 36.431664 l 0.0 0.0 l -90.93625 -110.552895 l 0.0 0.0 l -91.56116 -1.0359932 l 0.0 0.0 l 8.23172 164.46979 l 162.00595 42.40294 l 0.0 0.0 l -21.525085 101.670334 l -174.61755 10.927155 l 351.0085 64.145386 l 0.0 0.0 l -366.18042 79.300415 l 24.07721 61.631195 l -33.18033 84.790405 l 621.6391 -101.51044 l 0.0 0.0 l -362.67316 120.3363 l 0.0 0.0 l 375.5957 168.14929 l 0.0 0.0 l -633.9671 -18.530945 l 33.915756 77.96539 l -25.304688 68.022705 l 64.50467 53.017273 l 26.950012 57.039978 l -67.77426 49.23987 l 136.37427 57.880127 l -113.41144 81.31299 l 0.15496826 -0.03125 l 22.364227 319.0249 l 0.0 0.0 l 231.18225 -268.86658 l 51.899994 33.900024 l 53.619995 29.380005 l -40.7959 202.53406 l 0.0 0.0 l 153.19592 -157.3341 l 101.67639 95.85278 l 0.0 0.0 l 66.069336 -48.231445 l 0.0 0.0 l 37.59259 -34.991333 l 0.0 0.0 l 29.424683 -42.67798 l 0.0 0.0 l 10.357483 -416.17883 l 0.0 0.0 l 48.106384 221.5581 l 0.0 0.0 l 59.183105 240.74866 l 54.53003 -13.859985 l 53.309937 -17.819946 l 52.090088 -21.78003 l 50.869995 -25.73999 l 49.649902 -29.699951 l 48.430054 -33.660034 l 0.0 0.0 l 53.19995 -49.05005 l 47.600098 -51.94995 l 42.0 -54.849976 l 36.399902 -57.75 l 30.800049 -60.650024 l 25.199951 -63.549988 l 19.600098 -66.45001 l 14.0 -69.35004 l 8.399902 -72.25 l 0.0 0.0 l -2.209961 -59.329956 l -6.630005 -57.99005 l -11.049927 -56.649963 l -15.470093 -55.309998 l -19.890015 -53.97 l -24.309937 -52.630005 l -28.72998 -51.29001 l -33.150024 -49.950012 l -37.57007 -48.609985 " /> </g> </svg>