<?xml version="1.0" standalone="no"?><!DOCTYPE svg PUBLIC "-//W3C//DTD SVG 1.1//EN" "http://www.w3.org/Graphics/SVG/1.1/DTD/svg11.dtd" ><svg xmlns="http://www.w3.org/2000/svg" xmlns:xlink="http://www.w3.org/1999/xlink" version="1.1" viewBox="-10 0 692 1000"><g transform="matrix(1 0 0 -1 0 800)"><path stroke="black" fill="none" d="M 1756.0 -28.0 l -29.300049 0.0 l -29.299927 0.0 l -29.300049 0.0 l -29.299927 0.0 l -29.300049 0.0 l -29.300049 0.0 l -29.299927 0.0 l -29.300049 0.0 l -29.299927 0.0 l -29.300049 0.0 l -12.099976 12.4 l -12.099976 12.4 l -12.100098 12.4 l -12.099976 12.4 l -12.099976 12.400002 l -12.099976 12.399998 l -12.099976 12.399998 l -12.100098 12.400002 l -12.099976 12.400002 l -12.099976 12.400002 l 0.0 0.0 l -39.04004 -23.560005 l -39.91992 -21.079998 l -40.80005 -18.600002 l -57.791016 -32.630672 l -0.37561035 -0.006528318 l -59.6781 110.62688 l 0.0 0.0 l 3.3707275 -110.76225 l 11.620361 0.0073866993 l 0.0 0.0 l -86.31653 208.4664 l 2.6072998 -3.0350952 l -1.7685547 -205.4758 l 0.0 0.0 l -0.390625 -0.0021566153 l -109.700806 -0.164259 l 0.51293945 0.018556714 l 50.786743 0.077789575 l -277.40454 294.13428 l 0.0 0.0 l 50.570984 -74.25789 l 90.63672 -238.19664 l 5.8154297 97.53442 l 1.696167 -2.2210617 l -122.031555 -70.353355 l -55.190002 18.72 l -53.809998 22.880001 l -52.430054 27.04 l -144.19095 35.055656 l -0.08578491 1.8371811 l -28.502502 -112.02131 l 0.0 0.0 l -79.064575 -0.029593324 l 0.0 0.0 l -106.97673 -0.0019175045 l 0.0 0.0 l 53.25215 -2.1479522e-05 l 0.0 0.0 l -52.83882 157.35017 l 213.03352 48.566406 l 0.042114258 -1.7571716 l -0.28485107 164.00989 l 0.0 0.0 l -222.7892 -56.243256 l 383.41608 140.6735 l 42.235535 -52.541046 l 0.0 0.0 l -430.09534 63.059143 l 36.439407 61.432373 l -39.10565 90.6308 l 738.3237 -257.21194 l 0.0 0.0 l -54.730713 75.48877 l -391.6394 123.84354 l 0.0 0.0 l -31.93512 74.69818 l 0.0 0.0 l 286.1772 5.362793 l 0.0 0.0 l 102.16943 164.39075 l 0.0 0.0 l -648.1909 -28.058655 l 40.261505 82.055786 l -37.73938 69.88043 l 76.93936 51.159546 l 26.950012 57.039978 l -96.95354 47.634766 l 165.55354 59.48523 l -172.13005 202.31738 l 0.0 0.0 l 21.465118 -113.49695 l 18.835556 314.22278 l 0.0 0.0 l 92.382355 -0.013549805 l 0.0 0.0 l 179.73703 -271.5896 l 51.899994 33.900024 l 53.619995 29.380005 l -218.56555 208.1842 l 0.0 0.0 l 71.01593 0.05908203 l 0.0 0.0 l 133.50134 -10.524658 l 0.0 0.0 l 145.63202 -24.423828 l 0.0 0.0 l 83.055115 -31.736938 l 0.0 0.0 l 64.568726 -41.960205 l 0.0 0.0 l 4.069153 -3.7054443 l 38.555725 -42.167236 l -0.43463135 0.58447266 l 40.03473 -60.944336 l -0.35784912 0.80578613 l -3.7063599 -395.71326 l 0.0 0.0 l 41.795715 112.59839 l 0.0 0.0 l 11.154419 83.49463 l 0.0 0.0 l -16.769775 116.76709 l 0.0 0.0 l 71.26129 149.96216 l 54.53003 -13.859985 l 53.309937 -17.819946 l 52.090088 -21.78003 l 50.869995 -25.73999 l 49.649902 -29.699951 l 48.430054 -33.660034 l 0.0 0.0 l 53.19995 -49.05005 l 47.600098 -51.94995 l 42.0 -54.849976 l 36.399902 -57.75 l 30.800049 -60.650024 l 25.199951 -63.549988 l 19.600098 -66.45001 l 14.0 -69.35004 l 8.399902 -72.25 l 0.0 0.0 l -2.209961 -59.329956 l -6.630005 -57.99005 l -11.049927 -56.649963 l -15.470093 -55.309998 l -19.890015 -53.97 l -24.309937 -52.630005 l -28.72998 -51.29001 l -33.150024 -49.950012 l -37.57007 -48.609985 " /> </g> </svg>