<?xml version="1.0" standalone="no"?><!DOCTYPE svg PUBLIC "-//W3C//DTD SVG 1.1//EN" "http://www.w3.org/Graphics/SVG/1.1/DTD/svg11.dtd" ><svg xmlns="http://www.w3.org/2000/svg" xmlns:xlink="http://www.w3.org/1999/xlink" version="1.1" viewBox="-10 0 692 1000"><g transform="matrix(1 0 0 -1 0 800)"><path stroke="black" fill="none" d="M 1185.8414 0.0009214077 l -48.60559 -0.0030619935 l -1.2108154 -2.7879636e-05 l -31.74353 112.85277 l -12.547241 17.425789 l -13.126099 -130.27875 l 19.849121 6.041737e-06 l 39.09485 60.15515 l -141.40765 201.66953 l 46.662903 -64.22067 l 0.64990234 -197.60474 l -27.608948 -0.00053911307 l -113.89209 -0.004127293 l 27.607483 0.0020688074 l 35.015076 0.0030684278 l 19.790405 5.7455036e-05 l -303.05377 315.44785 l 52.663086 -75.53664 l 32.159607 -46.08876 l 47.84723 -68.61082 l 43.026123 -61.65541 l -438.60898 0.8253555 l -0.00289917 61.605644 l -5.295227 -125.98695 l -15.985291 -6.269136e-06 l -30.348694 -6.7557266e-09 l -15.381653 -5.6673416e-06 l -27.692108 1.537559e-06 l -20.75238 -6.286018e-06 l -74.7225 -8.9349705e-06 l -0.28993225 1.9317667e-09 l -14.668854 1.34677975e-08 l -26.893173 5.1739335e-08 l 90.68329 7.1970135e-08 l -20.848557 -6.002483e-08 l -70.33002 154.47412 l 232.4983 97.14787 l 0.0014953613 -61.59694 l 0.007904053 238.95746 l 0.00021362305 -46.132996 l -0.0042419434 -64.22183 l -232.75491 -9.7491455 l 363.70798 195.38977 l 46.055115 -65.76315 l 40.49237 -58.02652 l -450.36713 82.71927 l -0.06700134 154.34131 l 717.05566 -226.7572 l 43.875183 -60.39685 l -132.67273 182.63464 l 34.97882 -48.150665 l -429.84674 42.234955 l 0.06460571 0.21511841 l 0.045410156 57.92093 l 26.9646 66.75989 l 0.0 0.0 l 7.1350403 0.0 l 0.0 0.0 l -26.331696 0.0 l 0.0 0.0 l -5.449829 0.0 l 0.0 0.0 l 81.98392 -61.61206 l -0.22155762 0.28466797 l 311.86005 217.47388 l 17.453125 9.790894 l -83.45044 -38.29773 l 24.488281 9.2786255 l 0.0 0.0 l -47.8089 -133.06085 l -6.209961 8.008606 l 209.4765 234.62885 l 14.90271 17.470825 l 0.0 0.0 l -0.003112793 -0.0036010742 l -59.42395 -60.78766 l 0.0 0.0 l 8.667786 8.057739 l -707.5284 -71.1897 l 0.06336975 154.33807 l 0.17427063 154.4361 l -0.16523743 307.61902 l 0.53933716 -153.3722 l 20.88118 308.9364 l -17.705215 0.0 l 72.000244 0.0 l -19.039001 0.0 l 58.52719 0.0 l 19.14505 0.0 l 28.078827 -0.00012207031 l 54.111633 -0.0009765625 l -24.397858 0.00036621094 l 59.75531 -0.0010986328 l 20.829224 0.0017089844 l 0.0 0.0 l -0.003479004 0.0 l 57.64795 -1.1208496 l 107.49762 -8.900635 l -48.20575 5.263916 l 103.88599 -14.357788 l 42.088684 -9.48645 l 45.896973 -13.845337 l 35.79706 -13.681519 l 37.177856 -17.995972 l 0.08062744 -0.049926758 l 31.251282 -18.904053 l 0.0 0.0 l 28.422913 -26.31189 l 47.762817 -57.368286 l -21.841797 28.832031 l 61.147156 -101.104614 l 9.574158 -24.549194 l -28.81836 64.64563 l -4.638855 -408.18628 l 9.972168 18.312195 l 12.517151 27.19983 l 11.731018 31.696106 l 9.164917 32.470947 l 4.5771484 20.572754 l 5.9088745 40.166748 l 2.0089111 22.356201 l 1.1307983 34.34375 l 0.0 0.0 l 0.0 -0.00048828125 l -0.0004272461 -0.006958008 l -4.7839355 40.94519 l -0.24194336 1.1542969 l -6.5739136 33.269165 " /> </g> </svg>