<?xml version="1.0" standalone="no"?><!DOCTYPE svg PUBLIC "-//W3C//DTD SVG 1.1//EN" "http://www.w3.org/Graphics/SVG/1.1/DTD/svg11.dtd" ><svg xmlns="http://www.w3.org/2000/svg" xmlns:xlink="http://www.w3.org/1999/xlink" version="1.1" viewBox="-10 0 692 1000"><g transform="matrix(1 0 0 -1 0 800)"><path stroke="black" fill="none" d="M 1185.4585 0.0032195589 l -46.419067 -0.0092393905 l 0.0 0.0 l -33.833496 112.851074 l -10.250488 14.235901 l -0.39367676 -127.088936 l 0.8991699 1.2520264e-05 l 40.5271 46.52727 l -0.18322754 -0.98540115 l -136.41443 212.9624 l 43.91748 -60.407776 l 0.04626465 -198.09901 l -1.335083 -0.002384293 l -24.12268 0.00054364605 l -113.63159 -0.014091457 l 25.45282 0.007063348 l 50.743835 0.010476269 l 0.86169434 0.00011180411 l -298.03918 314.11484 l 0.2084961 -0.2662964 l 73.12775 -105.05356 l 3.3329468 -4.7786407 l 56.89386 -81.67363 l 40.433594 -57.926453 l -437.90637 2.8179321 l -0.009918213 57.756546 l -18.079071 -124.98977 l -0.7335205 -1.1658369e-05 l -44.958282 -9.768875e-06 l -0.46600342 -4.65248e-06 l -34.094666 -9.447474e-06 l -14.601807 -2.1461812e-05 l -80.87845 -3.045955e-05 l 0.0 0.0 l -0.30804443 6.2318577e-09 l -35.567795 1.7664934e-07 l 84.60744 2.4572364e-07 l -14.930267 -2.0494008e-07 l -71.36821 154.65308 l 231.28712 94.12497 l 0.005126953 -57.726837 l 0.027038574 205.5386 l 0.0006713867 -4.9299927 l -0.01449585 -66.688385 l -232.1632 -15.903259 l 364.93427 191.9851 l 50.77527 -71.95108 l 31.782776 -45.536713 l -447.87354 79.62744 l -0.22872925 154.19955 l 723.94977 -236.31076 l 34.39978 -47.3526 l -106.77466 146.98785 l 4.0255737 -5.5412292 l -421.26837 35.55957 l 0.0069885254 0.023284912 l 0.36868286 45.8873 l 30.227905 75.354126 l 0.0 0.0 l -28.977173 0.0 l 0.0 0.0 l 78.71057 -57.77832 l -0.019165039 0.024597168 l 327.781 221.27942 l 0.6530762 0.36535645 l -56.58307 -29.846863 l 0.0 0.0 l -50.98639 -114.28052 l 0.0 0.0 l 218.32666 239.17645 l 3.1688843 3.7019653 l 0.0 0.0 l -57.40332 -58.720642 l 0.0 0.0 l -699.5918 -63.776184 l 0.21635437 154.1886 l 0.5950012 154.52307 l -0.5641632 304.7682 l 0.10708618 -0.9003906 l 1.7343292 -149.9906 l 5.3847656 309.26575 l -0.3794403 0.0 l 53.938187 0.0 l -0.9141083 0.0 l 69.827255 0.0 l 0.9945984 0.0 l 28.421661 -0.00048828125 l 52.932648 -0.0034179688 l -17.391449 0.0014648438 l 72.201324 -0.0036621094 l 4.090973 0.0043945312 l 0.0 0.0 l 54.28119 -1.0493164 l 104.353455 -8.1779785 l -37.355835 4.090454 l 108.43915 -15.704102 l 32.887512 -7.4018555 l 54.098083 -16.73108 l 27.822998 -10.619141 l 40.745667 -19.79712 l 0.013122559 -0.008056641 l 27.985352 -16.918457 l 29.233093 -26.639526 l 47.190125 -56.422607 l -20.252808 26.73706 l 67.538025 -118.20862 l 0.4675293 -1.1903076 l -26.336792 58.467285 l 2.6548462 -393.52283 l 0.5567627 1.0075073 l 12.684509 27.102844 l 15.089111 41.246826 l 10.866882 41.671387 l 0.19372559 0.8643799 l 8.375366 61.46753 l 0.124816895 1.3111572 l 1.5022583 38.073486 l 0.0 0.0 l -0.0007324219 -0.013671875 l -5.454956 44.596436 l -0.034362793 0.16418457 l -5.130005 25.866089 " /> </g> </svg>