<?xml version="1.0" standalone="no"?><!DOCTYPE svg PUBLIC "-//W3C//DTD SVG 1.1//EN" "http://www.w3.org/Graphics/SVG/1.1/DTD/svg11.dtd" ><svg xmlns="http://www.w3.org/2000/svg" xmlns:xlink="http://www.w3.org/1999/xlink" version="1.1" viewBox="-10 0 692 1000"><g transform="matrix(1 0 0 -1 0 800)"><path stroke="black" fill="none" d="M 1185.9988 -2.351206e-05 l -28.543335 -6.6001066e-06 l -28.440063 -6.7650035e-08 l -38.61328 131.59715 l -18.388672 -131.59715 l 28.481323 1.3023964e-08 l 37.703003 65.787834 l -143.39569 197.40921 l 47.797546 -65.7966 l 0.89941406 -197.40045 l -28.498047 -1.1620541e-06 l -113.999756 -8.896353e-06 l 28.498108 4.4593e-06 l 28.514038 6.6139764e-06 l 28.481201 1.2384407e-07 l -305.99365 315.9988 l 44.11847 -63.226593 l 44.07428 -63.163116 l 44.108032 -63.211662 l 44.097717 -63.19667 l -438.89938 0.0017814636 l 0.0 63.19656 l -0.011413574 -126.39911 l -23.28421 -1.3513272e-08 l -23.315186 -1.4551915e-11 l -23.282959 -1.2216333e-08 l -23.309448 3.3141987e-09 l -23.294525 -1.3547833e-08 l -69.91037 -1.925946e-08 l -23.282028 3.274181e-11 l -23.307755 1.10958354e-10 l 93.19458 1.5643309e-10 l -23.294724 -1.3096724e-10 l -69.900925 154.40016 l 232.9989 98.39731 l 0.0 -63.19655 l 3.0517578e-05 252.77014 l 0.0 -63.163177 l 0.0 -63.20221 l -232.99947 -7.2055054 l 363.20105 196.79697 l 44.104187 -63.205536 l 44.092285 -63.188843 l -451.39777 83.99722 l -0.0001373291 154.3999 l 714.2062 -222.80853 l 47.791504 -65.78833 l -143.37689 197.36823 l 47.7724 -65.762024 l -433.39233 44.99402 l 0.00024414062 63.189087 l 29.354828 63.207703 l -4.13385 0.0 l 16.731049 0.0 l -4.2304077 0.0 l -4.068268 0.0 l -12.73645 0.0 l -3.9223633 0.0 l -8.323303 0.0 l 3.7421875 0.0 l -8.230225 0.0 l -4.1722717 0.0 l 86.085205 -63.196594 l 304.97437 216.29309 l 49.178528 29.9234 l -23.654297 -15.590332 l -108.88666 -46.87433 l 29.094055 9.190674 l 27.608276 10.7751465 l -26.677612 -180.22693 l -47.71039 65.675415 l 216.04584 215.38147 l 19.390564 22.738892 l 0.0 0.0 l 0.0 0.0 l 0.0 0.0 l -61.795105 -63.14514 l 21.771667 19.325623 l -718.4364 -80.270386 l 0.0001373291 154.39984 l 0.00038146973 154.40009 l -0.00035095215 308.79736 l 0.001159668 -154.39758 l 27.286163 308.80017 l -27.279327 0.0 l 81.87868 0.0 l -27.282196 0.0 l 54.60846 0.0 l 27.28241 0.0 l 27.301697 0.0 l 54.598938 0.0 l -27.293762 0.0 l 54.611145 0.0 l 27.286316 0.0 l 0.0 0.0 l 0.0 0.0 l 0.0 0.0 l 59.495728 -1.1499023 l 108.79718 -9.199341 l -52.690308 5.7489014 l 102.00409 -13.80127 l 45.891785 -10.348022 l 42.507263 -12.652588 l 39.092957 -14.947266 l 35.703125 -17.251587 l 32.298218 -19.54895 l 0.0 0.0 l 0.0 0.0 l 0.0 0.0 l 28.499573 -26.419556 l 47.99951 -57.759155 l -22.498596 29.69812 l 58.505676 -94.03528 l 13.491577 -34.59839 l -29.997498 67.59375 l -7.6535034 -414.24695 l 14.091064 25.883667 l 12.220703 26.820862 l 10.343018 27.748474 l 8.461487 28.668213 l 6.5756836 29.560547 l 4.7026367 30.520874 l 2.8182373 31.400513 l 0.9404297 32.34436 l 0.0 0.0 l 0.0 0.0 l 0.0 0.0 l -4.5006104 39.54297 l -7.498535 37.89258 " /> </g> </svg>