<?xml version="1.0" standalone="no"?><!DOCTYPE svg PUBLIC "-//W3C//DTD SVG 1.1//EN" "http://www.w3.org/Graphics/SVG/1.1/DTD/svg11.dtd" ><svg xmlns="http://www.w3.org/2000/svg" xmlns:xlink="http://www.w3.org/1999/xlink" version="1.1" viewBox="-10 0 692 1000"><g transform="matrix(1 0 0 -1 0 800)"><path stroke="black" fill="none" d="M 1185.996 -6.5992463e-06 l -29.005249 -7.693647e-05 l -27.802246 -7.885974e-07 l -38.755005 131.5668 l -18.267578 -131.5668 l 28.282715 1.5180558e-07 l 37.734985 65.658165 l -143.34991 197.5073 l 47.771423 -65.76033 l 0.89367676 -197.40515 l -28.47754 -1.3545905e-05 l -113.997314 -0.00010370347 l 28.47754 5.1981406e-05 l 28.663757 7.709815e-05 l 28.281128 1.44363e-06 l -305.92596 315.9861 l 44.315125 -63.509964 l 43.80005 -62.77005 l 44.19409 -63.335968 l 44.07306 -63.161186 l -438.8927 0.020736694 l -6.1035156e-05 63.159943 l -0.13305664 -126.389626 l -23.11618 -1.5751903e-07 l -23.477112 -1.6916601e-10 l -23.101074 -1.4239959e-07 l -23.41034 3.8633516e-08 l -23.235992 -1.5794467e-07 l -70.021164 -2.2450331e-07 l -23.090408 3.8744474e-10 l -23.39029 1.3005774e-09 l 93.13675 1.8080755e-09 l -23.238403 -1.5079422e-09 l -69.9108 154.40186 l 232.9874 98.368546 l 3.0517578e-05 -63.159714 l 0.00018310547 252.45218 l 3.0517578e-05 -62.77115 l -0.00012207031 -63.225708 l -232.99382 -7.264038 l 363.21277 196.76459 l 44.14911 -63.264435 l 44.0094 -63.069977 l -451.37408 83.96777 l -0.0016784668 154.39856 l 714.2717 -222.89941 l 47.701355 -65.664215 l -143.1305 197.02902 l 47.477905 -65.3566 l -433.31073 44.93051 l 0.002746582 63.072815 l 28.873657 63.28943 l -3.4290466 0.0 l 15.9964905 0.0 l -4.5548096 0.0 l -2.6644287 0.0 l -14.178711 0.0 l -0.09729004 0.0 l -0.8780823 0.0 l -7.5254517 0.0 l 0.1156311 0.0 l -7.653839 0.0 l -3.862152 0.0 l -0.014404297 0.0 l 85.92728 -63.160095 l 305.12778 216.32678 l 44.686768 26.97583 l -17.839111 -11.7578125 l -109.8103 -47.66638 l 30.096436 9.624268 l 25.565308 9.977661 l -26.865051 -179.02325 l -46.755005 64.34784 l 215.89459 215.82458 l 19.289612 22.620422 l 0.0 0.0 l 0.0 0.0 l 0.0 0.0 l -61.74298 -63.09375 l 21.470032 19.066223 l -718.1853 -80.06128 l 0.0015869141 154.39838 l 0.0043792725 154.401 l -0.0041503906 308.77014 l 0.013549805 -154.37402 l 27.138718 308.80334 l -27.058914 0.0 l 81.65126 0.0 l -27.092438 0.0 l 54.69867 0.0 l 27.095093 0.0 l 27.31958 0.0 l 54.587738 0.0 l -27.227081 0.0 l 54.729523 0.0 l 27.140717 0.0 l 0.0 0.0 l 0.0 0.0 l 0.0 0.0 l 59.450043 -1.149292 l 108.76727 -9.192383 l -52.587036 5.737671 l 102.047424 -13.813965 l 45.8042 -10.328369 l 42.585327 -12.680054 l 39.01703 -14.917969 l 35.73712 -17.268799 l 32.278687 -19.536865 l 0.0 0.0 l 0.0 0.0 l 0.0 0.0 l 28.495117 -26.415405 l 47.99402 -57.750244 l -22.48346 29.678223 l 58.56653 -94.198 l 13.401306 -34.366943 l -29.970276 67.52588 l -7.5841064 -414.10754 l 13.996216 25.70935 l 12.227539 26.82959 l 10.374939 27.839417 l 8.477661 28.755798 l 6.529724 29.353638 l 4.7304077 30.742798 l 2.7996216 31.192383 l 0.9448242 32.391113 l 0.0 0.0 l 0.0 0.0 l 0.0 0.0 l -4.507202 39.57434 l -7.482788 37.812622 " /> </g> </svg>