<?xml version="1.0" standalone="no"?><!DOCTYPE svg PUBLIC "-//W3C//DTD SVG 1.1//EN" "http://www.w3.org/Graphics/SVG/1.1/DTD/svg11.dtd" ><svg xmlns="http://www.w3.org/2000/svg" xmlns:xlink="http://www.w3.org/1999/xlink" version="1.1" viewBox="-10 0 692 1000"><g transform="matrix(1 0 0 -1 0 800)"><path stroke="black" fill="none" d="M 1185.9988 -2.351206e-05 l -28.64795 -2.253417e-05 l -28.295654 -2.3097527e-07 l -38.645386 131.59029 l -18.361206 -131.59029 l 28.436401 4.4463377e-08 l 37.710205 65.75846 l -143.38531 197.43143 l 47.791565 -65.788376 l 0.89819336 -197.4015 l -28.493408 -3.9674997e-06 l -113.99921 -3.0374045e-05 l 28.493408 1.52249995e-05 l 28.547974 2.2581527e-05 l 28.435913 4.2283136e-07 l -305.97833 315.99594 l 44.163025 -63.290787 l 44.012146 -63.07408 l 44.127563 -63.239822 l 44.092102 -63.18863 l -438.89786 0.006072998 l -3.0517578e-05 63.18827 l -0.038970947 -126.396965 l -23.246155 -4.6136847e-08 l -23.351868 -4.9112714e-11 l -23.24173 -4.1709427e-08 l -23.332336 1.1315933e-08 l -23.28125 -4.626054e-08 l -69.93547 -6.575465e-08 l -23.238617 1.1277734e-10 l -23.326447 3.8016879e-10 l 93.18147 5.311449e-10 l -23.281967 -4.4201443e-10 l -69.90315 154.40054 l 232.9963 98.39079 l 0.0 -63.1882 l 6.1035156e-05 252.6981 l 0.0 -63.07437 l -3.0517578e-05 -63.20752 l -232.99818 -7.2187805 l 363.20374 196.78964 l 44.11438 -63.218872 l 44.073486 -63.161926 l -451.3924 83.99054 l -0.00048828125 154.39963 l 714.221 -222.82913 l 47.771057 -65.76022 l -143.32104 197.29138 l 47.70569 -65.670166 l -433.37387 44.979645 l 0.00079345703 63.16275 l 29.24585 63.226196 l -3.9741821 0.0 l 16.564636 0.0 l -4.303894 0.0 l -3.7502441 0.0 l -13.065857 0.0 l -0.35699463 0.0 l -2.8950806 0.0 l -8.138214 0.0 l 2.636963 0.0 l -7.820343 0.0 l -4.105255 0.0 l 86.04941 -63.188293 l 305.00912 216.30066 l 48.16095 29.255676 l -22.336914 -14.722107 l -109.09589 -47.053772 l 29.321106 9.28894 l 27.145447 10.594482 l -26.720032 -179.95428 l -47.493958 65.374695 l 216.0116 215.48187 l 19.367676 22.712036 l 0.0 0.0 l 0.0 0.0 l 0.0 0.0 l -61.783325 -63.133545 l 21.70337 19.266907 l -718.3796 -80.22302 l 0.00045776367 154.39954 l 0.0012817383 154.40027 l -0.0012054443 308.79126 l 0.003967285 -154.39233 l 27.252762 308.8009 l -27.229385 0.0 l 81.82715 0.0 l -27.239212 0.0 l 54.62889 0.0 l 27.23999 0.0 l 27.305725 0.0 l 54.596436 0.0 l -27.278656 0.0 l 54.63794 0.0 l 27.253357 0.0 l 0.0 0.0 l 0.0 0.0 l 0.0 0.0 l 59.48535 -1.1497803 l 108.790405 -9.197754 l -52.66687 5.746338 l 102.013855 -13.804077 l 45.87195 -10.343628 l 42.524963 -12.658813 l 39.075745 -14.940674 l 35.710815 -17.255493 l 32.293823 -19.546143 l 0.0 0.0 l 0.0 0.0 l 0.0 0.0 l 28.498535 -26.41858 l 47.99829 -57.757202 l -22.495178 29.693604 l 58.51947 -94.07214 l 13.47113 -34.5459 l -29.991333 67.57837 l -7.6377563 -414.2154 l 14.06958 25.844177 l 12.222229 26.822815 l 10.35022 27.769104 l 8.465149 28.68811 l 6.5653076 29.513672 l 4.7089233 30.571167 l 2.8140259 31.353271 l 0.94140625 32.35498 l 0.0 0.0 l 0.0 0.0 l 0.0 0.0 l -4.502136 39.55005 l -7.494934 37.87451 " /> </g> </svg>