<?xml version="1.0" standalone="no"?><!DOCTYPE svg PUBLIC "-//W3C//DTD SVG 1.1//EN" "http://www.w3.org/Graphics/SVG/1.1/DTD/svg11.dtd" ><svg xmlns="http://www.w3.org/2000/svg" xmlns:xlink="http://www.w3.org/1999/xlink" version="1.1" viewBox="-10 0 692 1000"><g transform="matrix(1 0 0 -1 0 800)"><path stroke="black" fill="none" d="M 1185.9536 0.0002482949 l -34.388794 -0.0008968371 l -20.367188 -9.192576e-06 l -40.40674 131.21297 l -16.855347 -131.21303 l 25.966187 1.7695857e-06 l 38.10852 64.14667 l -142.81647 198.65051 l 47.46698 -65.33743 l 0.8267822 -197.45998 l -28.239075 -0.0001579026 l -113.96838 -0.0012088561 l 28.238586 0.00060593965 l 30.408203 0.0008987218 l 25.949036 1.6828199e-05 l -305.1371 315.83826 l 46.608093 -66.81331 l 40.602722 -58.188232 l 45.19757 -64.78479 l 43.78546 -62.7476 l -438.81476 0.24174118 l -0.0008544922 62.733025 l -1.5509338 -126.27902 l -21.157562 -1.836188e-06 l -25.364502 -1.9772415e-09 l -20.980804 -1.659926e-06 l -24.586395 4.5033994e-07 l -22.553833 -1.841132e-06 l -71.31247 -2.6169928e-06 l -1.7058716 1.1692464e-08 l -19.151047 -7.18137e-09 l -24.352417 1.5154e-08 l 92.462875 2.1080268e-08 l -22.581985 -1.7580533e-08 l -70.025955 154.4217 l 232.85306 98.033264 l 0.0004272461 -62.73047 l 0.002319336 248.74559 l 6.1035156e-05 -58.20117 l -0.0012512207 -63.4993 l -232.92819 -7.9466248 l 363.3488 196.38696 l 44.672607 -63.950745 l 43.043396 -61.684692 l -451.09747 83.62485 l -0.019622803 154.38281 l 715.0364 -223.95901 l 46.65045 -64.21744 l -140.25806 193.07532 l 44.0448 -60.630646 l -432.35928 44.190155 l 0.032196045 61.716797 l 26.14029 64.242676 l -0.03652954 0.0 l 9.381165 0.0 l -0.64468384 0.0 l 0.0 0.0 l -18.210052 0.0 l 0.0 0.0 l -2.3793945 0.0 l -12.325195 0.0 l -0.63934326 0.0 l 0.0 0.0 l 84.28714 -62.734924 l 306.9161 216.7201 l 28.603088 16.53778 l 0.0 0.0 l -106.905945 -47.903564 l 41.781555 14.678467 l 1.7684937 0.6885376 l -29.06836 -164.99939 l -35.61853 48.87323 l 214.13171 220.9895 l 18.104858 21.229492 l 0.0 0.0 l -0.00018310547 -0.00012207031 l -0.00091552734 -0.0010986328 l -61.125916 -62.48358 l 0.0045776367 0.0045166016 l 17.949097 16.038025 l -715.25824 -77.62457 l 0.018554688 154.38184 l 0.05104065 154.41058 l -0.04840088 308.4541 l 0.15797424 -154.09888 l 25.419968 308.83984 l -24.489746 0.0 l 79.00043 0.0 l -24.880402 0.0 l 55.750244 0.0 l 24.911469 0.0 l 27.528107 0.0 l 54.45697 -0.00036621094 l -26.449982 0.00012207031 l 56.109955 -0.00024414062 l 25.43283 0.00048828125 l 0.0 0.0 l -0.00018310547 0.0 l -0.0009460449 0.0 l 58.929565 -1.1414795 l 108.41852 -9.112305 l -51.383606 5.607666 l 102.55237 -13.963501 l 44.78369 -10.097046 l 43.494934 -13.000122 l 38.13263 -14.578369 l 36.132812 -17.468506 l 32.041504 -19.390259 l 0.0 0.0 l -0.00018310547 0.00012207031 l 28.452576 -26.373657 l 47.930542 -57.645264 l -22.30719 29.4458 l 59.27533 -96.09509 l 12.350098 -31.670288 l -29.65387 66.73474 l -6.7751465 -412.48114 l 12.89093 23.677612 l 12.307068 26.931274 l 10.747437 28.898682 l 8.666443 29.776184 l 5.993408 26.941895 l 5.054077 33.3313 l 2.5824585 28.765259 l 0.9962158 32.933716 l 0.0 0.0 l 0.0 0.0 l 0.0 -0.00012207031 l -4.583618 39.94275 l -7.2996216 36.881714 " /> </g> </svg>