<?xml version="1.0" standalone="no"?><!DOCTYPE svg PUBLIC "-//W3C//DTD SVG 1.1//EN" "http://www.w3.org/Graphics/SVG/1.1/DTD/svg11.dtd" ><svg xmlns="http://www.w3.org/2000/svg" xmlns:xlink="http://www.w3.org/1999/xlink" version="1.1" viewBox="-10 0 692 1000"><g transform="matrix(1 0 0 -1 0 800)"><path stroke="black" fill="none" d="M 1185.9865 5.1144714e-05 l -30.224854 -0.00026267752 l -26.11792 -2.6924426e-06 l -39.12915 131.48665 l -17.947632 -131.48666 l 27.757812 5.182992e-07 l 37.819702 65.31575 l -143.22913 197.76628 l 47.702515 -65.66452 l 0.87854004 -197.41757 l -28.423584 -4.6248606e-05 l -113.99072 -0.00035406582 l 28.4234 0.00017747568 l 29.058899 0.0002632295 l 27.752869 4.9288647e-06 l -305.74725 315.95264 l 44.834595 -64.258316 l 43.075684 -61.73207 l 44.421448 -63.664185 l 44.007874 -63.067497 l -438.87503 0.070804596 l -0.00024414062 63.06323 l -0.45425415 -126.36457 l -22.672485 -5.3780605e-07 l -23.904694 -5.7843863e-10 l -22.620728 -4.861813e-07 l -23.676758 1.3190038e-07 l -23.081482 -5.3925396e-07 l -70.313675 -7.665003e-07 l -22.584442 1.3224053e-09 l -23.608246 4.438334e-09 l 92.984085 6.17365e-09 l -23.089691 -5.149559e-09 l -69.93689 154.40636 l 232.95697 98.29259 l 0.00012207031 -63.06247 l 0.0006713867 251.61249 l 3.0517578e-05 -61.73587 l -0.00036621094 -63.28769 l -232.97897 -7.4186707 l 363.2436 196.67905 l 44.2677 -63.41992 l 43.790527 -62.756165 l -451.3114 83.89011 l -0.0057373047 154.39496 l 714.44495 -223.13943 l 47.463318 -65.33646 l -142.4798 196.13336 l 46.700195 -64.28598 l -433.0952 44.762787 l 0.009429932 62.765625 l 27.602966 63.50537 l -1.570343 0.0 l 14.059082 0.0 l -5.35791 0.0 l -0.15325928 0.0 l -14.859711 0.0 l 0.0 0.0 l -0.010498047 0.0 l -7.872589 0.0 l 0.0 0.0 l -8.30658 0.0 l -3.0884094 0.0 l -0.007232666 0.0 l 85.510254 -63.06378 l 305.5329 216.4159 l 32.825012 19.191895 l -2.482544 -1.6370239 l -112.24951 -49.757996 l 32.743652 10.769287 l 20.170227 7.871643 l -27.360107 -175.84467 l -44.232117 60.842224 l 215.49524 216.99463 l 19.022522 22.306885 l 0.0 0.0 l 0.0 0.0 l 0.0 -6.1035156e-05 l -61.604736 -62.957275 l 0.01361084 0.013427734 l 20.65979 18.367798 l -717.5222 -79.50928 l 0.0054473877 154.39465 l 0.0149383545 154.40314 l -0.014175415 308.6986 l 0.046279907 -154.31177 l 26.749344 308.81165 l -26.476898 0.0 l 81.050735 0.0 l -26.591309 0.0 l 54.93689 0.0 l 26.600403 0.0 l 27.366821 0.0 l 54.558105 -0.00012207031 l -27.051025 0.0 l 55.042236 0.0 l 26.755524 0.00012207031 l 0.0 0.0 l 0.0 0.0 l -3.0517578e-05 0.0 l 59.3302 -1.1474609 l 108.68829 -9.174316 l -52.314392 5.708252 l 102.16174 -13.8479 l 45.57306 -10.275879 l 42.79138 -12.752563 l 38.81671 -14.841064 l 35.82672 -17.314087 l 32.22644 -19.504517 l 0.0 0.0 l 0.0 0.0 l -6.1035156e-05 0.0 l 28.484009 -26.40503 l 47.979614 -57.72644 l -22.443481 29.625488 l 58.72705 -94.627686 l 13.163208 -33.756104 l -29.89862 67.34668 l -7.400818 -413.73907 l 13.74585 25.249084 l 12.245483 26.8526 l 10.459351 28.079407 l 8.520447 28.986938 l 6.408203 28.807251 l 4.803711 31.329224 l 2.7504272 30.642578 l 0.95654297 32.514404 l 0.0 0.0 l 0.0 0.0 l 0.0 0.0 l -4.524536 39.65735 l -7.441345 37.601807 " /> </g> </svg>