<?xml version="1.0" standalone="no"?><!DOCTYPE svg PUBLIC "-//W3C//DTD SVG 1.1//EN" "http://www.w3.org/Graphics/SVG/1.1/DTD/svg11.dtd" ><svg xmlns="http://www.w3.org/2000/svg" xmlns:xlink="http://www.w3.org/1999/xlink" version="1.1" viewBox="-10 0 692 1000"><g transform="matrix(1 0 0 -1 0 800)"><path stroke="black" fill="none" d="M 1184.1511 0.011065936 l -17.704468 -0.016238146 l -58.080322 112.82569 l -2.4129639 3.3505478 l -6.268799 -116.19896 l 0.0 0.0 l 30.963379 -0.00043643708 l -0.010375977 -5.5646524e-06 l -120.164856 247.16891 l 34.544373 -47.38974 l -2.0151367 -199.78654 l -0.22473145 -0.0003874693 l -17.888306 -0.0058968924 l -112.74219 -0.048111238 l 18.096313 0.024115771 l 53.841675 0.02890064 l 0.0 0.0 l -294.0796 309.5709 l 0.018493652 -0.02368164 l 72.25525 -104.26074 l 0.0 0.0 l 64.33856 -92.73166 l 31.58191 -45.194977 l -435.50742 9.621033 l -0.033813477 44.614883 l -26.652954 -121.58459 l 0.0 0.0 l -32.95697 -0.0001673479 l 0.0 0.0 l -51.10965 -0.000535966 l -0.32772827 -9.00263e-06 l -105.03084 -0.00016715986 l 0.0 0.0 l -5.6130524 -4.857666e-07 l 63.863373 8.389361e-07 l -0.43289185 -1.4346915e-07 l -69.20384 155.26408 l 227.15193 83.80409 l 0.017486572 -44.513474 l 0.07998657 177.62804 l 0.0 0.0 l -0.03488159 -25.552368 l -230.14299 -36.914764 l 369.12115 180.36093 l 66.89081 -93.078064 l 2.0737305 -2.9332886 l -439.3872 69.11069 l -0.78092957 153.71558 l 747.4878 -268.92865 l 2.081482 -2.8616333 l -92.102356 126.798035 l 0.0 0.0 l -419.91782 51.22522 l 0.0 0.0 l 1.2815857 4.178955 l 22.70636 104.696655 l 0.0 0.0 l 42.434845 -44.689148 l 0.0 0.0 l 334.15317 206.1903 l 0.0 0.0 l -102.89221 -141.76788 l 0.0 0.0 l 219.94238 241.56903 l 0.0 0.0 l -57.739258 -58.585022 l -697.38495 -62.22113 l 0.7387085 153.67834 l 2.0314636 154.82013 l -1.9262085 295.0348 l 0.005935669 -0.049926758 l 6.2810516 -142.36987 l 11.548325 310.39014 l 0.0 0.0 l 36.312637 0.0 l 0.0 0.0 l 84.32112 -0.00048828125 l 0.0 0.0 l 9.333099 -0.0009765625 l 48.90732 -0.01159668 l -0.39105225 0.00061035156 l 77.97769 -0.05444336 l 0.0 0.0 l 33.379242 -0.7449951 l 93.61856 -5.7106934 l -1.6187744 0.21606445 l 125.291504 -20.432983 l 2.0235596 -0.41125488 l 81.547424 -26.45691 l 1.5840454 -0.54797363 l 51.940918 -25.56189 l 0.0 0.0 l 6.0010986 -3.7375488 l 42.61548 -34.024902 l 45.234802 -53.193848 l -14.827576 19.583984 l 64.26892 -112.750854 l 0.0 0.0 l -23.39972 52.080322 l 6.324829 -381.8631 l 0.0 0.0 l 2.8986206 7.1019287 l 26.554565 73.855286 l 4.4299316 18.453735 l 0.0 0.0 l 9.874939 76.29834 l 0.0 0.0 l 0.6989746 23.482056 l 0.0 0.0 l -6.928467 56.434204 l 0.0 0.0 l -0.18432617 0.85217285 " /> </g> </svg>