<?xml version="1.0" standalone="no"?><!DOCTYPE svg PUBLIC "-//W3C//DTD SVG 1.1//EN" "http://www.w3.org/Graphics/SVG/1.1/DTD/svg11.dtd" ><svg xmlns="http://www.w3.org/2000/svg" xmlns:xlink="http://www.w3.org/1999/xlink" version="1.1" viewBox="-10 0 692 1000"><g transform="matrix(1 0 0 -1 0 800)"><path stroke="black" fill="none" d="M 654.56165 738.44794 l -20.375916 8.478638 l 0.0 0.0 l 164.87506 -79.385864 l 0.0 0.0 l -23.05072 14.159363 l 0.0 0.0 l -74.71582 37.18933 l 0.0 0.0 l 43.960205 -20.376831 l 0.0 0.0 l 92.138855 -61.700317 l 0.0 0.0 l 7.571045 -7.3637695 l 0.0 0.0 l 17.250916 -19.588928 l 0.0 0.0 l 20.198181 -33.180176 l 0.0 0.0 l 14.093018 -40.37854 l 0.0 0.0 l -4.8425293 17.819153 l 0.0 0.0 l 9.899109 -50.48224 l 0.0 0.0 l -0.3554077 -40.70105 l 0.0 0.0 l -8.22583 -41.3425 l 0.0 0.0 l -12.300049 -35.20294 l 0.0 0.0 l -25.867615 -44.849 l 0.0 0.0 l -21.678284 -25.744415 l 0.0 0.0 l 223.85211 63.203705 l 0.0 0.0 l -0.8977051 -2.3352966 l -26.84314 -62.392853 l 0.0 0.0 l -54.16815 -79.943726 l -3.633789 -4.566437 l 0.0 0.0 l -53.334778 -45.90181 l -0.70526123 -0.55137634 l -50.145264 -32.311172 l -48.463806 -24.025566 l -0.84106445 -0.37389374 l -167.10217 130.57239 l 0.0 0.0 l 18.288818 -2.092682 l 0.0 0.0 l 133.4729 39.05545 l 0.0 0.0 l -45.98712 -23.702698 l 0.0 0.0 l -12.459595 -167.72546 l 24.340881 6.342308 l -158.4654 155.35712 l -14.1073 4.2831116 l -159.58228 242.01834 l 0.07785034 -0.48190308 l -7.3841248 18.84076 l 0.0 0.0 l -146.24771 -31.865051 l 0.0 0.0 l 22.444397 4.9455566 l 61.762756 13.608765 l 11.782898 2.5962524 l 0.0 0.0 l 67.64612 -64.6384 l 0.0 0.0 l 1.6040344 -6.5644836 l 15.773163 -54.286682 l 2.2219238 -5.963043 l 0.0 0.0 l 42.85565 -63.938293 l 0.0 0.0 l -0.06790161 0.07501221 l -27.35025 32.069763 l 0.3161621 -0.5680237 l 0.0 0.0 l 83.2316 -72.6207 l 0.12207031 -0.06741333 l -31.178284 19.293304 l -86.5094 -171.49445 l -1.0922546 0.4133606 l -48.248596 24.960846 l 0.0 0.0 l -62.042175 46.87181 l 0.0 0.0 l 271.57834 -110.43532 l 1.0562744 -0.10102081 l 68.71741 0.17301941 l 0.0 0.0 l 8.535156 0.8811188 l -171.48505 14.182777 l -1.2045898 0.2940979 l -214.92633 138.05377 l 0.38464355 -0.53427124 l -47.865234 77.114655 l -0.548584 1.02594 l -45.695145 153.6611 l 0.0 0.0 l 8.125366 -24.388855 l 0.0 0.0 l 9.067886 -59.448547 l -0.5636444 1.3007507 l 127.47493 521.2299 l 0.97302246 -1.0834961 l -86.713776 140.97577 l 0.0 0.0 l 213.51791 51.530273 l 0.0 0.0 l 18.895203 -24.441406 l 0.0 0.0 l -41.442688 89.67969 l 0.0 0.0 l -1.2094421 10.664551 l 0.0 0.0 l -204.8755 -49.00354 l 0.0 0.0 l -0.3534088 -7.429199 l 12.090668 91.62781 l 5.874695 21.1156 l 0.0 0.0 l 17.575165 44.74829 l 0.009613037 0.016601562 l 24.70816 43.91577 l 0.0 0.0 l 31.89859 41.651855 l 0.0 0.0 l 20.80252 21.52124 l 204.05368 101.17859 l -23.338257 -5.540283 l -116.96936 -50.170776 l 0.0 0.0 l 62.383423 31.143555 l -0.3647766 -194.76965 l 0.0 0.0 l -26.662018 -52.322388 l 0.0 0.0 l 63.621094 87.63843 l 0.0 0.0 l 37.62384 20.720581 l 0.0 0.0 l 57.664734 171.93091 l 28.268616 2.6431885 l 0.0036621094 0.00036621094 l 0.0 0.0 l 52.97937 -2.1984863 l 49.704346 -7.921753 l 47.337646 -13.049072 l 44.97101 -18.176147 l 43.320557 -23.967163 l 40.152344 -28.586426 l 37.795776 -33.6969 l 92.63129 -61.474487 l -0.115234375 -0.036376953 l -18.631714 -13.253052 l 0.05114746 0.09057617 l -23.429077 -8.511108 l 0.0 0.0 l -148.37634 -43.53711 l 0.0 0.0 l -87.0022 66.53174 l 0.0 0.0 l -37.432007 18.052734 l 0.0 0.0 l 21.568298 -8.916382 l 0.0 0.0 l -160.599 16.60254 l 0.0 0.0 l 17.07257 3.317749 l 32.22119 3.1203613 l 0.0 0.0 l 62.37622 -6.0214844 l 0.0 0.0 l 107.82233 -424.31622 l 21.71753 -11.285828 l 32.089355 -17.98285 l 35.95349 -23.613281 l 16.839111 -12.02063 l 150.78448 -245.35638 l 0.0 0.0 l 6.026123 -51.43335 l 0.0 0.0 l -6.3808594 -90.86624 l 0.0 0.0 l -3.3236084 -15.684479 l -19.178955 240.90198 l 0.0 0.0 l 3.0905762 -9.302368 l -53.154175 98.48712 l 0.0 0.0 l -40.527588 42.14026 l 0.0 0.0 l -320.72266 171.71649 l 0.0 0.0 l 45.492737 -18.610535 l 0.0 0.0 l -97.241455 39.999084 l 0.0 0.0 l -46.283752 25.89862 l 0.0 0.0 l 228.49933 -101.213196 l -0.014831543 0.0061035156 l -57.490234 24.068665 l 0.0 0.0 l -130.04993 -196.31274 l 0.0 0.0 l -24.543823 10.2126465 l 0.0 0.0 l -53.518127 24.979004 l -72.99466 41.7511 l -33.610443 23.316711 " /> </g> </svg>