<?xml version="1.0" standalone="no"?><!DOCTYPE svg PUBLIC "-//W3C//DTD SVG 1.1//EN" "http://www.w3.org/Graphics/SVG/1.1/DTD/svg11.dtd" ><svg xmlns="http://www.w3.org/2000/svg" xmlns:xlink="http://www.w3.org/1999/xlink" version="1.1" viewBox="-10 0 692 1000"><g transform="matrix(1 0 0 -1 0 800)"><path stroke="black" fill="none" d="M 678.2665 728.5831 l 68.420044 -16.39569 l 0.0 0.0 l 109.43994 -101.4527 l 0.0 0.0 l 24.39087 -77.76019 l 0.0 0.0 l -31.39215 -141.37192 l 0.0 0.0 l 159.2868 -48.17334 l 0.0 0.0 l -72.84027 -101.75075 l 0.0 0.0 l 85.90729 -18.441101 l 47.80005 -65.8 l 47.799927 -65.8 l 47.80005 -65.8 l -28.5 0.0 l -28.5 0.0 l -28.5 0.0 l -28.5 0.0 l -28.5 0.0 l -28.5 0.0 l -28.5 0.0 l -28.5 0.0 l -28.5 0.0 l -28.5 0.0 l -44.099976 63.2 l -35.03235 64.78163 l 0.0 0.0 l -71.42688 140.86157 l 0.0 0.0 l 8.458618 -161.99817 l 0.0 0.0 l -169.00427 164.75217 l 0.0 0.0 l 46.504883 107.60281 l -44.100037 63.19998 l -44.099976 63.200012 l -44.100006 63.200012 l -44.100006 63.200012 l -4.1999817 0.0 l -4.200012 0.0 l -4.200012 0.0 l -4.1999817 0.0 l -4.200012 0.0 l -4.1999817 0.0 l -4.200012 0.0 l -4.1999817 0.0 l -4.200012 0.0 l -4.200012 0.0 l -16.63556 -110.67682 l 0.0 0.0 l -73.14114 -14.716064 l 0.0 0.0 l 118.255646 -53.7937 l 0.0 0.0 l 35.045868 -96.54852 l 0.0 0.0 l 41.945953 -48.41696 l 0.0 0.0 l -105.470764 -55.04796 l -79.0748 -52.49536 l 0.0 0.0 l 261.04672 -107.59757 l 0.0 0.0 l -165.41147 19.07119 l -16.560455 -111.77826 l -23.299988 0.0 l -23.299988 0.0 l -23.300018 0.0 l -23.299988 0.0 l -23.300018 0.0 l -23.299988 0.0 l -23.300003 0.0 l -23.299988 0.0 l -23.300003 0.0 l -23.300003 0.0 l 0.0 154.4 l 61.53807 177.4639 l 0.0 0.0 l -41.581223 127.93585 l 0.0 0.0 l -19.956848 157.80026 l 0.0 154.39996 l 65.384415 337.72235 l 0.0 0.0 l 211.36298 112.005615 l 0.0 0.0 l -192.93872 24.210205 l 0.0 0.0 l -83.80867 143.66174 l 0.0 154.40002 l 27.300003 0.0 l 27.300003 0.0 l 27.300003 0.0 l 27.299988 0.0 l 27.299988 0.0 l 27.300018 0.0 l -7.4599915 -174.47827 l 0.0 0.0 l 67.73099 92.61658 l 21.628998 81.861694 l 86.79358 -59.356567 l 0.0 0.0 l -9.63504 -7.215332 l 9.641449 65.421875 l 130.74445 -196.00269 l 0.0 0.0 l -3.3952637 156.28894 l 0.0 0.0 l 30.750854 22.463745 l 30.626465 -21.154541 l 47.725525 -9.220459 l 45.075073 -13.571167 l 42.42456 -17.921753 l 29.648376 -12.88208 l 0.0 0.0 l 18.473206 -17.12854 l 36.127808 -28.441772 l 33.594543 -32.59912 l 79.53717 -64.71924 l 0.0 0.0 l -11.315674 -17.0979 l 0.0 0.0 l -161.65997 -42.628296 l 0.0 0.0 l -139.9273 89.646484 l 0.0 0.0 l 289.17023 -144.31152 l 4.5 -39.54004 l 0.0 0.0 l -0.94000244 -32.339966 l -2.8200073 -31.420044 l -4.700012 -30.5 l -6.580017 -29.579956 l -8.459961 -28.660034 l -10.340027 -27.73999 l -12.220032 -26.820007 l -14.099976 -25.900024 l -98.09808 -21.71582 l 0.0 0.0 l 1.6813354 -0.48547363 l 63.037903 -43.87848 l 0.0 0.0 l 151.95447 -290.448 l 0.0 0.0 l -70.716 207.18402 l 0.0 0.0 l -148.63959 43.56378 l -24.200012 -15.950012 l -264.8944 228.66718 l 0.0 0.0 l 162.6278 -85.48163 l 0.0 0.0 l -158.63324 -170.37195 l 0.0 0.0 l -175.64767 99.82135 l 0.0 0.0 " /> </g> </svg>