<?xml version="1.0" standalone="no"?><!DOCTYPE svg PUBLIC "-//W3C//DTD SVG 1.1//EN" "http://www.w3.org/Graphics/SVG/1.1/DTD/svg11.dtd" ><svg xmlns="http://www.w3.org/2000/svg" xmlns:xlink="http://www.w3.org/1999/xlink" version="1.1" viewBox="-10 0 692 1000"><g transform="matrix(1 0 0 -1 0 800)"><path stroke="black" fill="none" d="M 665.99603 733.68994 l -14.8637085 6.1849365 l -29.805115 12.4021 l 14.888367 -6.1951294 l 145.63434 -67.58295 l 8.858948 -5.4121094 l 16.457336 -11.0672 l -7.8861084 5.585388 l 0.0 0.0 l 0.0 0.0 l 0.0 -6.1035156e-05 l -36.144714 21.591492 l 9.493286 -5.3100586 l -19.364868 10.60199 l -10.131653 5.210388 l -62.20459 27.778076 l 14.888611 -6.1952515 l 26.006104 -11.268433 l -11.089478 5.061096 l 21.90033 -10.190979 l 89.50653 -54.36609 l -7.28833 5.758911 l 14.319885 -11.640991 l 6.6747437 -5.922058 l 18.224121 -18.297424 l -5.748169 6.1620483 l -6.0792236 6.1046143 l 17.292358 -18.537231 l 0.0 0.0 l 0.0 0.0 l 0.0 0.0 l 9.393799 -12.956421 l -4.4683228 6.4110107 l 8.87793 -13.26062 l 4.0335693 -6.8289795 l 3.765625 -6.970398 l 3.47583 -7.071472 l 10.887695 -29.693176 l 1.8730469 -7.866699 l -3.9992065 15.596741 l 0.0 0.0 l 0.0 0.0 l 0.0 0.0 l -2.6469727 7.4573975 l -2.9085083 7.29126 l 12.550476 -46.519104 l -1.3677368 8.131958 l 3.9941406 -33.53717 l -0.6194458 8.548096 l -0.8759155 8.491669 l 1.9989624 -34.789093 l 0.0 0.0 l 0.0 0.0 l 0.0 0.0 l -0.124938965 8.919098 l -2.034668 -30.144592 l -8.638123 -40.11557 l 5.0358887 19.65393 l -11.521851 -38.56131 l -7.9139404 -18.0961 l -9.380249 -17.362701 l -10.776245 -16.513702 l -12.242065 -15.773926 l -29.185608 -27.39859 l 15.501831 12.403442 l 0.0 0.0 l 0.0 0.0 l 0.0 0.0 l 230.789 78.96741 l -12.777832 -35.933746 l -34.07263 -67.428406 l 18.448608 32.959625 l -39.760742 -64.47925 l -24.136414 -30.015625 l 0.0 0.0 l 0.0 0.0 l 0.0 0.0 l -29.29425 -26.603241 l -30.663818 -23.795273 l -32.053955 -21.002518 l -33.43274 -18.20108 l -34.8031 -15.396942 l -144.47217 131.79904 l 0.0 0.0 l 0.0 0.0 l 0.0 0.0 l -25.61316 2.999237 l 67.72223 -0.08029175 l -20.675537 -2.1884918 l 96.01849 25.536911 l -17.688477 -8.0112 l 34.692017 17.50644 l -72.37958 -29.190948 l 19.19629 5.1063538 l -10.56073 -165.8776 l 37.567566 9.799355 l -158.20007 152.40054 l -22.978333 6.9995117 l -158.4007 260.76016 l 0.0 0.0 l 0.0 0.0 l 0.0 0.0 l 3.4396973 -26.357819 l -27.036255 21.158539 l -118.01425 -26.003082 l -23.582245 -5.1960754 l 47.19107 10.398041 l 23.639465 5.2086487 l 23.549469 5.188904 l 23.611572 5.2025757 l 54.56366 -40.65091 l 4.397003 -22.984467 l 4.8893127 -21.355408 l 5.347687 -19.59494 l 5.8441772 -17.974823 l 6.3192444 -16.278107 l 45.51825 -63.51883 l -16.37561 16.995483 l -22.341034 31.920166 l 7.278778 -12.917877 l 0.0 0.0 l 0.0 0.0 l 0.0 0.0 l 68.16278 -64.001465 l 20.334717 -10.997162 l -39.356995 23.998322 l -58.155243 -183.64774 l -32.493805 13.087494 l -60.78778 33.312363 l 29.681 -17.838593 l -57.99466 38.076782 l 0.0 0.0 l 0.0 0.0 l 0.0 0.0 l -24.825714 24.765717 l 252.33096 -116.3962 l 38.09265 -3.569313 l 39.502075 -1.1902008 l 0.0 0.0 l 0.0 0.0 l 0.0 0.0 l 40.32794 4.199791 l -154.63312 6.5114136 l -35.293304 8.32843 l -224.16867 157.47647 l 20.945618 -28.643982 l -39.960846 59.242523 l -17.066757 32.523773 l -1.6954498 159.91812 l -23.622482 -5.2047424 l -23.548569 -5.1886597 l 9.296661 -40.29065 l 24.437164 -74.75714 l -13.187576 36.4032 l 104.724106 542.4964 l 34.863525 -37.95294 l -63.408813 78.41931 l -22.177032 42.894592 l 186.40002 114.12854 l 8.394531 -20.386475 l 45.352356 -55.917236 l -18.492981 17.778564 l -15.086914 18.599121 l -25.209381 61.2135 l 0.2390747 37.71045 l -1.9190979 -15.552368 l 0.0 0.0 l 0.0 0.0 l 0.0 0.0 l -203.71059 -30.076172 l -1.3293915 -34.213867 l 0.0 0.0 l 0.0 0.0 l 0.0 0.0 l 9.50827 -47.870728 l -4.186966 115.19653 l 6.653 31.958496 l 9.303986 30.790161 l 11.9721985 29.676392 l 14.637573 28.54187 l 17.27893 27.372559 l 42.56302 51.364746 l 0.0 0.0 l 0.0 0.0 l 0.0 0.0 l -22.60611 -25.105713 l 49.85208 47.52246 l 190.80246 84.96289 l -35.04785 -8.2595215 l -97.36426 -38.948242 l -29.83075 -17.688599 l 61.044617 33.056763 l 32.383667 12.953491 l -36.561646 -232.34949 l 7.187744 13.545898 l 8.119873 12.453125 l -21.07193 -39.889893 l -4.476288 -14.428101 l 46.05966 78.2146 l -10.854797 -11.612915 l 36.800995 32.047974 l -13.767517 -9.334717 l 0.0 0.0 l 0.0 0.0 l 0.0 0.0 l 28.247498 17.603516 l 15.09845 7.1445312 l 50.385803 171.39209 l 37.648254 3.539795 l 0.0 0.0 l 0.0 0.0 l 0.0 0.0 l 52.230164 -2.5998535 l 49.889954 -7.800049 l 47.549927 -13.0 l 45.20996 -18.200073 l 42.870056 -23.400146 l 40.52997 -28.599976 l 38.18994 -33.799805 l 93.8598 -61.170166 l -37.72711 -22.397705 l 13.194885 0.36706543 l 5.631714 10.829468 l -56.666565 -33.578613 l 18.860168 11.17627 l -1.3043823 55.762573 l -93.08569 -111.698 l 18.76947 11.122559 l 19.026917 11.275391 l 18.764404 11.119507 l -75.609436 -44.791748 l -29.21637 6.258789 l 10.361816 -17.444702 l 0.0 0.0 l 0.0 0.0 l -6.1035156e-05 0.0 l -51.56714 75.772095 l 9.908569 -12.339355 l 20.60083 -29.108398 l -10.277283 15.093384 l -30.487976 37.9646 l -9.979736 10.10437 l -9.770081 8.728638 l -30.952087 19.070312 l -11.418091 4.786499 l -12.042847 4.1657715 l 44.636353 -20.478638 l 0.0 0.0 l 0.0 0.0 l 0.0 0.0 l -10.28833 6.0789795 l -191.94312 11.853516 l 16.417664 4.946289 l 17.122192 3.8555908 l 17.708252 2.7435303 l 37.493347 2.2020264 l 0.0 0.0 l 0.0 0.0 l 0.0 0.0 l 14.9123535 -0.9588623 l -33.978333 0.40905762 l 48.42108 -2.0223389 l 13.663147 -2.2226562 l 13.218872 -2.8845215 l 93.77423 -419.25134 l 32.548035 -16.873962 l 30.530273 -17.545044 l 28.511414 -18.216064 l 26.48822 -18.883728 l 140.43365 -209.90924 l 6.0860596 -28.317017 l 4.352173 -29.343994 l 2.6087646 -30.300232 l 0.0 0.0 l 0.0 0.0 l 0.0 0.0 l -1.4219971 -41.87915 l -4.2574463 -40.355713 l -7.1000977 -38.901733 l -28.974976 288.16425 l 11.302734 -25.348694 l 9.570801 -26.356445 l -48.696228 99.441284 l 14.757874 -23.334167 l -31.310669 45.76538 l 0.0 0.0 l 0.0 0.0 l 0.0 0.0 l -20.440369 20.904358 l -22.434998 20.211426 l -290.73657 154.32819 l -15.35498 6.281555 l -15.418274 6.307495 l 46.278503 -18.932068 l 15.286499 -6.253601 l 15.426697 -6.310913 l -107.77283 44.08893 l 15.35553 -6.2818604 l -30.774536 12.5896 l -28.576233 15.1293335 l -25.182983 15.989136 l 244.34381 -109.651245 l -36.589233 15.534668 l 0.0 0.0 l 0.0 0.0 l 0.0 0.0 l -15.397644 6.299011 l -121.19983 -200.06592 l -14.888489 6.1952515 l -14.912109 6.205017 l -14.891907 6.1966553 l 0.0 0.0 l 0.0 0.0 l 0.0 0.0 l -60.228455 28.039307 l -53.893524 30.522095 l -47.547424 32.99817 " /> </g> </svg>