<?xml version="1.0" standalone="no"?><!DOCTYPE svg PUBLIC "-//W3C//DTD SVG 1.1//EN" "http://www.w3.org/Graphics/SVG/1.1/DTD/svg11.dtd" ><svg xmlns="http://www.w3.org/2000/svg" xmlns:xlink="http://www.w3.org/1999/xlink" version="1.1" viewBox="-10 0 692 1000"><g transform="matrix(1 0 0 -1 0 800)"><path stroke="black" fill="none" d="M 655.26654 738.15454 l 0.0 0.0 l 124.796875 -63.784363 l 0.0 0.0 l -37.711426 22.992859 l 0.0 0.0 l 76.44696 -55.19861 l 0.0 0.0 l 26.993347 -31.969421 l 0.0 0.0 l 18.013428 -32.614563 l 0.0 0.0 l 15.434387 -65.38086 l 0.0 0.0 l -19.507874 -111.66275 l 0.0 0.0 l -31.628601 -54.91681 l 0.0 0.0 l 180.77972 -18.190613 l 0.0 0.0 l -7.0045166 -11.430115 l -55.04242 -79.10074 l 0.0 0.0 l -47.265747 -40.368896 l 0.0 0.0 l 120.02936 10.441727 l 47.80005 -65.8 l 47.799927 -65.8 l 47.80005 -65.8 l -28.5 0.0 l -28.5 0.0 l -28.5 0.0 l -28.5 0.0 l -28.5 0.0 l -28.5 0.0 l -28.5 0.0 l -28.5 0.0 l -28.5 0.0 l -28.5 0.0 l -44.099976 63.2 l -14.852295 74.09575 l -19.956482 -9.276489 l 0.0 0.0 l -111.185974 131.21558 l 0.0 0.0 l 64.5896 19.171906 l 0.0 0.0 l -10.8914795 -170.7958 l 0.5726929 0.14533997 l -167.26941 160.34378 l -0.33813477 0.09591675 l 38.831482 111.00406 l -44.100037 63.19998 l -44.099976 63.200012 l -44.100006 63.200012 l -44.100006 63.200012 l -4.1999817 0.0 l -4.200012 0.0 l -4.200012 0.0 l -4.1999817 0.0 l -4.200012 0.0 l -4.1999817 0.0 l -4.200012 0.0 l -4.1999817 0.0 l -4.200012 0.0 l -4.200012 0.0 l 16.853241 -120.927704 l 0.0 0.0 l -0.7449951 14.831512 l -111.98074 -20.489136 l 0.0 0.0 l 55.499023 12.230896 l 0.0 0.0 l 69.53241 -64.399475 l 0.0 0.0 l 19.128601 -65.123474 l 0.0 0.0 l 31.973114 -51.002472 l 0.0 0.0 l -15.149811 16.40384 l 0.0 0.0 l 72.33148 -65.52481 l 0.0 0.0 l -14.49884 8.961731 l -122.94348 -44.160934 l 10.953522 -114.22 l 0.0 0.0 l -91.54117 62.610703 l 0.0 0.0 l 273.19043 -110.054276 l 0.0 0.0 l 72.86682 1.1111374 l 0.0 0.0 l -188.9552 18.386116 l 0.0 0.0 l -76.514404 -110.63368 l -23.299988 0.0 l -23.299988 0.0 l -23.300018 0.0 l -23.299988 0.0 l -23.300018 0.0 l -23.299988 0.0 l -23.300003 0.0 l -23.299988 0.0 l -23.300003 0.0 l -23.300003 0.0 l 0.0 154.4 l 109.89876 97.16986 l 0.0 0.0 l -48.273376 80.41232 l 0.0 0.0 l -30.918152 149.82281 l 0.0 0.0 l 3.2583008 -66.78491 l 0.0 0.0 l -33.96553 202.57993 l 0.0 154.39996 l 159.57607 150.20032 l 0.0 0.0 l -59.4328 85.859436 l 199.24146 87.64429 l 0.0 0.0 l -25.699738 118.251465 l 0.0 0.0 l -208.57762 -103.01526 l 0.0 0.0 l 15.474075 123.11987 l 0.0 0.0 l -80.581436 155.5398 l 0.0 154.40002 l 27.300003 0.0 l 27.300003 0.0 l 27.300003 0.0 l 27.299988 0.0 l 27.299988 0.0 l 27.300018 0.0 l -58.715332 -250.08252 l 0.0 0.0 l 11.301086 19.599731 l 89.52911 97.46594 l 0.0 0.0 l 39.785126 133.01685 l 114.16235 -57.19153 l -0.80999756 -0.24926758 l -45.646576 -14.724731 l 0.0 0.0 l 19.094208 71.0155 l -25.794678 -266.16028 l 0.0 0.0 l 124.93439 66.5188 l 0.0 0.0 l 24.692322 158.8219 l 3.9858398 0.33947754 l 0.0 0.0 l 30.282166 23.230103 l 26.152954 -24.319092 l 49.256042 -8.215942 l 46.825134 -13.167358 l 44.394104 -18.11853 l 28.871765 -10.929077 l 0.0 0.0 l 15.536438 -14.4071045 l 39.2406 -28.55371 l 36.844055 -33.448242 l 89.664856 -62.209473 l -0.016601562 -0.0053710938 l -16.545776 -12.648315 l 0.0 0.0 l -36.998474 17.291626 l -132.97064 -68.6344 l 0.0 0.0 l -99.75989 74.125 l 0.0 0.0 l -114.01691 24.545166 l 0.0 0.0 l 70.13977 -7.7591553 l 0.0 0.0 l 292.88257 -145.57593 l 4.5 -39.54004 l 0.0 0.0 l -0.94000244 -32.339966 l -2.8200073 -31.420044 l -4.700012 -30.5 l -6.580017 -29.579956 l -8.459961 -28.660034 l -10.340027 -27.73999 l -12.220032 -26.820007 l -14.099976 -25.900024 l -118.93988 -13.889404 l 0.7449341 -0.42321777 l 30.674683 -16.409119 l 53.923584 -36.645752 l 0.39471436 -0.2897339 l 152.96912 -248.94958 l 0.0 0.0 l -2.9796143 -151.72083 l 0.0 0.0 l -20.463135 237.67383 l 0.0 0.0 l -65.815125 106.995544 l 0.0 0.0 l -131.28925 17.878296 l -24.200012 -15.950012 l -129.4256 168.45581 l 0.0 0.0 l -128.03387 54.46631 l 0.0 0.0 l 188.81158 -79.86139 l 0.0 0.0 l -20.784058 8.598816 l -177.09015 -176.49188 l 0.0 0.0 l -37.58203 17.686157 l -119.11731 68.865234 l -1.5367126 1.0419312 " /> </g> </svg>