<?xml version="1.0" standalone="no"?><!DOCTYPE svg PUBLIC "-//W3C//DTD SVG 1.1//EN" "http://www.w3.org/Graphics/SVG/1.1/DTD/svg11.dtd" ><svg xmlns="http://www.w3.org/2000/svg" xmlns:xlink="http://www.w3.org/1999/xlink" version="1.1" viewBox="-10 0 692 1000"><g transform="matrix(1 0 0 -1 0 800)"><path stroke="black" fill="none" d="M 665.9382 733.71405 l -14.476929 6.023926 l -29.85968 12.424805 l 14.763916 -6.1433105 l 145.78741 -67.6676 l 8.634644 -5.2753296 l 16.055786 -10.770569 l -7.3601685 5.2128296 l -0.0006713867 0.00048828125 l 0.0 0.0 l 0.00012207031 -6.1035156e-05 l -35.985962 21.503296 l 9.208801 -5.150879 l -19.417236 10.623413 l -9.828613 5.0546265 l -62.253723 27.811218 l 14.767212 -6.1447144 l 25.857483 -11.199036 l -10.764404 4.912781 l 21.691345 -10.094788 l 89.41583 -54.271057 l -7.0042114 5.534607 l 14.319092 -11.651978 l 6.4593506 -5.730835 l 18.214355 -18.269348 l -5.5689087 5.9699707 l -6.1243896 6.154602 l 17.266052 -18.511047 l 0.0 0.0 l 6.1035156e-05 -6.1035156e-05 l 0.00012207031 -0.00018310547 l 8.4730835 -11.636047 l -3.0645752 4.3970947 l 8.42926 -12.627747 l 3.9650269 -6.712097 l 3.8259277 -7.081299 l 3.4309692 -6.9803467 l 10.916931 -29.780151 l 1.8519897 -7.7783203 l -3.9909058 15.562012 l 0.0 0.0 l 0.0 0.0 l 0.0 0.0 l -2.7210693 7.642639 l -2.786255 6.9851074 l 12.449219 -46.083374 l -1.2905273 7.673279 l 3.9315796 -32.867706 l -0.5598755 7.728485 l -0.88604736 8.669342 l 1.9879761 -34.669403 l 0.0 0.0 l 0.0 9.1552734e-05 l 0.0 0.00024414062 l -0.12402344 8.8524475 l -2.0315552 -30.033783 l -8.61792 -40.067963 l 4.9921265 19.482544 l -11.541809 -38.5755 l -7.848938 -17.947632 l -9.596008 -17.711517 l -10.523621 -16.12677 l -12.264465 -15.81546 l -29.138672 -27.38388 l 15.414917 12.333588 l 0.0 0.0 l 0.0 0.0 l 0.0 0.0 l 230.77844 78.93988 l -12.754272 -35.86728 l -33.99463 -67.30469 l 18.327026 32.742462 l -39.76764 -64.47131 l -24.098877 -29.96901 l 0.0 0.0 l 0.0 0.0 l 0.0 0.0 l -29.338745 -26.637726 l -30.598816 -23.744797 l -32.09558 -21.02948 l -33.462402 -18.212555 l -34.729614 -15.364433 l -144.49518 131.789 l 0.0 0.0 l 0.0 0.0 l 0.0 0.0 l -25.539856 2.9909668 l 67.5329 -0.08331299 l -20.521667 -2.1725464 l 95.68231 25.39743 l -17.24524 -7.810547 l 34.393616 17.36139 l -72.161804 -29.094177 l 19.049805 5.067627 l -10.462158 -165.8522 l 37.541504 9.7925415 l -158.20056 152.40637 l -22.960876 6.9941406 l -158.40765 260.7622 l 0.0 0.0 l 0.0 0.0 l 0.0 0.0 l 3.4363708 -26.334534 l -26.996155 21.142761 l -118.16626 -26.03592 l -23.393005 -5.1543884 l 47.095886 10.377075 l 24.059875 5.3013 l 23.010925 5.070221 l 23.735107 5.2297974 l 54.602386 -40.766937 l 4.3652954 -22.818726 l 4.9885254 -21.732635 l 5.216675 -19.114899 l 5.8886414 -18.133118 l 6.3111877 -16.257782 l 45.499695 -63.506104 l -16.32898 16.947327 l -22.352112 31.921722 l 7.26593 -12.89505 l 0.0 0.0 l 0.0 0.0 l 0.0 0.0 l 68.19202 -64.01715 l 20.278687 -10.966949 l -39.325073 23.98059 l -58.21112 -183.62378 l -32.427765 13.060829 l -60.65741 33.231018 l 29.478577 -17.71698 l -57.938507 38.043015 l 0.0 0.0 l 0.0 1.5258789e-05 l -3.0517578e-05 3.0517578e-05 l -24.779144 24.71936 l 252.34131 -116.355736 l 38.013977 -3.5619507 l 39.524536 -1.1923218 l 0.0 0.0 l 0.0 0.0 l 6.1035156e-05 0.0 l 40.30597 4.1975403 l -154.66632 6.5265274 l -35.222168 8.311676 l -224.15439 157.43913 l 20.898712 -28.57994 l -39.970062 59.26909 l -17.03209 32.45764 l -1.8599396 159.89825 l -23.862122 -5.255432 l -23.000565 -5.067871 l 9.154617 -40.297333 l 24.40686 -74.72696 l -13.161682 36.331116 l 104.767944 542.4574 l 34.794342 -37.877747 l -63.502655 78.625244 l -22.038818 42.624634 l 186.40048 114.113525 l 8.336212 -20.243774 l 45.271027 -55.88745 l -18.631683 17.976196 l -14.734039 18.164062 l -25.309631 61.356934 l 0.22912598 37.60913 l -1.9092102 -15.471436 l 0.0 0.0 l 0.0 0.0 l 0.0 0.0 l -203.71721 -30.247925 l -1.3227844 -34.041748 l 0.0 0.0 l 0.0 0.0 l 0.0 0.0 l 9.4897 -47.77307 l -4.154419 115.15967 l 6.6850586 32.049072 l 9.239899 30.578125 l 11.995392 29.745483 l 14.71817 28.668701 l 17.161255 27.186157 l 42.59439 51.414795 l 0.0 0.0 l 0.0 0.0 l -3.0517578e-05 0.0 l -22.563934 -25.058838 l 49.76776 47.44055 l 190.82852 84.99487 l -35.02472 -8.25415 l -97.5163 -39.03662 l -29.625732 -17.567017 l 61.52011 33.235718 l 31.676544 12.670654 l -36.365753 -232.2384 l 8.762146 15.954346 l 5.987335 9.182617 l -20.559723 -39.142212 l -4.436798 -14.300415 l 45.843018 77.94226 l -10.586304 -11.324585 l 36.491516 31.813354 l -13.52533 -9.170288 l 0.0 0.0 l 0.0 0.0 l 0.00012207031 0.00012207031 l 28.324951 17.639404 l 14.975525 7.086426 l 50.447388 171.4148 l 37.630188 3.5379639 l 0.0 0.0 l 0.0 0.0 l 0.0 0.0 l 52.2312 -2.599121 l 49.88965 -7.800171 l 47.5495 -13.000122 l 45.209473 -18.200073 l 42.87097 -23.401245 l 40.529175 -28.599976 l 38.189148 -33.799683 l 93.85736 -61.170654 l -36.94989 -22.373169 l 12.075378 0.33532715 l 5.9697266 10.82312 l -56.31073 -33.349487 l 18.435791 10.922607 l -1.2444458 55.682617 l -91.97449 -110.93005 l 17.378357 10.298218 l 20.380249 12.0772705 l 17.318909 10.262939 l -75.71069 -44.70349 l -0.0993042 -0.028808594 l -26.626831 3.0771484 l 8.305908 -13.998413 l 0.0 0.0 l -0.003540039 0.0059814453 l -49.565247 73.25134 l 7.3359985 -9.135498 l 20.609924 -28.98462 l -9.502869 13.956909 l -30.892883 38.440063 l -10.296204 10.364746 l -8.918335 7.9678955 l -31.400269 19.392944 l -11.078308 4.6434326 l -12.180115 4.225952 l 44.597168 -20.463745 l 0.0 0.0 l 0.0 0.0 l -6.1035156e-05 0.00012207031 l -10.270081 6.067993 l -191.87006 11.890747 l 16.286804 4.9072266 l 17.465088 3.915039 l 17.26355 2.6746826 l 37.637085 2.223877 l 0.0 0.0 l 6.1035156e-05 0.0 l 6.1035156e-05 0.0 l 14.721985 -0.94677734 l -33.747314 0.39770508 l 49.178772 -2.1534424 l 12.524414 -2.0373535 l 13.526672 -2.9329834 l 93.819885 -419.26538 l 32.526672 -16.862976 l 30.533386 -17.545898 l 28.526062 -18.226685 l 26.469177 -18.870178 l 140.47223 -210.06104 l 6.045166 -28.125793 l 4.3754883 -29.546082 l 2.5952148 -30.142822 l 0.0 0.0 l 0.0 0.0 l 0.0 0.0 l -1.4439697 -42.083344 l -4.2301025 -40.0972 l -7.1002197 -38.919952 l -28.92212 287.99692 l 11.225708 -25.175476 l 9.579224 -26.371887 l -48.44281 99.02875 l 14.415222 -22.792114 l -31.210815 45.608948 l 0.0 0.0 l 6.1035156e-05 0.0 l 0.0 0.0 l -20.551086 21.003784 l -22.27539 20.067749 l -291.01978 154.4685 l -14.875183 6.085266 l -15.613525 6.387329 l 47.115723 -19.274597 l 14.077209 -5.75885 l 15.710693 -6.427124 l -107.48303 43.970398 l 14.881775 -6.0880127 l -30.503845 12.478882 l -28.748718 15.228088 l -25.001648 15.874023 l 244.2779 -109.61157 l -36.581604 15.531494 l 0.0 0.0 l 0.0 0.0 l 0.0 6.1035156e-05 l -15.371826 6.288452 l -121.304504 -200.02258 l -14.766541 6.14447 l -15.040588 6.258484 l -14.806091 6.1609497 l 0.0 0.0 l 0.0 0.0 l 0.0 0.0 l -60.211853 28.03186 l -53.931183 30.54425 l -47.51996 32.979126 " /> </g> </svg>