<?xml version="1.0" standalone="no"?><!DOCTYPE svg PUBLIC "-//W3C//DTD SVG 1.1//EN" "http://www.w3.org/Graphics/SVG/1.1/DTD/svg11.dtd" ><svg xmlns="http://www.w3.org/2000/svg" xmlns:xlink="http://www.w3.org/1999/xlink" version="1.1" viewBox="-10 0 692 1000"><g transform="matrix(1 0 0 -1 0 800)"><path stroke="black" fill="none" d="M 665.06573 734.0771 l -9.967651 4.147583 l -30.495728 12.689453 l 13.31311 -5.539612 l 147.57166 -68.65442 l 0.04852295 -0.029785156 l 5.9715576 -3.6503296 l 11.374634 -7.3131104 l -0.8043823 0.5698242 l 0.0 0.0 l -34.56714 20.781494 l 5.8927 -3.2955933 l -20.027588 10.873352 l -6.297058 3.2388916 l -62.82605 28.19757 l 13.352173 -5.555603 l 24.125427 -10.389587 l -6.9752197 3.1837158 l 19.254883 -8.973389 l 88.35864 -53.163147 l -3.6918945 2.9193726 l 14.309631 -11.779724 l 3.9483643 -3.5021362 l 18.10083 -17.9422 l -3.4796143 3.7312012 l -6.6501465 6.7371826 l 17.209045 -18.537903 l 0.0 0.0 l 0.024414062 -0.032470703 l 5.3806763 -7.246704 l 0.0 0.0 l 8.585022 -12.965393 l 3.1663818 -5.3501587 l -0.0028076172 0.004699707 l 4.531189 -8.378052 l 2.9092407 -5.918457 l 11.256592 -30.79419 l 1.6070557 -6.7473755 l -3.90271 15.179138 l 0.0 0.0 l -0.00018310547 0.0004272461 l -0.0024414062 0.0065307617 l -3.5734863 9.772522 l -1.3614502 3.4160156 l 11.268982 -41.003906 l -0.39038086 2.3275146 l 3.2020264 -25.065338 l -0.016967773 0.24276733 l -0.8522339 8.672699 l 1.8533936 -32.83313 l 0.0 0.0 l -0.0006713867 0.04486084 l -0.10662842 7.593689 l -1.9949951 -28.741913 l 0.004699707 0.056884766 l -8.387268 -39.570038 l 4.4818726 17.484558 l -11.774231 -38.74066 l -7.0911255 -16.216919 l -12.111755 -21.777344 l -7.577942 -11.616638 l -12.525635 -16.300018 l -28.591187 -27.211975 l 14.394287 11.51358 l 0.00048828125 0.00039672852 l 0.0 0.0 l -6.1035156e-05 -9.1552734e-05 l 230.66241 78.624115 l -12.480347 -35.092133 l -33.08496 -65.86279 l 16.910278 30.21112 l -39.849304 -64.37872 l -23.659973 -29.424759 l 0.0 0.0 l 0.0 1.5258789e-05 l 0.0 3.0517578e-05 l -29.858948 -27.04071 l -29.840393 -23.156479 l -32.5813 -21.343567 l -33.80774 -18.346375 l -33.872986 -14.985565 l -144.80005 131.67638 l 0.0 0.0 l -0.0008544922 0.00010681152 l -0.024658203 0.0029754639 l -24.623108 2.887146 l 65.32599 -0.11895752 l -18.728271 -1.9864044 l 91.76373 23.771683 l -12.078857 -5.4719543 l 30.91504 15.671112 l -69.623535 -27.96637 l 0.69628906 0.19155884 l 16.64618 4.4246826 l -9.312134 -165.55635 l 37.23761 9.713112 l -158.20667 152.47427 l -22.757019 6.9317627 l -158.48776 260.7742 l 0.0 0.0 l 3.0517578e-05 -0.00018310547 l 0.00012207031 -0.0010986328 l 3.3960876 -26.050049 l -26.52884 20.95819 l -119.93808 -26.41806 l -21.187195 -4.668335 l 45.98651 10.132599 l 28.960571 6.381134 l 16.733002 3.6869202 l 25.175385 5.54718 l 55.053772 -42.119263 l 3.9954224 -20.886993 l 6.1452026 -26.129944 l 3.689148 -13.5190735 l 6.407318 -19.978363 l 6.217041 -16.020752 l 45.283203 -63.358 l -15.785034 16.386261 l -22.48117 31.939728 l 7.1148376 -12.627289 l 0.0 0.0 l -3.0517578e-05 3.0517578e-05 l -3.0517578e-05 6.1035156e-05 l 68.53406 -64.20184 l 19.62561 -10.614716 l -38.953125 23.773926 l -58.86258 -183.34457 l -31.657928 12.749893 l -59.137604 32.28267 l 27.118896 -16.299347 l -57.35916 37.724915 l 0.0 0.0 l -0.0027160645 0.002746582 l -0.50909424 0.50927734 l -23.649475 23.59224 l 252.46133 -115.88404 l 37.09796 -3.476204 l 39.798096 -1.2157288 l 0.0 0.0 l 0.00024414062 2.2888184e-05 l 0.0012207031 0.0001296997 l 40.036926 4.1698 l -155.05353 6.7027817 l -34.393158 8.116356 l -223.98785 157.00362 l 20.352173 -27.833267 l -40.077515 59.578873 l -16.627838 31.686584 l -3.777542 159.66678 l -26.65538 -5.8461304 l -16.612595 -3.659912 l 7.498703 -40.375336 l 24.053757 -74.375275 l -12.859833 35.49063 l 105.278854 542.00275 l 33.988007 -37.000732 l -64.5965 81.02557 l -20.427795 39.477966 l 186.40576 113.937256 l 0.16915894 -0.38049316 l 7.4874268 -18.19934 l 44.322876 -55.539795 l -20.248383 20.279297 l -10.621185 13.092041 l -26.477844 63.030273 l 0.1131897 36.427612 l -0.035186768 -0.28881836 l -1.756134 -14.216675 l 0.0 0.0 l 6.1035156e-05 0.00048828125 l -203.79716 -32.273193 l -1.2434998 -31.980225 l 0.0 0.0 l 6.1035156e-05 0.0014648438 l 9.27095 -46.689575 l -0.041748047 0.22131348 l -3.7333374 114.50696 l 7.0586853 33.105957 l 8.492706 28.106445 l 12.266052 30.550049 l 15.657806 30.147217 l 15.789429 25.013184 l 42.892487 51.923218 l 0.0 0.0 l -0.002380371 -0.0026855469 l -0.41500854 -0.4613037 l -21.587646 -23.97461 l 48.784485 46.487427 l 191.133 85.36743 l -34.755737 -8.19165 l -99.288666 -40.068115 l -27.235474 -16.148804 l 67.06296 35.322144 l 23.433746 9.373779 l -34.08249 -230.94287 l 0.090667725 0.16137695 l 13.008331 22.363525 l 0.0 0.0 l -19.44461 -37.86487 l -3.9765015 -12.812988 l 43.317627 74.7688 l -7.456238 -7.963745 l 32.88437 29.079102 l -0.036376953 -0.024658203 l -10.444946 -7.079468 l 0.0 0.0 l 29.007935 17.909546 l 13.5425415 6.409912 l 51.165283 171.67761 l 37.419434 3.5178223 l 0.0 0.0 l 0.0 0.0 l 0.0 0.0 l 52.243774 -2.590332 l 49.885376 -7.8029785 l 47.544617 -13.001221 l 45.20398 -18.199463 l 42.881348 -23.414307 l 40.520508 -28.59961 l 38.180115 -33.797363 l 93.82916 -61.177734 l -27.890625 -22.08728 l 0.45861816 0.009643555 l 8.47644 10.706299 l -52.163147 -30.6792 l 13.489624 7.965332 l -0.5462036 54.751465 l -79.02069 -101.979004 l 1.2301636 0.7290039 l 36.087402 21.385132 l 0.8175049 0.48449707 l -77.23865 -43.881226 l 0.0 0.0 l -13.077454 -8.193237 l 0.0 0.0 l -43.272034 64.739136 l 0.0 0.0 l 14.781128 -20.13501 l -0.6040039 0.8996582 l -35.48346 43.792114 l -13.985657 13.399658 l -0.2949829 0.26428223 l -35.319214 21.989014 l -0.17053223 0.07080078 l -6.9470825 2.906372 l -13.779907 4.9282227 l 44.099792 -20.266602 l 0.0 0.0 l -0.0009765625 0.00061035156 l -0.04437256 0.026000977 l -9.971924 5.8911133 l -191.01898 12.324219 l 14.761353 4.451294 l 21.462646 4.6085205 l 12.079346 1.8717041 l 39.56024 2.4627686 l 0.0 0.0 l 0.01586914 -0.0010986328 l 12.241333 -0.78808594 l -31.054504 0.265625 l 0.045837402 0.0007324219 l 57.96515 -3.6826172 l 0.5010376 -0.08105469 l 15.864075 -3.2954102 l -0.025024414 0.005126953 l 94.37689 -419.43353 l 32.27777 -16.734558 l 30.569214 -17.55603 l 28.697083 -18.350647 l 26.247498 -18.712524 l 140.92194 -211.8299 l 5.5667725 -25.896912 l 4.647705 -31.901855 l 2.4370117 -28.295288 l 0.0 0.0 l 0.0 0.00024414062 l -0.00012207031 0.0014648438 l -1.6989746 -44.47818 l -3.9110107 -37.083313 l -7.102417 -39.132538 l -28.304688 286.04608 l 10.325806 -23.155579 l 9.678223 -26.552612 l -45.488586 94.22009 l 10.421204 -16.473755 l -30.027893 43.759766 l 0.0 0.0 l 0.0004272461 -0.0005493164 l 0.009216309 -0.013183594 l -21.86969 22.202576 l -20.41449 18.392212 l -294.32135 156.10443 l -0.37054443 0.15161133 l -8.911255 3.6455078 l -17.889038 7.3182373 l 56.874634 -23.266907 l 0.6588745 -0.26953125 l 18.34253 -7.503784 l -0.03869629 0.015808105 l -104.06549 42.57263 l 9.358887 -3.8287964 l -27.348145 11.188171 l -30.759705 16.380554 l -22.888123 14.531006 l 243.5102 -109.14899 l -36.537598 15.513184 l 0.0 0.0 l -0.0010986328 0.0004272461 l -0.05328369 0.02178955 l -14.972351 6.125061 l -122.524414 -199.51703 l -13.345093 5.5530396 l -16.538025 6.881592 l -13.794678 5.7401123 l -0.0015258789 0.00061035156 l 0.0 0.0 l 0.00012207031 -6.1035156e-05 l -60.028137 27.94928 l -54.370056 30.802185 l -47.199738 32.756714 " /> </g> </svg>