<?xml version="1.0" standalone="no"?><!DOCTYPE svg PUBLIC "-//W3C//DTD SVG 1.1//EN" "http://www.w3.org/Graphics/SVG/1.1/DTD/svg11.dtd" ><svg xmlns="http://www.w3.org/2000/svg" xmlns:xlink="http://www.w3.org/1999/xlink" version="1.1" viewBox="-10 0 692 1000"><g transform="matrix(1 0 0 -1 0 800)"><path stroke="black" fill="none" d="M 662.76196 735.0357 l -0.40063477 0.16668701 l -29.834473 12.414368 l 9.481995 -3.9454956 l 151.05865 -70.51758 l 0.0 0.0 l 0.34191895 -0.21148682 l 14.276733 -8.994812 l 0.0 0.0 l -29.590576 18.004028 l 0.16192627 -0.09039307 l -24.64038 13.213806 l -0.16522217 0.08520508 l -61.15442 27.582458 l 9.615295 -3.999817 l 19.554688 -8.253662 l -0.1942749 0.08880615 l 16.042908 -7.4816284 l 87.45953 -51.734253 l -0.0413208 0.032836914 l 17.26941 -14.445618 l 0.087890625 -0.077697754 l 15.308899 -14.875366 l -0.10736084 0.115722656 l -5.9526978 6.0427856 l 19.272644 -21.55072 l 0.0 0.0 l 0.35620117 -0.4725952 l 11.821716 -17.82727 l 1.062439 -1.762085 l 0.0 0.0 l 6.378174 -11.776794 l 1.5314331 -3.1143188 l 12.1536255 -33.471985 l 0.96014404 -4.0249634 l -3.7441406 14.367371 l 0.0 0.0 l -0.0048217773 0.012878418 l -4.6395874 12.41095 l -0.018188477 0.045837402 l 10.7873535 -38.7854 l -0.003112793 0.018615723 l 2.8444214 -21.404816 l 0.0 0.0 l -0.2574463 2.2445984 l 1.4425659 -24.092133 l 0.0 0.0 l -0.011962891 0.8880005 l -1.8931885 -25.691223 l 0.0009765625 0.01171875 l -7.762024 -38.059784 l 3.1345825 12.208374 l -12.388184 -39.17679 l -5.089966 -11.646545 l -18.755005 -32.51425 l -0.4293213 -0.66815186 l -12.585205 -16.61789 l -27.14563 -26.758026 l 11.641602 9.303009 l 0.0021972656 0.0017700195 l 0.0 0.0 l 230.41278 77.83472 l -0.06762695 -0.17654419 l -11.688965 -32.86859 l -30.682922 -62.055115 l 13.168884 23.52649 l -40.06482 -64.1342 l -22.493713 -27.978363 l 0.0 0.0 l 0.00012207031 0.00016784668 l 0.0008544922 0.0010681152 l -31.240784 -28.115143 l -27.837585 -21.60289 l -33.864197 -22.173035 l -34.719666 -18.699753 l -31.61084 -13.985039 l -145.93054 131.41827 l 0.0 0.0 l -0.029174805 0.0035247803 l -21.94049 2.5813446 l 59.498108 -0.21298218 l -13.992371 -1.4949036 l 81.41583 19.478485 l -0.48651123 -0.22229004 l 23.779602 12.133423 l -62.92041 -24.988037 l 0.12866211 0.035369873 l 12.7052 3.3888245 l -6.2753296 -164.77502 l 36.43512 9.503372 l -158.22278 152.65367 l -22.218811 6.7669373 l -158.68723 260.70554 l 0.0 0.0 l 0.00045776367 -0.00390625 l 3.277771 -25.199188 l -25.294678 20.470856 l 0.23736572 0.047729492 l -124.85446 -27.474976 l -15.362122 -3.3848572 l 43.056824 9.487091 l 41.90216 9.232666 l 0.9495239 0.20922852 l 28.183838 6.210022 l -0.04837036 -0.010681152 l 56.294098 -45.67981 l 3.0187073 -15.785706 l 9.1996765 -37.742188 l 0.15969849 -0.5873413 l 7.2726135 -23.005615 l 5.968445 -15.394928 l -0.009857178 0.02633667 l 44.721558 -62.993134 l -1.7132568 1.7936401 l -12.635498 13.110901 l -22.82196 31.987274 l 6.6922607 -11.878235 l 0.014129639 -0.025115967 l 0.0 0.0 l -0.00021362305 0.00033569336 l 69.44678 -64.70633 l 17.900879 -9.684601 l -37.970825 23.228119 l -60.582855 -182.60721 l -29.62503 11.92881 l -55.124176 29.77829 l 20.887573 -12.555679 l -56.496613 37.55249 l 0.0 0.0 l -0.14920044 0.14927673 l -21.713135 21.662903 l 252.77835 -114.63841 l 34.678894 -3.2497559 l 40.62561 -1.26651 l 0.0 0.0 l 0.004211426 0.00045013428 l 0.8609619 0.090538025 l 38.36139 3.9950867 l -156.07593 7.168213 l -32.20395 7.6005554 l -223.54816 155.85356 l 18.908905 -25.861496 l -40.361267 60.396866 l -15.560318 29.650482 l -8.841446 159.05542 l -34.031693 -7.4059753 l -0.8360901 -0.18304443 l 4.2184296 -40.34018 l 0.05480957 0.1368103 l 23.066467 -73.58325 l -12.062744 33.271088 l 106.62799 540.8023 l 31.858765 -34.684875 l -67.48517 87.364136 l -16.173462 31.168274 l 186.41977 113.47186 l 0.03048706 -0.068725586 l 5.83136 -14.117065 l 41.819 -54.62146 l -24.517609 26.361328 l -0.52182007 0.63916016 l -28.801178 66.507935 l 0.00036621094 0.07727051 l -0.19329834 33.230347 l -0.0047912598 -0.03942871 l -1.4505005 -11.7229 l 0.0 0.0 l -204.03279 -37.812256 l -1.0144348 -26.045044 l 0.0 0.0 l 8.673813 -44.31421 l -0.0045166016 0.024047852 l -2.7688599 113.56531 l 8.045258 35.89673 l 6.5196533 21.579224 l 12.980774 32.67505 l 18.13916 34.051147 l 12.166779 19.275024 l 43.081482 52.60083 l 0.0 0.0 l -0.1274414 -0.14160156 l -19.803467 -21.994019 l 46.187927 43.970337 l 191.93695 86.35132 l -34.045288 -8.026733 l -103.969025 -42.791504 l -20.923462 -12.403931 l 81.700195 40.831787 l 1.7466736 0.6994629 l -28.133057 -227.55359 l 0.02017212 0.035888672 l 11.562195 19.842651 l -19.341736 -38.74292 l -2.7609253 -8.885254 l 36.64868 66.388306 l -0.40908813 -0.40942383 l 24.797302 23.328247 l 0.0 0.0 l -0.7019043 -0.47375488 l 28.85028 17.299927 l 9.758301 4.623291 l 53.06128 172.37183 l 36.861694 3.4643555 l 0.0 0.0 l 0.0 0.0 l -6.1035156e-05 0.0 l 52.2782 -2.5668945 l 49.874084 -7.810425 l 47.53174 -13.00415 l 45.189514 -18.197998 l 42.90863 -23.44873 l 40.49762 -28.598877 l 38.15619 -33.791016 l 93.75464 -61.196167 l -26.98291 -21.803223 l 0.0 0.0 l 7.8931885 10.017944 l -41.210083 -23.62732 l 0.9567261 0.47802734 l 0.76885986 51.970093 l -71.31543 -94.04602 l 0.0 0.0 l 27.438171 16.259644 l 0.0 0.0 l -82.95239 -48.126953 l 0.0 0.0 l -44.91736 59.8125 l 6.632202 -8.805786 l 0.0 0.0 l -37.884094 43.976562 l -5.545471 5.1173096 l 0.0 0.0 l -37.91693 23.59253 l 0.0 0.0 l -0.14837646 0.060180664 l -17.97168 6.769043 l 42.43109 -19.537231 l 0.0 0.0 l -0.038391113 0.022460938 l -8.955872 5.2894287 l -188.77148 13.46936 l 10.732788 3.2471924 l 32.01941 6.4398193 l 0.520874 0.08105469 l 44.701416 2.6209717 l 0.0 0.0 l 3.553772 -0.23046875 l -23.943542 -0.08312988 l 0.010437012 0.00012207031 l 57.716614 -3.8964844 l 0.0 0.0 l 14.394348 -2.9891357 l -0.007385254 0.0015869141 l 95.76404 -419.86053 l 31.620728 -16.395569 l 30.663818 -17.58252 l 29.14856 -18.6781 l 25.662048 -18.296143 l 142.10956 -216.50116 l 4.303711 -20.010864 l 5.366577 -38.122986 l 2.0089111 -23.302063 l 0.0 0.0 l -0.00036621094 0.004760742 l -2.3623047 -50.9151 l -3.0683594 -29.12439 l -7.1081543 -39.69397 l -26.674194 280.8944 l 7.949341 -17.821655 l 9.939575 -27.029724 l -37.687256 81.52173 l 0.47998047 -0.7503052 l -27.346802 39.604553 l 0.0 0.0 l 0.013061523 -0.018676758 l -25.493164 25.57074 l -15.500244 13.967468 l -297.49695 158.15686 l 0.0 0.0 l -0.10003662 0.04095459 l -23.852356 9.757751 l 56.594543 -23.152283 l 0.0 0.0 l 16.568054 -6.777832 l -0.009216309 0.0037231445 l -95.183716 38.940002 l 0.12322998 -0.05041504 l -24.352234 9.96283 l -36.07025 19.42389 l -17.306702 10.984375 l 241.4826 -107.92749 l -36.815674 15.62616 l 0.0 0.0 l -0.043884277 0.017944336 l -13.677124 5.595154 l -125.74585 -198.182 l -9.591431 3.9910278 l -20.492493 8.5271 l -11.039429 4.593628 l -0.006225586 0.0025634766 l 0.0 0.0 l -59.62613 27.765747 l -55.52893 31.48346 l -46.354156 32.16931 " /> </g> </svg>