<?xml version="1.0" standalone="no"?><!DOCTYPE svg PUBLIC "-//W3C//DTD SVG 1.1//EN" "http://www.w3.org/Graphics/SVG/1.1/DTD/svg11.dtd" ><svg xmlns="http://www.w3.org/2000/svg" xmlns:xlink="http://www.w3.org/1999/xlink" version="1.1" viewBox="-10 0 692 1000"><g transform="matrix(1 0 0 -1 0 800)"><path stroke="black" fill="none" d="M 665.99603 733.68994 l -14.776123 6.1484375 l -29.817444 12.407227 l 14.860168 -6.1833496 l 145.669 -67.60211 l 8.8081665 -5.3811646 l 16.366333 -11.0 l -7.7678223 5.501587 l 0.0 0.0 l 0.0 0.0 l 0.0 0.0 l -36.108032 21.570984 l 9.428894 -5.273987 l -19.37677 10.606812 l -10.062988 5.17511 l -62.2157 27.785583 l 14.861084 -6.183777 l 25.972412 -11.252747 l -11.015808 5.027527 l 21.852966 -10.169189 l 89.48596 -54.344604 l -7.223938 5.70813 l 14.319702 -11.643494 l 6.6259766 -5.878723 l 18.221924 -18.291077 l -5.7075806 6.1185303 l -6.0894775 6.115967 l 17.286133 -18.530945 l 0.0 0.0 l 0.0 0.0 l 0.0 0.0 l 9.185547 -12.657715 l -4.1503296 5.954773 l 8.776306 -13.117249 l 4.0180054 -6.80249 l 3.7792969 -6.9955444 l 3.4656372 -7.0508423 l 10.894348 -29.71289 l 1.8682861 -7.8466797 l -3.9973145 15.588867 l 0.0 0.0 l 0.0 0.0 l 0.0 0.0 l -2.6637573 7.4993896 l -2.8808594 7.221924 l 12.527588 -46.42041 l -1.3502808 8.028076 l 3.9799805 -33.38553 l -0.60595703 8.362427 l -0.87823486 8.531921 l 1.996521 -34.762512 l 0.0 0.0 l 0.0 0.0 l 0.0 3.0517578e-05 l -0.12475586 8.904572 l -2.0339355 -30.119507 l -8.633545 -40.104767 l 5.02594 19.615112 l -11.526367 -38.564545 l -7.89917 -18.06247 l -9.429138 -17.441711 l -10.719055 -16.426025 l -12.247131 -15.783356 l -29.174988 -27.395264 l 15.482178 12.387634 l 0.0 0.0 l 0.0 0.0 l 0.0 0.0 l 230.78656 78.96118 l -12.772461 -35.9187 l -34.054993 -67.40039 l 18.421082 32.91043 l -39.762268 -64.47745 l -24.12793 -30.005066 l 0.0 0.0 l 0.0 0.0 l 0.0 0.0 l -29.304321 -26.611053 l -30.649109 -23.783829 l -32.063354 -21.008636 l -33.439514 -18.203674 l -34.786438 -15.38958 l -144.4773 131.79675 l 0.0 0.0 l 0.0 0.0 l -6.1035156e-05 0.0 l -25.596558 2.9973755 l 67.67932 -0.080963135 l -20.640686 -2.184906 l 95.94232 25.50531 l -17.588013 -7.9657288 l 34.62439 17.473572 l -72.3302 -29.169006 l 19.163086 5.0975647 l -10.538452 -165.87186 l 37.561707 9.797813 l -158.2002 152.40186 l -22.974365 6.998291 l -158.40228 260.76065 l 0.0 0.0 l 0.0 0.0 l 0.0 0.0 l 3.4389343 -26.35254 l -27.02716 21.154968 l -118.048706 -26.01056 l -23.539368 -5.186615 l 47.169525 10.39328 l 23.73468 5.229645 l 23.42749 5.162018 l 23.639557 5.20874 l 54.57242 -40.677185 l 4.3898315 -22.94693 l 4.911804 -21.440857 l 5.317993 -19.486176 l 5.854248 -18.010712 l 6.3174133 -16.273499 l 45.51407 -63.51593 l -16.365082 16.984558 l -22.343536 31.920532 l 7.275879 -12.91272 l 0.0 0.0 l 0.0 0.0 l 0.0 0.0 l 68.16937 -64.005005 l 20.322021 -10.990326 l -39.34973 23.994324 l -58.167908 -183.64233 l -32.47882 13.081444 l -60.75827 33.293945 l 29.635162 -17.811035 l -57.981873 38.069046 l 0.0 0.0 l 0.0 0.0 l 0.0 0.0 l -24.815247 24.755295 l 252.33331 -116.38703 l 38.07483 -3.5676422 l 39.50714 -1.1906815 l 0.0 0.0 l 0.0 0.0 l 0.0 0.0 l 40.322998 4.1992874 l -154.64062 6.5148315 l -35.27719 8.324638 l -224.16544 157.46802 l 20.934967 -28.62947 l -39.96292 59.24852 l -17.058914 32.50882 l -1.7327118 159.9136 l -23.676773 -5.216217 l -23.424423 -5.161316 l 9.264496 -40.292145 l 24.430283 -74.750305 l -13.181702 36.38687 l 104.734055 542.48755 l 34.84784 -37.935913 l -63.430084 78.46594 l -22.145721 42.833435 l 186.40015 114.125244 l 8.381317 -20.354248 l 45.333893 -55.9104 l -18.524384 17.823242 l -15.006958 18.50061 l -25.232086 61.24597 l 0.2368164 37.6875 l -1.9168701 -15.534058 l 0.0 0.0 l 0.0 0.0 l 0.0 0.0 l -203.71208 -30.11499 l -1.3278961 -34.17505 l 0.0 0.0 l 0.0 0.0 l 0.0 0.0 l 9.504059 -47.84851 l -4.1795807 115.18823 l 6.660263 31.979004 l 9.289459 30.742065 l 11.9774475 29.692017 l 14.655823 28.570679 l 17.252289 27.330322 l 42.57022 51.37622 l 0.0 0.0 l 0.0 0.0 l -3.0517578e-05 -0.00012207031 l -22.596619 -25.095093 l 49.832977 47.503906 l 190.80835 84.97009 l -35.042603 -8.258301 l -97.39868 -38.96826 l -29.784332 -17.66101 l 61.152344 33.09729 l 32.22348 12.889404 l -36.517273 -232.32434 l 7.544403 14.091553 l 7.63678 11.712158 l -20.955902 -39.72046 l -4.467346 -14.39917 l 46.01059 78.152954 l -10.793976 -11.5477295 l 36.730896 31.994873 l -13.712891 -9.297607 l 0.0 0.0 l 0.0 0.0 l 0.0 0.0 l 28.26532 17.611816 l 15.070618 7.1313477 l 50.39972 171.39734 l 37.644165 3.5393066 l 0.0 0.0 l 0.0 0.0 l 0.0 0.0 l 52.230408 -2.5997314 l 49.889893 -7.800049 l 47.549805 -13.0 l 45.20984 -18.200073 l 42.8703 -23.40039 l 40.529785 -28.599976 l 38.18976 -33.799805 l 93.85925 -61.170288 l -37.551086 -22.39209 l 12.941345 0.35986328 l 5.708252 10.828003 l -56.585938 -33.526733 l 18.763977 11.118774 l -1.2907715 55.744507 l -92.833984 -111.52405 l 18.454346 10.935913 l 19.333496 11.456909 l 18.43695 10.925537 l -75.632385 -44.77173 l -28.652222 5.531494 l 9.904236 -16.677979 l 0.0 0.0 l -0.00018310547 0.00036621094 l -0.0012817383 0.0021972656 l -51.121216 75.21387 l 9.325806 -11.613647 l 20.602905 -29.080322 l -10.101868 14.8359375 l -30.579712 38.072266 l -10.051392 10.163452 l -9.577148 8.556274 l -31.053589 19.143433 l -11.3411255 4.7540283 l -12.073975 4.1793213 l 44.627563 -20.47522 l 0.0 0.0 l 0.0 0.0 l -6.1035156e-05 0.0 l -10.284241 6.076538 l -191.92657 11.861938 l 16.388062 4.9375 l 17.19983 3.8690186 l 17.607544 2.7279053 l 37.525635 2.2070312 l 0.0 0.0 l 0.0 0.0 l 0.0 0.0 l 14.869507 -0.95617676 l -33.925964 0.40649414 l 48.592712 -2.052002 l 13.405151 -2.180664 l 13.288635 -2.8955078 l 93.78461 -419.25452 l 32.54315 -16.871521 l 30.531006 -17.545227 l 28.51471 -18.218445 l 26.483887 -18.880676 l 140.44244 -209.94366 l 6.076782 -28.273682 l 4.357422 -29.38977 l 2.605713 -30.264587 l 0.0 0.0 l 0.0 0.0 l 0.0 0.0 l -1.427002 -41.925385 l -4.2512207 -40.29715 l -7.1000977 -38.905853 l -28.963013 288.12637 l 11.285278 -25.30951 l 9.572632 -26.359924 l -48.638733 99.34784 l 14.680237 -23.211365 l -31.288086 45.72998 l 0.0 0.0 l 0.0 0.0 l 0.0 0.0 l -20.465393 20.926819 l -22.398865 20.178894 l -290.80072 154.35999 l -15.246277 6.2370605 l -15.462524 6.3256226 l 46.46814 -19.009705 l 15.012573 -6.1414795 l 15.491028 -6.3372803 l -107.70715 44.062073 l 15.24823 -6.237915 l -30.713257 12.564514 l -28.615295 15.151672 l -25.141907 15.963135 l 244.32886 -109.642334 l -36.587463 15.533936 l 0.0 0.0 l 0.0 0.0 l 0.0 0.0 l -15.391785 6.296692 l -121.22357 -200.05615 l -14.860901 6.183777 l -14.941162 6.217102 l -14.872498 6.1885986 l 0.0 0.0 l 0.0 0.0 l 0.0 0.0 l -60.22467 28.037598 l -53.90207 30.5271 l -47.5412 32.993896 " /> </g> </svg>