<?xml version="1.0" standalone="no"?><!DOCTYPE svg PUBLIC "-//W3C//DTD SVG 1.1//EN" "http://www.w3.org/Graphics/SVG/1.1/DTD/svg11.dtd" ><svg xmlns="http://www.w3.org/2000/svg" xmlns:xlink="http://www.w3.org/1999/xlink" version="1.1" viewBox="-10 0 692 1000"><g transform="matrix(1 0 0 -1 0 800)"><path stroke="black" fill="none" d="M 665.74054 733.7963 l -13.455322 5.598877 l -30.003784 12.484741 l 14.435242 -6.006531 l 146.19159 -67.891174 l 0.19677734 -0.12097168 l 7.845581 -4.7929688 l 14.9953 -9.987305 l -5.932068 4.201416 l -0.0029907227 0.0021362305 l 0.0 0.0 l -35.60492 21.297546 l 8.457581 -4.730591 l -19.555481 10.680054 l -9.0286255 4.6433105 l -62.38336 27.898743 l 14.446655 -6.0112915 l 25.465088 -11.015625 l -9.906006 4.521057 l 21.139404 -9.840759 l 89.17633 -54.02008 l -6.253845 4.9421387 l 14.316956 -11.680908 l 5.890503 -5.225952 l 18.18866 -18.195251 l -5.095642 5.4628296 l -6.243469 6.286621 l 17.212769 -18.463562 l 0.0 0.0 l 0.0006713867 -0.00079345703 l 0.026855469 -0.035705566 l 5.998535 -8.092041 l -0.15112305 0.21704102 l 8.037842 -12.0946045 l 3.7841187 -6.4035645 l -0.007385254 0.012329102 l 3.9924316 -7.3863525 l 3.3128052 -6.739746 l 10.993835 -30.009888 l 1.7965698 -7.544739 l -3.9696045 15.471619 l 0.0 0.0 l 0.0 0.0 l -6.1035156e-05 0.00012207031 l -2.9160767 8.130249 l -2.463501 6.1765137 l 12.181885 -44.932617 l -1.0865479 6.461975 l 3.7662354 -31.099792 l -0.40264893 5.5641174 l -0.91259766 9.13855 l 1.9584961 -34.324585 l 0.0 0.0 l 0.0 0.001159668 l -0.00079345703 0.053588867 l -0.1204834 8.594116 l -2.0232544 -29.74112 l -8.564575 -39.94226 l 4.876465 19.029907 l -11.594421 -38.612915 l -7.677246 -17.555542 l -10.165955 -18.632599 l -9.856262 -15.1050415 l -12.323669 -15.925232 l -29.014648 -27.34494 l 15.1848755 12.148712 l 0.0 0.0 l 0.0 0.0 l 0.0 0.0 l 230.75116 78.86752 l -12.692261 -35.69168 l -33.788574 -66.97803 l 18.006104 32.169006 l -39.786194 -64.45035 l -23.999573 -29.845886 l 0.0 0.0 l 0.0 0.0 l 0.0 1.5258789e-05 l -29.456482 -26.728836 l -30.427002 -23.611526 l -32.205566 -21.100632 l -33.54065 -18.242874 l -34.535583 -15.278603 l -144.55829 131.76279 l 0.0 0.0 l -6.1035156e-05 0.0 l -0.00018310547 1.5258789e-05 l -25.343628 2.9688263 l 67.03296 -0.09140015 l -20.115417 -2.1303558 l 94.79462 25.029129 l -16.07483 -7.2807617 l 33.60553 16.978485 l -71.58679 -28.838684 l 18.663025 4.9653625 l -10.201599 -165.78519 l 37.472656 9.774544 l -158.20197 152.42175 l -22.914673 6.980011 l -158.42603 260.76672 l 0.0 0.0 l 0.0 0.0 l 0.0 0.0 l 3.4274902 -26.272156 l -26.89029 21.100952 l -118.56763 -26.122498 l -22.89331 -5.044281 l 46.844574 10.321686 l 25.170074 5.545929 l 21.588715 4.7568665 l 24.061401 5.301697 l 54.70465 -41.073303 l 4.281494 -22.381104 l 5.2505493 -22.72882 l 4.870636 -17.847198 l 6.006134 -18.551147 l 6.289856 -16.204071 l 45.450623 -63.472565 l -16.205719 16.82022 l -22.381348 31.925781 l 7.2318726 -12.834686 l 0.0 0.0 l 0.0 0.0 l -3.0517578e-05 0.0 l 68.26935 -64.058655 l 20.130737 -10.8871765 l -39.240845 23.933807 l -58.358673 -183.56055 l -32.253357 12.990387 l -60.31311 33.016174 l 28.944 -17.395828 l -57.795074 37.958786 l 0.0 0.0 l -0.00015258789 0.0001373291 l -0.00079345703 0.00077819824 l -24.650421 24.591309 l 252.3685 -116.24888 l 37.806458 -3.5425339 l 39.584595 -1.197815 l 0.0 0.0 l 6.1035156e-05 0.0 l 0.0 0.0 l 40.247253 4.1914825 l -154.75403 6.5664597 l -35.034393 8.267426 l -224.11667 157.34048 l 20.774933 -28.410797 l -39.994415 59.339264 l -16.940506 32.28299 l -2.2943726 159.8458 l -24.494904 -5.3892517 l -21.553421 -4.7489014 l 8.77948 -40.315002 l 24.326874 -74.64731 l -13.0933075 36.140717 l 104.88368 542.3544 l 34.611664 -37.679077 l -63.750427 79.16901 l -21.673859 41.911865 l 186.40167 114.07349 l 8.182251 -19.866821 l 45.056213 -55.808594 l -18.997925 18.497803 l -13.802307 17.015137 l -25.57428 61.735962 l 0.20285034 37.34143 l -1.8829346 -15.255981 l 0.0 0.0 l 0.0 0.0 l 0.0 0.00012207031 l -203.73486 -30.70337 l -1.3051758 -33.58362 l 0.0 0.0 l 0.0 0.00012207031 l 1.5258789e-05 0.00024414062 l 9.440506 -47.518677 l -4.0684967 115.06189 l 6.769699 32.288574 l 9.070618 30.018188 l 12.056732 29.927734 l 14.93103 29.003662 l 16.850494 26.693848 l 42.67282 51.542114 l 0.0 0.0 l -0.00012207031 -0.00012207031 l -0.0006713867 -0.0007324219 l -22.447449 -24.929688 l 49.544983 47.22473 l 190.89752 85.07922 l -34.963806 -8.23999 l -97.917816 -39.270264 l -29.084229 -17.245728 l 62.775787 33.708374 l 29.809235 11.923828 l -35.84851 -231.94495 l 12.919708 22.314209 l 0.46520996 0.7137451 l -19.316467 -37.33557 l -4.332489 -13.963501 l 45.270905 77.22339 l -9.877228 -10.563232 l 35.674347 31.193848 l -0.33319092 -0.22619629 l -12.538391 -8.500122 l 0.0 0.0 l 0.00048828125 0.00036621094 l 28.515137 17.724487 l 14.650879 6.9332275 l 50.610046 171.47424 l 37.58246 3.5334473 l 0.0 0.0 l 0.0 0.0 l 0.0 0.0 l 52.23401 -2.597168 l 49.88867 -7.8007812 l 47.5484 -13.000366 l 45.208252 -18.199951 l 42.87329 -23.404175 l 40.52722 -28.599854 l 38.187134 -33.799194 l 93.85095 -61.17224 l -34.897583 -22.308472 l 9.118774 0.25183105 l 6.862549 10.8063965 l -55.371155 -32.744507 l 17.315308 10.252563 l -1.0863037 55.4718 l -89.03992 -108.90234 l 13.704773 8.121338 l 23.953918 14.194946 l 13.50177 8.000977 l -75.977905 -44.47046 l -0.015625 -0.0045166016 l -20.134644 -5.425171 l 2.4298096 -4.1367188 l 0.0 0.0 l -43.8443 65.85559 l 0.6170654 -0.76794434 l 20.559021 -28.564941 l -7.4575806 10.956055 l -31.962158 39.695312 l -11.132019 11.052368 l -6.6691895 5.9588623 l -32.58368 20.244873 l -0.8187866 0.34020996 l -9.362244 3.9257812 l -12.5425415 4.38501 l 44.490967 -20.422852 l 0.0 0.0 l -6.1035156e-05 0.00012207031 l -0.00024414062 0.00012207031 l -10.218994 6.0375977 l -191.6773 11.988892 l 15.941284 4.803955 l 18.370667 4.0721436 l 16.089111 2.4927979 l 38.032776 2.2806396 l 0.0 0.0 l 0.0005493164 -0.00012207031 l 0.008972168 -0.00061035156 l 14.194153 -0.91296387 l -33.137268 0.36779785 l 51.179626 -2.4997559 l 9.517273 -1.5479736 l 14.339539 -3.0612793 l 93.94043 -419.3023 l 32.470276 -16.833862 l 30.541504 -17.548218 l 28.564758 -18.25476 l 26.419006 -18.834473 l 140.5741 -210.46173 l 5.9367676 -27.62085 l 4.437134 -30.079773 l 2.5595703 -29.72638 l 0.0 0.0 l 0.0 0.0 l 0.0 6.1035156e-05 l -1.5019531 -42.623444 l -4.157715 -39.41443 l -7.10083 -38.96811 l -28.782227 287.55493 l 11.021851 -24.717834 l 9.601685 -26.412842 l -47.77356 97.93939 l 13.510376 -21.360779 l -30.94574 45.194336 l 0.0 0.0 l 0.0 -6.1035156e-05 l 6.1035156e-05 -0.00012207031 l -20.844727 21.268127 l -21.85382 19.688171 l -291.7677 154.83911 l -1.9086914 0.78082275 l -11.699341 4.786072 l -16.129028 6.5982666 l 49.326538 -20.179016 l 10.883667 -4.4523926 l 16.460632 -6.7339478 l -106.71759 43.657288 l 13.630615 -5.576172 l -29.78894 12.186462 l -29.204285 15.489197 l -24.522888 15.569702 l 244.104 -109.506714 l -36.564453 15.524414 l 0.0 0.0 l -6.1035156e-05 6.1035156e-05 l -0.00024414062 6.1035156e-05 l -15.300537 6.2593384 l -121.58087 -199.90808 l -14.444519 6.010498 l -15.379822 6.399658 l -14.578796 6.0664062 l 0.0 0.0 l 0.0 0.0 l 6.1035156e-05 0.0 l -60.168762 28.012512 l -54.03061 30.602661 l -47.44742 32.92871 " /> </g> </svg>