<?xml version="1.0" standalone="no"?><!DOCTYPE svg PUBLIC "-//W3C//DTD SVG 1.1//EN" "http://www.w3.org/Graphics/SVG/1.1/DTD/svg11.dtd" ><svg xmlns="http://www.w3.org/2000/svg" xmlns:xlink="http://www.w3.org/1999/xlink" version="1.1" viewBox="-10 0 692 1000"><g transform="matrix(1 0 0 -1 0 800)"><path stroke="black" fill="none" d="M 654.89624 738.30865 l 0.0 0.0 l -21.834778 9.085571 l 0.29852295 -0.12420654 l 166.5636 -80.034424 l 0.0 0.0 l 2.060852 -1.5231934 l -32.268433 19.809875 l 0.0 0.0 l -22.008972 11.813171 l 0.0 0.0 l -54.462402 25.005066 l 0.36236572 -0.1494751 l 21.96576 -9.34375 l 0.0 0.0 l 6.5116577 -3.0222778 l 99.08453 -58.582153 l 0.0 0.0 l 12.171875 -10.219482 l 0.0 0.0 l 14.395325 -13.688293 l 0.0 0.0 l -1.098999 1.0779419 l 17.585083 -20.268188 l 0.0 0.0 l 11.720337 -17.904419 l 0.0 0.0 l 8.130554 -15.142517 l 0.028137207 -0.0569458 l 13.184937 -37.549805 l 0.021728516 -0.08874512 l -4.857849 17.334656 l 0.0 0.0 l -2.1438599 5.724365 l 0.0 0.0 l 10.239929 -40.762695 l 0.0 0.0 l 1.7462158 -13.394806 l 0.0 0.0 l 1.345398 -21.045502 l 0.0 0.0 l -1.3724976 -22.906921 l 0.0 0.0 l -5.6395874 -33.047363 l 0.057739258 0.21850586 l -16.006958 -46.688538 l -0.13867188 -0.3217163 l -23.773254 -40.314148 l 0.0 0.0 l -4.5931396 -5.56958 l -22.210022 -25.20819 l 1.6950684 1.327179 l 0.0 0.0 l 230.11688 75.57483 l -0.0087890625 -0.023223877 l -9.2771 -26.03305 l -22.48169 -49.05484 l 0.72143555 1.2868958 l -41.126953 -63.88263 l -18.432068 -22.939621 l 0.0 0.0 l 0.0028686523 0.0035705566 l -36.03717 -31.882141 l -20.999512 -16.298615 l -38.24402 -25.00499 l -37.833313 -19.906265 l -23.88739 -10.569031 l -153.34662 130.96635 l 0.0 0.0 l -9.266785 1.1130371 l 39.600403 -0.5341339 l -0.63946533 -0.095199585 l 82.279785 20.358887 l 0.0 0.0 l 5.1326294 2.4963074 l -43.045288 -15.593384 l 0.0 0.0 l 0.4512329 0.12838745 l 4.0928345 -162.10747 l 33.695312 8.787262 l -158.27777 153.26613 l -20.381226 6.2042236 l -159.23688 259.37265 l 0.0 0.0 l 2.743988 -21.208649 l -21.081085 18.806976 l 0.024810791 0.0049438477 l -140.617 -30.877716 l -0.38763428 -0.0854187 l 37.967804 8.365784 l 45.786102 10.088501 l 0.0 0.0 l 25.818054 5.6887207 l -0.010620117 -0.002319336 l 60.32602 -57.881073 l 0.13635254 -0.7239685 l 9.29834 -38.69519 l 0.0 0.0 l 8.213959 -26.115509 l 5.11969 -13.258209 l -0.0027770996 0.0074768066 l 42.76297 -61.63867 l -0.29263306 0.3062744 l -9.152191 9.539368 l -23.985474 32.14966 l 5.1790466 -9.195465 l 0.029937744 -0.05331421 l 0.0 0.0 l 72.66519 -66.610596 l 12.012268 -6.5088806 l -34.617065 21.364655 l -66.45627 -180.08972 l -22.684296 9.125481 l -41.421417 21.227798 l 0.920105 -0.557724 l -62.154633 45.045807 l 0.0 0.0 l -6.717865 6.6882324 l 253.86081 -110.385574 l 26.419495 -2.476616 l 44.599365 -1.3191223 l 0.0 0.0 l 0.234375 0.024650574 l 35.07202 3.654274 l -159.56677 8.757294 l -24.72934 5.839508 l -222.0469 151.92703 l 13.981262 -19.129456 l -41.33011 63.189728 l -11.915573 22.69867 l -26.130646 156.9682 l -16.161911 -3.308197 l 0.0 0.0 l 2.9929962 -37.95578 l 0.007232666 0.018096924 l 19.930374 -70.29346 l -9.341324 25.693176 l 111.23427 536.70374 l 24.58908 -26.778076 l -77.34775 109.00543 l -1.6548462 2.8105469 l 185.88272 113.39575 l 0.0 0.0 l 0.3256836 -0.7095947 l 33.270233 -51.48645 l -11.104645 12.858032 l 0.0 0.0 l -30.763 70.77234 l 9.1552734e-05 0.013793945 l -1.1828003 23.072388 l 0.0 0.0 l -0.10232544 -0.79907227 l -205.07405 -58.144897 l -0.04109192 -1.0238037 l 6.4190674 -41.575073 l 0.0 0.0 l 0.646698 109.70068 l 11.413696 45.42505 l 0.28497314 0.9503174 l 14.919128 38.27356 l 0.07211304 0.12451172 l 26.53897 47.25586 l 0.5725403 0.90930176 l 36.412994 46.418457 l 0.0 0.0 l -6.309906 -7.0024414 l 37.322723 35.376587 l 194.68188 89.710205 l -31.61969 -7.463379 l -119.94876 -52.09021 l -0.8759155 -0.5128174 l 77.88855 38.3938 l 0.0 0.0 l -25.294586 -223.68835 l 0.0 0.0 l 0.3847351 0.6697998 l -12.500305 -30.618164 l -0.06430054 -0.20214844 l 28.788849 55.91626 l 0.0 0.0 l 28.398651 29.55664 l 0.0 0.0 l 39.9776 23.473267 l 0.34558105 0.16882324 l 56.0271 173.09631 l 34.94513 3.2808838 l 0.0009765625 0.00012207031 l 0.0 0.0 l -0.00018310547 0.0 l 52.40686 -2.486084 l 49.835632 -7.8355713 l 47.487793 -13.014404 l 45.140015 -18.192993 l 43.001953 -23.566162 l 40.419373 -28.59607 l 38.074585 -33.769775 l 93.50012 -61.259155 l -22.496094 -18.859009 l 2.9487305 5.6606445 l -23.674377 -9.409668 l 0.0 0.0 l -16.714478 27.247803 l -63.6344 -77.99292 l 0.0 0.0 l -79.41144 -11.854614 l -21.737366 28.901123 l 0.0 0.0 l -41.358765 46.878296 l 0.0 0.0 l -50.04718 28.651123 l 0.0 0.0 l -2.6082764 0.98657227 l 32.855835 -14.768066 l 0.0 0.0 l -1.6751099 0.99645996 l -181.03943 17.344727 l 0.42669678 0.14672852 l 33.03186 6.7714844 l 0.0 0.0 l 48.282898 2.3951416 l 0.0 0.0 l -19.215271 0.04675293 l 0.0 0.0 l 59.515686 -5.291504 l 4.907959 -1.00354 l 0.0 0.0 l 100.55286 -421.32928 l 29.377197 -15.237976 l 30.986755 -17.673218 l 30.690186 -19.796143 l 23.663269 -16.87445 l 146.16425 -232.44983 l 0.2434082 -1.0978394 l 7.5688477 -58.17987 l 0.43823242 -5.0059814 l 0.0 0.0 l -4.519287 -74.125244 l -0.20910645 -2.1151733 l -7.1099854 -41.446564 l -21.107422 263.3055 l 0.42419434 -0.9356079 l 10.243408 -27.333496 l -40.24872 83.77875 l 0.0 0.0 l -20.672302 30.184387 l 0.0 0.0 l -39.625 39.58905 l -0.59191895 0.5390625 l -313.1645 166.22485 l 0.0 0.0 l -6.2684937 2.564331 l 58.542114 -23.949036 l 5.356079 -2.191101 l 0.0 0.0 l -99.87366 40.870544 l 0.0 0.0 l -10.427185 4.258484 l -54.2016 29.81427 l -0.63031006 0.3942871 l 236.93994 -105.27576 l -0.0947876 0.039123535 l -41.981567 17.736267 l 0.0 0.0 l -4.9518433 2.0258179 l -136.74463 -193.62396 l -0.3470459 0.14434814 l -30.422302 12.658997 l -1.2088623 0.5029907 l 0.0 0.0 l -58.69983 27.324768 l -59.485626 33.80951 l -43.467194 30.163818 " /> </g> </svg>