<?xml version="1.0" standalone="no"?><!DOCTYPE svg PUBLIC "-//W3C//DTD SVG 1.1//EN" "http://www.w3.org/Graphics/SVG/1.1/DTD/svg11.dtd" ><svg xmlns="http://www.w3.org/2000/svg" xmlns:xlink="http://www.w3.org/1999/xlink" version="1.1" viewBox="-10 0 692 1000"><g transform="matrix(1 0 0 -1 0 800)"><path stroke="black" fill="none" d="M 1058.0 1314.0 l -18.900024 -11.199951 l -18.899963 -11.200073 l -18.900024 -11.199951 l -18.899963 -11.200073 l -18.900024 -11.199951 l -18.900024 -11.199951 l -18.899963 -11.200073 l -18.900024 -11.199951 l -18.899963 -11.200073 l -18.900024 -11.199951 l 0.0 0.0 l -10.549988 17.76001 l -10.450012 16.47998 l -10.349976 15.199951 l -10.25 13.920044 l -10.150024 12.640015 l -10.049988 11.359985 l 24.594055 35.436768 l -0.633728 0.014526367 l -43.211792 -1.2490234 l -10.298462 -7.802246 l 0.0 0.0 l -10.290161 6.079956 l -14.42627 3.3555908 l -7.8936768 6.8843994 l -12.029968 4.160034 l -15.535522 -9.973755 l -10.264465 16.37378 l -13.77002 2.2399902 l -11.872498 -18.037354 l -17.40747 20.59729 l 0.0 0.0 l -17.872437 -20.562134 l -19.607605 18.362183 l -15.731995 -140.93384 l -0.00018310547 0.03515625 l -0.42926025 121.001465 l 0.0 0.0 l -35.10852 8.347168 l -15.77002 -6.0499268 l -15.109985 -7.1500244 l -14.450012 -8.25 l -13.790039 -9.349976 l 0.0 0.0 l -12.159973 -11.079956 l -10.880005 -11.640015 l -9.600006 -12.200073 l -8.319977 -12.76001 l -7.0400085 -13.319946 l -5.76001 -13.880005 l -4.4799805 -14.440063 l -73.45734 -20.549194 l 68.33731 -10.010742 l 0.0 0.0 l 1.6800232 -22.160034 l 5.039978 -21.28003 l 8.399994 -20.399902 l 11.76001 -19.52002 l 15.119995 -18.640015 l 18.47998 -17.76001 l 21.840027 -16.880005 l 25.200012 -16.0 l 28.559998 -15.119995 l 21.424683 40.370605 l 1.321106 -121.67377 l 23.454224 62.403137 l 15.399963 -6.299988 l 15.400024 -6.299988 l 15.399963 -6.299988 l 15.400024 -6.299988 l 15.400024 -6.300049 l 15.399963 -6.299988 l 15.400024 -6.299988 l 0.0 0.0 l 36.589966 -15.534973 l 34.570007 -16.205017 l 32.549988 -16.875 l 30.53003 -17.544983 l 28.51001 -18.215027 l 26.48999 -18.88501 l 24.46997 -19.554993 l 22.450012 -20.224976 l 20.429993 -20.89502 l 0.0 0.0 l 16.53003 -22.39502 l 14.790039 -23.38501 l 13.049927 -24.375 l 11.310059 -25.36499 l 9.569946 -26.35498 l 7.830078 -27.345032 l 6.089966 -28.33496 l 4.3499756 -29.325012 l 2.6099854 -30.315002 l 0.0 0.0 l -1.4199219 -41.859985 l -4.26001 -40.380005 l -7.1000977 -38.899994 l -9.939941 -37.420013 l -12.780029 -35.940002 l -15.619995 -34.45999 l -18.45996 -32.98001 l -21.300049 -31.5 l -24.139954 -30.019989 l 0.0 0.0 l -29.29004 -26.600006 l -30.669983 -23.800003 l -32.049988 -21.0 l -33.429993 -18.199997 l -34.809998 -15.399994 l -36.190002 -12.600006 l -37.570007 -9.799995 l -38.950012 -7.0 l -40.330017 -4.2000046 l 0.0 0.0 l -45.826355 39.81552 l -37.931274 -128.87407 l 0.0 0.0 l -68.98212 -0.0012919963 l 0.0 0.0 l 38.43976 99.769844 l -35.299988 8.330002 l -33.899994 10.709999 l -32.5 13.089996 l -47.42804 -131.89746 l 0.0 0.0 l 54.534485 0.0045481506 l 0.0 0.0 l -70.3017 135.29985 l -25.904755 50.143066 l 0.0 0.0 l -24.830017 24.770004 l -22.889984 26.709991 l 65.30606 28.119751 l -105.26605 31.12027 l -17.070007 32.53 l -15.130005 34.47 l -13.190002 36.409973 l -11.25 38.350006 l -9.309998 40.29001 l 23.59999 5.1999817 l 23.600006 5.200012 l 23.59999 5.200012 l 23.600006 5.1999817 l 23.600006 5.200012 l 23.600006 5.1999817 l 36.499542 19.26062 l 2.0245667 121.57941 l 32.27588 -125.23999 l 23.600006 5.199951 l 0.0 0.0 l 3.4400024 -26.359985 l 3.9200134 -24.679993 l 4.399994 -23.0 l 4.880005 -21.320007 l 5.3599854 -19.639984 l -71.43848 -17.7406 l 83.59848 -16.49939 l 6.799988 -14.600006 l 7.279999 -12.920013 l 0.0 0.0 l 15.059998 -19.0 l 16.380005 -17.0 l 17.700012 -15.0 l 19.02002 -13.0 l 20.339966 -11.0 l 38.03357 -13.077393 l 1.9713745 120.53281 l 28.935059 -128.45541 l 25.619995 -3.0 l 0.0 0.0 l 21.429993 0.730011 l 20.690002 2.1900024 l 19.950012 3.649994 l 19.210022 5.1099854 l 18.46997 6.5700073 l 17.730042 8.029999 l 16.98999 9.490021 l 16.25 10.949982 l 15.51001 12.410004 l 0.0 0.0 l 13.679993 14.98999 l 12.23999 15.77002 l 10.799988 16.549988 l 9.359985 17.329987 l 7.920044 18.110016 l 6.4799805 18.889984 l 5.039978 19.670013 l 3.6000366 20.450012 l 2.1599731 21.22998 l 0.0 0.0 l -0.125 8.925018 l -0.375 8.774994 l -0.625 8.625 l -0.875 8.475006 l -1.125 8.325012 l -1.375 8.174988 l -1.625 8.024963 l -1.875 7.875 l -2.125 7.7250366 l 0.0 0.0 l -2.6400146 7.4400024 l -2.919983 7.3200073 l -3.2000122 7.199951 l -3.4799805 7.080017 l -3.7600098 6.960022 l -4.039978 6.839966 l -4.3200073 6.7200317 l -4.6000366 6.5999756 l -4.879944 6.4800415 l 0.0 0.0 l -5.455017 6.2599487 l -5.7650146 6.1800537 l -6.075012 6.0999756 l -6.38501 6.0200195 l -6.6949463 5.9400024 l -7.005005 5.8599854 l -7.3150024 5.7799683 l -7.625 5.700012 l -7.9349976 5.619995 l 0.0 0.0 l -8.559998 5.4750366 l -8.880005 5.424988 l -9.200012 5.375 l -9.52002 5.325012 l -9.839966 5.2749634 l -10.160034 5.2250366 l -10.47998 5.174988 l -10.799988 5.125 l -11.119995 5.075012 l -14.900024 6.199951 l -14.900024 6.200012 l -14.899963 6.200012 l -14.900024 6.200012 l -14.899963 6.200012 l -25.127686 -177.84576 l -0.016174316 -6.824646 l -0.46905518 230.45746 l -19.087097 -27.187073 l -14.900024 6.200012 l -14.899963 6.200012 l 0.0 0.0 l -60.23001 28.039978 l -53.890015 30.52002 l -67.708405 -34.322693 l -3.5352783 124.177 l -52.386322 16.585693 l -28.529999 40.440002 l -22.190002 42.91992 l 94.404175 35.48999 l -119.76416 57.79004 l 0.0 0.0 l 1.3300018 34.22998 l 3.9899902 33.090088 l 6.650009 31.949951 l 9.309998 30.810059 l -26.83696 75.03088 l 0.0 0.0 l -218.17804 32.918213 l 0.0 0.0 l 87.11812 -31.749512 l 0.0 0.0 l 226.71515 0.017700195 l -19.036774 -0.011352539 l 0.0 0.0 l 14.058502 35.634033 l -59.369965 183.24402 l 0.0 0.0 l -4.224701 -0.01574707 l -246.41533 -43.057983 l 0.0 0.0 l 66.61088 34.079468 l 0.0 0.0 l 293.25912 -126.71973 l 17.926819 125.89844 l 40.473175 -88.13843 l 31.149994 15.339966 l 22.512482 76.74634 l 43.6875 -53.146362 l 48.333557 54.76599 l 23.066467 -40.605957 l 37.649963 3.539917 l 0.0 0.0 l 36.231262 37.652832 l 90.3988 -0.6690674 l 23.039978 -60.383667 l 71.0365 57.707153 l 17.043457 -99.30725 l 78.598816 -81.917725 l 0.0 0.0 l 0.9812012 137.02979 l 0.0 0.0 l 0.0 -66.90027 l 0.0 0.0 l -39.85498 -100.62598 l -18.984314 -0.10205078 l 0.0 0.0 l 127.339294 -33.08374 " /> </g> </svg>