<?xml version="1.0" standalone="no"?><!DOCTYPE svg PUBLIC "-//W3C//DTD SVG 1.1//EN" "http://www.w3.org/Graphics/SVG/1.1/DTD/svg11.dtd" ><svg xmlns="http://www.w3.org/2000/svg" xmlns:xlink="http://www.w3.org/1999/xlink" version="1.1" viewBox="-10 0 692 1000"><g transform="matrix(1 0 0 -1 0 800)"><path stroke="black" fill="none" d="M 858.60126 1324.9985 l -34.339905 0.0017089844 l -35.782837 -0.032714844 l -35.39038 0.041015625 l -35.40149 0.026977539 l -35.41272 0.014404297 l -35.396973 0.0009765625 l -35.398438 -132.25061 l 0.0009765625 132.20361 l 0.0 0.0 l 0.0 0.0 l 0.0 0.0 l -232.83405 -132.48718 l 232.82013 -132.62317 l 0.033203125 -132.2279 l -0.0040893555 -795.25305 l -18.44983 -132.40894 l 13.845032 -1.1385791e-06 l -41.052856 2.3657774e-06 l -41.44989 -3.2193236e-06 l -0.9083252 -1.2718374e-08 l -27.820892 2.5360583e-07 l 0.046539307 2.2657503e-08 l -74.95676 1.1165607e-06 l -0.45465088 1.4884063e-07 l -13.815979 1.2582655e-06 l -27.019745 2.7711721e-06 l 90.68063 5.1208845e-05 l -20.865997 -2.026523e-05 l -70.78653 132.5705 l -0.2090149 132.43073 l 0.17294312 264.9656 l 0.050872803 132.22559 l 0.16174316 -264.69296 l 232.77917 -132.48987 l 0.049560547 132.19931 l -0.008605957 262.92255 l -0.0004272461 -129.34222 l -0.011779785 264.13202 l -232.9426 0.2374878 l -0.08880615 132.29083 l -0.21865845 132.57373 l -169.35934 264.9756 l 25.455383 0.00024414062 l 36.174072 -0.0076904297 l -247.01012 70.95276 l -5.722046e-06 -0.96691895 l 0.00022888184 -23.099243 l 0.0005722046 -41.974976 l -0.0002193451 14.78772 l 134.11464 -19.690796 l -25.457748 0.0 l -45.20674 0.0 l -24.970661 0.0 l 315.51456 0.00048828125 l -36.753082 -0.00048828125 l -32.16162 0.0 l -3.2847595 218.99707 l -91.9375 -0.00036621094 l -189.8577 -6.702759 l 0.0 -31.231812 l 0.0 -0.7080078 l 0.0 -43.704346 l 0.0 -0.96569824 l 0.0 -22.884766 l 93.50678 105.9718 l 283.31824 -0.020629883 l 94.198395 0.099121094 l 94.14526 0.040771484 l 94.26898 0.014770508 l 94.10449 -0.016845703 l 94.1969 -0.06726074 l 94.25281 -217.30676 l 0.0029907227 19.61084 l 0.005126953 193.19202 l 0.0 -8.102051 l 0.0 -47.002686 l 0.0 -0.68078613 l 0.0 -97.466064 l 0.0 -13.820679 l 0.0 46.35388 l 0.0 -0.6088867 l 0.0 35.61255 l -35.511963 -128.59851 l -34.98755 -0.0025634766 " /> </g> </svg>