<?xml version="1.0" standalone="no"?><!DOCTYPE svg PUBLIC "-//W3C//DTD SVG 1.1//EN" "http://www.w3.org/Graphics/SVG/1.1/DTD/svg11.dtd" ><svg xmlns="http://www.w3.org/2000/svg" xmlns:xlink="http://www.w3.org/1999/xlink" version="1.1" viewBox="-10 0 692 1000"><g transform="matrix(1 0 0 -1 0 800)"><path stroke="black" fill="none" d="M 858.74176 1324.9995 l -35.08954 0.00048828125 l -35.512085 -0.009643555 l -35.397217 0.012084961 l -35.40045 0.0078125 l -35.403687 0.004272461 l -35.39911 0.00024414062 l -35.399536 -132.42688 l 0.00030517578 132.41309 l 0.0 0.0 l 0.0 0.0 l 0.0 0.0 l -232.95142 -132.49622 l 232.94733 -132.53601 l 0.00970459 -132.42035 l -0.0012207031 -795.0741 l -21.879395 -132.47333 l 20.5307 -3.334821e-07 l -44.97528 6.929203e-07 l -28.615967 -9.429182e-07 l -16.465393 -4.8934155e-09 l -24.90039 7.5447716e-08 l -71.36743 3.3366928e-07 l -2.601715 8.7811304e-07 l -18.05365 -4.659812e-07 l -24.389496 8.116576e-07 l 92.4621 1.49987245e-05 l -22.587097 -5.935548e-06 l -70.15967 132.52065 l -0.06121826 132.4797 l 0.05065918 264.98993 l 0.014892578 132.41962 l 0.0473938 -264.91006 l 232.93533 -132.49704 l 0.014465332 132.41193 l -0.0025024414 264.39154 l -0.00012207031 -131.57513 l -0.0034179688 264.7458 l -232.98322 0.06958008 l -0.026000977 132.43872 l -0.0640564 132.5216 l -175.11565 264.9928 l 32.558 0.00012207031 l 35.69742 -0.002319336 l -248.06361 82.72412 l -1.9073486e-06 -15.541504 l 6.67572e-05 -22.478516 l 0.00016784668 -43.265503 l -6.484985e-05 19.816895 l 139.69043 -21.25293 l -32.5587 0.0 l -38.343025 0.0 l -32.41603 0.0 l 318.33267 0.00012207031 l -35.867004 -0.00012207031 l -34.522217 0.0 l -1.9520264 218.99915 l -93.53734 -0.00012207031 l -188.82693 -1.9631348 l 0.0 -24.6333 l 0.0 -15.239136 l 0.0 -28.740112 l 0.0 -15.540527 l 0.0 -22.416504 l 93.996956 108.466675 l 282.81036 -0.0061035156 l 94.199554 0.029052734 l 94.18399 0.011962891 l 94.22015 0.004272461 l 94.17206 -0.0048828125 l 94.1991 -0.01965332 l 94.215454 -218.50415 l 0.0008544922 21.229614 l 0.0015258789 195.95532 l 0.0 -17.858643 l 0.0 -29.252441 l 0.0 -15.196411 l 0.0 -90.97839 l 0.0 -19.53357 l 0.0 60.03369 l 0.0 -15.069336 l 0.0 40.80725 l -35.4328 -130.57947 l -35.279236 -0.0007324219 " /> </g> </svg>