<?xml version="1.0" standalone="no"?><!DOCTYPE svg PUBLIC "-//W3C//DTD SVG 1.1//EN" "http://www.w3.org/Graphics/SVG/1.1/DTD/svg11.dtd" ><svg xmlns="http://www.w3.org/2000/svg" xmlns:xlink="http://www.w3.org/1999/xlink" version="1.1" viewBox="-10 0 692 1000"><g transform="matrix(1 0 0 -1 0 800)"><path stroke="black" fill="none" d="M 856.4833 1324.9825 l -23.042175 0.019165039 l -39.863037 -0.3807373 l -35.28723 0.47839355 l -35.41736 0.31359863 l -35.548462 0.16882324 l -35.364807 0.010375977 l -35.382324 -129.59216 l -0.0020141602 0.4593506 l -0.024047852 128.61218 l 0.0 0.0 l -0.0004272461 0.00024414062 l -231.02731 -132.3772 l 230.90347 -133.93518 l 0.3869629 -129.32904 l -0.04748535 -797.9498 l -21.393616 -131.43834 l 0.0 0.0 l -14.222229 -4.2977466e-05 l -62.033936 -2.8223627e-05 l -11.119324 -6.4955657e-06 l 0.0 0.0 l -104.31055 0.000107488406 l 0.0 0.0 l -8.699341 -4.5503126e-05 l 63.832 0.0005969341 l -0.4547119 -5.3453492e-05 l -74.70636 133.32152 l -2.436493 131.69243 l 2.0161438 264.59903 l 0.59298706 129.30139 l 1.8854675 -261.42102 l 230.42606 -132.3819 l 0.5773926 128.9949 l -0.1003418 240.78323 l -0.004699707 -95.68988 l -0.13739014 254.88208 l -232.3309 2.7678833 l -1.0354614 130.06226 l -2.5487976 133.3598 l -134.43668 264.69348 l 0.0 0.0 l 13.600204 -0.06542969 l -231.12299 57.802612 l 0.0 0.0 l 0.018779755 -36.105957 l 0.0 0.0 l 101.72926 -21.597046 l 0.0 0.0 l -51.12474 0.0 l 0.0 0.0 l 292.6472 0.005126953 l -50.10678 -0.004638672 l -0.80389404 0.0 l -19.15152 218.96558 l -0.038757324 -0.00012207031 l -67.78757 -0.0045166016 l -205.3923 -39.614502 l 0.0 0.0 l 0.0 -49.272095 l 0.0 0.0 l 86.11933 86.256836 l -0.029708862 -0.009765625 l 291.00232 -0.23083496 l 94.18118 1.1563721 l 93.56183 0.47436523 l 95.0047 0.171875 l 93.08667 -0.19592285 l 94.16382 -0.78393555 l 94.81537 -199.26135 l 0.010009766 0.4724121 l 0.084472656 189.31934 l 0.0 0.0 l 0.0 -14.483032 l 0.0 -134.39441 l 0.0 0.0 l 0.0 84.707275 l 0.0 0.0 l -36.704834 -143.2284 l -30.59198 -0.029907227 l 0.012878418 0.0 " /> </g> </svg>