<?xml version="1.0" standalone="no"?><!DOCTYPE svg PUBLIC "-//W3C//DTD SVG 1.1//EN" "http://www.w3.org/Graphics/SVG/1.1/DTD/svg11.dtd" ><svg xmlns="http://www.w3.org/2000/svg" xmlns:xlink="http://www.w3.org/1999/xlink" version="1.1" viewBox="-10 0 692 1000"><g transform="matrix(1 0 0 -1 0 800)"><path stroke="black" fill="none" d="M 1058.0 1314.0 l -18.900024 -11.199951 l -18.899963 -11.200073 l -18.900024 -11.199951 l -18.899963 -11.200073 l -18.900024 -11.199951 l -18.900024 -11.199951 l -18.899963 -11.200073 l -18.900024 -11.199951 l -18.899963 -11.200073 l -18.900024 -11.199951 l 0.0 0.0 l -10.549988 17.76001 l -10.450012 16.47998 l -10.349976 15.199951 l -10.25 13.920044 l -10.150024 12.640015 l -10.049988 11.359985 l 21.288208 33.447266 l 0.0 0.0 l -40.66394 -2.7161865 l -10.174194 -4.3310547 l 0.0 0.0 l -10.290161 6.079956 l -13.620605 3.8278809 l -8.699341 6.4121094 l -12.029968 4.160034 l -14.872803 -6.91687 l -10.927185 13.316895 l -13.77002 2.2399902 l -12.433716 -13.588623 l -16.846252 16.14856 l 0.0 0.0 l -18.143738 -16.028564 l -19.336304 13.828613 l -15.857605 -112.431274 l 0.0 0.0 l -5.434204 96.1864 l -29.97815 4.694824 l -15.77002 -6.0499268 l -15.109985 -7.1500244 l -14.450012 -8.25 l -13.790039 -9.349976 l 0.0 0.0 l -12.159973 -11.079956 l -10.880005 -11.640015 l -9.600006 -12.200073 l -8.319977 -12.76001 l -7.0400085 -13.319946 l -5.76001 -13.880005 l -4.4799805 -14.440063 l -57.54117 -19.292114 l 52.421143 -11.267822 l 0.0 0.0 l 1.6800232 -22.160034 l 5.039978 -21.28003 l 8.399994 -20.399902 l 11.76001 -19.52002 l 15.119995 -18.640015 l 18.47998 -17.76001 l 21.840027 -16.880005 l 25.200012 -16.0 l 28.559998 -15.119995 l 20.059814 29.797852 l 4.510559 -95.53693 l 21.629639 46.83905 l 15.399963 -6.299988 l 15.400024 -6.299988 l 15.399963 -6.299988 l 15.400024 -6.299988 l 15.400024 -6.300049 l 15.399963 -6.299988 l 15.400024 -6.299988 l 0.0 0.0 l 36.589966 -15.534973 l 34.570007 -16.205017 l 32.549988 -16.875 l 30.53003 -17.544983 l 28.51001 -18.215027 l 26.48999 -18.88501 l 24.46997 -19.554993 l 22.450012 -20.224976 l 20.429993 -20.89502 l 0.0 0.0 l 16.53003 -22.39502 l 14.790039 -23.38501 l 13.049927 -24.375 l 11.310059 -25.36499 l 9.569946 -26.35498 l 7.830078 -27.345032 l 6.089966 -28.33496 l 4.3499756 -29.325012 l 2.6099854 -30.315002 l 0.0 0.0 l -1.4199219 -41.859985 l -4.26001 -40.380005 l -7.1000977 -38.899994 l -9.939941 -37.420013 l -12.780029 -35.940002 l -15.619995 -34.45999 l -18.45996 -32.98001 l -21.300049 -31.5 l -24.139954 -30.019989 l 0.0 0.0 l -29.29004 -26.600006 l -30.669983 -23.800003 l -32.049988 -21.0 l -33.429993 -18.199997 l -34.809998 -15.399994 l -36.190002 -12.600006 l -37.570007 -9.799995 l -38.950012 -7.0 l -40.330017 -4.2000046 l 0.0 0.0 l -44.39319 31.065262 l -101.00653 -120.066025 l 0.0 0.0 l 31.099731 99.71076 l -35.299988 8.330002 l -33.899994 10.709999 l -32.5 13.089996 l -9.319702 -131.58234 l 0.0 0.0 l -53.332947 141.76581 l -26.447357 43.36653 l 0.0 0.0 l -24.830017 24.770004 l -22.889984 26.709991 l 45.765533 28.239868 l -85.725525 31.000153 l -17.070007 32.53 l -15.130005 34.47 l -13.190002 36.409973 l -11.25 38.350006 l -9.309998 40.29001 l 23.59999 5.1999817 l 23.600006 5.200012 l 23.59999 5.200012 l 23.600006 5.1999817 l 23.600006 5.200012 l 23.600006 5.1999817 l 33.57727 16.075317 l 6.912262 95.21472 l 30.310455 -95.69 l 23.600006 5.199951 l 0.0 0.0 l 3.4400024 -26.359985 l 3.9200134 -24.679993 l 4.399994 -23.0 l 4.880005 -21.320007 l 5.3599854 -19.639984 l -53.931732 -17.790283 l 66.091736 -16.449707 l 6.799988 -14.600006 l 7.279999 -12.920013 l 0.0 0.0 l 15.059998 -19.0 l 16.380005 -17.0 l 17.700012 -15.0 l 19.02002 -13.0 l 20.339966 -11.0 l 34.32428 -12.153687 l 6.730713 91.64139 l 27.88501 -100.4877 l 25.619995 -3.0 l 0.0 0.0 l 21.429993 0.730011 l 20.690002 2.1900024 l 19.950012 3.649994 l 19.210022 5.1099854 l 18.46997 6.5700073 l 17.730042 8.029999 l 16.98999 9.490021 l 16.25 10.949982 l 15.51001 12.410004 l 0.0 0.0 l 13.679993 14.98999 l 12.23999 15.77002 l 10.799988 16.549988 l 9.359985 17.329987 l 7.920044 18.110016 l 6.4799805 18.889984 l 5.039978 19.670013 l 3.6000366 20.450012 l 2.1599731 21.22998 l 0.0 0.0 l -0.125 8.925018 l -0.375 8.774994 l -0.625 8.625 l -0.875 8.475006 l -1.125 8.325012 l -1.375 8.174988 l -1.625 8.024963 l -1.875 7.875 l -2.125 7.7250366 l 0.0 0.0 l -2.6400146 7.4400024 l -2.919983 7.3200073 l -3.2000122 7.199951 l -3.4799805 7.080017 l -3.7600098 6.960022 l -4.039978 6.839966 l -4.3200073 6.7200317 l -4.6000366 6.5999756 l -4.879944 6.4800415 l 0.0 0.0 l -5.455017 6.2599487 l -5.7650146 6.1800537 l -6.075012 6.0999756 l -6.38501 6.0200195 l -6.6949463 5.9400024 l -7.005005 5.8599854 l -7.3150024 5.7799683 l -7.625 5.700012 l -7.9349976 5.619995 l 0.0 0.0 l -8.559998 5.4750366 l -8.880005 5.424988 l -9.200012 5.375 l -9.52002 5.325012 l -9.839966 5.2749634 l -10.160034 5.2250366 l -10.47998 5.174988 l -10.799988 5.125 l -11.119995 5.075012 l -14.900024 6.199951 l -14.900024 6.200012 l -14.899963 6.200012 l -14.900024 6.200012 l -14.899963 6.200012 l -24.334717 -169.56976 l 0.0 0.0 l -2.2267456 207.79327 l -18.13855 -19.623535 l -14.900024 6.200012 l -14.899963 6.200012 l 0.0 0.0 l -60.23001 28.039978 l -53.890015 30.52002 l -63.141693 -19.07135 l -12.07016 104.083496 l -48.41815 21.427856 l -28.529999 40.440002 l -22.190002 42.91992 l 69.42709 37.734985 l -94.78708 55.545044 l 0.0 0.0 l 1.3300018 34.22998 l 3.9899902 33.090088 l 6.650009 31.949951 l 9.309998 30.810059 l 11.970001 29.669922 l -65.234314 46.397583 l 0.0 0.0 l 102.90573 0.3684082 l 0.0 0.0 l 14.198578 35.404053 l -172.54376 182.00769 l 0.0 0.0 l -137.40924 -44.183838 l 0.0 0.0 l 359.81302 -90.29382 l 20.333405 101.92175 l 38.06659 -64.16174 l 31.149994 15.339966 l 24.763733 62.30066 l 41.43625 -38.700684 l 45.32428 44.23047 l 26.075745 -30.070435 l 37.649963 3.539917 l 0.0 0.0 l 39.85565 28.533936 l 81.22186 -2.284546 l 28.59253 -49.649292 l 65.18573 40.510986 l 22.894226 -82.111084 l 40.53003 -28.599976 l 39.049927 83.470215 l 0.0 0.0 l -57.319275 -165.30945 l 0.0 0.0 l 125.819336 -35.160767 " /> </g> </svg>