<?xml version="1.0" standalone="no"?><!DOCTYPE svg PUBLIC "-//W3C//DTD SVG 1.1//EN" "http://www.w3.org/Graphics/SVG/1.1/DTD/svg11.dtd" ><svg xmlns="http://www.w3.org/2000/svg" xmlns:xlink="http://www.w3.org/1999/xlink" version="1.1" viewBox="-10 0 692 1000"><g transform="matrix(1 0 0 -1 0 800)"><path stroke="black" fill="none" d="M 858.12146 1324.9949 l -31.780518 0.0056152344 l -36.707153 -0.111450195 l -35.367004 0.14001465 l -35.40509 0.091918945 l -35.44348 0.049438477 l -35.38971 0.0030517578 l -35.394775 -131.64832 l 0.00091552734 131.48975 l 0.0 0.0 l -6.1035156e-05 0.0 l -6.1035156e-05 0.0 l -232.43079 -132.45789 l 232.38593 -132.92041 l 0.113342285 -131.57123 l -0.013916016 -795.86395 l -6.8095703 -132.18907 l 0.11352539 -8.6893124e-08 l -36.686707 4.269021e-06 l -45.409363 -1.0408858e-05 l 0.0 0.0 l -25.443542 2.3984103e-07 l 0.010528564 5.1159077e-09 l -79.325195 8.418861e-06 l 0.0 0.0 l -0.16949463 2.7069837e-07 l -35.99359 9.460393e-06 l 84.59833 0.00017483791 l -14.989746 -6.91898e-05 l -72.92679 132.74068 l -0.71365356 132.26347 l 0.59051514 264.88257 l 0.17370605 131.56311 l 0.5522156 -263.95172 l 232.2461 -132.4654 l 0.16912842 131.47336 l -0.02935791 257.90707 l -0.0014038086 -121.71857 l -0.040222168 262.03656 l -232.80405 0.81066895 l -0.30325317 131.78601 l -0.7465515 132.75177 l -149.70607 264.91663 l 1.6457825 0.0007324219 l 37.36125 -0.026245117 l -243.41312 62.8573 l 0.0 0.0 l 0.00056648254 -8.519287 l 0.001953125 -37.568726 l -0.00031661987 0.60668945 l 115.07727 -17.346802 l -1.6499329 0.0 l -68.20459 0.0 l -1.0826416 0.0 l 307.42493 0.0014648438 l -39.77823 -0.0013427734 l -24.102142 0.0 l -7.8349 218.98999 l -0.4914856 -0.0018310547 l -85.98386 0.00036621094 l -193.37692 -22.884644 l 0.0 -13.611816 l 0.0 0.0 l 0.0 -53.886475 l 0.0 0.0 l 0.0 -7.8413086 l 91.83322 97.4541 l -0.34659576 -0.11450195 l 285.39886 0.043945312 l 94.19449 0.33874512 l 94.01309 0.13891602 l 94.43567 0.05041504 l 93.8739 -0.057495117 l 94.18945 -0.22961426 l 94.38025 -213.21863 l 0.010070801 14.083984 l 0.017578125 196.36108 l 0.0 -0.015380859 l 0.0 -54.11084 l 0.0 0.0 l 0.0 -111.61206 l 0.0 -0.27746582 l 0.0 48.024536 l 0.0 0.0 l 0.0 24.224121 l -35.782166 -121.83484 l -33.99182 -0.0087890625 l 0.067871094 0.00024414062 " /> </g> </svg>