<?xml version="1.0" standalone="no"?><!DOCTYPE svg PUBLIC "-//W3C//DTD SVG 1.1//EN" "http://www.w3.org/Graphics/SVG/1.1/DTD/svg11.dtd" ><svg xmlns="http://www.w3.org/2000/svg" xmlns:xlink="http://www.w3.org/1999/xlink" version="1.1" viewBox="-10 0 692 1000"><g transform="matrix(1 0 0 -1 0 800)"><path stroke="black" fill="none" d="M 858.7985 1325.0 l -35.397766 0.0 l -35.400757 -0.00012207031 l -35.400024 0.00012207031 l -35.400024 0.00012207031 l -35.399963 0.0 l -35.400024 0.0 l -35.399963 -132.49951 l 0.0 132.49939 l 0.0 0.0 l 0.0 0.0 l 0.0 0.0 l -232.99963 -132.5 l 232.99957 -132.50024 l 0.00012207031 -132.49939 l 0.0 -795.00055 l -23.28955 -132.4998 l 23.279602 -2.454199e-09 l -46.588013 5.099418e-09 l -23.339172 -6.939231e-09 l -23.249695 -3.6012138e-11 l -23.311768 5.552434e-10 l -69.9108 2.455578e-09 l -23.280518 3.0330067e-09 l -23.308044 5.973245e-09 l 93.19458 1.1038033e-07 l -23.29477 -4.3681553e-08 l -69.90192 132.50015 l -0.0004272461 132.49985 l 0.00036621094 264.99994 l 9.1552734e-05 132.49939 l 0.00036621094 -264.99933 l 232.99954 -132.49997 l 6.1035156e-05 132.49933 l 0.0 264.9955 l 0.0 -132.49316 l 0.0 264.9981 l -232.99991 0.0005493164 l -0.00018310547 132.49951 l -0.00045776367 132.50012 l -177.48247 265.0 l 35.478348 0.0 l 35.501465 0.0 l -248.4968 87.56409 l 0.0 -21.853271 l 0.0 -21.904175 l 1.9073486e-06 -43.79602 l 0.0 21.884644 l 141.98299 -21.895264 l -35.478348 0.0 l -35.52092 0.0 l -35.477303 0.0 l 319.4914 0.0 l -35.502686 0.0 l -35.49283 0.0 l -1.4040527 219.0 l -94.19513 0.0 l -188.40314 -0.014404297 l 0.0 -21.920166 l 0.0 -21.851074 l 0.0 -21.950195 l 0.0 -21.853271 l 0.0 -21.903809 l 94.1985 109.49243 l 282.60153 0.0 l 94.20001 0.00012207031 l 94.19989 0.00012207031 l 94.20007 0.0 l 94.19983 0.0 l 94.20001 -0.00012207031 l 94.200134 -218.99634 l 0.0 21.89502 l 0.0 197.09155 l 0.0 -21.87024 l 0.0 -21.954102 l 0.0 -21.850586 l 0.0 -87.625 l 0.0 -21.882446 l 0.0 65.6582 l 0.0 -21.849731 l 0.0 43.778076 l -35.40027 -131.39404 l -35.39911 0.0 " /> </g> </svg>