<?xml version="1.0" standalone="no"?><!DOCTYPE svg PUBLIC "-//W3C//DTD SVG 1.1//EN" "http://www.w3.org/Graphics/SVG/1.1/DTD/svg11.dtd" ><svg xmlns="http://www.w3.org/2000/svg" xmlns:xlink="http://www.w3.org/1999/xlink" version="1.1" viewBox="-10 0 692 1000"><g transform="matrix(1 0 0 -1 0 800)"><path stroke="black" fill="none" d="M 858.795 1325.0 l -35.373413 0.0 l -35.409607 -0.0007324219 l -35.39972 0.0009765625 l -35.400085 0.00061035156 l -35.40027 0.00048828125 l -35.399963 0.0 l -35.399963 -132.49377 l 6.1035156e-05 132.49255 l 0.0 0.0 l 0.0 0.0 l 0.0 0.0 l -232.99585 -132.49963 l 232.99548 -132.50317 l 0.0008544922 -132.4931 l -0.00012207031 -795.00635 l -23.1781 -132.49771 l 23.062439 -2.8608238e-08 l -46.460632 5.9443177e-08 l -23.756104 -8.0889606e-08 l -22.713623 -4.1978865e-10 l -23.437317 6.472392e-09 l -70.02588 2.8624303e-08 l -23.07312 3.535532e-08 l -23.393463 6.962924e-08 l 93.13672 1.2866873e-06 l -23.238861 -5.091895e-07 l -69.92227 132.50177 l -0.005279541 132.49826 l 0.0043640137 264.9991 l 0.0012817383 132.4931 l 0.004058838 -264.99225 l 232.99445 -132.49976 l 0.0012207031 132.49243 l -0.00018310547 264.9478 l 0.0 -132.42065 l -0.00030517578 264.97815 l -232.99857 0.0059814453 l -0.0022277832 132.49475 l -0.005493164 132.50189 l -177.29546 264.9994 l 35.24762 0.0 l 35.516922 -0.00024414062 l -248.46255 87.18176 l 0.0 -21.354614 l 5.722046e-06 -21.949463 l 1.5258789e-05 -43.754272 l -5.722046e-06 21.721313 l 141.80185 -21.844482 l -35.247665 0.0 l -35.74389 0.0 l -35.23544 0.0 l 319.39984 0.0 l -35.531464 0.0 l -35.416138 0.0 l -1.4473572 218.99988 l -94.14316 0.0 l -188.43661 -0.16833496 l 0.0 -22.134521 l 0.0 -21.328613 l 0.0 -22.486694 l 0.0 -21.354492 l 0.0 -21.944336 l 94.18258 109.41138 l 282.61804 -0.00048828125 l 94.19995 0.0024414062 l 94.19864 0.0009765625 l 94.20172 0.00036621094 l 94.19757 -0.00036621094 l 94.19995 -0.0017089844 l 94.201355 -218.9574 l 6.1035156e-05 21.84253 l 0.00012207031 197.00171 l 0.0 -21.553345 l 0.0 -22.530762 l 0.0 -21.32483 l 0.0 -87.88989 l 0.0 -21.6969 l 0.0 65.21387 l 0.0 -21.314087 l 0.0 43.543335 l -35.402832 -131.32959 l -35.38965 -0.00012207031 " /> </g> </svg>