<?xml version="1.0" standalone="no"?><!DOCTYPE svg PUBLIC "-//W3C//DTD SVG 1.1//EN" "http://www.w3.org/Graphics/SVG/1.1/DTD/svg11.dtd" ><svg xmlns="http://www.w3.org/2000/svg" xmlns:xlink="http://www.w3.org/1999/xlink" version="1.1" viewBox="-10 0 692 1000"><g transform="matrix(1 0 0 -1 0 800)"><path stroke="black" fill="none" d="M 858.78296 1324.9999 l -35.309082 0.00024414062 l -35.4328 -0.0028076172 l -35.39917 0.003540039 l -35.400146 0.0021972656 l -35.401062 0.0013427734 l -35.39978 0.0 l -35.39984 -132.47852 l 0.00012207031 132.47449 l 0.0 0.0 l 0.0 0.0 l 0.0 0.0 l -232.98578 -132.4989 l 232.98456 -132.5105 l 0.0028686523 -132.47668 l -0.00036621094 -795.0217 l -22.883911 -132.49219 l 22.488892 -9.767464e-08 l -46.124146 2.029517e-07 l -24.857056 -2.7617438e-07 l -21.298157 -1.4332482e-09 l -23.768738 2.2098126e-08 l -70.3298 9.7729476e-08 l -22.52539 1.2071061e-07 l -23.61911 2.3772907e-07 l 92.98389 4.393025e-06 l -23.091217 -1.7384818e-06 l -69.97604 132.50606 l -0.017944336 132.49406 l 0.014831543 264.997 l 0.0043640137 132.4765 l 0.013885498 -264.97366 l 232.98108 -132.49915 l 0.004211426 132.47421 l -0.0007324219 264.82178 l 0.0 -132.22913 l -0.0010375977 264.92554 l -232.99506 0.020385742 l -0.0076293945 132.48206 l -0.01876831 132.50629 l -176.80164 264.99792 l 34.638306 0.0 l 35.55783 -0.00061035156 l -248.37218 86.171875 l 0.0 -20.03772 l 1.9073486e-05 -22.069336 l 4.9591064e-05 -43.643433 l -1.9073486e-05 21.289795 l 141.32353 -21.71045 l -34.638504 0.0 l -36.332703 0.0 l -34.59673 0.0 l 319.1581 0.0 l -35.607483 0.0 l -35.213623 0.0 l -1.561676 218.99976 l -94.005936 0.0 l -188.52502 -0.57507324 l 0.0 -22.700562 l 0.0 -19.949097 l 0.0 -23.90332 l 0.0 -20.037354 l 0.0 -22.05127 l 94.140526 109.197266 l 282.6616 -0.0017089844 l 94.19989 0.008422852 l 94.19531 0.003540039 l 94.20587 0.0012207031 l 94.19183 -0.0013427734 l 94.19971 -0.005859375 l 94.20459 -218.85474 l 0.00024414062 21.703735 l 0.0004272461 196.76465 l 0.0 -20.716309 l 0.0 -24.053467 l 0.0 -19.936523 l 0.0 -88.5896 l 0.0 -21.206787 l 0.0 64.04028 l 0.0 -19.899292 l 0.0 42.923462 l -35.409607 -131.15967 l -35.364685 -0.00024414062 " /> </g> </svg>