<?xml version="1.0" standalone="no"?><!DOCTYPE svg PUBLIC "-//W3C//DTD SVG 1.1//EN" "http://www.w3.org/Graphics/SVG/1.1/DTD/svg11.dtd" ><svg xmlns="http://www.w3.org/2000/svg" xmlns:xlink="http://www.w3.org/1999/xlink" version="1.1" viewBox="-10 0 692 1000"><g transform="matrix(1 0 0 -1 0 800)"><path stroke="black" fill="none" d="M 858.7985 1325.0 l -35.392212 0.0 l -35.40277 -0.00024414062 l -35.399963 0.00024414062 l -35.400024 0.00024414062 l -35.400085 0.00012207031 l -35.399963 0.0 l -35.399963 -132.49817 l 0.0 132.4978 l 0.0 0.0 l 0.0 0.0 l 0.0 0.0 l -232.99878 -132.49988 l 232.99866 -132.50098 l 0.00024414062 -132.49792 l 0.0 -795.0019 l -23.264282 -132.49933 l 23.230408 -8.3791605e-09 l -46.559204 1.7410503e-08 l -23.433594 -2.3692017e-08 l -23.128235 -1.229532e-10 l -23.34024 1.8957196e-09 l -69.93686 8.383866e-09 l -23.23352 1.0355333e-08 l -23.327393 2.0393934e-08 l 93.18146 3.7686198e-07 l -23.282104 -1.4913815e-07 l -69.906525 132.50052 l -0.0015258789 132.49948 l 0.0012817383 264.99976 l 0.00036621094 132.49799 l 0.0011901855 -264.99774 l 232.99835 -132.49994 l 0.00036621094 132.4978 l -6.1035156e-05 264.98468 l 0.0 -132.47675 l -6.1035156e-05 264.9936 l -232.9996 0.0017700195 l -0.00064086914 132.49847 l -0.0016174316 132.50049 l -177.44008 264.99988 l 35.42607 0.0 l 35.504974 -0.00012207031 l -248.48904 87.47754 l 0.0 -21.740234 l 1.9073486e-06 -21.914429 l 3.8146973e-06 -43.78662 l -1.9073486e-06 21.847656 l 141.94196 -21.88379 l -35.426086 0.0 l -35.571434 0.0 l -35.422512 0.0 l 319.47064 0.0 l -35.509186 0.0 l -35.475464 0.0 l -1.4138489 219.0 l -94.183365 0.0 l -188.4107 -0.049316406 l 0.0 -21.96875 l 0.0 -21.732666 l 0.0 -22.071777 l 0.0 -21.740234 l 0.0 -21.912964 l 94.19489 109.474 l 282.6053 -0.00012207031 l 94.20001 0.0007324219 l 94.199585 0.00024414062 l 94.2005 0.00012207031 l 94.19928 -0.00012207031 l 94.20001 -0.00048828125 l 94.20038 -218.98755 l 0.0 21.883179 l 6.1035156e-05 197.07129 l 0.0 -21.798584 l 0.0 -22.084717 l 0.0 -21.731445 l 0.0 -87.68494 l 0.0 -21.840454 l 0.0 65.557495 l 0.0 -21.728394 l 0.0 43.724854 l -35.400818 -131.3794 l -35.397034 0.0 " /> </g> </svg>