<?xml version="1.0" standalone="no"?><!DOCTYPE svg PUBLIC "-//W3C//DTD SVG 1.1//EN" "http://www.w3.org/Graphics/SVG/1.1/DTD/svg11.dtd" ><svg xmlns="http://www.w3.org/2000/svg" xmlns:xlink="http://www.w3.org/1999/xlink" version="1.1" viewBox="-10 0 692 1000"><g transform="matrix(1 0 0 -1 0 800)"><path stroke="black" fill="none" d="M 1027.3899 756.24786 l 0.00012207031 -92.983765 l 0.0 278.98358 l 0.0 -92.98401 l -609.38995 -142.27686 l -6.1035156e-05 -92.98682 l 0.0 0.0 l 0.0 0.0 l 0.0 0.0 l 0.64990234 -38.72412 l 325.13593 -363.14795 l -34.545776 -1.3279419 l 0.0 0.0 l 0.0 0.0 l 0.0 0.0 l -32.813293 3.988037 l -31.280396 6.656296 l -29.650085 9.303741 l 161.39386 -14.61731 l 31.336365 6.63649 l 29.804077 9.310257 l 28.22168 11.979263 l 26.582336 14.62027 l 124.802734 207.31924 l -5.845886 -30.208649 l 10.398132 62.709595 l 3.2506104 34.757782 l 1.949707 37.00244 l -86.15076 -274.33804 l -23.397522 -19.947998 l 86.78467 131.79706 l -8.432617 -25.657013 l -9.750793 -23.453888 l -23.402893 -40.127563 l 0.0 0.0 l 0.0 0.0 l 0.0 0.0 l 12.345947 18.923767 l 161.8841 -200.73378 l 0.0 0.0 l 0.0 0.0 l 0.0 0.0 l -34.973877 -33.43418 l 83.60327 103.497536 l -22.786255 -35.878326 l 72.97278 153.97972 l 10.61853 42.693237 l -24.322144 -83.83597 l -16.709717 -39.315933 l -139.92834 -171.06995 l -38.09314 -26.395298 l -80.86218 -42.23195 l 41.19513 19.348326 l -128.32812 -47.515556 l 44.331238 12.317568 l -137.6972 -26.399239 l 0.0 0.0 l 0.0 0.0 l 0.0 0.0 l 47.451843 5.2791023 l -143.82013 1.7529373 l 47.33539 -5.269474 l -137.50714 26.391926 l 44.242615 -12.312377 l -128.00037 47.48858 l 41.02722 -19.321024 l -118.56787 68.62923 l 37.947754 -26.39843 l -188.31131 235.80093 l 16.70996 -39.316467 l 19.77246 -37.641235 l 22.78592 -35.87784 l 25.847809 -34.190475 l 28.875854 -32.4554 l 0.0 0.0 l 0.0 0.0 l 0.0 0.0 l 88.57001 237.43002 l 0.0 0.0 l 0.0 0.0 l 0.0 0.0 l -11.048157 21.606445 l 31.24823 -46.88684 l 21.755707 -22.595184 l 74.789246 -51.87149 l -26.516602 14.635101 l -24.913635 17.278625 l -292.20334 93.73755 l 10.637955 -42.77173 l -18.240005 87.28375 l -4.559128 46.211212 l 0.0005645752 99.40231 l 218.23581 -170.62875 l -8.432373 25.83603 l -7.1535645 28.040497 l -10.40567 62.535553 l -3.2433167 34.378967 l 7.798004 -66.74014 l -196.7997 185.97989 l 0.0 99.3949 l 186.39973 42.707092 l 6.1035156e-05 92.99524 l 0.00015258789 93.005005 l 3.0517578e-05 93.00818 l 0.0 92.983765 l -186.39998 -116.49658 l -1.5258789e-05 -99.41229 l 0.0 -99.38257 l 186.39996 501.2918 l 0.0 -92.99512 l -186.39932 88.69824 l 139.80255 99.40051 l 23.294434 0.0 l -46.60956 0.0 l -23.284485 0.0 l -93.2036 -298.15747 l 0.0 99.343506 l 0.037109375 198.81396 l 23.249756 0.0 l 46.605392 0.0 l -23.28247 0.0 l 139.79025 -0.0025634766 l -3.0517578e-05 -2.0960693 l 23.303192 2.0986328 l 23.294464 0.0 l -46.59729 90.900024 l 655.9866 -43.73999 l -23.29419 0.0 l 116.48584 0.0 l -23.284302 0.0 l -23.315186 0.0 l -23.282959 0.0 l 116.48328 0.0 l -23.281494 0.0 l 69.88086 0.0 l -23.28418 0.0 l 23.295044 -198.78662 l 0.00012207031 99.3833 l -233.00073 99.402954 l 0.0009765625 -464.98608 l 0.0 93.02649 l 0.0 92.94617 l 0.0 185.61292 l 0.0 -92.444336 l 232.99988 -311.15656 l 0.0 -99.39484 l -1.5219727 -445.56442 l -4.557251 -46.191925 l 6.0793457 94.15292 l 0.0 0.0 l 0.0 0.0 l 0.0 0.0 l 0.0 99.38486 l 0.0 99.4281 l 0.0 99.38257 l -0.00012207031 298.21783 l 0.0 99.382935 " /> </g> </svg>