<?xml version="1.0" standalone="no"?><!DOCTYPE svg PUBLIC "-//W3C//DTD SVG 1.1//EN" "http://www.w3.org/Graphics/SVG/1.1/DTD/svg11.dtd" ><svg xmlns="http://www.w3.org/2000/svg" xmlns:xlink="http://www.w3.org/1999/xlink" version="1.1" viewBox="-10 0 692 1000"><g transform="matrix(1 0 0 -1 0 800)"><path stroke="black" fill="none" d="M 1027.3623 750.6136 l 0.017333984 -67.25037 l 0.06677246 252.97095 l 0.0025634766 -67.64032 l -609.28955 -168.95758 l 0.087890625 -78.07587 l 0.0 0.0 l 0.34640503 -23.483826 l 292.6953 -373.57867 l 0.0 0.0 l -23.276917 2.7604675 l 0.0 0.0 l -64.31439 14.564484 l -0.74053955 0.22413635 l 188.78558 -4.42984 l 0.0 0.0 l 11.475464 4.0216064 l 62.498596 26.680176 l 0.7125244 0.3860321 l 127.032715 189.09363 l -0.10650635 -0.56204224 l 8.188843 50.408173 l 4.3710327 47.09848 l 1.3216553 25.036133 l -87.26599 -271.2338 l -19.582458 -16.82779 l 0.011230469 0.010070801 l 74.549255 101.15927 l 0.0 0.0 l -3.9360962 -8.72348 l -25.28302 -48.060333 l 0.0 0.0 l 3.2787476 5.0481567 l 156.43878 -202.17969 l 0.0 0.0 l -13.491333 -12.940849 l 57.232056 67.931244 l -1.0946045 -1.7351074 l 74.46655 173.25638 l 0.0 0.0 l -32.23584 -96.67459 l -0.6755371 -1.5986023 l -152.95764 -186.43755 l -27.270508 -18.944649 l -52.599792 -29.483505 l 1.989563 0.93271446 l -109.712585 -40.540535 l 30.493896 8.465914 l -118.31177 -23.493479 l 0.0 0.0 l 19.552917 2.1559372 l -93.12805 -0.94303894 l 0.0 0.0 l -96.2608 16.523407 l 1.4875488 -0.4231224 l -87.86865 30.604101 l 0.0 0.0 l -104.11594 61.285713 l 34.396393 -23.91705 l -174.59933 205.64027 l 0.9031067 -2.168274 l 39.463623 -71.18121 l 0.8154297 -1.3000183 l 37.854675 -50.26004 l 22.20755 -24.974747 l 0.0 0.0 l -0.0040893555 0.004638672 l 84.32089 245.94035 l 0.0 0.0 l -3.7502747 7.3020935 l 44.302246 -57.763275 l 0.6135254 -0.6441345 l 72.07657 -52.705353 l -36.90741 22.72342 l -0.7307739 0.5043335 l -295.7854 88.64935 l 7.376251 -29.67215 l -18.231949 93.21646 l -3.1924438 32.330902 l 0.9073181 103.05014 l 209.76036 -147.9082 l 0.0 0.0 l -7.318878 27.595032 l -13.504059 88.63379 l 0.0 0.0 l 6.1285095 -51.5148 l -196.34966 185.81369 l 0.005706787 0.50842285 l -0.0013122559 90.73889 l 185.98619 54.003845 l 0.08483887 85.466 l 0.25750732 100.86865 l 0.032104492 105.93335 l 0.0005187988 67.283325 l -186.36606 -111.0282 l 0.0019836426 -0.05895996 l -0.024124146 -118.84601 l -0.0016479492 -71.80194 l 186.36235 488.33105 l 0.0043945312 -85.329346 l -185.3722 86.134155 l 143.85236 100.12097 l 14.538055 0.0 l -61.813843 0.0 l -0.80947876 0.0 l -96.79787 -230.88501 l 0.008514404 9.808228 l 19.154053 221.08069 l 0.0 0.0 l 43.314896 -0.002319336 l 0.0 0.0 l -0.36169434 0.00012207031 l 124.361786 -1.5292969 l -0.00033569336 -0.0073242188 l -0.0026855469 -0.100097656 l 28.309082 1.6275635 l 14.540192 0.0031738281 l -42.336243 90.90442 l 650.48364 -43.73889 l -13.891968 -0.00061035156 l 93.95227 -0.00048828125 l -0.743042 0.0 l -44.918213 0.0 l -0.4819336 0.0 l 94.06018 -0.0008544922 l -0.28149414 0.00012207031 l 45.813354 0.00012207031 l -0.697876 0.0 l 17.942993 -177.45142 l 0.18676758 72.76465 l -234.16162 104.13562 l 1.5621338 -442.89648 l 0.005126953 134.83972 l 0.00012207031 7.7337646 l -0.4588623 136.35059 l 233.31128 -335.28162 l -0.028320312 -0.53796387 l 0.010253906 -90.65161 l -4.6638184 -484.21753 l -0.19006348 -1.966217 l 4.987671 102.88431 l 0.0 0.0 l -0.050048828 55.741516 l 0.07849121 143.82513 l 0.00061035156 71.86749 l -0.21142578 326.31268 l 0.061523438 72.62903 " /> </g> </svg>