<?xml version="1.0" standalone="no"?><!DOCTYPE svg PUBLIC "-//W3C//DTD SVG 1.1//EN" "http://www.w3.org/Graphics/SVG/1.1/DTD/svg11.dtd" ><svg xmlns="http://www.w3.org/2000/svg" xmlns:xlink="http://www.w3.org/1999/xlink" version="1.1" viewBox="-10 0 692 1000"><g transform="matrix(1 0 0 -1 0 800)"><path stroke="black" fill="none" d="M 1027.382 754.6062 l 0.005126953 -85.45813 l 0.01953125 271.37628 l 0.0007324219 -85.57233 l -609.3606 -150.07953 l -0.011627197 -87.39215 l 0.0 0.0 l 0.0010070801 -0.033569336 l 0.5974426 -35.46759 l 300.0704 -366.8136 l -2.1240845 -0.08381653 l -30.84314 2.604416 l -1.5285034 0.18026733 l -45.33435 9.572815 l -20.434143 6.40654 l 181.67334 -8.742325 l 1.954895 0.39855957 l 31.63086 9.406937 l 38.24585 16.278503 l 18.384888 10.108215 l 126.08679 202.33853 l -3.9297485 -20.32019 l 9.514343 57.893677 l 3.578247 38.36676 l 1.7659912 33.50293 l -86.47681 -273.4302 l -22.28186 -19.035522 l 0.06793213 0.060699463 l 79.6297 111.866394 l -0.4413452 -1.3705444 l -10.0633545 -25.016174 l -24.494812 -43.282715 l 0.0 0.0 l 0.012390137 0.019134521 l 10.223999 15.682007 l 162.74872 -198.82553 l 0.0 0.0 l -0.16125488 -0.15289307 l -30.987305 -29.619202 l 75.891235 93.0963 l -16.411255 -25.843887 l 78.92578 181.63025 l 0.64038086 2.547699 l -25.31128 -81.99304 l -11.973633 -28.175507 l -143.78564 -175.67427 l -34.9281 -24.216381 l -72.596924 -38.50371 l 29.689514 13.943931 l -122.843994 -45.456917 l 40.284546 11.191164 l -135.112 -25.900253 l 0.0 0.0 l 0.18725586 0.02130127 l 42.189636 4.695236 l -106.837585 -1.5158806 l 3.538391 -0.39604568 l -117.64868 22.653912 l 31.550903 -8.783452 l -95.76367 32.943604 l 2.7201538 -1.2796373 l -108.34482 63.645844 l 36.90915 -25.67276 l -184.3013 226.98056 l 12.075409 -28.424774 l 25.543 -47.477722 l 16.259705 -25.6073 l 29.460175 -39.04834 l 26.958496 -30.304771 l 0.0 0.0 l -0.00018310547 0.00020599365 l -0.0014038086 0.0015563965 l 88.206726 238.15872 l 0.0 0.0 l -0.037719727 0.07434082 l -9.787933 19.14563 l 35.065857 -50.067627 l 15.140015 -15.727875 l 74.42868 -52.563156 l -29.555359 17.000534 l -17.341919 12.0260315 l -293.75043 92.5965 l 9.684082 -38.940796 l -18.237656 89.01877 l -4.159439 42.151978 l 0.26574707 100.46912 l 211.66878 -151.54047 l -0.39813232 1.2120972 l -8.681732 32.53473 l -13.035919 88.238525 l -0.15878296 1.6647949 l 6.897888 -57.69803 l -196.6681 185.9313 l 0.0012969971 97.012146 l 186.27878 46.010803 l 0.024871826 90.793335 l 0.075408936 95.30469 l 0.009399414 96.78815 l 0.00015258789 85.46765 l -186.39005 -114.89734 l -0.0064849854 -105.112854 l -0.00048828125 -91.31665 l 186.38896 497.5014 l 0.0012817383 -90.753296 l -186.09894 87.94849 l 140.98691 99.611206 l 20.733673 0.0 l -51.05603 0.0 l -16.090881 0.0 l -94.87558 -278.4839 l 0.0024871826 73.15918 l 17.21553 205.32507 l 0.91648865 0.0 l 48.18129 -0.00012207031 l -0.24584961 0.00012207031 l -14.925476 0.00012207031 l 135.27307 -1.0394287 l 6.1035156e-05 -0.048095703 l -0.0032043457 -0.61413574 l 24.774536 1.6989746 l 20.734344 0.0008544922 l -45.351196 90.90137 l 654.3772 -43.739624 l -20.544434 -0.00024414062 l 109.895874 -0.00012207031 l -16.000732 0.0 l -30.324219 0.0 l -15.427612 0.0 l 108.7384 -0.00024414062 l -14.725952 0.00012207031 l 61.01306 0.0 l -15.922974 0.0 l 20.973999 -192.54724 l 0.0546875 91.598755 l -233.34021 100.78699 l 0.45751953 -458.526 l 0.0014648438 105.25452 l 0.0 68.02612 l -0.03930664 120.510254 l 0.0 0.0 l 232.9961 -332.92505 l -0.0052490234 -96.99524 l -2.440796 -456.8684 l -3.2728271 -33.184357 l 5.7593994 92.56018 l 0.0 0.0 l -0.00048828125 0.3154297 l -0.020751953 90.37839 l 0.022949219 112.411865 l 0.00024414062 91.33588 l -0.06201172 306.43408 l 0.018066406 91.55884 " /> </g> </svg>