<?xml version="1.0" standalone="no"?><!DOCTYPE svg PUBLIC "-//W3C//DTD SVG 1.1//EN" "http://www.w3.org/Graphics/SVG/1.1/DTD/svg11.dtd" ><svg xmlns="http://www.w3.org/2000/svg" xmlns:xlink="http://www.w3.org/1999/xlink" version="1.1" viewBox="-10 0 692 1000"><g transform="matrix(1 0 0 -1 0 800)"><path stroke="black" fill="none" d="M 1027.3899 756.24786 l 0.00012207031 -92.94452 l 0.00012207031 278.9439 l 0.0 -92.94531 l -609.38983 -142.31757 l -0.00018310547 -92.954956 l 0.0 0.0 l 0.0 0.0 l 0.0 -6.1035156e-05 l 0.64971924 -38.70996 l 325.0052 -363.16705 l -34.41455 -1.322937 l 0.0 0.0 l 6.1035156e-05 0.0 l 0.0 0.0 l -32.773193 3.9832458 l -31.353638 6.671509 l -29.60205 9.288635 l 161.49963 -14.58667 l 31.1828 6.603897 l 29.813904 9.310822 l 28.273926 12.001694 l 26.539612 14.596725 l 124.80945 207.29327 l -5.8358765 -30.157074 l 10.393494 62.68448 l 3.2523193 34.77661 l 1.9487305 36.98419 l -86.152405 -274.3333 l -23.391724 -19.943268 l 86.74768 131.69345 l -8.390503 -25.529114 l -9.752869 -23.463287 l -23.409729 -40.145782 l 0.0 0.0 l 0.0 0.0 l 0.0 0.0 l 12.336121 18.908752 l 161.89392 -200.71886 l 0.0 0.0 l 0.0 0.0 l -0.00012207031 0.0 l -34.959106 -33.420067 l 83.56311 103.44329 l -22.753052 -35.826004 l 73.003784 154.12393 l 10.566406 42.483826 l -24.327148 -83.826324 l -16.685059 -39.257828 l -139.94849 -171.09396 l -38.07666 -26.38393 l -80.81903 -42.212505 l 41.13513 19.320143 l -128.29956 -47.504818 l 44.31012 12.311692 l -137.6903 -26.397388 l 0.0 0.0 l 0.0 0.0 l 0.0 0.0 l 47.431946 5.2769203 l -143.62726 1.7358894 l 47.106995 -5.2440567 l -137.4035 26.372433 l 44.17639 -12.293973 l -127.832245 47.412727 l 40.827423 -19.226927 l -118.51453 68.60323 l 37.94232 -26.39465 l -188.2904 235.75494 l 16.685791 -39.259674 l 19.802551 -37.692535 l 22.751892 -35.824265 l 25.866638 -34.21582 l 28.865936 -32.44426 l 0.0 0.0 l 0.0 0.0 l 0.0 0.0 l 88.56998 237.43005 l 0.0 0.0 l 0.0 0.0 l 0.0 3.0517578e-05 l -11.043732 21.597809 l 31.268127 -46.90341 l 21.721222 -22.559387 l 74.78735 -51.875076 l -26.53241 14.647446 l -24.874146 17.25122 l -292.21143 93.7316 l 10.63298 -42.75174 l -18.23999 87.292786 l -4.5570526 46.190063 l 0.001953125 99.4079 l 218.20157 -170.52924 l -8.389862 25.705688 l -7.1621704 28.065857 l -10.419373 62.669586 l -3.2271423 34.20755 l 7.793213 -66.69217 l -196.799 185.97964 l 0.0 99.38245 l 186.3991 42.724365 l 0.00018310547 92.983765 l 0.000579834 93.01697 l 6.1035156e-05 93.02789 l 0.0 92.94458 l -186.39993 -116.48828 l -4.5776367e-05 -99.44202 l 0.0 -99.340515 l 186.39992 501.27203 l 0.0 -92.9834 l -186.39777 88.694336 l 139.80872 99.40161 l 23.281097 0.0 l -46.63275 0.0 l -23.246979 0.0 l -93.21231 -298.0548 l 1.5258789e-05 99.20691 l 0.12669373 198.8479 l 23.128479 0.0 l 46.61844 0.0 l -23.240173 0.0 l 139.76666 -0.008911133 l -3.0517578e-05 -2.08667 l 23.310852 2.095581 l 23.281128 0.0 l -46.59079 90.900024 l 655.97815 -43.73999 l -23.279785 0.0 l 116.451416 0.0 l -23.246216 0.0 l -23.351807 0.0 l -23.241943 0.0 l 116.44287 0.0 l -23.236938 0.0 l 69.834595 0.0 l -23.245728 0.0 l 23.282837 -198.75403 l 0.00048828125 99.34265 l -233.00256 99.41016 l 0.0034179688 -464.9524 l 0.0 93.09021 l 0.0 92.816284 l -0.00012207031 184.67834 l 0.0 -91.102905 l 232.99976 -311.53436 l 0.0 -99.382324 l -1.5267334 -445.62338 l -4.550659 -46.124084 l 6.077759 94.135895 l 0.0 0.0 l 0.0 0.0 l 0.0 0.0 l -0.00012207031 99.34827 l 0.00012207031 99.49579 l 0.0 99.34064 l -0.00048828125 298.26068 l 0.00012207031 99.34216 " /> </g> </svg>