<?xml version="1.0" standalone="no"?><!DOCTYPE svg PUBLIC "-//W3C//DTD SVG 1.1//EN" "http://www.w3.org/Graphics/SVG/1.1/DTD/svg11.dtd" ><svg xmlns="http://www.w3.org/2000/svg" xmlns:xlink="http://www.w3.org/1999/xlink" version="1.1" viewBox="-10 0 692 1000"><g transform="matrix(1 0 0 -1 0 800)"><path stroke="black" fill="none" d="M 611.0 1325.0 l 0.0 -132.5 l 0.0 -132.5 l 0.0 -132.5 l 413.3263 -231.02264 l 0.0 0.0 l 2.748169 159.49408 l 0.0 0.0 l -606.68536 -302.66345 l 0.0 0.0 l 190.6109 -23.307983 l 84.81848 -316.94476 l 0.0 0.0 l 133.58759 18.541336 l 0.0 0.0 l 190.73291 255.43349 l 0.0 0.0 l 5.9917603 66.89456 l 0.0 0.0 l -73.03882 -243.99191 l 0.0 0.0 l 37.766968 60.93161 l 0.0 0.0 l 156.86707 -217.2027 l 0.0 0.0 l 57.232666 92.82419 l 0.0 0.0 l -206.88751 -213.75204 l 0.0 0.0 l -8.714966 -6.8806553 l -111.14838 -42.719383 l 0.0 0.0 l -270.73438 -0.009267807 l 0.0 0.0 l -76.068665 21.457571 l -35.597412 19.041224 l -24.6073 -23.623262 l -23.300018 2.64646e-09 l -1.1230164 54.84208 l 0.86203 -0.55039215 l -46.33899 -54.291687 l -23.300018 -4.0341335e-09 l -83.40271 228.37227 l 0.0 0.0 l 83.6048 -118.38501 l 0.0 0.0 l 126.227844 194.18398 l 0.0 0.0 l 38.583374 -33.776337 l 0.0 0.0 l -292.61432 74.39203 l 0.0 0.0 l -16.283234 95.13342 l 0.0 0.0 l 12.824661 114.57153 l 0.045700073 -0.011962891 l 186.66856 -106.47171 l 0.0 0.0 l -5.01416 25.579712 l 0.0 0.0 l -196.66397 217.7781 l 0.0 0.0 l 0.050842285 4.420105 l 181.57635 174.46704 l 0.9881592 5.194092 l 3.0027466 184.70715 l 0.31887817 80.58826 l 0.0 0.0 l -185.94313 -96.31738 l 0.0 0.0 l -0.053878784 -143.24738 l 0.0 0.0 l 185.73764 388.91034 l 0.050598145 -3.7509766 l -75.20474 38.66272 l -35.5 0.0 l -63.713562 20.293945 l 140.7898 107.79932 l 0.0 0.0 l -35.67575 -0.028442383 l -119.46843 -192.6997 l -63.932053 64.63489 l -35.5 0.0 l -35.499992 0.0 l -35.5 0.0 l -35.5 0.0 l 0.0 21.900024 l 0.0 21.900024 l 0.0 21.899902 l 0.0 21.900024 l 0.0 21.900024 l 0.0 21.900024 l 0.0 21.900024 l 0.0 21.899902 l 0.0 21.900024 l 0.0 21.900024 l 94.2 0.0 l 174.74265 -90.23108 l 0.0 0.0 l 13.657349 90.23108 l 117.98346 -92.394165 l 0.0 0.0 l 30.418427 1.2070312 l 0.0 0.0 l -29.482117 91.18713 l 163.68024 0.0 l 94.19995 0.0 l 94.20001 0.0 l 94.20001 0.0 l 94.20001 0.0 l 103.68823 -43.698364 l 0.0 0.0 l 62.11145 -0.040283203 l 0.0 0.0 l 97.415405 -0.34423828 l 0.0 0.0 l 16.075073 -69.98804 l 0.0 0.0 l -235.17377 63.899048 l -44.116394 -37.4281 l 0.0 -21.900024 l 62.255493 -222.17456 l 0.0 0.0 l -62.255493 178.37451 l 0.0 -21.899902 l 293.66382 -398.11023 l 0.0 0.0 l -0.20812988 -3.8284912 l -3.020752 -540.1621 l 0.0 0.0 l 4.835449 336.5395 l 0.0 0.0 l -5.9455566 450.77936 l 0.0 0.0 l -360.12488 110.98193 l -35.399963 0.0 l -35.400024 0.0 l -35.399963 0.0 l -35.400024 0.0 l -35.400024 0.0 l -35.399963 0.0 l -35.400024 0.0 l -35.400024 0.0 " /> </g> </svg>