<?xml version="1.0" standalone="no"?><!DOCTYPE svg PUBLIC "-//W3C//DTD SVG 1.1//EN" "http://www.w3.org/Graphics/SVG/1.1/DTD/svg11.dtd" ><svg xmlns="http://www.w3.org/2000/svg" xmlns:xlink="http://www.w3.org/1999/xlink" version="1.1" viewBox="-10 0 692 1000"><g transform="matrix(1 0 0 -1 0 800)"><path stroke="black" fill="none" d="M 611.0 1325.0 l 0.0 -132.5 l 0.0 -132.5 l 0.0 -132.5 l 380.66937 -102.1557 l 0.0 0.0 l -380.66937 -162.8443 l 0.0 -132.5 l 164.0412 -309.68164 l 0.0 0.0 l 248.3598 301.88788 l 0.0 0.0 l -58.05902 -194.20462 l 0.0 0.0 l 171.88751 -182.31386 l 0.0 0.0 l -259.06543 -162.54176 l 0.0 0.0 l -271.62048 1.5239134 l -68.31445 19.912127 l -20.429138 -4.5820394 l -22.288818 18.271627 l -24.311157 -18.271627 l -23.300018 2.6464608e-09 l -2.0877075 50.008087 l 0.0 0.0 l -44.512268 -50.008087 l -23.300018 -4.0341335e-09 l -68.18576 208.41856 l 0.0 0.0 l 216.53445 75.448746 l 0.0 0.0 l -290.78278 151.98322 l 0.0 0.0 l 48.4095 108.964905 l 0.0 0.0 l 146.27036 -73.03705 l 0.0 0.0 l -194.25659 336.25775 l 0.0 0.0 l 142.4011 104.54053 l 0.0 0.0 l 36.178284 230.55432 l 0.0 0.0 l -170.4094 -55.29187 l 0.0 0.0 l 170.4094 201.56897 l 0.0 0.0 l -72.06854 35.59192 l -35.5 0.0 l -35.5 0.0 l 20.6008 127.30664 l 0.0 0.0 l -69.60977 -177.29907 l -57.491028 49.99243 l -35.5 0.0 l -35.499992 0.0 l -35.5 0.0 l -35.5 0.0 l 0.0 21.900024 l 0.0 21.900024 l 0.0 21.899902 l 0.0 21.900024 l 0.0 21.900024 l 0.0 21.900024 l 0.0 21.900024 l 0.0 21.899902 l 0.0 21.900024 l 0.0 21.900024 l 94.2 0.0 l 94.19999 0.0 l 94.20001 0.0 l 143.93503 -91.33008 l 0.0 0.0 l -9.2751465 91.33008 l 147.94012 0.0 l 94.19995 0.0 l 94.20001 0.0 l 94.20001 0.0 l 94.20001 0.0 l 159.09045 -43.191284 l 0.0 0.0 l 104.46912 -2.3146973 l 0.0 0.0 l -263.55957 -20.19397 l 0.0 -21.900024 l 0.0 -21.900024 l 44.116394 -25.675903 l -44.116394 -18.124146 l 0.0 -21.899902 l 275.26733 -505.23322 l 0.0 0.0 l 2.1573486 -491.85403 l 0.0 0.0 l -243.6767 879.932 l -104.548035 73.355225 l -35.399963 0.0 l -35.400024 0.0 l -35.399963 0.0 l -35.400024 0.0 l -35.400024 0.0 l -35.399963 0.0 l -35.400024 0.0 l -35.400024 0.0 " /> </g> </svg>