<?xml version="1.0" standalone="no"?><!DOCTYPE svg PUBLIC "-//W3C//DTD SVG 1.1//EN" "http://www.w3.org/Graphics/SVG/1.1/DTD/svg11.dtd" ><svg xmlns="http://www.w3.org/2000/svg" xmlns:xlink="http://www.w3.org/1999/xlink" version="1.1" viewBox="-10 0 692 1000"><g transform="matrix(1 0 0 -1 0 800)"><path stroke="black" fill="none" d="M 1027.3898 756.21844 l 0.00012207031 -92.81055 l 0.00048828125 278.80847 l 0.0 -92.813354 l -609.3892 -142.45648 l -0.0006713867 -92.84656 l 0.0 0.0 l 0.0 0.0 l 0.0 -6.1035156e-05 l 0.64907837 -38.661377 l 324.55887 -363.2323 l -33.963318 -1.3057709 l 0.0 0.0 l 0.00012207031 0.0 l 0.00036621094 1.5258789e-05 l -32.63971 3.9667816 l -31.603882 6.7234344 l -29.437927 9.237061 l 161.86072 -14.482071 l 30.65863 6.4926147 l 29.847473 9.312759 l 28.452393 12.078247 l 26.393616 14.516373 l 124.83234 207.20462 l -5.801758 -29.981018 l 10.377747 62.598724 l 3.2582397 34.84088 l 1.9454346 36.921875 l -86.158264 -274.31714 l -23.371887 -19.927032 l 86.62152 131.33966 l -8.246826 -25.09253 l -9.759827 -23.49527 l -23.433044 -40.207947 l 0.0 0.0 l 0.0 0.0 l 0.0 0.0 l 12.30249 18.85736 l 161.92682 -200.6682 l 0.0 0.0 l 0.0 -1.5258789e-05 l -0.00012207031 -3.0517578e-05 l -34.90857 -33.3715 l 83.42578 103.258095 l -22.639526 -35.64734 l 73.10986 154.61624 l 10.388672 41.76883 l -24.344727 -83.793304 l -16.60083 -39.059464 l -140.01709 -171.17593 l -38.020264 -26.345139 l -80.671936 -42.146122 l 40.930298 19.223915 l -128.2019 -47.468163 l 44.2381 12.2916355 l -137.66638 -26.391012 l 0.0 0.0 l 6.1035156e-05 3.8146973e-06 l 0.0 3.8146973e-06 l 47.363586 5.2694054 l -142.96875 1.6776867 l 46.32715 -5.157282 l -137.04993 26.305874 l 43.95044 -12.231139 l -127.25827 47.153748 l 40.145294 -18.90566 l -118.33246 68.514465 l 37.92383 -26.381725 l -188.219 235.59789 l 16.603271 -39.06572 l 19.905304 -37.86769 l 22.635681 -35.641388 l 25.93097 -34.302322 l 28.832031 -32.406227 l 0.0 0.0 l 0.0 0.0 l 0.0 0.0 l 88.56976 237.43051 l 0.0 0.0 l 0.0 0.0 l 0.0 0.0 l -11.028473 21.568176 l 31.33609 -46.960052 l 21.603424 -22.437103 l 74.780945 -51.887405 l -26.586548 14.68956 l -24.739319 17.157715 l -292.23895 93.71127 l 10.615997 -42.683533 l -18.239944 87.32367 l -4.549942 46.117798 l 0.0066833496 99.42691 l 218.08464 -170.18939 l -8.24469 25.260712 l -7.191498 28.152435 l -10.466217 63.127228 l -3.1719666 33.622345 l 7.776947 -66.52844 l -196.79666 185.97876 l 3.0517578e-05 99.34003 l 186.39694 42.783203 l 0.00061035156 92.94452 l 0.0019226074 93.05792 l 0.00021362305 93.09515 l 0.0 92.81079 l -186.39973 -116.45972 l -0.00015258789 -99.54358 l -1.5258789e-05 -99.1969 l 186.39972 501.2046 l 3.0517578e-05 -92.9436 l -186.39243 88.68115 l 139.8298 99.40527 l 23.235504 0.0 l -46.711945 0.0 l -23.118866 0.0 l -93.242096 -297.7046 l 6.1035156e-05 98.74072 l 0.4325714 198.96387 l 22.714386 0.0 l 46.662918 0.0 l -23.095734 0.0 l 139.68622 -0.030273438 l -6.1035156e-05 -2.0546875 l 23.337036 2.084961 l 23.235565 0.0 l -46.568634 90.900024 l 655.94946 -43.73999 l -23.230835 0.0 l 116.33411 0.0 l -23.116577 0.0 l -23.476562 0.0 l -23.10205 0.0 l 116.30493 0.0 l -23.084595 0.0 l 69.676636 0.0 l -23.114624 0.0 l 23.241577 -198.64294 l 0.0014648438 99.20398 l -233.00867 99.43494 l 0.01159668 -464.8374 l 0.0 93.30798 l 0.0 92.37244 l -0.00048828125 181.48767 l 0.00024414062 -86.522705 l 232.99915 -312.8246 l -0.00012207031 -99.3396 l -1.5430908 -445.82468 l -4.527832 -45.892456 l 6.0721436 94.0784 l 0.0 0.0 l 0.0 3.0517578e-05 l 0.0 3.0517578e-05 l -0.00061035156 99.222595 l 0.00061035156 99.72699 l 0.0 99.19733 l -0.0015869141 298.40692 l 0.00048828125 99.20288 " /> </g> </svg>