<?xml version="1.0" standalone="no"?><!DOCTYPE svg PUBLIC "-//W3C//DTD SVG 1.1//EN" "http://www.w3.org/Graphics/SVG/1.1/DTD/svg11.dtd" ><svg xmlns="http://www.w3.org/2000/svg" xmlns:xlink="http://www.w3.org/1999/xlink" version="1.1" viewBox="-10 0 692 1000"><g transform="matrix(1 0 0 -1 0 800)"><path stroke="black" fill="none" d="M 1027.3877 755.77563 l 0.0014648438 -90.791016 l 0.0057373047 276.76703 l 0.00012207031 -90.82446 l -609.38135 -144.5503 l -0.0066223145 -91.2514 l 0.0 0.0 l 6.1035156e-05 -0.00091552734 l 0.00091552734 -0.031311035 l 0.637146 -37.858154 l 317.83267 -364.216 l -26.600403 -1.0247498 l 0.0 0.0 l -24.23407 2.8779755 l -6.949341 0.81874084 l -35.375244 7.506073 l -26.964844 8.459595 l 167.30261 -12.905533 l 22.758667 4.8153534 l 30.353271 9.342041 l 31.142334 13.231918 l 24.193909 13.305603 l 125.17688 205.86804 l -5.2875977 -27.327484 l 10.140625 61.306396 l 3.3460693 35.809326 l 1.8961182 35.982788 l -86.24567 -274.07352 l -23.07251 -19.68216 l 84.71979 126.00766 l -6.081726 -18.512573 l -9.86438 -23.977295 l -23.767334 -41.118134 l 0.0 0.0 l 0.00036621094 0.000579834 l 0.0087890625 0.0134887695 l 11.768433 18.042023 l 162.34564 -199.97887 l 0.0 0.0 l -0.0029296875 -0.0028076172 l -0.5611572 -0.5324249 l -33.504883 -32.030876 l 81.35632 100.46697 l -20.928833 -32.95465 l 74.707275 162.03616 l 7.710327 30.992615 l -24.609375 -83.29544 l -15.329834 -36.069992 l -141.05225 -172.41148 l -37.17102 -25.76043 l -78.45392 -41.145668 l 37.842773 17.77367 l -126.730225 -46.915737 l 43.15216 11.98937 l -137.20715 -26.283785 l 0.0 0.0 l 0.003540039 0.0004005432 l 0.6057739 0.06890106 l 45.627075 5.075821 l -133.04468 0.8005161 l 34.574097 -3.8494892 l -131.7207 25.302765 l 40.544678 -11.284169 l -118.60773 43.25067 l 29.864685 -14.063831 l -115.58804 67.17669 l 37.64514 -26.186996 l -187.14294 233.23099 l 15.359619 -36.143005 l 21.453796 -40.507248 l 20.8844 -32.885345 l 26.90033 -35.605896 l 28.320007 -31.831947 l 0.0 0.0 l -3.0517578e-05 2.2888184e-05 l -3.0517578e-05 3.8146973e-05 l 88.53876 237.49265 l 0.0 0.0 l -0.0008239746 0.0016479492 l -0.071258545 0.1404419 l -10.697693 20.922333 l 32.360565 -47.8136 l 19.828125 -20.5943 l 74.684204 -52.073013 l -27.401978 15.324326 l -22.70752 15.748199 l -292.6541 93.40506 l 10.360031 -41.655518 l -18.239319 87.789276 l -4.4426727 45.028503 l 0.07783508 99.713165 l 216.3224 -165.06711 l -6.05661 18.554352 l -7.6336975 29.457062 l -11.172028 70.024506 l -2.340393 24.802612 l 7.531555 -64.061005 l -196.76137 185.96573 l 0.00038146973 98.70062 l 186.3645 43.66974 l 0.0072631836 92.3537 l 0.022094727 93.67499 l 0.002746582 94.10956 l 6.1035156e-05 90.79382 l -186.39708 -116.03064 l -0.0019073486 -101.07324 l -0.0001373291 -97.03241 l 186.39677 500.18744 l 0.00036621094 -92.34204 l -186.31183 88.47986 l 140.14764 99.461914 l 22.54831 0.0 l -47.90512 0.0 l -21.188507 0.0 l -93.69075 -292.4253 l 0.0007324219 91.714355 l 5.0423126 200.71106 l 16.473785 0.0 l 47.333374 0.0 l -1.4490051 0.00012207031 l -19.470154 -0.00012207031 l 138.47403 -0.3428955 l -0.0010375977 -1.5878906 l 23.732056 1.9300537 l 22.548553 0.00024414062 l -46.234253 90.90039 l 655.5176 -43.73987 l -22.49292 -0.00012207031 l 114.565674 0.0 l -21.161987 0.0 l -25.357422 0.0 l -20.99414 0.0 l 114.226685 -0.00012207031 l -20.788818 0.00012207031 l 67.29712 0.0 l -21.139282 0.0 l 22.618774 -196.96863 l 0.015991211 97.11499 l -233.09973 99.806274 l 0.1340332 -463.10376 l 0.00048828125 96.58923 l 0.0 85.6853 l -0.006225586 133.40015 l 0.0028076172 -17.494873 l 232.99072 -332.2694 l -0.0015869141 -98.69568 l -1.7896729 -448.858 l -4.1829834 -42.401947 l 5.9866943 93.34134 l 0.0 0.0 l 0.0 0.005432129 l -0.001953125 1.2166138 l -0.0048828125 95.97806 l 0.006713867 103.21112 l 0.00012207031 97.038025 l -0.018188477 300.61182 l 0.0053710938 97.10327 " /> </g> </svg>