<?xml version="1.0" standalone="no"?><!DOCTYPE svg PUBLIC "-//W3C//DTD SVG 1.1//EN" "http://www.w3.org/Graphics/SVG/1.1/DTD/svg11.dtd" ><svg xmlns="http://www.w3.org/2000/svg" xmlns:xlink="http://www.w3.org/1999/xlink" version="1.1" viewBox="-10 0 692 1000"><g transform="matrix(1 0 0 -1 0 800)"><path stroke="black" fill="none" d="M 1027.3893 756.11816 l 0.00036621094 -92.35303 l 0.0017089844 278.346 l 0.0 -92.36279 l -609.38745 -142.93085 l -0.0021972656 -92.47876 l 0.0 0.0 l 0.0 -6.1035156e-05 l 0.0 -0.00018310547 l 0.64678955 -38.49292 l 323.0351 -363.45514 l -32.387817 -1.2457733 l 0.0 0.0 l 0.0016479492 7.6293945e-05 l -23.658203 2.900711 l -8.560364 1.0084839 l -32.458252 6.9007416 l -28.877686 9.060928 l 163.0935 -14.124924 l 28.869019 6.1126404 l 29.962036 9.319397 l 29.061768 12.3396 l 25.895325 14.242081 l 124.9104 206.90182 l -5.6853027 -29.379883 l 10.324036 62.30597 l 3.2780762 35.06024 l 1.9343262 36.709167 l -86.1781 -274.26196 l -23.304016 -19.871552 l 86.190674 130.13174 l -7.7563477 -23.601898 l -9.783508 -23.604462 l -23.511597 -40.418488 l 0.0 0.0 l 0.0 3.0517578e-05 l 0.00012207031 0.00012207031 l 12.186279 18.680023 l 162.03442 -200.49988 l 0.0 0.0 l -0.00012207031 -0.0001373291 l -0.0008544922 -0.0008087158 l -34.730225 -33.200287 l 82.95691 102.62579 l -22.251953 -35.03734 l 73.4718 156.29716 l 9.78186 39.327576 l -24.404663 -83.68051 l -16.312866 -38.382233 l -140.25159 -171.45584 l -37.82788 -26.212677 l -80.169495 -41.91948 l 40.230835 18.895376 l -127.86847 -47.343018 l 43.992065 12.22316 l -137.57843 -26.36855 l 0.0 0.0 l 0.00018310547 1.9073486e-05 l 0.0010375977 0.00011444092 l 47.12317 5.2429504 l -140.72058 1.4789734 l 43.66461 -4.8610115 l -135.84265 26.078625 l 43.178894 -12.016612 l -125.29855 46.269543 l 37.816315 -17.808788 l -117.710724 68.2114 l 37.860687 -26.337612 l -187.97522 235.06169 l 16.321533 -38.403625 l 20.256104 -38.465652 l 22.238953 -35.01703 l 26.150543 -34.597626 l 28.716217 -32.27633 l 0.0 0.0 l 0.0 0.0 l -3.0517578e-05 0.0 l 88.56735 237.4354 l 0.0 0.0 l -6.1035156e-05 9.1552734e-05 l -0.00018310547 0.00039672852 l -10.974396 21.462952 l 31.568176 -47.15341 l 21.201263 -22.019623 l 74.75903 -51.929474 l -26.771301 14.833374 l -24.278992 16.83841 l -292.33307 93.64188 l 10.558014 -42.450653 l -18.239807 87.42917 l -4.525635 45.871033 l 0.02279663 99.49176 l 217.68541 -169.02899 l -7.748993 23.741455 l -7.2916565 28.447968 l -10.626129 64.68976 l -2.9835815 31.624298 l 7.7213745 -65.96945 l -196.78868 185.9758 l 0.00010681152 99.19519 l 186.38962 42.98401 l 0.002105713 92.81073 l 0.0064697266 93.19769 l 0.0008239746 93.32501 l 0.0 92.35376 l -186.39914 -116.36255 l -0.0005493164 -99.890076 l -4.5776367e-05 -98.70648 l 186.39906 500.97412 l 9.1552734e-05 -92.80725 l -186.37416 88.6355 l 139.90181 99.41809 l 23.079834 0.0 l -46.98224 0.0 l -22.68158 0.0 l -93.343735 -296.50854 l 0.00021362305 97.148926 l 1.4768677 199.35962 l 21.300644 0.0 l 46.81479 0.0 l -22.602661 0.0 l 139.41162 -0.10253906 l -0.0002746582 -1.9464111 l 23.426514 2.0488281 l 23.079926 0.0 l -46.49289 90.90015 l 655.8517 -43.73999 l -23.06372 0.0 l 115.93347 0.0 l -22.673706 0.0 l -23.90271 0.0 l -22.624512 0.0 l 115.83411 0.0 l -22.564453 0.0 l 69.13757 0.0 l -22.667114 0.0 l 23.100464 -198.26367 l 0.004760742 98.730835 l -233.0293 99.51892 l 0.03930664 -464.44458 l 0.00012207031 94.05127 l 0.0 90.857544 l -0.0018310547 170.59387 l 0.0008544922 -70.88501 l 232.99731 -317.22968 l -0.00048828125 -99.193726 l -1.598999 -446.51184 l -4.449707 -45.101715 l 6.0528564 93.8902 l 0.0 0.0 l 0.0 0.00024414062 l 0.0 0.0017700195 l -0.0020751953 98.78366 l 0.001953125 100.5163 l 0.0 98.70813 l -0.0052490234 298.90643 l 0.0015869141 98.727295 " /> </g> </svg>