<?xml version="1.0" standalone="no"?><!DOCTYPE svg PUBLIC "-//W3C//DTD SVG 1.1//EN" "http://www.w3.org/Graphics/SVG/1.1/DTD/svg11.dtd" ><svg xmlns="http://www.w3.org/2000/svg" xmlns:xlink="http://www.w3.org/1999/xlink" version="1.1" viewBox="-10 0 692 1000"><g transform="matrix(1 0 0 -1 0 800)"><path stroke="black" fill="none" d="M 1027.2954 736.9819 l 0.059326172 -5.088745 l 0.22802734 190.1347 l 0.008544922 -6.416931 l -609.047 -233.41089 l 1.6624451 -82.58716 l 0.0 0.0 l 282.31476 -341.28976 l 0.0 0.0 l -72.101074 15.369003 l 0.0 0.0 l 182.12317 -2.8029938 l 0.0 0.0 l 69.16528 28.73375 l 0.0 0.0 l 133.66754 202.14467 l 0.0 0.0 l 4.609436 28.295746 l 7.0776978 76.91031 l 0.04321289 0.7680054 l -90.19916 -268.37396 l -10.36615 -9.290131 l 0.0 0.0 l 68.23389 95.082855 l 0.0 0.0 l -26.586182 -51.764313 l 0.0 0.0 l 147.5094 -209.53717 l 0.0 0.0 l 50.001953 57.924553 l 0.0 0.0 l 57.77246 113.22829 l -12.28833 -30.980927 l 0.0 0.0 l -176.36328 -205.02103 l -1.6109619 -1.2739143 l -53.411682 -30.971867 l 0.0 0.0 l -87.891785 -34.631947 l 0.92248535 0.2469883 l -95.63391 -19.347038 l 0.0 0.0 l -77.576965 -1.5883293 l -118.41211 20.657127 l 0.0 0.0 l -105.08389 39.63141 l -69.14728 43.989998 l 25.817291 -17.922691 l -165.0188 189.33646 l 0.0 0.0 l 30.675995 -53.21399 l 0.0 0.0 l 57.21881 -74.8244 l 4.7929077 -5.425316 l 0.0 0.0 l 78.54425 259.7323 l 0.0 0.0 l 45.641296 -63.046173 l 0.0 0.0 l 55.94223 -45.27655 l -15.944092 10.478394 l 0.0 0.0 l -292.81485 68.12393 l 0.25341797 -1.0441284 l -18.96904 110.56543 l -0.12663269 1.2267151 l 3.3335266 109.43536 l 0.78460693 -0.20501709 l 199.00049 -121.37073 l -0.20089722 0.7421875 l -8.312744 43.10553 l 0.115234375 -0.8529968 l -195.7696 188.97305 l 0.0004272461 0.038330078 l 0.014556885 71.52661 l 184.9872 81.29364 l 0.28964233 67.27734 l 0.87924194 119.865295 l 0.109558105 137.15729 l 0.001739502 5.2005615 l -186.28407 -97.8208 l 0.0004119873 -0.011962891 l -0.07598877 -165.98212 l -0.005645752 -5.1775513 l 186.27145 457.0244 l 0.015014648 -66.81091 l -182.89084 79.9397 l 153.63449 101.86145 l 0.30963135 0.0 l -78.63623 -0.00024414062 l 0.0 0.0 l -78.959656 -218.86523 l 0.0 0.0 l 31.221436 218.90967 l 8.305969 -0.026733398 l 0.0 0.0 l 147.58044 -1.6298828 l 0.0 0.0 l 0.014465332 0.012329102 l 40.065582 1.574707 l 0.31021118 0.0013427734 l -38.959625 90.92468 l 637.30707 -43.73633 l -0.15881348 -0.00012207031 l 82.81433 -0.003540039 l 0.0 0.0 l -32.677856 0.0 l 0.0 0.0 l 99.91565 -0.009155273 l 0.0 0.0 l 29.37439 0.0024414062 l 0.0 0.0 l 21.881714 -125.906494 l 0.6376953 8.46106 l -236.966 115.56824 l 5.333679 -389.5338 l 0.015136719 81.66589 l 0.0 0.0 l -5.348816 149.57031 l 237.84772 -346.39807 l -0.0021972656 -0.04168701 l -0.059814453 -71.32611 l -4.1481934 -493.65997 l 0.0 0.0 l 3.7612305 137.48901 l 0.0 0.0 l 0.94091797 208.81354 l 0.002319336 5.4004517 l -0.7219238 394.18036 l 0.20996094 7.998535 " /> </g> </svg>