<?xml version="1.0" standalone="no"?><!DOCTYPE svg PUBLIC "-//W3C//DTD SVG 1.1//EN" "http://www.w3.org/Graphics/SVG/1.1/DTD/svg11.dtd" ><svg xmlns="http://www.w3.org/2000/svg" xmlns:xlink="http://www.w3.org/1999/xlink" version="1.1" viewBox="-10 0 692 1000"><g transform="matrix(1 0 0 -1 0 800)"><path stroke="black" fill="none" d="M 348.40033 1330.0001 l 42.6998 -106.99988 l 42.6998 -107.00037 l 42.6998 -107.0 l 42.6998 -106.99994 l 42.705933 -107.01373 l 42.692627 -106.98163 l -258.09775 25.995361 l 300.92014 -133.00171 l 85.836975 0.00061035156 l -43.259277 -106.99411 l 86.59985 213.99063 l -362.398 -139.99542 l 67.6998 -165.99991 l 67.700226 -165.99983 l 273.99988 -0.00016784668 l 69.30054 165.99997 l 69.299805 165.99994 l 69.29974 166.00024 l 69.29968 165.9997 l -237.60132 21.995972 l -43.29779 -106.994446 l 86.60504 214.01239 l 43.292603 106.98181 l 43.30194 107.004395 l 43.299866 106.99988 l 43.299927 107.00037 l 196.29797 106.999756 l -25.631592 0.0 l -25.323364 0.0 l -51.03003 0.0 l 25.48352 0.0 l -51.0083 0.0 l -25.481934 0.0 l 178.49731 0.0 l 25.49414 0.0 l 51.001465 0.0 l -25.498291 0.0 l -43.801147 -165.99988 l -69.29956 -166.00012 l -69.29968 -166.00024 l -415.8004 -996.0002 l -69.30011 -165.99919 l -67.69989 165.99927 l -338.50027 830.0002 l -67.69969 166.00012 l -67.69968 166.00024 l -67.699684 165.99963 l 110.78684 166.00012 l -25.483276 0.0 l -25.516129 0.0 l -25.482063 0.0 l -25.518745 0.0 l -25.48341 0.0 l -50.991776 0.0 l 25.48295 0.0 l 229.50488 0.0 l 0.0 0.0 l 0.0 0.0 l 0.0 0.0 l -25.511871 0.0 l -25.482224 0.0 l 93.69408 -106.99988 " /> </g> </svg>