<?xml version="1.0" standalone="no"?><!DOCTYPE svg PUBLIC "-//W3C//DTD SVG 1.1//EN" "http://www.w3.org/Graphics/SVG/1.1/DTD/svg11.dtd" ><svg xmlns="http://www.w3.org/2000/svg" xmlns:xlink="http://www.w3.org/1999/xlink" version="1.1" viewBox="-10 0 692 1000"><g transform="matrix(1 0 0 -1 0 800)"><path stroke="black" fill="none" d="M 348.40033 1330.0001 l 42.69934 -106.999756 l 42.69931 -107.00134 l 42.69934 -106.999756 l 42.69934 -106.999756 l 42.720154 -107.047 l 42.674927 -106.937195 l -258.09238 25.984192 l 301.2101 -133.00598 l 85.4436 0.0020751953 l -43.16107 -106.97986 l 86.59961 213.96796 l -362.3933 -139.98419 l 67.69937 -165.99979 l 67.700714 -165.99944 l 273.99957 -0.0005493164 l 69.30188 165.9999 l 69.29932 165.99976 l 69.29895 166.00092 l 69.29895 165.99884 l -237.60449 21.986267 l -43.29236 -106.98102 l 86.61725 214.04242 l 43.27472 106.93768 l 43.30658 107.01514 l 43.299377 106.999756 l 43.299927 107.00122 l 196.29309 106.99902 l -25.94934 0.0 l -24.896729 0.0 l -51.10266 0.0 l 25.443604 0.0 l -51.0282 0.0 l -25.438477 0.0 l 178.49084 0.0 l 25.47998 0.0 l 51.00525 0.0 l -25.49414 0.0 l -43.803833 -165.99963 l -69.29883 -166.00049 l -69.29895 -166.00061 l -415.80127 -996.0007 l -69.300415 -165.99725 l -67.699646 165.9975 l -338.5009 830.0008 l -67.69891 166.00049 l -67.69891 166.00061 l -67.69893 165.9989 l 110.75508 166.00037 l -25.442886 0.0 l -25.555084 0.0 l -25.438774 0.0 l -25.563995 0.0 l -25.443352 0.0 l -50.971916 0.0 l 25.441786 0.0 l 229.51668 0.0 l 0.0 0.0 l 0.0 0.0 l 0.0 0.0 l -25.540543 0.0 l -25.43927 0.0 l 93.67976 -106.999756 " /> </g> </svg>