<?xml version="1.0" standalone="no"?><!DOCTYPE svg PUBLIC "-//W3C//DTD SVG 1.1//EN" "http://www.w3.org/Graphics/SVG/1.1/DTD/svg11.dtd" ><svg xmlns="http://www.w3.org/2000/svg" xmlns:xlink="http://www.w3.org/1999/xlink" version="1.1" viewBox="-10 0 692 1000"><g transform="matrix(1 0 0 -1 0 800)"><path stroke="black" fill="none" d="M 348.40378 1330.0015 l 42.69211 -106.997314 l 42.692078 -107.01465 l 42.69214 -106.99744 l 42.692078 -106.997375 l 42.93512 -107.54791 l 42.408386 -106.26764 l -258.01157 25.815918 l 305.58066 -133.07025 l 79.51434 0.024353027 l -41.68103 -106.76492 l 86.59564 213.62625 l -362.32166 -139.81586 l 67.69287 -165.99722 l 67.70801 -165.99342 l 273.99506 -0.0063934326 l 69.32196 165.99878 l 69.2926 165.99722 l 69.2876 166.01056 l 69.28723 165.98651 l -237.65283 21.840271 l -43.210693 -106.779175 l 86.80109 214.49445 l 43.005554 106.2735 l 43.37671 107.17627 l 43.291992 106.99744 l 43.300537 107.01465 l 196.2185 106.98828 l -30.738037 0.0 l -18.467651 0.0 l -52.196655 0.0 l 24.84253 0.0 l -51.328125 0.0 l -24.783325 0.0 l 178.39319 -0.00012207031 l 25.267212 0.00012207031 l 51.06079 0.0 l -25.432373 0.0 l -43.843872 -165.99573 l -69.28711 -166.0061 l -69.28723 -166.0061 l -415.8145 -996.00824 l -69.30499 -165.968 l -67.695984 165.97093 l -338.50995 830.0089 l -67.687485 166.00604 l -67.68747 166.0061 l -67.68748 165.98767 l 110.27633 166.00452 l -24.834229 0.0 l -26.142075 0.0 l -24.786293 0.0 l -26.246033 0.0 l -24.839638 0.0 l -50.67267 0.0 l 24.82142 0.0 l 229.69383 0.0 l 0.0 0.0 l 0.0 0.0 l -3.0517578e-05 0.0 l -25.972046 0.0 l -24.792068 0.0 l 93.46391 -106.99707 " /> </g> </svg>