<?xml version="1.0" standalone="no"?><!DOCTYPE svg PUBLIC "-//W3C//DTD SVG 1.1//EN" "http://www.w3.org/Graphics/SVG/1.1/DTD/svg11.dtd" ><svg xmlns="http://www.w3.org/2000/svg" xmlns:xlink="http://www.w3.org/1999/xlink" version="1.1" viewBox="-10 0 692 1000"><g transform="matrix(1 0 0 -1 0 800)"><path stroke="black" fill="none" d="M 348.41287 1330.0051 l 42.673035 -106.99121 l 42.673035 -107.049805 l 42.673065 -106.99121 l 42.673035 -106.99115 l 43.502686 -108.870544 l 41.704407 -104.499756 l -257.79807 25.371582 l 317.12222 -133.23987 l 63.85663 0.08319092 l -37.772522 -106.19736 l 86.585205 212.7239 l -362.13266 -139.37134 l 67.67572 -165.99045 l 67.72739 -165.97758 l 273.98315 -0.021835327 l 69.37488 165.99579 l 69.27472 165.9906 l 69.25757 166.03601 l 69.256226 165.95392 l -237.78009 21.454712 l -42.99524 -106.246155 l 87.28662 215.68811 l 42.29486 104.51947 l 43.56183 107.60217 l 43.272644 106.99121 l 43.302002 107.049805 l 196.02148 106.96008 l -43.383545 0.0 l -1.5482178 0.0 l -55.02771 0.0 l 23.255249 0.0 l -52.120117 0.0 l -23.053345 0.0 l 178.13562 -0.00024414062 l 24.7052 0.00012207031 l 51.207275 0.00012207031 l -25.268799 0.0 l -43.94995 -165.9856 l -69.2561 -166.02063 l -69.25635 -166.02075 l -415.84943 -996.02826 l -69.31714 -165.89075 l -67.68622 165.90076 l -338.53403 830.0305 l -67.65724 166.02069 l -67.65726 166.02075 l -67.65725 165.95789 l 109.01208 166.01538 l -23.226913 0.0 l -27.69217 0.0 l -23.063263 0.0 l -28.047112 0.0 l -23.24538 0.0 l -49.88242 0.0 l 23.183186 0.0 l 230.15756 0.0 l 0.0 0.0 l -9.1552734e-05 0.0 l -0.0002746582 0.0 l -27.107147 0.0 l -23.083008 0.0 l 92.89389 -106.98987 " /> </g> </svg>