<?xml version="1.0" standalone="no"?><!DOCTYPE svg PUBLIC "-//W3C//DTD SVG 1.1//EN" "http://www.w3.org/Graphics/SVG/1.1/DTD/svg11.dtd" ><svg xmlns="http://www.w3.org/2000/svg" xmlns:xlink="http://www.w3.org/1999/xlink" version="1.1" viewBox="-10 0 692 1000"><g transform="matrix(1 0 0 -1 0 800)"><path stroke="black" fill="none" d="M 418.0 1544.0 l 0.0 -93.0 l -63.629272 -118.59802 l 39.036926 -105.79895 l 24.592346 -54.603027 l 14.44455 -59.174072 l 39.036957 -105.79901 l 39.036926 -105.79901 l 77.95935 -181.7627 l 0.0 0.0 l -235.84406 -6.065735 l 65.36627 -99.399475 l 0.0 0.0 l 259.67102 -100.43262 l 0.0 0.0 l 81.22101 138.12439 l 0.0 0.0 l -344.143 -104.49127 l 9.100983 -42.97049 l 4.549988 -32.310028 l 5.850006 -30.169983 l 7.149994 -28.029999 l 37.75052 -31.21988 l -19.550507 -18.420135 l 11.049988 -21.609985 l 0.0 0.0 l 20.190002 -25.269989 l 21.769989 -22.610016 l 23.350037 -19.950012 l 14.608459 -55.092712 l 36.831543 23.17273 l 28.089966 -11.970001 l 29.669983 -9.310013 l 31.25 -6.649994 l 32.830017 -3.9900055 l 0.0 0.0 l 34.600037 1.3300018 l 33.0 3.9900055 l 45.44226 0.46076965 l 15.75769 15.499237 l 28.200012 11.969986 l 26.600037 14.630005 l 25.0 17.290009 l 23.399963 19.949982 l 21.799988 22.610016 l 0.0 0.0 l 12.350037 18.929993 l 11.049988 21.190002 l -84.67914 23.358582 l 102.87915 25.801422 l 7.1499634 27.970001 l 5.8500366 30.230011 l 4.549988 32.48999 l -54.56494 48.23462 l 59.764954 23.52539 l 0.0 93.0 l 3.7574463 54.365356 l 63.35498 159.73755 l -67.11243 64.897095 l -194.96222 -116.99414 l -1.8989258 -4.5897217 l 112.25293 273.47144 l 0.0 0.0 l 53.259827 128.70312 l 39.58545 105.79907 l -8.237061 78.61023 l 0.0 93.0 l 23.299927 0.0 l 28.520142 -57.83313 l 18.079956 57.83313 l 23.299927 0.0 l 23.300049 0.0 l 68.44006 43.733276 l 0.0 0.0 l -78.518555 0.0040283203 l 0.0 0.0 l 56.678467 -43.737305 l 126.0011 43.645752 l 0.0 0.0 l -79.40112 -43.645752 l 132.02954 43.73767 l 0.0 0.0 l -0.4050293 -0.00012207031 l -64.15881 -164.0365 l -44.16565 -78.5011 l -19.189331 -90.312744 l 19.189331 -108.48718 l -82.54443 -60.326538 l 82.54443 -138.47351 l 0.0 -99.400024 l 0.0 -99.39996 l 0.0 -99.400024 l 0.0 -99.399994 l 0.0 0.0 l -1.5200195 -47.940002 l -4.5600586 -46.22 l -7.5999756 -44.5 l -10.640015 -42.78 l -13.679932 -41.059998 l -16.71997 -39.339996 l -19.76001 -37.619995 l -22.800049 -35.90001 l -25.839966 -34.179993 l 0.0 0.0 l -34.97998 -33.440002 l -36.54004 -29.919998 l -38.099976 -26.400002 l -39.660034 -22.880001 l -41.21997 -19.36 l -42.78003 -15.84 l -44.339966 -12.32 l -45.900024 -8.799999 l -58.421448 74.73198 l 0.19000244 -1.3866882 l -38.238586 -76.865295 l -33.57965 -72.90353 l -65.82556 152.51437 l -38.144775 -53.210846 l -42.690002 15.84 l -41.109985 19.36 l -39.53 22.88 l -37.94998 26.399998 l -36.370026 29.919998 l 0.0 0.0 l -28.879974 32.460007 l -25.839996 34.179993 l -22.800018 35.90001 l -19.76001 37.619995 l -16.71997 39.339996 l -13.680008 41.059998 l -10.640015 42.78 l -7.599991 44.5 l -4.5599976 46.22 l 0.0 99.400024 l 0.0 99.39996 l 0.0 99.400024 l 43.15085 120.70117 l -43.15085 78.098816 l -18.741394 90.714966 l 18.741394 108.08508 l -80.63365 60.72876 l -61.89225 160.28662 l 33.95894 168.0846 l 0.0 0.0 l -84.08928 0.0 l 0.0 0.0 l 211.9295 -0.19592285 l 0.0 0.0 l 27.326752 -90.7041 l 27.139679 -14.718872 l 19.460297 14.718872 l 23.300018 0.0 l 23.299988 0.0 l 23.299988 0.0 l 23.300018 0.0 l 23.299988 0.0 l 23.300018 0.0 " /> </g> </svg>