<?xml version="1.0" standalone="no"?><!DOCTYPE svg PUBLIC "-//W3C//DTD SVG 1.1//EN" "http://www.w3.org/Graphics/SVG/1.1/DTD/svg11.dtd" ><svg xmlns="http://www.w3.org/2000/svg" xmlns:xlink="http://www.w3.org/1999/xlink" version="1.1" viewBox="-10 0 692 1000"><g transform="matrix(1 0 0 -1 0 800)"><path stroke="black" fill="none" d="M 348.9122 1330.206 l 41.627136 -106.64819 l 41.627075 -108.984985 l 41.627136 -106.64819 l 41.627106 -106.648254 l 74.64392 -181.44562 l 3.0806885 -7.4923706 l -246.0853 0.9882202 l 329.03714 -207.13239 l 2.7747803 -7.158203 l 83.03174 156.02588 l 2.981018 7.187744 l -351.76044 -114.98132 l 66.73389 -165.61932 l 68.789 -165.10751 l 273.33038 -0.86886597 l 72.28119 165.8324 l 68.2937 165.62689 l 67.60779 167.43243 l 67.55884 164.16577 l -244.76855 0.29748535 l -31.17041 -76.99603 l 113.92786 281.18347 l 3.2971802 8.279297 l 53.71991 130.96448 l 42.212036 106.64819 l 43.382935 108.984985 l 185.7002 105.40991 l 0.0 0.0 l -1.6271973 0.0 l -49.883057 0.00048828125 l 0.0 0.0 l -79.98804 0.00012207031 l 0.0 0.0 l 186.67175 -0.008544922 l 0.3918457 0.00048828125 l 52.726074 0.0075683594 l -0.17590332 0.0 l -16.119995 -0.00024414062 l -49.766113 -165.42493 l -67.558716 -166.8241 l -67.558716 -166.8241 l -417.7674 -997.1252 l -69.98193 -161.65216 l -67.151 162.05016 l -339.8543 831.2156 l -65.99893 166.8241 l -65.99895 166.82422 l -65.998955 164.32654 l 77.367714 166.6106 l 0.0 0.0 l -36.64482 0.0 l 0.0 0.0 l -69.89865 0.0 l 0.0 0.0 l -18.95211 0.0 l 0.0 0.0 l 222.00543 -0.0029296875 l 0.0 0.0 l -32.14421 -0.001953125 l 0.0 0.0 l 84.24394 -106.590576 " /> </g> </svg>