<?xml version="1.0" standalone="no"?><!DOCTYPE svg PUBLIC "-//W3C//DTD SVG 1.1//EN" "http://www.w3.org/Graphics/SVG/1.1/DTD/svg11.dtd" ><svg xmlns="http://www.w3.org/2000/svg" xmlns:xlink="http://www.w3.org/1999/xlink" version="1.1" viewBox="-10 0 692 1000"><g transform="matrix(1 0 0 -1 0 800)"><path stroke="black" fill="none" d="M 348.4011 1330.0005 l 42.697693 -106.999146 l 42.697662 -107.00427 l 42.697693 -106.99933 l 42.697693 -106.99921 l 42.76886 -107.16046 l 42.614563 -106.78552 l -258.07407 25.946106 l 302.20023 -133.02057 l 84.1004 0.0071411133 l -42.825806 -106.93118 l 86.598694 213.89053 l -362.37708 -139.94604 l 67.69791 -165.9992 l 67.70236 -165.99806 l 273.99854 -0.001876831 l 69.30646 165.99963 l 69.29779 165.9992 l 69.29639 166.00305 l 69.296265 165.9961 l -237.61542 21.953186 l -43.273865 -106.9353 l 86.658875 214.14484 l 43.213745 106.78717 l 43.32245 107.051636 l 43.29773 106.99927 l 43.30005 107.00427 l 196.27625 106.99658 l -27.03418 0.0 l -23.440308 0.0 l -51.350464 0.0 l 25.307373 0.0 l -51.09607 0.0 l -25.290161 0.0 l 178.46875 0.0 l 25.431885 0.0 l 51.017822 0.0 l -25.480225 0.0 l -43.812866 -165.99878 l -69.296265 -166.00171 l -69.296265 -166.00183 l -415.8042 -996.00244 l -69.30145 -165.99063 l -67.69885 165.99149 l -338.50293 830.0026 l -67.69632 166.00177 l -67.696335 166.00183 l -67.69633 165.99634 l 110.646614 166.00134 l -25.304993 0.0 l -25.688065 0.0 l -25.290955 0.0 l -25.718506 0.0 l -25.306587 0.0 l -50.904125 0.0 l 25.301247 0.0 l 229.5569 0.0 l 0.0 0.0 l 0.0 0.0 l 0.0 0.0 l -25.638382 0.0 l -25.292664 0.0 l 93.630875 -106.999146 " /> </g> </svg>