<?xml version="1.0" standalone="no"?><!DOCTYPE svg PUBLIC "-//W3C//DTD SVG 1.1//EN" "http://www.w3.org/Graphics/SVG/1.1/DTD/svg11.dtd" ><svg xmlns="http://www.w3.org/2000/svg" xmlns:xlink="http://www.w3.org/1999/xlink" version="1.1" viewBox="-10 0 692 1000"><g transform="matrix(1 0 0 -1 0 800)"><path stroke="black" fill="none" d="M 348.55002 1330.0603 l 42.385773 -106.89697 l 42.385742 -107.58142 l 42.385773 -106.89691 l 42.385773 -106.89697 l 52.056152 -128.80463 l 31.095764 -77.85492 l -254.581 18.674255 l 363.6615 -139.32312 l 0.0 0.0 l -23.584839 -93.14676 l 76.03735 174.08078 l 10.390625 25.04419 l -359.28375 -132.67218 l 67.41702 -165.88849 l 68.01895 -165.7386 l 273.8039 -0.25448608 l 70.17316 165.95091 l 69.00525 165.89075 l 68.80438 166.4195 l 68.79004 165.46277 l -239.69958 15.643494 l -39.747314 -98.212036 l 94.604126 233.67761 l 31.583435 78.08533 l 46.351868 114.01904 l 42.981445 106.89697 l 43.32422 107.58142 l 193.05298 106.5343 l -0.029785156 0.0 l -39.08606 0.00012207031 l -39.098633 0.0 l 0.95996094 0.0 l -65.68469 0.0 l -0.57336426 0.0 l 177.84619 -0.0025634766 l 16.23523 0.0009765625 l 53.41626 0.0014648438 l -0.97802734 -0.00012207031 l -21.826172 0.0 l -45.547485 -165.83154 l -68.78992 -166.24133 l -68.79004 -166.24146 l -416.37616 -996.3295 l -69.499756 -164.72655 l -67.539185 164.84312 l -338.89667 830.3561 l -67.20178 166.2414 l -67.20177 166.24133 l -67.201775 165.50989 l 89.9584 166.17883 l -0.88041687 0.0 l -49.176254 0.0 l -0.58667755 0.0 l -51.699966 0.0 l -0.9286423 0.0 l -36.26212 0.0 l 0.7837982 0.0 l 234.12914 -0.00024414062 l 0.0 0.0 l -0.053771973 0.0 l -43.439423 -0.00024414062 l -0.61428833 0.0 l 87.59201 -106.88098 " /> </g> </svg>