<?xml version="1.0" standalone="no"?><!DOCTYPE svg PUBLIC "-//W3C//DTD SVG 1.1//EN" "http://www.w3.org/Graphics/SVG/1.1/DTD/svg11.dtd" ><svg xmlns="http://www.w3.org/2000/svg" xmlns:xlink="http://www.w3.org/1999/xlink" version="1.1" viewBox="-10 0 692 1000"><g transform="matrix(1 0 0 -1 0 800)"><path stroke="black" fill="none" d="M 418.0 1544.0 l 0.0 -93.0 l -49.21463 -112.79895 l 30.19345 -102.899536 l 19.02118 -63.301514 l 11.172272 -66.837036 l 30.193481 -102.899536 l 30.19345 -102.899475 l 30.193481 -102.899475 l -152.31082 -84.51471 l 50.558136 -97.94977 l 0.0 0.0 l 231.36798 62.90741 l 0.0 0.0 l -233.29349 -131.63715 l 7.7755127 -41.040253 l 4.549988 -32.310028 l 5.850006 -30.169983 l 7.149994 -28.029999 l 31.112762 -30.012451 l -12.91275 -19.627563 l 11.049988 -21.609985 l 0.0 0.0 l 20.190002 -25.269989 l 21.769989 -22.610016 l 23.350037 -19.950012 l 16.946716 -46.52884 l 34.493286 14.608856 l 28.089966 -11.970001 l 29.669983 -9.310013 l 31.25 -6.649994 l 32.830017 -3.9900055 l 0.0 0.0 l 34.600037 1.3300018 l 33.0 3.9900055 l 42.26111 1.8628845 l 18.938843 14.097122 l 28.200012 11.969986 l 26.600037 14.630005 l 25.0 17.290009 l 23.399963 19.949982 l 21.799988 22.610016 l 0.0 0.0 l 12.350037 18.929993 l 11.049988 21.190002 l -63.28711 23.379303 l 81.48712 25.7807 l 7.1499634 27.970001 l 5.8500366 30.230011 l 4.549988 32.48999 l -41.46747 45.17981 l 46.66748 26.5802 l 0.0 93.0 l 2.90625 63.117676 l 49.00244 144.61877 l -51.90869 71.26355 l -188.05566 -106.08148 l 0.0 0.0 l 133.19122 283.4123 l 30.617737 102.899536 l 30.617798 102.899536 l -6.3710938 81.87012 l 0.0 93.0 l 23.299927 0.0 l 27.337646 -44.731567 l 19.262451 44.731567 l 23.299927 0.0 l 23.300049 0.0 l -9.736938 43.41809 l 0.0 0.0 l 56.336914 -43.41809 l 31.226685 30.928833 l 15.373291 -30.928833 l 98.95471 43.712402 l 0.0 0.0 l -41.494385 -159.27686 l -34.16028 -83.235596 l -14.842163 -92.37134 l 14.842163 -106.42859 l -63.844727 -69.178345 l 63.844727 -129.6217 l 0.0 -99.400024 l 0.0 -99.39996 l 0.0 -99.400024 l 0.0 -99.399994 l 0.0 0.0 l -1.5200195 -47.940002 l -4.5600586 -46.22 l -7.5999756 -44.5 l -10.640015 -42.78 l -13.679932 -41.059998 l -16.71997 -39.339996 l -19.76001 -37.619995 l -22.800049 -35.90001 l -25.839966 -34.179993 l 0.0 0.0 l -34.97998 -33.440002 l -36.54004 -29.919998 l -38.099976 -26.400002 l -39.660034 -22.880001 l -41.21997 -19.36 l -42.78003 -15.84 l -44.339966 -12.32 l -45.900024 -8.799999 l -55.938232 56.605995 l 0.008483887 -0.0618515 l -40.540283 -60.064144 l -36.717285 -55.191757 l -61.300293 119.957184 l -39.53241 -38.365425 l -42.690002 15.84 l -41.109985 19.36 l -39.53 22.88 l -37.94998 26.399998 l -36.370026 29.919998 l 0.0 0.0 l -28.879974 32.460007 l -25.839996 34.179993 l -22.800018 35.90001 l -19.76001 37.619995 l -16.71997 39.339996 l -13.680008 41.059998 l -10.640015 42.78 l -7.599991 44.5 l -4.5599976 46.22 l 0.0 99.400024 l 0.0 99.39996 l 0.0 99.400024 l 33.375427 115.87561 l -33.375427 82.92438 l -14.495697 92.682495 l 14.495697 106.11755 l -62.36682 69.48938 l -47.87113 146.49329 l -25.385094 173.11719 l 0.0 0.0 l 164.6506 -26.623901 l 17.572449 -64.276 l 26.269836 -11.384399 l 20.33014 11.384399 l 23.300018 0.0 l 23.299988 0.0 l 23.299988 0.0 l 23.300018 0.0 l 23.299988 0.0 l 23.300018 0.0 " /> </g> </svg>