<?xml version="1.0" standalone="no"?><!DOCTYPE svg PUBLIC "-//W3C//DTD SVG 1.1//EN" "http://www.w3.org/Graphics/SVG/1.1/DTD/svg11.dtd" ><svg xmlns="http://www.w3.org/2000/svg" xmlns:xlink="http://www.w3.org/1999/xlink" version="1.1" viewBox="-10 0 692 1000"><g transform="matrix(1 0 0 -1 0 800)"><path stroke="black" fill="none" d="M 348.44394 1330.0177 l 42.60797 -106.96973 l 42.60794 -107.17029 l 42.60797 -106.96985 l 42.60797 -106.96985 l 45.44037 -113.38641 l 39.301147 -98.46362 l -257.06927 23.85437 l 356.52765 -133.81879 l 10.397705 0.28393555 l -24.42804 -104.25964 l 73.98877 179.36896 l 12.560852 30.274231 l -361.48727 -137.8537 l 67.617096 -165.96735 l 67.79346 -165.92345 l 273.94257 -0.074539185 l 69.555725 165.98563 l 69.21362 165.96799 l 69.15485 166.12286 l 69.15076 165.84265 l -238.21503 20.138245 l -42.2594 -104.42609 l 88.944336 219.76343 l 39.868286 98.53113 l 44.193848 109.055786 l 43.206726 106.96985 l 43.307007 107.17029 l 195.349 106.86365 l -0.1706543 0.0 l -43.847412 0.0 l 0.0 0.0 l -51.01526 0.0 l 17.835693 0.0 l -54.82434 0.0 l -17.146484 0.0 l 177.25586 -0.0007324219 l 22.786377 0.00024414062 l 51.70764 0.00048828125 l -24.710327 -0.00012207031 l -44.31189 -165.95056 l -69.15051 -166.07068 l -69.15076 -166.0708 l -415.9687 -996.0965 l -69.35852 -165.62701 l -67.65289 165.66116 l -338.6162 830.10425 l -67.55406 166.07074 l -67.55408 166.07068 l -67.55406 165.85645 l 104.69563 166.05237 l -17.739197 0.0 l -32.984512 0.0 l -17.180473 0.0 l -34.196373 0.0 l -17.802246 0.0 l -47.18434 0.0 l 17.589903 0.0 l 231.69562 0.0 l 0.0 0.0 l -0.0013122559 0.0 l -0.07019043 0.0 l -30.867462 -0.00012207031 l -17.247879 0.0 l 90.94774 -106.96521 " /> </g> </svg>