<?xml version="1.0" standalone="no"?><!DOCTYPE svg PUBLIC "-//W3C//DTD SVG 1.1//EN" "http://www.w3.org/Graphics/SVG/1.1/DTD/svg11.dtd" ><svg xmlns="http://www.w3.org/2000/svg" xmlns:xlink="http://www.w3.org/1999/xlink" version="1.1" viewBox="-10 0 692 1000"><g transform="matrix(1 0 0 -1 0 800)"><path stroke="black" fill="none" d="M 261.0 1544.0 l 0.0 0.0 l 0.0 0.0 l 0.0 0.0 l 40.200836 -103.20068 l 40.20044 -103.20068 l 40.2005 -103.20068 l 40.20044 -103.200806 l 40.20047 -103.20068 l 40.20047 -103.20062 l 40.20047 -103.200745 l 40.20044 -103.20068 l 40.20044 -103.200745 l 40.2005 -103.20068 l 42.000244 110.69934 l 249.0033 45.369446 l 41.11798 108.75165 l -206.19086 67.11456 l -41.914185 -110.47333 l 83.9845 221.33563 l 246.96619 41.16162 l -163.03638 180.07593 l -41.914246 -110.47339 l 83.98511 221.33374 l 42.000244 110.69922 l 42.426453 110.7113 l 81.62671 0.00024414062 l -40.052612 110.68713 l 120.528076 -331.90625 l -40.119385 110.47742 l 873.2324 146.44275 l -28.708374 0.0 l -18.269775 0.0 l -28.843384 0.0 l -28.784424 0.0 l -18.264526 0.0 l 182.40869 -163.00061 l 62.996094 163.00061 l -36.786865 0.0 l -2.045166 0.0 l -36.47827 0.0 l -18.149658 0.0 l -238.31836 -204.73987 l 41.70166 100.86438 l 153.95581 -225.40247 l -279.42273 -78.140625 l 39.55774 95.82178 l -172.38086 -416.32495 l -39.546997 -95.57886 l 124.966064 302.02533 l -39.618042 -95.75055 l 300.25476 122.12732 l -67.51648 -160.74585 l -645.4888 287.86 l 40.338745 -111.08154 l 39.924683 -109.94177 l -86.63977 -398.4145 l 38.779663 -106.88385 l -79.00549 218.02612 l 119.13916 -328.6789 l 39.426147 -108.64546 l -198.5149 546.95496 l -119.301636 109.143616 l 79.229126 0.099609375 l 496.0907 -655.3906 l 68.542725 163.10881 l -245.88306 -384.71915 l 38.79895 -106.948746 l 66.84668 164.341 l -145.22693 53.46624 l -484.07532 437.37726 l -41.315796 -109.2767 l -41.48419 -109.72284 l -41.31555 -109.27632 l 697.4804 284.31897 l 37.347412 101.697754 l -76.61621 6.9485474 l -42.48706 112.73236 l -39.28943 108.179565 l 386.6659 -283.82416 l 68.548706 163.11389 l -1221.1757 -657.3689 l 107.39374 -53.03006 l 40.476135 107.05648 l -82.60498 -218.27438 l -131.1565 328.4946 l -65.60037 164.30032 l -65.6004 164.30032 l -65.60037 164.3003 l -65.6004 164.3003 l -65.60039 164.30035 l -65.60037 164.3003 l -65.600395 164.3003 l -65.60039 164.30042 l 25.300037 0.0 l 25.300034 0.0 l 25.300045 0.0 l 25.300026 0.0 l 25.300034 0.0 l 25.300049 0.0 l 25.300034 0.0 l 25.300018 0.0 l 25.300049 0.0 " /> </g> </svg>