<?xml version="1.0" standalone="no"?><!DOCTYPE svg PUBLIC "-//W3C//DTD SVG 1.1//EN" "http://www.w3.org/Graphics/SVG/1.1/DTD/svg11.dtd" ><svg xmlns="http://www.w3.org/2000/svg" xmlns:xlink="http://www.w3.org/1999/xlink" version="1.1" viewBox="-10 0 692 1000"><g transform="matrix(1 0 0 -1 0 800)"><path stroke="black" fill="none" d="M 261.0147 1544.0 l 0.0 0.0 l 41.346466 -104.31299 l 40.93222 -104.31299 l 40.93222 -104.31299 l 40.93222 -104.31299 l 40.93225 -104.31299 l 40.93225 -104.31299 l 40.93225 -104.31299 l 40.93219 -104.31299 l 40.93225 -104.31305 l 40.93225 -104.31299 l 42.380737 109.61633 l 188.61041 63.017944 l -139.94696 88.10687 l 0.0 0.0 l 78.47882 177.72406 l 187.33765 60.472412 l -139.48193 92.95123 l 0.0 0.0 l 79.28656 175.42517 l 42.3808 109.61633 l 42.380737 109.61633 l 42.380737 109.61621 l 59.080322 -163.94714 l 0.0 0.0 l 20.20398 110.914185 l 25.5 0.0 l 25.5 0.0 l 25.5 0.0 l 25.5 0.0 l 25.5 0.0 l 25.5 0.0 l 25.5 0.0 l 25.5 0.0 l 726.0591 -0.04675293 l 0.0 0.0 l -312.5188 -761.35394 l 0.0 0.0 l -485.5442 219.8775 l 0.0 0.0 l 219.78821 -295.35107 l 0.0 0.0 l -501.79028 97.63257 l 0.0 0.0 l 359.95593 -651.89606 l 0.0 0.0 l -502.497 312.6112 l 0.0 0.0 l -81.64191 -214.45332 l 0.0 0.0 l 882.46436 191.48177 l 0.0 0.0 l -950.62506 -364.3944 l 0.0 0.0 l -127.71466 -17.288708 l -66.21509 164.79791 l -66.21506 164.79793 l -66.21506 164.79791 l -66.21509 164.79791 l -66.21509 164.79791 l -66.21506 164.79797 l -66.21507 164.79785 l -66.21508 164.79797 l -66.21507 164.79797 l 25.35858 0.0 l 25.358578 0.0 l 25.358582 0.0 l 25.358574 0.0 l 25.358574 0.0 l 25.358582 0.0 l 25.358582 0.0 l 25.358566 0.0 l 25.358582 0.0 l 26.772797 -0.00012207031 " /> </g> </svg>