<?xml version="1.0" standalone="no"?><!DOCTYPE svg PUBLIC "-//W3C//DTD SVG 1.1//EN" "http://www.w3.org/Graphics/SVG/1.1/DTD/svg11.dtd" ><svg xmlns="http://www.w3.org/2000/svg" xmlns:xlink="http://www.w3.org/1999/xlink" version="1.1" viewBox="-10 0 692 1000"><g transform="matrix(1 0 0 -1 0 800)"><path stroke="black" fill="none" d="M 261.00125 1544.0 l 0.0 0.0 l 0.00012207031 0.0 l 40.571228 -103.526 l 40.41443 -103.526 l 40.41449 -103.526 l 40.41446 -103.526 l 40.41446 -103.52588 l 40.41449 -103.526 l 40.41449 -103.526 l 40.41443 -103.526 l 40.41443 -103.526 l 40.41449 -103.526 l 42.11151 110.38263 l 271.1941 126.32062 l 0.0 0.0 l -219.46252 18.834656 l -2.1849976 -5.552185 l 76.788025 191.54468 l 231.35425 23.37799 l 0.0 0.0 l -179.90442 122.67523 l -2.2091064 -5.579834 l 77.09381 190.67432 l 42.111572 110.38257 l 97.88812 114.70776 l 0.0 0.0 l -13.665161 106.057495 l 87.26514 -242.25574 l -2.807495 7.444458 l 3.110962 166.24524 l 25.5 0.0 l 25.5 0.0 l 25.5 0.0 l 25.5 0.0 l 25.5 0.0 l 25.5 0.0 l 25.5 0.0 l 25.5 0.0 l 726.0967 -0.021484375 l 0.0 0.0 l -209.04834 -594.56476 l 0.0 0.0 l -230.8175 -21.17981 l 0.0 0.0 l 24.609497 35.957214 l -414.0962 126.49451 l 35.800293 -98.34381 l 0.0 0.0 l 50.95349 -187.94696 l 0.0 0.0 l -21.05371 -528.0991 l 0.0 0.0 l -222.49988 570.77576 l -0.0949707 9.857178 l 534.00024 -522.3304 l 0.0 0.0 l -193.45752 -373.85803 l 0.0 0.0 l -575.6145 517.772 l -2.3145752 -5.9016113 l -80.467285 -212.88354 l -2.2330322 -5.7252502 l 743.3406 432.62036 l 0.0 0.0 l 240.1018 -11.50293 l 0.0 0.0 l -1046.0972 -586.22925 l 1.8250122 4.855255 l -91.67175 -145.00734 l 0.0 0.0 l -111.0199 279.69537 l -65.78015 164.44583 l -65.78015 164.44583 l -65.78015 164.44586 l -65.78015 164.4458 l -65.78015 164.44592 l -65.780136 164.4458 l -65.78016 164.4458 l -65.78015 164.44592 l 25.317158 0.0 l 25.317154 0.0 l 25.317165 0.0 l 25.317146 0.0 l 25.317154 0.0 l 25.31717 0.0 l 25.317154 0.0 l 25.317139 0.0 l 25.31717 0.0 l 27.145584 -0.00012207031 " /> </g> </svg>