<?xml version="1.0" standalone="no"?><!DOCTYPE svg PUBLIC "-//W3C//DTD SVG 1.1//EN" "http://www.w3.org/Graphics/SVG/1.1/DTD/svg11.dtd" ><svg xmlns="http://www.w3.org/2000/svg" xmlns:xlink="http://www.w3.org/1999/xlink" version="1.1" viewBox="-10 0 692 1000"><g transform="matrix(1 0 0 -1 0 800)"><path stroke="black" fill="none" d="M 261.0 1544.0 l 0.0 0.0 l 0.0 0.0 l 0.0 0.0 l 40.200256 -103.200195 l 40.200104 -103.200195 l 40.200165 -103.200195 l 40.200104 -103.20032 l 40.200165 -103.20007 l 40.200134 -103.200195 l 40.200134 -103.20026 l 40.200134 -103.200195 l 40.200134 -103.200195 l 40.200134 -103.200226 l 42.00006 110.6998 l 248.85956 44.966797 l 41.317383 109.28082 l -206.19733 67.10425 l -41.974854 -110.633606 l 83.99548 221.38116 l 246.99005 41.18878 l -163.01062 180.16357 l -41.974915 -110.633545 l 83.99567 221.38062 l 42.00006 110.69971 l 42.12494 110.70337 l 82.03198 0.0 l -40.15674 110.69629 l 120.57886 -332.04333 l -40.17627 110.634766 l 874.553 146.4126 l -26.298218 0.0 l -23.240967 0.0 l -26.33789 0.0 l -26.320557 0.0 l -23.23938 0.0 l 183.53394 -163.84863 l 67.241455 163.84863 l -28.664307 0.0 l -18.488525 0.0 l -28.574219 0.0 l -23.20581 0.0 l -237.52771 -205.91382 l 42.407715 102.51599 l 156.60327 -225.25928 l -283.932 -82.56677 l 41.77954 101.03906 l -171.26306 -413.83246 l -41.77649 -100.967834 l 127.18213 307.38147 l -41.79724 -101.01813 l 301.63013 125.28998 l -68.56543 -163.1883 l -645.28455 288.66608 l 40.2406 -110.81177 l 40.119263 -110.477844 l -87.177246 -396.99005 l 39.43042 -108.663055 l -79.284424 218.57333 l 119.11145 -328.34024 l 39.619873 -109.179016 l -198.5044 546.9868 l -120.361206 109.25415 l 80.552 0.09991455 l 495.53162 -655.96295 l 68.86609 163.88042 l -246.4607 -383.64496 l 39.436035 -108.682045 l 68.369385 164.2413 l -147.4707 54.267937 l -483.4563 437.25195 l -41.375366 -109.4346 l -41.424683 -109.56528 l -41.375244 -109.434494 l 696.99927 283.0327 l 41.132324 102.76001 l -81.05957 7.338501 l -40.869873 111.29529 l -39.933228 109.96179 l 386.61926 -284.86774 l 68.8678 163.88184 l -1221.4757 -657.60297 l 107.11536 -54.281597 l 41.129333 108.7843 l -82.74286 -218.78748 l -131.18726 328.56915 l -65.6001 164.3001 l -65.60013 164.30011 l -65.6001 164.30005 l -65.60013 164.30011 l -65.60011 164.30017 l -65.6001 164.30005 l -65.60012 164.30005 l -65.60011 164.30017 l 25.30001 0.0 l 25.30001 0.0 l 25.30001 0.0 l 25.30001 0.0 l 25.30001 0.0 l 25.300003 0.0 l 25.300018 0.0 l 25.300003 0.0 l 25.300003 0.0 " /> </g> </svg>