<?xml version="1.0" standalone="no"?><!DOCTYPE svg PUBLIC "-//W3C//DTD SVG 1.1//EN" "http://www.w3.org/Graphics/SVG/1.1/DTD/svg11.dtd" ><svg xmlns="http://www.w3.org/2000/svg" xmlns:xlink="http://www.w3.org/1999/xlink" version="1.1" viewBox="-10 0 692 1000"><g transform="matrix(1 0 0 -1 0 800)"><path stroke="black" fill="none" d="M 261.0 1544.0 l 0.0 0.0 l 0.0 0.0 l 0.0 0.0 l 40.20285 -103.20239 l 40.20157 -103.20239 l 40.2016 -103.20239 l 40.201538 -103.20239 l 40.2016 -103.20239 l 40.2016 -103.20239 l 40.2016 -103.20239 l 40.201538 -103.20245 l 40.201538 -103.20239 l 40.2016 -103.20239 l 42.000854 110.69769 l 249.49414 46.7442 l 40.43701 106.94495 l -206.16864 67.14978 l -41.70697 -109.92615 l 83.9469 221.18024 l 246.88483 41.068848 l -163.12439 179.77661 l -41.707153 -109.92639 l 83.94916 221.17395 l 42.000854 110.69751 l 43.45587 110.73804 l 80.24304 0.0008544922 l -39.697266 110.656494 l 120.354614 -331.43872 l -39.924805 109.94006 l 868.7239 146.54602 l -36.937256 0.0 l -1.3947754 0.0 l -37.300293 0.0 l -37.196777 0.0 l -1.3813477 0.0 l 178.66943 -160.10522 l 0.32177734 2.0653076 l 48.179443 158.03992 l -22.305664 0.0 l 0.0 0.0 l -51.5813 0.0 l -1.1311035 0.0 l -240.77405 -200.73169 l 39.291138 95.22534 l 144.91663 -225.89099 l -264.0266 -63.02942 l 31.97168 78.00928 l -176.19739 -424.83514 l -31.934937 -77.17963 l 117.3999 283.7384 l -32.17737 -77.76605 l 295.5586 111.329285 l -63.93518 -152.40674 l -646.1858 285.1079 l 40.67383 -112.00256 l 39.26001 -108.11157 l -84.80444 -403.2779 l 36.55786 -100.809235 l -78.0531 216.1578 l 119.23389 -329.83502 l 38.764526 -106.82388 l -198.55066 546.84607 l -115.684204 108.766174 l 74.71228 0.09881592 l 497.99988 -653.43665 l 67.43872 160.47443 l -243.91101 -388.3867 l 36.623535 -101.03089 l 61.64807 164.6814 l -137.56628 50.729103 l -486.1886 437.8051 l -41.112366 -108.73758 l -41.6875 -110.260864 l -41.111755 -108.73625 l 699.12305 288.71045 l 24.424927 98.070984 l -61.445435 5.6170654 l -48.008545 117.63898 l -37.091187 102.09473 l 386.8252 -280.26117 l 67.45911 160.49182 l -1220.1514 -656.56964 l 108.34436 -48.757034 l 38.245728 101.157295 l -82.13403 -216.52255 l -131.05151 328.2401 l -65.60132 164.30109 l -65.60132 164.30112 l -65.60135 164.30103 l -65.60132 164.30109 l -65.60132 164.30115 l -65.60132 164.3009 l -65.60133 164.30115 l -65.601326 164.30115 l 25.300125 0.0 l 25.300125 0.0 l 25.300133 0.0 l 25.300117 0.0 l 25.300117 0.0 l 25.30014 0.0 l 25.300125 0.0 l 25.30011 0.0 l 25.300125 0.0 " /> </g> </svg>