<?xml version="1.0" standalone="no"?><!DOCTYPE svg PUBLIC "-//W3C//DTD SVG 1.1//EN" "http://www.w3.org/Graphics/SVG/1.1/DTD/svg11.dtd" ><svg xmlns="http://www.w3.org/2000/svg" xmlns:xlink="http://www.w3.org/1999/xlink" version="1.1" viewBox="-10 0 692 1000"><g transform="matrix(1 0 0 -1 0 800)"><path stroke="black" fill="none" d="M 261.0 1544.0 l 0.0 0.0 l 0.0 0.0 l 0.0 0.0 l 40.209717 -103.20813 l 40.205353 -103.20825 l 40.205414 -103.20813 l 40.205383 -103.20825 l 40.205383 -103.20825 l 40.205414 -103.20807 l 40.205414 -103.20819 l 40.205322 -103.20825 l 40.205383 -103.20819 l 40.205444 -103.20819 l 42.002747 110.69202 l 251.17004 51.43799 l 38.11212 100.77637 l -206.09296 67.26996 l -40.99951 -108.05786 l 83.818726 220.64966 l 246.60687 40.752197 l -163.42474 178.75458 l -41.000122 -108.05859 l 83.826416 220.62793 l 42.002808 110.691895 l 46.970642 110.82959 l 75.51868 0.0030517578 l -38.483765 110.55151 l 119.76245 -329.84253 l -39.260498 108.10547 l 853.33057 146.89868 l -20.658691 0.0 l 0.0 0.0 l -54.32727 0.0 l -21.32312 0.0 l 0.0 0.0 l 177.56836 -150.21985 l 0.012207031 0.07824707 l 21.469482 150.14148 l 0.0 0.0 l -43.169434 0.0 l 0.0 0.0 l -240.51123 -187.047 l 31.061157 75.97266 l 114.05493 -227.55896 l -211.46106 -11.436401 l 6.071289 17.193481 l -189.22778 -453.89056 l -5.9455566 -14.36084 l 91.567505 221.30298 l -6.7735596 -16.363281 l 279.52466 74.46265 l -51.707275 -123.93524 l -648.5658 275.7119 l 41.81775 -115.147705 l 36.990723 -101.86243 l -78.538574 -419.88263 l 28.972412 -80.069336 l -74.80127 209.77905 l 119.55713 -333.78235 l 36.50586 -100.6046 l -198.67285 546.4744 l -103.333496 107.47754 l 59.290894 0.0960083 l 504.5177 -646.7653 l 63.669434 151.48004 l -237.17761 -400.90845 l 29.196167 -80.82606 l 43.898926 165.8436 l -111.411255 41.383934 l -493.40375 439.2658 l -40.417908 -106.89685 l -42.381653 -112.09772 l -40.415833 -106.892426 l 704.73145 303.7039 l -19.69519 85.68854 l -9.649536 1.071167 l -66.85974 134.39111 l -29.586182 81.319824 l 387.36914 -268.0965 l 63.739136 151.53961 l -1216.6544 -653.8407 l 111.58984 -34.168007 l 30.630737 81.016205 l -80.52637 -210.54144 l -130.693 327.37122 l -65.60449 164.30365 l -65.60452 164.30371 l -65.60452 164.30365 l -65.60455 164.30365 l -65.60451 164.30371 l -65.60452 164.30359 l -65.60453 164.30371 l -65.60452 164.30371 l 25.30043 0.0 l 25.30043 0.0 l 25.300438 0.0 l 25.300423 0.0 l 25.300423 0.0 l 25.300446 0.0 l 25.30043 0.0 l 25.300415 0.0 l 25.30043 0.0 " /> </g> </svg>