<?xml version="1.0" standalone="no"?><!DOCTYPE svg PUBLIC "-//W3C//DTD SVG 1.1//EN" "http://www.w3.org/Graphics/SVG/1.1/DTD/svg11.dtd" ><svg xmlns="http://www.w3.org/2000/svg" xmlns:xlink="http://www.w3.org/1999/xlink" version="1.1" viewBox="-10 0 692 1000"><g transform="matrix(1 0 0 -1 0 800)"><path stroke="black" fill="none" d="M 261.00012 1544.0 l 0.0 0.0 l 3.0517578e-05 0.0 l 0.0 0.0 l 40.3118 -103.29541 l 40.262787 -103.29553 l 40.262848 -103.29553 l 40.262787 -103.29553 l 40.262817 -103.29541 l 40.262848 -103.29541 l 40.262848 -103.29547 l 40.262756 -103.29553 l 40.262817 -103.29547 l 40.262817 -103.2955 l 42.032654 110.607086 l 276.42676 122.177124 l 3.0736084 7.8099365 l -204.95154 69.08136 l -30.337708 -79.90094 l 81.8869 212.65363 l 242.41748 35.98004 l -0.013916016 -0.024047852 l -167.93732 163.3753 l -30.344788 -79.90906 l 81.9765 212.3988 l 42.032715 110.607056 l 99.9422 112.20996 l 4.3305664 0.034301758 l -20.20752 108.96973 l 110.836426 -305.78516 l -29.247925 80.45703 l 767.4956 152.21265 l 0.0 0.0 l 185.91675 -9.960449 l 0.0 0.0 l -236.80994 -157.66638 l 0.0 0.0 l -42.55896 -146.8031 l 0.0 0.0 l -195.44104 -334.89252 l 3.5 9.0772705 l 239.9397 30.894836 l 0.0 0.0 l -634.7722 216.50378 l 59.05725 -162.54645 l 2.7905273 -7.6827393 l -49.164673 -473.8673 l 0.0 0.0 l -46.08191 149.88123 l 124.42847 -393.27286 l 2.4665527 -6.8733826 l -200.51587 540.87305 l -44.92737 86.36896 l 0.0 0.0 l 557.35657 -544.48047 l 6.8624268 15.925171 l -191.1073 -418.3892 l 0.0 0.0 l -59.634155 153.7096 l 0.0 0.0 l -510.6701 443.91956 l -29.951721 -79.15561 l -52.843018 -139.78146 l -29.927673 -79.10358 l 748.6469 450.91638 l 0.0 0.0 l -153.57214 112.63922 l 0.0 0.0 l 408.63953 -131.93182 l 7.675415 16.620483 l -1163.9503 -612.7128 l 98.935425 22.85952 l 0.0 0.0 l -78.864746 -180.08676 l -0.020141602 0.05140686 l -125.269226 314.22476 l -65.65274 164.34271 l -65.65277 164.34274 l -65.65277 164.34271 l -65.65277 164.34271 l -65.652756 164.34271 l -65.652756 164.34265 l -65.65277 164.34277 l -65.65276 164.34277 l 25.305023 0.0 l 25.305027 0.0 l 25.305027 0.0 l 25.305023 0.0 l 25.305023 0.0 l 25.305023 0.0 l 25.305023 0.0 l 25.305023 0.0 l 25.305023 0.0 " /> </g> </svg>