<?xml version="1.0" standalone="no"?><!DOCTYPE svg PUBLIC "-//W3C//DTD SVG 1.1//EN" "http://www.w3.org/Graphics/SVG/1.1/DTD/svg11.dtd" ><svg xmlns="http://www.w3.org/2000/svg" xmlns:xlink="http://www.w3.org/1999/xlink" version="1.1" viewBox="-10 0 692 1000"><g transform="matrix(1 0 0 -1 0 800)"><path stroke="black" fill="none" d="M 261.0 1544.0 l 0.0 0.0 l 0.0 0.0 l 0.0 0.0 l 40.200043 -103.19995 l 40.19998 -103.20007 l 40.200012 -103.19995 l 40.200012 -103.200195 l 40.200012 -103.19995 l 40.200043 -103.19995 l 40.19998 -103.20001 l 40.200012 -103.20001 l 40.200012 -103.20007 l 40.200012 -103.20001 l 42.0 110.70001 l 248.80511 44.81433 l 41.392944 109.4812 l -206.19983 67.10034 l -41.997803 -110.694275 l 83.99957 221.39838 l 246.99915 41.199036 l -163.00085 180.19684 l -41.997864 -110.694336 l 83.99963 221.39844 l 42.0 110.69983 l 42.01068 110.70044 l 82.18555 0.0 l -40.19629 110.699585 l 120.59827 -332.0951 l -40.197998 110.694336 l 875.0531 146.40112 l -25.38562 0.0 l -25.123413 0.0 l -25.389038 0.0 l -25.387451 0.0 l -25.123291 0.0 l 183.95996 -164.1698 l 68.84912 164.1698 l -25.588623 0.0 l -24.715576 0.0 l -25.58081 0.0 l -25.120361 0.0 l -237.22827 -206.35828 l 42.67505 103.14136 l 157.60583 -225.2052 l -285.63965 -84.242676 l 42.62097 103.01465 l -170.83972 -412.88855 l -42.620728 -103.008545 l 128.02124 309.40967 l -42.62256 -103.01276 l 302.15112 126.48761 l -68.96277 -164.11328 l -645.20715 288.9713 l 40.20337 -110.709595 l 40.193115 -110.68085 l -87.38086 -396.45062 l 39.67688 -109.33679 l -79.39014 218.78058 l 119.10095 -328.21204 l 39.693237 -109.38104 l -198.50049 546.9989 l -120.76233 109.29608 l 81.05298 0.099975586 l 495.31995 -656.1797 l 68.988525 164.17259 l -246.67944 -383.2382 l 39.677246 -109.33841 l 68.94592 164.20354 l -148.32031 54.571518 l -483.22192 437.20447 l -41.39795 -109.494354 l -41.4021 -109.505615 l -41.39789 -109.494385 l 696.8171 282.5457 l 42.565674 103.16223 l -82.74219 7.486145 l -40.25757 110.7511 l -40.177002 110.63666 l 386.60156 -285.26288 l 68.98865 164.17267 l -1221.5894 -657.69165 l 107.00995 -54.755535 l 41.37671 109.4386 l -82.795105 -218.98177 l -131.19891 328.59735 l -65.599976 164.3 l -65.600006 164.30002 l -65.600006 164.29999 l -65.60004 164.29999 l -65.59999 164.30011 l -65.600006 164.29993 l -65.60001 164.30005 l -65.600006 164.30005 l 25.3 0.0 l 25.300003 0.0 l 25.3 0.0 l 25.300003 0.0 l 25.299988 0.0 l 25.300003 0.0 l 25.300003 0.0 l 25.300003 0.0 l 25.300003 0.0 " /> </g> </svg>