<?xml version="1.0" standalone="no"?><!DOCTYPE svg PUBLIC "-//W3C//DTD SVG 1.1//EN" "http://www.w3.org/Graphics/SVG/1.1/DTD/svg11.dtd" ><svg xmlns="http://www.w3.org/2000/svg" xmlns:xlink="http://www.w3.org/1999/xlink" version="1.1" viewBox="-10 0 692 1000"><g transform="matrix(1 0 0 -1 0 800)"><path stroke="black" fill="none" d="M 261.0 1544.0 l 0.0 0.0 l 0.0 0.0 l 0.0 0.0 l 40.233 -103.227905 l 40.218384 -103.22803 l 40.218414 -103.227905 l 40.218384 -103.22803 l 40.218414 -103.22803 l 40.218414 -103.227844 l 40.218384 -103.22797 l 40.218384 -103.22803 l 40.218384 -103.22797 l 40.218445 -103.22797 l 42.00952 110.67279 l 256.89172 67.46326 l 30.174438 79.7157 l -205.83435 67.6803 l -38.584167 -101.67914 l 83.3811 218.83826 l 245.65778 39.67108 l -0.14526367 -0.25195312 l -164.30493 175.51703 l -38.586243 -101.68152 l 83.40735 218.76367 l 42.009583 110.67273 l 58.970825 111.14221 l 59.388794 0.010131836 l -34.340576 110.193115 l 117.74036 -324.39246 l -36.992188 101.84192 l 826.1476 148.10254 l 0.0 0.0 l -66.02014 0.0 l 0.0 0.0 l 179.26636 -116.468994 l 0.0 0.0 l 12.835205 116.46265 l 0.0 0.0 l -257.64954 -140.31885 l 2.9625244 10.23999 l 8.686523 -233.25366 l -79.08887 31.105225 l 0.0 0.0 l -205.60791 -456.87067 l 0.0 0.0 l 78.37402 189.47235 l 0.0 0.0 l 249.15674 7.5914917 l -9.958984 -26.727478 l -656.6914 243.63196 l 45.723145 -125.8855 l 29.243042 -80.526855 l -57.14514 -476.57468 l 3.0737305 -9.258942 l -63.698975 188.00061 l 120.660645 -347.25937 l 28.794678 -79.370636 l -199.09045 545.20544 l -61.165405 103.07776 l 6.639038 0.086364746 l 526.77124 -623.9879 l 50.800293 120.7713 l -214.1886 -443.6604 l 3.8377686 -11.842453 l -16.700684 169.81161 l -22.112427 9.477509 l -518.03766 444.25317 l -38.046875 -100.612335 l -44.751648 -118.36923 l -38.039795 -100.59711 l 723.8795 354.89478 l -46.102905 29.585022 l 0.0 0.0 l -88.256836 190.96399 l -3.9622803 10.389954 l 389.22607 -226.56378 l 51.038452 120.974915 l -1204.7148 -644.52356 l 122.67059 15.642029 l 4.631531 12.250252 l -75.03735 -190.12073 l -0.3968506 1.011055 l -129.07196 323.39362 l -65.61545 164.3125 l -65.61548 164.31253 l -65.61545 164.3125 l -65.61545 164.3125 l -65.61546 164.3125 l -65.61543 164.3125 l -65.61546 164.3125 l -65.615456 164.31262 l 25.301472 0.0 l 25.301472 0.0 l 25.301476 0.0 l 25.301468 0.0 l 25.30146 0.0 l 25.301483 0.0 l 25.301468 0.0 l 25.301468 0.0 l 25.301468 0.0 " /> </g> </svg>