<?xml version="1.0" standalone="no"?><!DOCTYPE svg PUBLIC "-//W3C//DTD SVG 1.1//EN" "http://www.w3.org/Graphics/SVG/1.1/DTD/svg11.dtd" ><svg xmlns="http://www.w3.org/2000/svg" xmlns:xlink="http://www.w3.org/1999/xlink" version="1.1" viewBox="-10 0 692 1000"><g transform="matrix(1 0 0 -1 0 800)"><path stroke="black" fill="none" d="M 261.0 1544.0 l 0.0 0.0 l 0.0 0.0 l 0.0 0.0 l 40.200073 -103.20007 l 40.200043 -103.20007 l 40.200043 -103.19995 l 40.200012 -103.200195 l 40.200073 -103.19995 l 40.200043 -103.20007 l 40.200043 -103.20007 l 40.200012 -103.20007 l 40.200012 -103.20007 l 40.200073 -103.20007 l 42.0 110.69995 l 248.81744 44.848877 l 41.375854 109.43585 l -206.19928 67.1012 l -41.992615 -110.68054 l 83.99866 221.39447 l 246.99707 41.196716 l -163.00305 180.18927 l -41.992676 -110.68054 l 83.99872 221.39441 l 42.00006 110.69983 l 42.03662 110.70105 l 82.15076 0.0 l -40.187378 110.69885 l 120.59387 -332.08337 l -40.193115 110.68091 l 874.9398 146.40369 l -25.592285 0.0 l -24.697021 0.0 l -25.604004 0.0 l -25.598877 0.0 l -24.696533 0.0 l 183.86365 -164.09705 l 68.48486 164.09705 l -26.2854 0.0 l -23.304932 0.0 l -26.259033 0.0 l -24.686523 0.0 l -237.29614 -206.25757 l 42.614502 102.99963 l 157.37866 -225.2174 l -285.2528 -83.86304 l 42.43042 102.56714 l -170.93567 -413.10242 l -42.429443 -102.5462 l 127.831055 308.95013 l -42.435547 -102.56085 l 302.03308 126.21625 l -68.87268 -163.90369 l -645.22473 288.90222 l 40.211792 -110.73279 l 40.17639 -110.63489 l -87.33472 -396.5728 l 39.62097 -109.18414 l -79.36609 218.73364 l 119.10327 -328.24112 l 39.676636 -109.335266 l -198.50134 546.9962 l -120.67151 109.28656 l 80.93945 0.099975586 l 495.36792 -656.1306 l 68.960815 164.10641 l -246.62988 -383.33032 l 39.62268 -109.18971 l 68.815186 164.2121 l -148.1278 54.502747 l -483.27502 437.2152 l -41.39276 -109.480835 l -41.407288 -109.519104 l -41.3927 -109.480835 l 696.8584 282.656 l 42.240845 103.071106 l -82.36096 7.4526978 l -40.39624 110.87439 l -40.121826 110.483765 l 386.6056 -285.17334 l 68.9613 164.10675 l -1221.5636 -657.6715 l 107.03381 -54.648167 l 41.32068 109.29038 l -82.783264 -218.93774 l -131.19629 328.59097 l -65.599976 164.30003 l -65.60007 164.30002 l -65.600006 164.30005 l -65.60007 164.29999 l -65.60002 164.30005 l -65.60002 164.30005 l -65.60004 164.30005 l -65.60003 164.30005 l 25.300003 0.0 l 25.300003 0.0 l 25.300003 0.0 l 25.300003 0.0 l 25.299995 0.0 l 25.300003 0.0 l 25.300003 0.0 l 25.300003 0.0 l 25.300003 0.0 " /> </g> </svg>