<?xml version="1.0" standalone="no"?><!DOCTYPE svg PUBLIC "-//W3C//DTD SVG 1.1//EN" "http://www.w3.org/Graphics/SVG/1.1/DTD/svg11.dtd" ><svg xmlns="http://www.w3.org/2000/svg" xmlns:xlink="http://www.w3.org/1999/xlink" version="1.1" viewBox="-10 0 692 1000"><g transform="matrix(1 0 0 -1 0 800)"><path stroke="black" fill="none" d="M 373.06866 1496.1866 l 0.0 0.0 l -16.334656 16.252563 l 106.2204 -165.47485 l 0.0 0.0 l -33.076843 59.501587 l 97.950714 -173.2959 l 0.6826172 -1.1976318 l -136.21274 -8.404053 l -74.01767 -78.37073 l -1.6015625 2.5854492 l 376.47394 -48.904175 l 0.0 0.0 l -112.14099 47.782227 l 0.0 0.0 l -178.13937 -149.37329 l -1.4190674 2.4295654 l 109.30704 -187.91846 l 0.0 0.0 l 82.53766 -104.23059 l 55.010254 -125.323975 l 26.852295 -114.69357 l -40.478455 48.84848 l 0.0 0.0 l 81.01593 95.469055 l 110.29175 104.209045 l -28.506714 99.728455 l -1.6838379 -2.80542 l 111.20636 184.54205 l 1.6224976 2.6265259 l 87.10516 144.66327 l 1.5479736 2.4658203 l -226.26074 58.267212 l 0.8051758 1.6540527 l 94.9823 162.28162 l 0.0 0.0 l -44.802246 -75.54846 l 0.0 0.0 l 120.61737 200.44495 l 0.029541016 0.040405273 l 32.982178 38.730347 l 0.0 0.0 l 110.95715 0.00012207031 l 0.0 0.0 l 7.106079 75.0 l 90.76184 -79.284546 l 0.0 0.0 l 10.947998 -47.07483 l -130.51074 -223.36572 l -1.4742432 -2.4265137 l 99.539185 97.621216 l 91.53601 -188.26965 l 40.19995 -110.69995 l 40.19995 -110.69995 l 40.200073 -110.70001 l 40.19995 -110.70001 l 40.200073 -110.70001 l 40.19995 -110.70001 l 42.700073 103.20001 l 42.69995 103.20001 l 42.69995 103.20001 l 42.700073 103.20001 l 42.69995 103.19995 l 42.700073 103.19995 l 42.69995 103.20007 l 42.69995 103.19995 l 42.700073 103.20007 l 42.69995 103.19995 l 25.300049 0.0 l 25.299927 0.0 l 25.300049 0.0 l 25.300049 0.0 l 25.299927 0.0 l 25.300049 0.0 l 25.300049 0.0 l 25.299805 0.0 l 25.300049 0.0 l 25.300049 0.0 l -69.0 -164.19995 l -69.0 -164.20007 l -69.0 -164.19995 l -69.0 -164.20001 l -69.0 -164.20001 l -69.0 -164.19995 l -69.0 -164.20001 l -69.0 -164.20001 l -69.0 -164.2 l -69.0 -164.2 l -39.69995 109.4 l -39.700073 109.4 l -204.03711 -63.67768 l 0.0 0.0 l 9.536621 -57.111412 l 0.0 0.0 l -85.884155 223.4793 l -2.9057617 4.0746307 l 164.19043 221.43517 l -39.69995 109.399994 l -39.700073 109.400024 l -39.69995 109.400024 l -39.700073 109.39996 l -39.69995 109.400024 l -41.400024 -109.5 l -41.399963 -109.5 l -92.094055 -189.90948 l 1.7875977 -3.3023071 l 114.29492 -198.87033 l -2.5700684 4.467621 l -81.41315 84.358185 l -167.7821 -104.01419 l 1.09021 -1.9666138 l 49.99884 -87.83502 l -0.9893799 1.8068848 l 99.26434 -173.45276 l -27.266052 49.184456 l 0.0 0.0 l 104.5401 -157.45847 l 0.0 0.0 l 73.99921 -0.004460714 l 0.0 0.0 l -404.06042 -99.003525 l -418.71014 98.999985 l 0.0 0.0 l -157.54117 3.516834e-08 l 0.0 0.0 l 265.88593 111.35371 l 27.628723 46.796318 l 0.0 0.0 l 60.28885 101.39725 l 0.0 0.0 l 74.27582 124.70969 l -114.228 173.94308 l -65.600006 164.29999 l -65.600006 164.29999 l -65.59999 164.30005 l 36.059677 217.1659 l 1.7518158 -2.7572021 l -82.70973 129.64136 l -151.90176 148.84998 l 25.3 0.0 l 25.3 0.0 l 24.477203 -0.00012207031 l 26.397057 0.0 l 16.797813 -67.37756 l 16.179749 67.37756 l -0.32237244 0.0 l 46.53598 0.0 l 26.397049 0.0 l 26.397064 0.0 l 32.340347 0.0 l 0.0 0.0 " /> </g> </svg>