<?xml version="1.0" standalone="no"?><!DOCTYPE svg PUBLIC "-//W3C//DTD SVG 1.1//EN" "http://www.w3.org/Graphics/SVG/1.1/DTD/svg11.dtd" ><svg xmlns="http://www.w3.org/2000/svg" xmlns:xlink="http://www.w3.org/1999/xlink" version="1.1" viewBox="-10 0 692 1000"><g transform="matrix(1 0 0 -1 0 800)"><path stroke="black" fill="none" d="M 377.49918 1491.7008 l -29.96103 52.262817 l -25.784668 0.0009765625 l 114.93469 -157.17493 l 29.28711 -51.922485 l -58.917236 104.453125 l 88.520386 -156.93542 l 29.433716 -52.182495 l -187.0459 -128.31763 l -42.411377 73.5459 l 379.02728 -101.232056 l 30.263733 51.057495 l -62.31122 -103.333496 l -28.81482 51.068604 l -29.842651 52.8562 l -29.287903 51.92334 l -131.62393 -223.28705 l -42.410797 73.545105 l 85.2023 -147.7497 l 42.2052 -73.18915 l 131.06674 -216.11761 l -68.151306 -118.20282 l 135.76318 -0.000579834 l -33.77838 59.09543 l -68.911316 0.00061035156 l 217.76703 194.40424 l -2.2567139 154.28217 l -44.40735 -73.54663 l 89.047485 147.47949 l 44.407104 73.54602 l 44.592285 73.85376 l 44.40686 73.54541 l -261.42346 2.5214844 l 30.932617 52.18701 l 123.84326 208.94019 l -30.783264 -51.934326 l -31.209839 -52.654175 l -30.777039 -51.923706 l 123.96326 209.1311 l 57.533264 52.270874 l -26.457886 0.0 l 78.362915 0.0 l -24.334717 0.0 l 52.35559 0.0 l 27.5083 0.0 l 25.945679 0.0 l 106.53943 -0.00036621094 l -26.017456 0.00012207031 l -53.050415 0.0 l 25.999756 0.0 l 9.114014 -73.65161 l -89.08948 -147.56372 l -44.406616 -73.54529 l 89.02197 147.29163 l 64.246216 -1315.8816 l -33.196167 -80.64918 l -23.766602 -2.6881025e-08 l 51.158813 5.1502866e-08 l 26.890015 3.6583515e-08 l 25.3573 -5.6039426e-08 l -93.2074 161.53383 l -46.60547 80.53479 l -233.44763 403.4052 l 46.603027 -80.53284 l 140.04443 -242.00711 l -46.604797 80.535614 l -46.77484 80.70792 l -220.08704 -70.572235 l 34.12732 -58.97455 l 68.361694 -118.136826 l -34.126648 58.973526 l 136.71729 -236.26134 l -34.31732 59.308136 l -33.958252 58.682266 l 128.4989 -177.19641 l -25.85907 -2.0705156e-06 l 52.606506 -3.011446e-06 l 25.423462 -5.34601e-08 l 26.751465 1.9867002e-08 l 25.370728 -5.1270035e-08 l -905.07416 -1.5869955e-07 l -24.05191 0.0 l 51.75876 0.0 l 27.19905 0.0 l 25.651123 0.0 l -133.43773 0.0 l -24.229202 0.0 l -26.558464 0.0 l -78.887024 0.0 l 27.42223 0.0 l 24.155571 0.0 l 247.06783 59.21263 l 35.31949 59.30165 l 34.951447 58.682693 l 70.27478 117.989944 l -34.95038 -58.68094 l 70.95932 119.13907 l 34.3757 57.715973 l -322.6327 909.42114 l 42.41182 -73.54651 l -84.99472 147.3612 l -84.982376 147.40308 l 26.499779 0.0 l 16.001717 -73.6864 l 36.95511 73.6864 l -26.424591 0.0 l 52.967102 0.0 l 26.499771 0.0 l 26.499786 0.0 l 52.853638 0.0 l -26.268524 0.0 " /> </g> </svg>