<?xml version="1.0" standalone="no"?><!DOCTYPE svg PUBLIC "-//W3C//DTD SVG 1.1//EN" "http://www.w3.org/Graphics/SVG/1.1/DTD/svg11.dtd" ><svg xmlns="http://www.w3.org/2000/svg" xmlns:xlink="http://www.w3.org/1999/xlink" version="1.1" viewBox="-10 0 692 1000"><g transform="matrix(1 0 0 -1 0 800)"><path stroke="black" fill="none" d="M 376.2021 1493.014 l -0.016296387 0.016479492 l -43.959198 46.018555 l 0.0 0.0 l 128.65628 -192.92749 l 0.9668274 -1.6990967 l -48.149017 85.3313 l 91.26807 -161.70227 l 20.495178 -36.32837 l -193.23962 -117.21228 l -30.456879 52.756958 l 394.9645 -63.21582 l 0.0 0.0 l -64.04285 -36.174194 l 0.0 0.0 l -66.5661 92.542725 l -1.0276489 1.7346191 l -147.99054 -195.19366 l -30.37613 52.665955 l 112.48657 -194.9314 l 2.446106 -4.2822876 l 140.06503 -231.97833 l 36.377197 -118.3291 l 0.0 0.0 l -51.981873 58.14386 l -3.09906 0.07519531 l 199.93384 194.98041 l -9.905029 138.38708 l -31.910889 -52.855225 l 95.455505 158.19843 l 31.878052 52.77716 l 57.042175 94.590576 l 31.837524 52.698242 l -251.0965 18.900879 l 21.84137 36.963135 l 102.70624 173.88184 l -1.5959473 -2.6879883 l -59.472168 -100.33411 l -1.0470581 -1.7645264 l 119.35065 200.42871 l 0.5355835 0.73010254 l 34.514282 47.6073 l -0.40771484 0.0 l 88.71454 0.0 l 0.0 0.0 l 51.39673 0.0 l 0.0 0.0 l 84.74011 -0.1270752 l 0.0 0.0 l -19.8833 0.01940918 l 0.0 0.0 l 13.680298 -67.04895 l -101.1582 -169.64978 l -31.805908 -52.67151 l 91.99475 132.66711 l 56.977295 -1313.3949 l -0.0040283203 -0.025398254 l -15.315186 -73.7686 l 0.0 0.0 l 49.82141 -0.00016505993 l 0.0 0.0 l -89.88574 179.58571 l -33.869385 58.25029 l -226.38733 390.62683 l 33.520752 -57.98889 l 132.56653 -229.48013 l -33.771545 58.3667 l -56.87036 81.776825 l -204.84717 -80.3161 l 24.321655 -42.057465 l 63.191162 -109.61484 l -24.234009 41.91339 l 125.56726 -217.55734 l -50.147522 87.381905 l -1.4320679 2.4839325 l 101.453125 -163.3702 l -0.36114502 -3.501121e-05 l 75.94446 -0.0005928682 l 0.0 0.0 l 36.790283 -6.5625936e-06 l 0.0 0.0 l -877.136 -8.920255e-05 l 0.0 0.0 l 50.43167 -2.582965e-10 l 0.0 0.0 l -155.93588 3.3833203e-10 l 0.0 0.0 l -48.99363 -9.458745e-11 l 0.0 0.0 l 262.78418 74.404755 l 51.435516 86.500854 l 1.5023499 2.52417 l 53.312317 89.525955 l -1.394043 -2.3413544 l 88.339294 148.3198 l 0.0 0.0 l -305.21027 907.96387 l 30.519424 -52.83972 l -84.28349 142.11694 l -82.60547 147.8247 l 26.469849 0.0 l 16.233673 -71.84827 l 30.89943 71.84827 l -16.253098 0.0 l 48.52954 0.0 l 26.469849 0.0 l 26.469849 0.0 l 33.112976 0.0 l -0.5183716 0.0 " /> </g> </svg>