<?xml version="1.0" standalone="no"?><!DOCTYPE svg PUBLIC "-//W3C//DTD SVG 1.1//EN" "http://www.w3.org/Graphics/SVG/1.1/DTD/svg11.dtd" ><svg xmlns="http://www.w3.org/2000/svg" xmlns:xlink="http://www.w3.org/1999/xlink" version="1.1" viewBox="-10 0 692 1000"><g transform="matrix(1 0 0 -1 0 800)"><path stroke="black" fill="none" d="M 377.49918 1491.7008 l -34.874207 51.865234 l -18.16156 0.010986328 l 114.23883 -160.10437 l 27.01828 -47.89868 l -58.035156 102.8866 l 88.73746 -157.31189 l 28.727509 -50.92993 l -187.53528 -127.440186 l -41.466858 71.90332 l 384.6463 -90.91638 l 22.417969 37.81653 l -65.628174 -89.837524 l -21.513184 37.947266 l -33.4942 58.783447 l -27.027405 47.90808 l -132.9447 -221.01752 l -41.45993 71.89545 l 87.35797 -151.47748 l 39.06375 -67.74457 l 131.77783 -217.37103 l -44.18695 -118.23331 l 103.399536 -0.0067749023 l -29.285156 59.046967 l -63.70282 0.0065307617 l 216.3493 194.4497 l -2.861023 153.0263 l -43.419983 -71.911804 l 89.55377 148.32635 l 43.417175 71.90509 l 45.57599 75.49219 l 43.413696 71.898315 l -260.60748 3.8155518 l 30.214294 50.984253 l 122.17328 206.17029 l -28.473328 -48.036987 l -33.446716 -56.427734 l -28.400574 -47.914307 l 123.57129 208.3971 l 55.756897 51.960083 l -23.87799 0.0 l 59.85144 0.0 l -0.75164795 0.0 l 42.848083 0.0 l 36.12268 0.0 l 17.907593 0.0 l 103.76184 -0.00390625 l -18.744507 0.0008544922 l -49.32361 0.0 l 18.537598 0.00061035156 l 11.393677 -73.13635 l -90.04309 -149.3086 l -43.41101 -71.89612 l 89.25696 146.13611 l 63.671875 -1315.685 l -50.207153 -80.107574 l -0.7059326 -1.6103877e-07 l 41.86975 4.4802073e-07 l 35.30957 4.2648026e-07 l 17.442749 -6.5327913e-07 l -91.15405 162.9601 l -45.599243 78.77411 l -232.88983 402.39557 l 45.569458 -78.75165 l 139.45367 -241.01736 l -45.590942 78.78409 l -47.57245 80.79239 l -218.88293 -71.34207 l 33.35254 -57.63797 l 67.953186 -117.46353 l -33.34503 57.62564 l 135.83636 -234.78357 l -35.568054 61.526203 l -31.381775 54.23069 l 126.35541 -176.09259 l -23.291199 -2.413569e-05 l 56.939575 -3.5103978e-05 l 18.21167 -6.231967e-07 l 33.695557 2.3160828e-07 l 17.5979 -5.976581e-07 l -919.71783 -1.8499304e-06 l -0.7309418 0.0 l 42.36476 0.0 l 35.714386 0.0 l 17.67038 0.0 l -148.75931 -3.637979e-12 l -1.3807983 0.0 l -27.9617 1.0913936e-11 l -75.551796 0.0 l 38.31597 -1.0913936e-11 l 1.0138855 0.0 l 253.40785 60.412937 l 36.592773 61.45062 l 32.302734 54.235672 l 68.94058 115.75105 l -32.290314 -54.214767 l 76.91977 129.14629 l 25.591248 42.96704 l -319.7838 911.7783 l 41.472244 -71.91052 l -84.93854 146.9469 l -84.794586 147.4364 l 26.497414 0.0 l 16.02005 -73.54126 l 36.476646 73.54126 l -25.620941 0.0 l 52.616486 0.0 l 26.497406 0.0 l 26.497421 0.0 l 51.293976 0.0 l -23.801697 0.0 " /> </g> </svg>