<?xml version="1.0" standalone="no"?><!DOCTYPE svg PUBLIC "-//W3C//DTD SVG 1.1//EN" "http://www.w3.org/Graphics/SVG/1.1/DTD/svg11.dtd" ><svg xmlns="http://www.w3.org/2000/svg" xmlns:xlink="http://www.w3.org/1999/xlink" version="1.1" viewBox="-10 0 692 1000"><g transform="matrix(1 0 0 -1 0 800)"><path stroke="black" fill="none" d="M 377.49918 1491.7008 l -29.511597 52.299072 l -26.482025 0.0 l 114.99838 -156.90686 l 29.494629 -52.290527 l -58.997894 104.59631 l 88.50049 -156.90088 l 29.498352 -52.29712 l -187.00116 -128.39783 l -42.497772 73.696045 l 378.51328 -102.17566 l 30.981506 52.2688 l -62.007874 -104.56818 l -29.482788 52.268982 l -29.508606 52.314087 l -29.494629 52.290527 l -131.50314 -223.49463 l -42.49774 73.696045 l 85.005066 -147.40875 l 42.492615 -73.687195 l 131.00168 -216.00293 l -70.343506 -118.20007 l 138.7237 0.0 l -34.189392 59.099915 l -69.38776 0.0 l 217.89667 194.40009 l -2.201416 154.39703 l -44.49768 -73.69617 l 89.00122 147.40204 l 44.49762 73.696045 l 44.50232 73.70398 l 44.49768 73.696045 l -261.49805 2.4030762 l 30.998291 52.29712 l 123.99603 209.19348 l -30.994568 -52.29077 l -31.005249 -52.30896 l -30.994385 -52.290527 l 123.999084 209.19824 l 57.6958 52.299316 l -26.693909 0.0 l 80.056274 0.0 l -26.640503 0.0 l 53.37378 0.0 l 26.720337 0.0 l 26.680908 0.0 l 106.79358 0.0 l -26.682861 0.0 l -53.391235 0.0 l 26.682373 0.0 l 8.9053955 -73.69885 l -89.0022 -147.40405 l -44.49768 -73.69617 l 89.00049 147.39734 l 64.298706 -1315.8995 l -31.640015 -80.69872 l -26.041504 -6.7666406e-10 l 52.17395 1.2951205e-09 l 26.119751 9.1677066e-10 l 26.08142 -1.4078978e-09 l -93.39526 161.40335 l -46.69751 80.69585 l -233.49872 403.49756 l 46.69757 -80.69574 l 140.09851 -242.09769 l -46.69757 80.69586 l -46.701904 80.700226 l -220.19714 -70.50183 l 34.19818 -59.096832 l 68.39905 -118.19841 l -34.19818 59.096817 l 136.79791 -236.39651 l -34.20288 59.105225 l -34.19391 59.089508 l 128.69495 -177.2974 l -26.093994 -5.2026735e-08 l 52.210144 -7.566632e-08 l 26.08313 -1.3424142e-09 l 26.116333 4.984031e-10 l 26.081665 -1.2878445e-09 l -903.73456 -3.9872248e-09 l -26.341003 0.0 l 52.773834 0.0 l 26.42009 0.0 l 26.381195 0.0 l -132.03613 0.0 l -26.345459 0.0 l -26.403992 0.0 l -79.19213 0.0 l 26.425686 0.0 l 26.343609 0.0 l 246.4168 59.10283 l 35.202972 59.105064 l 35.193787 59.0895 l 70.39685 118.19473 l -35.193756 -59.089462 l 70.41409 118.22362 l 35.17929 59.065186 l -322.8933 909.20557 l 42.497787 -73.69629 l -84.99988 147.39905 l -84.99955 147.40015 l 26.499992 0.0 l 16.000046 -73.69971 l 36.99887 73.69971 l -26.498108 0.0 l 52.999176 0.0 l 26.5 0.0 l 26.499985 0.0 l 52.996307 0.0 l -26.494171 0.0 " /> </g> </svg>