<?xml version="1.0" standalone="no"?><!DOCTYPE svg PUBLIC "-//W3C//DTD SVG 1.1//EN" "http://www.w3.org/Graphics/SVG/1.1/DTD/svg11.dtd" ><svg xmlns="http://www.w3.org/2000/svg" xmlns:xlink="http://www.w3.org/1999/xlink" version="1.1" viewBox="-10 0 692 1000"><g transform="matrix(1 0 0 -1 0 800)"><path stroke="black" fill="none" d="M 377.49918 1491.7008 l -29.63504 52.289185 l -26.290466 0.00024414062 l 114.980865 -156.98059 l 29.437653 -52.189453 l -58.97577 104.55713 l 88.50598 -156.9104 l 29.48059 -52.265625 l -187.01346 -128.37585 l -42.47406 73.65491 l 378.65445 -101.916626 l 30.784363 51.936157 l -62.091187 -104.229065 l -29.299316 51.93927 l -29.600342 52.463013 l -29.437866 52.189697 l -131.53632 -223.43762 l -42.473877 73.65454 l 85.059265 -147.50238 l 42.413666 -73.550354 l 131.01956 -216.03448 l -69.741394 -118.200775 l 137.91058 -0.00018310547 l -34.076538 59.098663 l -69.2569 0.00018310547 l 217.86108 194.40118 l -2.2166138 154.36554 l -44.4729 -73.65509 l 89.013916 147.42328 l 44.47278 73.65491 l 44.52704 73.74512 l 44.472717 73.65466 l -261.47754 2.4355469 l 30.980225 52.266846 l 123.9541 209.12402 l -30.936523 -52.192993 l -31.061462 -52.40381 l -30.934692 -52.189697 l 123.98926 209.17981 l 57.651184 52.291504 l -26.62909 0.0 l 79.591125 0.0 l -26.007141 0.0 l 53.094055 0.0 l 26.936768 0.0 l 26.479004 0.0 l 106.723755 -0.00012207031 l -26.500122 0.0 l -53.297607 0.0 l 26.494873 0.0 l 8.962769 -73.68579 l -89.026245 -147.44788 l -44.472656 -73.654785 l 89.00647 147.36829 l 64.2843 -1315.8945 l -32.067505 -80.68511 l -25.416626 -7.872586e-09 l 51.89502 1.5086698e-08 l 26.33142 1.0713848e-08 l 25.882446 -1.641456e-08 l -93.34363 161.4392 l -46.67224 80.65161 l -233.48468 403.47223 l 46.67163 -80.651 l 140.08368 -242.07281 l -46.67212 80.651855 l -46.721924 80.70233 l -220.16693 -70.52118 l 34.17871 -59.063232 l 68.388794 -118.1815 l -34.178528 59.062973 l 136.77582 -236.3594 l -34.234375 59.160957 l -34.12921 58.977646 l 128.64111 -177.26965 l -26.029419 -6.0644015e-07 l 52.31897 -8.820316e-07 l 25.901978 -1.565786e-08 l 26.290771 5.820766e-09 l 25.886353 -1.5017577e-08 l -904.1024 -4.6482455e-08 l -25.712265 0.0 l 52.495026 0.0 l 26.634048 0.0 l 26.180634 0.0 l -132.42108 0.0 l -25.76419 0.0 l -26.446419 0.0 l -79.10833 0.0 l 26.699408 0.0 l 25.742619 0.0 l 246.59561 59.132988 l 35.234985 59.159058 l 35.127228 58.977776 l 70.36331 118.13847 l -35.126892 -58.977264 l 70.56384 118.47507 l 34.958557 58.69461 l -322.82172 909.2648 l 42.474182 -73.65503 l -84.99846 147.38867 l -84.99484 147.40088 l 26.499939 0.0 l 16.000504 -73.696045 l 36.986847 73.696045 l -26.477905 0.0 l 52.990356 0.0 l 26.499939 0.0 l 26.499939 0.0 l 52.957123 0.0 l -26.43219 0.0 " /> </g> </svg>