<?xml version="1.0" standalone="no"?><!DOCTYPE svg PUBLIC "-//W3C//DTD SVG 1.1//EN" "http://www.w3.org/Graphics/SVG/1.1/DTD/svg11.dtd" ><svg xmlns="http://www.w3.org/2000/svg" xmlns:xlink="http://www.w3.org/1999/xlink" version="1.1" viewBox="-10 0 692 1000"><g transform="matrix(1 0 0 -1 0 800)"><path stroke="black" fill="none" d="M 377.49918 1491.7008 l -31.074066 52.17273 l -24.057709 0.0032958984 l 114.77704 -157.83862 l 28.773132 -51.010864 l -58.717407 104.098145 l 88.56955 -157.02063 l 29.273743 -51.89868 l -187.15677 -128.1189 l -42.19742 73.173706 l 380.30023 -98.89514 l 28.48639 48.057983 l -63.062683 -100.27612 l -27.160706 48.09607 l -30.66986 54.198975 l -28.775818 51.01367 l -131.92316 -222.77289 l -42.195374 73.17145 l 85.69064 -148.59424 l 41.49356 -71.95569 l 131.22778 -216.40161 l -62.72235 -118.20972 l 128.43146 -0.0019836426 l -32.760498 59.084442 l -67.73132 0.001953125 l 217.4458 194.41455 l -2.3936157 153.99762 l -44.183655 -73.17621 l 89.16217 147.67133 l 44.18286 73.174194 l 44.815186 74.224976 l 44.181824 73.17224 l -261.2386 2.8146973 l 30.769836 51.91455 l 123.464966 208.31262 l -30.259949 -51.05139 l -31.716614 -53.509033 l -30.238647 -51.01538 l 123.87445 208.96484 l 57.13086 52.20044 l -25.873474 0.0 l 74.16931 0.0 l -18.624512 0.0 l 49.834106 0.0 l 29.459839 0.0 l 24.124756 0.0 l 105.91016 -0.0010986328 l -24.369873 0.00024414062 l -52.206055 0.0 l 24.309204 0.00012207031 l 9.630371 -73.53491 l -89.30542 -147.95898 l -44.181152 -73.17175 l 89.07532 147.0299 l 64.11609 -1315.837 l -37.049927 -80.52648 l -18.133057 -9.177529e-08 l 48.64514 1.7583079e-07 l 28.797363 1.2491364e-07 l 23.564331 -1.913395e-07 l -92.74219 161.85693 l -46.377563 80.135925 l -233.32123 403.17648 l 46.368835 -80.12927 l 139.91064 -241.78293 l -46.375122 80.138824 l -46.955566 80.72705 l -219.81421 -70.74661 l 33.951782 -58.671783 l 68.269165 -117.9843 l -33.949585 58.668167 l 136.5177 -235.92654 l -34.600647 59.810616 l -33.374573 57.673805 l 128.0133 -176.94635 l -25.277344 -7.069182e-06 l 53.588135 -1.0281718e-05 l 23.789673 -1.8252831e-07 l 28.324585 6.783375e-08 l 23.609863 -1.7504863e-07 l -908.39154 -5.418333e-07 l -18.383118 0.0 l 49.244995 0.0 l 29.128113 0.0 l 23.84317 0.0 l -136.90869 0.0 l -18.988464 0.0 l -26.941002 3.637979e-12 l -78.13146 0.0 l 29.890106 -3.637979e-12 l 18.73703 0.0 l 248.6801 59.48455 l 35.60794 59.788475 l 34.35141 57.675262 l 69.972534 117.48274 l -34.34778 -57.66916 l 72.30963 121.4061 l 32.38568 54.374756 l -321.98734 909.9552 l 42.198975 -73.1759 l -84.981995 147.26733 l -84.939835 147.41064 l 26.499245 0.0 l 16.005875 -73.653564 l 36.846718 73.653564 l -26.242538 0.0 l 52.88768 0.0 l 26.499237 0.0 l 26.499237 0.0 l 52.50032 0.0 l -25.709686 0.0 " /> </g> </svg>