<?xml version="1.0" standalone="no"?><!DOCTYPE svg PUBLIC "-//W3C//DTD SVG 1.1//EN" "http://www.w3.org/Graphics/SVG/1.1/DTD/svg11.dtd" ><svg xmlns="http://www.w3.org/2000/svg" xmlns:xlink="http://www.w3.org/1999/xlink" version="1.1" viewBox="-10 0 692 1000"><g transform="matrix(1 0 0 -1 0 800)"><path stroke="black" fill="none" d="M 377.11984 1492.0848 l -0.1446228 0.14648438 l -47.7041 50.66919 l -0.7210083 0.017089844 l 115.09146 -167.81995 l 21.026825 -37.27307 l -55.70581 98.75012 l 89.31073 -158.30652 l 26.86258 -47.62207 l -188.82758 -125.12317 l -38.972626 67.56592 l 399.48483 -63.675293 l 1.7064209 2.8624268 l -74.394775 -54.20984 l -2.232666 3.2994385 l -43.13556 74.433105 l -21.058105 37.30493 l -136.4325 -215.02441 l -38.949005 67.539185 l 93.05063 -161.32153 l 30.767853 -53.366943 l 133.65573 -220.68103 l 19.097046 -118.31369 l 17.93512 -0.023132324 l -17.419617 58.918976 l -49.94867 0.022277832 l 212.60559 194.5697 l -4.456787 149.70996 l -40.812683 -67.59473 l 90.89075 150.5628 l 40.8031 67.57178 l 48.173523 79.81885 l 40.79126 67.548584 l -258.45288 7.233032 l 28.317505 47.80786 l 117.76318 198.85571 l -22.373352 -37.744873 l -39.3537 -66.39307 l -22.124939 -37.326294 l 122.536194 206.45874 l 51.065918 51.139404 l -17.065063 0.0 l 64.746704 0.0 l 0.0 0.0 l 25.486938 0.0 l 58.871338 0.0 l 0.55651855 0.0 l 92.551025 -0.013183594 l -1.0123291 0.0021972656 l -38.008057 0.00036621094 l 0.85668945 0.0013427734 l 15.388916 -71.77429 l -92.561035 -153.91675 l -40.781982 -67.54089 l 89.8772 143.08484 l 62.155273 -1315.1663 l -0.03930664 -0.24772644 l -42.269653 -78.42961 l 0.0 0.0 l 24.711182 -1.1847966e-05 l 57.54358 1.4560974e-06 l 0.53393555 -6.047303e-07 l -89.723145 166.72649 l -42.942017 74.12462 l -231.41675 399.7295 l 42.839905 -74.048035 l 137.8935 -238.40369 l -42.91339 74.15869 l -49.678833 81.01541 l -215.70325 -73.37506 l 31.306702 -54.108337 l 66.87439 -115.685486 l -31.281006 54.066162 l 133.50995 -230.8811 l -38.87085 67.38358 l -24.578003 42.475143 l 120.69507 -173.17766 l -16.51001 -8.240438e-05 l 68.38214 -0.00011985248 l 0.92004395 -1.4408906e-06 l 50.28015 1.0393342e-07 l 0.59191895 -6.694718e-07 l -908.6515 -7.687104e-06 l 0.0 0.0 l 25.15474 -1.8189894e-11 l 58.20125 0.0 l 0.5435486 0.0 l -155.13754 3.637979e-12 l 0.0 0.0 l -10.741676 2.5465852e-11 l -66.74426 -3.637979e-12 l 19.194077 -2.5465852e-11 l 0.0 0.0 l 257.94226 63.582657 l 39.95526 67.12552 l 25.308044 42.49214 l 65.4173 109.838745 l -25.265717 -42.42073 l 92.65988 155.57289 l 2.393982 4.0193176 l -312.261 918.00256 l 38.990982 -67.59021 l -84.790146 145.85266 l -84.29866 147.52441 l 26.491173 0.0 l 16.068436 -73.157715 l 35.21319 73.157715 l -23.498749 0.0 l 51.690628 0.0 l 26.491165 0.0 l 26.49118 0.0 l 47.175232 0.0 l -17.287415 0.0 " /> </g> </svg>