<?xml version="1.0" standalone="no"?><!DOCTYPE svg PUBLIC "-//W3C//DTD SVG 1.1//EN" "http://www.w3.org/Graphics/SVG/1.1/DTD/svg11.dtd" ><svg xmlns="http://www.w3.org/2000/svg" xmlns:xlink="http://www.w3.org/1999/xlink" version="1.1" viewBox="-10 0 692 1000"><g transform="matrix(1 0 0 -1 0 800)"><path stroke="black" fill="none" d="M 362.3705 1507.0183 l 0.0 0.0 l 74.21512 -67.49829 l 0.0 0.0 l 135.32373 -225.547 l 0.0 0.0 l -130.78787 -16.554688 l -66.463135 -77.96411 l 0.0 0.0 l 359.22446 -38.98828 l 0.0 0.0 l -276.8453 -116.148254 l 0.0 0.0 l 120.55954 -190.02313 l 64.524414 -92.87622 l 51.65515 -120.31201 l -9.987244 -70.96948 l 0.0 0.0 l 80.73212 95.58148 l 94.82086 105.679504 l -14.4036255 97.066956 l 0.0 0.0 l 107.21808 181.10162 l 0.0 0.0 l 84.96802 144.25159 l 0.0 0.0 l -204.32727 63.936157 l 0.0 0.0 l 74.440125 145.01062 l 0.0 0.0 l 108.170044 178.14514 l 0.0 0.0 l 119.976074 6.0858154 l 0.0 0.0 l 7.1376953 75.02258 l 90.29895 -79.7334 l 0.0 0.0 l -113.63367 -262.1328 l 0.0 0.0 l 143.9347 9.766235 l 40.200073 -110.70007 l 40.19995 -110.69995 l 40.19995 -110.69995 l 40.200073 -110.70001 l 40.19995 -110.70001 l 40.200073 -110.70001 l 40.19995 -110.70001 l 42.700073 103.20001 l 42.69995 103.20001 l 42.69995 103.20001 l 42.700073 103.20001 l 42.69995 103.19995 l 42.700073 103.19995 l 42.69995 103.20007 l 42.69995 103.19995 l 42.700073 103.20007 l 42.69995 103.19995 l 25.300049 0.0 l 25.299927 0.0 l 25.300049 0.0 l 25.300049 0.0 l 25.299927 0.0 l 25.300049 0.0 l 25.300049 0.0 l 25.299805 0.0 l 25.300049 0.0 l 25.300049 0.0 l -69.0 -164.19995 l -69.0 -164.20007 l -69.0 -164.19995 l -69.0 -164.20001 l -69.0 -164.20001 l -69.0 -164.19995 l -69.0 -164.20001 l -69.0 -164.20001 l -69.0 -164.2 l -69.0 -164.2 l -39.69995 109.4 l -39.700073 109.4 l -223.25183 -115.8949 l 0.0 0.0 l -61.735962 262.27258 l 0.0 0.0 l 165.88782 181.8223 l -39.69995 109.399994 l -39.700073 109.400024 l -39.69995 109.400024 l -39.700073 109.39996 l -39.69995 109.400024 l -41.400024 -109.5 l -41.399963 -109.5 l -86.451965 -186.58484 l 0.0 0.0 l 81.836 -156.9477 l 0.0 0.0 l -119.584045 15.032532 l -97.667786 -82.99829 l 0.0 0.0 l 41.880676 -87.903656 l 0.0 0.0 l 58.980713 -117.453674 l 0.0 0.0 l 162.82605 -159.07175 l 0.0 0.0 l -373.01965 -100.07265 l -547.42993 99.00007 l 0.0 0.0 l 284.70758 187.26901 l 0.0 0.0 l 113.7435 197.86836 l 0.0 0.0 l -113.42111 173.06259 l -65.600006 164.29999 l -65.600006 164.29999 l -65.59999 164.30005 l 29.635452 210.46411 l 0.0 0.0 l -94.084564 130.08594 l -132.35089 152.34998 l 25.3 0.0 l 25.3 0.0 l 24.663597 -0.00012207031 l 26.14853 0.0 l 18.7239 -52.11377 l 15.394012 52.11377 l 0.0 0.0 l 44.327667 0.0 l 26.14853 0.0 l 26.14853 0.0 l 26.148544 0.0 " /> </g> </svg>