<?xml version="1.0" standalone="no"?><!DOCTYPE svg PUBLIC "-//W3C//DTD SVG 1.1//EN" "http://www.w3.org/Graphics/SVG/1.1/DTD/svg11.dtd" ><svg xmlns="http://www.w3.org/2000/svg" xmlns:xlink="http://www.w3.org/1999/xlink" version="1.1" viewBox="-10 0 692 1000"><g transform="matrix(1 0 0 -1 0 800)"><path stroke="black" fill="none" d="M 377.49918 1491.7008 l -29.53955 52.296875 l -26.43863 0.00012207031 l 114.994415 -156.9237 l 29.48172 -52.26758 l -58.99289 104.587524 l 88.50174 -156.90308 l 29.494293 -52.29004 l -187.0039 -128.39282 l -42.4924 73.68677 l 378.54526 -102.117065 l 30.936829 52.19348 l -62.026733 -104.49133 l -29.441223 52.194336 l -29.529358 52.34778 l -29.481812 52.2677 l -131.51065 -223.48175 l -42.49234 73.686584 l 85.017365 -147.42993 l 42.4747 -73.65613 l 131.00574 -216.01013 l -70.20709 -118.200195 l 138.53949 -6.1035156e-05 l -34.16382 59.09961 l -69.35809 6.1035156e-05 l 217.88861 194.40033 l -2.204895 154.3899 l -44.492065 -73.68683 l 89.00409 147.4068 l 44.492004 73.68683 l 44.507935 73.71326 l 44.492004 73.686646 l -261.4934 2.4104004 l 30.994202 52.290283 l 123.98657 209.17773 l -30.981445 -52.268677 l -31.018005 -52.330444 l -30.980835 -52.26758 l 123.996826 209.19409 l 57.68573 52.297485 l -26.67926 0.0 l 79.95093 0.0 l -26.49701 0.0 l 53.310364 0.0 l 26.76941 0.0 l 26.635132 0.0 l 106.77771 0.0 l -26.641357 0.0 l -53.369995 0.0 l 26.639893 0.0 l 8.918335 -73.69592 l -89.00769 -147.41394 l -44.491943 -73.68677 l 89.00183 147.39062 l 64.29541 -1315.8983 l -31.736816 -80.69564 l -25.899902 -2.3064786e-09 l 52.110718 4.4201443e-09 l 26.167725 3.1359377e-09 l 26.036255 -4.80577e-09 l -93.383545 161.41147 l -46.691772 80.68584 l -233.49554 403.49182 l 46.69171 -80.68561 l 140.09521 -242.09207 l -46.691833 80.68588 l -46.706482 80.700714 l -220.1903 -70.506226 l 34.193787 -59.089203 l 68.39673 -118.19458 l -34.193726 59.08914 l 136.79291 -236.38809 l -34.210022 59.11785 l -34.17926 59.064163 l 128.68274 -177.2911 l -26.079346 -1.7762068e-07 l 52.234863 -2.583438e-07 l 26.041992 -4.5838533e-09 l 26.155884 1.7025741e-09 l 26.037354 -4.3983164e-09 l -903.8178 -1.3613317e-08 l -26.198563 0.0 l 52.71068 0.0 l 26.468552 0.0 l 26.335754 0.0 l -132.12334 0.0 l -26.213776 0.0 l -26.413605 0.0 l -79.17314 0.0 l 26.487694 0.0 l 26.207462 0.0 l 246.45728 59.10966 l 35.210236 59.1173 l 35.17871 59.064194 l 70.38925 118.18199 l -35.17862 -59.064056 l 70.44803 118.28058 l 35.129272 58.98123 l -322.87708 909.219 l 42.49243 -73.68689 l -84.99954 147.39673 l -84.99849 147.40027 l 26.499977 0.0 l 16.000153 -73.69885 l 36.996147 73.69885 l -26.49353 0.0 l 52.997177 0.0 l 26.499985 0.0 l 26.499985 0.0 l 52.987427 0.0 l -26.480133 0.0 " /> </g> </svg>