<?xml version="1.0" standalone="no"?><!DOCTYPE svg PUBLIC "-//W3C//DTD SVG 1.1//EN" "http://www.w3.org/Graphics/SVG/1.1/DTD/svg11.dtd" ><svg xmlns="http://www.w3.org/2000/svg" xmlns:xlink="http://www.w3.org/1999/xlink" version="1.1" viewBox="-10 0 692 1000"><g transform="matrix(1 0 0 -1 0 800)"><path stroke="black" fill="none" d="M 446.60025 754.69977 l -50.399902 87.70044 l -50.399994 87.69989 l -50.399963 87.69995 l -50.399963 87.69995 l -50.40016 87.700195 l -50.39998 87.70007 l -50.399956 87.69983 l -50.399963 87.69995 l -50.387733 87.69995 l 26.78215 0.0 l 26.80471 0.0 l 53.59939 0.0 l -26.79808 0.0 l 53.599228 0.0 l 26.800003 0.0 l 26.799988 0.0 l 26.799988 0.0 l 26.800003 0.0 l 26.799988 0.0 l 35.299988 -61.69983 l 35.300323 -61.700073 l 35.299988 -61.69995 l 35.301117 -61.702637 l 35.298096 -61.696655 l 35.300842 -61.700928 l 35.299988 -61.69983 l 35.299927 -61.700073 l 70.60083 -123.39752 l 35.389404 61.697388 l -70.68756 0.0 l 106.096985 61.700134 l 35.399963 61.700073 l 35.400024 61.69983 l 35.399963 61.700073 l 35.400085 61.700073 l 35.400024 61.700073 l 35.399902 61.69995 l 35.400024 61.69983 l 35.400146 61.700073 l 26.799988 0.0 l 26.799988 0.0 l 26.799988 0.0 l 26.799927 0.0 l 26.800049 0.0 l 26.799927 0.0 l 26.800049 0.0 l 53.598877 0.0 l -26.798096 0.0 l 53.59912 0.0 l -50.599854 -87.69995 l -50.600098 -87.69995 l -50.599976 -87.69983 l -50.600098 -87.70044 l -50.599976 -87.69983 l -50.600037 -87.69995 l -50.599915 -87.69995 l -50.599976 -87.69989 l -50.599976 -87.69995 l -213.71136 -754.7002 l -23.284363 -1.1661905e-07 l -23.315063 8.2662154e-08 l -23.28302 -1.2744931e-07 l -0.006011963 66.698944 l 139.80228 -66.698944 l 23.419556 -1.9696017e-08 l 23.134827 -5.8935257e-10 l -93.14606 1.5668775e-08 l 23.269714 2.8481736e-08 l 116.519226 66.6966 l -0.018310547 -66.696594 l -23.250183 7.4532727e-07 l 23.268799 133.40146 l 0.0 66.69672 l 0.0 133.39288 l 0.0 -66.68808 l 0.0 133.42676 l 0.0 66.6608 l -0.00024414062 66.70941 l 0.00018310547 66.7027 l 0.0 66.69635 l -232.99994 0.0009765625 l 0.0 0.0 l 0.0 0.0 l 0.0 0.0 l 0.0 -66.69861 l 3.0517578e-05 -66.71039 l 0.0 -66.68817 l 0.0005493164 -66.70261 l -0.000579834 -66.69998 l -0.00015258789 -66.7001 l 0.00012207031 -66.702774 l 0.0 -66.696365 " /> </g> </svg>