<?xml version="1.0" standalone="no"?><!DOCTYPE svg PUBLIC "-//W3C//DTD SVG 1.1//EN" "http://www.w3.org/Graphics/SVG/1.1/DTD/svg11.dtd" ><svg xmlns="http://www.w3.org/2000/svg" xmlns:xlink="http://www.w3.org/1999/xlink" version="1.1" viewBox="-10 0 692 1000"><g transform="matrix(1 0 0 -1 0 800)"><path stroke="black" fill="none" d="M 451.20004 750.6942 l 0.0 0.0 l -45.807983 112.59448 l -48.08615 83.59943 l -48.08615 83.59949 l -48.08612 83.59949 l 23.260925 71.08374 l -83.795044 34.10193 l -48.08615 83.59961 l -48.086136 83.59949 l -48.086143 83.599365 l -28.733795 83.59961 l 0.0 0.0 l 43.334602 0.0 l 0.0 0.0 l 47.5887 0.0 l 26.712128 0.0 l 26.712128 0.0 l 26.712128 0.0 l 26.712143 0.0 l 26.712128 0.0 l 32.722534 -43.62854 l 25.58078 43.62854 l 26.5 0.0 l 29.5 -52.30005 l -23.815857 -65.59363 l 33.601196 -58.946777 l 45.348663 -110.36243 l 0.0 0.0 l 62.865997 25.70288 l 29.5 -52.30005 l -28.27063 -55.199097 l 33.601196 -58.946777 l 33.601196 -58.9469 l 33.16754 -71.33838 l 0.0 0.0 l 84.537415 71.33838 l 34.111267 58.9469 l 34.111267 58.946777 l 34.11133 58.946777 l 14.029419 48.55237 l 29.161499 25.712769 l 34.111267 58.946777 l 34.111267 58.946777 l 34.111267 58.946777 l 23.5047 58.9469 l 18.42688 0.0 l 26.77069 0.0 l 26.77069 0.0 l 26.770752 0.0 l 26.77063 0.0 l 26.770752 0.0 l 26.77063 0.0 l 26.770752 0.0 l 30.06372 0.0 l 0.0 0.0 l 42.428223 0.0 l -48.813354 -83.59961 l -48.813354 -83.599365 l -48.813354 -83.59949 l -42.873657 -44.001587 l -18.97345 -61.184204 l -48.813354 -83.59949 l -48.813354 -83.59949 l -48.813354 -83.59949 l -48.813354 -83.59943 l -48.813354 -83.59955 l 42.740234 -43.718323 l 46.700012 -80.70001 l 46.700012 -80.69995 l 46.69995 -80.70001 l 46.700012 -80.70001 l 46.69995 -80.69998 l 46.700073 -80.7 l 46.69995 -80.7 l 46.700073 -80.7 l 46.69995 -80.7 l -26.099976 0.0 l -26.099976 0.0 l -26.099976 0.0 l -26.100098 0.0 l -26.099976 0.0 l -26.099976 0.0 l -26.099976 0.0 l -26.100098 0.0 l -26.099915 0.0 l -470.66516 13.814022 l 0.0 0.0 l 410.3651 45.285976 l -34.19995 59.1 l -34.200012 59.09999 l -181.10504 -159.565 l 0.0 0.0 l 112.70502 277.765 l -76.070984 -7.353943 l 0.0 0.0 l -0.5314331 116.007996 l -10.016968 64.474 l -10.016968 64.47397 l 8.829773 113.56415 l 0.0 0.0 l -222.50995 -4.966858 l 0.0 0.0 l 18.287659 -173.07126 l 15.428894 -54.92807 l -36.29709 -64.5759 l 0.0 0.0 l -10.06131 -73.91806 l 4.021942 -119.156006 l 0.0 0.0 l -98.46356 21.24997 l -35.200012 -59.09999 l -35.19998 -59.1 l -35.200012 -59.1 l -26.399994 0.0 l -26.40001 0.0 l -26.399994 0.0 l -26.40001 0.0 l -26.399994 0.0 l -26.399994 0.0 l -26.40001 0.0 l -26.399994 0.0 l -26.400002 0.0 l -26.400002 0.0 " /> </g> </svg>