<?xml version="1.0" standalone="no"?><!DOCTYPE svg PUBLIC "-//W3C//DTD SVG 1.1//EN" "http://www.w3.org/Graphics/SVG/1.1/DTD/svg11.dtd" ><svg xmlns="http://www.w3.org/2000/svg" xmlns:xlink="http://www.w3.org/1999/xlink" version="1.1" viewBox="-10 0 692 1000"><g transform="matrix(1 0 0 -1 0 800)"><path stroke="black" fill="none" d="M 446.60992 754.6914 l -50.390076 87.75366 l -50.39505 87.6911 l -50.39499 87.69122 l -50.39502 87.69116 l -50.42186 87.73767 l -50.39502 87.69116 l -50.395004 87.69116 l -50.395016 87.69104 l -48.732986 87.691284 l 24.37456 0.0 l 27.440384 0.0 l 53.517517 0.0 l -26.539314 0.0 l 53.49369 0.0 l 26.799812 0.0 l 26.799805 0.0 l 26.799805 0.0 l 26.79982 0.0 l 26.79979 0.0 l 35.294464 -61.661133 l 35.34842 -61.72705 l 35.296326 -61.69397 l 35.451538 -62.050415 l 35.04251 -61.2511 l 35.413605 -61.813843 l 35.296326 -61.69397 l 35.296326 -61.694214 l 70.70593 -123.0686 l 33.96216 61.3443 l -69.00592 0.0017089844 l 105.68677 61.722595 l 35.397217 61.694214 l 35.397217 61.69397 l 35.397278 61.69409 l 35.416748 61.72705 l 35.397217 61.694214 l 35.397217 61.69397 l 35.397217 61.69409 l 35.414124 61.69409 l 26.799927 0.0 l 26.799927 0.0 l 26.799988 0.0 l 26.799805 0.0 l 26.800049 0.0 l 26.799805 0.0 l 26.800049 0.0 l 53.443115 0.0 l -26.54126 0.0 l 53.48108 0.0 l -50.59607 -87.691284 l -50.596313 -87.69104 l -50.59607 -87.69116 l -50.624268 -87.73779 l -50.59607 -87.69104 l -50.59619 -87.69116 l -50.59613 -87.69122 l -50.59613 -87.6911 l -50.59619 -87.69116 l -215.24915 -754.7329 l -21.163696 -1.5846155e-05 l -25.353638 1.1232354e-05 l -20.990326 -1.7318212e-05 l -0.81796265 66.55693 l 140.11047 -66.55698 l 39.546204 -2.6761918e-06 l 1.1019287 -7.4400305e-08 l -86.12195 2.1233172e-06 l 19.191162 3.870049e-06 l 119.11255 66.23892 l -2.489441 -66.238365 l -0.05419922 1.1825236e-05 l -16.484192 8.945097e-05 l 19.068298 133.59872 l 0.0005493164 66.25343 l -0.0028076172 132.43802 l -6.1035156e-05 -65.08267 l -0.0017700195 137.03708 l 0.00036621094 61.370056 l -0.03466797 67.98355 l 0.030334473 67.06348 l 0.00079345703 66.20886 l -232.99524 0.12799072 l 0.0 0.0 l 0.0 0.0 l 0.0 0.0 l 0.0014343262 -66.51251 l 0.0032348633 -68.10864 l -0.00079345703 -65.09842 l 0.07458496 -67.05051 l -0.07824707 -66.695435 l -0.02166748 -66.715546 l 0.01727295 -67.079605 l 0.000579834 -66.2065 " /> </g> </svg>