<?xml version="1.0" standalone="no"?><!DOCTYPE svg PUBLIC "-//W3C//DTD SVG 1.1//EN" "http://www.w3.org/Graphics/SVG/1.1/DTD/svg11.dtd" ><svg xmlns="http://www.w3.org/2000/svg" xmlns:xlink="http://www.w3.org/1999/xlink" version="1.1" viewBox="-10 0 692 1000"><g transform="matrix(1 0 0 -1 0 800)"><path stroke="black" fill="none" d="M 446.99463 754.3564 l 0.09786987 -0.08520508 l -50.103943 89.92084 l -50.201508 87.348145 l -50.201508 87.34827 l -50.201492 87.348206 l -51.26938 89.20007 l -50.201523 87.34827 l -50.201485 87.348145 l -50.201508 87.34827 l -30.543385 87.34827 l 0.0 0.0 l 29.045467 0.0 l -0.009689331 0.0 l 50.327087 0.0 l -16.424988 0.0 l 49.368774 0.0 l 26.792465 0.0 l 26.79245 0.0 l 26.792465 0.0 l 26.792465 0.0 l 26.79245 0.0 l 35.07892 -60.14978 l 37.227173 -62.777832 l 35.154236 -61.463745 l 41.330505 -75.642334 l 25.05246 -43.838013 l 39.821106 -66.22534 l 35.154236 -61.463745 l 35.154266 -61.463867 l 74.81464 -110.215576 l -21.82312 47.545593 l -3.3479004 0.066345215 l 89.723694 62.603638 l 35.28943 61.463867 l 35.28943 61.463745 l 35.28949 61.463867 l 36.0683 62.777832 l 35.28949 61.46399 l 35.28943 61.463745 l 35.28943 61.463745 l 35.96039 61.463867 l 26.797424 0.0 l 26.797485 0.0 l 26.797607 0.0 l 26.797363 0.0 l 26.797485 0.0 l 26.797485 0.0 l 26.797485 0.0 l 47.359863 0.0 l -16.50586 0.0 l 48.867676 0.0 l -50.446777 -87.34827 l -50.446777 -87.34827 l -50.446777 -87.348145 l -51.56482 -89.20007 l -50.446655 -87.34827 l -50.446777 -87.348206 l -50.446716 -87.34827 l -50.446716 -87.348145 l -50.446716 -87.34827 l -241.06543 -756.00653 l 0.0 0.0 l -32.29727 -9.037554e-06 l 0.0 0.0 l -9.23407 61.00037 l 0.0031738281 -0.02092743 l 123.01645 -60.98635 l 0.0 0.0 l -18.021729 -0.000313746 l 0.0 0.0 l 125.62891 48.34983 l 0.0 0.0 l -33.07141 -45.16206 l 34.680786 138.14697 l 0.00036621094 0.029632568 l 0.021850586 48.897797 l -0.11236572 95.1145 l -0.0012207031 -2.600708 l -0.17364502 170.35312 l 0.0 0.0 l -1.2608643 80.427826 l 1.2070923 81.165344 l 0.030883789 47.151123 l -232.80463 3.9164429 l 0.0 0.0 l 0.00039672852 -0.075927734 l 0.050079346 -57.984497 l 0.12911987 -122.76196 l -0.030853271 -3.0726013 l 2.9677124 -80.53705 l -3.1138 -66.51779 l 0.0005187988 0.07562256 l -0.86364746 -67.394806 l 0.6878967 -81.80792 l 0.023254395 -47.05905 " /> </g> </svg>