<?xml version="1.0" standalone="no"?><!DOCTYPE svg PUBLIC "-//W3C//DTD SVG 1.1//EN" "http://www.w3.org/Graphics/SVG/1.1/DTD/svg11.dtd" ><svg xmlns="http://www.w3.org/2000/svg" xmlns:xlink="http://www.w3.org/1999/xlink" version="1.1" viewBox="-10 0 692 1000"><g transform="matrix(1 0 0 -1 0 800)"><path stroke="black" fill="none" d="M 446.60086 754.6993 l -50.39914 87.70459 l -50.399597 87.69922 l -50.399567 87.69922 l -50.399567 87.69922 l -50.401886 87.70325 l -50.399582 87.69934 l -50.39956 87.6991 l -50.399574 87.69922 l -50.256996 87.69934 l 26.59193 0.0 l 26.854935 0.0 l 53.592922 0.0 l -26.777641 0.0 l 53.59089 0.0 l 26.799988 0.0 l 26.799973 0.0 l 26.799988 0.0 l 26.799988 0.0 l 26.799957 0.0 l 35.29956 -61.696777 l 35.30414 -61.70227 l 35.299683 -61.69934 l 35.31299 -61.730225 l 35.277924 -61.661377 l 35.309753 -61.70984 l 35.299683 -61.699463 l 35.299652 -61.699585 l 70.60913 -123.37152 l 35.27661 61.669495 l -70.55469 0.00012207031 l 106.064575 61.701904 l 35.39978 61.699585 l 35.39978 61.699463 l 35.39978 61.699585 l 35.401367 61.70227 l 35.39978 61.699585 l 35.39972 61.69934 l 35.39984 61.699463 l 35.401184 61.699585 l 26.799988 0.0 l 26.799988 0.0 l 26.800049 0.0 l 26.799927 0.0 l 26.800049 0.0 l 26.799927 0.0 l 26.800049 0.0 l 53.586548 0.0 l -26.777832 0.0 l 53.589844 0.0 l -50.59961 -87.69934 l -50.599854 -87.69922 l -50.59961 -87.6991 l -50.60205 -87.70337 l -50.59967 -87.69922 l -50.59967 -87.69922 l -50.59967 -87.69922 l -50.59961 -87.69922 l -50.59973 -87.69928 l -213.83282 -754.70276 l -23.116821 -1.3593854e-06 l -23.476135 9.635805e-07 l -23.101868 -1.4856669e-06 l -0.07015991 66.68773 l 139.82663 -66.68773 l 24.693665 -2.2958193e-07 l 21.374146 -6.868504e-09 l -92.57117 1.8264109e-07 l 22.94751 3.3199467e-07 l 116.72412 66.660446 l -0.21356201 -66.6604 l -22.71997 8.688134e-06 l 22.937012 133.41704 l 0.0 66.66168 l -0.00024414062 133.31746 l 0.0 -66.56125 l -0.00012207031 133.712 l 0.0 66.2428 l -0.0029296875 66.81009 l 0.0025634766 66.73114 l 6.1035156e-05 66.6579 l -232.99957 0.011047363 l 0.0 0.0 l 0.0 0.0 l 0.0 0.0 l 0.00012207031 -66.68402 l 0.0002746582 -66.82086 l -6.1035156e-05 -66.56253 l 0.0064086914 -66.73007 l -0.006713867 -66.699615 l -0.0018615723 -66.701324 l 0.0014648438 -66.73256 l 6.1035156e-05 -66.65767 " /> </g> </svg>