<?xml version="1.0" standalone="no"?><!DOCTYPE svg PUBLIC "-//W3C//DTD SVG 1.1//EN" "http://www.w3.org/Graphics/SVG/1.1/DTD/svg11.dtd" ><svg xmlns="http://www.w3.org/2000/svg" xmlns:xlink="http://www.w3.org/1999/xlink" version="1.1" viewBox="-10 0 692 1000"><g transform="matrix(1 0 0 -1 0 800)"><path stroke="black" fill="none" d="M 446.63385 754.67053 l -50.36618 87.88324 l -50.382996 87.66974 l -50.382965 87.66986 l -50.38298 87.66986 l -50.47458 87.82861 l -50.38298 87.66992 l -50.382973 87.66968 l -50.382973 87.6698 l -44.708454 87.66992 l 18.519032 0.0 l 28.986404 0.0 l 53.318398 0.0 l -25.909966 0.0 l 53.237022 0.0 l 26.799355 0.0 l 26.799347 0.0 l 26.799347 0.0 l 26.799362 0.0 l 26.799347 0.0 l 35.281036 -61.567017 l 35.465332 -61.79248 l 35.287476 -61.679688 l 35.817352 -62.89612 l 34.4209 -60.167603 l 35.687866 -62.08838 l 35.287476 -61.679688 l 35.287506 -61.67981 l 70.96155 -122.26886 l 30.491028 60.485718 l -64.91608 0.0057373047 l 104.68915 61.777405 l 35.39044 61.67981 l 35.390564 61.679688 l 35.390503 61.67981 l 35.457336 61.79248 l 35.390503 61.67981 l 35.390503 61.679688 l 35.390564 61.679688 l 35.44806 61.67981 l 26.799805 0.0 l 26.799744 0.0 l 26.799805 0.0 l 26.799683 0.0 l 26.799927 0.0 l 26.799683 0.0 l 26.799805 0.0 l 53.064697 0.0 l -25.91687 0.0 l 53.19409 0.0 l -50.586914 -87.66992 l -50.586914 -87.6698 l -50.586792 -87.66968 l -50.68274 -87.82886 l -50.586853 -87.66968 l -50.586914 -87.66986 l -50.586853 -87.66986 l -50.586792 -87.66974 l -50.586914 -87.66986 l -218.9892 -754.8125 l -16.006226 -5.4102158e-05 l -30.311584 3.834965e-05 l -15.414215 -5.912807e-05 l -2.7926636 66.21155 l 140.86008 -66.211685 l 36.111816 -6.1282444e-06 l 0.0 0.0 l -78.86694 3.9865954e-06 l 9.2716675 1.3213175e-05 l 125.4198 65.1258 l -0.018676758 -0.22650146 l -7.753723 -64.89731 l 0.0 0.0 l -0.9416504 0.00025073718 l 8.852112 134.07846 l 0.0018920898 65.175354 l -0.009643555 130.1156 l -0.00012207031 -61.17813 l -0.0060424805 145.81781 l 0.0012207031 48.50238 l -0.1182251 71.08255 l 0.10357666 67.94092 l 0.0026245117 65.02301 l -232.98373 0.43084717 l 0.0 0.0 l 0.0 -0.00012207031 l 0.0 -0.00036621094 l 0.0048217773 -66.05322 l 0.011077881 -71.5094 l -0.0026550293 -61.231934 l 0.25460815 -67.89667 l -0.26712036 -66.68439 l -0.074035645 -66.75311 l 0.05899048 -67.99605 l 0.0020141602 -65.015076 " /> </g> </svg>