<?xml version="1.0" standalone="no"?><!DOCTYPE svg PUBLIC "-//W3C//DTD SVG 1.1//EN" "http://www.w3.org/Graphics/SVG/1.1/DTD/svg11.dtd" ><svg xmlns="http://www.w3.org/2000/svg" xmlns:xlink="http://www.w3.org/1999/xlink" version="1.1" viewBox="-10 0 692 1000"><g transform="matrix(1 0 0 -1 0 800)"><path stroke="black" fill="none" d="M 447.94733 753.52673 l 0.013702393 -0.0119018555 l -49.068726 95.00336 l -49.72232 86.4989 l -49.72229 86.49902 l -49.722275 86.49902 l 42.521866 70.31738 l -95.890076 22.504028 l -49.722305 86.49902 l -49.722275 86.4989 l -49.72229 86.49902 l -22.833622 86.49902 l 9.993946 0.0 l 0.0 0.0 l 42.40143 0.0 l -0.31717682 0.0 l 48.084435 0.0 l 26.774261 0.0 l 26.774261 0.0 l 26.774261 0.0 l 26.774277 0.0 l 26.774246 0.0 l 34.545105 -56.406982 l 25.311523 56.406982 l 26.5 0.0 l 29.5 -52.30005 l -39.431732 -69.48718 l 34.80243 -60.893555 l 55.889374 -109.30188 l 1.0193787 -1.9222412 l 65.72055 32.404907 l 29.5 -52.30005 l -45.191254 -56.04834 l 34.8024 -60.893555 l 34.80243 -60.893677 l 84.989624 -78.38544 l -38.458435 10.908997 l 0.0 0.0 l 87.92871 67.47644 l 35.022522 60.893677 l 35.022583 60.893555 l 35.022522 60.893677 l 9.058899 47.454712 l 28.622986 17.925537 l 35.022583 60.893677 l 35.022522 60.893555 l 35.022522 60.893555 l 21.309387 60.893677 l 16.003723 0.0 l 26.791382 0.0 l 26.791443 0.0 l 26.791504 0.0 l 26.79126 0.0 l 26.791504 0.0 l 26.791382 0.0 l 26.791382 0.0 l 32.299683 0.0 l -0.34155273 0.0 l 46.125732 0.0 l -50.07666 -86.49902 l -50.076782 -86.49902 l -50.076782 -86.4989 l -42.397217 -35.3031 l -11.496948 -57.518433 l -50.07666 -86.4989 l -50.07672 -86.49902 l -50.07666 -86.49902 l -50.07672 -86.4989 l -50.07672 -86.49902 l 41.580444 -32.886658 l 46.700012 -80.70001 l 46.700012 -80.69995 l 46.69995 -80.70001 l 46.700012 -80.70001 l 46.69995 -80.69998 l 46.700073 -80.7 l 46.69995 -80.7 l 46.700073 -80.7 l 46.69995 -80.7 l -26.099976 0.0 l -26.099976 0.0 l -26.099976 0.0 l -26.100098 0.0 l -26.099976 0.0 l -26.099976 0.0 l -26.099976 0.0 l -26.100098 0.0 l -26.099915 0.0 l -468.9676 0.2988119 l 0.0 0.0 l -38.18759 46.96717 l 0.0 0.0 l 446.85513 11.834015 l -34.19995 59.1 l -34.200012 59.09999 l -218.32117 -177.26457 l 0.0 0.0 l 66.0495 47.171074 l 0.0 0.0 l 83.87164 248.29352 l -79.662964 -135.01086 l 0.0 0.0 l 0.0758667 6.0234833 l -0.32751465 125.64464 l 0.0 0.0 l -2.02417 175.24887 l -2.933899 66.048004 l 4.121216 116.08771 l 0.07977295 1.91156 l -232.25629 1.4437866 l 0.0 0.0 l 0.121398926 -27.230408 l 1.6056213 -144.80453 l 0.0 0.0 l 8.862274 -76.70819 l -10.631165 -66.07788 l 9.1552734e-05 0.013641357 l -2.946991 -68.82776 l 2.3485413 -118.28163 l 0.057434082 -1.8345947 l -103.88922 28.15416 l -35.200012 -59.09999 l -35.19998 -59.1 l -35.200012 -59.1 l -26.399994 0.0 l -26.40001 0.0 l -26.399994 0.0 l -26.40001 0.0 l -26.399994 0.0 l -26.399994 0.0 l -26.40001 0.0 l -26.399994 0.0 l -26.400002 0.0 l -26.400002 0.0 " /> </g> </svg>