<?xml version="1.0" standalone="no"?><!DOCTYPE svg PUBLIC "-//W3C//DTD SVG 1.1//EN" "http://www.w3.org/Graphics/SVG/1.1/DTD/svg11.dtd" ><svg xmlns="http://www.w3.org/2000/svg" xmlns:xlink="http://www.w3.org/1999/xlink" version="1.1" viewBox="-10 0 692 1000"><g transform="matrix(1 0 0 -1 0 800)"><path stroke="black" fill="none" d="M 446.60025 754.69977 l -50.39975 87.701355 l -50.399902 87.69971 l -50.39987 87.69983 l -50.399857 87.69971 l -50.40056 87.70093 l -50.399887 87.69995 l -50.39987 87.69971 l -50.39987 87.69971 l -50.358116 87.69983 l 26.739058 0.0 l 26.81609 0.0 l 53.597923 0.0 l -26.79345 0.0 l 53.597336 0.0 l 26.799995 0.0 l 26.799988 0.0 l 26.799988 0.0 l 26.800003 0.0 l 26.799988 0.0 l 35.299866 -61.699097 l 35.30121 -61.700684 l 35.299896 -61.699707 l 35.303833 -61.708984 l 35.293518 -61.6886 l 35.302856 -61.70288 l 35.299927 -61.69983 l 35.299866 -61.69995 l 70.60272 -123.39166 l 35.36383 61.6911 l -70.65747 0.0 l 106.08966 61.70056 l 35.399902 61.69995 l 35.399963 61.69983 l 35.399963 61.69983 l 35.40039 61.700684 l 35.399902 61.69995 l 35.399902 61.699707 l 35.399963 61.69983 l 35.40039 61.69995 l 26.799988 0.0 l 26.799988 0.0 l 26.799988 0.0 l 26.799927 0.0 l 26.800049 0.0 l 26.799927 0.0 l 26.800049 0.0 l 53.59607 0.0 l -26.793457 0.0 l 53.597046 0.0 l -50.599854 -87.69983 l -50.600098 -87.69971 l -50.599854 -87.69971 l -50.600586 -87.70105 l -50.599854 -87.69983 l -50.599915 -87.69971 l -50.599915 -87.69983 l -50.599854 -87.69971 l -50.599915 -87.69983 l -213.73889 -754.70074 l -23.246399 -3.9815495e-07 l -23.351562 2.8222712e-07 l -23.241974 -4.3514228e-07 l -0.02053833 66.6964 l 139.8078 -66.6964 l 23.70819 -6.724076e-08 l 22.735962 -2.0118023e-09 l -93.01587 5.349284e-08 l 23.196777 9.7239536e-08 l 116.56561 66.688416 l -0.0625 -66.6884 l -23.130127 2.544697e-06 l 23.193665 133.40498 l 0.0 66.68878 l -6.1035156e-05 133.3758 l 0.0 -66.65933 l -6.1035156e-05 133.49136 l 0.0 66.5661 l -0.0008544922 66.73224 l 0.00079345703 66.70911 l 0.0 66.68768 l -232.99988 0.0032348633 l 0.0 0.0 l 0.0 0.0 l 0.0 0.0 l 3.0517578e-05 -66.69531 l 9.1552734e-05 -66.73541 l -3.0517578e-05 -66.6597 l 0.0018920898 -66.70883 l -0.0019836426 -66.69989 l -0.0005493164 -66.70038 l 0.0004272461 -66.70953 l 3.0517578e-05 -66.68761 " /> </g> </svg>