<?xml version="1.0" standalone="no"?><!DOCTYPE svg PUBLIC "-//W3C//DTD SVG 1.1//EN" "http://www.w3.org/Graphics/SVG/1.1/DTD/svg11.dtd" ><svg xmlns="http://www.w3.org/2000/svg" xmlns:xlink="http://www.w3.org/1999/xlink" version="1.1" viewBox="-10 0 692 1000"><g transform="matrix(1 0 0 -1 0 800)"><path stroke="black" fill="none" d="M 446.71558 754.59937 l -50.284607 88.3255 l -50.34189 87.596924 l -50.341858 87.596985 l -50.341858 87.596985 l -50.654648 88.13928 l -50.341873 87.597046 l -50.34185 87.596924 l -50.34186 87.596924 l -30.967854 87.597046 l 0.80304337 0.0 l 31.98882 0.0 l -0.04007721 0.0 l 52.678627 0.0 l -23.76123 0.0 l 52.360703 0.0 l 26.797798 0.0 l 26.797775 0.0 l 26.797806 0.0 l 26.79779 0.0 l 26.79779 0.0 l 35.23526 -61.24597 l 35.86444 -62.015747 l 35.257294 -61.630737 l 37.066315 -65.78369 l 32.298553 -56.46826 l 36.624207 -63.025513 l 35.257294 -61.630737 l 35.257294 -61.63086 l 71.83447 -119.53839 l 18.63971 57.55426 l -50.95233 0.019592285 l 101.28284 61.96454 l 35.367554 61.63086 l 35.367676 61.630737 l 35.367615 61.63086 l 35.595703 62.015747 l 35.367676 61.63086 l 35.367615 61.630737 l 35.367615 61.63086 l 35.564148 61.63086 l 26.799255 0.0 l 26.799255 0.0 l 26.799255 0.0 l 26.799194 0.0 l 26.799316 0.0 l 26.799194 0.0 l 26.799316 0.0 l 51.77234 0.0 l -23.784912 0.0 l 52.21399 0.0 l -50.555176 -87.597046 l -50.555176 -87.596924 l -50.555054 -87.596924 l -50.88257 -88.139404 l -50.555115 -87.596924 l -50.555176 -87.596985 l -50.555054 -87.596985 l -50.555115 -87.596924 l -50.555115 -87.596985 l -231.75854 -755.0841 l -0.7462158 -0.00010368519 l -44.89023 4.990294e-05 l -0.47720337 -5.068176e-05 l -5.43396 65.03217 l 0.025939941 -0.17116547 l 133.02887 -64.8616 l 0.3043213 -2.3706962e-06 l -36.703613 3.7505582e-05 l 0.016845703 4.1504973e-07 l 135.63257 61.325356 l -0.0020141602 -0.024391174 l -35.416504 -61.277596 l 0.0 0.0 l 35.889893 135.70065 l 0.0040283203 0.32414246 l 0.0024414062 61.170395 l -0.03289795 122.1864 l -0.00036621094 -47.847137 l -0.020751953 175.79703 l 0.004272461 4.5703125 l -0.40368652 81.66217 l 0.35357666 70.93683 l 0.009033203 60.974243 l -232.94406 1.397644 l 0.0 0.0 l 0.0 -0.0016479492 l 0.0006713867 -0.12731934 l 0.015411377 -64.29108 l 0.03781128 -83.12018 l -0.009124756 -48.031006 l 0.8692932 -70.785736 l -0.9119873 -66.64664 l -0.25280762 -66.88135 l 0.20147705 -71.125 l 0.00680542 -60.947296 " /> </g> </svg>