<?xml version="1.0" standalone="no"?><!DOCTYPE svg PUBLIC "-//W3C//DTD SVG 1.1//EN" "http://www.w3.org/Graphics/SVG/1.1/DTD/svg11.dtd" ><svg xmlns="http://www.w3.org/2000/svg" xmlns:xlink="http://www.w3.org/1999/xlink" version="1.1" viewBox="-10 0 692 1000"><g transform="matrix(1 0 0 -1 0 800)"><path stroke="black" fill="none" d="M 446.6029 754.6975 l -50.397095 87.7157 l -50.39856 87.69739 l -50.39853 87.69739 l -50.398544 87.69739 l -50.406403 87.71106 l -50.39856 87.69751 l -50.39853 87.697266 l -50.398537 87.69739 l -49.911747 87.69751 l 26.089603 0.0 l 26.987566 0.0 l 53.57584 0.0 l -26.723648 0.0 l 53.568863 0.0 l 26.799942 0.0 l 26.799942 0.0 l 26.799942 0.0 l 26.799957 0.0 l 26.799911 0.0 l 35.2984 -61.68872 l 35.31418 -61.707886 l 35.29892 -61.69812 l 35.34439 -61.802734 l 35.22458 -61.56848 l 35.333282 -61.7334 l 35.29892 -61.69812 l 35.29889 -61.698364 l 70.6311 -123.30298 l 34.97882 61.595825 l -70.20386 0.00048828125 l 105.979004 61.706665 l 35.39917 61.698364 l 35.39923 61.69812 l 35.39917 61.698364 l 35.404907 61.707886 l 35.39917 61.698364 l 35.39917 61.69812 l 35.39923 61.698242 l 35.404114 61.698364 l 26.799988 0.0 l 26.799988 0.0 l 26.799988 0.0 l 26.799927 0.0 l 26.800049 0.0 l 26.799927 0.0 l 26.800049 0.0 l 53.553955 0.0 l -26.724121 0.0 l 53.565186 0.0 l -50.598877 -87.69751 l -50.599 -87.69739 l -50.598755 -87.697266 l -50.607178 -87.71118 l -50.598816 -87.69739 l -50.598877 -87.69739 l -50.598877 -87.69739 l -50.598816 -87.69739 l -50.598938 -87.69745 l -214.15369 -754.7096 l -22.674316 -4.6412315e-06 l -23.90149 3.2898788e-06 l -22.623535 -5.0723866e-06 l -0.23956299 66.65809 l 139.89093 -66.658104 l 28.05841 -7.838389e-07 l 16.72461 -2.3457687e-08 l -91.05316 6.2357503e-07 l 22.096558 1.1335105e-06 l 117.2652 66.56496 l -0.729126 -66.56479 l -0.33996582 7.545727e-05 l -20.979614 -4.579415e-05 l 22.060547 133.45819 l 0.00018310547 66.5692 l -0.0008544922 133.11823 l 0.0 -66.22629 l -0.0005493164 134.46527 l 0.00012207031 65.138916 l -0.010131836 67.07593 l 0.008850098 66.80646 l 0.00024414062 66.55615 l -232.9986 0.03765869 l 0.0 0.0 l 0.0 0.0 l 0.0 0.0 l 0.0004272461 -66.64526 l 0.0009460449 -67.11261 l -0.00024414062 -66.230865 l 0.021850586 -66.80267 l -0.022918701 -66.69867 l -0.0063476562 -66.70453 l 0.005065918 -66.81119 l 0.00015258789 -66.55545 " /> </g> </svg>