<?xml version="1.0" standalone="no"?><!DOCTYPE svg PUBLIC "-//W3C//DTD SVG 1.1//EN" "http://www.w3.org/Graphics/SVG/1.1/DTD/svg11.dtd" ><svg xmlns="http://www.w3.org/2000/svg" xmlns:xlink="http://www.w3.org/1999/xlink" version="1.1" viewBox="-10 0 692 1000"><g transform="matrix(1 0 0 -1 0 800)"><path stroke="black" fill="none" d="M 448.0002 662.5 l 75.77664 132.4917 l -330.7857 573.5183 l 0.0 -21.248047 l 0.0 -22.182617 l 0.0 87.39783 l 0.0 -21.695557 l 0.0 65.474976 l 0.0 -21.63916 l 0.0 43.660034 l 0.0 22.334595 l 1.5258789e-05 20.982056 l 0.0 22.327393 l 101.66177 0.07763672 l 101.901764 0.0 l 101.49283 0.0 l -241.5539 -218.99939 l 63.263794 -0.00012207031 l 63.783875 -0.00048828125 l 62.957855 0.0 l 63.42517 -0.00012207031 l 89.669495 -397.49994 l 75.79907 132.49823 l 75.79907 132.49841 l -114.50098 132.5033 l -63.25891 0.0 l 127.109314 0.00024414062 l 62.957825 -0.00012207031 l 63.427612 0.00048828125 l 76.239746 218.99817 l -99.39563 0.00036621094 l -203.81165 0.0009765625 l 101.49396 0.0 l 305.13568 0.0 l 101.70093 0.0 l 101.70117 0.0 l -461.2082 -1324.9991 l 73.578 -0.0001373291 l 74.29669 -0.00077819824 l 75.33502 1.5258789e-05 l 72.37396 0.0 l 74.95654 -0.013198853 l 73.66809 -39.04808 l 0.0 15.877869 l 0.0 22.128784 l 0.0 -85.14383 l 0.0 20.008072 l 0.0 -110.61629 l 0.0 -24.88684 l 0.0 -15.7048435 l 0.0 90.56154 l 0.0 15.581009 l 0.0 -41.153717 l -112.16089 -66.50134 l -113.21942 -0.089131206 l -111.63629 -1.4415491e-10 l -112.59454 4.512458e-09 l -112.38776 0.0 l -112.385315 1.1920747e-08 l -224.63312 -1.6285412e-08 l 112.17334 -1.4824764e-10 l -225.332 0.015106387 l -111.63073 -0.0034287963 l 75.5922 132.42221 l 529.4563 86.565796 l -73.94928 -4.5776367e-05 l -147.89908 0.0012664795 l 73.580414 -0.00015258789 l -229.9476 177.83826 l -75.293625 -131.61273 l 151.49046 264.77438 " /> </g> </svg>