<?xml version="1.0" standalone="no"?><!DOCTYPE svg PUBLIC "-//W3C//DTD SVG 1.1//EN" "http://www.w3.org/Graphics/SVG/1.1/DTD/svg11.dtd" ><svg xmlns="http://www.w3.org/2000/svg" xmlns:xlink="http://www.w3.org/1999/xlink" version="1.1" viewBox="-10 0 692 1000"><g transform="matrix(1 0 0 -1 0 800)"><path stroke="black" fill="none" d="M 449.2312 662.6131 l 64.973694 128.65674 l -120.977234 50.85724 l -50.400024 87.69995 l -50.399994 87.70001 l -50.399994 87.70001 l -50.40001 87.69995 l -1.6000824 151.57605 l 0.0 0.0 l -0.0005340576 51.186523 l 0.0 0.0 l -99.19939 -27.362549 l -50.4 87.69995 l -50.4 87.70007 l 26.8 0.0 l 26.8 0.0 l 26.799995 0.0 l 26.800003 0.0 l 26.800003 0.0 l 26.800003 0.0 l 39.194748 -89.24902 l 0.0 0.0 l 0.0027923584 13.442505 l 0.108428955 65.40674 l 0.0 0.0 l 83.87399 10.39978 l 195.30319 0.0 l 5.600464 0.0 l -181.58362 -61.700073 l 35.299988 -61.69995 l -27.660706 -95.31555 l 1.9642334 -0.034179688 l 148.53513 -0.2709961 l 0.0 0.0 l 24.559235 -0.03930664 l -41.497894 -89.43994 l 35.30002 -61.700073 l 35.299988 -61.69995 l 35.299988 -61.700073 l 35.299988 -61.69995 l 22.135376 -61.24286 l 48.564636 61.24286 l 26.806458 70.47644 l 43.99353 52.923584 l 31.377502 78.79578 l 39.422546 44.604248 l -200.6643 89.434326 l -1.4827881 0.0056152344 l 182.70337 0.14880371 l 0.0 0.0 l 25.605835 0.16137695 l 100.03784 95.34985 l -61.836487 118.107056 l -157.55792 5.2929688 l 6.107727 0.0 l 321.67444 0.0 l 16.012268 0.0 l 26.800049 0.0 l 26.799927 0.0 l 32.55957 0.0 l 21.040405 0.0 l 26.800049 0.0 l 26.800049 0.0 l 27.531372 0.0 l 26.068604 0.0 l -50.599976 -87.70007 l -50.600098 -87.69995 l -50.599976 -87.69995 l -50.599976 -87.70007 l -50.599976 -87.69995 l -50.600037 -87.70001 l -50.599976 -87.70001 l -50.599976 -87.69995 l -50.600037 -87.70001 l -50.599976 -87.70001 l 0.0 -66.70001 l 0.0 -66.70001 l 0.0 -66.69995 l 0.0 -66.70001 l 0.0 -66.70001 l 65.839355 -113.298965 l 0.0 0.0 l 131.57037 -1.2043457 l 0.0 0.0 l 81.786865 0.0021972656 l -279.1966 -85.59886 l 0.0 -66.7 l 462.8871 15.541145 l 0.0 0.0 l -23.165894 -75.99215 l 0.0 0.0 l -294.38873 -6.249019 l 0.0 0.0 l -137.07965 1.6198014e-06 l -78.15283 2.4412137e-05 l -28.602417 -2.4412137e-05 l -17.997559 2.4412137e-05 l -23.299988 0.0 l -23.299988 0.0 l -40.977722 -1.8881788e-05 l -147.37259 -7.5552834e-06 l 7.245331 -6.870869e-08 l -281.67432 18.42907 l 0.0 0.0 l 33.953995 83.40607 l 358.9253 -35.13511 l 0.0 66.7 l 150.34222 85.46089 l 0.0 0.0 l -4.251953 -0.022338867 l -137.56299 1.3624573 l 0.0 0.0 l -8.527283 113.298965 l -249.15839 -29.62381 l 0.0 0.0 l 249.15839 163.02383 l -114.09387 63.408813 l 114.09387 69.99115 l 0.0 66.70001 " /> </g> </svg>