<?xml version="1.0" standalone="no"?><!DOCTYPE svg PUBLIC "-//W3C//DTD SVG 1.1//EN" "http://www.w3.org/Graphics/SVG/1.1/DTD/svg11.dtd" ><svg xmlns="http://www.w3.org/2000/svg" xmlns:xlink="http://www.w3.org/1999/xlink" version="1.1" viewBox="-10 0 692 1000"><g transform="matrix(1 0 0 -1 0 800)"><path stroke="black" fill="none" d="M 448.0002 662.5 l 75.798004 132.49927 l -330.79877 573.77594 l 0.0 -21.844116 l 0.0 -21.924316 l 0.0 87.58264 l 0.0 -21.882446 l 0.0 65.680786 l 0.0 -21.877686 l 0.0 43.788086 l 0.0 21.937134 l 0.0 21.82129 l 0.0 21.936768 l 101.69673 0.006591797 l 101.717285 0.0 l 101.68222 0.0 l -241.68744 -219.0 l 63.388306 0.0 l 63.432922 0.0 l 63.36206 0.0 l 63.40219 0.0 l 89.60596 -397.5 l 75.79993 132.49988 l 75.79993 132.49988 l -114.40869 132.50024 l -63.38788 0.0 l 126.82654 0.0 l 63.36206 0.0 l 63.402344 0.0 l 77.75757 218.99988 l -101.50232 0.0 l -203.4353 0.00012207031 l 101.68237 0.0 l 305.10303 0.0 l 101.70001 0.0 l 101.700195 0.0 l -461.5664 -1324.9999 l 74.05524 -1.5258789e-05 l 74.11682 -6.1035156e-05 l 74.20599 0.0 l 73.95203 0.0 l 74.17334 -0.0011291504 l 74.06299 -43.39235 l 0.0 21.383392 l 0.0 21.919617 l 0.0 -87.3893 l 0.0 21.737701 l 0.0 -109.595764 l 0.0 -22.15623 l 0.0 -21.36854 l 0.0 87.85406 l 0.0 21.35791 l 0.0 -43.572975 l -112.37952 -65.768745 l -112.47034 -0.0076462496 l -112.33441 -1.22781785e-11 l -112.41675 3.8699e-10 l -112.398926 0.0 l -112.39874 1.0227268e-09 l -224.78568 -1.3969839e-09 l 112.380554 -1.2732926e-11 l -224.84564 0.0012959233 l -112.334 -0.00029414403 l 75.78218 132.49332 l 529.4962 86.505646 l -74.087036 0.0 l -148.1742 0.00010681152 l 74.05542 -1.5258789e-05 l -229.72128 178.44324 l -75.75653 -132.42389 l 151.5906 264.98065 " /> </g> </svg>