<?xml version="1.0" standalone="no"?><!DOCTYPE svg PUBLIC "-//W3C//DTD SVG 1.1//EN" "http://www.w3.org/Graphics/SVG/1.1/DTD/svg11.dtd" ><svg xmlns="http://www.w3.org/2000/svg" xmlns:xlink="http://www.w3.org/1999/xlink" version="1.1" viewBox="-10 0 692 1000"><g transform="matrix(1 0 0 -1 0 800)"><path stroke="black" fill="none" d="M 448.0002 662.5 l 75.79312 132.49756 l -330.79578 573.7175 l 0.0 -21.709106 l 0.0 -21.982788 l 0.0 87.54077 l 0.0 -21.840088 l 0.0 65.634155 l 0.0 -21.823608 l 0.0 43.759033 l 0.0 22.027222 l 0.0 21.631104 l 0.0 22.025269 l 101.6888 0.022705078 l 101.759094 0.0 l 101.63931 0.0 l -241.65717 -218.99988 l 63.360077 0.0 l 63.51245 -0.00012207031 l 63.270477 0.0 l 63.40741 0.0 l 89.62033 -397.5 l 75.79974 132.49951 l 75.79974 132.49951 l -114.42963 132.50098 l -63.358643 0.0 l 126.890625 0.0 l 63.270447 0.0 l 63.40808 0.00012207031 l 77.4137 218.99951 l -101.025085 0.00012207031 l -203.52051 0.00024414062 l 101.63965 0.0 l 305.1104 0.0 l 101.70026 0.0 l 101.70044 0.0 l -461.4853 -1324.9998 l 73.94714 -3.0517578e-05 l 74.15759 -0.00022888184 l 74.46173 0.0 l 73.59448 0.0 l 74.35083 -0.0038604736 l 73.97351 -42.408203 l 0.0 20.13617 l 0.0 21.966995 l 0.0 -86.8806 l 0.0 21.345871 l 0.0 -109.82695 l 0.0 -22.774826 l 0.0 -20.085482 l 0.0 88.467415 l 0.0 20.049202 l 0.0 -43.024918 l -112.329956 -65.93471 l -112.640076 -0.026105925 l -112.17627 -4.2291504e-11 l -112.45697 1.3214958e-09 l -112.39642 0.0 l -112.39569 3.4915502e-09 l -224.75113 -4.769845e-09 l 112.33362 -4.3201e-11 l -224.95584 0.004424559 l -112.174675 -0.0010042712 l 75.73914 132.47722 l 529.48724 86.51927 l -74.05585 -1.5258789e-05 l -148.11188 0.00038146973 l 73.947815 -4.5776367e-05 l -229.77255 178.30617 l -75.65167 -132.24011 l 151.5679 264.9339 " /> </g> </svg>