<?xml version="1.0" standalone="no"?><!DOCTYPE svg PUBLIC "-//W3C//DTD SVG 1.1//EN" "http://www.w3.org/Graphics/SVG/1.1/DTD/svg11.dtd" ><svg xmlns="http://www.w3.org/2000/svg" xmlns:xlink="http://www.w3.org/1999/xlink" version="1.1" viewBox="-10 0 692 1000"><g transform="matrix(1 0 0 -1 0 800)"><path stroke="black" fill="none" d="M 448.00906 662.50085 l 75.72034 132.47168 l -330.75128 572.8383 l 0.0 -1.2258301 l 0.0 -18.448486 l 0.0 -22.864746 l 0.0 86.90979 l 0.0 -21.201904 l -1.5258789e-05 64.9314 l 1.5258789e-05 -21.009277 l -1.5258789e-05 43.3219 l 3.0517578e-05 23.384277 l 4.5776367e-05 3.4466553 l -3.0517578e-05 15.319336 l 4.5776367e-05 23.358887 l 101.56952 0.26513672 l 102.388824 0.0 l 100.99271 0.0 l -241.20126 -218.99792 l 62.934998 -0.00024414062 l 64.71069 -0.001953125 l 61.89041 0.00012207031 l 63.4859 -0.00048828125 l 89.83722 -397.49982 l 75.796875 132.4942 l 75.796814 132.49426 l -114.74469 132.51135 l -62.918335 0.00012207031 l 127.85602 0.00061035156 l 61.89044 -0.00012207031 l 63.4942 0.0017089844 l 72.23169 218.99341 l -93.83252 0.0013427734 l -204.80548 0.0034179688 l 100.99646 0.0 l 305.222 0.0 l 101.70337 0.0 l 101.70361 0.0 l -460.26233 -1324.997 l 72.31799 -0.00047302246 l 74.771545 -0.0026245117 l 78.31653 3.0517578e-05 l 68.206726 0.0 l 97.96533 -0.6808777 l -20.940796 0.63583374 l 72.62549 -27.575958 l 0.0 1.4203339 l 0.0 22.59996 l 0.0 -79.214096 l 0.0 15.440506 l 0.0 -113.31121 l 0.0 -32.097713 l 0.0 -1.0424328 l 0.0 98.005325 l 0.0 0.86585236 l 0.0 -35.305267 l -111.58374 -68.43594 l -115.19745 -0.30431294 l -109.79254 -4.9294613e-10 l -113.06421 1.540684e-08 l -112.3584 0.0 l -112.34979 4.0699433e-08 l -224.23016 -5.5601504e-08 l 111.6261 -5.0567905e-10 l -226.6163 0.051576436 l -109.77354 -0.01170665 l 75.09052 132.23445 l 529.3507 86.724655 l -73.58557 -0.00016784668 l -147.17245 0.0043182373 l 72.32602 -0.0005340576 l -230.54532 176.24066 l -74.071106 -129.4707 l 151.22601 264.2297 " /> </g> </svg>