<?xml version="1.0" standalone="no"?><!DOCTYPE svg PUBLIC "-//W3C//DTD SVG 1.1//EN" "http://www.w3.org/Graphics/SVG/1.1/DTD/svg11.dtd" ><svg xmlns="http://www.w3.org/2000/svg" xmlns:xlink="http://www.w3.org/1999/xlink" version="1.1" viewBox="-10 0 692 1000"><g transform="matrix(1 0 0 -1 0 800)"><path stroke="black" fill="none" d="M 448.03094 662.50287 l 75.527985 132.40344 l -330.6336 570.5164 l 0.0 -0.21325684 l 0.0 -14.087769 l 0.0 -25.193848 l 0.0 85.24353 l 0.0 -19.51648 l -3.0517578e-05 63.075684 l 1.5258789e-05 -18.858887 l -4.5776367e-05 42.167603 l 0.00010681152 26.967896 l 1.5258789e-05 0.64611816 l 6.1035156e-05 10.553711 l 0.00012207031 26.880737 l 101.2545 0.9053955 l 104.05191 0.0 l 99.285095 0.0 l -239.99725 -218.9928 l 61.812378 -0.0010986328 l 67.875 -0.0063476562 l 58.246002 0.00012207031 l 63.693176 -0.0013427734 l 90.40994 -397.49963 l 75.78931 132.48035 l 75.789185 132.48047 l -115.576965 132.5387 l -61.755432 0.00024414062 l 130.40552 0.0021972656 l 58.246155 -0.00024414062 l 63.721558 0.0057373047 l 58.54718 218.9773 l -74.838745 0.0048828125 l -208.19873 0.011474609 l 99.29797 0.0 l 305.51654 0.0 l 101.71185 0.0 l 101.711914 0.0 l -457.03302 -1324.9895 l 68.01593 -0.0016021729 l 76.39288 -0.008956909 l 88.496155 9.1552734e-05 l 53.97888 0.0 l 101.46619 -0.6808777 l -17.381104 0.52708435 l 69.065796 -19.176376 l 0.0 0.0 l 0.0 7.03656 l 0.0 -58.96869 l 0.0 0.8639221 l -0.00012207031 -123.530334 l 0.00012207031 -17.526766 l 0.0 0.0 l 0.0 91.1679 l 0.0 0.0 l 0.0 -22.632347 l -109.61304 -75.041084 l 0.7116699 0.26534295 l -122.66266 -1.3043323 l -103.49774 -1.68302e-09 l -114.6676 5.260199e-08 l -112.25812 0.0 l -112.22858 1.3895715e-07 l -222.85449 -1.898361e-07 l 109.75781 -1.7266757e-09 l -231.00124 0.17609295 l -103.43267 -0.039968997 l 73.37765 131.59338 l 528.99036 87.267 l -72.34369 -0.0005645752 l -144.69177 0.014724731 l 68.043274 -0.0018005371 l -232.586 170.78612 l -69.89728 -122.15729 l 150.32312 262.37006 " /> </g> </svg>