<?xml version="1.0" standalone="no"?><!DOCTYPE svg PUBLIC "-//W3C//DTD SVG 1.1//EN" "http://www.w3.org/Graphics/SVG/1.1/DTD/svg11.dtd" ><svg xmlns="http://www.w3.org/2000/svg" xmlns:xlink="http://www.w3.org/1999/xlink" version="1.1" viewBox="-10 0 692 1000"><g transform="matrix(1 0 0 -1 0 800)"><path stroke="black" fill="none" d="M 448.0002 662.5 l 75.79941 132.49982 l -330.79962 573.793 l 0.0 -21.883667 l 0.0 -21.907227 l 0.0 87.59497 l 0.0 -21.894897 l 0.0 65.69446 l 0.0 -21.893555 l 0.0 43.79663 l 0.0 21.910767 l 0.0 21.876953 l 0.0 21.910767 l 101.69905 0.001953125 l 101.70505 0.0 l 101.69479 0.0 l -241.69632 -219.0 l 63.396576 0.0 l 63.409637 0.0 l 63.388885 0.0 l 63.400665 0.0 l 89.601715 -397.5 l 75.80005 132.5 l 75.79993 132.49988 l -114.40253 132.50012 l -63.396423 0.0 l 126.80774 0.0 l 63.388855 0.0 l 63.400696 0.0 l 77.85828 219.0 l -101.64209 0.0 l -203.41034 0.0 l 101.694824 0.0 l 305.1009 0.0 l 101.70001 0.0 l 101.70007 0.0 l -461.59015 -1325.0 l 74.08685 0.0 l 74.10492 -1.5258789e-05 l 74.1311 0.0 l 74.0567 0.0 l 74.12146 -0.00033569336 l 74.08911 -43.680603 l 0.0 21.748703 l 0.0 21.905731 l 0.0 -87.538284 l 0.0 21.852463 l 0.0 -109.528046 l 0.0 -21.975046 l 0.0 -21.744339 l 0.0 87.674416 l 0.0 21.741219 l 0.0 -43.733498 l -112.39404 -65.72014 l -112.42059 -0.0022395346 l -112.38074 -3.637979e-12 l -112.40497 1.1368684e-10 l -112.39966 0.0 l -112.39966 2.9922376e-10 l -224.79578 -4.0881787e-10 l 112.39432 -4.092726e-12 l -224.81339 0.00037956715 l -112.38067 -8.615281e-05 l 75.79478 132.49805 l 529.4989 86.50165 l -74.09619 0.0 l -148.19244 3.0517578e-05 l 74.086914 0.0 l -229.70624 178.48338 l -75.78726 -132.47772 l 151.59726 264.99432 " /> </g> </svg>