<?xml version="1.0" standalone="no"?><!DOCTYPE svg PUBLIC "-//W3C//DTD SVG 1.1//EN" "http://www.w3.org/Graphics/SVG/1.1/DTD/svg11.dtd" ><svg xmlns="http://www.w3.org/2000/svg" xmlns:xlink="http://www.w3.org/1999/xlink" version="1.1" viewBox="-10 0 692 1000"><g transform="matrix(1 0 0 -1 0 800)"><path stroke="black" fill="none" d="M 448.3606 662.53314 l 72.62903 131.37433 l -328.86023 545.00183 l 0.0 0.0 l 0.0 -3.116333 l -6.1035156e-05 60.154663 l 0.0 -0.3458252 l -0.00039672852 45.153564 l 0.0 -0.06298828 l -0.0002593994 34.567505 l 0.006134033 46.961914 l 0.0 0.0 l -0.002609253 11.144531 l 96.507126 10.553711 l 129.11572 0.0 l 73.549774 0.0 l -221.8515 -218.91675 l 44.89328 -0.012573242 l 115.56476 -0.07299805 l 3.3823853 0.00048828125 l 66.75534 -0.01574707 l 99.042114 -397.495 l 75.67444 132.27136 l 75.67432 132.27136 l -128.11963 132.95056 l -44.230225 0.0029296875 l 168.8291 0.026000977 l 3.3846436 -0.001953125 l 67.08624 0.06555176 l 8.76123 218.47266 l 0.0 0.0 l -204.37463 0.45410156 l 73.700134 0.0 l 309.95605 0.0 l 101.838135 0.0 l 101.83826 0.0 l -408.3636 -1324.8779 l 3.2649536 -0.018615723 l 100.74274 -0.104385376 l 0.03314209 0.0 l 120.742065 0.00088500977 l 0.0 0.0 l 114.201416 -6.0930634 l 0.0 0.0 l 52.399292 -90.85106 l 0.0 0.0 l -0.05871582 -69.640724 l 0.0 0.0 l -79.85425 -40.30371 l 0.0 0.0 l -223.73401 -12.111345 l -8.627808 -1.962053e-08 l -138.8327 6.1317405e-07 l -110.74664 0.0 l -110.40112 1.6198014e-06 l -202.12201 -2.2128916e-06 l 81.600586 -2.0124844e-08 l -297.08667 2.0526898 l -7.86924 -0.46591234 l 47.562904 121.93169 l 523.55914 95.440834 l -0.030883789 -0.00015258789 l -53.59619 -0.006439209 l -107.3053 0.17158508 l 3.5484314 -0.020889282 l -263.3921 88.58028 l -6.992996 -11.936523 l 136.71544 234.34329 " /> </g> </svg>