<?xml version="1.0" standalone="no"?><!DOCTYPE svg PUBLIC "-//W3C//DTD SVG 1.1//EN" "http://www.w3.org/Graphics/SVG/1.1/DTD/svg11.dtd" ><svg xmlns="http://www.w3.org/2000/svg" xmlns:xlink="http://www.w3.org/1999/xlink" version="1.1" viewBox="-10 0 692 1000"><g transform="matrix(1 0 0 -1 0 800)"><path stroke="black" fill="none" d="M 448.10562 662.5097 l 74.87128 132.17029 l -330.23187 567.0036 l 0.0 0.0 l 0.0 -0.36975098 l 0.0 -33.14624 l -1.5258789e-05 79.55481 l 0.0 -13.762329 l -0.00010681152 56.740112 l 7.6293945e-05 -11.51709 l -0.00016784668 38.22644 l 0.0006713867 29.198608 l 0.0 0.0 l 1.5258789e-05 0.036376953 l 0.00035095215 34.240967 l 100.17903 3.0910645 l 109.72989 0.0 l 93.45499 0.0 l -235.8865 -218.97559 l 57.979523 -0.0036621094 l 78.67868 -0.021484375 l 45.8031 0.00024414062 l 64.40091 -0.004638672 l 92.36551 -397.49854 l 75.763245 132.43298 l 75.76318 132.4331 l -118.418396 132.63196 l -57.78528 0.0008544922 l 139.11005 0.0075683594 l 45.803833 -0.00061035156 l 64.49774 0.01928711 l 11.825439 218.92273 l -9.989746 0.016601562 l -219.78418 0.03918457 l 93.49902 0.0 l 306.52228 0.0 l 101.74042 0.0 l 101.7406 0.0 l -446.00745 -1324.9642 l 53.32782 -0.005493164 l 81.92853 -0.030532837 l 0.40820312 -4.5776367e-05 l 122.84314 0.00032043457 l 5.4022217 0.0 l 113.41882 -0.6808624 l -5.227539 0.15579224 l 56.91211 -32.416687 l 0.0 0.0 l 0.0 -34.766693 l 0.0 0.0 l -0.0009765625 -137.11774 l 0.0 0.0 l 0.0008544922 61.01528 l 0.0 0.0 l -102.88464 -71.641754 l 0.04309082 0.01609993 l -145.05212 -3.5634308 l -82.0058 -5.7466423e-09 l -120.14197 1.7959474e-07 l -111.91577 0.0 l -111.814514 4.7442882e-07 l -218.15778 -6.4814094e-07 l 103.37906 -5.894435e-09 l -245.9723 0.60121894 l -81.78363 -0.13646269 l 67.52954 129.4046 l 527.76 89.11871 l -0.33605957 -0.0017242432 l -67.76758 -0.00021362305 l -136.2222 0.05026245 l 53.42105 -0.006149292 l -239.55334 152.16316 l -55.646896 -97.187775 l 147.24043 256.02084 " /> </g> </svg>