<?xml version="1.0" standalone="no"?><!DOCTYPE svg PUBLIC "-//W3C//DTD SVG 1.1//EN" "http://www.w3.org/Graphics/SVG/1.1/DTD/svg11.dtd" ><svg xmlns="http://www.w3.org/2000/svg" xmlns:xlink="http://www.w3.org/1999/xlink" version="1.1" viewBox="-10 0 692 1000"><g transform="matrix(1 0 0 -1 0 800)"><path stroke="black" fill="none" d="M 452.20355 662.88605 l 38.836853 119.37842 l -104.98862 59.203613 l -50.400024 87.69995 l -50.399994 87.70001 l -50.399994 87.70001 l -50.40001 87.69995 l -1.6308136 153.83911 l 0.0 0.0 l -99.16919 21.560913 l -50.4 87.69995 l -50.4 87.70007 l 26.8 0.0 l 26.8 0.0 l 26.799995 0.0 l 26.800003 0.0 l 26.800003 0.0 l 26.800003 0.0 l 39.108734 -61.23108 l 0.0 0.0 l 4.3089294 61.23108 l 36.98233 0.0 l 273.4349 0.0 l 0.0 0.0 l -211.3349 -61.700073 l 35.299988 -61.69995 l -20.890015 -92.69177 l 0.0 0.0 l 144.05914 -3.6066895 l 0.0 0.0 l -17.269135 -88.80151 l 35.30002 -61.700073 l 35.299988 -61.69995 l 35.299988 -61.700073 l 35.299988 -61.69995 l 25.117676 -61.346436 l 45.582336 61.346436 l 28.753235 68.48828 l 42.046753 54.911743 l 32.288757 74.92285 l 38.51129 48.477173 l -190.42078 88.80151 l 0.0 0.0 l 184.57556 3.6066895 l 0.0 0.0 l 112.045166 92.69177 l 35.400024 61.69995 l -191.0028 61.700073 l 0.0 0.0 l 261.5467 0.0 l 18.456116 0.0 l 26.800049 0.0 l 26.799927 0.0 l 31.25476 0.0 l 22.345215 0.0 l 26.800049 0.0 l 26.800049 0.0 l 27.3656 0.0 l 26.234375 0.0 l -50.599976 -87.70007 l -50.600098 -87.69995 l -50.599976 -87.69995 l -50.599976 -87.70007 l -50.599976 -87.69995 l -50.600037 -87.70001 l -50.599976 -87.70001 l -50.599976 -87.69995 l -50.600037 -87.70001 l -50.599976 -87.70001 l 0.0 -66.70001 l 0.0 -66.70001 l 0.0 -66.69995 l 0.0 -66.70001 l 0.0 -66.70001 l -39.385864 -100.499695 l 312.8272 -14.041046 l 0.0 0.0 l -273.44135 -85.559235 l 0.0 -66.7 l 462.94006 14.4023285 l 0.0 0.0 l -380.81042 -81.10234 l -86.30322 0.0 l -65.72644 1.8881788e-05 l -27.401184 -1.8881788e-05 l -19.198792 1.8881788e-05 l -23.299988 0.0 l -23.299988 0.0 l -23.300049 0.0 l -104.33295 -2.4412137e-05 l 0.0 0.0 l -232.22711 214.82495 l 0.0 0.0 l 289.96008 -148.12492 l 0.0 66.7 l 41.950195 83.97861 l 0.0 0.0 l -73.76999 15.621674 l 31.819794 100.499695 l -141.84564 64.7908 l 141.84564 68.60922 l -88.24695 64.15436 l 88.24695 69.245605 l 0.0 66.70001 " /> </g> </svg>