<?xml version="1.0" standalone="no"?><!DOCTYPE svg PUBLIC "-//W3C//DTD SVG 1.1//EN" "http://www.w3.org/Graphics/SVG/1.1/DTD/svg11.dtd" ><svg xmlns="http://www.w3.org/2000/svg" xmlns:xlink="http://www.w3.org/1999/xlink" version="1.1" viewBox="-10 0 692 1000"><g transform="matrix(1 0 0 -1 0 800)"><path stroke="black" fill="none" d="M 786.3886 976.00696 l 32.4646 -12.838135 l 62.730225 -35.0531 l -29.896057 18.53418 l 60.20996 -41.16626 l 28.725037 -25.712646 l 0.0 0.0 l 0.10784912 -0.1296997 l 22.023804 -26.47461 l 24.640503 -34.386658 l 19.092285 -31.870422 l 51.95575 -143.33374 l -8.376343 35.227234 l -12.883057 40.147522 l -13.062622 32.346436 l 41.565796 -151.12372 l 3.8481445 -40.58551 l 0.0 0.0 l 0.0 0.0 l 0.0 6.1035156e-05 l -5.201172 -86.07675 l 3.8463135 41.44522 l -19.583618 -122.145905 l 8.96936 38.39084 l -21.21289 -77.57013 l -14.102661 -35.372375 l -80.628845 -122.14949 l 20.85022 21.508926 l 0.0 0.0 l -0.0048217773 -0.004928589 l 23.837708 33.999237 l 17.97522 30.230057 l -182.92853 -170.12296 l 23.071594 11.433968 l 62.645325 41.767822 l -29.306519 -21.645325 l -131.65112 -58.170013 l 34.163086 9.928856 l -74.56116 -17.776566 l -0.85009766 -0.094078064 l -34.551575 -3.9133759 l 0.0 0.0 l -0.046875 0.0018920898 l -29.72052 1.1625824 l -67.11951 10.381851 l 31.047852 -6.3082047 l -64.75592 16.219086 l -4.0021973 1.5425797 l -22.957031 8.784355 l -54.465546 28.22506 l 20.661102 -11.991707 l -56.076477 35.12893 l -0.047943115 -0.0019989014 l -26.942596 -9.01796 l 0.0 0.0 l -3.0517578e-05 5.9373474 l 0.0 22.52121 l 0.0 0.13276672 l 0.0 -91.93236 l 0.0 -5.48217 l 0.0 26.480042 l 0.0 0.23540497 l 0.0 19.622276 l 0.0 0.14808655 l -88.4595 -48.5139 l 20.16455 3.0517578e-05 l 40.85678 -0.00017547607 l -15.078583 6.1035156e-05 l -70.41333 -0.00037384033 l -21.714508 0.000289917 l -68.28711 0.0009689331 l -21.69815 -0.00039672852 l 46.08943 -3.0517578e-05 l 20.072098 -0.00011444092 l -66.49654 168.9296 l -0.06777954 168.88219 l 0.045181274 168.88837 l 0.493042 168.68939 l -0.50335693 672.6984 l -0.00077819824 -165.05774 l 0.0013275146 -307.83624 l -0.0010986328 126.979065 l 94.828 686.82666 l -1.1089783 0.0 l -51.401764 0.0 l 0.0 0.0 l -32.685425 0.0 l 0.0 0.0 l 176.45795 -0.00048828125 l 0.0 0.0 l -40.486298 0.00036621094 l 0.0 0.0 l 50.50653 -69.80994 l 0.002532959 0.036621094 l -185.19759 -98.019165 l 184.34486 -8.063599 l 0.098968506 -60.454346 l 0.4355774 -587.2844 l 0.024780273 -0.3725586 l 0.5940552 -79.62286 l 0.0 0.0 l 0.09350586 0.094055176 l 24.334991 23.672302 l -25.18338 477.28912 l 0.0 75.81506 l 0.0 -168.69312 l 0.0 -76.034546 l 0.004699707 -167.05981 l 0.009857178 81.42322 l 83.68109 -176.27246 l -27.935883 -20.36676 l 94.87225 57.06549 l 21.745728 8.851135 l -58.266235 -26.77362 l 236.46613 42.47754 l 32.60437 -6.63501 l -110.33191 12.960571 l 0.0 0.0 l 0.05822754 -0.002319336 l 32.291504 -1.2330322 l -73.06903 -4.451599 l -22.646057 -4.889038 " /> </g> </svg>