<?xml version="1.0" standalone="no"?><!DOCTYPE svg PUBLIC "-//W3C//DTD SVG 1.1//EN" "http://www.w3.org/Graphics/SVG/1.1/DTD/svg11.dtd" ><svg xmlns="http://www.w3.org/2000/svg" xmlns:xlink="http://www.w3.org/1999/xlink" version="1.1" viewBox="-10 0 692 1000"><g transform="matrix(1 0 0 -1 0 800)"><path stroke="black" fill="none" d="M 786.2014 976.0794 l 33.457825 -13.229126 l 62.959473 -35.27954 l -30.817993 19.108826 l 60.319763 -41.160095 l 28.179504 -24.989502 l 0.0 0.0 l 0.0 0.0 l 0.0 0.0 l 24.885742 -29.914856 l 22.275146 -31.366516 l 19.648743 -32.798035 l 52.399048 -145.5951 l -9.168335 38.552795 l -11.792236 37.126526 l -14.4071045 35.67285 l 41.919067 -151.3595 l 3.9299316 -41.43817 l 0.0 0.0 l 0.0 0.0 l 0.0 0.0 l -5.279907 -86.878265 l 3.9598389 42.65738 l -19.79956 -123.297485 l 9.239502 39.537476 l -21.12024 -77.52008 l -14.519165 -36.417755 l -86.27777 -127.62816 l 26.87732 27.726883 l 0.0 0.0 l 0.0 0.0 l 0.0 0.0 l 22.442688 31.744553 l 19.796082 33.29338 l -190.4737 -174.53049 l 32.38983 16.050026 l 60.684204 40.881912 l -29.64917 -21.899445 l -132.39844 -58.399506 l 35.167786 10.219368 l -71.726074 -17.520554 l -37.923218 -4.3792496 l 0.0 0.0 l 0.0 0.0 l 0.0 0.0 l -33.43341 1.2997665 l -64.72522 10.399956 l 31.997986 -6.499588 l -63.283142 15.601341 l -30.552277 11.697037 l -58.950317 31.19358 l 29.101776 -16.889412 l -57.516907 36.397255 l -27.678497 -8.562866 l 0.0 -10.08313 l 0.0 20.335693 l 0.0 10.226822 l 0.0 10.170105 l 0.0 -91.79236 l 0.0 -10.189827 l 0.0 20.413116 l 0.0 10.17205 l 0.0 10.226929 l 0.0 10.170509 l -89.99667 -50.986977 l 22.494965 0.0 l 44.99106 0.0 l -22.484009 0.0 l -67.506256 0.0 l -22.498322 0.0 l -67.50169 0.0 l -22.498276 0.0 l 45.00235 0.0 l 22.494766 0.0 l -67.49783 168.90005 l -0.00015258789 168.89996 l 0.00010681152 168.89993 l 0.0010528564 168.8996 l -0.001083374 675.5937 l 0.0 -168.89172 l 0.0 -337.73535 l 0.0 168.8097 l 112.461914 675.624 l -22.452698 0.0 l -22.631302 0.0 l -22.344955 0.0 l -22.650894 0.0 l -22.339157 0.0 l 224.82593 0.0 l -22.759918 0.0 l -21.975616 0.0 l -22.751038 0.0 l -22.338165 0.0 l 60.616882 -76.335815 l -195.63745 -92.561646 l 195.63562 9.711548 l 0.00021362305 -82.75171 l 0.0009460449 -579.61664 l -0.00030517578 -82.79559 l 0.0 0.0 l 0.0 0.0 l 0.0 0.0 l 27.355286 26.59552 l -27.355286 470.21527 l 0.0 82.78491 l 0.0 -165.60657 l 0.0 -82.78552 l 0.0 -165.60315 l 3.0517578e-05 82.79712 l 84.2388 -176.99847 l -28.798126 -20.998657 l 88.57358 54.605347 l 30.940186 12.591919 l -61.193695 -27.997375 l 234.56412 43.11859 l 36.092407 -7.3484497 l -112.257324 13.229492 l 0.0 0.0 l 0.0 0.0 l 0.0 0.0 l 38.727783 -1.4696045 l -71.86267 -2.7336426 l -32.378967 -6.9954834 " /> </g> </svg>