<?xml version="1.0" standalone="no"?><!DOCTYPE svg PUBLIC "-//W3C//DTD SVG 1.1//EN" "http://www.w3.org/Graphics/SVG/1.1/DTD/svg11.dtd" ><svg xmlns="http://www.w3.org/2000/svg" xmlns:xlink="http://www.w3.org/1999/xlink" version="1.1" viewBox="-10 0 692 1000"><g transform="matrix(1 0 0 -1 0 800)"><path stroke="black" fill="none" d="M 811.8312 966.1615 l 0.0 0.0 l 44.63446 -21.480652 l 0.0 0.0 l 44.374756 28.934143 l 22.599976 0.0 l 24.337952 -108.76318 l 0.0 0.0 l 20.86206 108.76318 l 22.599976 0.0 l 22.600037 0.0 l 22.600037 0.0 l 22.599976 0.0 l 22.599976 0.0 l 0.0 -97.400024 l -74.572754 -95.43384 l 0.0 0.0 l 37.923218 -96.34735 l 0.0 0.0 l 20.803345 -122.26715 l 0.0 0.0 l -0.81726074 -58.615173 l 0.0 0.0 l -10.747681 -84.283936 l 0.0 0.0 l -43.649353 -119.90491 l 0.0 0.0 l -47.301025 -70.79309 l 0.0 0.0 l 118.36151 -131.55453 l 0.0 -97.4 l -22.599976 0.0 l -22.599976 0.0 l -22.600037 0.0 l -22.600037 0.0 l -22.599976 0.0 l -22.599976 0.0 l -22.600037 0.0 l -22.599976 0.0 l -22.600037 0.0 l -22.599976 0.0 l 0.0 10.2 l 0.0 10.2 l 0.0 10.199999 l 0.0 10.200001 l 0.0 10.200001 l 0.0 10.199997 l 0.0 10.200005 l 0.0 10.199997 l 0.00048828125 10.201347 l -4.6621704 34.537643 l -0.5900879 -0.16679382 l -62.34845 -30.014954 l 0.0 0.0 l 11.160217 -40.957245 l -28.849976 -19.5 l -28.973022 29.719543 l -122.874695 11.2612915 l 0.0 0.0 l 62.77771 -83.88084 l -30.53003 -9.1 l -30.950012 -6.5 l -31.369995 -3.8999996 l 0.0 0.0 l -39.700012 1.4599991 l -52.70453 136.28645 l 0.0 0.0 l -22.495453 -124.60645 l -81.05817 158.51218 l 0.0 0.0 l 11.458191 -135.15218 l -70.88574 65.28137 l 0.0 0.0 l 6.885742 -30.241371 l -74.22745 31.268532 l 0.0 0.0 l -87.016815 0.5658035 l 0.0 0.0 l 46.7406 0.10501099 l 31.213654 45.320656 l -22.270004 32.019997 l -19.649994 33.5 l -17.030014 34.979996 l -25.935837 26.694855 l -0.26416016 47.70514 l -9.169998 39.420013 l -6.550003 40.899994 l 6.7756042 38.455536 l -0.010696411 0.0039367676 l -9.384903 46.99054 l 3.930008 41.609985 l 6.549988 40.149994 l 5.0546417 38.569763 l 15.905365 37.35022 l 14.410004 35.77002 l 17.029999 34.309998 l 19.649994 32.850037 l -68.03052 467.0879 l 0.0 0.0 l 8.344299 -326.28046 l 139.6476 899.3649 l 0.0 0.0 l -2.6513672 -956.2224 l 29.5 21.900024 l 20.173004 526.71436 l 0.0 0.0 l 6.7190857 -372.2563 l 0.0 0.0 l 56.449524 -70.85474 l 0.0 0.0 l 47.858368 -25.203308 l 11.837341 61.383667 l 0.0 0.0 l 61.68268 -49.703674 l 0.0 0.0 l 33.649963 -1.4000244 l 32.950012 -4.200012 l -61.491516 88.609985 l 0.0 0.0 l 125.291504 -105.40997 l 30.850037 -12.599976 l 30.149963 -15.400024 l 29.450012 -18.200012 l 28.75 -21.0 l 28.049988 -23.799988 l 0.0 11.299988 l 0.0 11.300049 l 0.0 11.299988 l 0.0 11.299988 l 0.0 11.299988 l 0.0 11.299988 l 0.0 11.300049 l 0.0 11.299988 l 0.0 11.299988 l 0.0 11.299988 " /> </g> </svg>