<?xml version="1.0" standalone="no"?><!DOCTYPE svg PUBLIC "-//W3C//DTD SVG 1.1//EN" "http://www.w3.org/Graphics/SVG/1.1/DTD/svg11.dtd" ><svg xmlns="http://www.w3.org/2000/svg" xmlns:xlink="http://www.w3.org/1999/xlink" version="1.1" viewBox="-10 0 692 1000"><g transform="matrix(1 0 0 -1 0 800)"><path stroke="black" fill="none" d="M 793.7072 973.1749 l 0.6090698 -0.25683594 l 47.0495 -23.625732 l -0.5380249 0.30926514 l 46.24829 31.411804 l 22.599976 0.0 l -6.416931 -76.93854 l 0.0 0.0 l 31.434204 -33.227905 l 20.18274 110.16644 l 22.599976 0.0 l 22.600037 0.0 l 22.600037 0.0 l 22.599976 0.0 l 22.599976 0.0 l 0.0 -97.400024 l -83.02283 -83.06726 l 0.43963623 -0.75268555 l 44.934143 -107.79822 l 0.0 0.0 l -18.448242 51.393494 l 0.0 0.0 l 39.40979 -169.4679 l 0.44348145 -4.907593 l 0.0 0.0 l -1.9129639 -57.433228 l 0.06518555 0.83081055 l -11.817261 -83.88599 l 0.14892578 0.72628784 l -24.148682 -80.51697 l 0.0 0.0 l -0.2593994 -0.64501953 l -73.17694 -127.504776 l 38.800964 56.46321 l 0.0 0.0 l 88.54419 -172.63416 l 0.0 -97.4 l -22.599976 0.0 l -22.599976 0.0 l -22.600037 0.0 l -22.600037 0.0 l -22.599976 0.0 l -22.599976 0.0 l -22.600037 0.0 l -22.599976 0.0 l -22.600037 0.0 l -22.599976 0.0 l 0.0 10.2 l 0.0 10.2 l 0.0 10.199999 l 0.0 10.200001 l 0.0 10.200001 l 0.0 10.199997 l 0.0 10.200005 l -0.00012207031 10.200058 l -18.386719 36.448715 l 50.898926 35.648872 l -15.980591 -11.7643585 l -102.59497 -49.24681 l 0.7967529 0.25336456 l 28.826721 -37.739845 l -28.849976 -19.5 l -109.034546 37.640892 l 0.0 0.0 l -66.234375 6.278206 l 0.6776123 -0.15959167 l 85.5213 -86.65951 l -30.53003 -9.1 l -30.950012 -6.5 l -31.369995 -3.8999996 l 0.0 0.0 l -39.700012 1.4599991 l -43.581543 132.8509 l 0.0 0.0 l -13.276855 5.805664 l -18.341583 -126.97658 l -75.80884 172.42523 l 0.0 0.0 l -5.7168884 -49.848267 l 0.0 0.0 l 11.925751 -99.21697 l -72.518036 66.539894 l 0.0 0.0 l 20.073486 -0.08482361 l -11.55545 -31.41507 l -77.33356 31.48848 l -0.21179199 0.00074005127 l -89.565796 0.049453735 l -0.17752075 -0.00077056885 l 56.40207 0.008926392 l 0.0 0.0 l 27.596588 45.713173 l -22.270004 32.019997 l -19.649994 33.5 l -17.030014 34.979996 l -29.311676 23.834702 l 3.111679 50.565292 l -9.169998 39.420013 l -6.550003 40.899994 l 9.911194 37.30609 l -0.050872803 0.018676758 l -12.480316 48.125244 l 3.930008 41.609985 l 6.549988 40.149994 l 3.849289 38.534546 l 17.110718 37.385437 l 14.410004 35.77002 l 17.029999 34.309998 l -28.928238 53.052063 l -20.032944 560.1205 l -0.031219482 -15.981934 l 0.71565247 -252.30115 l 144.31442 729.92053 l 0.0 0.0 l 49.909424 -113.763306 l 0.0 0.0 l -48.98709 -844.2467 l 68.49014 71.680786 l 0.0 0.0 l -18.839905 502.5902 l 0.0 0.0 l 0.00033569336 -158.09302 l 0.0 0.0 l 0.18673706 -187.25684 l 0.0 0.0 l 0.3916626 28.004883 l 61.997223 -148.04211 l -0.5119324 -0.3466797 l 48.985718 -28.237183 l 10.265961 66.244385 l -0.5154114 -0.22540283 l 63.76947 -54.33899 l 0.0 0.0 l 33.649963 -1.4000244 l 32.950012 -4.200012 l 114.07062 94.88306 l 0.0 0.0 l -175.68048 -6.2562256 l 0.0 0.0 l 125.40985 -105.42682 l 30.850037 -12.599976 l 30.149963 -15.400024 l 29.450012 -18.200012 l 28.75 -21.0 l 28.049988 -23.799988 l 0.0 11.299988 l 0.0 11.300049 l 0.0 11.299988 l 0.0 11.299988 l 0.0 11.299988 l 0.0 11.299988 l 0.0 11.300049 l 0.0 11.299988 l 0.0 11.299988 l 0.0 11.299988 " /> </g> </svg>