<?xml version="1.0" standalone="no"?><!DOCTYPE svg PUBLIC "-//W3C//DTD SVG 1.1//EN" "http://www.w3.org/Graphics/SVG/1.1/DTD/svg11.dtd" ><svg xmlns="http://www.w3.org/2000/svg" xmlns:xlink="http://www.w3.org/1999/xlink" version="1.1" viewBox="-10 0 692 1000"><g transform="matrix(1 0 0 -1 0 800)"><path stroke="black" fill="none" d="M 786.25525 976.0586 l 33.168457 -13.115234 l 62.8927 -35.213562 l -30.549377 18.941406 l 60.28778 -41.161865 l 28.178528 -25.007996 l 0.0 0.0 l 0.0020751953 -0.0024414062 l 0.32977295 -0.39648438 l 23.911377 -28.743591 l 22.964294 -32.24646 l 19.486633 -32.52777 l 52.269836 -144.93622 l -8.9375 37.583862 l -12.110107 38.006775 l -14.015381 34.703613 l 41.816162 -151.29083 l 3.906128 -41.190063 l 0.0 0.0 l 0.0 0.0 l 0.0 0.0 l -5.256958 -86.64435 l 3.9267578 42.3042 l -19.736694 -122.961975 l 9.160767 39.2034 l -21.147217 -77.53467 l -14.397766 -36.11316 l -84.6319 -126.03186 l 25.150696 25.945587 l 0.0 0.0 l -0.00018310547 -0.00021362305 l -0.0017089844 -0.0017547607 l 22.82019 32.371613 l 19.265503 32.400833 l -188.27527 -173.24628 l 29.674805 14.705063 l 61.255615 41.14003 l -29.549377 -21.825394 l -132.18066 -58.33264 l 34.87506 10.1347275 l -72.552124 -17.595154 l -37.062195 -4.2760086 l 0.0 0.0 l -0.0012207031 5.340576e-05 l -0.05645752 0.0022735596 l -32.4339 1.2631073 l -65.42285 10.394684 l 31.72113 -6.443825 l -63.71222 15.781326 l -29.505371 11.297836 l -57.643616 30.32866 l 26.642456 -15.462387 l -57.09723 36.02771 l -27.478058 -15.708221 l 0.0 -0.04322815 l 0.0 16.05066 l 0.0 13.844955 l 0.0 6.1367188 l 0.0 -90.76027 l 0.0 -8.818184 l 0.0 22.1819 l 0.0 6.4031677 l 0.0 13.858414 l 0.0 6.192581 l -89.5488 -49.230072 l 21.815948 7.6293945e-06 l 43.7865 -5.340576e-05 l -20.326324 2.2888184e-05 l -68.3533 -0.00011444092 l -22.269928 8.392334e-05 l -67.730545 0.000289917 l -22.265137 -0.00012207031 l 45.31909 -7.6293945e-06 l 21.78888 -3.0517578e-05 l -67.206085 168.90866 l -0.019851685 168.89479 l 0.01322937 168.89658 l 0.14440918 168.83832 l -0.14743042 674.7502 l -0.00022888184 -167.77466 l 0.00038146973 -329.0238 l -0.00032043457 156.6217 l 107.324005 678.88806 l -16.073517 0.0 l -40.339493 0.0 l -1.496521 0.0 l -42.94005 0.0 l -0.9962158 0.0 l 201.69931 0.0 l -19.64209 0.0 l 0.0 0.0 l -46.03308 0.0 l -0.94021606 0.0 l 55.229675 -74.43445 l 0.03366089 0.48742676 l -192.62856 -94.62854 l 192.34587 4.5324707 l 0.0289917 -76.255005 l 0.127594 -581.85077 l 0.024902344 -82.135864 l 0.0 0.0 l 0.0018920898 0.001953125 l 0.24716187 0.24865723 l 26.40866 25.676758 l -26.722473 472.27643 l 0.0 80.75403 l 0.0 -166.50586 l 0.0 -80.81848 l 0.001373291 -166.02759 l 0.00289917 82.39673 l 84.076294 -176.78693 l -28.546906 -20.814514 l 90.40878 55.322144 l 28.26123 11.502014 l -60.3407 -27.640808 l 235.11829 42.931824 l 35.07611 -7.140564 l -111.838196 13.156738 l 0.0 0.0 l 0.0014038086 -6.1035156e-05 l 0.08306885 -0.0032958984 l 36.92682 -1.4036255 l -72.21417 -3.234253 l -29.54309 -6.381714 " /> </g> </svg>