<?xml version="1.0" standalone="no"?><!DOCTYPE svg PUBLIC "-//W3C//DTD SVG 1.1//EN" "http://www.w3.org/Graphics/SVG/1.1/DTD/svg11.dtd" ><svg xmlns="http://www.w3.org/2000/svg" xmlns:xlink="http://www.w3.org/1999/xlink" version="1.1" viewBox="-10 0 692 1000"><g transform="matrix(1 0 0 -1 0 800)"><path stroke="black" fill="none" d="M 786.844 975.83075 l 30.061523 -11.892029 l 62.175415 -34.50525 l -27.665527 17.14392 l 59.944397 -41.181396 l 0.054992676 -0.0501709 l 36.39673 -35.115112 l 0.0 0.0 l 9.061584 -10.891602 l 30.363281 -41.693604 l 17.745972 -29.62622 l 50.882996 -137.86249 l -6.460205 27.181213 l -15.521973 47.456604 l -9.809814 24.298523 l 40.710815 -150.55328 l 3.649292 -38.509033 l 0.0 0.0 l 0.0 0.00018310547 l -0.00012207031 0.001159668 l -5.0093994 -84.15222 l 3.5715332 38.512634 l -19.060791 -119.3598 l 8.315918 35.616547 l -21.437378 -77.69122 l -0.5675049 -1.4176025 l -12.527405 -31.425507 l -66.96173 -108.89426 l 5.086548 5.246353 l 0.0 0.0 l 28.378052 40.656113 l 13.569763 22.818512 l -164.67358 -159.4592 l 1.2381592 0.6175232 l 66.67871 43.55945 l -28.477356 -21.030487 l -129.84314 -57.614784 l 31.732239 9.22596 l -81.42047 -18.395973 l -0.048706055 -0.0053863525 l -34.312622 -2.8986435 l 0.0 0.0 l -15.837341 0.63326263 l -72.91229 10.338058 l 28.749146 -5.8451767 l -68.31915 17.713669 l -0.6552124 0.25250244 l -17.611084 6.7595673 l -43.61487 21.04293 l 1.091095 -0.63573456 l -53.443176 32.554016 l -0.010681152 -0.00044250488 l -25.315216 -0.33255005 l 0.0 0.0 l -9.1552734e-05 17.316513 l 0.0 0.0 l -9.1552734e-05 -94.1406 l 0.0 -0.09061432 l -3.0517578e-05 30.956131 l 0.0 0.0 l 0.0 13.101334 l 0.0 0.0 l -84.74039 -46.611656 l 14.526245 9.918213e-05 l 30.854126 -0.0005950928 l -0.5539551 7.6293945e-05 l -74.054474 -0.0011367798 l -19.818146 0.0009689331 l -70.18733 0.0033111572 l -19.762299 -0.001335144 l 48.719513 -0.00011444092 l 14.210663 -0.00039672852 l -64.07399 169.00104 l -0.23138428 168.83919 l 0.1542511 168.86041 l 1.6833344 168.18091 l -1.7185516 665.6934 l -0.002670288 -155.78174 l 0.004562378 -235.49744 l -0.0037841797 25.77295 l 79.23244 713.93054 l 0.0 0.0 l -44.07141 0.0 l 0.0 0.0 l 134.34317 -0.013305664 l 0.0 0.0 l 27.69223 -54.008423 l 0.0 0.0 l -159.93039 -111.097534 l 157.02771 -51.069702 l 0.3378601 -6.50708 l 1.4871216 -605.83624 l 0.002105713 -0.031677246 l 8.332947 -66.933105 l 0.0 0.0 l 11.12912 10.665588 l -19.92862 494.40338 l 0.0 58.95227 l 3.0517578e-05 -176.16064 l 0.0 -59.701294 l 0.016052246 -170.5841 l 0.0008544922 0.045532227 l 0.03274536 78.05371 l 82.33185 -174.51581 l -25.849823 -18.838013 l 110.11148 63.01776 l 0.9677124 0.39648438 l -52.650757 -24.408752 l 241.06793 40.92639 l 24.1651 -4.9087524 l -99.98822 12.084778 l 0.0 0.0 l 11.233459 -0.4434204 l -75.987915 -8.608032 l -0.9433594 -0.19628906 " /> </g> </svg>