<?xml version="1.0" standalone="no"?><!DOCTYPE svg PUBLIC "-//W3C//DTD SVG 1.1//EN" "http://www.w3.org/Graphics/SVG/1.1/DTD/svg11.dtd" ><svg xmlns="http://www.w3.org/2000/svg" xmlns:xlink="http://www.w3.org/1999/xlink" version="1.1" viewBox="-10 0 692 1000"><g transform="matrix(1 0 0 -1 0 800)"><path stroke="black" fill="none" d="M 786.2162 976.07367 l 33.374573 -13.196411 l 62.940308 -35.26056 l -30.740723 19.060669 l 60.310547 -41.160583 l 28.165771 -24.978638 l 0.0 0.0 l 0.00012207031 -0.00012207031 l 0.0005493164 -0.0006713867 l 24.713684 -29.708069 l 22.473389 -31.619629 l 19.602112 -32.720337 l 52.36194 -145.40552 l -9.101929 38.274048 l -11.883789 37.37976 l -14.294434 35.393982 l 41.889526 -151.33972 l 3.9230957 -41.36682 l 0.0 0.0 l 0.0 0.0 l 0.0 0.0 l -5.2733154 -86.81094 l 3.9503174 42.555756 l -19.781494 -123.20096 l 9.216797 39.441406 l -21.12793 -77.52429 l -14.484192 -36.33014 l -85.80438 -127.168976 l 26.383179 27.217056 l 0.0 0.0 l -6.1035156e-05 -3.0517578e-05 l 0.0 -3.0517578e-05 l 22.548279 31.921844 l 19.643433 33.036636 l -189.84131 -174.16107 l 31.608887 15.663147 l 60.84857 40.95616 l -29.620483 -21.878143 l -132.33582 -58.380272 l 35.08362 10.195023 l -71.963684 -17.542015 l -37.664917 -4.3499756 l 0.0 0.0 l -6.1035156e-05 0.0 l -0.00030517578 1.5258789e-05 l -33.17273 1.2902985 l -64.9259 10.3984375 l 31.918335 -6.4835434 l -63.406616 15.653114 l -30.251099 11.582207 l -58.574432 30.944786 l 28.394348 -16.478928 l -57.39618 36.290955 l -27.62085 -11.002075 l 0.0 -5.548691 l 0.0 17.8405 l 0.0 11.267578 l 0.0 9.009888 l 0.0 -91.495476 l 0.0 -9.795273 l 0.0 20.921906 l 0.0 9.087936 l 0.0 11.2715225 l 0.0 9.026253 l -89.86786 -50.481598 l 22.299652 0.0 l 44.644592 -1.5258789e-05 l -21.863342 7.6293945e-06 l -67.74994 -3.0517578e-05 l -22.432617 2.2888184e-05 l -67.56752 8.392334e-05 l -22.431213 -3.0517578e-05 l 45.09346 -7.6293945e-06 l 22.291718 -7.6293945e-06 l -67.41391 168.90253 l -0.0058135986 168.89848 l 0.0038757324 168.89899 l 0.042297363 168.8819 l -0.043182373 675.3511 l -7.6293945e-05 -168.57043 l 0.00012207031 -335.22943 l -0.00010681152 165.30377 l 110.98399 676.563 l -20.617737 0.0 l -27.725052 0.0 l -16.329575 0.0 l -28.505402 0.0 l -16.098465 0.0 l 218.07216 0.0 l -32.844543 0.0 l -1.6400757 0.0 l -32.480896 0.0 l -16.060059 0.0 l 58.944275 -75.78882 l -194.76227 -93.01611 l 194.68933 8.221802 l 0.008483887 -80.882935 l 0.037384033 -580.2592 l -0.006134033 -82.61896 l 0.0 0.0 l 0.00012207031 6.1035156e-05 l 0.00045776367 0.00048828125 l 27.167114 26.415894 l -27.173248 470.80817 l 0.0 82.20068 l 0.0 -165.86523 l 0.0 -82.21973 l 0.00039672852 -165.72522 l 0.0008544922 82.68201 l 84.19205 -176.93768 l -28.72586 -20.945679 l 89.1015 54.811584 l 30.169525 12.278381 l -60.948303 -27.894836 l 234.72351 43.06488 l 35.80011 -7.2886353 l -112.14874 13.209045 l 0.0 0.0 l 0.00012207031 0.0 l 0.00030517578 -6.1035156e-05 l 38.245544 -1.4520264 l -71.963745 -2.8776245 l -31.563232 -6.8189087 " /> </g> </svg>