<?xml version="1.0" standalone="no"?><!DOCTYPE svg PUBLIC "-//W3C//DTD SVG 1.1//EN" "http://www.w3.org/Graphics/SVG/1.1/DTD/svg11.dtd" ><svg xmlns="http://www.w3.org/2000/svg" xmlns:xlink="http://www.w3.org/1999/xlink" version="1.1" viewBox="-10 0 692 1000"><g transform="matrix(1 0 0 -1 0 800)"><path stroke="black" fill="none" d="M 786.2048 976.0781 l 33.434937 -13.220093 l 62.954285 -35.274353 l -30.796814 19.095581 l 60.31726 -41.160217 l 28.174622 -24.98523 l 0.0 0.0 l 0.0 0.0 l 6.1035156e-05 0.0 l 24.839722 -29.859558 l 22.32959 -31.436035 l 19.635925 -32.776672 l 52.388855 -145.54303 l -9.1501465 38.476257 l -11.817383 37.196045 l -14.376099 35.596252 l 41.91101 -151.35406 l 3.9279785 -41.41858 l 0.0 0.0 l 0.0 0.0 l 0.0 0.0 l -5.278076 -86.85977 l 3.9572754 42.629425 l -19.794678 -123.270935 l 9.233276 39.51111 l -21.122314 -77.52127 l -14.5095825 -36.393677 l -86.147766 -127.50203 l 26.741821 27.587051 l 0.0 0.0 l 0.0 0.0 l 0.0 -1.5258789e-05 l 22.471436 31.79303 l 19.75415 33.222885 l -190.29999 -174.42903 l 32.175354 15.943764 l 60.72937 40.902306 l -29.641357 -21.893585 l -132.38123 -58.394234 l 35.144714 10.212685 l -71.79138 -17.526451 l -37.85138 -4.3712387 l 0.0 0.0 l -6.1035156e-05 0.0 l 0.0 0.0 l -33.362732 1.2972031 l -64.780334 10.399536 l 31.976074 -6.495178 l -63.317017 15.615562 l -30.469543 11.665497 l -58.847076 31.125244 l 28.90747 -16.776665 l -57.483765 36.368065 l -27.662659 -9.232849 l 0.0 -8.837662 l 0.0 19.650345 l 0.0 10.512695 l 0.0 9.85141 l 0.0 -91.71081 l 0.0 -10.081451 l 0.0 20.552864 l 0.0 9.874283 l 0.0 10.51384 l 0.0 9.856216 l -89.9613 -50.84816 l 22.441315 0.0 l 44.895905 -7.6293945e-06 l -22.313507 0.0 l -67.57321 -7.6293945e-06 l -22.480255 7.6293945e-06 l -67.51979 2.2888184e-05 l -22.479843 -7.6293945e-06 l 45.02736 0.0 l 22.438995 0.0 l -67.47478 168.90073 l -0.0017089844 168.89955 l 0.0011444092 168.89966 l 0.012390137 168.89471 l -0.012649536 675.52704 l -3.0517578e-05 -168.80347 l 4.5776367e-05 -337.047 l -3.0517578e-05 167.84668 l 112.055954 675.88196 l -21.9487 0.0 l -24.030365 0.0 l -20.692734 0.0 l -24.258942 0.0 l -20.62503 0.0 l 222.97087 0.0 l -25.529846 0.0 l -16.387512 0.0 l -25.426086 0.0 l -20.61377 0.0 l 60.15747 -76.18555 l -195.39706 -92.68652 l 195.3757 9.302368 l 0.0024719238 -82.2384 l 0.010955811 -579.79315 l -0.0029296875 -82.74811 l 0.0 0.0 l 0.0 0.0 l 3.0517578e-05 0.0 l 27.30478 26.547363 l -27.305298 470.37817 l 0.0 82.62439 l 0.0 -165.67761 l 0.0 -82.63013 l 0.00012207031 -165.6366 l 0.00024414062 82.7655 l 84.22595 -176.98187 l -28.77829 -20.98407 l 88.7186 54.661987 l 30.728516 12.505798 l -61.126312 -27.969177 l 234.60788 43.10382 l 36.012146 -7.33197 l -112.228455 13.223877 l 0.0 0.0 l 0.0 0.0 l 0.0 0.0 l 38.596375 -1.4648438 l -71.89038 -2.7731934 l -32.154907 -6.9469604 " /> </g> </svg>