<?xml version="1.0" standalone="no"?><!DOCTYPE svg PUBLIC "-//W3C//DTD SVG 1.1//EN" "http://www.w3.org/Graphics/SVG/1.1/DTD/svg11.dtd" ><svg xmlns="http://www.w3.org/2000/svg" xmlns:xlink="http://www.w3.org/1999/xlink" version="1.1" viewBox="-10 0 692 1000"><g transform="matrix(1 0 0 -1 0 800)"><path stroke="black" fill="none" d="M 788.3988 975.22906 l 21.856812 -8.661926 l 60.28125 -32.634888 l -20.049866 12.397339 l 59.03766 -41.23291 l 0.010009766 -0.009155273 l 43.371338 -44.07953 l 0.0 0.0 l 33.790466 -47.236267 l 13.149414 -21.963867 l 47.22058 -119.182556 l -0.30981445 1.3446655 l -24.14038 70.77704 l -0.30859375 0.7753906 l 39.396484 -152.55981 l 2.9572754 -31.275024 l 0.0 0.0 l -0.00036621094 0.003967285 l -4.341919 -77.72412 l 2.633667 28.500122 l -17.276245 -109.8475 l 6.084961 26.1445 l -22.203247 -78.10455 l -0.084106445 -0.20993042 l -9.570557 -23.997833 l -63.884094 -108.5918 l 0.0 0.0 l 38.74713 58.07721 l 0.46417236 0.7758179 l -160.50342 -154.35886 l 0.0 0.0 l 63.364197 41.410362 l -25.646301 -18.931335 l -123.67029 -55.719093 l 23.432678 6.8261185 l -104.83948 -20.510735 l 0.0 0.0 l -22.788818 0.86608124 l 0.0 0.0 l -68.987854 9.005333 l 20.900757 -4.264305 l -68.97211 18.470764 l 0.0 0.0 l -0.13421631 0.053504944 l -55.92502 25.291046 l 0.0 0.0 l -60.78607 33.115868 l 0.0 0.0 l -19.630219 6.47139 l 0.0 0.0 l -0.012908936 -80.867035 l 0.0 0.0 l -9.1552734e-05 29.06063 l 0.0 0.0 l -72.0426 -34.230026 l 0.48657227 9.918213e-05 l 31.602356 -0.007270813 l 0.0 0.0 l -77.56 0.0018615723 l -13.343567 0.0033035278 l -76.675156 0.011299133 l -13.152893 -0.0045547485 l 57.698837 -0.00038909912 l 0.365448 -0.00020599365 l -61.96953 169.24382 l -0.789978 168.69243 l 0.5266571 168.7648 l 5.747284 166.44482 l -5.867508 641.77686 l -0.009140015 -124.11133 l 0.049453735 -217.05566 l 0.0 0.0 l 35.480194 715.24097 l 0.0 0.0 l 135.83247 -4.6314697 l 0.0 0.0 l -44.125244 -151.36035 l 56.53885 -61.15271 l 0.0 0.0 l 13.4531555 -628.2449 l 0.0 0.0 l 17.914398 -35.199585 l 0.0 0.0 l -19.500122 531.4962 l 0.0 2.140625 l 3.0517578e-05 -202.41785 l 0.0 -3.961914 l 0.05480957 -182.59119 l 0.00018310547 0.010375977 l 0.11453247 66.74048 l 77.72522 -168.51843 l -18.727478 -13.618469 l 104.77872 59.828613 l 0.0 0.0 l -46.08853 -21.292725 l 256.7794 35.630493 l 0.6665039 -0.12579346 l -97.19696 10.7803955 l 0.0 0.0 l -57.895325 -8.296448 l 0.0 0.0 " /> </g> </svg>