<?xml version="1.0" standalone="no"?><!DOCTYPE svg PUBLIC "-//W3C//DTD SVG 1.1//EN" "http://www.w3.org/Graphics/SVG/1.1/DTD/svg11.dtd" ><svg xmlns="http://www.w3.org/2000/svg" xmlns:xlink="http://www.w3.org/1999/xlink" version="1.1" viewBox="-10 0 692 1000"><g transform="matrix(1 0 0 -1 0 800)"><path stroke="black" fill="none" d="M 786.2014 976.0794 l 33.452637 -13.227112 l 62.958313 -35.27832 l -30.813232 19.105774 l 60.319214 -41.160095 l 28.178345 -24.988464 l 0.0 0.0 l 0.0 0.0 l 0.0 0.0 l 24.875366 -29.902405 l 22.287476 -31.382263 l 19.645874 -32.793213 l 52.39673 -145.58325 l -9.164185 38.53546 l -11.797974 37.142273 l -14.4001465 35.655457 l 41.91736 -151.35828 l 3.9294434 -41.433716 l 0.0 0.0 l 0.0 0.0 l 0.0 0.0 l -5.279419 -86.874084 l 3.9592285 42.651062 l -19.798462 -123.29147 l 9.238037 39.531494 l -21.120728 -77.520355 l -14.516968 -36.412292 l -86.24829 -127.59958 l 26.846619 27.695206 l 0.0 0.0 l 0.0 0.0 l 0.0 0.0 l 22.449219 31.755524 l 19.78656 33.27742 l -190.43439 -174.5075 l 32.341248 16.025955 l 60.694458 40.886536 l -29.6474 -21.898117 l -132.39453 -58.398315 l 35.162598 10.217857 l -71.740906 -17.521896 l -37.90692 -4.377434 l 0.0 0.0 l 0.0 0.0 l 0.0 0.0 l -33.41742 1.2991867 l -64.73773 10.399864 l 31.993042 -6.4985886 l -63.290833 15.604561 l -30.533508 11.689888 l -58.92694 31.178108 l 29.05777 -16.863876 l -57.5094 36.39064 l -27.674927 -8.714645 l 0.0 -9.80098 l 0.0 20.180435 l 0.0 10.291595 l 0.0 10.0979 l 0.0 -91.77389 l 0.0 -10.165276 l 0.0 20.444778 l 0.0 10.104591 l 0.0 10.291931 l 0.0 10.099304 l -89.98868 -50.95553 l 22.482819 0.0 l 44.969513 0.0 l -22.445374 0.0 l -67.521454 -7.6293945e-06 l -22.494202 7.6293945e-06 l -67.5058 7.6293945e-06 l -22.494095 -7.6293945e-06 l 45.00801 0.0 l 22.482132 0.0 l -67.492615 168.9002 l -0.00050354004 168.89987 l 0.00033569336 168.89987 l 0.0036315918 168.8985 l -0.0037078857 675.57855 l 0.0 -168.8717 l 0.0 -337.5794 l 0.0 168.59149 l 112.36995 675.6825 l -22.338531 0.0 l -22.948242 0.0 l -21.970657 0.0 l -23.015182 0.0 l -21.950836 0.0 l 224.40567 0.0 l -23.38742 0.0 l -20.709686 0.0 l -23.357025 0.0 l -21.94754 0.0 l 60.512817 -76.30176 l -195.583 -92.589966 l 195.57674 9.6188965 l 0.0007324219 -82.6355 l 0.0032043457 -579.6566 l -0.0009765625 -82.78485 l 0.0 0.0 l 0.0 0.0 l 3.0517578e-05 0.0 l 27.343903 26.584656 l -27.343964 470.2522 l 0.0 82.748535 l 0.0 -165.62268 l 0.0 -82.750244 l 3.0517578e-05 -165.61072 l 9.1552734e-05 82.78992 l 84.23587 -176.99475 l -28.79364 -20.995361 l 88.606445 54.618225 l 30.892242 12.572388 l -61.178436 -27.990967 l 234.574 43.115234 l 36.07428 -7.3447266 l -112.250854 13.22821 l 0.0 0.0 l 0.0 0.0 l 0.0 0.0 l 38.69806 -1.4685059 l -71.86896 -2.7426147 l -32.328186 -6.984497 " /> </g> </svg>