<?xml version="1.0" standalone="no"?><!DOCTYPE svg PUBLIC "-//W3C//DTD SVG 1.1//EN" "http://www.w3.org/Graphics/SVG/1.1/DTD/svg11.dtd" ><svg xmlns="http://www.w3.org/2000/svg" xmlns:xlink="http://www.w3.org/1999/xlink" version="1.1" viewBox="-10 0 692 1000"><g transform="matrix(1 0 0 -1 0 800)"><path stroke="black" fill="none" d="M 357.00494 855.5728 l 35.674408 19.4859 l -134.39127 -95.995544 l 0.0 0.0 l 0.0 0.0 l 0.0 0.0 l -26.175446 -32.034424 l 90.52252 85.99341 l -32.827454 -25.443787 l 89.29813 -236.40692 l -4.164276 -24.34082 l 10.1076355 48.245605 l 7.4963684 22.558716 l -20.137482 -96.33191 l 0.0 0.0 l 0.0 0.0 l 0.0 0.0 l 0.9584961 -28.491028 l 2.2337646 -23.836884 l 4.1300964 -25.596924 l 5.6257324 -23.783295 l 82.91351 485.4619 l -38.4722 -13.490295 l -17.127747 -231.17596 l -10.825287 -20.768127 l 23.472443 40.911316 l 30.250671 37.418884 l 0.0 0.0 l -3.0517578e-05 0.0 l 0.0 -6.1035156e-05 l -15.927002 -18.212402 l 34.12085 33.41565 l 18.791077 13.238098 l 56.869263 176.65747 l -41.208984 -7.4835205 l 83.97534 11.9953 l 0.0 0.0 l 0.0 0.0 l 0.0 0.0 l 56.91327 -2.7565918 l -28.25055 2.0648804 l 3.5715942 -137.71667 l 24.915833 0.8883667 l 0.0 0.0 l 0.0 0.0 l 0.0 0.0 l 15.50293 -1.0753784 l 15.237488 -1.8082275 l 14.688599 -2.5130615 l -17.462646 136.67914 l 27.47406 -4.7940063 l 27.554993 -6.2595215 l 26.824463 -7.52948 l -158.93878 -116.26697 l -23.189514 -4.4384155 l -22.811523 -6.3829956 l -20.987 -7.8079834 l -20.796753 -9.835632 l 273.65845 135.68573 l 26.198425 -10.270996 l 26.131104 -11.749634 l 61.56549 29.880493 l 0.0 -29.152893 l 0.0 59.484924 l 6.1035156e-05 -238.92657 l 0.0 29.680908 l 0.0 30.111328 l 0.0 29.666504 l -0.08325195 -119.59595 l -15.110962 -11.589539 l 15.194214 -18.24176 l 0.0 0.0 l 0.0 0.0 l 0.0 0.0 l -30.23523 35.321594 l -17.452637 18.776123 l -10.399719 10.683716 l -28.28418 26.535583 l 13.28717 -11.991394 l 73.08496 128.17041 l -6.1035156e-05 -27.515137 l -190.87317 -31.575989 l 13.85614 -3.9504395 l 26.464905 -10.05481 l -12.921936 5.347046 l 37.82898 -18.334045 l 0.0 0.0 l -0.00012207031 6.1035156e-05 l -0.0004272461 0.00030517578 l -12.118591 6.7886963 l 36.992554 -24.891235 l -11.852539 9.071838 l -74.861206 -505.4772 l 13.593994 4.5047913 l -28.060974 -8.440826 l -14.081848 -3.061386 l -14.938293 -2.4670563 l 70.57556 19.277695 l 12.886597 5.911621 l 0.0 0.0 l 0.0 0.0 l 0.0 0.0 l 12.200684 7.4345856 l 25.619202 18.671906 l -12.9175415 -9.898621 l 26.533386 21.30069 l 13.763733 12.44577 l 59.80768 62.543793 l 0.00048828125 -28.981842 l -15.473206 11.8909 l -29.891785 -31.48233 l 14.607727 14.994476 l 30.759766 -25.301361 l 0.0 -29.639374 l 0.00012207031 -29.728302 l -0.00018310547 -89.10524 l 0.0 29.742218 l 0.0 29.623657 l -0.019104004 -89.07524 l -82.136475 -95.58803 l 27.33258 10.623676 l 27.437866 12.086758 l 27.385132 13.482037 l 0.0 0.0 l 0.0 0.0 l 0.0 0.0 l -6.1035156e-05 29.68238 l -136.95697 -82.920135 l 27.32544 7.7887173 l -54.812134 -14.198924 l -27.32843 -4.95704 l -32.99652 221.54878 l -14.265442 -0.9583893 l -16.385803 -0.37547302 l 0.0 0.0 l 0.0 0.0 l 0.0 0.0 l -24.477234 2.7212982 l -22.565369 4.288849 l -22.524353 6.2332916 l -21.17163 7.853821 l 12.140198 -241.15927 l 42.950867 -4.377082 l 71.81836 0.665287 l -27.350891 -2.1261923 l 0.0 0.0 l 0.0 1.1920929e-07 l 0.0 0.0 l -128.9588 13.1449375 l -39.99051 10.212423 l -69.25195 371.75693 l 8.849182 -21.858765 l 22.490662 -40.79892 l -11.835815 19.53125 l 25.852783 -38.993256 l 0.0 0.0 l 0.00088500977 -0.00088500977 l 0.04849243 -0.048095703 l 16.206268 -16.081238 l 18.367554 -15.556976 l 18.708008 -13.229767 l 19.385193 -11.343628 l -87.37726 -220.2313 l -37.057037 16.061432 l -35.577637 18.976036 l -34.100586 21.898819 l -61.484543 54.915283 l 28.865097 -30.094284 l 0.0 0.0 l 0.0 0.0 l 0.0 0.0 l -97.270996 128.94563 l 42.428024 -67.12785 l -22.637741 32.715485 l -50.215927 107.487686 l -10.615189 38.539825 l 24.30838 -75.80008 l -34.938995 200.19919 l -1.5375671 -42.849854 l 0.0 0.0 l 0.0 0.0 l 0.0 3.0517578e-05 l 4.5577393 -41.448883 l 1.6077881 125.954865 l 7.711685 40.23578 l 10.755508 38.75183 l 30.838211 73.67963 l 19.965363 34.665283 l -36.93074 -70.8277 " /> </g> </svg>