<?xml version="1.0" standalone="no"?><!DOCTYPE svg PUBLIC "-//W3C//DTD SVG 1.1//EN" "http://www.w3.org/Graphics/SVG/1.1/DTD/svg11.dtd" ><svg xmlns="http://www.w3.org/2000/svg" xmlns:xlink="http://www.w3.org/1999/xlink" version="1.1" viewBox="-10 0 692 1000"><g transform="matrix(1 0 0 -1 0 800)"><path stroke="black" fill="none" d="M 357.00143 855.5708 l 35.692505 19.49591 l -134.39743 -95.99872 l 0.0 0.0 l 0.0 0.0 l 0.0 0.0 l -26.178665 -32.03833 l 90.563156 86.026306 l -32.878754 -25.48352 l 89.32773 -236.30304 l -4.1895447 -24.488708 l 10.088104 48.213318 l 7.5413513 22.69403 l -20.153381 -96.380066 l 0.0 0.0 l 0.0 0.0 l 0.0 0.0 l 0.8534851 -27.373108 l 2.372528 -25.316925 l 4.073456 -25.139496 l 5.6570435 -23.915314 l 82.91809 485.50302 l -38.49185 -13.497192 l -17.079865 -231.09393 l -10.892242 -20.89679 l 23.506073 40.97406 l 30.243225 37.40564 l 0.0 0.0 l 0.0 0.0 l -3.0517578e-05 0.0 l -15.950409 -18.239136 l 34.07074 33.390503 l 18.903442 13.3172 l 56.876892 176.638 l -41.273346 -7.495117 l 83.99277 11.998596 l 0.0 0.0 l 0.0 0.0 l 0.0 0.0 l 56.94635 -2.7590332 l -28.299683 2.0685425 l 3.5492554 -137.719 l 24.95404 0.88946533 l 0.0 0.0 l 0.0 0.0 l 0.0 0.0 l 15.550415 -1.0786133 l 15.175659 -1.8024292 l 14.717834 -2.5179443 l -17.588013 136.70093 l 27.61969 -4.819458 l 27.417114 -6.2244873 l 26.976807 -7.5723267 l -158.96082 -116.24786 l -23.2323 -4.446594 l -22.513428 -6.2748413 l -21.371033 -7.9508057 l -20.707092 -9.803345 l 273.56763 135.73114 l 26.340942 -10.326843 l 26.09497 -11.735779 l 61.561646 30.261963 l 0.0 -29.681152 l 0.0 59.707764 l 0.0 -239.11993 l 0.0 29.835815 l 0.0 29.961853 l 0.0 29.831665 l -0.024414062 -119.598816 l -15.202148 -11.6605835 l 15.2265625 -18.2193 l 0.0 0.0 l 0.0 0.0 l 0.0 0.0 l -30.182007 35.263916 l -15.435547 16.707031 l -13.143494 13.502441 l -27.800415 26.015442 l 13.536682 -12.216675 l 73.0249 129.49945 l -6.1035156e-05 -29.201477 l -190.88507 -31.161621 l 13.880127 -3.9572144 l 26.503845 -10.072632 l -13.012512 5.3845215 l 37.873108 -18.352905 l 0.0 0.0 l 0.0 0.0 l 0.0 0.0 l -12.184326 6.8255615 l 37.627136 -25.364075 l -12.66394 9.692749 l -74.67651 -505.67715 l 13.690186 4.5367584 l -27.904724 -8.411957 l -14.370422 -3.1240387 l -14.890076 -2.4550018 l 70.557556 19.258118 l 12.945557 5.9387665 l 0.0 0.0 l 0.0 0.0 l 0.0 0.0 l 12.207275 7.4384155 l 25.66217 18.705902 l -13.011169 -9.970306 l 26.523865 21.286072 l 13.853027 12.52652 l 59.773987 62.894684 l 0.00012207031 -29.489685 l -15.541626 11.982208 l -29.883484 -31.508972 l 14.694214 15.083221 l 30.731628 -25.314514 l 0.0 -29.682251 l 6.1035156e-05 -29.708282 l -6.1035156e-05 -89.10155 l 0.0 29.712372 l 0.0 29.677628 l -0.0056152344 -89.09274 l -82.1814 -95.60357 l 27.38031 10.642292 l 27.41101 12.074909 l 27.39569 13.487648 l 0.0 0.0 l 0.0 0.0 l 0.0 0.0 l 0.0 29.694862 l -136.98743 -82.94125 l 27.378174 7.8037663 l -54.80359 -14.199684 l -27.378967 -4.9662037 l -32.27777 221.59914 l -15.230286 -1.0231628 l -16.120117 -0.35746765 l 0.0 0.0 l 0.0 0.0 l 0.0 0.0 l -24.17511 2.6638184 l -22.97876 4.367447 l -22.330383 6.181473 l -21.29773 7.9006042 l 12.168335 -241.17393 l 42.971436 -4.3791456 l 71.84784 0.66861963 l -27.38562 -2.1288848 l 0.0 0.0 l 0.0 0.0 l 0.0 1.1920929e-07 l -128.94553 13.141447 l -40.011353 10.217782 l -69.26471 371.8015 l 8.892151 -21.965668 l 22.624573 -40.99768 l -12.057983 19.89804 l 25.89502 -39.077606 l 0.0 0.0 l 6.1035156e-05 -6.1035156e-05 l 0.00018310547 -0.00021362305 l 16.68097 -16.552246 l 17.930878 -15.134857 l 18.666992 -13.20871 l 19.501709 -11.411774 l -87.41455 -220.20917 l -37.059113 16.060421 l -35.579315 18.978836 l -34.10016 21.899658 l -61.495483 54.925682 l 28.87564 -30.105392 l 0.0 0.0 l 0.0 0.0 l 0.0 0.0 l -97.27736 128.9558 l 42.521347 -67.26373 l -22.752487 32.881317 l -50.176376 107.40448 l -10.632736 38.603577 l 24.316605 -75.82828 l -34.939713 200.25632 l -1.5392914 -42.899475 l 0.0 0.0 l 0.0 0.0 l 0.0 0.0 l 4.5593414 -41.463806 l 1.6022797 125.951416 l 7.703415 40.21051 l 10.772827 38.814148 l 30.811203 73.62335 l 20.003998 34.73224 l -36.95143 -70.864685 " /> </g> </svg>