<?xml version="1.0" standalone="no"?><!DOCTYPE svg PUBLIC "-//W3C//DTD SVG 1.1//EN" "http://www.w3.org/Graphics/SVG/1.1/DTD/svg11.dtd" ><svg xmlns="http://www.w3.org/2000/svg" xmlns:xlink="http://www.w3.org/1999/xlink" version="1.1" viewBox="-10 0 692 1000"><g transform="matrix(1 0 0 -1 0 800)"><path stroke="black" fill="none" d="M 357.01688 855.57965 l 35.61261 19.451843 l -134.3703 -95.98486 l 0.0 0.0 l 0.0 0.0 l 0.0 0.0 l -26.164383 -32.020935 l 90.383804 85.88092 l -32.652313 -25.307983 l 89.19711 -236.76166 l -4.078125 -23.835754 l 10.174438 48.35559 l 7.3427124 22.096863 l -20.08313 -96.16864 l 0.0 0.0 l 0.0 0.0 l 0.0 -6.1035156e-05 l 1.3168945 -32.30667 l 1.7600708 -18.78363 l 4.323456 -27.158783 l 5.518921 -23.332611 l 82.897736 485.32175 l -38.40506 -13.466797 l -17.291168 -231.456 l -10.596741 -20.329102 l 23.357727 40.697205 l 30.272247 37.459717 l 0.0 0.0 l -9.1552734e-05 -0.00012207031 l -0.000579834 -0.0006713867 l -15.842651 -18.116272 l 34.29187 33.50171 l 18.40744 12.9678955 l 56.843292 176.72382 l -40.989258 -7.4437256 l 83.91589 11.984009 l 0.0 0.0 l 0.0 0.0 l 0.0 0.0 l 56.800293 -2.748413 l -28.082886 2.0526733 l 3.6480103 -137.70874 l 24.786621 0.8843384 l 0.0 0.0 l 6.1035156e-05 -6.1035156e-05 l 6.1035156e-05 0.0 l 15.339355 -1.064148 l 15.448608 -1.828064 l 14.588806 -2.4962158 l -17.034668 136.60455 l 26.976807 -4.7070923 l 28.02594 -6.3790283 l 26.304138 -7.383362 l -158.86359 -116.33215 l -23.043518 -4.4104004 l -23.82898 -6.7524414 l -19.676086 -7.3201294 l -21.102722 -9.945984 l 273.96844 135.5307 l 25.711792 -10.080261 l 26.254578 -11.797119 l 61.578613 28.578064 l 6.1035156e-05 -27.349304 l -6.1035156e-05 58.724304 l 0.00024414062 -238.26636 l 0.0 29.151794 l 0.0 30.621704 l 0.0 29.102783 l -0.28424072 -119.5863 l -14.799377 -11.346924 l 15.083618 -18.318298 l 0.0 0.0 l 0.0 0.0 l 0.0 0.0 l -30.41687 35.518433 l -24.339539 25.840332 l -1.0430298 1.0716553 l -29.924805 28.299866 l 12.435486 -11.222168 l 73.2901 123.63257 l -0.00030517578 -21.75763 l -190.8324 -32.9906 l 13.77417 -3.9274292 l 26.33191 -9.9939575 l -12.612671 5.2191772 l 37.64276 -18.24945 l 0.0 0.0 l -0.0018920898 0.0010375977 l -0.18383789 0.10296631 l -11.675293 6.540344 l 34.82605 -23.276855 l -9.082214 6.951782 l -75.49188 -504.79443 l 13.265747 4.3956757 l -28.594727 -8.539398 l -13.0963745 -2.847458 l -15.103027 -2.5082703 l 70.637085 19.344604 l 12.684509 5.8186493 l 0.0 0.0 l 0.0 -1.5258789e-05 l -6.1035156e-05 -1.5258789e-05 l 12.179077 7.4218445 l 25.472412 18.555786 l -12.597717 -9.653839 l 26.565613 21.350647 l 13.458862 12.170013 l 59.92279 61.345764 l 0.0017700195 -27.248047 l -15.239624 11.579193 l -29.920105 -31.391296 l 14.3125 14.691376 l 30.855652 -25.256409 l 6.1035156e-05 -29.492981 l 0.00036621094 -29.796616 l -0.0005493164 -89.11784 l 0.0 29.844116 l 0.0 29.439362 l -0.06524658 -89.0155 l -81.98297 -95.53494 l 27.169617 10.56012 l 27.52948 12.127213 l 27.349121 13.463467 l 0.0 0.0 l 0.0 1.5258789e-05 l 0.0 3.0517578e-05 l -0.00012207031 29.639145 l -136.85327 -82.84803 l 27.145508 7.737337 l -54.84143 -14.196329 l -27.1557 -4.9257526 l -35.45056 221.3768 l -10.971069 -0.73721313 l -17.292358 -0.4369049 l 0.0 0.0 l 0.0 0.0 l 0.0 0.0 l -25.509521 2.9175262 l -21.15387 4.020523 l -23.186646 6.410202 l -20.741028 7.694031 l 12.044006 -241.10918 l 42.880676 -4.370036 l 71.717896 0.6539092 l -27.232422 -2.1169946 l 0.0 0.0 l 0.0 1.1920929e-07 l 6.1035156e-05 2.3841858e-07 l -129.00427 13.156854 l -39.91925 10.19413 l -69.208466 371.60468 l 8.702454 -21.493713 l 22.033478 -40.12024 l -11.0772705 18.2789 l 25.901398 -38.896515 l 0.0 0.0 l 0.035827637 -0.035583496 l 14.574036 -14.461548 l 19.858429 -16.99826 l 18.848053 -13.301636 l 18.987396 -11.110931 l -87.24997 -220.30688 l -37.049896 16.064896 l -35.57196 18.96648 l -34.10205 21.89595 l -61.447205 54.87977 l 28.829132 -30.056343 l 0.0 0.0 l 0.0 0.0 l 0.0 0.0 l -97.24924 128.91095 l 42.10939 -66.66397 l -22.245987 32.149307 l -50.350983 107.77176 l -10.555283 38.322113 l 24.28035 -75.703705 l -34.93657 200.00409 l -1.5316772 -42.679993 l 0.0 0.0 l 0.0 3.0517578e-05 l 0.0 0.0 l 4.552292 -41.398285 l 1.6265717 125.966736 l 7.739868 40.32202 l 10.696411 38.539 l 30.93045 73.87189 l 19.83345 34.436646 l -36.860092 -70.70154 " /> </g> </svg>