<?xml version="1.0" standalone="no"?><!DOCTYPE svg PUBLIC "-//W3C//DTD SVG 1.1//EN" "http://www.w3.org/Graphics/SVG/1.1/DTD/svg11.dtd" ><svg xmlns="http://www.w3.org/2000/svg" xmlns:xlink="http://www.w3.org/1999/xlink" version="1.1" viewBox="-10 0 692 1000"><g transform="matrix(1 0 0 -1 0 800)"><path stroke="black" fill="none" d="M 357.05765 855.60297 l 35.40158 19.335693 l -134.29929 -95.94916 l 0.0 0.0 l 0.0 0.0 l -3.0517578e-05 -6.1035156e-05 l -26.125961 -31.973999 l 89.91011 85.49689 l -32.05432 -24.844482 l 88.85217 -237.97278 l -3.7838745 -22.111328 l 10.402435 48.73114 l 6.8181763 20.520142 l -19.897064 -95.6236 l 0.0 0.0 l 3.0517578e-05 -0.00036621094 l 9.1552734e-05 -0.0029296875 l 2.5399475 -45.318848 l 0.14749146 -1.581665 l 4.978943 -32.44034 l 5.1540833 -21.793884 l 82.844025 484.84323 l -38.175842 -13.386719 l -17.849274 -232.41193 l -9.816376 -18.830078 l 22.966034 39.966064 l 30.302155 37.54883 l 0.0 0.0 l -0.0020751953 -0.0024414062 l -0.32839966 -0.3764038 l -15.183197 -17.362183 l 34.875732 33.79547 l 17.097595 12.045471 l 56.75461 176.95038 l -40.239044 -7.3078613 l 83.71335 11.945251 l 0.0 0.0 l 0.0 0.0 l 0.0 0.0 l 56.414124 -2.720459 l -27.510376 2.0109253 l 3.9089355 -137.68164 l 24.361633 0.8694458 l 0.0 0.0 l 0.0004272461 0.0 l 0.0059814453 -0.0004272461 l 14.75885 -1.024353 l 16.169495 -1.895813 l 14.247925 -2.4387817 l -15.573364 136.34991 l 25.279175 -4.4104004 l 29.633728 -6.7871094 l 24.527466 -6.8842773 l -158.60675 -116.55481 l -22.544983 -4.314636 l -27.302795 -8.013733 l -15.200317 -5.654602 l -22.147583 -10.322754 l 275.02692 135.00122 l 24.050354 -9.428833 l 26.676025 -11.9592285 l 61.623657 24.131287 l 0.00012207031 -21.191528 l -0.00018310547 56.12732 l 0.0008544922 -236.0122 l 0.0 27.345337 l 0.0 32.364258 l 0.0 27.177917 l -0.97039795 -119.55322 l -13.735779 -10.518677 l 14.705994 -18.578674 l 0.0 0.0 l -6.1035156e-05 0.0 l 0.0 6.1035156e-05 l -31.036926 36.189697 l -1.9337158 2.0968018 l -22.676392 23.981934 l 0.0 0.0 l -27.86615 26.457642 l 9.527466 -8.595764 l 73.9906 108.13953 l -0.0010986328 -2.1097412 l -190.69336 -37.811157 l 13.494629 -3.8486328 l 25.877625 -9.786255 l -11.556702 4.782593 l 36.5907 -17.727844 l 0.0 0.0 l -0.08483887 0.047546387 l -10.478638 5.86969 l 27.4292 -17.76477 l -0.4727173 0.36260986 l -76.79639 -503.1126 l 12.145142 4.023117 l -30.416992 -8.875931 l -9.731873 -2.1170502 l -15.665527 -2.6489868 l 70.84735 19.573013 l 11.984009 5.4963684 l 0.0029907227 0.0013427734 l 0.0 0.0 l -0.00018310547 -7.6293945e-05 l 12.112671 7.381851 l 24.971191 18.159271 l -11.505737 -8.818054 l 26.67572 21.52121 l 12.41803 11.228455 l 60.315735 57.255493 l 0.0061035156 -21.32846 l -14.442017 10.514984 l -30.016968 -31.080597 l 13.304504 13.656586 l 31.183228 -25.102905 l 0.00012207031 -28.993195 l 0.0012817383 -30.02983 l -0.0018310547 -89.160904 l 0.0 30.192017 l 0.0 28.81012 l -0.22277832 -88.81149 l -81.45892 -95.353745 l 26.613342 10.343128 l 27.842163 12.265335 l 27.226196 13.407116 l 0.0 0.0 l 0.0 0.00017547607 l 0.0 0.0008392334 l -0.00036621094 29.48365 l -136.49908 -82.601845 l 26.531128 7.5619144 l -54.941467 -14.187469 l -26.565918 -4.8189325 l -43.829224 220.78961 l -0.63220215 -0.042922974 l -19.47174 -0.5855713 l 0.0 0.0 l 0.00018310547 0.0 l 0.0008544922 3.0517578e-05 l -29.041931 3.5871887 l -16.334717 3.1044312 l -25.447876 7.014221 l -19.270935 7.148514 l 11.715637 -240.9382 l 42.64099 -4.3459806 l 71.374756 0.6150625 l -26.826965 -2.085535 l 0.0 0.0 l 6.1035156e-05 1.1920929e-06 l 0.0 2.503395e-06 l -129.16013 13.1974745 l -39.675995 10.131674 l -69.06 371.0848 l 0.055603027 -0.12710571 l 8.1458435 -20.120178 l 20.472626 -37.803192 l -8.487366 14.003174 l 28.314423 -40.79608 l 0.0 0.0 l 6.743683 -6.69162 l 24.948578 -21.919067 l 19.326202 -13.547058 l 17.629242 -10.316406 l -86.8154 -220.56491 l -37.02545 16.076714 l -35.552673 18.933857 l -34.106903 21.886177 l -61.31978 54.75849 l 28.706223 -29.926743 l 0.0 0.0 l 0.0 0.0 l 0.0 7.6293945e-06 l -97.174866 128.79239 l 41.021515 -65.080124 l -20.908463 30.216248 l -50.812042 108.74165 l -10.3508 37.578766 l 24.184647 -75.374664 l -34.9283 199.33804 l -1.5113525 -42.095917 l 0.0 0.0 l 0.0 9.1552734e-05 l 1.5258789e-05 0.00033569336 l 4.5334473 -41.230072 l 1.6907349 126.0072 l 7.8361053 40.616577 l 10.494644 37.812256 l 31.245377 74.52832 l 19.383041 33.656006 l -36.61885 -70.27069 " /> </g> </svg>