<?xml version="1.0" standalone="no"?><!DOCTYPE svg PUBLIC "-//W3C//DTD SVG 1.1//EN" "http://www.w3.org/Graphics/SVG/1.1/DTD/svg11.dtd" ><svg xmlns="http://www.w3.org/2000/svg" xmlns:xlink="http://www.w3.org/1999/xlink" version="1.1" viewBox="-10 0 692 1000"><g transform="matrix(1 0 0 -1 0 800)"><path stroke="black" fill="none" d="M 357.00143 855.5708 l 35.697815 19.49884 l -134.39923 -95.99963 l 0.0 0.0 l 0.0 0.0 l 0.0 0.0 l -26.179611 -32.03949 l 90.57506 86.03595 l -32.89377 -25.495178 l 89.336395 -236.27258 l -4.19693 -24.532043 l 10.082367 48.20392 l 7.554535 22.733582 l -20.15805 -96.394165 l 0.0 0.0 l 0.0 0.0 l 0.0 0.0 l 0.8227234 -27.045654 l 2.4131775 -25.750427 l 4.0568542 -25.005493 l 5.6662292 -23.95398 l 82.91943 485.515 l -38.49762 -13.4991455 l -17.065826 -231.06995 l -10.911865 -20.934448 l 23.51593 40.99243 l 30.240936 37.401672 l 0.0 0.0 l 0.0 0.0 l 0.0 0.0 l -15.957214 -18.246826 l 34.05609 33.383057 l 18.93637 13.340393 l 56.87909 176.63232 l -41.292206 -7.498535 l 83.997894 11.999573 l 0.0 0.0 l 0.0 0.0 l 0.0 0.0 l 56.955994 -2.7597046 l -28.314026 2.06958 l 3.5426636 -137.71973 l 24.965332 0.88983154 l 0.0 0.0 l 0.0 0.0 l 0.0 0.0 l 15.56427 -1.0795898 l 15.157532 -1.8007202 l 14.72644 -2.5193481 l -17.624756 136.70728 l 27.662354 -4.8268433 l 27.376709 -6.2142944 l 27.021484 -7.584839 l -158.96729 -116.24231 l -23.244873 -4.4489746 l -22.426147 -6.243103 l -21.48346 -7.992676 l -20.680847 -9.793884 l 273.54108 135.74445 l 26.38263 -10.343262 l 26.084412 -11.731628 l 61.560486 30.373657 l 0.0 -29.835876 l 0.0 59.77301 l 0.0 -239.17657 l 0.0 29.881226 l 0.0 29.91809 l 0.0 29.880005 l -0.0071411133 -119.59967 l -15.228943 -11.681335 l 15.236084 -18.212769 l 0.0 0.0 l 0.0 0.0 l 0.0 0.0 l -30.166443 35.24701 l -14.844727 16.101013 l -13.9470825 14.328064 l -27.658752 25.863037 l 13.609741 -12.282654 l 73.007324 129.88873 l -6.1035156e-05 -29.695374 l -190.88855 -31.040222 l 13.887146 -3.9592285 l 26.515259 -10.07782 l -13.0390625 5.395447 l 37.88513 -18.357971 l 0.0 0.0 l 0.0 0.0 l 0.0 0.0 l -12.202515 6.8358154 l 37.81299 -25.502625 l -12.901611 9.874695 l -74.622375 -505.73578 l 13.718323 4.5461273 l -27.858948 -8.403503 l -14.454956 -3.142395 l -14.875916 -2.4514618 l 70.552246 19.25238 l 12.96283 5.946701 l 0.0 0.0 l 0.0 0.0 l 0.0 0.0 l 12.2092285 7.4395447 l 25.674744 18.71585 l -13.038574 -9.9913025 l 26.521057 21.2818 l 13.879211 12.550171 l 59.7641 62.997467 l 0.0 -29.638428 l -15.5616455 12.008942 l -29.881042 -31.516785 l 14.719543 15.109222 l 30.723389 -25.31836 l 0.0 -29.694824 l 0.0 -29.702408 l 0.0 -89.100464 l 0.0 29.703629 l 0.0 29.693436 l -0.0016479492 -89.09787 l -82.19458 -95.608116 l 27.394287 10.647743 l 27.403198 12.071438 l 27.398743 13.489307 l 0.0 0.0 l 0.0 0.0 l 0.0 0.0 l 0.0 29.698502 l -136.99634 -82.94744 l 27.393616 7.808174 l -54.801086 -14.199907 l -27.393799 -4.9688873 l -32.0672 221.61389 l -15.512939 -1.0421448 l -16.042236 -0.3521881 l 0.0 0.0 l 0.0 0.0 l 0.0 0.0 l -24.086609 2.646988 l -23.099915 4.390457 l -22.273499 6.1662903 l -21.334717 7.914322 l 12.176575 -241.17822 l 42.977478 -4.37975 l 71.856445 0.6695957 l -27.395752 -2.1296735 l 0.0 0.0 l 0.0 0.0 l 0.0 0.0 l -128.94165 13.140424 l -40.017456 10.219351 l -69.26843 371.81458 l 8.904755 -21.99701 l 22.663788 -41.055878 l -12.123077 20.005463 l 25.912231 -39.107117 l 0.0 0.0 l 0.0 0.0 l 3.0517578e-05 -3.0517578e-05 l 16.800995 -16.671356 l 17.802979 -15.01123 l 18.654968 -13.202515 l 19.535858 -11.431763 l -87.425476 -220.20268 l -37.059723 16.060123 l -35.579803 18.979656 l -34.100037 21.899902 l -61.498688 54.92874 l 28.878723 -30.108658 l 0.0 0.0 l 0.0 0.0 l 0.0 0.0 l -97.27922 128.95877 l 42.548676 -67.30353 l -22.786087 32.929886 l -50.164795 107.3801 l -10.637878 38.622284 l 24.319016 -75.83658 l -34.939926 200.27307 l -1.5397949 -42.914 l 0.0 0.0 l 0.0 0.0 l 0.0 0.0 l 4.559799 -41.4682 l 1.6006775 125.95044 l 7.701004 40.203064 l 10.777893 38.83246 l 30.803284 73.60681 l 20.01532 34.751892 l -36.957504 -70.87555 " /> </g> </svg>