<?xml version="1.0" standalone="no"?><!DOCTYPE svg PUBLIC "-//W3C//DTD SVG 1.1//EN" "http://www.w3.org/Graphics/SVG/1.1/DTD/svg11.dtd" ><svg xmlns="http://www.w3.org/2000/svg" xmlns:xlink="http://www.w3.org/1999/xlink" version="1.1" viewBox="-10 0 692 1000"><g transform="matrix(1 0 0 -1 0 800)"><path stroke="black" fill="none" d="M 357.67218 855.9538 l 32.22116 17.584656 l -133.33063 -95.53546 l 0.0 0.0 l -0.0025024414 -0.0030517578 l -0.49609375 -0.6081543 l -24.947128 -30.5318 l 82.771225 79.70886 l -23.042023 -17.858826 l 83.65369 -256.22534 l -0.08218384 -0.46343994 l 14.571472 58.731567 l 0.15786743 0.4831543 l -18.241364 -93.451416 l 0.0 0.0 l 2.2749023 -36.97574 l 9.304901 -56.554504 l 0.1737976 -0.7679138 l 81.51651 479.79523 l -34.721497 -12.17926 l -26.260132 -246.81927 l -0.19818115 -0.37408447 l 19.205353 33.08313 l 22.534546 29.472107 l 0.0 0.0 l -2.3292542 -2.6566162 l 43.677216 38.225647 l 0.42236328 0.29907227 l 52.352844 178.20898 l -28.932434 -5.260193 l 80.73981 11.358032 l 0.0 0.0 l 0.0013427734 -6.1035156e-05 l 0.07647705 -0.0036010742 l 50.437134 -2.2921143 l -18.88208 1.3814087 l 7.8406982 -137.27307 l 0.0335083 0.0009765625 l 20.952576 0.43060303 l 0.0 0.0 l 3.0855103 -0.21734619 l 27.030334 -2.916748 l 0.120788574 -0.02130127 l 8.990234 -1.552124 l 6.44989 132.51324 l 1.0427246 -0.17669678 l 52.516052 -12.699829 l 0.66381836 -0.18395996 l -157.64832 -119.088745 l -15.031616 -2.8718872 l -42.973694 -13.433411 l 0.0 0.0 l -22.323181 -10.144043 l 0.010192871 0.0045776367 l 290.96838 127.017456 l 0.83117676 -0.3256836 l 31.20758 -13.68811 l -0.04144287 0.019042969 l 62.32556 15.61438 l 0.0 0.0 l 0.017333984 30.081299 l 0.00982666 -202.04028 l 0.0 1.1904297 l 0.0 57.55609 l 0.0 0.7793579 l -11.311584 -121.666016 l -0.41125488 -0.24938965 l 11.695374 -20.119568 l 0.0 0.0 l -0.00061035156 0.004272461 l -34.5119 39.76953 l 0.0 0.0 l -0.060791016 0.06542969 l -33.7099 34.63916 l 0.0 0.0 l 68.790405 111.73584 l -189.03595 -38.690186 l 0.059143066 -0.01763916 l 9.221924 -2.6435547 l 19.07135 -6.6723022 l -0.1751709 0.07305908 l 26.601807 -12.5703125 l 0.0 0.0 l 41.357788 -29.691406 l -85.02472 -485.9205 l 0.16503906 0.053085327 l -40.98224 -10.7344055 l 0.0 0.0 l -4.9141235 -0.7168274 l 74.01587 23.01529 l 0.90216064 0.4052124 l 0.0 0.0 l 11.68219 7.033798 l -0.00579834 -0.0033569336 l 17.542603 12.278229 l -0.10491943 -0.08111572 l 33.27301 27.859497 l 0.23968506 0.21575928 l 61.994995 43.204773 l 0.0 0.0 l -1.6153564 11.590607 l -31.476807 -26.397766 l 0.38537598 0.3949585 l 33.847412 -25.12323 l 0.0 -0.023376465 l 0.001159668 -21.437317 l 0.015136719 -33.544968 l -0.021240234 -89.80989 l 0.0 0.03187561 l -6.1035156e-05 35.403503 l 0.0 19.32695 l -2.5967407 -85.736984 l -73.561035 -92.62284 l 18.229004 7.0728073 l 32.55536 14.346966 l 25.371704 13.879696 l 0.0 0.0 l -0.00012207031 0.1654129 l -0.002319336 25.668556 l -131.1607 -78.891525 l 17.271301 4.9181137 l -56.448975 -14.053926 l -17.67749 -3.2090392 l -56.05725 219.9212 l -9.832092 -0.3425598 l 0.0 0.0 l -42.993896 5.9412994 l 0.0 0.0 l -43.84796 13.110443 l -0.4961548 0.18321228 l 10.148621 -239.61766 l 39.028625 -3.9834368 l 66.203735 0.02959919 l -20.578186 -1.6005218 l -0.0033569336 -0.00026202202 l 0.0 0.0 l -131.6442 13.799118 l -36.0101 9.190373 l -66.881226 363.4041 l 0.0 0.0 l 0.70983887 -1.6165771 l 19.92572 -40.456146 l 0.0 0.0 l 26.76477 -37.12616 l 35.339355 -30.296692 l 26.53247 -17.24585 l 0.43399048 -0.25509644 l -83.53946 -222.54074 l -36.65732 16.254822 l -35.261627 18.442162 l -34.180237 21.73883 l -59.399323 52.930748 l 26.841614 -27.961296 l 0.0007324219 -0.0007171631 l 0.0 0.0 l -0.00015258789 0.0001373291 l -96.04253 126.9945 l 0.16694641 -0.2662201 l 24.459213 -40.943893 l -0.9797516 1.4144745 l -57.531525 123.02783 l -7.268753 26.37555 l 22.74205 -70.415375 l -34.803635 189.29968 l -1.1746368 -32.506622 l 0.0 0.0 l 3.4711304 -32.44699 l 0.74824524 -7.028137 l 2.6575775 126.61716 l 9.286575 45.055176 l 7.4536743 26.85968 l 35.991653 84.42163 l 12.595093 21.890625 l -32.98314 -63.777283 " /> </g> </svg>