<?xml version="1.0" standalone="no"?><!DOCTYPE svg PUBLIC "-//W3C//DTD SVG 1.1//EN" "http://www.w3.org/Graphics/SVG/1.1/DTD/svg11.dtd" ><svg xmlns="http://www.w3.org/2000/svg" xmlns:xlink="http://www.w3.org/1999/xlink" version="1.1" viewBox="-10 0 692 1000"><g transform="matrix(1 0 0 -1 0 800)"><path stroke="black" fill="none" d="M 357.19687 855.68243 l 34.68109 18.939026 l -134.06308 -95.83484 l 0.0 0.0 l -0.00012207031 -0.00018310547 l -0.0007019043 -0.0008544922 l -25.987839 -31.805298 l 88.29286 84.18561 l -30.012665 -23.261963 l 87.6745 -242.10773 l -2.7792969 -16.223877 l 11.180908 50.013367 l 5.027191 15.13678 l -19.255707 -93.9068 l 0.0 0.0 l 0.00030517578 -0.0078125 l 2.6536255 -46.100952 l 0.0 0.0 l 5.9149475 -36.82965 l 3.9085388 -16.540344 l 82.660614 483.20935 l -37.39331 -13.113159 l -19.75467 -235.67578 l -7.152008 -13.712097 l 21.628632 37.469788 l 29.892914 37.266968 l 0.0 0.0 l -0.10861206 -0.12451172 l -13.768158 -15.746521 l 36.86911 34.798523 l 12.625519 8.895996 l 56.451874 177.72394 l -37.677612 -6.843994 l 83.02661 11.812866 l 0.0 0.0 l 0.00012207031 0.0 l 0.00030517578 0.0 l 55.090393 -2.624878 l -25.555725 1.8682861 l 4.7996216 -137.58905 l 0.41394043 0.012207031 l 22.685242 0.7932129 l 0.0 0.0 l 0.012451172 -0.00091552734 l 12.603882 -0.8760376 l 18.630676 -2.1271973 l 0.55010986 -0.097229004 l 12.534119 -2.1455078 l -10.5842285 135.48077 l 19.483093 -3.397644 l 35.123047 -8.180237 l 18.461731 -5.18042 l -157.72998 -117.31482 l -20.842896 -3.987793 l -39.16333 -12.320251 l -0.8355713 -0.30963135 l -24.798157 -11.267517 l 0.04736328 0.02130127 l 278.5932 133.1723 l 18.378052 -7.204956 l 28.114868 -12.512512 l 61.777405 8.948975 l 0.00030517578 -1.0183716 l -0.0005493164 48.111633 l 0.0028686523 -228.31616 l 0.0 21.177795 l 0.0 38.3136 l 0.0 20.60608 l -3.3131104 -119.44037 l -10.104248 -7.690857 l 13.414978 -19.457092 l 0.0 0.0 l 0.0 0.00018310547 l -0.00018310547 0.0012817383 l -33.152344 38.469727 l -0.35083008 0.3803711 l -20.460571 21.625244 l -21.998901 21.39624 l 0.5513916 -0.49102783 l 75.454956 104.795044 l 0.0 0.0 l -190.24762 -37.98706 l 0.24676514 -0.07348633 l 12.293335 -3.5061035 l 24.326721 -9.077087 l -7.951355 3.2919312 l 28.149475 -13.232239 l 0.0 0.0 l -1.3562622 0.760437 l 25.99231 -17.201477 l 0.0 0.0 l -76.07373 -501.28888 l 8.318909 2.7510986 l -36.638306 -10.024918 l -0.4486084 -0.09970093 l -15.382202 -2.6529999 l 71.565125 20.352829 l 9.504761 4.3562775 l 0.011230469 0.0051116943 l 0.0 0.0 l 11.9748535 7.285614 l -0.01776123 -0.010345459 l 23.277832 16.815918 l -7.777649 -5.964569 l 27.05188 22.103546 l 8.864319 8.013763 l 61.657227 43.290466 l 0.01965332 -1.405365 l -11.717468 7.1691284 l -30.347656 -30.019745 l 9.862976 10.123657 l 32.301575 -24.578888 l 0.00018310547 -0.12466431 l 0.00018310547 -27.16211 l 0.0043945312 -30.826157 l -0.006225586 -89.30792 l 0.0 31.379852 l 0.0 26.661804 l -0.7605591 -88.11499 l -79.66974 -94.73509 l 24.713928 9.602268 l 28.909912 12.736908 l 26.806335 13.296997 l 0.0 0.0 l 0.0 0.0031661987 l -0.00061035156 0.50237274 l -0.00048828125 28.36927 l -135.28973 -81.76131 l 24.43341 6.962986 l -55.28302 -14.157216 l -24.552307 -4.4542255 l -45.880432 220.58878 l 0.0 0.0 l -18.717102 -0.56681824 l 0.0 0.0 l 0.0032958984 0.00010681152 l -41.184937 5.870865 l -0.8713989 0.16511536 l -32.17804 8.888046 l -14.251648 5.2860107 l 10.5946045 -240.35446 l 41.822693 -4.2638497 l 70.20331 0.48243117 l -25.433533 -1.9773983 l -0.0008544922 -6.6399574e-05 l 0.0 0.0 l 0.00012207031 1.2874603e-05 l -129.70071 13.335506 l -38.84552 9.918431 l -68.55307 369.30988 l 0.009002686 -0.02053833 l 6.4819336 -15.971191 l 15.143524 -29.892303 l -0.3928833 0.64282227 l 26.612183 -37.912537 l 0.0 0.0 l 32.903107 -29.368652 l 20.95874 -14.384979 l 12.992218 -7.6037903 l -85.331665 -221.44583 l -36.942047 16.117062 l -35.486755 18.822468 l -34.123505 21.852798 l -60.88472 54.34443 l 28.285873 -29.48352 l 0.0 0.0 l -3.0517578e-05 1.5258789e-05 l -3.0517578e-05 2.2888184e-05 l -96.92023 128.38696 l 37.307297 -59.672592 l -16.341873 23.61641 l -52.3862 112.05313 l -9.652588 35.04077 l 23.85785 -74.25119 l -34.90007 197.06396 l -1.440094 -40.052856 l 0.0 0.0 l 6.1035156e-05 0.0014648438 l 3.5024261 -31.641327 l 0.96484375 -9.063019 l 1.9097595 126.145386 l 8.164703 41.62207 l 9.80574 35.331055 l 32.320602 76.76959 l 17.845291 30.990662 l -35.79521 -68.79968 " /> </g> </svg>