<?xml version="1.0" standalone="no"?><!DOCTYPE svg PUBLIC "-//W3C//DTD SVG 1.1//EN" "http://www.w3.org/Graphics/SVG/1.1/DTD/svg11.dtd" ><svg xmlns="http://www.w3.org/2000/svg" xmlns:xlink="http://www.w3.org/1999/xlink" version="1.1" viewBox="-10 0 692 1000"><g transform="matrix(1 0 0 -1 0 800)"><path stroke="black" fill="none" d="M 359.29495 856.88043 l 23.822449 12.960571 l -131.69287 -95.571045 l 0.0 0.0 l -0.13781738 -0.16894531 l -22.591278 -27.65155 l 63.91913 64.42432 l -0.98236084 -0.760437 l 80.462524 -253.60211 l 0.0 0.0 l 12.073883 48.23456 l 0.0 0.0 l -14.937103 -124.93713 l 0.0 0.0 l 11.468079 -64.48996 l 0.0 0.0 l 73.51938 483.64536 l -25.599396 -8.990601 l -26.057861 -242.6123 l 0.0 0.0 l 12.062164 21.017334 l 25.811554 34.788513 l 0.0 0.0 l 39.98648 35.21991 l 0.0 0.0 l 32.747528 176.04968 l -1.2269287 -0.23651123 l 75.756165 10.157166 l 0.0 0.0 l 0.05706787 -0.0026855469 l 34.16339 -1.1376343 l -0.6577759 0.049560547 l 22.784485 -136.52484 l 0.0 0.0 l 9.401855 -0.68499756 l 0.0 0.0 l 26.218811 -3.0302124 l 0.0 0.0 l 0.22338867 -0.04296875 l 23.473999 129.34424 l 0.0 0.0 l 38.706238 -9.788269 l 0.0 0.0 l -165.3341 -122.707886 l -0.472229 -0.08605957 l -55.28369 -18.580261 l -6.4381104 -2.8804321 l 0.0 0.0 l 287.38617 123.86383 l 0.0 0.0 l 28.406311 -12.453308 l -0.009460449 0.004333496 l 63.779724 45.04596 l 0.0 0.0 l 0.3546753 -190.90375 l 0.0 0.0 l 6.1035156e-05 42.80536 l 0.0 0.0 l -10.983643 -122.271484 l 0.0 0.0 l 10.663513 -12.317017 l 0.0 0.0 l -45.64917 49.82495 l 0.0 0.0 l -6.0700684 6.3708496 l 57.631775 130.45221 l -190.80731 -42.220276 l 0.0 0.0 l 0.4697876 -0.14611816 l 26.476013 -9.048279 l 0.0 0.0 l 79.55609 -53.22351 l 0.0 0.0 l -102.204956 -474.70874 l 0.0 0.0 l -41.508423 -10.508682 l 0.0 0.0 l 76.41907 24.592392 l 0.0 0.0 l 6.3534546 3.9301758 l 0.0 0.0 l 26.60382 18.966919 l 0.0 0.0 l 24.995972 21.061615 l 0.0 0.0 l 61.597412 42.48767 l 0.0 0.0 l -27.662415 -9.329468 l 0.0 0.0 l 31.636414 -34.34259 l 0.0 0.0 l 0.0036621094 -1.9351196 l 0.051696777 -42.82756 l -0.0725708 -91.5237 l 0.0 0.008544922 l -6.1035156e-05 49.27324 l 0.0 0.49649048 l -8.865967 -83.830246 l -52.704712 -85.41118 l 0.59887695 0.21984863 l 40.491028 18.060894 l 20.46112 27.044334 l 0.0 0.0 l 0.005493164 4.281517 l -117.06354 -69.098305 l 0.32928467 0.09220314 l -67.94061 -15.856973 l -0.44543457 -0.082297325 l -73.214966 219.41623 l 0.0 0.0 l -33.52063 4.999588 l -47.86078 13.3862 l 0.0 0.0 l 15.732849 -239.8089 l 29.489136 -3.0260482 l 52.5484 -1.5164651 l -2.9380493 -0.230394 l 0.0 0.0 l -139.35504 15.29762 l -26.329376 6.704632 l -50.91919 323.89813 l 0.0 0.0 l 24.713898 -35.16754 l 0.0 0.0 l 54.541443 -44.65143 l 9.009094 -5.521393 l 0.0 0.0 l -83.3096 -222.93614 l -0.26345825 0.13535309 l -35.42166 16.589802 l -34.493103 17.143707 l -34.37387 21.34974 l -54.32788 48.10412 l 21.813538 -22.66803 l 0.0026550293 -0.0026550293 l 0.0 0.0 l -92.9487 122.144196 l 0.015365601 -0.024505615 l 20.178497 -34.256958 l 0.0 0.0 l -62.492783 142.21638 l -0.23420715 0.83166504 l 20.03688 -61.3602 l -34.474396 162.79086 l -0.059188843 -1.5039978 l 3.0486603 -39.442413 l 0.11503601 -1.0791931 l 5.210739 128.22787 l 13.116943 56.77655 l 0.27191162 0.9869385 l 47.676712 107.49719 l 0.16316223 0.28814697 l -28.87555 -56.0968 " /> </g> </svg>