<?xml version="1.0" standalone="no"?><!DOCTYPE svg PUBLIC "-//W3C//DTD SVG 1.1//EN" "http://www.w3.org/Graphics/SVG/1.1/DTD/svg11.dtd" ><svg xmlns="http://www.w3.org/2000/svg" xmlns:xlink="http://www.w3.org/1999/xlink" version="1.1" viewBox="-10 0 692 1000"><g transform="matrix(1 0 0 -1 0 800)"><path stroke="black" fill="none" d="M 367.0 1689.0 l 0.0 -82.80005 l 0.0 -82.79993 l 0.0 -82.80005 l 0.0 -82.79993 l 0.0 -82.80005 l 0.0 -82.80005 l 0.0 -82.79993 l 0.0 -82.80005 l 16.101593 -149.67242 l 0.0 0.0 l -141.36949 -118.95087 l 0.0 0.0 l 45.712326 46.766724 l 91.3197 -350.76654 l 0.0 0.0 l 58.378113 442.0902 l 0.0 0.0 l 59.003296 -150.92065 l 0.0 0.0 l -15.385529 205.45355 l 28.260101 -20.259338 l 106.55612 -3.3393555 l 0.0 0.0 l -41.93622 61.39868 l 32.399963 7.0 l 33.119995 4.200012 l 0.0 0.0 l 92.966125 -224.57886 l 0.0 0.0 l -24.216553 164.11731 l 43.510437 47.231567 l -151.84021 -202.12823 l 0.0 0.0 l 231.84784 97.68872 l 0.0 0.0 l 20.372375 64.74951 l 43.109497 -15.977539 l 5.0927734 -190.38458 l 0.0 0.0 l 40.29773 140.2121 l 0.0 0.0 l 24.890015 -29.919983 l 22.27002 -31.359985 l 19.649963 -32.80005 l 17.03003 -34.23999 l 14.410034 -35.679993 l -197.32031 -19.29773 l 0.0 0.0 l 218.28027 -56.382263 l 6.5499268 -40.0 l 3.9300537 -41.440002 l 0.0 0.0 l -1.3199463 -44.22003 l -3.960083 -42.659973 l -6.5999756 -41.100006 l -9.23999 -39.539978 l -292.23273 -133.48868 l 0.0 0.0 l 265.8327 59.088654 l -17.159973 -34.859985 l -161.84082 44.03485 l 0.0 0.0 l 119.60083 -109.07486 l 0.0 0.0 l -26.890015 -27.73999 l -56.071228 19.43869 l 0.0 0.0 l -2.5896606 -63.065643 l 0.0 0.0 l -30.289124 -22.073051 l -26.837952 -59.88645 l 53.27545 6.1161575 l 0.0 0.0 l -175.89014 -60.354073 l 0.0 0.0 l -163.19214 240.63216 l 0.0 0.0 l 67.55603 -246.31538 l 0.0 0.0 l 28.870422 -1.1095834 l 6.9283447 71.11718 l -32.72003 3.899994 l -32.0 6.5 l -96.03644 -61.45289 l 0.0 0.0 l 34.196472 82.25289 l -29.839996 14.300003 l -29.120026 16.899994 l -28.399994 19.5 l -3.3065186 186.4513 l 0.0 0.0 l -24.373322 -174.54587 l -0.00015258789 -10.205414 l 0.0 -10.200012 l 0.0 -10.199997 l 0.0 -10.199997 l 0.0 -10.199997 l 0.0 -10.200005 l 0.0 -10.199997 l 0.0007019043 -10.201286 l -1.4674683 -34.012352 l 0.0 0.0 l -21.033234 23.813637 l -22.910126 -2.4253616 l -22.089874 2.4253616 l -15.202667 13.06028 l -29.614471 26.516045 l 0.0 0.0 l -22.682861 -39.576324 l -12.931671 73.63338 l 0.0 0.0 l -32.06833 -73.63338 l -22.5 0.0 l -22.5 0.0 l 6.7690277 192.7951 l 0.0 0.0 l -42.65535 163.32272 l 0.0 0.0 l 18.880829 155.87473 l 0.0 0.0 l 26.389648 74.02203 l 0.0 0.0 l -9.384155 258.4854 l 0.0 168.90002 l 0.0 168.8999 l 0.0 168.90002 l 0.0 168.90002 l 0.0 168.8999 l 22.5 0.0 l 22.5 0.0 l 22.5 0.0 l 22.5 0.0 l 22.5 0.0 l 22.5 0.0 l 22.5 0.0 l 22.5 0.0 l 22.5 0.0 l 22.5 0.0 " /> </g> </svg>