<?xml version="1.0" standalone="no"?><!DOCTYPE svg PUBLIC "-//W3C//DTD SVG 1.1//EN" "http://www.w3.org/Graphics/SVG/1.1/DTD/svg11.dtd" ><svg xmlns="http://www.w3.org/2000/svg" xmlns:xlink="http://www.w3.org/1999/xlink" version="1.1" viewBox="-10 0 692 1000"><g transform="matrix(1 0 0 -1 0 800)"><path stroke="black" fill="none" d="M 367.0 1689.0 l 0.0 -82.80005 l 0.0 -82.79993 l 0.0 -82.80005 l 0.0 -82.79993 l 0.0 -82.80005 l 0.0 -82.80005 l 0.0 -82.79993 l 0.0 -82.80005 l 16.751953 -155.75427 l 0.73760986 0.3505249 l -141.751 -111.20093 l 0.0 0.0 l -3.3980103 -4.1505737 l 57.071198 56.764038 l 0.0 0.0 l 93.10129 -206.60895 l 0.0 0.0 l -10.758423 -152.08691 l 0.0 0.0 l 60.38626 441.1115 l -0.7453308 -0.27496338 l -3.8001099 -202.50641 l 0.0 0.0 l 69.90805 60.776 l 0.0 0.0 l -23.74347 197.58093 l 36.063843 -32.209534 l 0.0 0.0 l 87.48981 8.607666 l 0.0 0.0 l 17.751648 -0.37078857 l 0.0 0.0 l -48.425293 61.772644 l 32.399963 7.0 l 33.119995 4.200012 l 0.0 0.0 l 15.779175 -210.0307 l 0.0 0.0 l 49.450806 -7.737976 l 0.0 0.0 l 12.907166 131.71613 l 0.0 0.0 l 34.122864 72.82257 l -174.67377 -204.92249 l 0.0 0.0 l -31.973083 -10.240662 l 0.0 0.0 l 274.3047 109.3913 l 10.604614 -4.892761 l 0.0 0.0 l 56.200134 60.5943 l 14.116455 -195.97717 l 0.0 0.0 l -10.77533 -93.06189 l 0.0 0.0 l -39.93274 43.834473 l 0.0 0.0 l 91.00903 189.43488 l 0.0 0.0 l 24.890015 -29.919983 l 22.27002 -31.359985 l 19.649963 -32.80005 l 17.03003 -34.23999 l 14.410034 -35.679993 l -296.81934 53.925293 l 0.0 0.0 l 79.7384 -53.402588 l 0.0 0.0 l 238.0409 -76.2027 l 6.5499268 -40.0 l 3.9300537 -41.440002 l 0.0 0.0 l -1.3199463 -44.22003 l -3.960083 -42.659973 l -6.5999756 -41.100006 l -9.23999 -39.539978 l -413.08832 -163.38527 l 0.0 0.0 l 118.714966 28.455887 l 0.0 0.0 l 267.97333 60.529358 l -17.159973 -34.859985 l -192.76727 18.483429 l 0.0 0.0 l 42.34674 28.39746 l 0.0 0.0 l 108.18054 -111.9209 l 0.0 0.0 l -26.890015 -27.73999 l -58.456177 77.539764 l 0.0 0.0 l 0.024475098 -1.3061523 l -0.2479248 -97.375046 l 0.0 0.0 l 0.00012207031 38.04869 l 0.0 0.0 l -30.270508 -82.60726 l -30.40271 -78.68833 l 0.0 0.0 l 56.896667 25.462738 l 3.2615356 21.497787 l 0.0 0.0 l -126.30066 -70.634186 l 0.0 0.0 l -53.37616 -12.341635 l 0.0 0.0 l -133.74323 228.55008 l 0.0 0.0 l -8.185425 2.6579285 l 22.365723 -236.62204 l 1.1547852 -0.15703964 l 53.66443 -2.3195162 l 0.0 0.0 l 5.375061 72.79421 l -32.72003 3.899994 l -32.0 6.5 l -101.00964 -62.40779 l -0.680542 0.15965271 l 39.85022 83.04814 l -29.839996 14.300003 l -29.120026 16.899994 l -28.399994 19.5 l -7.824127 190.92032 l 0.0 0.0 l 86.50699 -83.86612 l 0.0 0.0 l -106.3627 -95.14877 l -0.00015258789 -10.205414 l 0.0 -10.200012 l 0.0 -10.199997 l 0.0 -10.199997 l 0.0 -10.199997 l 0.0 -10.200005 l 0.0 -10.199997 l 0.0007019043 -10.201286 l 18.70401 -44.375946 l -0.024902344 0.012786865 l -32.340973 18.3182 l -31.86908 12.71051 l -21.969757 3.1357346 l -13.065308 16.885544 l -37.012817 31.625008 l 3.5279846 -3.489891 l 0.0 0.0 l -20.94986 -45.02066 l -60.30757 149.48933 l 0.0 0.0 l 4.2301636 -8.7387085 l 11.077408 -140.75063 l -22.5 0.0 l -22.5 0.0 l -19.964828 265.97662 l 0.0 0.0 l 13.215912 -41.03653 l -30.65915 140.47504 l 0.0 0.0 l 2.9934998 -26.972412 l 0.0 0.0 l 11.551727 152.75986 l 6.2731934 24.45819 l 0.0 0.0 l 38.400146 91.88635 l 0.0 0.0 l -12.288361 -23.956177 l -9.5221405 260.90906 l 0.0 168.90002 l 0.0 168.8999 l 0.0 168.90002 l 0.0 168.90002 l 0.0 168.8999 l 22.5 0.0 l 22.5 0.0 l 22.5 0.0 l 22.5 0.0 l 22.5 0.0 l 22.5 0.0 l 22.5 0.0 l 22.5 0.0 l 22.5 0.0 l 22.5 0.0 " /> </g> </svg>