<?xml version="1.0" standalone="no"?><!DOCTYPE svg PUBLIC "-//W3C//DTD SVG 1.1//EN" "http://www.w3.org/Graphics/SVG/1.1/DTD/svg11.dtd" ><svg xmlns="http://www.w3.org/2000/svg" xmlns:xlink="http://www.w3.org/1999/xlink" version="1.1" viewBox="-10 0 692 1000"><g transform="matrix(1 0 0 -1 0 800)"><path stroke="black" fill="none" d="M 1069.6942 1689.0 l 0.0 0.0 l -32.32251 0.0 l 0.904541 0.0 l -66.17157 0.0 l 18.208313 0.0 l 0.0 0.0 l -116.221436 0.0 l 0.0 0.0 l 47.57007 0.0 l 0.0 0.0 l -88.52118 -80.14526 l -0.018615723 -76.04736 l 255.23242 -15.816406 l 0.0053710938 -165.0575 l -0.037475586 -328.85327 l 0.013061523 155.75073 l -255.156 -392.92822 l 255.15613 57.094543 l -0.010375977 -165.10645 l -283.92114 132.20251 l -27.909485 20.355896 l 311.82013 -482.98212 l 0.016601562 155.87149 l -0.4107666 -334.45605 l -251.83582 -91.84925 l 0.047729492 -0.019165039 l 26.227356 -3.4019547 l 0.0009765625 -0.22418976 l -0.054626465 -10.1186905 l 0.06384277 29.343918 l 0.0 9.246017 l 0.0 0.104156494 l 0.0 0.0 l 0.0 -0.0005569458 l 24.02887 -101.9627 l 17.715332 6.558593e-05 l 30.94934 -0.000118883094 l 14.9591675 -2.6660855e-06 l -87.65271 43.24263 l 0.0 -0.19049454 l 0.0 -11.201134 l 0.0 -11.719179 l 0.0 -0.009109497 l 0.0 -12.376591 l 0.0 0.18836308 l 220.87305 -7.9344935 l -15.430908 -3.8402504e-08 l -23.624634 1.1240481e-06 l -40.33734 -1.2086675e-06 l -0.8638916 -4.0599843e-09 l -27.008179 8.941424e-08 l 0.037963867 7.1304385e-09 l -168.20874 55.180405 l -28.347961 -19.480927 l -29.10553 -16.900301 l -29.744934 -14.282949 l -30.44342 -11.685493 l -31.141907 -9.0880375 l -31.840454 -6.4905796 l -32.56311 -3.9519825 l 0.0 0.0 l 0.0 1.9073486e-06 l 0.0 1.9073486e-06 l -40.037537 1.5488834 l -36.83557 4.2483616 l -37.668365 7.541335 l -34.171967 9.9079685 l -34.256073 13.313836 l -32.529755 16.06 l -31.169525 18.980001 l -29.809296 21.899998 l -28.441956 24.759605 l 0.0 0.0 l 0.0 0.0 l 0.0 7.6293945e-06 l -25.3107 31.148254 l -21.617767 31.081192 l -19.862518 33.816742 l -17.042435 34.97563 l -14.421539 36.45549 l -11.800629 37.935364 l -9.179718 39.415222 l -6.5588074 40.89514 l -3.895935 42.416718 l 0.0 0.0 l 0.0 0.0 l 0.0 0.0 l 1.2586823 42.927704 l 3.931488 41.440277 l 6.552475 40.000427 l 9.173477 38.560608 l 11.794464 37.12079 l 14.415451 35.68091 l 17.036453 34.24115 l 19.657425 32.80127 l 22.290146 31.307068 l 0.0 0.0 l 0.0 0.0 l 0.0 0.0 l 26.668701 27.985657 l 56.802704 46.569153 l -28.46872 -21.389343 l 59.67108 40.93103 l 32.037903 16.177185 l 33.37802 13.237061 l 34.71817 10.296936 l 36.05832 7.3568115 l 37.40387 4.3655396 l 0.0 0.0 l 0.0 0.0 l 0.0 0.0 l 33.853638 -1.3362427 l 33.11035 -4.192383 l 34.423157 -7.69104 l 28.64856 -8.864075 l 32.531433 -13.203491 l 29.28833 -14.916016 l 86.773254 36.3739 l 0.0029296875 60.53534 l 0.008300781 259.1209 l 0.0 76.18152 l 0.0 89.24744 l 0.0 76.02258 l 0.0014648438 -330.3181 l 0.00036621094 -80.94299 " /> </g> </svg>