<?xml version="1.0" standalone="no"?><!DOCTYPE svg PUBLIC "-//W3C//DTD SVG 1.1//EN" "http://www.w3.org/Graphics/SVG/1.1/DTD/svg11.dtd" ><svg xmlns="http://www.w3.org/2000/svg" xmlns:xlink="http://www.w3.org/1999/xlink" version="1.1" viewBox="-10 0 692 1000"><g transform="matrix(1 0 0 -1 0 800)"><path stroke="black" fill="none" d="M 1067.3245 1689.0 l -16.379639 0.0 l 0.0 0.0 l -52.130127 0.0 l 0.0 0.0 l -74.24567 0.0 l 0.0 0.0 l -80.79169 -92.34985 l -0.0637207 -59.74536 l 254.97253 -27.4198 l 0.018554688 -155.78064 l -0.12805176 -307.25415 l 0.044677734 124.005615 l -254.71179 -384.57086 l 254.71228 53.484314 l -0.033447266 -1.4598999 l -0.0020751953 -154.4881 l -285.1311 127.59729 l -25.7594 18.800903 l 310.85474 -459.014 l 0.056640625 124.41788 l -1.4023438 -326.38312 l -249.14606 -92.45098 l 0.010314941 -0.004135132 l 24.562927 -6.372299 l 0.0 0.0 l -0.11279297 -1.8699646 l 0.22009277 26.433487 l -6.1035156e-05 6.8560333 l 0.0 0.14008331 l 0.0 0.0 l 27.478516 -101.572174 l 5.9226074 0.00022392417 l 51.106567 -0.00040589223 l 0.48083496 -2.4036344e-06 l -84.988525 42.47566 l 0.0 0.0 l 0.0 -7.6044693 l 0.0 -15.386805 l 0.0 -0.004240036 l 0.0 -11.110757 l 0.0 0.0 l 208.49548 -8.369417 l -0.6925049 -6.741175e-08 l -23.529175 3.7740392e-06 l -44.656677 -3.937719e-06 l 0.0 0.0 l -24.540894 1.0247459e-07 l 0.009399414 1.7680577e-09 l -169.55829 55.1331 l -28.343018 -19.434868 l -29.239502 -16.901031 l -29.732727 -14.241787 l -30.427551 -11.650472 l -31.122375 -9.059155 l -31.817322 -6.46784 l -32.595154 -4.0763474 l 0.0 0.0 l 0.0 1.5258789e-05 l 0.0 2.861023e-05 l -41.76941 1.7623081 l -34.121094 3.9305515 l -40.24762 8.123976 l -31.593536 9.1546545 l -35.16391 13.733515 l -32.553406 16.060001 l -31.192505 18.98 l -29.831665 21.900002 l -28.446747 24.614868 l 0.0 0.0 l 0.0 1.5258789e-05 l 0.0 3.0517578e-05 l -26.326324 32.61561 l -20.043137 28.814743 l -20.37558 34.58142 l -17.072464 34.965057 l -14.449371 36.44464 l -11.826294 37.924164 l -9.203186 39.403717 l -6.5800934 40.88333 l -3.8144073 42.50467 l 0.0 0.0 l -1.5258789e-05 0.0 l -1.5258789e-05 0.0 l 1.1355591 43.04364 l 3.935089 41.440887 l 6.5584564 40.001495 l 9.181854 38.562073 l 11.805222 37.12262 l 14.428635 35.683228 l 17.052002 34.243835 l 19.675385 32.804382 l 22.338577 31.180298 l 0.0 0.0 l 0.0 0.0 l 0.0 0.0 l 26.665741 28.118958 l 55.457275 45.432495 l -26.341064 -19.794495 l 58.780365 40.378418 l 32.056976 16.194458 l 33.39746 13.254089 l 34.737885 10.313599 l 36.07837 7.37323 l 37.437195 4.2591553 l 0.0 0.0 l 0.0 0.0 l 0.0 6.1035156e-05 l 33.88672 -1.1831055 l 33.087036 -4.1741333 l 39.307556 -9.359314 l 21.329895 -6.6046143 l 36.325317 -14.660339 l 26.990845 -13.74762 l 87.67432 76.38678 l 0.010009766 6.7836304 l 0.028320312 285.00354 l 0.0 60.203003 l 0.0 104.81287 l 6.1035156e-05 59.660522 l 0.0049438477 -328.18896 l 0.00079345703 -0.4777832 l 0.00048828125 -75.98181 " /> </g> </svg>