<?xml version="1.0" standalone="no"?><!DOCTYPE svg PUBLIC "-//W3C//DTD SVG 1.1//EN" "http://www.w3.org/Graphics/SVG/1.1/DTD/svg11.dtd" ><svg xmlns="http://www.w3.org/2000/svg" xmlns:xlink="http://www.w3.org/1999/xlink" version="1.1" viewBox="-10 0 692 1000"><g transform="matrix(1 0 0 -1 0 800)"><path stroke="black" fill="none" d="M 1054.5852 1689.0 l 0.0 0.0 l -117.18292 0.0 l 0.0 0.0 l -79.98816 -134.01892 l -0.21722412 -4.105957 l 254.08508 -67.01709 l 0.06347656 -124.107544 l -0.4375 -233.51025 l 0.15283203 15.620972 l -253.19531 -356.03687 l 253.1969 41.158142 l -0.0014648438 -0.064453125 l -0.11999512 -124.614624 l -289.26202 111.87402 l -18.41864 13.491821 l 307.55884 -377.1817 l 0.19311523 17.028534 l -4.7877197 -298.8203 l -239.96259 -94.505424 l 0.0 0.0 l 15.209412 -2.6609268 l 0.0 0.0 l 3.9920654 29.58268 l -6.1035156e-05 0.23387909 l 0.0 0.0 l 26.090881 -101.343575 l 0.012817383 8.6124055e-06 l 55.712646 -0.0020142053 l 0.0 0.0 l -81.81653 42.95458 l 6.1035156e-05 -0.098350525 l 6.1035156e-05 -25.57297 l 0.0 0.0 l -6.1035156e-05 -3.7974377 l 200.28058 -13.486152 l 0.0 0.0 l -7.6202393 9.190604e-06 l -64.79407 -1.1074801e-05 l -7.777588 -2.0195657e-06 l 0.0 0.0 l -174.2539 54.971596 l -28.326172 -19.27763 l -29.697021 -16.903519 l -29.690918 -14.101251 l -30.373352 -11.5309 l -31.055786 -8.960549 l -31.73822 -6.3901987 l -32.70691 -4.488901 l 0.0 0.0 l -6.1035156e-05 0.00015449524 l -0.00012207031 0.0006942749 l -47.680054 2.47826 l -24.853088 2.8454838 l -49.05371 10.113232 l -22.790314 6.582683 l -38.26346 15.166388 l -32.634064 16.059998 l -31.271057 18.98 l -29.90805 21.900002 l -28.464447 24.132187 l 0.0 0.0 l -3.0517578e-05 0.0001449585 l -6.1035156e-05 0.00062561035 l -29.79245 37.61341 l -14.666977 21.076584 l -22.127274 37.1922 l -17.174988 34.928986 l -14.544418 36.4075 l -11.913879 37.885986 l -9.283325 39.36444 l -6.6527557 40.842987 l -3.5440826 42.79712 l 0.0 0.0 l -9.1552734e-05 -9.1552734e-05 l -0.0004272461 -0.0004272461 l 0.72358704 43.447815 l 3.947342 41.443024 l 6.578888 40.005096 l 9.2104645 38.567017 l 11.841995 37.12903 l 14.473587 35.69104 l 17.105118 34.25305 l 19.73668 32.815063 l 22.50174 30.75763 l 0.0 0.0 l -3.0517578e-05 0.00012207031 l -0.00012207031 0.00048828125 l 26.65802 28.563232 l 50.86374 41.551575 l -19.076843 -14.349182 l 55.739227 38.491516 l 32.122192 16.253662 l 33.463745 13.312195 l 34.805206 10.370605 l 36.14676 7.429199 l 37.549988 3.9056396 l 0.0 0.0 l 0.0 0.00012207031 l -6.1035156e-05 0.0004272461 l 34.000916 -0.6703491 l 33.007446 -4.1117554 l 55.983704 -15.055237 l 0.69470215 -0.22210693 l 44.92627 -18.302612 l 19.146606 -9.758423 l 90.55298 81.260376 l 0.0 0.0 l 0.3287964 328.3753 l 6.1035156e-05 5.6500244 l 0.0 157.9552 l 6.1035156e-05 3.829956 l 0.016845703 -320.9524 l 6.1035156e-05 -0.036010742 l 0.0044555664 -61.116577 " /> </g> </svg>