<?xml version="1.0" standalone="no"?><!DOCTYPE svg PUBLIC "-//W3C//DTD SVG 1.1//EN" "http://www.w3.org/Graphics/SVG/1.1/DTD/svg11.dtd" ><svg xmlns="http://www.w3.org/2000/svg" xmlns:xlink="http://www.w3.org/1999/xlink" version="1.1" viewBox="-10 0 692 1000"><g transform="matrix(1 0 0 -1 0 800)"><path stroke="black" fill="none" d="M 1085.88 1689.0 l -22.06128 0.0 l -45.205383 0.0 l 22.433533 0.0 l -90.214905 0.0 l 22.863647 0.0 l 22.05426 0.0 l -113.26318 0.0 l -22.041199 0.0 l 45.4494 0.0 l 22.052124 0.0 l -96.99658 -75.1272 l -0.00012207031 -82.750244 l 255.33923 -11.04541 l 0.0 -168.87183 l -0.00024414062 -337.73407 l 0.00012207031 168.80328 l -255.33868 -396.36456 l 255.33868 58.57898 l -0.00012207031 -168.87207 l -283.42365 134.09601 l -28.793457 20.9953 l 312.2171 -492.837 l 0.00012207031 168.80411 l -0.0030517578 -337.77536 l -252.94183 -91.60184 l 26.945068 4.2431335 l 0.0 -10.104134 l -0.0004272461 -10.221809 l 0.00048828125 30.590752 l 0.0 10.194023 l 0.0 0.0 l 0.0 0.0 l 0.0 0.0 l 22.610474 -102.0 l 22.564087 4.826652e-07 l 22.661438 -8.748975e-07 l 22.543823 -1.9623258e-08 l -90.37982 50.94278 l 0.0 -10.102325 l 0.0 -10.231249 l 0.0 -10.21118 l 0.0 -20.340878 l 0.0 10.102192 l 225.96228 -10.15934 l -22.547241 -2.8376235e-10 l -22.607544 8.272764e-09 l -22.73053 -8.898496e-09 l -22.432434 -3.6379788e-11 l -22.640076 6.693881e-10 l -167.60419 55.199852 l -28.349976 -19.499859 l -29.050415 -16.900002 l -29.749939 -14.299875 l -30.450012 -11.699893 l -31.149902 -9.099912 l -31.849976 -6.4999313 l -32.55005 -3.900383 l 0.0 0.0 l 0.0 0.0 l 0.0 0.0 l -39.325256 1.4606552 l -37.951782 4.379032 l -36.60782 7.301775 l -35.232147 10.217704 l -33.882782 13.141279 l -32.52005 16.059998 l -31.160065 18.980001 l -29.80011 21.899998 l -28.440002 24.819557 l 0.0 0.0 l 0.0 0.0 l 0.0 0.0 l -24.893066 30.54448 l -22.265213 32.013092 l -19.651566 33.50232 l -17.03009 34.979965 l -14.41008 36.45999 l -11.7901 37.939972 l -9.170059 39.41992 l -6.550049 40.899994 l -3.9297638 42.38025 l 0.0 0.0 l 0.0 0.0 l 0.0 0.0 l 1.3096161 42.88034 l 3.9300232 41.440033 l 6.550003 40.00003 l 9.170044 38.559998 l 11.790024 37.119995 l 14.410049 35.679993 l 17.030045 34.23999 l 19.65004 32.799988 l 22.270157 31.35962 l 0.0 0.0 l 0.0 0.0 l 0.0 0.0 l 26.670013 27.930481 l 57.355865 47.0365 l -29.343506 -22.045105 l 60.037292 41.158264 l 32.03006 16.170044 l 33.370056 13.230103 l 34.710052 10.290039 l 36.05005 7.3500366 l 37.390137 4.409668 l 0.0 0.0 l 0.0 0.0 l 0.0 0.0 l 33.840088 -1.3995361 l 33.119934 -4.199951 l 32.414856 -7.005066 l 31.657715 -9.793152 l 30.971558 -12.604431 l 30.233032 -15.396423 l 86.40271 19.921997 l 0.0 82.63611 l 6.1035156e-05 248.47888 l 0.0 82.75134 l 0.0 82.847534 l 0.0 82.75 l 0.0 -331.19348 l 0.0 -82.78638 " /> </g> </svg>