<?xml version="1.0" standalone="no"?><!DOCTYPE svg PUBLIC "-//W3C//DTD SVG 1.1//EN" "http://www.w3.org/Graphics/SVG/1.1/DTD/svg11.dtd" ><svg xmlns="http://www.w3.org/2000/svg" xmlns:xlink="http://www.w3.org/1999/xlink" version="1.1" viewBox="-10 0 692 1000"><g transform="matrix(1 0 0 -1 0 800)"><path stroke="black" fill="none" d="M 1029.122 1689.0 l 0.0 0.0 l -159.9801 -127.19714 l 0.0 0.0 l 242.25134 -165.44067 l 0.21679688 -15.968872 l -185.5979 -508.1933 l 181.32654 246.08575 l 0.0 0.0 l -181.32654 -305.88574 l -63.3916 -26.782532 l 63.3916 -33.017517 l 0.0 -29.899963 l 0.0 -29.900024 l 184.63123 91.89142 l 0.0 0.0 l -0.41455078 -17.920288 l -184.21667 -133.77112 l 0.0 0.0 l -15.23999 18.210022 l -14.919983 17.029968 l -14.600037 15.850037 l -14.279968 14.669983 l -13.960022 13.48999 l -13.640015 12.309998 l -32.5094 100.402466 l -0.40625 0.32818604 l 6.595642 -79.650635 l -12.679993 8.77002 l 0.0 0.0 l -12.209961 6.839966 l -12.630005 6.119995 l -13.050049 5.4000244 l -13.469971 4.6799927 l -13.890015 3.960022 l -14.309998 3.2399902 l -14.72998 2.5199585 l -15.150024 1.8000488 l -15.570007 1.079956 l 0.0 0.0 l -24.96997 -0.8899536 l -24.109985 -2.670044 l -23.25 -4.450012 l -22.390015 -6.2299805 l -21.53003 -8.01001 l -20.669983 -9.789978 l -19.809998 -11.570007 l -18.949982 -13.349976 l -18.090027 -15.130005 l 0.0 0.0 l -15.959991 -18.25 l -14.279999 -19.150024 l -12.600006 -20.049988 l -10.919983 -20.950012 l -9.240021 -21.849976 l -7.5599976 -22.75 l -5.880005 -23.650024 l -4.1999817 -24.549988 l -2.519989 -25.450012 l 0.0 0.0 l 0.80999756 -26.910004 l 2.4299927 -25.929993 l 4.049988 -24.950012 l 5.6700134 -23.96997 l 7.2900085 -22.99002 l 8.909973 -22.00998 l 10.529999 -21.03003 l 12.150024 -20.049988 l 13.769989 -19.070007 l 0.0 0.0 l 16.850006 -16.720001 l 17.75 -14.959991 l 18.649994 -13.199982 l 19.549988 -11.440002 l 20.450043 -9.680008 l 21.349976 -7.919998 l 22.25 -6.1600037 l 23.150024 -4.399994 l 24.049988 -2.6400146 l 0.0 0.0 l 16.01001 0.3500061 l 15.629944 1.050003 l 15.25 1.75 l 14.870056 2.449997 l 14.48999 3.149994 l 14.109985 3.850006 l 13.72998 4.550003 l 13.350037 5.25 l 12.969971 5.949997 l 0.0 0.0 l 12.210022 7.4400024 l 12.630005 8.720001 l 13.049988 10.0 l 13.469971 11.279999 l 13.890015 12.559998 l 14.309998 13.839996 l 14.7300415 15.119995 l 15.149963 16.400024 l 15.570007 17.679993 l 203.26123 88.58975 l 0.0 0.0 l -203.26123 -147.98975 l 0.0 -29.700012 l 0.0 -29.699997 l 0.0 -29.700012 l 0.0 -29.699997 l 190.61353 -22.267395 l -190.61353 -37.1326 l -23.075073 -57.848816 l 0.0 0.0 l 5.578125 27.339752 l 0.0 0.0 l 34.51587 -100.55289 l 0.0 0.0 l 9.666992 0.005403567 l -44.18695 40.17443 l 0.0 0.0 l -0.00048828125 -15.240349 l 0.0 0.0 l 196.13324 -24.947296 l 0.0 0.0 l -96.20233 -0.00013336662 l 0.0 0.0 l -153.04523 54.42014 l -28.268555 -18.740791 l -10.715576 -9.449463 l -20.543457 -7.4625454 l -29.5484 -13.621429 l -30.188293 -11.122658 l -30.828308 -8.623885 l -31.468262 -6.1251144 l 0.030029297 0.11904907 l -33.14612 -5.875965 l 0.0 0.0 l -0.00048828125 0.0027580261 l -67.83276 4.782984 l -0.66516113 0.060070038 l -71.664764 15.985732 l -0.5623779 0.1467514 l 10.4583435 30.244255 l -51.476135 -12.531065 l -32.909454 16.06 l -31.539185 18.98 l -30.168884 21.900005 l -28.540558 22.617767 l 0.0 0.0 l -0.00030517578 0.0025405884 l -0.03640747 0.31060028 l -41.57457 54.233505 l -0.4104309 0.58047485 l -24.00914 40.182327 l -17.524994 34.805862 l -14.8689575 36.2807 l -12.212936 37.755585 l -9.5569 39.230377 l -6.9008484 40.70529 l -2.7139435 43.703156 l 0.0 0.0 l -0.0017547607 -0.001739502 l -23.9346 22.19461 l 0.0 0.0 l 23.343994 22.725067 l 3.9891968 41.450287 l 6.648651 40.017212 l 9.308121 38.583984 l 11.967575 37.15088 l 14.627045 35.717773 l 17.286499 34.284607 l 19.945953 32.85144 l 23.032867 29.434875 l 0.0 0.0 l -0.00048828125 0.0021972656 l -0.048553467 0.22528076 l 26.705963 29.734924 l 35.18033 28.301453 l -0.49154663 -0.38128662 l 51.57257 36.67273 l 32.34482 16.455688 l 33.690002 13.510559 l 35.035126 10.565369 l 36.38025 7.6202393 l 37.923096 2.8116455 l 0.0 0.0 l -0.00018310547 0.001953125 l 34.402588 0.96759033 l 0.037353516 0.17468262 l 32.698303 -4.0735474 l 54.585815 -15.817871 l 0.0 0.0 l 62.86731 -27.853333 l 0.40881348 -0.21166992 l -32.161438 63.8573 l 27.359985 -6.210022 l 27.039978 -7.590027 l 67.58533 26.67749 l 3.833252 363.79102 l 0.0 0.0 l 0.0004272461 121.29443 l 0.0 0.0 l 0.05822754 -330.79614 l 0.0 0.0 l 0.015380859 -8.890991 " /> </g> </svg>