<?xml version="1.0" standalone="no"?><!DOCTYPE svg PUBLIC "-//W3C//DTD SVG 1.1//EN" "http://www.w3.org/Graphics/SVG/1.1/DTD/svg11.dtd" ><svg xmlns="http://www.w3.org/2000/svg" xmlns:xlink="http://www.w3.org/1999/xlink" version="1.1" viewBox="-10 0 692 1000"><g transform="matrix(1 0 0 -1 0 800)"><path stroke="black" fill="none" d="M 1085.5903 1689.0 l -20.76062 0.0 l -45.218384 0.0 l 22.031494 0.0 l -89.76782 0.0 l 23.500183 0.0 l 20.736633 0.0 l -113.89838 0.0 l -20.692322 0.0 l 46.051575 0.0 l 20.729492 0.0 l -96.65027 -75.21704 l -0.00048828125 -82.63025 l 255.33734 -11.130859 l 0.00012207031 -168.80347 l -0.0009765625 -337.57513 l 0.00036621094 168.56964 l -255.33539 -396.30304 l 255.33539 58.55237 l -0.00024414062 -168.80463 l -283.43262 134.06213 l -28.777649 20.983826 l 312.21002 -492.6606 l 0.00036621094 168.57263 l -0.010375977 -337.71594 l -252.92194 -91.60626 l 26.933044 4.105858 l 0.00012207031 -9.872711 l -0.0014648438 -10.274448 l 0.0015869141 30.56844 l 0.0 10.17955 l 0.0 0.0 l 0.0 0.0 l 0.0 0.0 l 22.635864 -101.99998 l 22.477295 1.6479316e-06 l 22.809814 -2.9870862e-06 l 22.40802 -6.698974e-08 l -90.33099 50.804638 l 0.0 -9.866516 l 0.0 -10.30669 l 0.0 -10.238171 l 0.0 -20.198147 l 0.0 9.866064 l 225.87122 -10.061178 l -22.419922 -9.677024e-10 l -22.625732 2.8245267e-08 l -23.045654 -3.0369847e-08 l -22.027771 -1.382432e-10 l -22.736877 2.2846507e-09 l -167.61432 55.199505 l -28.349976 -19.499523 l -29.051392 -16.900005 l -29.749878 -14.299572 l -30.44983 -11.699635 l -31.14978 -9.099699 l -31.849792 -6.4997635 l -32.550293 -3.90131 l 0.0 0.0 l 0.0 0.0 l 0.0 0.0 l -39.338013 1.4622364 l -37.931763 4.3766937 l -36.62683 7.3060627 l -35.213165 10.21216 l -33.889465 13.144368 l -32.520233 16.059998 l -31.160248 18.980001 l -29.800262 21.899998 l -28.440033 24.818481 l 0.0 0.0 l 0.0 0.0 l 0.0 0.0 l -24.900543 30.55529 l -22.253632 31.996407 l -19.655334 33.50795 l -17.030304 34.97989 l -14.410294 36.459915 l -11.790283 37.93988 l -9.170242 39.41986 l -6.5502014 40.899902 l -3.9291534 42.38089 l 0.0 0.0 l 0.0 0.0 l 0.0 0.0 l 1.3087006 42.881195 l 3.9300537 41.440033 l 6.550049 40.00003 l 9.170105 38.559998 l 11.7901 37.120056 l 14.410141 35.679993 l 17.030167 34.23999 l 19.650177 32.80005 l 22.270508 31.358643 l 0.0 0.0 l 0.0 0.0 l 0.0 0.0 l 26.669983 27.931458 l 57.345978 47.028137 l -29.32785 -22.033386 l 60.03073 41.154236 l 32.03018 16.170166 l 33.37021 13.230225 l 34.710205 10.290161 l 36.0502 7.3501587 l 37.39038 4.4088745 l 0.0 0.0 l 0.0 0.0 l 0.0 0.0 l 33.840332 -1.3984375 l 33.11975 -4.199768 l 32.450806 -7.017334 l 31.603882 -9.77655 l 30.99945 -12.615112 l 30.216125 -15.387878 l 86.4093 20.216492 l 6.1035156e-05 82.24054 l 0.00024414062 248.66937 l 0.0 82.63379 l 0.0 82.962036 l 0.0 82.62964 l 6.1035156e-05 -331.17786 l 0.0 -82.75342 " /> </g> </svg>