<?xml version="1.0" standalone="no"?><!DOCTYPE svg PUBLIC "-//W3C//DTD SVG 1.1//EN" "http://www.w3.org/Graphics/SVG/1.1/DTD/svg11.dtd" ><svg xmlns="http://www.w3.org/2000/svg" xmlns:xlink="http://www.w3.org/1999/xlink" version="1.1" viewBox="-10 0 692 1000"><g transform="matrix(1 0 0 -1 0 800)"><path stroke="black" fill="none" d="M 1084.6012 1689.0 l -16.319824 0.0 l -45.26288 0.0 l 20.658875 0.0 l -88.24158 0.0 l 25.673584 0.0 l 16.238037 0.0 l -116.06726 0.0 l -16.086853 0.0 l 48.107483 0.0 l 16.213745 0.0 l -95.46796 -75.52368 l -0.0016479492 -82.22058 l 255.33081 -11.422485 l 0.00048828125 -168.57043 l -0.0031738281 -337.03235 l 0.0010986328 167.77197 l -255.32428 -396.09302 l 255.32428 58.46167 l -0.0008544922 -168.57452 l -283.463 133.94641 l -28.723694 20.944702 l 312.18573 -492.05832 l 0.0014648438 167.78232 l -0.03527832 -337.51312 l -252.85443 -91.62139 l 26.89215 3.6371536 l 0.00036621094 -9.082581 l -0.005004883 -10.45417 l 0.005493164 30.49224 l 0.0 10.129982 l 0.0 0.0 l 0.0 -7.6293945e-06 l 0.0 -7.6293945e-06 l 22.722534 -101.99971 l 22.18103 5.6263816e-06 l 23.316223 -1.0198557e-05 l 21.944519 -2.2871245e-07 l -90.16431 50.33299 l 0.0 -9.061405 l 0.0 -10.564264 l 0.0 -10.330324 l 0.0 -19.710833 l 0.0 9.059872 l 225.56018 -9.726033 l -21.984985 -3.2960088e-09 l -22.687866 9.6428266e-08 l -24.121643 -1.0368967e-07 l -20.646118 -4.7293724e-10 l -23.067383 7.799827e-09 l -167.64899 55.198315 l -28.349854 -19.498363 l -29.054749 -16.900024 l -29.749573 -14.298537 l -30.449402 -11.698755 l -31.149292 -9.098973 l -31.849243 -6.499193 l -32.551086 -3.9044685 l 0.0 0.0 l 0.0 0.0 l 0.0 0.0 l -39.38153 1.4676342 l -37.863586 4.3687077 l -36.69162 7.3207035 l -35.148376 10.193233 l -33.912262 13.154913 l -32.520844 16.059998 l -31.160828 18.98 l -29.800812 21.900005 l -28.440155 24.814804 l 0.0 0.0 l 0.0 0.0 l 0.0 0.0 l -24.926086 30.592194 l -22.21405 31.939453 l -19.668213 33.527176 l -17.031067 34.97963 l -14.4109955 36.459625 l -11.790924 37.939606 l -9.170822 39.419556 l -6.5507507 40.899597 l -3.9270782 42.38315 l 0.0 0.0 l 0.0 0.0 l 0.0 0.0 l 1.3055878 42.884094 l 3.93013 41.440033 l 6.5502014 40.00006 l 9.170319 38.56006 l 11.790375 37.120056 l 14.410461 35.680054 l 17.030563 34.240112 l 19.650635 32.80011 l 22.271729 31.355408 l 0.0 0.0 l 0.0 0.0 l 0.0 0.0 l 26.669891 27.934814 l 57.312195 46.999634 l -29.274414 -21.993347 l 60.00836 41.14032 l 32.03067 16.170593 l 33.370697 13.230652 l 34.710693 10.290588 l 36.05075 7.350647 l 37.391174 4.406128 l 0.0 0.0 l 0.0 0.0 l 0.0 0.0 l 33.841125 -1.3945312 l 33.1192 -4.199341 l 32.573547 -7.059265 l 31.419983 -9.719727 l 31.094788 -12.651794 l 30.158386 -15.358459 l 86.431946 21.221863 l 0.00024414062 80.88995 l 0.0007324219 249.31964 l 0.0 82.2323 l 0.0 83.35315 l 0.0 82.218506 l 0.00012207031 -331.12427 l 6.1035156e-05 -82.64075 " /> </g> </svg>