<?xml version="1.0" standalone="no"?><!DOCTYPE svg PUBLIC "-//W3C//DTD SVG 1.1//EN" "http://www.w3.org/Graphics/SVG/1.1/DTD/svg11.dtd" ><svg xmlns="http://www.w3.org/2000/svg" xmlns:xlink="http://www.w3.org/1999/xlink" version="1.1" viewBox="-10 0 692 1000"><g transform="matrix(1 0 0 -1 0 800)"><path stroke="black" fill="none" d="M 1081.2241 1689.0 l -1.2879639 0.0 l -45.285034 0.0 l 15.972412 0.0 l -83.03052 0.0 l 33.093994 0.0 l 1.1142578 0.0 l -123.70764 0.0 l -0.88397217 0.0 l 55.64789 0.0 l 1.0701904 0.0 l -91.705444 -76.57068 l -0.005432129 -80.82214 l 255.30853 -12.417847 l 0.0015869141 -167.77454 l -0.010986328 -335.1795 l 0.0037841797 165.04865 l -255.28613 -395.37604 l 255.28613 58.151978 l -0.0029296875 -167.78888 l -283.56683 133.55133 l -28.539185 20.81134 l 312.10284 -490.0022 l 0.0048828125 165.08401 l -0.12023926 -336.82056 l -252.62372 -91.673004 l 26.75232 2.0368729 l 0.0012817383 -6.384903 l -0.016967773 -11.067772 l 0.018676758 30.232101 l 0.0 9.958694 l 0.0 0.0 l 0.0 -4.5776367e-05 l 0.0 -0.00011444092 l 23.018494 -101.99668 l 21.169312 1.9209678e-05 l 25.045471 -3.4820056e-05 l 20.36206 -7.808776e-07 l -89.59534 48.72267 l 0.0 -6.3125877 l 0.0 -11.443676 l 0.0 -10.644957 l 0.0 -18.047035 l 0.0 6.3073587 l 224.49829 -8.581778 l -20.500122 -1.12486305e-08 l -22.900146 3.2922253e-07 l -27.795166 -3.5400444e-07 l -15.928833 -1.6225385e-09 l -24.195923 2.6622729e-08 l -167.76715 55.19426 l -28.349426 -19.494415 l -29.066284 -16.900087 l -29.748474 -14.295006 l -30.44812 -11.695751 l -31.147583 -9.096497 l -31.847229 -6.49724 l -32.553833 -3.9152546 l 0.0 0.0 l 0.0 0.0 l 0.0 1.9073486e-06 l -39.53015 1.4860611 l -37.630676 4.341444 l -36.912903 7.3706856 l -34.927185 10.128609 l -33.990143 13.190916 l -32.522858 16.059998 l -31.162811 18.98 l -29.802734 21.900005 l -28.440552 24.802277 l 0.0 0.0 l 0.0 0.0 l 0.0 0.0 l -25.013214 30.718185 l -22.07898 31.745033 l -19.712234 33.592773 l -17.033646 34.978714 l -14.413376 36.458694 l -11.793121 37.93863 l -9.172836 39.41858 l -6.552582 40.89859 l -3.9200134 42.390778 l 0.0 0.0 l 0.0 0.0 l 0.0 0.0 l 1.2949524 42.89395 l 3.9304504 41.440094 l 6.550705 40.000153 l 9.171036 38.56018 l 11.791306 37.12018 l 14.411591 35.680298 l 17.03189 34.240295 l 19.652176 32.800415 l 22.27591 31.344421 l 0.0 0.0 l 0.0 0.0 l 0.0 0.0 l 26.669617 27.94635 l 57.196777 46.9021 l -29.091888 -21.856506 l 59.931946 41.092957 l 32.03232 16.172058 l 33.372345 13.232117 l 34.71237 10.291992 l 36.05249 7.352051 l 37.394043 4.3969116 l 0.0 0.0 l 0.0 0.0 l 0.0 0.0 l 33.843994 -1.3812866 l 33.117126 -4.197754 l 32.992615 -7.2023926 l 30.792114 -9.52594 l 31.420288 -12.776733 l 29.961243 -15.25824 l 86.50928 24.654419 l 0.0008544922 76.27881 l 0.0024414062 251.5401 l 0.0 80.86145 l 0.0 84.68848 l 0.0 80.81494 l 0.0004272461 -330.94177 l 0.00012207031 -82.2561 " /> </g> </svg>