<?xml version="1.0" standalone="no"?><!DOCTYPE svg PUBLIC "-//W3C//DTD SVG 1.1//EN" "http://www.w3.org/Graphics/SVG/1.1/DTD/svg11.dtd" ><svg xmlns="http://www.w3.org/2000/svg" xmlns:xlink="http://www.w3.org/1999/xlink" version="1.1" viewBox="-10 0 692 1000"><g transform="matrix(1 0 0 -1 0 800)"><path stroke="black" fill="none" d="M 1085.88 1689.0 l -22.442139 0.0 l -45.20166 0.0 l 22.55127 0.0 l -90.345764 0.0 l 22.677185 0.0 l 22.440125 0.0 l -113.07709 0.0 l -22.43628 0.0 l 45.27307 0.0 l 22.439514 0.0 l -97.09802 -75.10083 l -6.1035156e-05 -82.7854 l 255.33984 -11.020508 l 0.0 -168.89172 l -0.00012207031 -337.78064 l 0.0 168.8717 l -255.3396 -396.38257 l 255.3396 58.58673 l 0.0 -168.89178 l -283.42102 134.1059 l -28.798157 20.998657 l 312.21918 -492.88864 l 0.0 168.87189 l -0.0008544922 -337.79276 l -252.94763 -91.60054 l 26.948608 4.283348 l 0.0 -10.171921 l -0.00012207031 -10.206394 l 0.00012207031 30.597294 l 0.0 10.19825 l 0.0 0.0 l 0.0 0.0 l 0.0 0.0 l 22.603027 -102.0 l 22.589539 1.4136458e-07 l 22.617981 -2.5625195e-07 l 22.583557 -5.7480065e-09 l -90.394104 50.983242 l 0.0 -10.171394 l 0.0 -10.209152 l 0.0 -10.203274 l 0.0 -20.382683 l 0.0 10.171352 l 225.98889 -10.18809 l -22.584473 -8.0035534e-11 l -22.602173 2.4228939e-09 l -22.638245 -2.6120688e-09 l -22.550964 -7.275958e-12 l -22.611755 1.9645086e-10 l -167.6012 55.199955 l -28.350037 -19.499958 l -29.05011 -16.900002 l -29.749939 -14.299963 l -30.450012 -11.699968 l -31.149963 -9.099976 l -31.850037 -6.499979 l -32.549988 -3.9001122 l 0.0 0.0 l 0.0 0.0 l 0.0 0.0 l -39.321533 1.4601917 l -37.95764 4.379717 l -36.602264 7.300519 l -35.23767 10.219328 l -33.88083 13.140375 l -32.52002 16.059998 l -31.160004 18.98 l -29.800049 21.900002 l -28.440002 24.81987 l 0.0 0.0 l 0.0 0.0 l 0.0 0.0 l -24.8909 30.541313 l -22.268585 32.017967 l -19.650452 33.500687 l -17.03003 34.97998 l -14.410034 36.460022 l -11.790024 37.939972 l -9.170029 39.419983 l -6.550003 40.899994 l -3.9299316 42.380066 l 0.0 0.0 l 0.0 0.0 l 0.0 0.0 l 1.3098907 42.880096 l 3.930008 41.440033 l 6.549988 40.00003 l 9.170029 38.559998 l 11.789993 37.119995 l 14.410019 35.679993 l 17.030014 34.23999 l 19.65001 32.799988 l 22.27005 31.359863 l 0.0 0.0 l 0.0 0.0 l 0.0 0.0 l 26.670013 27.930176 l 57.358765 47.03894 l -29.348083 -22.048523 l 60.039215 41.159485 l 32.03 16.169983 l 33.370026 13.2300415 l 34.710022 10.289978 l 36.049988 7.3500366 l 37.390076 4.409912 l 0.0 0.0 l 0.0 0.0 l 0.0 0.0 l 33.840027 -1.3999023 l 33.119934 -4.199951 l 32.404358 -7.001465 l 31.673523 -9.798035 l 30.963379 -12.601257 l 30.237976 -15.398987 l 86.40076 19.835754 l 0.0 82.752014 l 0.0 248.42303 l 0.0 82.78577 l 0.0 82.813965 l 0.0 82.7854 l 0.0 -331.19812 l 0.0 -82.79602 " /> </g> </svg>