<?xml version="1.0" standalone="no"?><!DOCTYPE svg PUBLIC "-//W3C//DTD SVG 1.1//EN" "http://www.w3.org/Graphics/SVG/1.1/DTD/svg11.dtd" ><svg xmlns="http://www.w3.org/2000/svg" xmlns:xlink="http://www.w3.org/1999/xlink" version="1.1" viewBox="-10 0 692 1000"><g transform="matrix(1 0 0 -1 0 800)"><path stroke="black" fill="none" d="M 1003.10986 1689.0 l 0.0 0.0 l 78.548706 -403.98523 l 0.0 0.0 l -181.32654 -412.24445 l 131.52185 -28.34436 l -131.52185 -31.455627 l -49.030823 -27.48877 l 49.030823 -32.31128 l 0.0 -29.899963 l 0.0 -29.900024 l 170.0437 -137.71979 l 0.0 0.0 l -170.0437 77.9198 l 0.0 0.0 l -15.23999 18.210022 l -14.919983 17.029968 l -14.600037 15.850037 l -14.279968 14.669983 l -13.960022 13.48999 l -13.640015 12.309998 l -31.362549 93.649414 l 0.0 0.0 l 5.0425415 -72.5694 l -12.679993 8.77002 l 0.0 0.0 l -12.209961 6.839966 l -12.630005 6.119995 l -13.050049 5.4000244 l -13.469971 4.6799927 l -13.890015 3.960022 l -14.309998 3.2399902 l -14.72998 2.5199585 l -15.150024 1.8000488 l -15.570007 1.079956 l 0.0 0.0 l -24.96997 -0.8899536 l -24.109985 -2.670044 l -23.25 -4.450012 l -22.390015 -6.2299805 l -21.53003 -8.01001 l -20.669983 -9.789978 l -19.809998 -11.570007 l -18.949982 -13.349976 l -18.090027 -15.130005 l 0.0 0.0 l -15.959991 -18.25 l -14.279999 -19.150024 l -12.600006 -20.049988 l -10.919983 -20.950012 l -9.240021 -21.849976 l -7.5599976 -22.75 l -5.880005 -23.650024 l -4.1999817 -24.549988 l -2.519989 -25.450012 l 0.0 0.0 l 0.80999756 -26.910004 l 2.4299927 -25.929993 l 4.049988 -24.950012 l 5.6700134 -23.96997 l 7.2900085 -22.99002 l 8.909973 -22.00998 l 10.529999 -21.03003 l 12.150024 -20.049988 l 13.769989 -19.070007 l 0.0 0.0 l 16.850006 -16.720001 l 17.75 -14.959991 l 18.649994 -13.199982 l 19.549988 -11.440002 l 20.450043 -9.680008 l 21.349976 -7.919998 l 22.25 -6.1600037 l 23.150024 -4.399994 l 24.049988 -2.6400146 l 0.0 0.0 l 16.01001 0.3500061 l 15.629944 1.050003 l 15.25 1.75 l 14.870056 2.449997 l 14.48999 3.149994 l 14.109985 3.850006 l 13.72998 4.550003 l 13.350037 5.25 l 12.969971 5.949997 l 0.0 0.0 l 12.210022 7.4400024 l 12.630005 8.720001 l 13.049988 10.0 l 13.469971 11.279999 l 13.890015 12.559998 l 14.309998 13.839996 l 14.7300415 15.119995 l 15.149963 16.400024 l 15.570007 17.679993 l 147.43176 -30.527283 l -147.43176 -28.872711 l 0.0 -29.700012 l 0.0 -29.699997 l 0.0 -29.700012 l 0.0 -29.699997 l 147.43176 -23.951187 l -147.43176 -35.448807 l -15.998718 -29.124 l 0.0 0.0 l 72.01776 -101.65 l 0.0 0.0 l -73.99457 28.887568 l 0.0 0.0 l 182.24652 -29.159096 l 0.0 0.0 l -231.3039 52.513165 l -28.071838 -16.907898 l -14.495239 -9.399746 l -22.09674 -7.541258 l -29.061707 -11.983214 l -29.55664 -9.728828 l -30.051636 -7.4744425 l -30.54663 -5.2200575 l 0.004272461 0.017087936 l -34.839355 -8.465102 l 0.0 0.0 l -66.47577 4.807625 l 0.0 0.0 l -69.80054 15.433758 l 0.0 0.0 l 6.4647217 28.664434 l -48.545563 -6.715519 l -33.84973 16.060001 l -32.45459 18.98 l -31.059448 21.900002 l -28.98291 19.004456 l 0.0 0.0 l -0.014862061 0.12683105 l -40.96469 53.01783 l 0.0 0.0 l -22.970734 38.64949 l -18.720001 34.38542 l -15.9769745 35.84787 l -13.233978 37.310287 l -10.490952 38.772675 l -7.747925 40.23517 l -0.9621887 45.719543 l 0.0 0.0 l -22.405457 23.715942 l 0.0 0.0 l 18.404495 27.300049 l 4.1320953 41.47513 l 6.8868256 40.058624 l 9.641571 38.64203 l 12.396286 37.225403 l 15.151016 35.8089 l 17.905746 34.392273 l 20.660492 32.975708 l 24.543945 26.321472 l 0.0 0.0 l -0.022705078 0.10522461 l 26.978668 33.229492 l 34.636444 24.244629 l 0.0 0.0 l 47.3067 36.589294 l 33.10492 17.145325 l 34.462494 14.187805 l 35.82007 11.230164 l 37.177643 8.272644 l 39.05713 0.39416504 l 0.0 0.0 l 35.913086 5.2489014 l 0.0045166016 0.020996094 l 31.803345 -3.192871 l 31.205017 -5.5560913 l 81.86896 -42.250916 l 0.0 0.0 l -27.758728 60.911682 l 27.359985 -6.210022 l 27.039978 -7.590027 l 26.720032 -8.969971 l 44.660522 490.29675 l 0.0 0.0 l 0.70684814 -456.54346 l 0.0 0.0 " /> </g> </svg>