<?xml version="1.0" standalone="no"?><!DOCTYPE svg PUBLIC "-//W3C//DTD SVG 1.1//EN" "http://www.w3.org/Graphics/SVG/1.1/DTD/svg11.dtd" ><svg xmlns="http://www.w3.org/2000/svg" xmlns:xlink="http://www.w3.org/1999/xlink" version="1.1" viewBox="-10 0 692 1000"><g transform="matrix(1 0 0 -1 0 800)"><path stroke="black" fill="none" d="M 860.0 1689.0 l 22.599976 0.0 l 22.600037 0.0 l 22.599976 0.0 l 22.600037 0.0 l 22.599976 0.0 l 22.599976 0.0 l 22.600037 0.0 l 22.600037 0.0 l 22.599976 0.0 l 22.599976 0.0 l 0.0 -168.90002 l 0.0 -168.90002 l 0.0 -168.8999 l 0.0 -168.90002 l 0.0 -168.90002 l 0.0 -168.89996 l -131.57916 -170.85788 l 39.56122 -69.60321 l 0.0 0.0 l 92.017944 -97.3389 l 0.0 -168.9 l 0.0 -168.9 l -22.599976 0.0 l -22.599976 0.0 l -22.600037 0.0 l -22.600037 0.0 l -22.599976 0.0 l -22.599976 0.0 l -22.600037 0.0 l -22.599976 0.0 l -22.600037 0.0 l -22.599976 0.0 l 0.0 10.2 l 0.0 10.2 l 0.0 10.199999 l 0.0 10.200001 l 0.0 10.200001 l 0.0 10.200077 l -2.3668213 24.139538 l 36.528748 37.642166 l 0.0 0.0 l 24.187622 29.384628 l 0.0 0.0 l 10.447388 13.812576 l 0.0 0.0 l -72.230774 143.15533 l 0.0 0.0 l -74.065674 57.07019 l 0.0 0.0 l 163.61859 -175.12228 l 0.0 0.0 l 1.4595947 67.53668 l 0.0 0.0 l -119.319336 -196.29333 l -1.0591431 -0.83111954 l 0.0 0.0 l -27.4646 -19.363129 l 0.0 0.0 l -4.540283 -2.671257 l 0.0 0.0 l -33.580444 -17.80378 l 0.0 0.0 l 2.1844482 1.077961 l -40.744995 -17.142698 l 0.0 0.0 l 14.995911 5.7112904 l 0.0 0.0 l -188.97406 422.3173 l 0.0 0.0 l 101.16913 0.037017822 l 0.0 0.0 l 33.962463 -439.73804 l 0.0 0.0 l -0.27313232 -0.063342094 l -20.14746 -4.1624804 l 0.092163086 0.01725483 l -28.912292 -4.4773884 l 0.0 0.0 l -0.10430908 -0.012975693 l -49.25171 -4.4169226 l 0.09777832 0.0035190582 l 19.624084 1.337265 l -37.91034 -1.9657478 l 0.0 0.0 l -0.0010375977 -0.00039482117 l -43.473938 1.2121449 l -40.64084 4.4659386 l -38.95172 7.2762322 l -37.262604 10.086527 l -35.573456 12.896822 l -33.88437 15.707113 l -32.19522 18.517414 l -30.506134 21.327702 l 0.0680542 0.10809326 l -30.081406 22.052185 l 0.0 0.0 l 0.001739502 0.0027923584 l -26.058777 31.570564 l -0.0025177002 0.007926941 l -36.207947 54.320602 l 0.0 0.0 l 20.837631 42.670044 l -43.337936 1.900589 l -0.00047302246 0.009414673 l -22.691208 63.715225 l 0.0 0.0 l -9.063004 48.08499 l -6.595703 41.90564 l 458.51093 -186.16806 l 0.0 0.0 l 101.59973 32.38344 l 0.0 0.0 l -332.361 122.75661 l 0.0 0.0 l 85.03903 -120.85632 l 0.0 0.0 l -320.14948 204.53024 l -0.22304535 -5.8812256 l 0.0 0.0 l 10.1539 117.300354 l 0.09525299 0.78759766 l 44.962967 0.9515381 l -25.851334 77.46857 l 0.1829071 0.6925049 l 46.628433 -2.481079 l -17.361816 73.943726 l 0.26971436 0.61938477 l 48.532104 -4.6431274 l -21.901031 44.684692 l 18.199234 32.260437 l 0.0 0.0 l 0.005645752 -0.0015869141 l 1.6018524 -0.44891357 l 31.890213 33.02588 l -0.49378967 -0.3918457 l 52.962967 37.08728 l 31.480133 18.64917 l 33.13095 15.818787 l 34.7818 12.988525 l 36.432617 10.158203 l 38.083435 7.328003 l 40.000916 5.3877563 l 0.0 0.0 l -0.00018310547 -0.0006713867 l 41.429504 -1.7636108 l -0.018066406 -0.012390137 l 39.763855 -3.8651123 l 19.799927 -6.814575 l 21.018066 -0.40863037 l 36.26935 -9.607971 l 34.56195 -12.353149 l 54.948914 -27.205444 l 0.0 0.0 l 55.679016 -40.48181 l 0.0 0.0 l 36.790283 -40.716614 l 0.0 0.0 l 6.065613 -9.482056 l 49.03302 -89.50372 l 0.0 0.0 l 17.656433 -53.496338 l 0.0 0.0 l -100.34265 258.25574 l 0.0 82.79999 l 0.0 82.79999 l 0.0 82.80005 l 0.0 82.79993 l 0.0 82.80005 l 0.0 82.80005 l 0.0 82.79993 l 0.0 82.80005 l 0.0 82.79993 " /> </g> </svg>