<?xml version="1.0" standalone="no"?><!DOCTYPE svg PUBLIC "-//W3C//DTD SVG 1.1//EN" "http://www.w3.org/Graphics/SVG/1.1/DTD/svg11.dtd" ><svg xmlns="http://www.w3.org/2000/svg" xmlns:xlink="http://www.w3.org/1999/xlink" version="1.1" viewBox="-10 0 692 1000"><g transform="matrix(1 0 0 -1 0 800)"><path stroke="black" fill="none" d="M 951.1757 510.4099 l 3.9586182 -46.690796 l 3.965393 -28.917297 l -69.661865 -0.6324768 l 139.4209 -0.00018310547 l -163.56055 -340.15775 l -10.191284 -9.28006 l 20.588623 19.274635 l 9.715454 9.831856 l 9.975037 10.616272 l 0.0 0.0 l 0.0 0.0 l 0.0 0.0 l 9.666809 11.365784 l 9.521912 11.740326 l 9.477112 12.240311 l 9.320984 12.595764 l -113.776855 261.70187 l -44.35431 -105.67923 l -13.795044 -19.182312 l -11.697998 -15.450592 l 57.53943 43.847168 l -18.496948 10.319366 l 39.018738 -21.76831 l 17.437805 -9.728485 l 115.01837 -104.43367 l -8.270874 -12.7261505 l -9.352478 -13.8069 l -21.376526 88.55638 l -18.529663 10.337616 l -37.74359 21.056976 l 18.519348 -10.331848 l 75.77478 -42.27516 l -18.499634 10.32103 l 37.84729 -21.117126 l 0.0 0.0 l 0.0 -4.5776367e-05 l -0.00012207031 -0.00012207031 l -8.787598 -14.677567 l -125.41089 -151.81793 l -10.253235 -8.3519745 l -10.84259 -8.336517 l -10.819519 -7.82798 l -11.0047 -7.480652 l 0.0 0.0 l 0.0 0.0 l 0.0 0.0 l -11.286865 -6.7131042 l -34.949097 -17.924896 l 11.89093 5.6363373 l 11.534546 5.9157677 l -72.526855 -30.266623 l 12.5112915 4.1122613 l 12.409668 4.5097103 l 12.14856 4.8484297 l -272.55 420.50708 l 69.658264 0.0 l 209.06104 3.0517578e-05 l -69.33002 0.0 l -69.83185 -3.0517578e-05 l 83.17035 -437.73996 l 0.0 0.0 l 0.0 0.0 l 0.0 0.0 l -13.104919 -3.0388198 l -26.875244 -5.1194572 l 13.534241 2.3972063 l -27.320496 -4.479744 l -13.974182 -1.7580013 l -43.297363 -3.3611193 l 14.728394 0.8061733 l 14.29187 1.1092796 l -43.892273 -2.3955173 l 0.0 0.0 l 0.0 0.0 l 0.0 0.0 l -42.74054 1.3998547 l -41.019775 4.2001686 l -39.299744 7.000174 l -37.579834 9.800181 l -35.859802 12.600187 l -34.13983 15.400192 l -32.41986 18.200205 l -30.69989 21.000202 l -28.980713 23.798836 l 0.0 0.0 l 0.0 0.0 l 0.0 0.0 l -25.080536 29.121681 l -22.471191 31.01123 l -19.755203 32.72574 l -17.173172 34.663345 l -14.538803 36.53972 l -11.853531 38.234467 l -9.245224 40.183807 l -6.599991 41.99994 l 393.7993 -184.3739 l 19.11734 -3.4052124 l -38.16263 8.327087 l 74.938324 -10.065567 l -16.17395 -0.39231873 l 0.0 0.0 l 0.0 0.0 l 6.1035156e-05 0.0 l 33.435425 1.7314758 l 14.040588 1.82901 l 14.903076 2.8104553 l 111.15289 69.16855 l 11.808411 13.722839 l -24.667175 -27.510666 l -10.586243 -10.450836 l -35.02832 -26.076096 l -11.281982 -5.4373474 l 24.31842 12.918671 l 0.0 0.0 l 0.078125 0.061950684 l 9.614258 7.621338 l -60.766968 -30.300339 l 13.22583 4.275406 l -266.61926 83.86194 l 7.7939453 -12.020203 l -19.284271 32.500305 l -14.454041 34.736908 l 5.2444153 -14.269775 l -12.803864 39.238586 l -4.6708984 20.969238 l 63.393524 46.213287 l -69.435974 0.008728027 l 0.0 0.0 l 3.0517578e-05 -0.00015258789 l 6.1035156e-05 -0.0007019043 l 2.3836975 -23.341888 l 91.86557 -178.3534 l 15.312927 -10.208786 l -44.719727 35.56096 l 0.0 0.0 l 0.0018920898 -0.001739502 l 0.24057007 -0.22515869 l 13.572601 -12.721344 l 64.83707 -39.484863 l -17.18805 7.6461945 l -341.91794 254.57433 l -1.2794037 -45.296906 l 0.0 0.0 l 0.0 0.0 l 0.0 0.0 l 5.123253 88.89975 l 6.3953247 41.769836 l 8.967094 40.06848 l 11.511475 38.251892 l 14.090958 36.546448 l 16.627579 34.73419 l 19.206772 33.008728 l 21.757553 31.240662 l 0.0 0.0 l 0.0 0.0 l 0.0 0.0 l 54.946655 50.748474 l -28.298737 -23.951904 l 58.312927 45.111755 l 31.67987 18.3302 l 33.359863 15.510132 l 35.039856 12.690186 l 36.71982 9.870178 l 38.39978 7.050232 l 40.079956 4.230774 l 0.0 0.0 l 0.0 0.0 l 0.0 0.0 l 42.09961 -1.3703003 l 40.29962 -4.1098633 l 38.501465 -6.8502197 l 36.699768 -9.590027 l 34.89972 -12.330017 l 33.150024 -15.098206 l 31.22699 -17.768433 l 29.57013 -20.602783 l 27.65271 -23.250183 l 0.0 0.0 l 0.0 0.0 l 0.0 0.0 l 23.561584 -28.252563 l 21.070496 -30.336792 l 18.634644 -32.51825 l 16.084656 -34.474243 l 13.6692505 -36.74298 l 19.664246 -78.79602 l -8.47644 39.891968 " /> </g> </svg>