<?xml version="1.0" standalone="no"?><!DOCTYPE svg PUBLIC "-//W3C//DTD SVG 1.1//EN" "http://www.w3.org/Graphics/SVG/1.1/DTD/svg11.dtd" ><svg xmlns="http://www.w3.org/2000/svg" xmlns:xlink="http://www.w3.org/1999/xlink" version="1.1" viewBox="-10 0 692 1000"><g transform="matrix(1 0 0 -1 0 800)"><path stroke="black" fill="none" d="M 860.0 1689.0 l 22.599976 0.0 l 22.600037 0.0 l 22.599976 0.0 l 22.600037 0.0 l 22.599976 0.0 l 22.599976 0.0 l 22.600037 0.0 l 22.600037 0.0 l 22.599976 0.0 l 22.599976 0.0 l 0.0 -168.90002 l 0.0 -168.90002 l 0.0 -168.8999 l 0.0 -168.90002 l 0.0 -168.90002 l 0.0 -168.89996 l -91.96002 -240.41571 l 0.0 0.0 l 91.96002 -97.38428 l 0.0 -168.9 l 0.0 -168.9 l -22.599976 0.0 l -22.599976 0.0 l -22.600037 0.0 l -22.600037 0.0 l -22.599976 0.0 l -22.599976 0.0 l -22.600037 0.0 l -22.599976 0.0 l -22.600037 0.0 l -22.599976 0.0 l 0.0 10.2 l 0.0 10.2 l 0.0 10.199999 l 0.0 10.200001 l 0.0 10.200001 l 0.0 10.199997 l -0.00012207031 10.200348 l -3.4788208 12.268028 l 51.661316 56.185875 l 0.0 0.0 l -51.345154 170.05777 l 0.0 0.0 l 86.74225 -103.95366 l 0.0 0.0 l -107.39874 -136.3602 l 0.0 0.0 l -33.567566 -25.410881 l 0.0 0.0 l -16.482544 -9.612892 l 0.0 0.0 l -59.67047 -27.422852 l 0.0 0.0 l -150.10815 421.18237 l 0.0 0.0 l 108.00244 -434.18234 l 0.0 0.0 l -21.048645 -4.732047 l 0.0 0.0 l -44.788757 -5.990717 l 0.0 0.0 l -32.237976 -3.015171 l 0.0 0.0 l 0.072265625 -0.010951996 l -20.073853 -0.4683075 l 0.0 0.0 l -44.36371 1.1006088 l -39.725403 5.10797 l -38.11084 7.943116 l -36.496307 10.778263 l -34.881744 13.613411 l -33.26718 16.448555 l -31.652618 19.28371 l -30.038055 22.118847 l 0.0095825195 0.0152282715 l -31.447083 19.901886 l 0.0 0.0 l -29.48642 35.780807 l 0.0 0.0 l -26.738647 54.942627 l 13.410965 35.63057 l -43.719147 9.531067 l 0.0 0.0 l -13.155167 64.26079 l -9.219513 39.943237 l -6.5853424 41.677826 l 446.2265 -184.69072 l 0.0 0.0 l -227.46988 153.8697 l 0.0 0.0 l -234.2532 78.71326 l 0.0 0.0 l 12.1857605 114.07135 l 0.0 0.0 l 41.929955 4.043518 l -22.918686 75.02606 l 0.0 0.0 l 43.878693 0.65393066 l -14.606827 71.48547 l 0.0 0.0 l 46.04683 -1.5654907 l -12.488022 41.99231 l 12.390747 33.942688 l 0.0 0.0 l 0.33525085 -0.093933105 l 32.172592 31.946106 l 0.0 0.0 l 53.10196 31.828308 l 30.997559 19.419556 l 32.578003 16.564392 l 34.158386 13.7092285 l 35.7388 10.854126 l 37.319214 7.9990234 l 39.60379 7.494446 l 0.0 0.0 l 40.016357 -2.02771 l -0.0057373047 -0.00390625 l 38.413635 -3.312317 l 22.817444 -6.22229 l 23.596558 -1.9018555 l 35.229675 -9.651489 l 33.74597 -12.409058 l 32.26233 -15.166687 l 30.778625 -17.924194 l 76.69635 -64.755005 l 0.0 0.0 l 65.2829 -118.59161 l 0.0 0.0 l -85.912415 215.3999 l 0.0 82.79999 l 0.0 82.79999 l 0.0 82.80005 l 0.0 82.79993 l 0.0 82.80005 l 0.0 82.80005 l 0.0 82.79993 l 0.0 82.80005 l 0.0 82.79993 " /> </g> </svg>