<?xml version="1.0" standalone="no"?><!DOCTYPE svg PUBLIC "-//W3C//DTD SVG 1.1//EN" "http://www.w3.org/Graphics/SVG/1.1/DTD/svg11.dtd" ><svg xmlns="http://www.w3.org/2000/svg" xmlns:xlink="http://www.w3.org/1999/xlink" version="1.1" viewBox="-10 0 692 1000"><g transform="matrix(1 0 0 -1 0 800)"><path stroke="black" fill="none" d="M 951.1717 510.45947 l 3.7404175 -45.190765 l 4.2805176 -31.214447 l -69.78815 -0.054229736 l 139.58466 -3.0517578e-05 l -163.62408 -340.10953 l -10.281616 -9.362282 l 20.452759 19.133263 l 9.984741 10.1044235 l 9.879028 10.519119 l 0.0 0.0 l 0.0 0.0 l 0.0 0.0 l 9.651489 11.346794 l 9.547546 11.772018 l 9.452332 12.208023 l 9.347534 12.631638 l -113.798035 261.75046 l -44.304626 -105.68909 l -13.113892 -18.284271 l -12.65979 -16.720825 l 58.097595 43.986908 l -18.956848 10.575928 l 38.087402 -21.248749 l 18.865967 -10.525238 l 115.18445 -103.43384 l -8.983154 -13.822159 l -9.167419 -13.521744 l -21.032288 88.37683 l -18.959656 10.577484 l -37.977966 21.187744 l 18.95874 -10.576996 l 75.98065 -42.389282 l -18.957031 10.57608 l 37.987 -21.192734 l 0.0 0.0 l 0.0 0.0 l 0.0 0.0 l -8.844727 -14.77597 l -125.172424 -151.57298 l -10.542847 -8.587868 l -10.721313 -8.239136 l -10.847412 -7.84811 l -10.991272 -7.470913 l 0.0 0.0 l 0.0 0.0 l 0.0 0.0 l -11.289734 -6.714836 l -34.94989 -17.924994 l 11.835205 5.607687 l 11.640076 5.969919 l -72.59369 -30.297136 l 12.546631 4.1239076 l 12.373413 4.4962616 l 12.186462 4.863578 l -272.66885 420.5006 l 69.78781 0.0 l 209.37097 0.0 l -69.75964 0.0 l -69.802795 0.0 l 83.23401 -437.74 l 0.0 0.0 l 0.0 0.0 l 0.0 0.0 l -13.109558 -3.0398989 l -26.879578 -5.1199536 l 13.548706 2.3997612 l -27.320068 -4.4799786 l -13.9887085 -1.7598295 l -43.29059 -3.360096 l 14.656738 0.8005314 l 14.418152 1.1190777 l -43.94507 -2.3996143 l 0.0 0.0 l 0.0 0.0 l 0.0 0.0 l -42.74005 1.3999882 l -41.01999 4.200014 l -39.299957 7.000015 l -37.580017 9.800016 l -35.859955 12.600017 l -34.140015 15.400015 l -32.419952 18.200022 l -30.700012 21.000011 l -28.980042 23.799904 l 0.0 0.0 l 0.0 0.0 l 0.0 0.0 l -25.080048 29.120148 l -22.442673 30.964394 l -19.796158 32.793625 l -17.161148 34.642 l -14.521591 36.485123 l -11.877747 38.312653 l -9.240448 40.16205 l -6.599991 42.0 l 393.47083 -184.31548 l 19.60431 -3.491867 l -38.48935 8.393738 l 75.41525 -10.097046 l -16.481262 -0.39933777 l 0.0 0.0 l 0.0 0.0 l 0.0 0.0 l 32.52545 1.6112823 l 15.237671 1.9853363 l 14.781433 2.800888 l 110.784546 68.904755 l 12.120728 14.0859375 l -24.057251 -26.934113 l -11.467285 -11.318573 l -34.15222 -25.567703 l -12.3498535 -5.951721 l 24.289673 12.786163 l 0.0 0.0 l 6.1035156e-05 7.6293945e-05 l 0.0004272461 0.00033569336 l 10.871887 8.618088 l -61.81201 -31.013107 l 13.577026 4.3892975 l -268.75 86.93193 l 10.542084 -16.252838 l -20.30426 34.12735 l -15.501709 37.902893 l 7.032257 -19.133575 l -13.166046 40.080933 l -4.78891 21.500183 l 63.765167 46.05487 l -69.76886 0.0012817383 l 0.0 0.0 l 0.0 0.0 l 0.0 -3.0517578e-05 l 2.3986511 -23.496155 l 91.58621 -178.0303 l 15.712524 -10.475021 l -44.897064 35.69124 l 0.0 0.0 l 0.0 0.0 l 3.0517578e-05 -3.0517578e-05 l 14.161194 -13.2729645 l 64.58377 -39.22444 l -17.29956 7.695389 l -341.8558 254.57036 l -1.2799454 -45.318024 l 0.0 0.0 l 0.0 0.0 l 0.0 0.0 l 5.120285 88.881714 l 6.399597 41.797394 l 8.960602 40.04242 l 11.519272 38.27765 l 14.080948 36.522217 l 16.638931 34.757812 l 19.200577 33.000732 l 21.759796 31.240051 l 0.0 0.0 l 0.0 0.0 l 0.0 0.0 l 54.958862 50.759033 l -28.318176 -23.968445 l 58.319366 45.119324 l 31.679993 18.330017 l 33.360016 15.509949 l 35.039978 12.690002 l 36.72 9.870056 l 38.399963 7.050049 l 40.079987 4.2300415 l 0.0 0.0 l 0.0 0.0 l 0.0 0.0 l 42.099976 -1.3699951 l 40.299988 -4.1099854 l 38.500122 -6.8500977 l 36.700012 -9.589966 l 34.899902 -12.330017 l 33.10437 -15.072388 l 31.293701 -17.806458 l 29.505981 -20.554504 l 27.695984 -23.286621 l 0.0 0.0 l 0.0 0.0 l 0.0 0.0 l 23.56012 -28.250244 l 21.079163 -30.348816 l 18.602966 -32.45587 l 16.117004 -34.543518 l 13.642517 -36.65796 l 19.82489 -79.531006 l -8.662537 40.76776 " /> </g> </svg>