<?xml version="1.0" standalone="no"?><!DOCTYPE svg PUBLIC "-//W3C//DTD SVG 1.1//EN" "http://www.w3.org/Graphics/SVG/1.1/DTD/svg11.dtd" ><svg xmlns="http://www.w3.org/2000/svg" xmlns:xlink="http://www.w3.org/1999/xlink" version="1.1" viewBox="-10 0 692 1000"><g transform="matrix(1 0 0 -1 0 800)"><path stroke="black" fill="none" d="M 951.1717 510.45947 l 3.789917 -45.53055 l 4.2091064 -30.694061 l -69.75958 -0.1852417 l 139.5476 -6.1035156e-05 l -163.60974 -340.12045 l -10.261108 -9.343658 l 20.48352 19.165298 l 9.923767 10.042671 l 9.900757 10.54113 l 0.0 0.0 l 0.0 0.0 l 0.0 0.0 l 9.654968 11.351097 l 9.541748 11.764832 l 9.457947 12.215347 l 9.341492 12.623505 l -113.79321 261.73944 l -44.315918 -105.68686 l -13.268188 -18.487701 l -12.441895 -16.433044 l 57.97113 43.95523 l -18.852661 10.517792 l 38.2984 -21.366425 l 18.54242 -10.344757 l 115.14685 -103.660324 l -8.821838 -13.573868 l -9.20929 -13.5863495 l -21.11029 88.417496 l -18.862244 10.523163 l -37.924866 21.158112 l 18.859192 -10.521454 l 75.93402 -42.363434 l -18.853455 10.51828 l 37.955566 -21.175262 l 0.0 0.0 l 0.0 -1.5258789e-05 l 0.0 0.0 l -8.832031 -14.754028 l -125.22644 -151.62848 l -10.477173 -8.534424 l -10.74884 -8.261196 l -10.841064 -7.8435516 l -10.994324 -7.473118 l 0.0 0.0 l 0.0 0.0 l 0.0 0.0 l -11.2890625 -6.714443 l -34.949768 -17.924973 l 11.8479 5.6141777 l 11.61615 5.957653 l -72.57855 -30.290224 l 12.538635 4.121269 l 12.381592 4.499308 l 12.177856 4.8601465 l -272.64188 420.50208 l 69.75845 0.0 l 209.30078 0.0 l -69.66235 0.0 l -69.80939 0.0 l 83.219604 -437.74 l 0.0 0.0 l 0.0 0.0 l 0.0 0.0 l -13.1085205 -3.0396547 l -26.878601 -5.119841 l 13.54541 2.3991823 l -27.32013 -4.479925 l -13.985413 -1.7594156 l -43.292114 -3.3603277 l 14.672974 0.8018093 l 14.389526 1.1168594 l -43.933105 -2.3986874 l 0.0 0.0 l 0.0 0.0 l 0.0 0.0 l -42.740173 1.3999577 l -41.019928 4.2000494 l -39.299927 7.000051 l -37.579956 9.800054 l -35.859924 12.600056 l -34.139954 15.400056 l -32.419952 18.200062 l -30.699982 21.000057 l -28.980194 23.79966 l 0.0 0.0 l 0.0 0.0 l 0.0 0.0 l -25.080154 29.120491 l -22.449142 30.975006 l -19.78688 32.778244 l -17.163864 34.646835 l -14.525497 36.497498 l -11.872253 38.294952 l -9.241531 40.16696 l -6.599991 41.99997 l 393.54523 -184.32869 l 19.493958 -3.4722443 l -38.415314 8.378647 l 75.30722 -10.08992 l -16.411743 -0.39775085 l 0.0 0.0 l 0.0 0.0 l 0.0 0.0 l 32.73175 1.6385193 l 14.966431 1.9499207 l 14.809021 2.8030548 l 110.86798 68.96451 l 12.049988 14.003693 l -24.195435 -27.064728 l -11.2677 -11.122009 l -34.350708 -25.682861 l -12.10791 -5.835205 l 24.239624 12.771362 l 0.0 0.0 l 0.0017089844 0.0013275146 l 0.17651367 0.14004517 l 10.483398 8.310089 l -61.575256 -30.851639 l 13.497437 4.363495 l -268.2673 86.23645 l 9.919525 -15.293976 l -20.073181 33.75876 l -15.264374 37.18567 l 6.627228 -18.031738 l -13.083984 39.890137 l -4.7621765 21.379883 l 63.68097 46.09076 l -69.69354 0.0039367676 l 0.0 0.0 l 0.0 -3.0517578e-05 l 0.0 -3.0517578e-05 l 2.3953857 -23.462341 l 91.649506 -178.10349 l 15.621979 -10.414703 l -44.86322 35.667664 l 0.0 0.0 l 9.1552734e-05 -9.1552734e-05 l 0.00048828125 -0.00045776367 l 14.088562 -13.204819 l 64.64114 -39.283432 l -17.274292 7.6842346 l -341.86987 254.57126 l -1.2798233 -45.313232 l 0.0 0.0 l 0.0 0.0 l 0.0 0.0 l 5.1209564 88.8858 l 6.398628 41.79117 l 8.962074 40.04834 l 11.517502 38.27179 l 14.083221 36.52771 l 16.636353 34.75244 l 19.20198 33.002563 l 21.759293 31.240173 l 0.0 0.0 l 0.0 0.0 l 0.0 0.0 l 54.956085 50.756653 l -28.313766 -23.964722 l 58.317917 45.117615 l 31.679962 18.330078 l 33.359985 15.51001 l 35.039948 12.690002 l 36.71994 9.870056 l 38.399933 7.05011 l 40.079987 4.2302246 l 0.0 0.0 l 0.0 0.0 l 0.0 0.0 l 42.099915 -1.3700562 l 40.299866 -4.1099854 l 38.500427 -6.8500977 l 36.69995 -9.589966 l 34.899902 -12.330017 l 33.114685 -15.078247 l 31.278564 -17.797852 l 29.520569 -20.56543 l 27.686157 -23.278381 l 0.0 0.0 l 0.0 0.0 l 0.0 0.0 l 23.560486 -28.250732 l 21.077148 -30.34613 l 18.610168 -32.46997 l 16.10968 -34.527832 l 13.64856 -36.677246 l 19.788513 -79.3645 l -8.620361 40.569397 " /> </g> </svg>