<?xml version="1.0" standalone="no"?><!DOCTYPE svg PUBLIC "-//W3C//DTD SVG 1.1//EN" "http://www.w3.org/Graphics/SVG/1.1/DTD/svg11.dtd" ><svg xmlns="http://www.w3.org/2000/svg" xmlns:xlink="http://www.w3.org/1999/xlink" version="1.1" viewBox="-10 0 692 1000"><g transform="matrix(1 0 0 -1 0 800)"><path stroke="black" fill="none" d="M 951.18964 510.24078 l 4.534607 -50.65213 l 3.1333008 -22.851135 l -69.32831 -2.1593933 l 138.98865 -0.00064086914 l -163.39307 -340.28503 l -9.95282 -9.062935 l 20.94751 19.647957 l 9.004211 9.112091 l 10.228638 10.872795 l 0.0 0.0 l 0.0 0.0 l 0.0 0.0 l 9.707397 11.415985 l 9.454041 11.656586 l 9.542664 12.325577 l 9.2508545 12.501038 l -113.720825 261.5736 l -44.485535 -105.65323 l -15.59375 -21.553802 l -9.158264 -12.096191 l 56.06543 43.47821 l -17.28241 9.641785 l 41.47821 -23.140411 l 13.666321 -7.6243896 l 114.57977 -107.07399 l -6.3898315 -9.831894 l -9.841309 -14.559906 l -22.285461 89.03058 l -17.394226 9.704132 l -37.124634 20.71167 l 17.35907 -9.68454 l 75.23108 -41.973724 l -17.291687 9.647461 l 37.46759 -20.935028 l 0.0 0.0 l -0.00036621094 -0.00064086914 l -0.00970459 -0.015930176 l -8.616394 -14.384171 l -126.04071 -152.46481 l -9.488464 -7.7290344 l -11.162659 -8.593681 l -10.745972 -7.774811 l -11.040161 -7.506382 l 0.0 0.0 l 0.0 0.0 l 0.0 0.0 l -11.279297 -6.7085266 l -34.94684 -17.924643 l 12.037964 5.711998 l 11.255737 5.772768 l -72.35028 -30.186045 l 12.417908 4.081508 l 12.505554 4.545224 l 12.04834 4.808428 l -272.23608 420.52414 l 69.3161 3.0517578e-05 l 208.24274 9.1552734e-05 l -68.195496 3.0517578e-05 l -69.90851 -9.1552734e-05 l 83.002075 -437.73993 l 0.0 0.0 l 0.0 -2.3841858e-07 l 0.0 -2.3841858e-07 l -13.09259 -3.035963 l -26.86377 -5.1181474 l 13.495972 2.390462 l -27.321655 -4.479125 l -13.935852 -1.7531748 l -43.315125 -3.3638191 l 14.9175415 0.82107544 l 13.958435 1.0833969 l -43.75287 -2.384695 l 0.0 0.0 l 0.0 0.0 l 0.0 0.0 l -42.74182 1.3995037 l -41.019196 4.200574 l -39.299225 7.0005956 l -37.579346 9.800618 l -35.859344 12.600639 l -34.139465 15.4006605 l -32.419495 18.200687 l -30.699615 21.000702 l -28.982483 23.79602 l 0.0 0.0 l 0.0 0.0 l 0.0 0.0 l -25.081833 29.12574 l -22.546463 31.134918 l -19.64708 32.546448 l -17.204971 34.71971 l -14.584183 36.683853 l -11.789627 38.028015 l -9.25782 40.241333 l -6.599991 41.999786 l 394.66663 -184.52823 l 17.83136 -3.1764069 l -37.299805 8.151077 l 73.67883 -9.982407 l -15.355957 -0.37356567 l -0.00079345703 -3.0517578e-05 l 0.0 0.0 l 0.00018310547 1.5258789e-05 l 35.832764 2.0486603 l 10.879456 1.4161987 l 15.224304 2.8357391 l 112.12555 69.86508 l 10.983765 12.764069 l -26.277893 -29.033218 l -8.259644 -8.159332 l -37.341736 -27.418686 l -8.46228 -4.078964 l 27.495361 15.728119 l 0.0 0.0 l 3.475586 2.7540894 l -58.007507 -28.418076 l 12.298523 3.9746246 l -260.99243 75.75484 l 0.5858154 -0.9182129 l -16.639801 28.279022 l -11.687408 26.376343 l 0.52801514 -1.4387512 l -11.852295 37.02722 l -4.3593445 19.56717 l 62.412262 46.63159 l -68.55127 -0.024230957 l 0.0 0.0 l 0.00030517578 -0.002746582 l 0.04144287 -0.3831787 l 2.2970886 -22.498932 l 92.60327 -179.20663 l 14.257751 -9.505737 l -43.903564 34.89142 l 0.0 0.0 l 0.09283447 -0.086883545 l 12.460236 -11.678253 l 65.50598 -40.172577 l -16.893646 7.516281 l -342.08203 254.5848 l -1.2779541 -45.24112 l 0.0 0.0 l 0.0 0.0 l 0.0 0.0 l 5.1310883 88.94739 l 6.384033 41.697052 l 8.984253 40.137268 l 11.490875 38.18402 l 14.117432 36.61029 l 16.59758 34.671936 l 19.223145 33.029663 l 21.751602 31.24237 l 0.0 0.0 l 0.0 0.0 l 0.0 0.0 l 54.91446 50.72058 l -28.247421 -23.908264 l 58.295853 45.091797 l 31.679565 18.33075 l 33.359528 15.51062 l 35.03946 12.690613 l 36.71936 9.870605 l 38.399323 7.050659 l 40.079865 4.232666 l 0.0 0.0 l 0.0 0.0 l 0.0 0.0 l 42.09851 -1.3710327 l 40.29883 -4.109497 l 38.505005 -6.85083 l 36.699097 -9.590027 l 34.89923 -12.330017 l 33.270752 -15.16626 l 31.05072 -17.668152 l 29.73944 -20.730347 l 27.53833 -23.153809 l 0.0 0.0 l 0.0 0.0 l 0.0 0.0 l 23.565613 -28.258911 l 21.047607 -30.304932 l 18.718079 -32.682983 l 15.999451 -34.29132 l 13.739746 -36.967346 l 19.23999 -76.855225 l -7.9848633 37.579285 " /> </g> </svg>