<?xml version="1.0" standalone="no"?><!DOCTYPE svg PUBLIC "-//W3C//DTD SVG 1.1//EN" "http://www.w3.org/Graphics/SVG/1.1/DTD/svg11.dtd" ><svg xmlns="http://www.w3.org/2000/svg" xmlns:xlink="http://www.w3.org/1999/xlink" version="1.1" viewBox="-10 0 692 1000"><g transform="matrix(1 0 0 -1 0 800)"><path stroke="black" fill="none" d="M 951.3994 507.6919 l 5.906006 -56.815125 l 0.0 0.0 l -66.39874 -10.137451 l 0.37731934 0.0015258789 l 132.09692 -0.009033203 l -0.028381348 0.0 l -160.84003 -342.20364 l -6.359253 -5.790558 l 26.355957 25.2743 l 0.25201416 0.2548523 l 12.077759 12.741768 l 0.0 0.0 l -6.1035156e-05 -9.918213e-05 l -0.00036621094 -0.00035858154 l 10.325806 12.179581 l 8.431641 10.394775 l 10.529663 13.610519 l 8.194946 11.073471 l -112.87726 259.6402 l 0.097839355 -0.6954956 l -46.56073 -104.56555 l -0.0099487305 -0.013397217 l -20.899902 -28.486023 l 0.0 0.0 l 41.17688 47.58008 l -0.56536865 0.31552124 l 47.66028 -26.589417 l 0.0 0.0 l 112.69348 -117.15419 l 0.0 0.0 l -10.675171 -15.861938 l 0.01361084 0.02029419 l -35.99823 96.15663 l -0.8843384 0.49334717 l -27.193481 15.171112 l 0.75512695 -0.42126465 l 66.153564 -36.938263 l -0.5829468 0.3286438 l 31.360107 -22.117783 l 0.0 0.0 l -4.314209 -7.1314545 l -135.53271 -162.2137 l -0.2508545 -0.20444489 l -13.698242 -10.605747 l -9.315002 -6.739765 l -0.32226562 -0.23373413 l -11.575867 -7.8947487 l 0.0 0.0 l -6.1035156e-05 -7.6293945e-06 l 0.0 -1.5258789e-05 l -11.164246 -6.638916 l -34.913086 -17.920813 l 14.254272 6.8522797 l 7.054199 3.6175938 l -69.68921 -28.971628 l 11.010376 3.618021 l 13.950134 5.0804653 l 10.538574 4.2055387 l -267.50534 420.78143 l 64.1597 0.00039672852 l 195.90955 0.0011291504 l -51.09668 6.1035156e-05 l -71.06482 -0.0009460449 l 80.46179 -437.7403 l 0.0 0.0 l -6.1035156e-05 -1.6212463e-05 l -0.00018310547 -4.6491623e-05 l -12.901428 -2.9916303 l -26.690857 -5.098398 l 12.919739 2.2888088 l -27.33966 -4.469796 l -13.358215 -1.6804409 l -43.582703 -3.4045153 l 17.767944 1.0456696 l 8.932983 0.6933422 l -41.651672 -2.221634 l 0.0 0.0 l 0.0 0.0 l 0.0 0.0 l -42.76111 1.394249 l -41.010468 4.206683 l -39.29126 7.006941 l -37.57202 9.8071995 l -35.852783 12.607459 l -34.133606 15.407715 l -32.414337 18.20798 l -30.69513 21.008232 l -29.00914 23.7537 l 0.0 0.0 l 1.5258789e-05 0.0 l 0.0 7.6293945e-06 l -25.10138 29.186737 l -23.680984 32.999107 l -18.017563 29.84439 l -17.684143 35.569046 l -15.268265 38.856277 l -10.826553 34.916718 l -9.447556 41.10782 l -6.5998917 41.99765 l 407.73868 -186.8541 l 0.5529785 -0.10020447 l -26.399323 5.870743 l 54.69754 -8.729279 l -2.0664062 -0.062042236 l 0.0 0.0 l 48.572876 3.9969177 l 0.0 0.0 l 5.720825 1.2145386 l 126.785095 80.36267 l 0.29882812 0.3453064 l -39.68982 -41.106796 l 0.0 0.0 l -34.68286 -22.864792 l 0.0 0.0 l 12.190674 6.260971 l -32.74591 -14.698761 l 0.44000244 0.13444519 l -285.35397 126.6264 l 0.0 0.0 l -2.7478027 8.050476 l -13.094788 45.274536 l -0.13198853 0.56951904 l 48.091675 50.802948 l -54.216003 -9.777435 l 0.0 0.0 l 0.6595764 -6.7277527 l 103.7211 -192.06567 l 0.40853882 -0.2748108 l -31.432465 24.2155 l 0.0 0.0 l 66.896576 -42.52185 l -0.024139404 0.011642456 l -12.432343 5.546829 l -344.55475 254.74257 l -1.2560883 -44.39862 l 0.0 0.0 l 0.0 3.0517578e-05 l 0.0 3.0517578e-05 l 5.2491302 89.663605 l 6.2138596 40.599884 l 9.242783 41.17395 l 11.180542 37.16101 l 14.51619 37.57257 l 16.14563 33.733643 l 19.469772 33.34546 l 21.662247 31.267944 l 0.0 0.0 l 0.0 0.0 l 1.5258789e-05 0.0 l 54.429 50.30078 l -27.474106 -23.250854 l 58.03865 44.791443 l 31.674988 18.338074 l 33.354248 15.5177 l 35.03354 12.69751 l 36.71277 9.877258 l 38.39206 7.057007 l 40.078613 4.2611084 l 0.0 0.0 l 0.0 0.0 l 0.0 0.0 l 42.08258 -1.381958 l 40.28601 -4.104126 l 38.55829 -6.859436 l 36.689148 -9.590393 l 34.89148 -12.330627 l 35.09015 -16.19165 l 28.394348 -16.156311 l 32.291443 -22.652832 l 25.802246 -21.690674 l 0.0 0.0 l -0.00018310547 0.00012207031 l -0.0012817383 0.0010986328 l 23.640076 -28.366028 l 20.702698 -29.825623 l 19.976257 -35.165405 l 14.7146 -31.534851 l 14.802856 -40.348816 l 12.84613 -47.604614 l -0.5786743 2.7312622 " /> </g> </svg>