<?xml version="1.0" standalone="no"?><!DOCTYPE svg PUBLIC "-//W3C//DTD SVG 1.1//EN" "http://www.w3.org/Graphics/SVG/1.1/DTD/svg11.dtd" ><svg xmlns="http://www.w3.org/2000/svg" xmlns:xlink="http://www.w3.org/1999/xlink" version="1.1" viewBox="-10 0 692 1000"><g transform="matrix(1 0 0 -1 0 800)"><path stroke="black" fill="none" d="M 953.8445 477.97986 l 0.0 0.0 l -40.086304 -46.98877 l 0.0 0.0 l 82.50195 -0.06454468 l -139.27905 -348.09198 l 0.0 0.0 l 33.259155 32.54904 l 4.5377197 4.7819214 l 0.0 0.0 l 18.360413 21.945389 l 0.14807129 0.18016052 l 18.03772 23.598969 l 0.084472656 0.11369324 l -106.83887 231.9667 l 0.0 0.0 l 0.6439209 -4.507263 l -82.18524 -111.29227 l 0.0 0.0 l 102.171936 30.90625 l 0.0 0.0 l 103.57306 -122.225815 l -2.7001343 -4.0412292 l 0.0 0.0 l -51.5531 99.060074 l 0.0 0.0 l 56.697998 -32.81064 l 0.0 0.0 l -118.505615 -190.53006 l -16.098694 -12.050674 l -0.1954956 -0.14279938 l 0.0 0.0 l -14.703918 -10.156742 l 0.0 0.0 l -0.002380371 -0.0013847351 l -9.676453 -5.741829 l -0.0053710938 -0.0032463074 l -34.51947 -17.876204 l 0.00793457 0.0039157867 l 17.89264 8.777695 l 0.0 0.0 l -58.74347 -25.069225 l 0.16851807 0.0540421 l 23.710327 8.85287 l 0.10064697 0.03994274 l -217.66675 421.65802 l 4.070801 0.0045166016 l 145.79608 0.010559082 l 0.0 0.0 l -29.993042 -0.007385254 l 50.12091 -437.9139 l 0.0 0.0 l -0.036071777 -0.008358002 l -9.911316 -2.298299 l -24.67572 -4.868182 l 6.2026978 1.1038647 l -27.548828 -4.36106 l -0.1083374 -0.013607025 l -6.5166016 -0.81898594 l -46.70227 -3.8789005 l 0.35583496 0.011594772 l 24.267822 1.60536 l 0.0 0.0 l -40.44336 -2.130787 l 0.0 0.0 l -6.1035156e-05 -2.861023e-05 l -0.00024414062 -8.392334e-05 l -42.977234 1.3363476 l -40.908936 4.277892 l -39.197968 7.080907 l -37.48706 9.883922 l -35.776062 12.686937 l -34.065125 15.489951 l -32.354156 18.29297 l -30.643219 21.095978 l -29.30957 23.276634 l 0.0 0.0 l 0.00010681152 0.00015258789 l 0.00045776367 0.0007324219 l -25.339828 29.88079 l -0.00920105 0.028938293 l -36.896835 54.700706 l -0.545166 0.88516235 l -21.746933 42.931396 l -0.0019073486 0.038101196 l -23.240524 64.141815 l -0.348938 1.088623 l -10.910645 48.768738 l -6.5987396 41.97235 l 369.66342 -176.76454 l 0.0 0.0 l 97.782135 -10.451645 l 0.0 0.0 l 108.008484 42.537613 l 0.0 0.0 l -50.045593 -29.646164 l 0.0 0.0 l -292.44754 131.5516 l 0.0 0.0 l -17.540955 80.9942 l 0.0 0.0 l 35.413116 -119.06845 l 0.0 0.0 l 64.42923 -70.958694 l 0.0 0.0 l -319.31326 230.27135 l -0.99276733 -34.35663 l 0.0 0.0 l 0.00017547607 0.0045776367 l 6.616562 97.787506 l 4.230179 27.809875 l 12.256538 53.259155 l 7.562851 25.235718 l 19.164658 48.78961 l 10.877228 22.795776 l 22.344543 37.0271 l 20.647018 31.558533 l 0.0 0.0 l 0.0002593994 -0.00012207031 l 0.0018310547 -0.00048828125 l 48.74179 45.414795 l -18.459549 -15.586853 l 55.040634 41.29004 l 31.62146 18.423523 l 33.292908 15.600403 l 34.964386 12.777405 l 36.635834 9.954407 l 38.30728 7.1314697 l 40.06201 4.586426 l 0.0 0.0 l -6.1035156e-05 -6.1035156e-05 l 0.0 -0.00018310547 l 41.898438 -1.5025635 l 40.137695 -4.04187 l 39.178894 -6.9593506 l 36.573914 -9.595276 l 34.800964 -12.336792 l 56.298096 -28.144836 l 0.7536621 -0.42718506 l 58.715393 -43.168762 l 3.7982788 -3.1642456 l 0.0 0.0 l 26.255981 -31.07074 l 0.002746582 -0.0043945312 l 16.679626 -24.23352 l 34.64215 -64.102356 l 0.5527344 -1.1594238 l 24.948364 -71.75189 l 0.26220703 -0.8936157 " /> </g> </svg>