<?xml version="1.0" standalone="no"?><!DOCTYPE svg PUBLIC "-//W3C//DTD SVG 1.1//EN" "http://www.w3.org/Graphics/SVG/1.1/DTD/svg11.dtd" ><svg xmlns="http://www.w3.org/2000/svg" xmlns:xlink="http://www.w3.org/1999/xlink" version="1.1" viewBox="-10 0 692 1000"><g transform="matrix(1 0 0 -1 0 800)"><path stroke="black" fill="none" d="M 951.9533 500.9609 l 0.15722656 -1.888092 l -57.566467 -42.063293 l 0.031921387 0.00012207031 l 115.239136 -0.025787354 l 0.0 0.0 l -154.19202 -347.26184 l -0.17254639 -0.15704346 l 26.490112 25.497528 l 0.0 0.0 l 11.485718 12.1166 l 0.0 0.0 l -0.0014038086 -0.0015182495 l 12.015442 14.255844 l 5.7317505 7.0626526 l 13.13623 17.003708 l 5.406311 7.30365 l -110.649475 254.53456 l 0.006164551 -0.043762207 l 3.9118652 -27.738861 l -55.602783 -76.44278 l 0.0 0.0 l -14.130981 -19.197327 l 41.161804 42.658264 l 0.0 0.0 l 39.80487 -22.207092 l 114.70703 -124.00021 l -7.260803 -10.725845 l 0.0041503906 0.0061187744 l -47.05371 101.032776 l 0.0 0.0 l -14.207581 7.9264526 l 0.0 0.0 l 65.33234 -36.774628 l 0.0 0.0 l 16.159607 -40.01053 l 0.0 0.0 l -127.66565 -150.24196 l 0.0 0.0 l -14.896912 -11.447216 l -6.6307373 -4.8003807 l -0.07867432 -0.057044983 l -12.999634 -8.925621 l 0.0 0.0 l -0.00018310547 -8.010864e-05 l -0.00061035156 -0.00035095215 l -10.835205 -6.44001 l -0.015563965 -0.009433746 l -34.823914 -17.910707 l 0.026855469 0.013242722 l 20.013977 9.816242 l 0.1609497 0.08243942 l -66.79779 -27.886791 l 7.293579 2.3940644 l 17.764893 6.493905 l 6.5515747 2.6134605 l -255.01257 421.46085 l 50.542908 0.0013427734 l 163.34064 0.00390625 l -5.942993 0.00018310547 l -74.118225 -0.0031738281 l 73.70593 -437.75238 l 0.0 0.0 l -0.00091552734 -0.00022292137 l -0.03479004 -0.008062124 l -12.31427 -2.8554897 l -26.234375 -5.046244 l 11.39801 2.0203676 l -27.386963 -4.445162 l -0.44519043 -0.05589676 l -11.387695 -1.4324713 l -44.28943 -3.511982 l 25.285034 1.6379757 l 0.23364258 0.018129349 l -40.664917 -2.145275 l 0.0 0.0 l 0.0 -1.9073486e-06 l 0.0 -5.722046e-06 l -42.811462 1.3805923 l -40.987488 4.2228136 l -39.27011 7.0236974 l -37.552795 9.82458 l -35.83539 12.6254635 l -34.118103 15.426345 l -32.400696 18.227234 l -30.68338 21.02811 l -29.078812 23.643013 l 0.0 0.0 l 0.0 7.6293945e-06 l 1.5258789e-05 3.0517578e-05 l -25.153656 29.346748 l -26.677002 37.921967 l -13.714355 22.708908 l -18.949524 37.81195 l -17.074738 44.59311 l -8.283325 26.70047 l -9.948624 43.39615 l -6.5996323 41.991913 l 405.2999 -186.29144 l 0.0 0.0 l -5.7299805 1.1675415 l 37.50952 -4.4306183 l 0.0 0.0 l 50.143494 4.6780396 l 0.0 0.0 l 125.934814 78.22975 l 0.0 0.0 l -24.901428 -26.824402 l -20.909363 -18.577972 l 0.0 0.0 l -38.696655 -21.28978 l 0.0 0.0 l -294.12515 127.31053 l 0.0 0.0 l -12.9410095 45.045288 l 0.0 0.0 l 11.456299 54.612305 l -17.469238 -14.675507 l 0.0 0.0 l 100.46158 -190.78044 l 0.0 0.0 l -48.444 44.742294 l 81.543884 -62.598175 l 0.0 0.0 l -1.1295776 0.5509033 l -351.08463 255.15927 l -1.197792 -42.159454 l 0.0 0.0 l 7.6293945e-06 0.00021362305 l 5.340576e-05 0.001373291 l 5.5602417 91.539215 l 5.7644806 37.702454 l 9.925522 43.911743 l 10.360977 34.459473 l 15.569275 40.113647 l 14.952118 31.255737 l 20.121017 34.179504 l 21.428009 31.335022 l 0.0 0.0 l 1.5258789e-05 0.0 l 6.1035156e-05 -6.1035156e-05 l 53.145264 49.192627 l -25.43193 -21.514648 l 57.35948 43.99823 l 31.662842 18.357422 l 33.340363 15.536438 l 35.017883 12.715576 l 36.695343 9.894775 l 38.372833 7.0738525 l 40.075165 4.3358765 l 0.0 0.0 l 0.0 0.0 l 0.0 0.0 l 42.040527 -1.4104004 l 40.25244 -4.090027 l 38.698853 -6.882019 l 36.663086 -9.591553 l 34.87097 -12.33197 l 39.894592 -18.899536 l 21.379639 -12.1640625 l 39.030518 -27.729492 l 21.102417 -17.73114 l 0.0 0.0 l -0.0040893555 0.0034179688 l 23.950684 -28.743835 l 0.006958008 -0.011108398 l 19.784973 -28.548645 l 23.298645 -41.720764 l 11.321716 -24.255737 l 17.610352 -49.278564 l 9.918579 -36.237366 l 0.0 0.0 " /> </g> </svg>