<?xml version="1.0" standalone="no"?><!DOCTYPE svg PUBLIC "-//W3C//DTD SVG 1.1//EN" "http://www.w3.org/Graphics/SVG/1.1/DTD/svg11.dtd" ><svg xmlns="http://www.w3.org/2000/svg" xmlns:xlink="http://www.w3.org/1999/xlink" version="1.1" viewBox="-10 0 692 1000"><g transform="matrix(1 0 0 -1 0 800)"><path stroke="black" fill="none" d="M 951.2372 509.66336 l 6.501404 -64.17691 l 0.29327393 -2.1478577 l -68.19055 -7.364685 l 137.51294 -0.0021972656 l -0.29943848 3.0517578e-05 l -162.52173 -340.71973 l -9.138733 -8.3216095 l 22.17273 20.922554 l 6.57605 6.654663 l 11.093994 11.748184 l 0.0 0.0 l 0.0 -7.6293945e-06 l 0.0 -1.5258789e-05 l 9.8463745 11.587799 l 9.222412 11.370728 l 9.766235 12.616669 l 9.011658 12.177643 l -113.529724 261.1356 l -44.93347 -105.56436 l -0.06500244 -0.08816528 l -21.669983 -29.562408 l -0.64489746 -0.8520813 l 51.190857 42.42691 l -13.135803 7.3284607 l 49.875183 -27.825012 l 0.98236084 -0.54803467 l 112.88977 -115.98123 l -0.3817749 -0.5875397 l -11.096069 -16.493546 l -25.388916 90.649506 l -13.517456 7.5413513 l -35.011414 19.532684 l 13.397522 -7.4743958 l 73.374756 -40.94461 l -13.167297 7.347809 l 36.05414 -20.50595 l 0.0 0.0 l -0.012756348 -0.020980835 l -7.946167 -13.24144 l -128.19104 -154.67334 l -6.8773804 -5.6021957 l -12.255432 -9.471703 l -10.494812 -7.593281 l -11.161316 -7.594269 l 0.0 0.0 l 0.0 0.0 l -6.1035156e-05 0.0 l -11.253357 -6.6928596 l -34.93921 -17.923773 l 12.540039 5.9703197 l 10.303894 5.2845306 l -71.747375 -29.910929 l 12.098999 3.976509 l 12.832825 4.6664786 l 11.706299 4.6718483 l -271.16437 420.58246 l 68.14801 9.1552734e-05 l 205.44873 0.00033569336 l -64.3219 3.0517578e-05 l -70.17047 -0.0002746582 l 82.42749 -437.7398 l 0.0 0.0 l -6.1035156e-05 -1.66893e-06 l 0.0 -3.0994415e-06 l -13.050171 -3.0261304 l -26.824585 -5.1136727 l 13.3654175 2.3674326 l -27.325745 -4.4770117 l -13.804993 -1.7366972 l -43.375732 -3.3730383 l 15.563232 0.8719559 l 12.820007 0.99503326 l -43.276855 -2.3477516 l 0.0 0.0 l 0.0 0.0 l 0.0 0.0 l -42.746216 1.3983097 l -41.017212 4.2019577 l -39.297424 7.0020328 l -37.577667 9.802109 l -35.85788 12.602184 l -34.138123 15.40226 l -32.418335 18.20234 l -30.698578 21.00241 l -28.988556 23.786407 l 0.0 0.0 l 0.0 0.0 l 1.5258789e-05 0.0 l -25.086258 29.13958 l -22.803467 31.557243 l -19.277939 31.93431 l -17.313522 34.912125 l -14.739151 37.17601 l -11.571457 37.32318 l -9.3007965 40.43759 l -6.599968 41.99933 l 397.62796 -185.05515 l 13.440796 -2.395172 l -34.354095 7.5501404 l 69.378815 -9.698517 l -12.501221 -0.30769348 l -0.003112793 -9.1552734e-05 l 0.0 0.0 l 43.955994 3.1298065 l 0.72979736 0.091415405 l 15.677795 2.8374176 l 115.446594 72.243225 l 8.16803 9.490601 l -31.77716 -34.231567 l -0.6178589 -0.6315155 l -44.93866 -31.70668 l -0.37298584 -0.18086243 l 28.898315 17.388474 l 0.0 0.0 l -55.354126 -27.395477 l 9.132385 2.9476624 l -261.6088 79.17984 l 0.0 0.0 l -11.8078 19.748657 l -14.011688 29.903595 l 0.0 0.0 l -12.408051 39.77426 l -3.2955933 14.780182 l 59.06198 48.059814 l -65.46835 -0.71273804 l 0.0 0.0 l 0.015106201 -0.13964844 l 2.1079102 -20.605957 l 95.12192 -182.11974 l 10.655182 -7.1054077 l -37.31491 29.046722 l 0.0 0.0 l 4.44223 -4.166992 l 67.789764 -42.52063 l -0.12609863 0.060897827 l -15.762329 7.011856 l -342.64218 254.62053 l -1.2730103 -45.050507 l 0.0 0.0 l 0.0 0.0 l 0.0 0.0 l 5.157837 89.10989 l 6.345482 41.448517 l 9.042816 40.37213 l 11.420578 37.95227 l 14.207764 36.828247 l 16.495193 34.45941 l 19.279022 33.101196 l 21.731323 31.248169 l 0.0 0.0 l 0.0 0.0 l 0.0 0.0 l 54.80452 50.62549 l -28.072235 -23.759338 l 58.23758 45.023743 l 31.678528 18.332397 l 33.358337 15.512207 l 35.038116 12.6922 l 36.717865 9.872131 l 38.397675 7.052063 l 40.07959 4.2391357 l 0.0 0.0 l 0.0 0.0 l 0.0 0.0 l 42.09491 -1.3735352 l 40.2959 -4.1082764 l 38.51709 -6.852783 l 36.69684 -9.590088 l 34.89746 -12.3302 l 33.682922 -15.398499 l 30.448975 -17.325684 l 30.317566 -21.165894 l 27.147156 -22.824036 l 0.0 0.0 l 0.0 0.0 l -6.1035156e-05 6.1035156e-05 l 23.580078 -28.28125 l 20.969482 -30.19635 l 19.003113 -33.24536 l 15.708374 -33.66687 l 13.980591 -37.7334 l 17.791504 -70.2287 l -6.3067017 29.683044 " /> </g> </svg>