<?xml version="1.0" standalone="no"?><!DOCTYPE svg PUBLIC "-//W3C//DTD SVG 1.1//EN" "http://www.w3.org/Graphics/SVG/1.1/DTD/svg11.dtd" ><svg xmlns="http://www.w3.org/2000/svg" xmlns:xlink="http://www.w3.org/1999/xlink" version="1.1" viewBox="-10 0 692 1000"><g transform="matrix(1 0 0 -1 0 800)"><path stroke="black" fill="none" d="M 375.0 687.5889 l 0.0 -76.35382 l -0.0024108887 -76.42413 l -0.00030517578 -76.35361 l 0.00064086914 -76.43042 l 0.0014038086 -76.40024 l 0.0017700195 -76.398575 l -0.12554932 -229.20152 l -22.412506 -3.9083116e-06 l 22.536926 76.43526 l 0.0 76.35241 l -225.99948 -76.39887 l 135.63101 -76.38878 l 22.561615 -1.2009215e-05 l 22.59613 5.8168327e-05 l -158.22551 -5.602484e-05 l -22.537354 -4.913494e-06 l 112.54216 -6.1976934e-06 l -22.041199 -9.51286e-08 l -23.139969 -4.0136e-09 l -22.005493 -6.760092e-08 l -45.379303 152.80006 l -0.0019989014 76.399506 l -0.0014343262 76.3999 l -0.0008544922 76.40036 l -0.0001373291 76.400665 l 0.0005493164 76.40048 l 0.0011138916 76.40015 l 0.00076293945 76.397766 l -0.0015563965 324.20038 l 0.00015258789 37.3183 l -31.884987 -75.11755 l 7.773529 0.0 l 18.276024 0.0 l -0.38536072 0.0 l -9.5473175 0.0 l 0.0206604 0.0 l -64.09622 0.0 l 14.101196 0.0 l -5.316063 0.0 l 15.164978 0.0 l 9.623611 0.0 l 5.2754745 0.0 l -39.000816 -21.38092 l -0.00093078613 -20.41681 l -0.0029830933 -105.60431 l 0.0 -20.471558 l 0.0 -21.211975 l 0.0 83.70227 l 0.0 -20.429626 l 0.0 42.19751 l 0.0 20.435669 l 31.38723 -146.82025 l -6.901108 0.0 l 16.024178 0.0 l 7.099907 0.0 l -47.074974 0.0 l 7.1465225 0.0 l 8.196548 0.0 l 63.99128 0.0 l -7.705887 0.0 l -15.640701 0.0 l 7.132675 0.0 l 424.49344 814.5371 l -0.00024414062 22.475952 l -0.025268555 23.523071 l 0.02532959 27.432983 l 0.00024414062 16.806519 l 0.0008544922 -160.86035 l 0.0 -21.022339 l -6.1035156e-05 63.758423 l 6.1035156e-05 -16.80249 l -0.15600586 -71.17847 l -0.03326416 -0.13647461 l -1.2976685 -21.448242 l 0.0 0.0 l 0.3626709 -0.18920898 l -9.124878 4.7608643 l -0.47149658 0.24597168 l 0.0 0.0 l -5.073242 2.6468506 l 0.0 0.0 l 0.3793335 -0.19787598 l -7.097351 3.703003 l 0.0 0.0 l 0.14398193 -0.07519531 l -14.572937 7.162842 l 0.06085205 -0.030029297 l 19.441467 217.19861 l -16.255371 5.125244 l -16.449554 4.668457 l -18.31723 4.4645996 l -10.621704 2.262329 l -53.80829 5.821533 l 0.0 0.0 l 0.022735596 -0.0007324219 l 10.35672 -0.29541016 l 17.48236 -1.4672852 l 9.592743 -1.2384033 l -70.64911 -0.49206543 l -27.21289 -4.8721924 l -54.777954 -16.98816 l 25.769196 9.311279 l -185.84314 -482.91357 l 0.0 37.333496 l 3.0517578e-05 74.69922 l -1.5258789e-05 -36.699707 l 0.00010681152 74.97656 l 0.0 0.0 l 0.0 0.00024414062 l 1.5258789e-05 0.0007324219 l 0.63549805 35.467285 l -0.6356354 -297.9984 l 0.0 36.711548 l 0.0 37.786865 l 251.56305 -377.64496 l 23.890106 0.0 l 49.014862 0.0 l -24.31186 0.0 l -73.55365 -0.1116333 l -0.60354614 -20.156616 l -24.340149 20.268188 l -23.886475 0.0 l 40.753693 690.1565 l 5.243622 3.2174072 l 9.210846 4.32251 l 18.743988 5.0544434 l -9.036346 -1.9327393 l -52.519043 -53.58081 l -2.2401428 -8.74646 l -2.9449768 -14.675293 l 13.409821 45.94995 l 0.0 0.0 l -0.00018310547 -0.00036621094 l -0.002166748 -0.005126953 l -3.7897644 -8.724487 l 9.55603 16.456299 l 5.456604 5.7249756 l 147.11472 -1.8083496 l -12.922821 5.3927 l -13.1345215 4.937622 l -11.895172 3.9489746 l -43.917847 8.91687 l 0.0 0.0 l 0.0019226074 -0.00024414062 l 0.18365479 -0.020263672 l 9.6675415 -1.0544434 l -21.394287 0.6517334 l 43.36676 -5.0701904 l -10.876648 2.5111084 l -255.01665 88.95593 l -9.329041 -20.016357 l 20.380478 38.83081 l 0.0 0.0 l 6.1035156e-05 0.0 l 0.00016784668 0.00012207031 l 18.176147 19.894775 l 20.37854 18.372314 l 21.865982 16.041138 l 22.625305 13.438599 l -118.760086 -154.01746 l 6.861328 24.288086 l -12.729263 -51.73584 l -7.6827545 -60.551514 l 3.1764374 31.16919 l 343.48904 -666.292 l 24.298676 0.0 l 49.025635 -6.1035156e-05 l -24.438171 0.0 l -220.51947 400.6402 l 0.0 -29.596313 l 0.0 -32.25525 l 0.0 96.48779 l 0.0 31.315796 l 9.1552734e-05 -224.46423 l -6.1035156e-05 62.242798 l 0.0 -29.562988 l 1.6939392 298.10535 l 1.491272 18.702026 l 1.8363953 16.49878 l -5.0098877 -76.71924 l 0.6129761 21.07605 l -0.62387085 -53.48242 l 48.81317 -288.98834 l -47.30771 0.0 l 22.52005 0.0 l 73.528076 0.0 l -23.868774 0.0 l 48.736115 0.0 l 122.57822 -126.034485 l 0.0 -20.9422 l 0.0 -21.054626 l 0.0 -20.936462 l 0.0 84.369934 l 0.0 20.471619 l 0.0 21.050598 l 0.0 21.23822 l 0.0 21.224243 l 0.0 20.444641 l -97.92645 0.16790771 l 24.316193 -0.00012207031 l 48.65744 0.0006713867 l -23.88971 0.0 " /> </g> </svg>