<?xml version="1.0" standalone="no"?><!DOCTYPE svg PUBLIC "-//W3C//DTD SVG 1.1//EN" "http://www.w3.org/Graphics/SVG/1.1/DTD/svg11.dtd" ><svg xmlns="http://www.w3.org/2000/svg" xmlns:xlink="http://www.w3.org/1999/xlink" version="1.1" viewBox="-10 0 692 1000"><g transform="matrix(1 0 0 -1 0 800)"><path stroke="black" fill="none" d="M 1029.0 434.0 l -69.79999 0.0 l -69.79999 0.0 l -69.80005 0.0 l -69.79999 0.0 l -69.79999 0.0 l -69.80005 0.0 l -69.79999 0.0 l -69.79999 0.0 l -95.529724 193.98486 l -0.014465332 -3.5234985 l -3.8303833 -114.13162 l -0.5039978 -3.1919556 l -37.32144 -96.6478 l 38.34015 -27.978699 l -29.940155 -16.101288 l 6.0 -20.570007 l 7.200012 -19.589996 l 19.004913 -20.475006 l -1.0049133 -15.764984 l 10.799988 -16.650024 l -7.0155945 -41.715942 l 0.14041138 0.19232178 l 33.065186 12.553635 l 14.970001 -11.899994 l 15.75 -10.5 l 16.529999 -9.100006 l 17.309998 -7.699997 l 18.090027 -6.300003 l 18.869995 -4.899994 l 19.649994 -3.5 l 20.429993 -2.100006 l 0.0 0.0 l 16.51001 0.3999939 l 15.929993 1.2000122 l 15.349976 2.0 l 14.77002 2.7999878 l 14.190002 3.600006 l 13.609985 4.399994 l 13.030029 5.200012 l 12.450012 6.0 l 11.869995 6.799988 l 0.0 0.0 l 10.950012 8.680008 l 11.25 10.039993 l 11.549988 11.400009 l 11.849976 12.76001 l 12.150024 14.119995 l 12.450012 15.47998 l 12.75 16.839996 l 13.049988 18.200012 l 13.349976 19.559998 l 19.0 -10.600006 l 19.0 -10.599976 l 19.0 -10.600006 l 19.0 -10.600006 l 19.0 -10.600006 l 19.0 -10.600006 l 19.0 -10.600006 l 19.0 -10.599976 l 19.0 -10.600006 l 19.0 -10.600006 l 0.0 0.0 l -8.849976 -14.785004 l -8.950012 -14.354996 l -9.049988 -13.925003 l -9.150024 -13.494995 l -9.25 -13.065002 l -9.349976 -12.6349945 l -9.450012 -12.205002 l -9.549988 -11.774994 l -9.650024 -11.345009 l 0.0 0.0 l -9.869995 -10.510002 l -10.01001 -10.129997 l -10.149963 -9.75 l -10.290039 -9.370003 l -10.429993 -8.989998 l -10.570007 -8.610001 l -10.709961 -8.229996 l -10.850037 -7.8500023 l -10.98999 -7.4699974 l 0.0 0.0 l -11.289978 -6.715 l -11.470032 -6.345001 l -11.649963 -5.9750004 l -11.830017 -5.6049995 l -12.01001 -5.2350006 l -12.190002 -4.865 l -12.369995 -4.4949994 l -12.549988 -4.125 l -12.7300415 -3.755 l 0.0 0.0 l -13.109985 -3.04 l -13.329956 -2.7199998 l -13.550049 -2.4000006 l -13.7699585 -2.08 l -13.990051 -1.7600002 l -14.209961 -1.4400005 l -14.429993 -1.1199989 l -14.650024 -0.80000114 l -14.869995 -0.47999954 l 0.0 0.0 l -42.73999 1.3999996 l -41.02002 4.200001 l -39.299988 7.0 l -82.71484 7.221905 l 13.23526 132.01883 l 0.0010375977 2.2798615 l -225.16708 -75.88154 l 0.002456665 -0.052845 l 164.67216 -58.500557 l 0.0 0.0 l 0.1748352 0.0028229952 l -40.90384 69.91153 l -115.35661 -69.96078 l 0.0 0.0 l 91.45558 0.71519333 l -30.15895 122.165596 l -66.56908 29.954346 l 24.329071 33.80565 l -27.499725 41.8257 l -4.1802673 29.294312 l 1.9154968 46.968414 l -23.035507 31.511566 l 21.676651 45.3826 l -32.23665 40.457397 l 0.0 0.0 l 32.006744 37.03723 l -26.886742 51.842773 l 27.76519 25.325897 l -12.405197 56.5141 l 14.162109 20.050598 l 1.2078705 72.97882 l 26.870026 16.530579 l 19.199997 33.0 l -92.97932 238.76831 l 0.0 0.0 l -30.905602 -29.99176 l 0.0 0.0 l -3.1334991 -42.921204 l 0.0 0.0 l 52.526375 -137.27515 l 0.0 0.0 l 422.5392 683.39264 l 0.0 0.0 l -40.080383 237.08203 l 0.0 0.0 l -231.2468 -867.0549 l -123.169556 553.3581 l 0.0 0.0 l -0.4912567 -180.80554 l 0.0 0.0 l 289.64215 -405.69275 l 0.0 0.0 l -74.21173 -14.604553 l 0.0 0.0 l -22.116272 656.37897 l 0.0 0.0 l 128.42297 52.65442 l 0.0 0.0 l -67.99631 -593.60864 l -177.2043 728.29395 l 0.0 0.0 l -68.781006 -151.64978 l 0.0 0.0 l 345.02618 -672.6624 l 35.983704 -4.642517 l 0.0 0.0 l -193.59488 232.7356 l 0.0 0.0 l -17.642883 169.70288 l 0.0 0.0 l 145.80798 -192.55322 l 0.0 0.0 l 99.18521 -143.07983 l 0.0 0.0 l -6.1035156e-05 -49.918823 l 0.0 0.0 l 0.0017089844 118.40057 l 0.0 0.0 l 0.0010375977 61.73584 l 0.0 0.0 l 67.31732 -87.54224 l 36.700012 -9.589966 l 34.899963 -12.330017 l 33.100037 -15.070007 l 31.299988 -17.809998 l 29.5 -20.549988 l 27.700012 -23.29004 l 0.0 0.0 l 23.559998 -28.25 l 21.079956 -30.349976 l 18.600037 -32.450012 l 16.119995 -34.549988 l 13.640015 -36.650024 l 11.159973 -38.75 l 8.679993 -40.849976 l 6.200012 -42.950012 l 3.7199707 -45.049988 " /> </g> </svg>