<?xml version="1.0" standalone="no"?><!DOCTYPE svg PUBLIC "-//W3C//DTD SVG 1.1//EN" "http://www.w3.org/Graphics/SVG/1.1/DTD/svg11.dtd" ><svg xmlns="http://www.w3.org/2000/svg" xmlns:xlink="http://www.w3.org/1999/xlink" version="1.1" viewBox="-10 0 692 1000"><g transform="matrix(1 0 0 -1 0 800)"><path stroke="black" fill="none" d="M 375.00015 687.4715 l -0.00012207031 -75.86212 l -0.028045654 -76.68121 l -0.0038452148 -75.85925 l 0.007507324 -76.75491 l 0.016662598 -76.4025 l 0.020446777 -76.383286 l -1.4633484 -229.21782 l -20.414429 -4.555864e-05 l 21.864594 76.810974 l 0.0 75.845184 l -225.99388 -76.38684 l 135.96141 -76.26919 l 22.152557 -0.00013998966 l 22.555084 0.0006780595 l -158.49748 -0.0006530732 l -21.86972 -5.7275873e-05 l 107.66295 -7.224562e-05 l -16.08603 -1.1089032e-06 l -28.894333 -4.677986e-08 l -15.669876 -7.8802077e-07 l -47.290146 152.80069 l -0.023330688 76.39435 l -0.016662598 76.39897 l -0.010009766 76.40369 l -0.0016937256 76.40802 l 0.0064697266 76.40564 l 0.012924194 76.401245 l 0.008895874 76.37482 l -0.018005371 326.3352 l 0.0016479492 34.31653 l -30.659264 -74.239136 l 0.044662476 0.0 l 5.315399 0.0 l 15.312904 0.0 l -3.3106384 0.0 l 0.0 0.0 l -64.88077 -6.1035156e-05 l 0.016349792 0.0 l 7.788933 6.1035156e-05 l 0.0 0.0 l 15.61322 -0.00012207031 l 0.008514404 0.0 l 12.348526 6.1035156e-05 l 0.0 0.0 l -37.542908 -25.44049 l -0.010826111 -14.201477 l -0.034812927 -112.04474 l 0.0 -14.8394165 l 0.0 -23.47107 l 0.0 -0.1408081 l 0.0 80.6698 l 0.0 -14.35144 l 0.0 44.302856 l 0.0 14.421265 l 26.303558 -144.90442 l -0.048309326 0.0 l 19.659538 0.0 l 0.14002228 0.0 l -39.81806 0.0 l 0.21037292 0.0 l 8.1343155 0.0 l 63.8983 0.0 l -4.5716095 0.0 l -11.817764 0.0 l 0.18586731 0.0 l 425.8631 816.9579 l -6.1035156e-05 0.020629883 l -0.0025634766 16.870972 l -0.29449463 29.097168 l -0.0021362305 0.018188477 l 0.2767334 37.703003 l 0.0 0.0 l 0.033081055 -171.6156 l 0.0 -0.76000977 l -0.0008544922 45.84143 l 0.0 0.0 l -1.817749 -82.27881 l 0.0 0.0 l -7.060974 -10.90918 l 0.0 0.0 l -14.78894 7.678711 l 0.0 0.0 l -9.018188 4.4190674 l 0.0 0.0 l 13.45282 219.81714 l -0.023010254 0.007080078 l -12.026794 3.7884521 l -20.921051 5.9316406 l -0.015594482 0.0036621094 l -23.77005 5.5651855 l 0.0 0.0 l -53.831665 6.352051 l 0.0 0.0 l 30.10379 -2.395752 l 0.0 0.0 l -85.28488 -4.3651123 l -1.7985535 -0.31677246 l -58.78116 -17.284424 l 0.02822876 0.009521484 l 19.018555 6.863037 l -181.6138 -480.286 l 1.5258789e-05 0.32128906 l -1.5258789e-05 34.17224 l 0.00030517578 69.361694 l -6.1035156e-05 -27.10608 l 0.01637268 73.43469 l 0.0 0.0 l 0.0026550293 0.14624023 l 0.56988525 31.800903 l -0.58917236 -288.1786 l 0.0 27.243774 l 4.5776367e-05 39.77832 l 256.39105 -377.37762 l 17.390839 0.0 l 49.173187 0.0 l -22.306915 0.0 l -74.125305 -1.3010254 l -0.5348511 -18.309265 l -29.137238 19.609314 l -17.348267 0.00018310547 l 43.734924 692.9917 l 0.0 0.0 l 8.996582 4.3442383 l 0.00579834 0.0028076172 l 12.605347 3.930542 l -0.27389526 -0.057495117 l -56.259613 -61.32068 l 0.0 0.0 l -3.0721436 -14.84375 l 0.001953125 0.009277344 l 12.316498 42.75305 l 0.0 0.0 l -0.91378784 -2.1326904 l 11.627258 16.078003 l 0.091796875 0.09899902 l 145.58484 0.710083 l -8.903351 3.717163 l -16.91275 6.2974854 l -8.007233 2.659668 l -38.699097 8.640869 l 0.0 0.0 l 0.7190857 -0.07702637 l -17.575165 0.39379883 l 39.708954 -4.5394287 l -7.2175293 1.6705322 l -258.07135 85.29016 l -6.4415436 -13.796265 l 19.619736 36.928223 l 0.0 0.0 l 0.030395508 0.033203125 l 15.463104 16.92273 l 24.412628 22.126709 l 24.700485 17.543701 l 16.50058 9.801758 l -115.776855 -148.23596 l 4.95726 17.5531 l -11.975464 -48.920166 l -7.7120514 -59.60791 l 2.9253998 28.710083 l 344.97083 -665.67474 l 22.153473 -0.00024414062 l 49.298645 -0.00048828125 l -23.779297 -6.1035156e-05 l -220.72705 379.7544 l 0.0 -2.9141846 l 0.0 -33.909058 l 0.0 98.48804 l 0.0 22.958252 l 0.0011291504 -221.9519 l 6.1035156e-05 0.017944336 l -0.0008239746 41.368652 l -9.1552734e-05 -2.5301514 l 1.8422241 293.26392 l 1.7180481 20.4281 l 1.2651367 11.369873 l -4.6886597 -70.7428 l 0.43133545 14.852905 l -0.5583496 -50.523438 l 46.822113 -289.93073 l -29.273346 0.0 l 1.4888916 0.0 l 73.75873 0.0 l -17.141968 0.0 l 45.923706 0.0 l 123.411865 -126.40167 l 0.0 -20.326477 l 0.0 -21.636719 l 0.0 -20.259644 l 0.0 88.31268 l 0.0 14.840759 l 0.0 21.589417 l 0.0 23.776672 l 0.0 23.61438 l 0.0 14.525879 l -97.14267 1.9576416 l 0.4090271 -0.0034179688 l 21.948456 0.0018920898 l 45.006683 0.0076904297 l -17.385986 0.00018310547 " /> </g> </svg>