<?xml version="1.0" standalone="no"?><!DOCTYPE svg PUBLIC "-//W3C//DTD SVG 1.1//EN" "http://www.w3.org/Graphics/SVG/1.1/DTD/svg11.dtd" ><svg xmlns="http://www.w3.org/2000/svg" xmlns:xlink="http://www.w3.org/1999/xlink" version="1.1" viewBox="-10 0 692 1000"><g transform="matrix(1 0 0 -1 0 800)"><path stroke="black" fill="none" d="M 375.0 687.59674 l 0.0 -76.38641 l -0.0007019043 -76.407104 l -9.1552734e-05 -76.38641 l 0.00018310547 -76.408905 l 0.0004272461 -76.400085 l 0.0005187988 -76.39957 l -0.03677368 -229.20045 l -22.545105 -1.1447182e-06 l 22.581543 76.41033 l 0.0 76.386055 l -225.99985 -76.399666 l 135.6091 -76.39671 l 22.588745 -3.517419e-06 l 22.598846 1.7037111e-05 l -158.20746 -1.6409298e-05 l -22.58165 -1.4391298e-06 l 112.86589 -1.8152623e-06 l -22.436325 -2.786237e-08 l -22.758148 -1.1750672e-09 l -22.425873 -1.97997e-08 l -45.252518 152.80002 l -0.000579834 76.39986 l -0.0004272461 76.39996 l -0.00024414062 76.400116 l -4.5776367e-05 76.40021 l 0.00016784668 76.40015 l 0.00032043457 76.400024 l 0.00022888184 76.39935 l -0.00045776367 324.05865 l 4.5776367e-05 37.517456 l -31.966316 -75.17578 l 7.93367 0.0 l 22.323479 0.0 l -5.609558 0.0 l -8.613358 0.0 l -64.02213 0.0 l 15.443855 0.0 l -7.2138977 0.0 l 15.755432 0.0 l 8.47554 0.0 l 7.2020035 0.0 l -39.707344 -21.111572 l -0.0002670288 -20.829163 l -0.0008773804 -105.177 l 0.0 -20.845215 l 0.0 -21.062134 l 0.0 83.91284 l 0.0 -20.832947 l 0.0 42.05786 l 0.0 20.834656 l 31.820526 -146.94733 l -7.6781464 0.0 l 16.00708 0.0 l 7.736374 0.0 l -47.729065 0.0 l 7.750023 0.0 l 8.057564 0.0 l 63.99745 0.0 l -7.913864 0.0 l -15.89476 0.0 l 7.7459717 0.0 l 424.2506 814.37646 l -0.00012207031 22.846558 l -0.007385254 23.153198 l 0.007446289 24.29834 l 6.1035156e-05 21.186035 l 0.00024414062 -160.9591 l 0.0 -22.420776 l 0.0 67.46472 l 0.0 -21.184692 l -0.045715332 -69.63806 l -3.810913 -20.800537 l 0.0 0.0 l 0.043945312 -0.022949219 l 3.4528809 -1.8015137 l -8.453918 4.4107666 l 0.0 0.0 l -2.4067383 1.2556152 l -0.0068969727 0.0036621094 l -5.391968 2.8131104 l 0.072143555 -0.037597656 l 2.213501 -1.1547852 l -8.555481 4.463623 l 0.0 0.0 l 0.012390137 -0.0064697266 l 1.6340332 -0.85253906 l -15.980347 7.88916 l 19.903687 216.99292 l -16.534424 5.213379 l -16.152863 4.584717 l -16.261505 4.0300293 l -13.569122 2.8898926 l -53.253876 5.666382 l 0.0 0.0 l 0.0006713867 0.0 l 0.017303467 -0.00061035156 l 11.772003 -0.335083 l 14.263336 -1.1721191 l 12.39093 -1.6002197 l -70.183044 -0.1652832 l -28.900818 -5.1748047 l -54.51071 -16.96814 l 26.21524 9.473022 l -186.12375 -483.0879 l 0.0 37.521973 l 1.5258789e-05 75.053345 l -1.5258789e-05 -37.336304 l 1.5258789e-05 75.13318 l 0.0 0.0 l 0.0 0.0 l 0.0 0.0 l 0.6387024 35.647583 l -0.63871765 -298.65002 l 0.0 37.339844 l 0.0 37.654663 l 251.24268 -377.66266 l 24.32138 0.0 l 49.004333 0.0 l -24.444885 0.0 l -73.51572 -0.032714844 l -0.60809326 -20.279236 l -24.02185 20.31195 l -24.320312 0.0 l 39.68338 689.4306 l 6.98761 4.2869873 l 8.701111 4.0024414 l 19.151306 5.1291504 l -9.753113 -2.0864258 l -51.784332 -51.67102 l -2.8835144 -11.259155 l -2.7929688 -14.098755 l 13.432465 46.04492 l 0.0 0.0 l -3.0517578e-05 0.0 l -3.0517578e-05 -0.00012207031 l -3.933258 -9.051147 l 9.417389 16.480225 l 5.94693 6.237549 l 147.08307 -2.1135254 l -13.189514 5.5039062 l -12.88382 4.847412 l -12.153168 4.034546 l -43.872864 8.891846 l 0.0 0.0 l 0.00012207031 0.0 l 0.00045776367 0.0 l 10.09375 -1.1008301 l -21.674072 0.6717529 l 43.609436 -5.1053467 l -11.119415 2.5668945 l -254.81396 89.19922 l -9.52063 -20.4292 l 20.450333 38.97827 l 0.0 0.0 l 1.5258789e-05 0.0 l 1.5258789e-05 0.0 l 18.334976 20.068726 l 20.11087 18.123291 l 21.677917 15.941284 l 23.031677 13.679932 l -118.95802 -154.401 l 6.987671 24.734985 l -12.779297 -51.92273 l -7.6808014 -60.614014 l 3.1931 31.332275 l 343.39075 -666.33295 l 24.44104 0.0 l 49.007507 0.0 l -24.481934 0.0 l -220.50568 402.02606 l 0.0 -31.366821 l 0.0 -32.145386 l 0.0 96.35498 l 0.0 31.87024 l 3.0517578e-05 -224.63086 l -3.0517578e-05 63.62671 l 0.0 -31.356934 l 1.6841125 298.42688 l 1.4762268 18.587402 l 1.8742981 16.839111 l -5.031189 -77.115845 l 0.625 21.489014 l -0.62820435 -53.67871 l 48.945282 -288.92584 l -48.504333 0.0 l 23.920074 0.0 l 73.50824 0.0 l -24.315125 0.0 l 48.9227 0.0 l 122.52292 -126.01007 l 0.0 -20.983093 l 0.0 -21.015991 l 0.0 -20.981384 l 0.0 84.10834 l 0.0 20.845215 l 0.0 21.014832 l 0.0 21.069763 l 0.0 21.065674 l 0.0 20.837341 l -97.978455 0.049194336 l 24.446167 -6.1035156e-05 l 48.89966 0.00024414062 l -24.321228 0.0 " /> </g> </svg>