<?xml version="1.0" standalone="no"?><!DOCTYPE svg PUBLIC "-//W3C//DTD SVG 1.1//EN" "http://www.w3.org/Graphics/SVG/1.1/DTD/svg11.dtd" ><svg xmlns="http://www.w3.org/2000/svg" xmlns:xlink="http://www.w3.org/1999/xlink" version="1.1" viewBox="-10 0 692 1000"><g transform="matrix(1 0 0 -1 0 800)"><path stroke="black" fill="none" d="M 375.0 687.59674 l 0.0 -76.395996 l -0.00021362305 -76.4021 l -3.0517578e-05 -76.39603 l 6.1035156e-05 -76.40259 l 0.00012207031 -76.400055 l 0.00015258789 -76.39986 l -0.010772705 -229.20013 l -22.583923 -3.3528067e-07 l 22.594604 76.40303 l 0.0 76.39592 l -225.99995 -76.39991 l 135.60268 -76.39904 l 22.59671 -1.0302283e-06 l 22.59964 4.9900545e-06 l -158.2022 -4.806172e-06 l -22.59462 -4.215117e-07 l 112.960724 -5.3167787e-07 l -22.552063 -8.160896e-09 l -22.646317 -3.43789e-10 l -22.548996 -5.7998477e-09 l -45.215378 152.8 l -0.00016784668 76.39996 l -0.0001373291 76.399994 l -6.1035156e-05 76.400024 l -1.5258789e-05 76.400055 l 4.5776367e-05 76.400024 l 9.1552734e-05 76.400024 l 7.6293945e-05 76.39984 l -0.0001373291 324.01715 l 1.5258789e-05 37.575806 l -31.990143 -75.19287 l 7.9805756 0.0 l 23.508957 0.0 l -7.2998505 0.0 l -8.179657 0.0 l -64.00648 0.0 l 15.837105 0.0 l -7.7697525 0.0 l 15.928368 0.0 l 8.139282 0.0 l 7.7662735 0.0 l -39.914284 -21.032654 l -7.6293945e-05 -20.950012 l -0.0002593994 -105.05182 l 0.0 -20.95465 l 0.0 -21.018188 l 0.0 83.97443 l 0.0 -20.95105 l 0.0 42.016968 l 0.0 20.951538 l 31.947433 -146.98456 l -7.905731 0.0 l 16.002075 0.0 l 7.922783 0.0 l -47.920647 0.0 l 7.9267883 0.0 l 8.016861 0.0 l 63.999252 0.0 l -7.974777 0.0 l -15.96917 0.0 l 7.9255905 0.0 l 424.1795 814.32947 l -6.1035156e-05 22.954956 l -0.0021362305 23.044922 l 0.0021972656 23.380249 l 0.0 22.46875 l 6.1035156e-05 -160.98804 l 0.0 -22.830322 l 0.0 68.55029 l 0.0 -22.468262 l -0.013366699 -69.18689 l -4.14032 -20.778076 l 0.050476074 -0.026367188 l 1.2539673 -0.65405273 l 2.7438354 -1.4317627 l -8.497009 4.4333496 l -0.09075928 0.04736328 l -2.713684 1.4157715 l -0.013305664 0.006958008 l -6.4416504 3.3608398 l 1.4091187 -0.7352295 l 2.496338 -1.3023682 l -9.034119 4.713379 l 0.0 0.0 l 0.00036621094 -0.00012207031 l 0.0064697266 -0.0034179688 l 2.1246948 -1.1085205 l -16.446838 8.130127 l 20.021301 216.9414 l -16.61615 5.239258 l -16.065979 4.5601807 l -15.659393 3.902832 l -14.432434 3.0737305 l -53.049957 5.619629 l 0.0 0.0 l 6.1035156e-05 0.0 l 0.00012207031 0.0 l 12.161407 -0.34606934 l 13.320526 -1.0856934 l 13.21051 -1.7060547 l -70.04654 -0.06970215 l -29.395233 -5.2633057 l -54.432404 -16.962402 l 26.345856 9.520386 l -186.20593 -483.13892 l 0.0 37.57715 l 0.0 75.157104 l 0.0 -37.522705 l 0.0 75.180176 l 0.0 0.0 l 0.0 0.0 l 0.0 0.00012207031 l 0.6396179 35.698853 l -0.6396179 -298.84094 l 0.0 37.523804 l 0.0 37.615967 l 251.14883 -377.6678 l 24.447693 0.0 l 49.00128 0.0 l -24.483856 0.0 l -73.50461 -0.0095825195 l -0.60943604 -20.315125 l -23.92862 20.324707 l -24.447388 0.0 l 39.369873 689.21796 l 7.498413 4.6002197 l 8.551849 3.9088135 l 19.2706 5.151001 l -9.963043 -2.1313477 l -51.569153 -51.111694 l -3.07193 -11.995117 l -2.7484741 -13.929932 l 13.437927 46.069946 l 0.0 0.0 l 0.0 0.0 l -3.0517578e-05 0.0 l -3.9734802 -9.142578 l 9.376801 16.487183 l 6.0905457 6.3878174 l 147.07379 -2.203003 l -13.267609 5.536499 l -12.810425 4.820923 l -12.228699 4.0595703 l -43.850494 8.883667 l 0.0 0.0 l 0.0 0.0 l 3.0517578e-05 0.0 l 10.155731 -1.1074219 l -21.756042 0.6776123 l 43.680542 -5.1157227 l -11.190521 2.583252 l -254.75461 89.27051 l -9.576752 -20.550049 l 20.471268 39.02185 l 0.0 0.0 l 0.0 0.0 l 0.0 0.0 l 18.380997 20.119263 l 20.032486 18.05017 l 21.622818 15.912109 l 23.150696 13.75061 l -119.015976 -154.5133 l 7.024658 24.865845 l -12.79393 -51.977417 l -7.680237 -60.632324 l 3.1979828 31.380005 l 343.36194 -666.3449 l 24.482758 0.0 l 49.002197 0.0 l -24.494751 0.0 l -220.50165 402.43195 l 0.0 -31.885376 l 0.0 -32.11328 l 0.0 96.31616 l 0.0 32.032715 l 0.0 -224.67969 l 0.0 64.03198 l 0.0 -31.882324 l 1.6812134 298.521 l 1.4718323 18.553833 l 1.885376 16.93872 l -5.0374146 -77.23193 l 0.62854004 21.609985 l -0.6294861 -53.736206 l 48.98398 -288.90753 l -48.854828 0.0 l 24.33017 0.0 l 73.50241 0.0 l -24.445862 0.0 l 48.977356 0.0 l 122.506714 -126.00293 l 0.0 -20.995056 l 0.0 -21.0047 l 0.0 -20.994568 l 0.0 84.03174 l 0.0 20.954712 l 0.0 21.004333 l 0.0 21.020386 l 0.0 21.019287 l 0.0 20.952332 l -97.99368 0.014404297 l 24.484222 0.0 l 48.970642 6.1035156e-05 l -24.447693 0.0 " /> </g> </svg>