<?xml version="1.0" standalone="no"?><!DOCTYPE svg PUBLIC "-//W3C//DTD SVG 1.1//EN" "http://www.w3.org/Graphics/SVG/1.1/DTD/svg11.dtd" ><svg xmlns="http://www.w3.org/2000/svg" xmlns:xlink="http://www.w3.org/1999/xlink" version="1.1" viewBox="-10 0 692 1000"><g transform="matrix(1 0 0 -1 0 800)"><path stroke="black" fill="none" d="M 375.00177 686.10205 l -0.0012512207 -70.13031 l -0.3269043 -79.67755 l -0.044891357 -70.09689 l 0.087371826 -80.53717 l 0.19430542 -76.42886 l 0.23843384 -76.20534 l -17.058228 -229.4077 l -0.5505371 -0.00017989986 l 17.454865 81.19031 l 9.1552734e-05 69.932465 l -225.92856 -76.24649 l 139.81271 -74.87515 l 17.384033 -0.0016318392 l 22.076752 0.007904042 l -161.66771 -0.0076127797 l -14.087296 -0.00066765666 l 83.68184 -0.00073440117 l 0.0 0.0 l -32.403336 -2.462772e-05 l 0.0 0.0 l -54.512466 152.80795 l -0.27200317 76.33406 l -0.19429016 76.38823 l -0.11657715 76.44241 l -0.019714355 76.4939 l 0.07536316 76.46594 l 0.15071106 76.41412 l 0.10362244 76.10651 l -0.20986938 351.22168 l 0.0121154785 1.0510254 l -13.453308 -65.72583 l 0.0 0.0 l 1.8596039 0.00018310547 l -39.63965 -0.0025634766 l 0.0 0.0 l 13.102615 -0.015930176 l 0.0 0.0 l -40.088753 -30.280334 l 0.0 0.0 l -1.6651001 -140.38928 l 0.0 0.0 l 0.0 -29.936829 l 0.0 0.0 l -7.6293945e-06 84.45648 l 0.0 0.0 l 0.0 44.328003 l 0.0 0.0 l 44.009712 -138.15985 l 0.0 0.0 l -32.11312 0.0 l 0.0 0.0 l 63.730545 0.0 l 0.0 0.0 l -1.9843292 0.0 l 414.0816 863.9386 l 0.0 0.0 l -11.876282 43.947754 l 0.0 0.0 l 12.172546 -129.67249 l 0.0 0.0 l -12.949036 -94.841064 l 0.0 0.0 l -39.608917 239.29517 l 0.0 0.0 l -20.992218 4.876343 l 0.0 0.0 l -71.90216 4.1220703 l 0.0 0.0 l -59.700775 -9.260498 l 0.0 0.0 l -202.86722 -473.92175 l 0.0 0.0 l 4.5776367e-05 1.7130127 l 0.010635376 75.597534 l 0.0 0.0 l 0.44528198 83.47974 l 0.0 0.0 l -0.45559692 -256.24683 l 0.0 0.0 l -7.6293945e-05 41.56421 l 0.0 -0.01550293 l 270.8579 -374.24658 l 0.0 0.0 l 34.46103 0.00018310547 l -0.8606262 0.0 l -78.86386 -15.1658325 l 0.03387451 -0.46954346 l -41.877228 15.601257 l 0.0 0.0 l 48.336517 697.182 l 0.0 0.0 l 9.6987 2.057251 l -55.50876 -69.822754 l 0.0 0.0 l 20.076904 49.5708 l 0.0 0.0 l 134.50772 8.869141 l 0.0 0.0 l -23.175415 8.078369 l 0.0 0.0 l -50.556793 8.328369 l 0.0 0.0 l 24.18808 -1.9724121 l 0.0 0.0 l -251.90625 81.45532 l 0.0 0.0 l 15.995224 29.413452 l 0.0 0.0 l 56.211258 49.358765 l 15.96225 10.1085205 l 0.0 0.0 l -107.268616 -135.80566 l 0.0 0.0 l -7.274597 -29.731445 l -8.053635 -48.609497 l 0.1151886 1.1722412 l 362.12805 -659.607 l 0.5794678 -0.0009765625 l 49.04828 -0.0071411133 l -16.098328 -0.0009765625 l -223.14658 363.96362 l 0.0 0.0 l -9.1552734e-05 88.6167 l 0.0 0.0 l 0.012756348 -206.68665 l 0.0 0.0 l 0.025115967 11.956055 l 3.5358276 335.72913 l 0.8876953 8.997681 l 0.0 0.0 l -4.017975 -60.267456 l 0.0 0.0 l -0.3269348 -31.39624 l 31.000671 -300.91498 l -0.46878052 0.0 l 53.60028 0.0 l 0.0 0.0 l 27.621521 0.0 l 133.12946 -130.68256 l 0.0 -13.148682 l 0.0 -28.42218 l 0.0 -0.31072998 l 0.0 -12.058655 l 0.0 103.38257 l 0.0 0.0 l 0.0 7.9630737 l 0.0 53.36731 l 0.0 12.782654 l 0.0 0.0 l -89.38278 7.03656 l 0.0 0.0 l 0.9015503 -0.00982666 l 44.39914 0.06951904 l 0.0 0.0 " /> </g> </svg>