<?xml version="1.0" standalone="no"?><!DOCTYPE svg PUBLIC "-//W3C//DTD SVG 1.1//EN" "http://www.w3.org/Graphics/SVG/1.1/DTD/svg11.dtd" ><svg xmlns="http://www.w3.org/2000/svg" xmlns:xlink="http://www.w3.org/1999/xlink" version="1.1" viewBox="-10 0 692 1000"><g transform="matrix(1 0 0 -1 0 800)"><path stroke="black" fill="none" d="M 1029.0 434.0 l -69.79999 0.0 l -69.79999 0.0 l -69.80005 0.0 l -69.79999 0.0 l -69.79999 0.0 l -69.80005 0.0 l -69.79999 0.0 l -69.79999 0.0 l -94.95172 147.65576 l 0.0 0.0 l -44.648285 -147.65576 l 0.0 0.0 l 2.399994 -23.51001 l 30.470093 -26.744354 l -22.070099 -17.335632 l 6.0 -20.570007 l 7.200012 -19.589996 l 16.602448 -20.05252 l 1.3975525 -16.18747 l 10.799988 -16.650024 l -2.7077942 -35.815475 l 0.014709473 0.020141602 l 28.883087 6.825348 l 14.970001 -11.899994 l 15.75 -10.5 l 16.529999 -9.100006 l 17.309998 -7.699997 l 18.090027 -6.300003 l 18.869995 -4.899994 l 19.649994 -3.5 l 20.429993 -2.100006 l 0.0 0.0 l 16.51001 0.3999939 l 15.929993 1.2000122 l 15.349976 2.0 l 14.77002 2.7999878 l 14.190002 3.600006 l 13.609985 4.399994 l 13.030029 5.200012 l 12.450012 6.0 l 11.869995 6.799988 l 0.0 0.0 l 10.950012 8.680008 l 11.25 10.039993 l 11.549988 11.400009 l 11.849976 12.76001 l 12.150024 14.119995 l 12.450012 15.47998 l 12.75 16.839996 l 13.049988 18.200012 l 13.349976 19.559998 l 19.0 -10.600006 l 19.0 -10.599976 l 19.0 -10.600006 l 19.0 -10.600006 l 19.0 -10.600006 l 19.0 -10.600006 l 19.0 -10.600006 l 19.0 -10.599976 l 19.0 -10.600006 l 19.0 -10.600006 l 0.0 0.0 l -8.849976 -14.785004 l -8.950012 -14.354996 l -9.049988 -13.925003 l -9.150024 -13.494995 l -9.25 -13.065002 l -9.349976 -12.6349945 l -9.450012 -12.205002 l -9.549988 -11.774994 l -9.650024 -11.345009 l 0.0 0.0 l -9.869995 -10.510002 l -10.01001 -10.129997 l -10.149963 -9.75 l -10.290039 -9.370003 l -10.429993 -8.989998 l -10.570007 -8.610001 l -10.709961 -8.229996 l -10.850037 -7.8500023 l -10.98999 -7.4699974 l 0.0 0.0 l -11.289978 -6.715 l -11.470032 -6.345001 l -11.649963 -5.9750004 l -11.830017 -5.6049995 l -12.01001 -5.2350006 l -12.190002 -4.865 l -12.369995 -4.4949994 l -12.549988 -4.125 l -12.7300415 -3.755 l 0.0 0.0 l -13.109985 -3.04 l -13.329956 -2.7199998 l -13.550049 -2.4000006 l -13.7699585 -2.08 l -13.990051 -1.7600002 l -14.209961 -1.4400005 l -14.429993 -1.1199989 l -14.650024 -0.80000114 l -14.869995 -0.47999954 l 0.0 0.0 l -42.73999 1.3999996 l -41.02002 4.200001 l -39.299988 7.0 l -37.580017 9.8 l -31.989716 121.43631 l 0.0 0.0 l -223.08575 -108.427666 l 0.0 0.0 l 185.90723 -14.596969 l 0.0 0.0 l -63.95175 68.78832 l -32.791275 -42.540764 l 0.0038146973 0.06630707 l -21.272522 95.39446 l -56.572037 30.182175 l 14.332031 33.57782 l -25.157364 40.197845 l -6.522629 30.922165 l -1.2097473 45.009186 l -19.910263 33.470795 l 15.270828 44.616302 l -25.830826 41.223694 l 0.0 0.0 l 25.045883 38.913635 l -19.92588 49.96637 l 22.925102 29.057953 l -7.5651093 52.782043 l 13.563568 24.180298 l 4.123932 64.71942 l 24.552505 20.660278 l 19.199997 33.0 l -93.13983 238.47412 l 0.0 0.0 l 18.647842 -209.89392 l 0.0 0.0 l 379.94604 919.74567 l 0.0 0.0 l -228.73407 -866.32587 l -82.50748 352.37506 l 0.0 0.0 l 181.62122 -419.71753 l 0.0 0.0 l 7.457184 676.3854 l 0.0 0.0 l 23.509094 -541.3629 l -214.9442 669.2865 l 0.0 0.0 l 345.14368 -770.0347 l 0.0 0.0 l -61.289062 209.38123 l 0.0 0.0 l 47.700928 -1.9661865 l 52.166504 -153.43372 l 0.0 0.0 l 0.2142334 140.2406 l 0.0 0.0 l 67.10791 -84.65369 l 36.700012 -9.589966 l 34.899963 -12.330017 l 33.100037 -15.070007 l 31.299988 -17.809998 l 29.5 -20.549988 l 27.700012 -23.29004 l 0.0 0.0 l 23.559998 -28.25 l 21.079956 -30.349976 l 18.600037 -32.450012 l 16.119995 -34.549988 l 13.640015 -36.650024 l 11.159973 -38.75 l 8.679993 -40.849976 l 6.200012 -42.950012 l 3.7199707 -45.049988 " /> </g> </svg>