<?xml version="1.0" standalone="no"?><!DOCTYPE svg PUBLIC "-//W3C//DTD SVG 1.1//EN" "http://www.w3.org/Graphics/SVG/1.1/DTD/svg11.dtd" ><svg xmlns="http://www.w3.org/2000/svg" xmlns:xlink="http://www.w3.org/1999/xlink" version="1.1" viewBox="-10 0 692 1000"><g transform="matrix(1 0 0 -1 0 800)"><path stroke="black" fill="none" d="M 375.00003 687.5623 l -3.0517578e-05 -76.24243 l -0.0082092285 -76.48242 l -0.0011291504 -76.24161 l 0.0021972656 -76.50394 l 0.0048828125 -76.40076 l 0.0059814453 -76.395096 l -0.42861938 -229.20522 l -21.959839 -1.3343815e-05 l 22.384583 76.52037 l 0.0 76.237495 l -225.9982 -76.39614 l 135.70587 -76.36169 l 22.468933 -4.1002022e-05 l 22.586823 0.00019859907 l -158.28711 -0.00019128073 l -22.386108 -1.6775713e-05 l 111.43683 -2.116025e-05 l -20.692123 -3.2479056e-07 l -24.443558 -1.3700628e-08 l -20.57022 -2.3080611e-07 l -45.81218 152.8002 l -0.0068359375 76.398346 l -0.0048828125 76.399704 l -0.0029296875 76.40109 l -0.00048828125 76.40234 l 0.0018920898 76.40161 l 0.0037841797 76.40039 l 0.002609253 76.39264 l -0.005279541 324.68396 l 0.00048828125 36.638306 l -31.607315 -74.91858 l 0.15834808 0.0 l 7.0684357 0.0 l 17.868904 0.0 l 0.0 0.0 l -8.69664 0.0 l 0.006729126 0.0 l -64.26473 0.0 l 0.0818634 0.0 l 9.435257 0.0 l -0.25712585 0.0 l 14.5696945 -6.1035156e-05 l 0.031539917 0.0 l 13.511765 6.1035156e-05 l 0.23635864 0.0 l -38.127 -22.300598 l -0.0031738281 -19.00879 l -0.010192871 -107.063354 l 0.0 -19.195618 l 0.0 -21.723755 l 0.0 82.9834 l 0.0 -19.052673 l 0.0 42.6745 l 0.0 19.07312 l 29.907875 -146.38623 l -4.2481537 0.0 l 16.08255 0.0 l 4.9268875 0.0 l -44.84175 0.0 l 5.0860367 0.0 l 8.671066 0.0 l 63.970207 0.0 l -6.9958344 0.0 l -14.773254 0.0 l 5.0387573 0.0 l 425.3225 815.08545 l -0.00061035156 0.14526367 l -0.00018310547 21.065674 l -0.086242676 24.785767 l -0.015136719 0.1295166 l 0.10144043 38.005615 l 0.0009765625 1.8579102 l 0.0028076172 -160.52698 l 0.0 -16.247925 l -6.1035156e-05 51.104492 l 6.1035156e-05 -1.8443604 l -0.5326538 -76.43408 l -0.0045166016 -0.018554688 l -1.0560913 -19.966553 l 0.0 0.0 l -8.914551 4.651123 l 0.0 0.0 l -5.5427856 2.8917236 l 0.0 0.0 l -6.2128296 3.2410889 l 0.0 0.0 l -13.713623 6.7421875 l 0.01159668 -0.0057373047 l 18.12024 217.77429 l -0.12609863 0.03857422 l -15.176514 4.7854004 l -17.462555 4.95459 l -0.09844971 0.023071289 l -25.237488 5.925293 l -0.7914734 0.16882324 l -53.81552 6.2541504 l 0.0 0.0 l 3.9109192 -0.11328125 l 28.472778 -2.4748535 l 0.58621216 -0.07434082 l -72.787476 -1.536499 l -21.44992 -3.8392334 l -55.69043 -17.056274 l 0.20950317 0.07116699 l 24.036774 8.687622 l -184.885 -482.31824 l 0.0 36.690063 l 7.6293945e-05 73.49011 l -1.5258789e-05 -34.526367 l 0.0013580322 74.49292 l 0.0 0.0 l 4.5776367e-05 0.0029296875 l 0.007461548 0.41125488 l 0.6161804 34.390747 l -0.6251221 -295.77393 l 0.0 34.566772 l 1.5258789e-05 38.238037 l 252.65678 -377.5844 l 22.417755 0.0 l 49.05075 0.0 l -23.857666 0.0 l -73.68317 -0.38104248 l -0.5879822 -19.73816 l -25.42688 20.118896 l -22.405304 6.1035156e-05 l 44.40796 692.63495 l 0.28216553 0.17382812 l 9.941589 4.798462 l 0.016693115 0.008178711 l 17.353333 4.7998047 l -6.5891724 -1.4084473 l -55.027496 -60.101074 l -0.15551758 -0.60546875 l -3.3519897 -16.205566 l 0.007843018 0.037597656 l 13.278046 45.47888 l 0.0 0.0 l -0.0045776367 -0.0107421875 l -3.2586975 -7.5131836 l 10.029236 16.374634 l 3.7826233 3.9748535 l 147.22272 -0.7664795 l -12.012268 5.0131836 l -13.990448 5.2457275 l -11.014404 3.6568604 l -43.704407 8.961426 l 0.0 0.0 l 0.088531494 -0.009765625 l 8.574066 -0.9362793 l -20.438965 0.583374 l 42.538116 -4.949951 l -10.047699 2.3206787 l -255.70868 88.12549 l -8.674896 -18.6073 l 20.16011 38.34729 l 0.0 0.0 l 0.00079345703 0.0008544922 l 0.03630066 0.03967285 l 17.579529 19.241089 l 21.29242 19.2229 l 22.508118 16.38147 l 21.237793 12.614746 l -118.08424 -152.70776 l 6.429962 22.76233 l -12.558487 -51.0979 l -7.689392 -60.33777 l 3.1195679 30.61206 l 343.82474 -666.1521 l 23.812714 -6.1035156e-05 l 49.087463 -0.00018310547 l -24.28888 0.0 l -220.56653 395.9087 l 0.0 -23.551514 l 0.0 -32.630127 l 0.0 96.94092 l 0.0 29.422485 l 0.00033569336 -223.89514 l -0.00021362305 57.518066 l -3.0517578e-05 -23.438477 l 1.7275085 297.00818 l 1.5426636 19.093018 l 1.7069702 15.336792 l -4.9371033 -75.36536 l 0.57180786 19.66626 l -0.6090088 -52.81201 l 48.36212 -289.20184 l -43.2222 0.0 l 17.74002 0.0 l 73.59595 0.0 l -22.34488 0.0 l 48.09897 0.0 l 122.76709 -126.117676 l 0.0 -20.802673 l 0.0 -21.186523 l 0.0 -20.783142 l 0.0 85.26312 l 0.0 19.196045 l 0.0 21.172607 l 0.0 21.813293 l 0.0 21.765747 l 0.0 19.10376 l -97.7489 0.57336426 l 23.872467 -0.0004272461 l 47.830414 0.0022583008 l -22.416382 0.0 " /> </g> </svg>