<?xml version="1.0" standalone="no"?><!DOCTYPE svg PUBLIC "-//W3C//DTD SVG 1.1//EN" "http://www.w3.org/Graphics/SVG/1.1/DTD/svg11.dtd" ><svg xmlns="http://www.w3.org/2000/svg" xmlns:xlink="http://www.w3.org/1999/xlink" version="1.1" viewBox="-10 0 692 1000"><g transform="matrix(1 0 0 -1 0 800)"><path stroke="black" fill="none" d="M 375.00052 687.16125 l -0.00036621094 -74.5636 l -0.09576416 -77.359985 l -0.013153076 -74.55386 l 0.025604248 -77.611755 l 0.056915283 -76.40848 l 0.06982422 -76.34297 l -4.9962463 -229.26083 l -15.13797 -0.00015554694 l 20.089142 77.803154 l 3.0517578e-05 74.50571 l -225.97908 -76.35504 l 136.83388 -75.953384 l 21.072296 -0.0004779547 l 22.446716 0.0023150402 l -159.21567 -0.0022297315 l -20.106674 -0.00019555207 l 94.77817 -0.00024666195 l -1.029602 -3.2512035e-06 l -43.420486 -6.945447e-07 l -0.6755829 -1.4300167e-06 l -50.5997 152.80235 l -0.07966614 76.38069 l -0.056915283 76.396545 l -0.03413391 76.412445 l -0.005783081 76.42749 l 0.022079468 76.41928 l 0.044143677 76.404175 l 0.030349731 76.314026 l -0.06147766 331.97302 l 0.005630493 26.389404 l -28.73027 -71.91943 l 0.0 0.0 l 0.32775116 0.0 l 15.166588 0.0 l 0.0 0.0 l -60.646767 -0.00018310547 l 0.0 0.0 l 1.4648285 0.00012207031 l 20.653427 -0.0004272461 l 0.0 0.0 l 2.9999008 -0.00030517578 l -31.04792 -36.160095 l -0.012168884 -0.49047852 l -0.14364624 -126.35016 l 0.0 -0.8911743 l 0.0 -28.512085 l 0.0 -0.019042969 l 0.0 72.16815 l 0.0 -0.55700684 l 0.0 52.11908 l 0.0 0.5918579 l 30.98246 -141.89825 l 0.0 0.0 l 13.624565 0.0 l 0.0 0.0 l -35.45823 0.0 l 0.0 0.0 l 2.0311203 0.0 l 66.77852 0.0 l -0.1005249 0.0 l -14.687546 0.0 l 0.0 0.0 l 424.94318 823.3308 l 0.0 0.0 l -0.008972168 2.1643066 l -1.0054321 43.81714 l 0.0 0.0 l 0.6637573 26.755249 l 0.3859253 -159.48938 l 0.0 0.0 l -0.0099487305 44.0907 l -8.869141 -99.72266 l 0.0 0.0 l -16.888367 8.714844 l 0.0 0.0 l 2.012024 224.57922 l 0.0 0.0 l -1.1627197 0.3544922 l -32.729218 9.267456 l 0.0 0.0 l -9.720795 2.2720947 l -32.55258 5.9732666 l 0.0 0.0 l -82.464294 -4.1156006 l 0.0 0.0 l -56.764954 -15.665039 l 0.0 0.0 l 1.4464417 0.48962402 l -170.44514 -473.34766 l 0.0 0.040405273 l 1.5258789e-05 26.95337 l 0.0010223389 55.266846 l -0.00019836426 -1.8668213 l 0.1930542 76.82593 l 0.0 0.0 l 0.2725067 15.280884 l -0.46643066 -262.24683 l -1.5258789e-05 2.2722168 l 0.0001373291 45.006836 l 1.5258789e-05 -0.095581055 l 269.14066 -376.5761 l 0.9968872 0.0 l 48.822205 -6.1035156e-05 l -17.012268 0.0 l -75.63495 -4.4419556 l -0.35351562 -13.430725 l -41.805145 17.869324 l -0.9519043 0.00048828125 l 44.555054 695.1514 l 2.5297241 1.244751 l 0.0 0.0 l 14.068756 4.6602783 l 0.0 0.0 l -57.023407 -66.024536 l -1.4177551 -6.7316895 l 0.0 0.0 l 10.946472 36.690796 l 0.0 0.0 l 9.740448 14.445068 l 0.0 0.0 l 140.00293 6.1799316 l -0.41015625 0.1739502 l -24.76886 9.00708 l -0.3251953 0.10961914 l -41.282867 8.839233 l 0.0 0.0 l -11.941193 0.48913574 l 30.049744 -3.1378174 l -0.2946167 0.07287598 l -263.39825 74.98743 l -0.19473267 -0.3955078 l 21.623993 37.81006 l 0.0 0.0 l 5.7738495 6.313843 l 35.065628 32.041138 l 32.18573 21.511963 l 0.91537476 0.5465088 l -108.487564 -133.31775 l 0.23478699 0.8441162 l -10.290558 -42.56079 l -7.7894287 -57.116333 l 2.2624664 22.216064 l 348.88397 -664.0446 l 16.488464 -0.0008544922 l 50.01953 -0.0015258789 l -22.039246 -0.00030517578 l -221.27524 367.15778 l 0.0 0.0 l 0.0 -13.2873535 l 0.0 103.77026 l 0.0 1.2994385 l 0.0038146973 -215.72888 l 3.0517578e-05 0.006225586 l -0.00061035156 36.22754 l 0.0 0.0 l 2.2315063 299.41272 l 2.3168945 24.986328 l 0.047943115 0.43493652 l -4.131775 -57.569946 l 0.015930176 0.58203125 l -0.44955444 -44.87256 l 41.56421 -292.41913 l -21.64505 0.0 l 0.0 0.0 l 60.314606 0.0 l -0.77835083 0.0 l 39.897095 0.0 l 125.61328 -127.37146 l 0.0 -18.70044 l 0.0 -23.17389 l 0.0 -1.7539673 l 0.0 -16.7182 l 0.0 98.72443 l 0.0 0.89245605 l 0.0 22.090942 l 0.0 30.480164 l 0.0 29.926025 l 0.0 0.6499634 l -95.07291 4.9297485 l 0.06964111 -0.0005493164 l 17.115356 -0.004638672 l 35.36606 0.026306152 l -0.99157715 0.0004272461 " /> </g> </svg>