<?xml version="1.0" standalone="no"?><!DOCTYPE svg PUBLIC "-//W3C//DTD SVG 1.1//EN" "http://www.w3.org/Graphics/SVG/1.1/DTD/svg11.dtd" ><svg xmlns="http://www.w3.org/2000/svg" xmlns:xlink="http://www.w3.org/1999/xlink" version="1.1" viewBox="-10 0 692 1000"><g transform="matrix(1 0 0 -1 0 800)"><path stroke="black" fill="none" d="M 375.006 682.4858 l -0.004272461 -54.9942 l -1.1161804 -87.59003 l -0.1532898 -54.879913 l 0.29837036 -90.52521 l 0.6633301 -76.498505 l 0.8140869 -75.73541 l -17.639465 -229.8951 l 0.0 0.0 l 17.114044 92.74048 l 0.00033569336 54.31842 l -225.75609 -75.87585 l 0.046829224 -1.007843 l 149.93628 -70.18602 l 4.7931824 -0.005571074 l 20.81195 0.02698571 l -170.03798 -0.025991512 l -0.30770874 -0.0002623573 l 74.66243 0.0005993061 l 0.0 0.0 l -78.93358 152.82193 l -0.92866516 76.174866 l -0.6633301 76.35979 l -0.39801025 76.54477 l -0.067337036 76.72058 l 0.2572937 76.62512 l 0.5145874 76.4483 l 0.35377502 75.39789 l -1.6201935 342.35675 l 0.0 0.0 l -20.687263 -55.440735 l 0.0 0.0 l -39.343605 -0.75006104 l 0.0 0.0 l -17.508339 -30.100708 l -1.1214676 -137.6643 l 0.0 0.0 l -0.0002822876 95.83197 l 0.0 0.0 l 9.767082 -137.33185 l 0.0 0.0 l 46.200974 0.0 l 0.0 0.0 l 419.95837 905.1095 l 0.0 0.0 l -0.8508911 -221.72668 l 0.0 0.0 l -42.972534 239.1792 l 0.0 0.0 l -123.83942 5.201172 l 0.0 0.0 l -228.25937 -432.74854 l 0.0 0.0 l 0.4496765 112.07703 l 0.0 0.0 l -0.44540405 -241.8573 l -0.0062713623 21.12915 l 0.0 0.0 l 279.36957 -366.03705 l 12.434479 0.0022583008 l 0.0 0.0 l -71.574646 -14.620117 l 0.0 0.0 l -30.176178 14.221924 l 43.51529 697.8181 l 0.0 0.0 l -27.227936 -18.525513 l 0.0 0.0 l 118.43411 14.645508 l 0.0 0.0 l -29.621582 8.03833 l 0.0 0.0 l -250.09462 93.092285 l 0.0 0.0 l 92.29909 83.09741 l 0.0 0.0 l -128.25168 -192.40735 l 0.0 0.0 l -3.335907 -21.802979 l 0.0 0.0 l 359.27017 -663.43695 l 0.0 0.0 l 37.91992 -0.10876465 l -0.58288574 -0.0012207031 l -224.72058 354.67523 l 0.0 0.0 l 0.39620972 -115.57709 l 0.0 0.0 l 5.2530518 367.82257 l 0.0 0.0 l -5.6910706 -119.9906 l 0.0 0.0 l 37.07376 -276.93964 l 0.0 0.0 l 98.47 0.00012207031 l 0.0 0.0 l 109.44916 -141.9859 l 0.0 -0.33441162 l 0.0 -32.17395 l 0.0 0.0 l 0.0 -0.12823486 l 0.0 97.1759 l 0.0 0.0 l 0.0 68.135864 l 0.0 0.0 l -56.699036 8.254456 l 0.0 0.0 l 5.878174 0.6958618 " /> </g> </svg>