<?xml version="1.0" standalone="no"?><!DOCTYPE svg PUBLIC "-//W3C//DTD SVG 1.1//EN" "http://www.w3.org/Graphics/SVG/1.1/DTD/svg11.dtd" ><svg xmlns="http://www.w3.org/2000/svg" xmlns:xlink="http://www.w3.org/1999/xlink" version="1.1" viewBox="-10 0 692 1000"><g transform="matrix(1 0 0 -1 0 800)"><path stroke="black" fill="none" d="M 366.55612 730.9463 l -28.038849 -26.839722 l -26.427948 -30.027649 l 0.0 0.0 l 0.0 0.0 l 0.0 0.0 l -20.221405 -31.706665 l 417.33118 -727.40906 l 31.89972 9.521133 l 31.925232 12.625469 l 29.773682 14.715519 l 29.712646 17.823513 l -190.2107 -65.699875 l 0.0 0.0 l 6.1035156e-05 0.0 l 0.0 7.6293945e-06 l 33.63263 4.093445 l -109.684326 1.5909958 l 36.7323 -4.216011 l -73.470215 11.470428 l 585.3792 626.8643 l 0.0 -94.44849 l -0.00012207031 189.97174 l 0.00012207031 -475.27795 l 0.0 95.40738 l 0.0 94.45993 l -320.65637 -826.823 l -38.334106 -10.386688 l 78.3916 25.23529 l 32.548157 15.411987 l -9.006531 177.20862 l 21.715149 32.555756 l 17.322083 39.404373 l -225.69604 -302.042 l 0.0 0.0 l -0.00018310547 0.0 l -0.00061035156 0.0 l -38.041504 1.0427551 l 81.18811 3.5086975 l -118.580444 -0.32125854 l -35.298767 5.212738 l 301.21008 476.52145 l 55.059387 32.746613 l 0.0 -9.539417 l 0.0 25.951591 l 0.0 0.0 l 0.0 -0.0008354187 l 0.0 -0.025672913 l -0.0513916 -43.59588 l 0.009765625 -9.635099 l -26.540344 26.720676 l 26.58197 -42.550068 l 0.0 -15.348841 l 0.0 -9.663471 l 0.0 -15.76432 l 0.0 -15.371307 l 0.0 -9.659828 l -7.3947754 -52.47059 l 148.53827 -67.539246 l -6.9226074 -19.93953 l -8.224976 -20.30072 l -8.699951 -18.694534 l -10.14801 -19.104004 l -10.510559 -17.521637 l -24.375732 -34.17627 l 0.0 0.0 l 6.1035156e-05 6.1035156e-05 l 6.1035156e-05 0.00012207031 l 12.454468 16.51065 l -741.9702 78.148285 l -11.428131 31.632172 l 46.272125 69.90643 l -16.621704 3.0517578e-05 l -38.772507 0.0 l -2.419571 1.5258789e-05 l 0.02180481 -24.514175 l 1.8377228 -10.485764 l 255.6597 111.12077 l -32.54001 12.656166 l -31.936584 15.852932 l -87.108215 64.84955 l 0.0 0.0 l 0.0 -1.335144e-05 l 3.0517578e-05 -2.4795532e-05 l 28.0784 -24.865192 l 28.30481 -21.082333 l -80.83133 76.06596 l -21.974884 31.788876 l -18.742798 32.067596 l 794.7041 -272.1271 l 0.07495117 0.4528656 l 1.9453125 12.735306 l 0.8621826 6.121887 l -5.4246826 -34.002243 l 0.0 0.0 l -0.00061035156 -0.0023498535 l -0.06774902 -0.27937317 l -5.055908 -20.84787 l 12.736816 72.49076 l 0.06506348 0.5468521 l 1.2994385 11.738647 l -0.0032958984 -0.02986908 l 36.224243 -12.836342 l -34.498413 30.906227 l 0.19274902 2.1263733 l 0.0 0.0 l 0.6984863 10.03717 l 1.21875 21.343925 l 0.04711914 0.92562866 l 0.8931885 22.897804 l 0.02331543 0.696846 l 30.888306 5.614609 l 0.5875244 95.15499 l -31.011719 -82.25246 l 0.16247559 9.354847 l 0.19274902 27.436337 l 0.0 0.0 l -0.00012207031 -0.027105331 l -0.038330078 -11.602325 l -122.45398 -385.14886 l -29.475342 -25.920929 l -31.123535 -22.635406 l -70.76544 129.13947 l -34.17035 -22.037628 l -34.15973 -13.968536 l -43.115784 -9.401184 l -66.378845 -0.83651733 l 19.71991 -2.164215 l 0.0 0.0 l -0.009460449 0.0010375977 l -69.30084 13.252441 l 20.439758 -5.834198 l -44.049927 15.022034 l -18.12616 9.182037 l -85.63678 95.30493 l 3.0859985 -7.437134 l -8.954834 23.678467 l -2.6584167 8.478287 l -6.789612 26.781494 l 0.031463623 -0.13061523 l 2.8243713 -12.179642 l 24.864044 -65.25867 l -3.501068 6.4221954 l 10.060822 -17.185196 l 0.0 0.0 l -0.00039672852 0.0006866455 l -0.0113220215 0.019332886 l 15.210785 -17.836823 l 0.13006592 -0.12023926 l 26.592255 -23.844818 l 1.9372559 -1.5394287 l -215.18707 146.16928 l 20.785309 0.0 l 22.709991 -3.0517578e-05 l 24.32727 -0.0002746582 l 20.793793 9.1552734e-05 l 23.523956 -0.02128601 l 0.10733032 -0.004043579 l 21.842834 0.021835327 l 0.0 0.0 l -105.45865 -239.61006 l 24.438568 -22.01538 l 0.0 0.0 l 0.0 0.0 l -6.1035156e-05 6.1035156e-05 l 27.785858 -18.132019 l 27.952118 -15.366638 l 94.31485 -34.720795 l -34.56534 10.10791 l -28.922852 10.635315 l -188.97812 176.07227 l 15.968994 -28.83377 l 18.454926 -27.629639 l 20.339386 -25.548462 l -81.923416 548.584 l 13.977371 -35.5094 l -25.58702 72.99194 l -8.939575 38.601837 l -6.4082336 40.197998 l -3.8379364 41.58853 l 0.0 0.0 l 0.0 0.0 l 0.0 0.0 l 4.758209 82.62088 l -3.5673065 -40.64987 l 9.532059 80.13052 l 8.311401 38.034485 l 23.785675 72.369354 l -13.05336 -35.460327 l 28.538864 69.7843 l 334.90375 221.15057 l 0.0 0.0 l 0.0 0.0 l -6.1035156e-05 0.0 l -39.460327 -4.7304077 l 237.88947 -44.564026 l -29.912415 15.036194 l -63.10846 21.7547 l 31.685486 -9.361145 l 117.6004 -65.795654 l -27.435242 20.501526 l 53.721863 33.920044 l 0.0 9.955688 l 0.0 12.005066 l 0.0 9.873047 l 22.451477 0.42443848 l -22.451477 -90.415344 l 0.0 -7.7908936 l 0.0 -11.310669 l 0.0 33.217224 l 0.0 9.862183 l 0.0 22.291931 l 0.0 -10.669189 l 202.91125 54.82538 l 21.90979 0.0 l -62.74939 0.0 l 16.437378 0.0 l -88.026794 0.0 l 23.39795 0.0 l 20.643616 0.0 l -67.43793 0.0 l -21.919373 0.0 l 179.83203 -95.05249 l -469.74292 94.64581 l 34.856384 -4.1000977 l -148.53247 -7.1651 l -36.25937 -11.059387 l -34.62079 -14.219177 l -32.979523 -17.37909 l -31.339142 -20.534973 " /> </g> </svg>