<?xml version="1.0" standalone="no"?><!DOCTYPE svg PUBLIC "-//W3C//DTD SVG 1.1//EN" "http://www.w3.org/Graphics/SVG/1.1/DTD/svg11.dtd" ><svg xmlns="http://www.w3.org/2000/svg" xmlns:xlink="http://www.w3.org/1999/xlink" version="1.1" viewBox="-10 0 692 1000"><g transform="matrix(1 0 0 -1 0 800)"><path stroke="black" fill="none" d="M 366.55887 730.9489 l -28.058197 -26.858215 l -26.420685 -30.02069 l 0.0 0.0 l 0.0 0.0 l 0.0 0.0 l -20.229248 -31.718872 l 417.1747 -727.4465 l 32.11023 9.584099 l 31.362793 12.355347 l 30.428528 15.039589 l 29.673645 17.811157 l -190.31067 -65.754845 l 0.0 0.0 l 0.0 0.0 l 0.0 0.0 l 33.7583 4.1085815 l -110.4209 1.6449432 l 37.562134 -4.311081 l -73.80829 11.515747 l 585.4988 627.28094 l 0.0 -95.04416 l 0.0 190.18045 l 0.0 -475.48096 l 0.0 95.12637 l 0.0 95.045074 l -320.01978 -826.802 l -39.189636 -10.618256 l 76.7171 24.398499 l 35.07306 16.607788 l -10.006226 176.35052 l 22.185852 33.26358 l 17.292786 39.391235 l -225.76324 -302.1773 l 0.0 0.0 l 0.0 0.0 l 0.0 0.0 l -38.287476 1.0493774 l 81.50983 3.5099182 l -118.47949 -0.35668945 l -35.528442 5.2467957 l 301.0912 476.39212 l 55.224487 35.464924 l 0.0 -13.251657 l 0.0 27.094997 l 0.0 0.0 l 0.0 -7.6293945e-06 l 0.0 -1.1444092e-05 l -0.0043945312 -41.044197 l 0.00079345703 -13.259867 l -27.152527 28.228512 l 27.156128 -42.019764 l 0.0 -13.750027 l 0.0 -13.262299 l 0.0 -13.785675 l 0.0 -13.751953 l 0.0 -13.261986 l -7.4087524 -51.592407 l 148.677 -67.073685 l -7.084717 -20.406204 l -8.037598 -19.870377 l -8.919434 -19.165787 l -9.884644 -18.634094 l -10.756897 -17.931519 l -24.324951 -34.08844 l 0.0 0.0 l 0.0 0.0 l 0.0 0.0 l 12.605957 16.711365 l -741.9243 77.39105 l -11.6766815 32.32498 l 50.594437 69.77257 l -22.087158 1.5258789e-05 l -23.987381 0.0 l -20.86879 0.0 l 6.833267 -35.649094 l 256.10797 111.54975 l -33.253113 12.933929 l -31.884857 15.84111 l -87.00934 64.80429 l 0.0 0.0 l 0.0 0.0 l 0.0 0.0 l 27.604523 -24.513092 l 28.940369 -21.555592 l -80.875824 76.0148 l -21.778412 31.424217 l -19.160797 32.782883 l 793.8639 -278.031 l 1.3034668 7.889908 l 1.4112549 9.240189 l 1.2487793 8.867386 l -5.5473633 -34.91011 l 0.0 0.0 l 0.0 0.0 l 0.0 -3.0517578e-05 l -5.2493896 -21.64618 l 12.095093 66.616234 l 1.0496826 8.8231125 l 1.0970459 10.057976 l 36.44409 -13.121063 l -35.377563 23.925064 l 0.8757324 9.715767 l 0.0 0.0 l -0.00012207031 -0.00016784668 l 0.0 -0.0008163452 l 0.7550049 10.865433 l 0.7216797 12.184486 l 0.5386963 10.7307625 l 0.5292969 12.924973 l 0.37182617 11.305256 l 31.539307 3.4019375 l 0.05041504 95.10471 l -31.261475 -85.34484 l 0.21960449 12.66444 l 0.18115234 27.001575 l 0.0 0.0 l 0.0 -5.9127808e-05 l 0.0 -0.00016784668 l -0.044555664 -13.481719 l -122.39087 -383.49976 l -29.379028 -25.846924 l -31.330627 -22.785889 l -70.614136 129.23138 l -32.286743 -21.281006 l -36.802063 -15.048645 l -42.08661 -9.116669 l -71.344055 -0.34606934 l 24.447693 -2.6825867 l 0.0 0.0 l 0.0 0.0 l -0.00012207031 0.0 l -70.682434 13.617126 l 22.158691 -6.3240356 l -43.41919 14.59964 l -19.619812 9.938965 l -86.11514 97.183716 l 4.351288 -10.4841 l -8.630432 22.326828 l -3.6929321 11.780167 l -6.579712 26.213318 l 3.0882263 -13.315659 l 25.719696 -66.484924 l -5.008545 9.190262 l 10.591309 -18.151245 l 0.0 0.0 l 0.0 0.0 l 0.0 0.0 l 14.686951 -17.333466 l 16.84674 -16.198761 l 15.890625 -12.611084 l -220.07166 149.01315 l 22.444336 0.0 l 22.609436 0.0 l 22.748138 -3.0517578e-05 l 22.445068 1.5258789e-05 l 22.67926 -0.0018310547 l 22.550629 0.0018157959 l 0.0 0.0 l -3.0517578e-05 0.0 l -6.1035156e-05 0.0 l -105.95984 -239.23547 l 24.860504 -22.3945 l 0.0 0.0 l 0.0 0.0 l 0.0 0.0 l 27.314148 -17.874115 l 28.590149 -15.717133 l 94.237305 -34.656067 l -32.942352 9.50647 l -31.196594 11.471527 l -188.49533 176.0062 l 16.088776 -29.049744 l 18.313293 -27.428864 l 20.486206 -25.732697 l -82.03912 548.81805 l 14.0711975 -35.74765 l -25.598892 72.9993 l -8.958237 38.682434 l -6.4007263 40.154114 l -3.8398132 41.608185 l 0.0 0.0 l 0.0 0.0 l 0.0 0.0 l 4.759842 82.638336 l -3.5697632 -40.6774 l 9.521027 80.08432 l 8.3284 38.1127 l 23.798782 72.39734 l -13.086853 -35.551453 l 28.558167 69.835205 l 334.90042 221.14093 l 0.0 0.0 l 0.0 0.0 l 0.0 0.0 l -39.533264 -4.739197 l 238.00879 -44.578613 l -29.974182 15.067078 l -63.63098 21.905823 l 32.393555 -9.5703125 l 117.4538 -65.76306 l -27.494446 20.545776 l 53.756714 33.22528 l 0.0 10.9104 l 0.0 11.086182 l 0.0 10.90332 l 22.49585 0.03643799 l -22.49585 -88.207214 l 0.0 -10.72467 l 0.0 -11.026672 l 0.0 33.018616 l 0.0 10.902405 l 0.0 22.025024 l 0.0 -10.971619 l 202.53528 54.985046 l 22.44934 0.0 l -67.09241 0.0 l 21.979858 0.0 l -89.83069 0.0 l 22.577026 0.0 l 22.340698 0.0 l -67.49463 0.0 l -22.450195 0.0 l 179.9856 -95.09595 l -469.7951 94.69537 l 34.93286 -4.109131 l -148.55768 -7.1605225 l -36.25995 -11.059937 l -34.620087 -14.21991 l -32.97992 -17.379883 l -31.339935 -20.53955 " /> </g> </svg>