<?xml version="1.0" standalone="no"?><!DOCTYPE svg PUBLIC "-//W3C//DTD SVG 1.1//EN" "http://www.w3.org/Graphics/SVG/1.1/DTD/svg11.dtd" ><svg xmlns="http://www.w3.org/2000/svg" xmlns:xlink="http://www.w3.org/1999/xlink" version="1.1" viewBox="-10 0 692 1000"><g transform="matrix(1 0 0 -1 0 800)"><path stroke="black" fill="none" d="M 364.76434 729.2338 l -18.241333 -17.464111 l -30.470062 -34.128967 l 0.0 0.0 l -0.013977051 -0.022033691 l -15.879608 -24.91864 l 449.46075 -722.01074 l 0.0 0.0 l 59.976868 27.365261 l 0.0 0.0 l -158.00879 -48.9456 l 0.0 0.0 l -94.66742 8.634804 l 0.0 0.0 l 562.26685 582.95056 l 0.0 0.0 l -0.053710938 117.94025 l 0.07519531 -372.49188 l 0.005004883 81.276 l 0.0 0.0 l -268.2566 -772.29626 l 0.0 0.0 l 19.392822 198.49205 l 0.0 0.0 l -148.24597 -239.21034 l 0.0 0.0 l -166.8919 5.9610596 l 0.0 0.0 l 364.16992 514.285 l 0.0 0.0 l -7.6879883 -181.26408 l 0.0 0.0 l 138.46954 -95.99213 l 0.0 0.0 l -53.448242 -93.66464 l 0.0 0.0 l -744.49915 134.7919 l 0.0 0.0 l 196.75638 151.4786 l 0.0 0.0 l -83.82596 58.88633 l 0.0 0.0 l -75.67319 97.417725 l 0.0 0.0 l 787.74365 -250.12535 l 0.0 0.0 l 9.954468 112.230515 l 0.0 0.0 l -150.58386 -357.03058 l -22.008484 -21.44571 l 0.0 0.0 l -172.66907 81.16855 l 0.0 0.0 l -129.72845 4.5138245 l 0.0 0.0 l -102.35022 65.710846 l 0.0 0.0 l -136.66827 110.08615 l 0.0 0.0 l 8.7256775 -258.54807 l 0.0 0.0 l 72.60751 -40.60138 l 0.0 0.0 l -170.44641 160.98105 l 0.0 0.0 l 38.092834 -58.267456 l 0.0 0.0 l -62.455627 512.1419 l 0.0 0.0 l -27.074127 87.68228 l -0.22628784 0.97280884 l -9.479797 59.241608 l -2.8652496 31.413452 l 0.0 0.0 l 0.00030517578 -0.0039978027 l 3.9181976 73.999084 l -2.3290863 -26.6958 l 15.119278 103.5235 l 0.25776672 1.0690002 l 16.59874 55.542877 l -0.09341431 -0.24963379 l 22.759277 54.965393 l 308.02603 222.8971 l 0.0 0.0 l 203.4552 -34.316467 l -0.94903564 0.5072632 l -44.001648 17.26007 l 115.94342 -61.25055 l 0.0 0.0 l -0.6064453 0.44226074 l 36.074463 54.151184 l 0.0 0.0 l 0.0 -45.560547 l 0.0 0.0 l 135.03809 70.95422 l 0.0 0.0 l -103.05786 -6.1035156e-05 l 0.0 0.0 l 192.18909 -67.33826 l 0.16748047 -5.697998 l -443.33722 69.56366 l 0.74212646 -0.084350586 l -140.38403 -8.955261 l -35.96454 -10.7821045 l -34.981354 -13.862671 l -32.766907 -16.943298 l -30.9346 -18.22351 " /> </g> </svg>