<?xml version="1.0" standalone="no"?><!DOCTYPE svg PUBLIC "-//W3C//DTD SVG 1.1//EN" "http://www.w3.org/Graphics/SVG/1.1/DTD/svg11.dtd" ><svg xmlns="http://www.w3.org/2000/svg" xmlns:xlink="http://www.w3.org/1999/xlink" version="1.1" viewBox="-10 0 692 1000"><g transform="matrix(1 0 0 -1 0 800)"><path stroke="black" fill="none" d="M 366.40594 730.8028 l -27.217682 -26.053894 l -26.739044 -30.327637 l 0.0 0.0 l -3.0517578e-05 -6.1035156e-05 l -9.1552734e-05 -0.00012207031 l -19.886261 -31.183167 l 423.97244 -725.82214 l 22.964294 6.8492966 l 55.79663 24.089314 l 2.0098267 0.9760895 l 31.340149 18.33384 l -185.3819 -63.29456 l 0.0 0.0 l 0.04559326 0.005622864 l 27.67157 3.373413 l -78.42609 -0.6984024 l 1.673706 -0.1993103 l -59.282654 9.56517 l 580.3046 609.1822 l 0.00012207031 -69.167816 l -0.006225586 181.11496 l 0.0064697266 -466.66333 l 0.00048828125 107.33299 l 0.0 69.62634 l -347.67395 -827.7133 l -2.0686646 -0.571167 l 93.58423 34.327484 l 0.0 0.0 l 14.72876 204.72125 l 1.7393799 2.5184784 l 18.564697 39.959213 l -232.1994 -296.0323 l 0.0 0.0 l -18.281372 0.49441528 l 67.53491 3.456604 l -122.8656 1.1828918 l -25.551453 3.7669373 l 306.2569 482.00958 l 0.040283203 0.030004501 l 48.01129 34.24775 l 0.0 0.0 l -19.240417 -15.185156 l 0.0 0.0 l 19.239807 -67.65984 l 0.0 0.0 l 0.00012207031 -37.49337 l 0.0 0.0 l -6.80188 -52.783875 l 0.0034179688 0.02633667 l 142.64716 -87.32387 l -0.30688477 -0.89772034 l -15.912598 -37.800446 l -0.25012207 -0.54241943 l -20.45874 -37.199615 l -0.47375488 -0.8177185 l -23.546082 -33.803864 l 0.0 0.0 l 3.4614868 4.5918274 l -743.91833 110.285614 l -0.88575745 2.2473297 l 23.405746 75.50017 l 0.0 0.0 l -34.51729 -25.19461 l 0.0 0.0 l 231.0046 110.73064 l -2.2925415 0.87410355 l -34.115723 16.348206 l -90.32861 65.905174 l 0.0 0.0 l 0.15185547 -0.13454628 l 47.063324 -38.81037 l 1.4257812 -1.0674248 l -79.03711 78.30737 l -30.311981 47.264965 l -1.0338745 1.7616425 l 792.74243 -248.04259 l 0.0 0.0 l -8.661865 -46.201736 l 0.0 0.0 l 12.397583 75.81791 l 0.0 0.0 l 25.776123 -10.246887 l 0.0 0.0 l -23.469116 35.477135 l 0.0 0.0 l 2.1174316 37.67703 l 0.0 0.0 l 23.38147 97.28865 l 0.0 0.0 l -21.157837 -31.847544 l 0.0 0.0 l -125.74286 -392.52594 l -33.56244 -29.06076 l -22.334412 -16.250214 l -77.18463 125.23923 l -0.023986816 -0.012786865 l -55.947266 -30.27884 l 0.0 0.0 l -66.953735 -13.461914 l 0.0 0.0 l -30.346436 -2.0158691 l -60.765137 10.843231 l 0.0 0.0 l -44.576904 17.305664 l 0.0 0.0 l -98.232605 116.21756 l 0.0 0.0 l -2.8034973 8.940506 l 0.0 0.0 l 24.302917 -56.81256 l 0.0 0.0 l 42.3461 -45.143173 l 0.0 0.0 l -186.16742 141.18108 l 0.0 0.0 l 8.967499 -0.00064086914 l 62.8544 -0.028427124 l 0.0 0.0 l 39.046814 -9.9422 l 0.0 0.0 l -88.18729 -245.69537 l 5.091156 -4.6185913 l 0.0 0.0 l 49.243286 -30.3815 l 1.185791 -0.66275024 l 97.29468 -37.29831 l -0.021911621 0.0069885254 l -52.577057 16.957733 l 0.0 0.0 l -192.7396 172.69202 l 10.886475 -19.668213 l 24.465057 -36.15042 l 14.108337 -17.728973 l -77.01279 538.6513 l 9.995911 -25.398132 l -25.083511 72.67908 l -8.147537 35.18103 l -6.7274323 42.061157 l -3.7577057 40.75293 l 0.0 0.0 l 0.0 -3.0517578e-05 l 0.0 -3.0517578e-05 l 4.6891327 81.88077 l -3.4635315 -39.480316 l 10.000336 82.091125 l 7.5895386 34.714996 l 23.23021 71.18045 l -11.632187 -31.592224 l 27.719498 67.625305 l 333.89636 221.42163 l 0.0 0.0 l -0.16040039 -0.018981934 l -35.058167 -4.2018433 l 232.82361 -43.942993 l -27.290466 13.721985 l -40.931824 15.34314 l 1.7336426 -0.51208496 l 123.724976 -67.14899 l -0.9215698 0.67889404 l -24.002075 17.942566 l 52.242798 47.47473 l 0.0 0.0 l 0.0 15.09021 l 0.0 0.0 l 20.569824 4.321533 l -0.010803223 -0.002380371 l -20.559021 -101.047485 l 0.0 0.0 l 0.0 30.266846 l 0.0 0.0 l 0.0 23.403442 l 0.0 0.0 l 0.0 -0.25805664 l 218.86584 48.05945 l 0.6870117 0.0 l -44.826782 0.0 l -65.53247 0.0 l 18.150452 0.0 l 0.0 0.0 l -76.324646 0.0 l -0.7616577 0.0 l 173.91156 -67.338745 l 0.7738037 -25.86853 l -467.52985 92.54364 l 31.612122 -3.7177124 l -147.46448 -7.360962 l -36.23462 -11.036133 l -34.65103 -14.189331 l -32.9617 -17.34253 l -31.305237 -20.341248 " /> </g> </svg>