<?xml version="1.0" standalone="no"?><!DOCTYPE svg PUBLIC "-//W3C//DTD SVG 1.1//EN" "http://www.w3.org/Graphics/SVG/1.1/DTD/svg11.dtd" ><svg xmlns="http://www.w3.org/2000/svg" xmlns:xlink="http://www.w3.org/1999/xlink" version="1.1" viewBox="-10 0 692 1000"><g transform="matrix(1 0 0 -1 0 800)"><path stroke="black" fill="none" d="M 366.55887 730.9489 l -28.053802 -26.854004 l -26.422333 -30.022278 l 0.0 0.0 l 0.0 0.0 l 0.0 0.0 l -20.227478 -31.716125 l 417.21017 -727.438 l 32.0625 9.569832 l 31.490234 12.416538 l 30.280151 14.966175 l 29.682495 17.813957 l -190.28802 -65.74239 l 0.0 0.0 l 0.0 0.0 l 0.0 0.0 l 33.72986 4.105156 l -110.25403 1.632721 l 37.374146 -4.289543 l -73.73169 11.505478 l 585.4717 627.1866 l 0.0 -94.90921 l 0.0 190.13315 l 0.0 -475.43494 l 0.0 95.19002 l 0.0 94.91254 l -320.164 -826.80676 l -38.99585 -10.565796 l 77.0965 24.588074 l 34.501038 16.336884 l -9.779724 176.54492 l 22.079224 33.103226 l 17.299377 39.39421 l -225.74707 -302.14667 l 0.0 0.0 l -6.1035156e-05 0.0 l 0.0 0.0 l -38.232788 1.0478821 l 81.43695 3.5096436 l -118.50238 -0.34866333 l -35.47638 5.2390747 l 301.1181 476.42145 l 55.187073 34.849113 l 0.0 -12.410683 l 0.0 26.839869 l 0.0 0.0 l 0.0 -6.484985e-05 l 0.0 -0.00017547607 l -0.015075684 -41.631935 l 0.0028686523 -12.438707 l -27.013855 27.886925 l 27.026062 -42.1399 l 0.0 -14.112223 l 0.0 -12.447018 l 0.0 -14.233921 l 0.0 -14.118797 l 0.0 -12.445953 l -7.4055786 -51.791344 l 148.64563 -67.17915 l -7.0480957 -20.300491 l -8.080078 -19.967865 l -8.869629 -19.059021 l -9.944336 -18.74054 l -10.701111 -17.838684 l -24.33667 -34.108673 l 0.0 0.0 l 0.0 0.0 l 0.0 3.0517578e-05 l 12.571899 16.66626 l -741.9347 77.56258 l -11.620377 32.168045 l 49.61525 69.80289 l -20.848999 1.5258789e-05 l -27.336823 0.0 l -16.689285 0.0 l 5.7065125 -35.50203 l 256.0064 111.45257 l -33.091553 12.87101 l -31.896576 15.843788 l -87.03183 64.81463 l 0.0 0.0 l 0.0 -1.9073486e-06 l 0.0 -1.9073486e-06 l 27.711975 -24.592945 l 28.796387 -21.44838 l -80.86575 76.02639 l -21.822937 31.506828 l -19.066101 32.620842 l 794.05426 -276.69354 l 1.0102539 6.11528 l 1.5471191 10.121826 l 1.1612549 8.245407 l -5.517578 -34.69638 l 0.0 0.0 l -0.00012207031 -0.0001373291 l -0.00012207031 -0.0005950928 l -5.2227783 -21.536499 l 12.2404785 67.94705 l 0.81933594 6.8871994 l 1.1501465 10.499718 l 36.393555 -13.063332 l -35.178345 25.506592 l 0.729126 8.086792 l 0.0 0.0 l -0.00036621094 -0.0030059814 l 0.7342529 10.589706 l 0.8343506 14.259472 l 0.4267578 8.4994545 l 0.6123047 15.194271 l 0.29174805 8.867519 l 31.392944 3.9376945 l 0.17211914 95.116104 l -31.204956 -84.64429 l 0.20666504 11.914682 l 0.18383789 27.13554 l 0.0 0.0 l 0.0 -0.00079345703 l 0.0 -0.023485184 l -0.04321289 -13.07347 l -122.40515 -383.87335 l -29.400879 -25.863678 l -31.283691 -22.7518 l -70.64844 129.21054 l -32.71344 -21.452393 l -36.20343 -14.803955 l -42.319763 -9.181122 l -70.2193 -0.45718384 l 23.396057 -2.5672913 l 0.0 0.0 l -0.00036621094 3.0517578e-05 l -0.0040893555 0.00045776367 l -70.3866 13.536407 l 21.769287 -6.2130737 l -43.562073 14.695343 l -19.281433 9.767456 l -86.006775 96.7581 l 4.064636 -9.793823 l -8.703918 22.633026 l -3.4585876 11.03215 l -6.6272583 26.342041 l 3.0355835 -13.087891 l 25.525848 -66.20714 l -4.6670227 8.563187 l 10.473022 -17.935623 l 0.0 0.0 l -3.0517578e-05 4.5776367e-05 l -9.1552734e-05 0.00015258789 l 14.8012085 -17.439941 l 19.083954 -17.95813 l 12.729614 -10.102905 l -218.96509 148.3689 l 22.068481 0.0 l 22.632202 -1.5258789e-05 l 23.105896 -7.6293945e-05 l 22.070984 3.0517578e-05 l 22.870636 -0.0062408447 l 22.426422 0.0059814453 l 0.0 0.0 l -0.00021362305 0.0 l -105.858 -239.32088 l 24.765045 -22.308746 l 0.0 0.0 l 0.0 0.0 l 0.0 0.0 l 27.420868 -17.932404 l 28.445618 -15.637726 l 94.25488 -34.670715 l -33.310028 9.6427 l -30.681519 11.2821045 l -188.60468 176.02115 l 16.061615 -29.000824 l 18.345367 -27.474335 l 20.452972 -25.690948 l -82.012924 548.765 l 14.049942 -35.69368 l -25.596207 72.997635 l -8.95401 38.66417 l -6.40242 40.164062 l -3.839386 41.60373 l 0.0 0.0 l 0.0 0.0 l 0.0 0.0 l 4.7594757 82.6344 l -3.5692139 -40.671173 l 9.523529 80.09479 l 8.324554 38.09497 l 23.795792 72.39102 l -13.079254 -35.530823 l 28.553802 69.82367 l 334.90128 221.14313 l 0.0 0.0 l 0.0 0.0 l 0.0 0.0 l -39.516846 -4.7371826 l 237.98175 -44.57538 l -29.960205 15.06012 l -63.512634 21.871582 l 32.233215 -9.522949 l 117.48694 -65.77045 l -27.481018 20.535767 l 53.74884 33.38269 l 0.0 10.694092 l 0.0 11.294373 l 0.0 10.669922 l 22.485779 0.12432861 l -22.485779 -88.70746 l 0.0 -10.060059 l 0.0 -11.091003 l 0.0 33.06366 l 0.0 10.666748 l 0.0 22.08545 l 0.0 -10.903076 l 202.62048 54.948853 l 22.327148 0.0 l -66.10864 0.0 l 20.724365 0.0 l -89.42212 0.0 l 22.763 0.0 l 21.956238 0.0 l -67.48175 0.0 l -22.329956 0.0 l 179.95074 -95.08612 l -469.7832 94.68414 l 34.915527 -4.1070557 l -148.55194 -7.16156 l -36.259857 -11.059814 l -34.62024 -14.219727 l -32.979828 -17.37976 l -31.339752 -20.538513 " /> </g> </svg>