<?xml version="1.0" standalone="no"?><!DOCTYPE svg PUBLIC "-//W3C//DTD SVG 1.1//EN" "http://www.w3.org/Graphics/SVG/1.1/DTD/svg11.dtd" ><svg xmlns="http://www.w3.org/2000/svg" xmlns:xlink="http://www.w3.org/1999/xlink" version="1.1" viewBox="-10 0 692 1000"><g transform="matrix(1 0 0 -1 0 800)"><path stroke="black" fill="none" d="M 345.62836 710.94464 l 0.0 0.0 l -39.26111 -46.384705 l 0.0 0.0 l 65.52884 -56.640503 l 0.0 -76.400024 l 0.0 -76.399994 l 0.0 -76.399994 l 0.0 -76.400024 l 0.0 -76.399994 l 0.0 -76.399994 l 126.53046 -223.00354 l 0.0 0.0 l 602.33734 289.05325 l 0.0 0.0 l -527.1797 -588.2761 l 0.0 0.0 l 250.97485 278.78143 l 0.0 0.0 l -560.18555 225.67728 l 0.0 0.0 l 663.60364 -526.50354 l 0.0 0.0 l -443.05804 155.05382 l 0.0 0.0 l -154.51309 35.20572 l 0.0 0.0 l -116.70998 201.21164 l -22.600006 1.9965228e-08 l -22.600006 0.0 l -22.59999 0.0 l 0.0 76.4 l 78.09503 169.01935 l 0.0 0.0 l -78.09503 -16.21936 l 65.24727 109.85855 l 0.0 0.0 l -65.24727 42.941467 l 67.49129 17.610352 l 0.0 0.0 l -6.8710175 112.47034 l 54.38556 80.77203 l 0.0 0.0 l -115.00583 94.74725 l 0.0 76.400024 l -8.0 0.0 l -8.0 0.0 l -8.0 0.0 l -8.0 0.0 l -8.0 0.0 l -8.0 0.0 l -8.0 0.0 l -8.0 0.0 l -8.0 0.0 l -8.0 0.0 l 0.0 21.0 l 0.0 21.0 l 0.0 21.0 l 0.0 21.0 l 0.0 21.0 l 0.0 21.0 l 0.0 21.0 l 0.0 21.0 l 0.0 21.0 l 0.0 21.0 l 8.0 0.0 l 8.0 0.0 l 8.0 0.0 l 8.0 0.0 l 8.0 0.0 l 8.0 0.0 l 8.0 0.0 l 8.0 0.0 l 8.0 0.0 l 8.0 0.0 l 0.0 37.599976 l 0.0 37.599976 l 0.0 37.600098 l 0.0 37.599976 l 0.0 37.599976 l 0.0 37.599976 l 0.0 37.599976 l 0.0 37.600098 l 0.0 37.599976 l 0.0 37.599976 l 0.0 0.0 l 0.6399994 35.71997 l 1.9199982 33.56006 l 3.199997 31.399902 l 4.4799957 29.240112 l 5.76001 27.079956 l 7.0399933 24.920044 l 8.320007 22.759888 l 9.599991 20.600098 l 10.880005 18.439941 l 0.0 0.0 l 18.399994 20.140015 l 20.0 18.02002 l 21.600006 15.900024 l 23.200012 13.779907 l 24.799988 11.660034 l 26.399994 9.540039 l 28.0 7.419922 l 29.600006 5.300049 l 31.200012 3.1800537 l 0.0 0.0 l 12.309998 -0.35009766 l 12.929993 -1.0499268 l 13.549988 -1.75 l 14.170013 -2.4500732 l 14.790009 -3.1499023 l 15.410004 -3.8500977 l 16.029968 -4.5499268 l 16.650024 -5.25 l 17.27002 -5.9500732 l 0.0 -23.0 l 0.0 -23.0 l 0.0 -23.0 l 0.0 -23.0 l 0.0 -23.0 l 0.0 -23.0 l 0.0 -23.0 l 0.0 -23.0 l 0.0 -23.0 l 0.0 -23.0 l -2.3000488 1.2000732 l -2.2999878 1.1999512 l -2.2999878 1.2000732 l -2.2999878 1.1999512 l -2.2999878 1.1999512 l -2.3000488 1.2000732 l -2.2999878 1.1999512 l -2.2999878 1.2000732 l -2.2999878 1.1999512 l -2.2999878 1.1999512 l 0.0 0.0 l -14.340027 7.0300293 l -13.820007 6.290039 l -13.299988 5.5499268 l -12.779999 4.8100586 l -12.26001 4.0699463 l -11.73999 3.3300781 l -11.220001 2.5899658 l -10.700012 1.8499756 l -10.179993 1.1099854 l 0.0 0.0 l -11.609985 -0.42993164 l -10.830017 -1.2900391 l -10.049988 -2.1500244 l -9.27002 -3.0100098 l -8.48999 -3.869995 l -7.7099915 -4.7299805 l -6.9299927 -5.589966 l -6.1500244 -6.449951 l -5.369995 -7.3100586 l 0.0 0.0 l -3.9899902 -9.180054 l -3.5700073 -10.73999 l -3.149994 -12.299927 l -2.730011 -13.859985 l -2.3099976 -15.420044 l -1.8899841 -16.97998 l -1.4700012 -18.54004 l -1.0500183 -20.099976 l -0.6300049 -21.660034 l 0.0 -32.099976 l 0.0 -32.099976 l 0.0 -32.099976 l 0.0 -32.099976 l 0.0 -32.100098 l 0.0 -32.099976 l 0.0 -32.099976 l 0.0 -32.099976 l 0.0 -32.099976 l 0.0 -32.100037 l 24.5 0.0 l 24.5 0.0 l 24.5 0.0 l 24.5 0.0 l 24.5 0.0 l 24.5 0.0 l 24.5 0.0 l 24.5 0.0 l 24.5 0.0 l 24.5 0.0 l 0.0 -21.0 l 0.0 -21.0 l 0.0 -21.0 l 0.0 -21.0 l 0.0 -21.0 l 0.0 -21.0 l 94.79816 -41.874756 l 0.0 0.0 l 144.1225 -30.912964 l 0.0 0.0 l 240.57495 7.1046143 l 0.0 0.0 l -481.0866 10.971436 l -22.908997 -29.28833 l -18.242065 23.70221 l -32.815582 -7.8206177 l -22.442352 -15.881592 l -16.389496 5.826538 l -30.496246 -12.28949 l -26.614258 6.4629517 l -24.5 0.0 l -24.5 0.0 l -24.5 0.0 " /> </g> </svg>