<?xml version="1.0" standalone="no"?><!DOCTYPE svg PUBLIC "-//W3C//DTD SVG 1.1//EN" "http://www.w3.org/Graphics/SVG/1.1/DTD/svg11.dtd" ><svg xmlns="http://www.w3.org/2000/svg" xmlns:xlink="http://www.w3.org/1999/xlink" version="1.1" viewBox="-10 0 692 1000"><g transform="matrix(1 0 0 -1 0 800)"><path stroke="black" fill="none" d="M 366.54678 730.9374 l -27.987732 -26.790894 l -26.447174 -30.046082 l 0.0 0.0 l 0.0 0.0 l 0.0 0.0 l -20.200714 -31.674316 l 417.74442 -727.3103 l 31.34375 9.354881 l 33.410583 13.338791 l 28.044373 13.859722 l 29.815674 17.856148 l -189.9436 -65.55432 l 0.0 0.0 l 6.1035156e-05 7.6293945e-06 l 0.00024414062 3.0517578e-05 l 33.29767 4.0530777 l -107.73932 1.4485397 l 34.540955 -3.9649582 l -72.577576 11.350754 l 585.0634 625.76404 l 0.0 -92.8754 l -0.00048828125 189.42062 l 0.00061035156 -474.7419 l 0.0 96.149445 l 0.0 92.9147 l -322.33752 -826.8784 l -36.074768 -9.775177 l 82.8136 27.445068 l 25.88031 12.25415 l -6.366455 179.47461 l 20.472046 30.686554 l 17.399536 39.439087 l -225.5675 -301.68338 l 0.0 0.0 l -0.0025024414 9.1552734e-05 l -0.2999878 0.008575439 l -37.043396 1.0152893 l 80.33856 3.5054321 l -118.84711 -0.22766113 l -34.69226 5.122772 l 301.5241 476.86298 l 54.623352 25.568207 l 0.0 -0.5098038 l 0.0 23.491589 l 0.0 0.0 l 0.0 -0.029067993 l -0.17547607 -50.187576 l 0.025512695 -0.5968132 l -24.91571 23.272688 l 25.065674 -43.950474 l 0.0 -19.570919 l 0.0 -0.6287422 l 0.0 -20.520561 l 0.0 -19.647621 l 0.0 -0.6245804 l -7.35791 -54.312477 l 148.17194 -68.76868 l -6.494385 -18.707138 l -8.719971 -21.437164 l -8.120483 -17.450134 l -10.843201 -20.34488 l -9.860046 -16.43924 l -24.496521 -34.39032 l 0.0 0.0 l 0.00048828125 0.00064086914 l 0.014221191 0.018829346 l 12.026672 15.943909 l -742.09143 80.14801 l -10.771744 29.802582 l 34.858017 70.25995 l -2.1896362 9.1552734e-05 l -42.098373 -0.00032043457 l 0.0 0.0 l -2.2296143 -24.513687 l 1.5377655 -8.771606 l 254.47592 109.987946 l -30.65686 11.922638 l -32.07321 15.884151 l -87.36426 64.96455 l 0.0 0.0 l 0.00015258789 -0.00012779236 l 0.00079345703 -0.000705719 l 29.323914 -25.789795 l 26.626434 -19.832577 l -80.71384 76.20108 l -22.493622 32.751854 l -17.639069 30.178703 l 794.56195 -270.8078 l 0.0 0.0 l 2.5474854 17.049927 l 0.03967285 0.28157043 l -5.4067383 -33.456512 l 0.0 0.0 l -0.02758789 -0.11326599 l -4.6586914 -19.21019 l 12.536743 72.09272 l 0.0 0.0 l 1.1934814 10.779358 l -0.0008544922 -0.0082473755 l 35.63269 -12.184952 l -0.18676758 -0.0030822754 l -33.37671 34.044754 l 0.0 0.0 l 0.32507324 5.237274 l 1.7249756 29.718857 l 0.0 0.0 l 0.6616211 17.73346 l 0.0 0.0 l 29.020142 6.486084 l -1.6865234 -1.1550522 l 3.6922607 96.44281 l -0.28063965 -0.62714386 l -30.071167 -73.4591 l 0.014892578 0.8216686 l 0.21325684 26.431358 l 0.0 0.0 l -0.01586914 -4.790966 l -122.620605 -389.5037 l -29.729614 -26.116302 l -30.57666 -22.238098 l -71.164856 128.89679 l -39.144653 -24.035736 l -27.181946 -11.116241 l -45.833557 -10.152496 l -0.38446045 -0.014038086 l -52.882385 -2.1176758 l 6.172058 -0.6784668 l 0.0 0.0 l -64.62372 12.176331 l 15.900452 -4.5407104 l -45.715637 16.137543 l -14.181702 7.1832275 l -84.373474 90.34352 l 0.15332031 -0.3725586 l -10.220123 28.229492 l -0.15133667 0.47842407 l -7.1191406 27.562317 l 0.006164551 -0.025558472 l 2.236023 -9.6297 l 22.604492 -62.02043 l -0.15951538 0.28981018 l 9.195648 -15.6345215 l 0.0 0.0 l -0.01361084 0.02319336 l 16.66861 -19.293365 l 0.015899658 -0.014709473 l 26.998657 -23.966644 l 0.0 0.0 l -211.41147 145.86485 l 16.404236 0.0 l 22.975525 -7.6293945e-05 l 28.497375 -0.00093078613 l 16.433197 0.0002746582 l 25.754517 -0.072631836 l 0.016571045 -0.00062561035 l 19.698334 0.030715942 l -103.48526 -240.56935 l 23.316895 -21.007477 l 0.0 0.0 l -0.00024414062 0.00021362305 l -0.001953125 0.0017700195 l 29.040955 -18.821564 l 26.267303 -14.441162 l 94.51959 -34.891754 l -38.851288 11.696259 l -22.918396 8.427124 l -190.25311 176.24667 l 15.6527405 -28.263458 l 18.828888 -28.15982 l 19.95169 -25.06192 l -81.617874 547.96594 l 13.7296295 -34.880234 l -25.555695 72.97246 l -8.890289 38.388977 l -6.4281006 40.313965 l -3.8329468 41.53662 l 0.0 0.0 l 0.0 0.0 l 0.0 0.0 l 4.7539215 82.57471 l -3.560852 -40.577087 l 9.561188 80.25253 l 8.266495 37.82791 l 23.75113 72.29535 l -12.964951 -35.219604 l 28.4879 69.64996 l 334.90652 221.17517 l 0.0 0.0 l -0.00018310547 0.0 l -0.0008544922 -0.00012207031 l -39.260864 -4.706299 l 237.57422 -44.52539 l -29.749268 14.954407 l -61.728577 21.355774 l 29.815613 -8.808716 l 117.98767 -65.88165 l -27.27893 20.384521 l 53.62982 35.754883 l 0.0 7.4344482 l 0.0 14.4314575 l 0.0 7.1523438 l 22.334412 1.4492188 l -22.334412 -96.24658 l 0.0 -0.5666504 l 0.0 -11.537476 l 0.0 33.74176 l 0.0 7.1151123 l 0.0 22.996765 l 0.0 -0.43963623 l 0.0 -9.430969 l 203.90393 54.40387 l 20.484985 0.0 l -51.28015 0.0 l 1.805542 0.0 l -83.26776 0.0 l 25.565613 0.0 l 16.161987 0.0 l -67.287964 0.0 l -20.517761 0.0 l 179.4267 -94.93768 l -469.60522 94.515015 l 34.65448 -4.076294 l -148.466 -7.177307 l -36.257812 -11.057922 l -34.62268 -14.217346 l -32.978424 -17.37677 l -31.337006 -20.52295 " /> </g> </svg>