<?xml version="1.0" standalone="no"?><!DOCTYPE svg PUBLIC "-//W3C//DTD SVG 1.1//EN" "http://www.w3.org/Graphics/SVG/1.1/DTD/svg11.dtd" ><svg xmlns="http://www.w3.org/2000/svg" xmlns:xlink="http://www.w3.org/1999/xlink" version="1.1" viewBox="-10 0 692 1000"><g transform="matrix(1 0 0 -1 0 800)"><path stroke="black" fill="none" d="M 366.03406 730.4473 l -25.184174 -24.107971 l -27.53125 -31.10498 l 0.0 0.0 l -0.00039672852 -0.00061035156 l -0.010437012 -0.016479492 l -19.024048 -29.835876 l 440.41907 -721.8923 l 1.4222412 0.40912628 l 71.49469 31.510094 l 0.0 0.0 l 11.457031 7.341137 l -168.49506 -56.73041 l 0.0 0.0 l 8.139099 1.0022736 l -72.50336 2.1566162 l 0.0 0.0 l -37.80847 6.07016 l 567.7377 565.39355 l 0.0007324219 -6.561981 l -0.021484375 159.18161 l 0.022094727 -445.32962 l 0.0015869141 136.86606 l 0.0 8.127472 l -343.31213 -810.22754 l 0.0 0.0 l 78.63672 28.814423 l 30.987915 221.9716 l 0.0 0.0 l 4.871399 14.257462 l -240.8122 -281.21844 l 0.0 0.0 l 56.886597 2.5329895 l -133.47754 4.9078064 l -1.7507324 0.23736572 l 319.0929 495.54974 l 0.0 0.0 l 30.696838 21.322012 l 0.0 0.0 l -0.068359375 -85.26415 l 0.0 0.0 l -5.2666016 -76.4824 l 0.0 0.0 l 138.29071 -106.303955 l 0.0 0.0 l -12.126587 -27.988785 l 0.0 0.0 l -28.437744 -50.483337 l 0.0 0.0 l -16.869385 -24.01361 l 0.0 0.0 l -745.6534 132.21536 l 0.0 0.0 l 18.552841 57.330917 l 0.0 0.0 l 192.49625 93.10309 l 0.0 0.0 l -13.416168 6.9985924 l -90.09219 61.24416 l 0.0 0.0 l 34.158752 -27.422707 l 0.0 0.0 l -87.49643 93.24185 l -16.982788 27.705124 l 0.0 0.0 l 782.02454 -290.5932 l 0.0 0.0 l 17.573975 54.079758 l 0.0 0.0 l -0.82592773 84.111916 l 0.0 0.0 l 3.3120117 71.03089 l 0.0 0.0 l -132.88995 -401.8506 l -43.683838 -36.836426 l -1.1592407 -0.86380005 l -92.49109 116.00668 l 0.0 0.0 l -40.116882 -21.01709 l -135.07208 -14.291351 l 0.0 0.0 l -70.8512 22.549805 l 0.0 0.0 l -101.16293 119.16084 l 0.0 0.0 l 37.1958 -68.211044 l 0.0 0.0 l -157.75247 114.07283 l 0.0 0.0 l 76.48712 -3.0457153 l 0.0 0.0 l -47.325073 -259.08813 l 0.0 0.0 l 42.722992 -25.598328 l 0.0 0.0 l 93.09244 -37.862244 l 0.0 0.0 l -37.012024 12.1640625 l -190.67505 159.76453 l 0.29516602 -0.54415894 l 37.353577 -53.677734 l 0.47592163 -0.6087036 l -66.65033 516.2977 l 0.48266602 -1.2364197 l -24.183212 72.78252 l -6.1861267 26.70958 l -7.5178833 46.67511 l -3.558014 38.670105 l 0.0 0.0 l 1.5258789e-05 -0.00021362305 l 9.1552734e-05 -0.0011291504 l 4.5169373 80.06268 l -3.206543 -36.584106 l 11.159988 86.94644 l 5.8019104 26.494568 l 21.854584 68.236115 l -8.112717 -22.013062 l 25.690338 62.278564 l 321.74237 220.94824 l 0.0 0.0 l -15.054626 -1.8140259 l 220.27826 -42.40515 l -20.797241 10.467529 l -40.769043 15.638855 l 0.0 0.0 l 121.20801 -65.27203 l -0.13891602 0.10229492 l -18.56488 13.863342 l 48.58026 51.55652 l 0.0 0.0 l 15.909668 17.08368 l 0.0 0.0 l -15.909912 -81.79297 l 0.0 0.0 l 0.0 21.47705 l 0.0 0.0 l 215.74902 61.756104 l 0.0 0.0 l -42.906616 0.0 l -48.63391 0.0 l 0.0 0.0 l -72.15265 0.0 l 0.0 0.0 l 172.11346 -67.338745 l 0.6364746 -21.29895 l -462.04926 87.33771 l 23.578003 -2.770813 l -144.81964 -7.8459473 l -36.173462 -10.978577 l -34.72586 -14.115295 l -32.917572 -17.252136 l -31.221252 -19.861511 " /> </g> </svg>