<?xml version="1.0" standalone="no"?><!DOCTYPE svg PUBLIC "-//W3C//DTD SVG 1.1//EN" "http://www.w3.org/Graphics/SVG/1.1/DTD/svg11.dtd" ><svg xmlns="http://www.w3.org/2000/svg" xmlns:xlink="http://www.w3.org/1999/xlink" version="1.1" viewBox="-10 0 692 1000"><g transform="matrix(1 0 0 -1 0 800)"><path stroke="black" fill="none" d="M 360.42926 725.0906 l -0.44369507 -0.42651367 l -37.325836 -43.121582 l 0.0 0.0 l -2.444275 -3.8621826 l 69.58545 -52.33435 l 0.0 -76.400024 l 0.0 -76.399994 l 0.0 -76.399994 l 0.0 -76.400024 l 0.0 -76.399994 l 0.0 -76.399994 l 387.27716 -213.60953 l 0.0 0.0 l -210.72815 -25.444904 l 0.0 0.0 l 562.3863 669.8079 l 0.0 0.0 l 0.9038086 -210.84616 l 0.0 0.0 l -399.73956 -815.4858 l 0.0 0.0 l -163.31793 -40.887543 l 0.0 0.0 l 335.64978 290.35175 l 0.0 0.0 l 118.606995 -121.93121 l 0.0 0.0 l -632.4109 188.06805 l 0.0 0.0 l -105.33923 261.71677 l 0.0 0.0 l 808.99304 -242.02794 l 0.0 0.0 l -207.20197 -285.7317 l 0.0 0.0 l -270.62793 71.755554 l 0.0 0.0 l -113.521576 88.61624 l 0.0 0.0 l -37.489197 -217.97937 l 0.0 0.0 l -140.57751 123.0025 l 0.0 0.0 l -91.063065 327.82532 l -22.600006 1.9965228e-08 l -22.600006 0.0 l -22.59999 0.0 l 0.0 76.4 l 85.59421 148.50775 l -5.538376 22.843307 l 0.0 0.0 l -80.05583 -18.551071 l 67.2599 105.74524 l -0.37361145 4.956848 l 0.0 0.0 l -66.88629 42.09793 l 68.63486 12.866455 l -0.049835205 -0.67904663 l 13.265701 101.39499 l 0.0 0.0 l 26.573166 74.200806 l 0.0 0.0 l 9.536072 22.787598 l -117.95996 95.029175 l 0.0 76.400024 l -8.0 0.0 l -8.0 0.0 l -8.0 0.0 l -8.0 0.0 l -8.0 0.0 l -8.0 0.0 l -8.0 0.0 l -8.0 0.0 l -8.0 0.0 l -8.0 0.0 l 0.0 21.0 l 0.0 21.0 l 0.0 21.0 l 0.0 21.0 l 0.0 21.0 l 0.0 21.0 l 0.0 21.0 l 0.0 21.0 l 0.0 21.0 l 0.0 21.0 l 8.0 0.0 l 8.0 0.0 l 8.0 0.0 l 8.0 0.0 l 8.0 0.0 l 8.0 0.0 l 8.0 0.0 l 8.0 0.0 l 8.0 0.0 l 8.0 0.0 l 0.0 37.599976 l 0.0 37.599976 l 0.0 37.600098 l 0.0 37.599976 l 0.0 37.599976 l 0.0 37.599976 l 0.0 37.599976 l 0.0 37.600098 l 0.0 37.599976 l 0.0 37.599976 l 0.0 0.0 l 0.6399994 35.71997 l 1.9199982 33.56006 l 3.199997 31.399902 l 4.4799957 29.240112 l 5.76001 27.079956 l 7.0399933 24.920044 l 8.320007 22.759888 l 9.599991 20.600098 l 10.880005 18.439941 l 0.0 0.0 l 18.399994 20.140015 l 20.0 18.02002 l 21.600006 15.900024 l 23.200012 13.779907 l 24.799988 11.660034 l 26.399994 9.540039 l 28.0 7.419922 l 29.600006 5.300049 l 31.200012 3.1800537 l 0.0 0.0 l 12.309998 -0.35009766 l 12.929993 -1.0499268 l 13.549988 -1.75 l 14.170013 -2.4500732 l 14.790009 -3.1499023 l 15.410004 -3.8500977 l 16.029968 -4.5499268 l 16.650024 -5.25 l 17.27002 -5.9500732 l 0.0 -23.0 l 0.0 -23.0 l 0.0 -23.0 l 0.0 -23.0 l 0.0 -23.0 l 0.0 -23.0 l 0.0 -23.0 l 0.0 -23.0 l 0.0 -23.0 l 0.0 -23.0 l -2.3000488 1.2000732 l -2.2999878 1.1999512 l -2.2999878 1.2000732 l -2.2999878 1.1999512 l -2.2999878 1.1999512 l -2.3000488 1.2000732 l -2.2999878 1.1999512 l -2.2999878 1.2000732 l -2.2999878 1.1999512 l -2.2999878 1.1999512 l 0.0 0.0 l -14.340027 7.0300293 l -13.820007 6.290039 l -13.299988 5.5499268 l -12.779999 4.8100586 l -12.26001 4.0699463 l -11.73999 3.3300781 l -11.220001 2.5899658 l -10.700012 1.8499756 l -10.179993 1.1099854 l 0.0 0.0 l -11.609985 -0.42993164 l -10.830017 -1.2900391 l -10.049988 -2.1500244 l -9.27002 -3.0100098 l -8.48999 -3.869995 l -7.7099915 -4.7299805 l -6.9299927 -5.589966 l -6.1500244 -6.449951 l -5.369995 -7.3100586 l 0.0 0.0 l -3.9899902 -9.180054 l -3.5700073 -10.73999 l -3.149994 -12.299927 l -2.730011 -13.859985 l -2.3099976 -15.420044 l -1.8899841 -16.97998 l -1.4700012 -18.54004 l -1.0500183 -20.099976 l -0.6300049 -21.660034 l 0.0 -32.099976 l 0.0 -32.099976 l 0.0 -32.099976 l 0.0 -32.099976 l 0.0 -32.100098 l 0.0 -32.099976 l 0.0 -32.099976 l 0.0 -32.099976 l 0.0 -32.099976 l 0.0 -32.100037 l 24.5 0.0 l 24.5 0.0 l 24.5 0.0 l 24.5 0.0 l 24.5 0.0 l 24.5 0.0 l 24.5 0.0 l 24.5 0.0 l 24.5 0.0 l 24.5 0.0 l 0.0 -21.0 l 0.0 -21.0 l 0.0 -21.0 l 0.0 -21.0 l 0.0 -21.0 l -1.5910034 -51.108643 l 194.26349 -37.338867 l 0.0 0.0 l -29.628418 10.337097 l 88.02051 -39.65381 l 0.0 0.0 l 67.20532 21.876404 l 0.0 0.0 l 104.91803 36.062805 l 0.0 0.0 l 112.37933 -67.236206 l 0.0 0.0 l -440.78082 63.938354 l 0.0 0.0 l -119.28644 -41.877136 l -16.40918 30.64441 l -35.25116 -10.111206 l -21.83966 -20.533203 l -14.013977 7.533081 l -32.252502 -15.888977 l -29.955872 -12.6310425 l -21.777649 20.986938 l -24.5 0.0 l -24.5 0.0 " /> </g> </svg>