<?xml version="1.0" standalone="no"?><!DOCTYPE svg PUBLIC "-//W3C//DTD SVG 1.1//EN" "http://www.w3.org/Graphics/SVG/1.1/DTD/svg11.dtd" ><svg xmlns="http://www.w3.org/2000/svg" xmlns:xlink="http://www.w3.org/1999/xlink" version="1.1" viewBox="-10 0 692 1000"><g transform="matrix(1 0 0 -1 0 800)"><path stroke="black" fill="none" d="M 366.51486 730.9069 l -27.813293 -26.623901 l -26.512878 -30.109253 l 0.0 0.0 l -3.0517578e-05 0.0 l 0.0 0.0 l -20.129883 -31.56372 l 419.1553 -726.9732 l 29.445435 8.78727 l 38.481995 15.774223 l 22.140015 10.937851 l 30.16748 17.967566 l -188.99841 -65.05327 l 0.0 0.0 l 0.001159668 0.0001449585 l 0.053894043 0.0066452026 l 32.066895 3.9044952 l -101.098694 0.96216583 l 27.059265 -3.107811 l -69.52985 10.942177 l 583.9854 622.00757 l 0.0 -87.50464 l -0.0018310547 187.53906 l 0.001953125 -472.9118 l 0.00012207031 98.68298 l 0.0 87.638916 l -328.07727 -827.0675 l -28.3609 -7.687378 l 97.91101 34.989685 l 3.1151733 1.4726562 l 2.6471558 187.21124 l 16.227905 24.304672 l 17.66388 39.55757 l -225.6618 -300.44354 l 0.0 0.0 l -0.12005615 0.0034484863 l -34.315002 0.94091797 l 77.43805 3.4943848 l -119.75751 0.09188843 l -32.62146 4.815613 l 302.59625 478.02887 l 0.7102661 0.5292001 l 52.424316 26.85516 l 0.0 0.0 l 0.0 16.747124 l 0.0 0.0 l -1.7335205 -45.355736 l 0.0 0.0 l -18.155334 16.72718 l 19.888794 -48.731754 l 6.1035156e-05 -9.690556 l 0.0 0.0 l -6.1035156e-05 -30.837059 l 6.1035156e-05 -9.879288 l 0.0 0.0 l -7.2320557 -54.74597 l 0.033813477 0.2617798 l 146.88727 -73.228 l -5.0323486 -14.499512 l -10.409668 -25.317184 l -6.142212 -13.201477 l -13.216797 -24.581543 l -7.638977 -12.743683 l -24.762512 -34.927032 l 0.0 0.0 l 0.016906738 0.022491455 l 10.467346 13.877716 l -742.50525 86.97539 l -8.530685 23.55603 l 25.436111 71.4655 l 0.0 0.0 l -9.25708 -0.0038452148 l -28.315857 -24.50772 l 0.5137024 -2.9193573 l 250.4343 106.120255 l -24.227417 9.418228 l -32.539673 15.990746 l -88.1828 65.30785 l 0.0 0.0 l 0.0028381348 -0.0024986267 l 0.5090637 -0.45103836 l 33.012817 -28.447294 l 20.896118 -15.5656395 l -80.31265 76.66238 l -24.264801 36.039673 l -13.870605 23.729614 l 794.32874 -264.52698 l 1.6799316 11.366318 l 0.0 0.0 l -6.8708496 -38.989365 l 0.0 0.0 l -2.0186768 -8.327255 l 11.893799 71.217545 l 0.5695801 5.1532593 l 0.0 0.0 l 33.62024 -9.895393 l -0.022216797 -0.00036621094 l -31.269775 34.11693 l 0.0 0.0 l 2.1939697 38.899204 l 0.0 0.0 l 22.844238 15.656445 l -0.06542969 -0.044807434 l 6.9136963 95.78585 l -0.018066406 -0.040374756 l -28.381836 -62.587227 l 0.0 0.0 l 0.123168945 19.171299 l 0.0 0.0 l -123.156006 -393.876 l -30.5979 -26.783356 l -28.709473 -20.881592 l -72.528564 128.0682 l -0.24310303 -0.12982178 l -55.884766 -30.727844 l -3.3583984 -1.3779602 l -55.11255 -12.717499 l -0.03253174 -0.0011901855 l -43.691956 -2.6806335 l 0.0 0.0 l -53.48108 9.020874 l 0.87231445 -0.25698853 l -51.872803 20.078644 l -0.95532227 0.48117065 l -88.32312 93.9583 l 0.0 0.0 l -8.762024 24.299591 l 0.0 0.0 l -7.02948 26.196777 l 0.0 0.0 l 0.20687866 -0.8548279 l 25.032227 -69.37665 l 0.0 0.0 l 6.215454 -10.641235 l 0.0 0.0 l 22.759003 -26.166367 l 0.0 0.0 l 18.843384 -16.3797 l -195.966 142.42406 l 1.5077515 1.5258789e-05 l 23.820679 -0.0002593994 l 42.734924 -0.0032043457 l 1.5917969 0.0009460449 l 33.32361 -0.2480011 l 0.0 0.0 l 4.980835 -0.2539978 l -89.645325 -243.51852 l 19.40503 -17.491608 l 0.0 0.0 l -0.0053100586 0.004852295 l 33.404236 -21.246796 l 20.514923 -11.281311 l 95.21866 -35.475403 l -0.19128418 0.06124878 l -53.293182 17.057892 l -2.4197998 0.8885193 l -194.60431 176.84155 l 14.572998 -26.316284 l 20.105713 -29.970032 l 18.62793 -23.400696 l -80.57463 545.85583 l 12.883774 -32.732162 l -25.4487 72.906006 l -8.722031 37.662262 l -6.4959106 40.709747 l -3.815918 41.359314 l 0.0 0.0 l 0.0 0.0 l 0.0 0.0 l 4.739258 82.41727 l -3.538803 -40.328613 l 9.660675 80.66904 l 8.113129 37.12271 l 23.633118 72.042786 l -12.663025 -34.397827 l 28.313812 69.191284 l 334.8506 221.25146 l 0.0 0.0 l -0.003112793 -0.00036621094 l -0.4786377 -0.05670166 l -38.03705 -4.5598145 l 236.49799 -44.393433 l -29.1922 14.675171 l -57.017273 19.993652 l 23.431396 -6.9225464 l 119.309875 -66.175415 l -26.745361 19.985168 l 53.315613 42.01947 l 0.0 0.39233398 l 0.0 21.14978 l 0.0 0.25335693 l 21.934692 2.5578613 l -0.049865723 -0.010925293 l -21.884827 -100.24725 l 0.0 0.0 l 0.0 -4.110901 l 0.0 35.53235 l 0.0 0.23901367 l 0.0 22.900635 l 0.0 -0.1005249 l 0.0 -7.04364 l 207.29346 52.964783 l 15.620117 0.0 l -48.02588 0.0 l 0.0 0.0 l -79.26599 0.0 l 32.966675 0.0 l 1.1037598 0.0 l -67.019165 0.0 l -15.7323 0.0 l 178.04272 -94.545654 l -469.13513 94.06842 l 33.96527 -3.9951172 l -148.23914 -7.218872 l -36.252563 -11.0529785 l -34.62909 -14.210999 l -32.97464 -17.369019 l -31.329803 -20.481812 " /> </g> </svg>