<?xml version="1.0" standalone="no"?><!DOCTYPE svg PUBLIC "-//W3C//DTD SVG 1.1//EN" "http://www.w3.org/Graphics/SVG/1.1/DTD/svg11.dtd" ><svg xmlns="http://www.w3.org/2000/svg" xmlns:xlink="http://www.w3.org/1999/xlink" version="1.1" viewBox="-10 0 692 1000"><g transform="matrix(1 0 0 -1 0 800)"><path stroke="black" fill="none" d="M 884.961 58.94001 l 22.48462 0.0 l 22.502136 -1.1444092e-05 l 0.0022583008 179.09169 l 0.0 -59.6895 l 0.0 -59.700714 l -134.9967 -59.70147 l 22.494995 0.0 l 22.504822 0.0 l 22.494629 0.0 l -157.49438 0.0 l 22.494934 0.0 l 44.998474 0.0 l -22.494873 0.0 l -463.94165 37.14 l 22.482056 0.0 l -44.990387 0.0 l 89.98746 0.00017547607 l -22.483978 -4.5776367e-05 l -202.5032 -0.0001296997 l 22.495193 0.0 l 89.99161 0.0 l -22.484604 0.0 l -22.514847 0.0 l -22.483353 0.0 l 179.9938 47.17135 l 0.0 47.006073 l 0.0 47.128967 l 0.0 47.0912 l -224.99954 -19.49762 l 224.99936 160.79959 l 0.00018310547 -94.193085 l 0.0 47.09131 l -224.99957 55.20218 l 224.99954 86.098114 l 0.0 -47.097168 l -224.99988 298.73297 l -3.0517578e-05 -168.81 l 226.41031 -2.8990479 l 2.3493042 30.690857 l -3.7596436 -63.51483 l 7.05011 92.10004 l 4.238037 26.497559 l 5.158966 24.287964 l -241.44711 230.61438 l -1.5258789e-05 168.9657 l 0.0 168.80835 l 238.49931 331.04944 l -45.390015 79.5957 l -21.972412 0.0 l 46.131744 0.0 l 20.79187 0.0 l -112.00348 0.0 l 22.34375 0.0 l -45.023254 0.0 l -22.345154 0.0 l -22.66159 0.0 l -22.761871 0.0 l -21.975464 0.0 l -13.633392 -241.65381 l -3.0517578e-05 168.81213 l 0.004211426 168.90393 l 238.49475 -494.07263 l 0.00021362305 -79.58618 l 0.00079345703 159.20752 l 0.0 79.62378 l 0.0 79.553345 l 44.728516 -731.23975 l -11.698517 -12.408325 l 0.0 0.0 l 0.0 0.0 l 0.0 0.0 l -16.91629 -33.831787 l 7.9835205 17.965454 l -15.036621 -38.072083 l -9.060547 320.03314 l 0.0 79.55298 l -6.1035156e-05 -238.78766 l 0.0 0.0 l 0.0 0.0 l 0.0 0.0 l 0.00064086914 79.56073 l 24.287628 -59.012146 l 24.698395 18.321655 l 51.009674 30.247803 l -25.744629 -14.037048 l -1.923523 -129.09229 l -14.496246 -9.487549 l 30.400085 17.519531 l 17.295898 6.5684204 l 18.703888 5.111145 l 20.096222 3.649231 l 44.401947 2.9204712 l 0.0 0.0 l 0.0 0.0 l 0.0 0.0 l -22.895996 -0.72991943 l 39.80304 -0.8488159 l 15.829346 -2.6174927 l 14.883911 -3.6777954 l 97.86005 -138.03064 l -2.8983765 18.841858 l -3.7390747 17.615417 l -4.5613403 16.291931 l -11.618591 28.738953 l 6.2198486 -13.713623 l -13.277771 26.155151 l 0.0 0.0 l 0.0 0.0 l -6.1035156e-05 0.0 l -8.799561 9.968933 l -45.31897 29.403076 l 12.834717 -5.7703247 l 11.844421 -6.8308716 l 10.816223 -7.8685913 l 52.23822 -292.46576 l 0.0 -57.61734 l 0.0 -57.56555 l 0.0 172.80136 l 0.0 57.590027 l 0.0 0.0 l 0.0 0.0 l 0.0 0.0 l -0.41705322 22.78888 l -1.2421875 21.416626 l -67.71643 319.70502 l -32.32434 1.069519 l 0.0 0.0 l 0.0 0.0 l 0.0 0.0 l -28.262817 -3.2425537 l -27.731201 -5.3963013 l -27.259644 -7.5625 l -26.74408 -9.7178955 l 211.69775 -742.2692 l 0.0 -57.617386 l 0.0 -57.56556 l 0.0 172.79913 l 0.0 57.58957 l 222.48004 346.4712 l 2.5198975 -37.46759 l -6.720154 72.71912 l -5.879944 33.02997 l -7.5599365 30.809998 l -32.758118 79.10663 l 12.597229 -24.144775 l -64.62219 83.98035 l -23.09491 16.046448 l 44.87805 -34.238647 l 0.0 0.0 l 0.0 0.0 l 0.0 0.0 l 15.957275 -19.706543 l -196.12292 102.09393 l 29.681335 -5.3466187 l 28.381653 -7.4901733 l 27.066223 -9.632202 l 25.734253 -11.767395 l 123.06238 -140.31085 l 29.399902 -284.54773 l 0.0 59.696655 l -6.1035156e-05 -238.80707 l 0.0 -59.689148 l 0.0 119.40515 l 0.0 59.68921 " /> </g> </svg>