<?xml version="1.0" standalone="no"?><!DOCTYPE svg PUBLIC "-//W3C//DTD SVG 1.1//EN" "http://www.w3.org/Graphics/SVG/1.1/DTD/svg11.dtd" ><svg xmlns="http://www.w3.org/2000/svg" xmlns:xlink="http://www.w3.org/1999/xlink" version="1.1" viewBox="-10 0 692 1000"><g transform="matrix(1 0 0 -1 0 800)"><path stroke="black" fill="none" d="M 884.98755 58.940006 l 22.320312 3.8146973e-06 l 22.524841 -0.00012207031 l 0.026611328 179.00313 l 0.0 -59.577576 l -6.1035156e-05 -59.708313 l -134.9613 -59.71711 l 22.441284 0.0 l 22.556091 0.0 l 22.437256 0.0 l -157.43439 1.1444092e-05 l 22.441345 -3.8146973e-06 l 44.98236 0.0 l -22.440186 -3.8146973e-06 l -463.85306 37.139996 l 22.291046 0.0 l -44.88797 7.6293945e-06 l 89.85388 0.0020446777 l -22.313202 -0.0005569458 l -202.53746 -0.0014953613 l 22.44394 0.0 l 89.902115 0.0 l -22.320404 0.0 l -22.673111 0.0 l -22.305939 0.0 l 179.92775 47.93165 l 0.0 46.00511 l 0.0 47.43782 l 0.0 46.997437 l -224.99472 -19.47226 l 224.99255 160.79529 l 0.0020751953 -94.11966 l 3.0517578e-05 46.998993 l -224.99496 55.22513 l 224.99448 86.07831 l 0.00012207031 -47.0672 l -224.99855 298.01892 l -0.0004119873 -167.85059 l 226.41379 -3.102539 l 2.3418274 30.593994 l -3.7557068 -63.460693 l 7.0511475 92.10071 l 4.323578 26.897888 l 5.041168 23.733398 l -241.416 230.76825 l -0.0002593994 169.66565 l -6.1035156e-05 167.83118 l 238.49194 331.36353 l -49.546265 79.54968 l -16.350037 0.0 l 58.19281 0.0 l 2.588501 0.0 l -106.712204 0.0 l 0.18406677 0.0 l 20.49472 0.0 l -45.271286 0.0 l -20.694916 0.0 l -24.383545 0.0 l -25.552628 0.0 l -16.385544 0.0 l -15.054977 -240.94788 l -0.00033569336 167.87659 l 0.049102783 168.94434 l 238.43869 -493.99377 l 0.0026245117 -79.43994 l 0.009185791 159.2887 l 0.0 79.87756 l 0.0 79.055786 l 44.71237 -731.1303 l -11.682373 -12.391052 l 0.0 0.0 l 0.0 0.0 l 0.0 0.0 l -16.876953 -33.74402 l 7.914734 17.810974 l -15.00061 -37.98871 l -9.066376 320.38696 l -0.00015258789 79.05078 l -0.0005493164 -238.6463 l 0.0 0.0 l 0.0 0.00024414062 l 0.0 0.0015869141 l 0.007293701 79.13104 l 24.68872 -58.289 l 24.148315 17.913208 l 51.112732 30.33142 l -25.687378 -14.006226 l -1.9610901 -129.11615 l -14.456177 -9.461487 l 30.400879 17.514404 l 17.25235 6.551697 l 18.745087 5.122864 l 20.055908 3.6418457 l 44.422516 2.9248657 l 0.0 0.0 l 0.0 0.0 l -6.1035156e-05 0.0 l -22.852905 -0.72857666 l 39.995605 -0.88964844 l 15.342773 -2.5377197 l 15.085388 -3.7075195 l 97.86041 -137.71783 l -2.8277588 18.382812 l -3.7827759 17.832703 l -4.522339 16.15271 l -11.603516 28.727661 l 6.164978 -13.59259 l -13.257446 26.106873 l 0.0 0.0 l -0.00012207031 6.1035156e-05 l -0.00024414062 0.00036621094 l -8.738953 9.9002075 l -45.30719 29.43628 l 12.7247925 -5.720764 l 11.945129 -6.8933105 l 10.722473 -7.799988 l 52.272522 -292.58038 l 0.0 -57.802734 l 0.0 -57.198395 l 0.0 172.8154 l 0.0 57.48474 l 0.0 0.0 l 0.0 0.0 l 0.0 0.0 l -0.43811035 23.149536 l -1.2122803 20.901245 l -67.892395 319.86475 l -32.157104 1.064148 l 0.0 0.0 l 0.0 0.0 l 0.0 0.0 l -28.399841 -3.2694092 l -27.53064 -5.357239 l -27.362305 -7.588928 l -26.680908 -9.694946 l 211.67358 -742.36816 l 0.0 -57.802765 l 0.0 -57.198387 l 0.0 172.79004 l 0.0 57.478546 l 222.48102 346.48352 l 2.5181274 -37.44153 l -6.7210083 72.70935 l -5.8796387 33.02997 l -7.5596313 30.81012 l -32.738342 79.07031 l 12.568176 -24.08899 l -64.64569 83.98407 l -23.040344 16.008484 l 44.857727 -34.22467 l 0.0 0.0 l 6.1035156e-05 0.0 l 0.0 -6.1035156e-05 l 15.92749 -19.6698 l -195.94098 102.02997 l 29.482544 -5.31073 l 28.399292 -7.491699 l 27.132202 -9.655945 l 25.67334 -11.739502 l 123.08783 -140.32013 l 29.398804 -284.52356 l -0.00018310547 59.66162 l -0.00079345703 -238.88269 l 0.0 -59.573914 l 0.0 119.46011 l 0.0 59.574036 " /> </g> </svg>