<?xml version="1.0" standalone="no"?><!DOCTYPE svg PUBLIC "-//W3C//DTD SVG 1.1//EN" "http://www.w3.org/Graphics/SVG/1.1/DTD/svg11.dtd" ><svg xmlns="http://www.w3.org/2000/svg" xmlns:xlink="http://www.w3.org/1999/xlink" version="1.1" viewBox="-10 0 692 1000"><g transform="matrix(1 0 0 -1 0 800)"><path stroke="black" fill="none" d="M 902.37604 58.937737 l 0.0 0.0 l 7.102112 -0.039634705 l 12.344666 134.1623 l 0.00091552734 -3.0191345 l -0.03125 -63.445312 l -117.032166 -67.63518 l 0.4847412 -3.8146973e-06 l 43.27289 1.9073486e-05 l 0.2937622 -3.8146973e-06 l -133.95398 0.005382538 l 0.49176025 -0.0005683899 l 31.631409 -0.00051116943 l -0.42199707 -0.00033569336 l -461.91495 37.140934 l 0.0 0.0 l -18.866425 -0.0029678345 l 62.8295 2.9401245 l 0.0 0.0 l -200.34047 -2.9421082 l 0.0 0.0 l 0.50105286 0.0 l 78.45506 0.0 l 0.0 0.0 l -31.895706 0.0 l 0.0 0.0 l 170.03244 107.43842 l 0.016326904 68.46185 l 0.00015258789 1.3873901 l -222.55045 -8.4939575 l 221.5387 158.6182 l -0.1000061 -0.22589111 l 1.0772705 -56.713654 l 0.0045166016 1.57901 l -222.65817 65.52927 l 222.43643 76.05246 l 0.056884766 -31.904358 l -223.84676 159.74765 l 0.0 0.0 l 227.14061 -16.015198 l 0.0035705566 0.047607422 l -2.8599854 -49.995056 l 7.5837097 92.41803 l 0.03704834 0.23114014 l 6.8368225 37.117065 l -239.50478 243.85895 l 0.0007019043 0.017028809 l -0.043884277 276.04248 l 0.0 0.0 l 234.65187 411.4358 l 0.0 0.0 l -75.38074 56.285767 l 0.0 0.0 l -158.8032 -63.875732 l 0.0 0.0 l 22.345062 63.989014 l 0.0 0.0 l 210.05391 -454.1427 l 1.2145386 -5.307495 l 4.263092 200.34277 l 0.0037231445 72.15723 l 0.0 0.0 l 36.62509 -712.3064 l 0.0 0.0 l -1.2780762 -1.3245239 l -15.801331 -29.736694 l 0.0 0.0 l -7.1522827 -18.14038 l -11.394592 355.02814 l 0.0 0.0 l 38.703003 -168.74176 l 0.0 0.0 l 40.415375 25.07019 l -0.58132935 -0.38616943 l -11.755646 -135.78137 l 0.0 0.0 l -0.11782837 -0.08203125 l 26.424438 13.333435 l 0.0 0.0 l 0.24014282 0.08465576 l 38.240875 10.786377 l 0.0 0.0 l 0.9640198 0.14569092 l 39.87265 4.520996 l 0.0 0.0 l 52.95929 -5.3255615 l 0.0 0.0 l 103.27777 -114.16962 l -4.972046 20.567749 l 0.0 0.0 l -9.6922 26.793823 l 0.0 0.0 l -7.8879395 15.441589 l -40.81421 36.866943 l 0.0 0.0 l 24.966553 -18.000183 l 0.0 0.0 l 46.70764 -332.82336 l 0.0012817383 -49.878723 l 0.0 0.0 l -0.012268066 206.85492 l 0.0 0.0 l -1.2498779 39.012268 l 0.0 0.0 l -100.15344 329.7035 l 0.0 0.0 l -45.170105 -6.5594482 l 0.0 0.0 l -58.171875 -16.630127 l -0.45391846 -0.16278076 l 205.21185 -790.3342 l 0.0 -49.882492 l 0.0 0.0 l 0.0 195.1142 l 0.0 1.986969 l 222.94922 352.0018 l 1.6587524 -24.261719 l -7.1659546 67.75806 l -5.7323 33.029175 l -7.369995 30.865051 l -22.750671 60.69055 l 0.26123047 -0.49328613 l -78.95813 90.530396 l -0.3953247 0.2770996 l 50.866028 -44.61328 l 0.0 0.0 l -158.3747 90.15973 l 0.0 0.0 l 10.268311 -3.0515137 l 60.58893 -21.685608 l 0.43200684 -0.19476318 l 130.3374 -142.4071 l 28.831116 -272.31177 l -0.06866455 41.9386 l -0.37390137 -277.18274 l -0.0004272461 -1.9803772 l -0.0025634766 148.06262 l -6.1035156e-05 1.9988098 " /> </g> </svg>