<?xml version="1.0" standalone="no"?><!DOCTYPE svg PUBLIC "-//W3C//DTD SVG 1.1//EN" "http://www.w3.org/Graphics/SVG/1.1/DTD/svg11.dtd" ><svg xmlns="http://www.w3.org/2000/svg" xmlns:xlink="http://www.w3.org/1999/xlink" version="1.1" viewBox="-10 0 692 1000"><g transform="matrix(1 0 0 -1 0 800)"><path stroke="black" fill="none" d="M 886.44495 58.939816 l 15.349548 0.00017166138 l 23.487122 -0.004875183 l 1.059021 175.24496 l 6.1035156e-05 -54.827637 l -0.0026855469 -60.03121 l -133.45862 -60.380733 l 20.163513 0.0 l 24.730103 0.0 l 20.003174 0.0 l -154.88843 0.00046157837 l 20.16748 -0.00016403198 l 44.29767 7.247925e-05 l -20.119751 -0.0001373291 l -460.09146 37.139893 l 14.1831665 -5.340576e-05 l -40.541687 9.1552734e-05 l 84.184875 0.08151245 l -15.06546 -0.022094727 l -203.99088 -0.05958557 l 0.7407837 0.0 l 19.528046 0.0 l 86.10425 0.0 l -15.352158 0.0 l -29.389343 0.0 l -14.776672 0.0 l 177.12419 80.19866 l 6.1035156e-05 3.525711 l -3.0517578e-05 60.543854 l 3.0517578e-05 43.01837 l -224.78987 -18.395721 l 224.70308 160.61282 l 0.08383179 -91.00354 l 0.00048828125 43.081482 l -224.79921 56.199524 l 224.78008 85.23807 l 0.0048828125 -45.796417 l -224.94249 267.7137 l -0.01651001 -127.13257 l 226.5602 -11.739258 l 2.0255432 26.481873 l -3.589203 -61.159363 l 7.095764 92.12726 l 7.9539185 43.887085 l 0.20605469 0.970459 l -240.2598 236.52588 l -0.010604858 199.36975 l -0.0022277832 126.36487 l 238.179 344.6875 l -0.05718994 0.36071777 l -11.982147 77.23926 l 0.0 0.0 l -65.12192 0.0 l 0.0 0.0 l -83.56717 0.0 l 0.0 0.0 l -54.89215 0.0 l 0.0 0.0 l -22.533157 -210.98853 l -0.013458252 128.16797 l 1.954361 170.66785 l 1.2719574 -5.3155518 l 234.78777 -485.33826 l 0.10418701 -73.22656 l 0.36572266 162.72925 l 0.00036621094 90.64758 l 0.0 57.93921 l 44.027863 -726.4858 l -0.08004761 -0.08581543 l -10.900665 -11.55365 l 0.0 0.0 l 0.00024414062 0.00024414062 l -15.225281 -30.03778 l 4.9954224 11.254822 l -13.471619 -34.449646 l -9.314484 335.4035 l -0.006225586 57.73999 l 0.10256958 -217.72754 l 0.0 0.0 l 0.16604614 46.051147 l 41.711304 -27.596497 l 1.0857239 0.7897339 l 55.20343 33.667114 l -23.25763 -12.697754 l -3.5559082 -130.12756 l -0.8780823 -0.58154297 l -11.877716 -7.7748413 l 30.43576 17.295166 l 0.828949 0.30847168 l 14.574432 5.535095 l 20.49466 5.621826 l 0.22729492 0.036132812 l 18.117584 3.2902222 l 44.19406 3.0753784 l 0.0 0.0 l -0.14746094 -0.004699707 l -19.778564 -0.6312256 l 42.76068 -1.7544556 l 0.0 0.0 l 0.124694824 -0.022399902 l 23.611328 -4.96698 l 97.8761 -124.441345 l -0.09460449 0.61932373 l -5.3724365 25.333557 l -2.8669434 10.245361 l -10.965454 28.249939 l 3.83844 -8.457642 l -17.673523 30.036194 l 0.0 0.0 l -0.97039795 1.0997925 l -44.741882 30.77008 l 8.063293 -3.6176758 l 16.216187 -9.542053 l 6.7441406 -4.889221 l 53.728638 -297.44513 l 0.00012207031 -65.67001 l 0.0 -41.615936 l -0.0010986328 173.41107 l -0.0004272461 1.7454224 l -0.01373291 51.82312 l 0.0 0.0 l -0.0010986328 0.04071045 l -1.315979 37.863342 l -0.03869629 0.6777344 l -75.26312 324.99384 l -24.897278 0.829834 l 0.0 0.0 l 0.0049438477 -0.00018310547 l -34.382385 -4.4023438 l -19.02063 -3.6994019 l -31.719788 -8.712463 l -23.999023 -8.719482 l 210.64832 -746.5648 l 0.0 -65.67041 l 0.0 -41.61595 l 0.0 172.40398 l 0.0 52.76599 l 222.52026 347.00772 l 2.446106 -36.336914 l -6.758301 72.29437 l -5.8673096 33.029907 l -7.543701 30.814697 l -31.901306 77.52991 l 11.334534 -21.722168 l -65.64307 84.14349 l -20.723572 14.399902 l 44.70099 -34.50482 l 0.0 0.0 l 0.09576416 -0.11828613 l 13.865234 -17.123047 l -188.22064 99.31476 l 21.046997 -3.78833 l 29.145508 -7.556946 l 29.93634 -10.664124 l 23.08545 -10.554871 l 124.167725 -140.7121 l 29.351257 -283.50006 l -0.00592041 58.17621 l -0.032043457 -242.09268 l -6.1035156e-05 -54.682556 l -0.00018310547 121.793 l -6.1035156e-05 54.6864 " /> </g> </svg>