<?xml version="1.0" standalone="no"?><!DOCTYPE svg PUBLIC "-//W3C//DTD SVG 1.1//EN" "http://www.w3.org/Graphics/SVG/1.1/DTD/svg11.dtd" ><svg xmlns="http://www.w3.org/2000/svg" xmlns:xlink="http://www.w3.org/1999/xlink" version="1.1" viewBox="-10 0 692 1000"><g transform="matrix(1 0 0 -1 0 800)"><path stroke="black" fill="none" d="M 884.961 58.94001 l 22.447388 0.0 l 22.507263 -3.4332275e-05 l 0.0078125 179.07162 l 0.0 -59.66414 l 0.0 -59.70243 l -134.98871 -59.705017 l 22.48285 0.0 l 22.516418 0.0 l 22.481628 0.0 l -157.48077 3.8146973e-06 l 22.482788 0.0 l 44.994812 0.0 l -22.482483 -3.8146973e-06 l -463.92157 37.14 l 22.438782 0.0 l -44.967194 0.0 l 89.957214 0.00060272217 l -22.445282 -0.00016784668 l -202.51099 -0.0004348755 l 22.483582 0.0 l 89.97133 0.0 l -22.447388 0.0 l -22.550705 0.0 l -22.443161 0.0 l 179.97884 47.34359 l 0.0 46.779312 l 0.0 47.198944 l 0.0 47.069946 l -224.99846 -19.491852 l 224.99782 160.79861 l 0.00061035156 -94.17648 l 0.0 47.070404 l -224.99852 55.207367 l 224.9984 86.09366 l 3.0517578e-05 -47.090393 l -224.99957 298.57123 l -0.00012207031 -168.59265 l 226.4111 -2.9451294 l 2.3476257 30.668884 l -3.7587585 -63.502563 l 7.0503235 92.10016 l 4.257416 26.588257 l 5.1322937 24.162354 l -241.44006 230.64923 l -7.6293945e-05 169.12427 l -1.5258789e-05 168.58691 l 238.49765 331.12073 l -46.331573 79.585205 l -20.69873 0.0 l 48.864075 0.0 l 16.66806 0.0 l -110.80478 0.0 l 21.966583 0.0 l -45.079468 0.0 l -21.971298 0.0 l -23.051682 0.0 l -23.394089 0.0 l -20.709122 0.0 l -13.955444 -241.4939 l -9.1552734e-05 168.60022 l 0.014373779 168.91309 l 238.48206 -494.0548 l 0.00076293945 -79.5531 l 0.0026855469 159.22595 l 0.0 79.681274 l 0.0 79.440674 l 44.724854 -731.21497 l -11.694855 -12.404419 l 0.0 0.0 l 0.0 0.0 l 0.0 0.0 l -16.90738 -33.81189 l 7.9679565 17.930481 l -15.028473 -38.053223 l -9.061859 320.11322 l -6.1035156e-05 79.43921 l -0.00018310547 -238.75696 l 0.0 0.0 l 0.0 0.0 l 0.0 6.1035156e-05 l 0.002166748 79.46515 l 24.37851 -58.848328 l 24.573761 18.229126 l 51.03302 30.266724 l -25.731659 -14.03009 l -1.9320374 -129.09766 l -14.487152 -9.481628 l 30.400238 17.518372 l 17.286041 6.564575 l 18.713226 5.1138306 l 20.087097 3.647583 l 44.406708 2.9214478 l 0.0 0.0 l 0.0 0.0 l 0.0 0.0 l -22.886353 -0.72961426 l 39.84668 -0.8580322 l 15.719116 -2.5994873 l 14.929504 -3.6845093 l 97.86017 -137.95978 l -2.8823853 18.737915 l -3.7489624 17.664612 l -4.5525513 16.260376 l -11.615173 28.73639 l 6.2074585 -13.686157 l -13.272705 26.143616 l 0.0 0.0 l 0.0 0.0 l 0.0 0.0 l -8.786438 9.954041 l -45.316284 29.410583 l 12.809814 -5.759094 l 11.867249 -6.8450317 l 10.794983 -7.8530273 l 52.24597 -292.4917 l 0.0 -57.659393 l 0.0 -57.48236 l 0.0 172.80453 l 0.0 57.566162 l 0.0 0.0 l 0.0 0.0 l 0.0 0.0 l -0.42181396 22.870605 l -1.2354126 21.299866 l -67.75629 319.7412 l -32.2865 1.0682983 l 0.0 0.0 l 0.0 0.0 l 0.0 0.0 l -28.293823 -3.2486572 l -27.685791 -5.387451 l -27.282898 -7.5684814 l -26.729736 -9.7126465 l 211.69226 -742.2917 l 0.0 -57.659378 l 0.0 -57.482376 l 0.0 172.79706 l 0.0 57.564453 l 222.48029 346.47397 l 2.5194702 -37.46167 l -6.720337 72.71692 l -5.879883 33.02997 l -7.5598755 30.809998 l -32.753662 79.09839 l 12.590698 -24.132141 l -64.6275 83.9812 l -23.08258 16.037842 l 44.873413 -34.235413 l 0.0 0.0 l 0.0 0.0 l 0.0 0.0 l 15.950562 -19.698303 l -196.08173 102.07947 l 29.636353 -5.338501 l 28.38562 -7.4905396 l 27.081177 -9.637573 l 25.720459 -11.761047 l 123.06818 -140.31299 l 29.399658 -284.54224 l -6.1035156e-05 59.68872 l -0.00024414062 -238.82419 l 0.0 -59.663055 l 0.0 119.4176 l 0.0 59.663116 " /> </g> </svg>