<?xml version="1.0" standalone="no"?><!DOCTYPE svg PUBLIC "-//W3C//DTD SVG 1.1//EN" "http://www.w3.org/Graphics/SVG/1.1/DTD/svg11.dtd" ><svg xmlns="http://www.w3.org/2000/svg" xmlns:xlink="http://www.w3.org/1999/xlink" version="1.1" viewBox="-10 0 692 1000"><g transform="matrix(1 0 0 -1 0 800)"><path stroke="black" fill="none" d="M 1084.0 23.0 l 0.0 0.0 l -0.045043945 -13.635 l -0.13500977 -13.305 l -0.22497559 -12.975 l -0.3149414 -12.645 l -0.4050293 -12.314999 l -0.49499512 -11.985001 l -0.58496094 -11.654999 l -0.6750488 -11.324997 l -0.76501465 -10.995003 l 0.0 0.0 l -0.9349365 -10.375 l -1.0050049 -10.125 l -1.0750732 -9.875 l -1.1450195 -9.625 l -1.2149658 -9.375008 l -1.2850342 -9.125 l -1.3549805 -8.875 l -1.4249268 -8.625 l -1.4949951 -8.375 l 0.0 0.0 l -5.26001 -21.689987 l -6.1800537 -21.070007 l -7.0999756 -20.449997 l -8.02002 -19.830002 l -8.939941 -19.209991 l -9.859985 -18.589996 l -10.780029 -17.970001 l -11.700012 -17.350006 l -12.619995 -16.730011 l 0.0 0.0 l -27.390015 -28.880005 l -29.369995 -25.839996 l -31.350037 -22.799988 l -33.329956 -19.76001 l -35.309998 -16.720001 l -37.29004 -13.679993 l -39.26996 -10.639984 l -41.25 -7.600006 l -43.23004 -4.5599976 l 0.0 0.0 l -38.309998 1.0499878 l -36.929993 3.149994 l -35.549988 5.25 l -34.169983 7.350006 l -32.79004 9.450012 l -31.409973 11.549988 l -30.03003 13.649994 l -28.649994 15.75 l -27.269989 17.850006 l 0.0 0.0 l -24.899994 22.429993 l -22.700012 24.089996 l -20.5 25.75 l -18.299988 27.410004 l -16.100006 29.070007 l -13.899994 30.729996 l -11.700012 32.39 l -9.5 34.050003 l -7.300003 35.710007 l 22.600006 0.0 l 22.59999 0.0 l 22.600006 0.0 l 22.600006 0.0 l 22.600006 0.0 l 22.600006 0.0 l 22.599976 0.0 l 22.600006 0.0 l 22.600006 0.0 l 22.600006 0.0 l 0.0 0.0 l 2.769989 -14.070007 l 3.1100159 -13.410004 l 3.4499817 -12.75 l 3.7900085 -12.089996 l 4.130005 -11.429993 l 4.470001 -10.770004 l 4.8099976 -10.110001 l 5.149994 -9.449997 l 5.48999 -8.790009 l 0.0 0.0 l 14.640015 -17.289993 l 15.920013 -15.470001 l 17.200012 -13.649994 l 18.47998 -11.830017 l 19.76001 -10.009979 l 21.039978 -8.190002 l 22.320007 -6.369995 l 23.599976 -4.5500183 l 24.880005 -2.730011 l 0.0 0.0 l 46.929993 3.0300293 l 41.99005 9.089996 l 37.049988 15.149994 l 32.109985 21.209991 l 27.169983 27.269989 l 22.230042 33.330017 l 17.289978 39.39 l 12.349976 45.449997 l 7.410034 51.510002 l 0.0 13.599998 l 0.0 13.599998 l 0.0 13.600002 l 0.0 13.600002 l 0.0 13.599998 l 0.0 13.6 l 0.0 13.6 l 0.0 13.600002 l -5.722534 45.741596 l 0.0 0.0 l 18.929749 112.50592 l 0.0 0.0 l -0.07635498 -24.884995 l -105.755554 -86.79213 l 0.0 0.0 l 28.353088 0.00019073486 l 0.0 0.0 l -117.140076 0.055892944 l 0.0 0.0 l 15.575867 -0.009807587 l 0.0 0.0 l 110.595825 -68.73668 l -28.850037 -20.55 l -29.669983 -17.809998 l -30.48999 -15.07 l -31.309998 -12.329998 l -32.130005 -9.590004 l -32.950012 -6.8499985 l -33.77002 -4.1100006 l 0.0 0.0 l -39.079956 1.4400024 l -37.640015 4.3199997 l -36.200012 7.199997 l -34.75998 10.080002 l -33.320007 12.959999 l -31.880005 15.84 l -30.440002 18.72 l -29.0 21.6 l -27.559998 24.48 l 0.0 0.0 l -24.320007 29.93 l -56.070618 45.64173 l 0.0 0.0 l 57.23532 3.311615 l -153.11147 -3.3833237 l 0.0 0.0 l 42.31868 6.866455e-05 l 0.0 0.0 l 144.97675 139.39873 l 0.0440979 33.061096 l 0.0 0.0 l -107.072754 -83.709915 l -11.520004 37.229996 l -98.03183 42.55713 l 82.67183 36.282867 l 130.51059 117.06796 l -0.010314941 -0.023284912 l 3.1044006 -48.6575 l 0.0 0.0 l -136.25467 15.182831 l -80.49194 48.661102 l 90.01193 31.418884 l 8.330002 38.120026 l 117.90553 -17.743347 l 0.06686401 -0.97283936 l -213.04758 116.449005 l 215.59671 -0.72766113 l 0.0 0.0 l -0.9282532 -17.184265 l -62.473267 59.85907 l 20.22998 31.720032 l 0.0 0.0 l 49.890747 -6.093933 l 0.0 0.0 l 0.050323486 0.3112793 l -232.85898 288.13104 l 0.0 0.0 l 1.0950928 64.09766 l 155.49911 668.4744 l 0.0 0.0 l -142.88565 -29.734985 l 0.0 0.0 l 174.56232 -426.92078 l 0.0 0.0 l 49.52664 237.63599 l 0.0 0.0 l 30.060028 -689.50525 l 0.0 0.0 l -24.155914 -61.143555 l 0.0 0.0 l 33.847504 207.69373 l 0.0 0.0 l 34.073914 28.522095 l 0.0 0.0 l -19.497131 -150.30762 l 0.0 0.0 l 60.436584 30.122864 l 0.0 0.0 l 58.16086 9.298767 l 0.0 0.0 l 54.46173 -5.6221924 l 0.0 0.0 l 97.1286 -92.93793 l 0.0 0.0 l -25.307678 52.010376 l 0.0 0.0 l -30.786499 25.327942 l 0.0 0.0 l 69.55426 -392.7533 l 0.0 0.0 l -0.35565186 214.27667 l 0.0 0.0 l -102.82196 354.49585 l 0.0 0.0 l -97.3996 -21.799927 l 0.0 0.0 l 200.59125 -834.90955 l 0.0 0.0 l -0.00018310547 183.06046 l 0.0 0.0 l 41.230286 482.76984 l 31.220032 -12.330017 l 29.97998 -15.070007 l 28.73999 -17.809998 l 27.5 -20.549988 l 65.41217 -77.39508 l 0.055908203 -0.5871582 l -8.719055 63.99182 l -30.488647 12.700317 l -6.1035156e-05 11.000244 l 25.113098 9.326843 l -25.113098 12.672913 l -6.1035156e-05 11.000183 l 18.201721 7.324768 l -21.055237 58.61328 l 0.0 0.0 l -76.29028 89.46765 l 0.0 0.0 l 45.50421 -40.430786 l -154.8797 88.17615 l 0.0 0.0 l 65.2146 -22.783752 l 0.0 0.0 l 137.43933 -142.32825 l 30.865112 5.9608765 l 22.5 0.0 l 22.5 0.0 l 22.5 0.0 l 22.5 0.0 l 22.5 0.0 l 22.5 0.0 l 22.5 0.0 l 22.5 0.0 l 0.0 -95.10004 l 0.0 -95.099976 l -183.40747 -58.526855 l -0.15753174 1.6500244 l 183.565 -133.32318 l 0.0 -95.099976 l -184.89581 -30.827667 l 0.0 0.0 l -0.030578613 128.6052 l 0.0 0.0 l 184.92639 -287.97754 l 0.0 -95.09999 l 0.0 -95.1 l 0.0 -95.1 " /> </g> </svg>