<?xml version="1.0" standalone="no"?><!DOCTYPE svg PUBLIC "-//W3C//DTD SVG 1.1//EN" "http://www.w3.org/Graphics/SVG/1.1/DTD/svg11.dtd" ><svg xmlns="http://www.w3.org/2000/svg" xmlns:xlink="http://www.w3.org/1999/xlink" version="1.1" viewBox="-10 0 692 1000"><g transform="matrix(1 0 0 -1 0 800)"><path stroke="black" fill="none" d="M 885.07825 58.939995 l 21.886536 1.5258789e-05 l 22.584717 -0.0004196167 l 0.09082031 178.76929 l 6.1035156e-05 -59.282013 l -0.00024414062 -59.72841 l -134.8678 -59.7584 l 22.29956 0.0 l 22.691345 0.0 l 22.285767 0.0 l -157.27594 4.196167e-05 l 22.299866 -1.5258789e-05 l 44.93976 3.8146973e-06 l -22.295776 -1.1444092e-05 l -463.61902 37.139988 l 21.78653 0.0 l -44.617523 7.6293945e-06 l 89.50113 0.006996155 l -21.862213 -0.0018997192 l -202.62788 -0.0051116943 l 22.308594 0.0 l 89.66579 0.0 l -21.88681 0.0 l -23.091003 0.0 l -21.837448 0.0 l 179.75328 49.939415 l 3.0517578e-05 43.36183 l 0.0 48.253387 l 0.0 46.749847 l -224.98198 -19.405273 l 224.97453 160.78394 l 0.007171631 -93.92575 l 6.1035156e-05 46.75522 l -224.98279 55.285767 l 224.98114 86.02603 l 0.0004272461 -46.98813 l -224.99507 296.1332 l -0.0014190674 -165.31696 l 226.42288 -3.6399536 l 2.322174 30.338074 l -3.7453613 -63.317444 l 7.0539246 92.102356 l 4.549469 27.955017 l 4.730133 22.269043 l -241.33388 231.17444 l -0.00090026855 171.51398 l -0.00019836426 165.25098 l 238.47246 332.19263 l -60.52191 79.428345 l -1.5184326 0.0 l 56.4917 0.0 l 0.0 0.0 l -104.654236 0.0 l 0.025360107 0.0 l 16.256622 0.0 l -45.92621 0.0 l -16.337051 0.0 l -28.930817 0.0 l -32.922318 0.0 l -1.6335602 0.0 l -18.799438 -239.08374 l -0.0011444092 165.40576 l 0.16764832 169.05164 l 238.29066 -493.786 l 0.00894165 -79.05322 l 0.03137207 159.50269 l 3.0517578e-05 80.54773 l 0.0 77.74194 l 44.66977 -730.8414 l -11.639648 -12.345276 l 0.0 0.0 l 0.0 0.0 l 0.0 0.0 l -16.773224 -33.51245 l 7.7330933 17.403076 l -14.905457 -37.768494 l -9.081848 321.32135 l -0.0005187988 77.72473 l -0.0012207031 -238.19543 l 0.0 0.0 l 3.0517578e-05 0.005126953 l 0.008636475 1.0377808 l 0.015594482 76.88226 l 25.747925 -56.37915 l 22.69571 16.834595 l 51.384827 30.552063 l -25.536194 -13.924805 l -2.0603027 -129.17908 l -14.350372 -9.3927 l 30.403046 17.500732 l 17.137299 6.5076294 l 18.853973 5.1539307 l 19.949432 3.6221924 l 44.47113 2.9362793 l 0.0 0.0 l -0.00018310547 0.0 l -0.0007324219 -6.1035156e-05 l -22.732788 -0.7247925 l 40.50403 -0.9973755 l 1.7785645 -0.2989502 l 12.279419 -2.0280762 l 15.617432 -3.7861328 l 97.86139 -136.89172 l -2.6412354 17.170593 l -3.8981323 18.406311 l -4.4193726 15.785156 l -11.563843 28.697937 l 6.0202637 -13.273071 l -13.231384 26.01062 l 0.0 0.0 l -0.0012817383 0.0014648438 l -0.11975098 0.13555908 l -8.43158 9.552002 l -45.276184 29.523987 l 12.434753 -5.589905 l 12.210876 -7.0581055 l 10.474976 -7.6188354 l 52.3631 -292.88312 l 0.0 -58.292267 l 0.0 -56.22879 l -6.1035156e-05 172.85242 l -6.1035156e-05 57.209595 l 0.0 0.0 l 0.0 6.1035156e-05 l 0.0 0.00024414062 l -0.4935913 24.098816 l -1.1333008 19.540222 l -68.356995 320.28656 l -31.714783 1.0498657 l 0.0 0.0 l 6.1035156e-05 0.0 l 0.0 0.0 l -28.762451 -3.340271 l -27.00116 -5.2540283 l -27.633423 -7.6588745 l -26.514038 -9.634216 l 211.6098 -742.6293 l 0.0 -58.292328 l 0.0 -56.22879 l 0.0 172.76602 l 0.0 57.185303 l 222.48346 346.51614 l 2.5136719 -37.372803 l -6.7233276 72.68353 l -5.8789062 33.02997 l -7.5585938 30.810364 l -32.68628 78.97449 l 12.491394 -23.941711 l -64.70776 83.99396 l -22.89618 15.908447 l 44.8078 -34.192505 l 0.0 0.0 l 0.00012207031 -0.00012207031 l 0.00048828125 -0.00061035156 l 15.844788 -19.567627 l -195.46063 101.86102 l 28.957703 -5.2160034 l 28.445679 -7.4957886 l 27.306702 -9.718689 l 25.512268 -11.6657715 l 123.15503 -140.34448 l 29.395874 -284.4599 l -0.0005493164 59.569214 l -0.002746582 -239.08246 l 0.0 -59.26953 l 0.0 119.605286 l 0.0 59.269897 " /> </g> </svg>