<?xml version="1.0" standalone="no"?><!DOCTYPE svg PUBLIC "-//W3C//DTD SVG 1.1//EN" "http://www.w3.org/Graphics/SVG/1.1/DTD/svg11.dtd" ><svg xmlns="http://www.w3.org/2000/svg" xmlns:xlink="http://www.w3.org/1999/xlink" version="1.1" viewBox="-10 0 692 1000"><g transform="matrix(1 0 0 -1 0 800)"><path stroke="black" fill="none" d="M 885.3879 58.939953 l 20.40564 4.9591064e-05 l 22.789124 -0.0014266968 l 0.31018066 177.97089 l 6.1035156e-05 -58.27292 l -0.00079345703 -59.797005 l -134.54858 -59.899384 l 21.815674 0.0 l 23.153198 0.0 l 21.768677 0.0 l -156.73505 0.0001373291 l 21.816772 -4.9591064e-05 l 44.79431 2.2888184e-05 l -21.802856 -4.196167e-05 l -462.81985 37.13997 l 20.064056 -1.5258789e-05 l -43.694183 2.2888184e-05 l 88.29678 0.023880005 l -20.32248 -0.006477356 l -202.93666 -0.017448425 l 21.846497 0.0 l 88.85896 0.0 l -20.406448 0.0 l -24.517838 0.0 l -20.237885 0.0 l 179.15768 56.79438 l 3.0517578e-05 34.337067 l 0.0 51.037918 l 0.0 45.904526 l -224.93846 -19.176575 l 224.91304 160.74518 l 0.024536133 -93.26376 l 0.00015258789 45.922974 l -224.9412 55.492767 l 224.93558 85.847565 l 0.0014343262 -46.7182 l -224.98314 289.695 l -0.004837036 -156.66663 l 226.45398 -5.4747314 l 2.2549744 29.464478 l -3.709961 -62.828552 l 7.063385 92.10797 l 5.320709 31.56427 l 3.6681519 17.26941 l -241.05345 232.56146 l -0.0030975342 177.82434 l -0.00065612793 156.44177 l 238.40599 335.0232 l -58.287537 79.01416 l 0.0 0.0 l 47.70331 0.0 l -94.1586 0.0 l 0.0 0.0 l 1.3560181 0.0 l -48.162308 0.0 l -1.5177002 0.0 l -44.39682 0.0 l -19.832397 0.0 l 0.0 0.0 l -21.102554 -232.719 l -0.0039367676 156.96985 l 0.5724182 169.41785 l 237.78525 -493.07654 l 0.030517578 -77.733154 l 0.1071167 160.23364 l 0.00012207031 82.83569 l 0.0 73.25574 l 44.524353 -729.8546 l -11.492889 -12.187927 l 0.0 0.0 l 3.0517578e-05 0.0 l 3.0517578e-05 6.1035156e-05 l -16.420044 -32.722717 l 7.1128845 16.010254 l -14.580627 -37.016663 l -9.134552 324.51147 l -0.0018005371 73.19751 l 0.0035705566 -235.80536 l 0.0 0.0 l 0.0024108887 0.29016113 l 0.07269287 72.66089 l 29.364288 -49.858704 l 17.736145 13.151978 l 52.313904 31.305603 l -25.019989 -13.646851 l -2.3991394 -129.39392 l -13.989136 -9.157959 l 30.410461 17.454163 l 16.744476 6.3571777 l 19.225677 5.2599487 l 19.585938 3.5551758 l 44.574127 2.9730835 l 0.0 0.0 l -0.0028076172 -6.1035156e-05 l -0.41705322 -0.013427734 l -21.843567 -0.6965332 l 42.23987 -1.3652344 l 0.3444214 -0.057861328 l 9.326843 -1.5497437 l 17.434021 -4.0546265 l 97.864746 -134.07123 l -2.0043335 13.031799 l -4.2921143 20.364868 l -4.067688 14.530212 l -11.428284 28.596436 l 5.526001 -12.18219 l -13.443237 26.022827 l 0.0 0.0 l -0.05895996 0.066711426 l -7.555298 8.559082 l -45.170288 29.823425 l 11.444458 -5.1430664 l 13.118225 -7.6208496 l 9.629761 -7.0004883 l 52.672424 -293.91656 l 6.1035156e-05 -59.963623 l 0.0 -52.918396 l -0.00030517578 172.979 l -0.0009765625 56.301453 l 0.0 0.0 l -6.1035156e-05 0.0010986328 l -0.001159668 0.043823242 l -0.6812134 27.264893 l -0.8635254 14.893311 l -69.9433 321.72668 l -30.195007 1.0009766 l 0.0 0.0 l 0.00024414062 -6.1035156e-05 l 0.0015258789 -6.1035156e-05 l -30.011536 -3.581726 l -25.193237 -4.9018555 l -28.559143 -7.897583 l -25.944275 -9.426941 l 211.39197 -743.5209 l 0.0 -59.963776 l 0.0 -52.918373 l 0.0 172.68399 l 0.0 56.184143 l 222.49176 346.6275 l 2.498413 -37.138123 l -6.731262 72.59534 l -5.8762817 33.02997 l -7.555237 30.811401 l -32.508423 78.64722 l 12.229309 -23.438904 l -64.91968 84.02783 l -22.40393 15.566711 l 44.67749 -34.132202 l 0.0 0.0 l 0.0018310547 -0.002319336 l 0.27593994 -0.3408203 l 15.246826 -18.829163 l -193.8205 101.28424 l 27.165588 -4.892578 l 28.604248 -7.5096436 l 27.902405 -9.932861 l 24.962524 -11.414124 l 123.38446 -140.42773 l 29.385742 -284.2425 l -0.0017700195 59.253662 l -0.009399414 -239.7644 l 0.0 -58.230408 l -6.1035156e-05 120.10089 l 0.0 58.231567 " /> </g> </svg>