<?xml version="1.0" standalone="no"?><!DOCTYPE svg PUBLIC "-//W3C//DTD SVG 1.1//EN" "http://www.w3.org/Graphics/SVG/1.1/DTD/svg11.dtd" ><svg xmlns="http://www.w3.org/2000/svg" xmlns:xlink="http://www.w3.org/1999/xlink" version="1.1" viewBox="-10 0 692 1000"><g transform="matrix(1 0 0 -1 0 800)"><path stroke="black" fill="none" d="M 890.05396 58.939342 l 0.6855469 0.0002937317 l 23.271423 -0.016361237 l 3.6156616 165.93805 l 0.00024414062 -43.064697 l -0.009155273 -60.830826 l -129.7373 -62.024166 l 14.522644 -3.8146973e-06 l 30.114136 7.6293945e-06 l 13.97522 -7.6293945e-06 l -148.5835 0.0015830994 l 14.536194 -0.0005645752 l 42.602173 0.00024795532 l -14.37323 -0.00047302246 l -450.77625 37.13964 l 0.27316284 -1.5258789e-05 l -35.94687 0.00015258789 l 70.145874 0.27829742 l -0.54711914 -0.02533722 l -204.15993 -0.25354004 l 0.1366272 0.0 l 14.745682 0.0 l 76.699036 0.0 l -0.687027 0.0 l -43.43036 0.0 l -0.44036865 0.0 l 174.48988 85.580956 l 0.0 0.0 l 0.0010681152 65.853226 l 9.1552734e-05 33.1644 l -224.28258 -15.729706 l 223.98619 160.16095 l 0.28625488 -83.28665 l 0.0016479492 33.380005 l -224.31442 58.61258 l 224.24915 83.157135 l 0.016662598 -42.649292 l -224.80367 192.66473 l -0.056381226 -26.296875 l 226.92276 -33.127563 l 1.2422485 16.298523 l -3.1768494 -55.46039 l 7.2063293 92.19318 l 0.21606445 1.3474731 l 7.736023 42.256836 l 0.0 0.0 l -240.17224 237.73914 l 0.0048065186 0.1149292 l -0.041015625 272.8152 l -0.007598877 23.675903 l 237.40407 377.68396 l -0.00491333 0.03100586 l -75.71506 72.74036 l 0.0 0.0 l -137.76105 0.0 l 0.0 0.0 l -23.836792 -136.79578 l -0.045928955 29.83191 l 6.6726074 174.93579 l 0.030517578 -0.12756348 l 230.13782 -482.255 l 0.35577393 -57.83972 l 1.2485962 171.24988 l 0.0012512207 117.31885 l 3.0517578e-05 5.6452637 l 42.332703 -714.9839 l -0.012786865 -0.013671875 l -9.090088 -9.61969 l 0.0 0.0 l -11.274658 -21.00415 l 0.10070801 0.2312622 l -12.019745 -30.897034 l -9.928833 372.591 l -0.021209717 4.965454 l 3.3197632 -160.03583 l 0.0 0.0 l 36.376526 -26.120667 l 0.0 0.0 l 54.39389 33.082886 l -17.240479 -9.457397 l -7.5054016 -132.63245 l -0.17147827 -0.113464355 l -8.373474 -5.5060425 l 30.522186 16.75232 l 0.1612854 0.060058594 l 10.663269 4.029846 l 24.82727 6.857361 l 0.04623413 0.0073242188 l 14.061432 2.5377197 l 34.36331 3.1489258 l 0.0 0.0 l -3.416809 -0.107299805 l 51.33081 -4.63562 l 0.0 0.0 l 5.4450684 -1.1396484 l 102.87903 -124.058655 l 0.0 0.0 l -7.599182 33.03241 l -0.072631836 0.26202393 l -8.086243 22.434998 l 0.09039307 -0.19720459 l -17.922607 29.779358 l 0.0 0.0 l -37.76947 27.809998 l 0.26843262 -0.114868164 l 23.043457 -14.395386 l 0.23291016 -0.15490723 l 53.996033 -307.02014 l 0.0004272461 -85.15271 l 0.0 -3.0527954 l -0.0036621094 174.91211 l 0.0 0.07128906 l -0.1743164 48.44995 l 0.0 0.0 l -1.1135864 30.23877 l 0.0 0.0 l -92.90387 327.84412 l -5.5393066 0.1998291 l 0.0 0.0 l -50.56012 -7.1589966 l -0.7109375 -0.13549805 l -39.74579 -10.953125 l -17.357666 -6.303772 l 208.10931 -756.9576 l 0.0 -85.15413 l 0.0 -3.052826 l 0.0 171.4737 l 0.0 41.095642 l 222.61743 348.3059 l 2.2677612 -33.60138 l -6.850647 71.26666 l -5.836731 33.029785 l -7.5043945 30.82611 l -29.828247 73.71509 l 8.27948 -15.860779 l -68.112976 84.53821 l -14.986267 10.416321 l 50.24182 -42.521606 l 0.0 0.0 l 3.1618042 -3.9042969 l -169.10156 92.59082 l 1.185669 -0.20544434 l 29.964722 -7.531189 l 36.88037 -13.16095 l 16.676819 -7.621216 l 126.84216 -141.68274 l 29.233398 -280.96545 l -0.020141602 54.49774 l -0.10949707 -250.04202 l -0.00012207031 -42.56949 l -0.0007324219 127.57028 l -6.1035156e-05 42.582428 " /> </g> </svg>