<?xml version="1.0" standalone="no"?><!DOCTYPE svg PUBLIC "-//W3C//DTD SVG 1.1//EN" "http://www.w3.org/Graphics/SVG/1.1/DTD/svg11.dtd" ><svg xmlns="http://www.w3.org/2000/svg" xmlns:xlink="http://www.w3.org/1999/xlink" version="1.1" viewBox="-10 0 692 1000"><g transform="matrix(1 0 0 -1 0 800)"><path stroke="black" fill="none" d="M 1084.0 23.0 l 0.0 0.0 l -0.045043945 -13.635 l -0.13500977 -13.305 l -0.22497559 -12.975 l -0.3149414 -12.645 l -0.4050293 -12.314999 l -0.49499512 -11.985001 l -0.58496094 -11.654999 l -0.6750488 -11.324997 l -0.76501465 -10.995003 l 0.0 0.0 l -0.9349365 -10.375 l -1.0050049 -10.125 l -1.0750732 -9.875 l -1.1450195 -9.625 l -1.2149658 -9.375008 l -1.2850342 -9.125 l -1.3549805 -8.875 l -1.4249268 -8.625 l -1.4949951 -8.375 l 0.0 0.0 l -5.26001 -21.689987 l -6.1800537 -21.070007 l -7.0999756 -20.449997 l -8.02002 -19.830002 l -8.939941 -19.209991 l -9.859985 -18.589996 l -10.780029 -17.970001 l -11.700012 -17.350006 l -12.619995 -16.730011 l 0.0 0.0 l -27.390015 -28.880005 l -29.369995 -25.839996 l -31.350037 -22.799988 l -33.329956 -19.76001 l -35.309998 -16.720001 l -37.29004 -13.679993 l -39.26996 -10.639984 l -41.25 -7.600006 l -43.23004 -4.5599976 l 0.0 0.0 l -38.309998 1.0499878 l -36.929993 3.149994 l -35.549988 5.25 l -34.169983 7.350006 l -32.79004 9.450012 l -31.409973 11.549988 l -30.03003 13.649994 l -28.649994 15.75 l -27.269989 17.850006 l 0.0 0.0 l -24.899994 22.429993 l -22.700012 24.089996 l -20.5 25.75 l -18.299988 27.410004 l -16.100006 29.070007 l -13.899994 30.729996 l -11.700012 32.39 l -9.5 34.050003 l -7.300003 35.710007 l 22.600006 0.0 l 22.59999 0.0 l 22.600006 0.0 l 22.600006 0.0 l 22.600006 0.0 l 22.600006 0.0 l 22.599976 0.0 l 22.600006 0.0 l 22.600006 0.0 l 22.600006 0.0 l 0.0 0.0 l 2.769989 -14.070007 l 3.1100159 -13.410004 l 3.4499817 -12.75 l 3.7900085 -12.089996 l 4.130005 -11.429993 l 4.470001 -10.770004 l 4.8099976 -10.110001 l 5.149994 -9.449997 l 5.48999 -8.790009 l 0.0 0.0 l 14.640015 -17.289993 l 15.920013 -15.470001 l 17.200012 -13.649994 l 18.47998 -11.830017 l 19.76001 -10.009979 l 21.039978 -8.190002 l 22.320007 -6.369995 l 23.599976 -4.5500183 l 24.880005 -2.730011 l 0.0 0.0 l 46.929993 3.0300293 l 41.99005 9.089996 l 37.049988 15.149994 l 32.109985 21.209991 l 27.169983 27.269989 l 22.230042 33.330017 l 17.289978 39.39 l 12.349976 45.449997 l 7.410034 51.510002 l 0.0 13.599998 l 0.0 13.599998 l 0.0 13.600002 l 0.0 13.600002 l 0.0 13.599998 l 0.0 13.6 l 0.0 13.6 l 0.0 13.6 l 0.0 13.600082 l 11.864746 120.38012 l 0.0 0.0 l -116.59674 -87.38716 l 0.0 0.0 l -70.51672 2.0274124 l 0.0 0.0 l 120.00873 -70.740456 l -28.850037 -20.55 l -29.669983 -17.809998 l -30.48999 -15.07 l -31.309998 -12.329998 l -32.130005 -9.590004 l -32.950012 -6.8499985 l -33.77002 -4.1100006 l 0.0 0.0 l -39.079956 1.4400024 l -37.640015 4.3199997 l -36.200012 7.199997 l -34.75998 10.080002 l -33.320007 12.959999 l -31.880005 15.84 l -30.440002 18.72 l -29.0 21.6 l -27.559998 24.48 l 0.0 0.0 l -24.320007 29.93 l -39.33499 45.465652 l 0.0 0.0 l -111.39017 0.107810974 l 0.0 0.0 l 185.45068 169.42056 l 0.0 0.0 l -106.40552 -80.67403 l -11.520004 37.229996 l -77.85341 41.68106 l 62.49341 37.158936 l 122.15881 98.20798 l 0.0 0.0 l 7.552704 -16.209412 l -132.36151 1.5714417 l -61.44847 46.853058 l 70.96846 33.22693 l 8.330002 38.120026 l 109.49992 -14.319336 l 0.0 0.0 l -177.64502 106.3132 l 185.78183 -11.375488 l 0.0 0.0 l -60.516724 59.061584 l 20.22998 31.720032 l 0.0 0.0 l 54.819366 23.764465 l 0.0 0.0 l -217.97704 189.78174 l 0.0 0.0 l 113.94078 801.35974 l 0.0 0.0 l 85.44287 -458.2782 l 0.0 0.0 l 46.376038 -456.6427 l 0.0 0.0 l 36.67151 167.66888 l 0.0 0.0 l 15.240662 -119.778564 l 0.0 0.0 l 144.97821 17.366943 l 0.0 0.0 l 60.135193 -28.682068 l 0.0 0.0 l -2.1039429 1.4211426 l 53.89264 -158.84521 l 0.0 0.0 l -129.18597 340.18695 l 0.0 0.0 l 130.6258 -621.04755 l 0.0 0.0 l 41.243896 436.22443 l 31.220032 -12.330017 l 29.97998 -15.070007 l 28.73999 -17.809998 l 27.5 -20.549988 l 62.370667 -73.655396 l 0.0 0.0 l -12.528564 60.05011 l -23.581726 12.315186 l -6.1035156e-05 11.000244 l 19.42389 9.705872 l -19.42389 12.293884 l -6.1035156e-05 11.000183 l 14.078247 8.157349 l -14.255188 42.08441 l -16.797302 36.337708 l 0.0 0.0 l -151.38245 108.81134 l 0.0 0.0 l 190.85645 -151.39087 l 22.5 0.0 l 22.5 0.0 l 22.5 0.0 l 22.5 0.0 l 22.5 0.0 l 22.5 0.0 l 22.5 0.0 l 22.5 0.0 l 22.5 0.0 l 0.0 -95.10004 l 0.0 -95.099976 l -169.06549 -59.90692 l 0.0 0.0 l 169.06549 -130.29309 l 0.0 -95.099976 l -184.53137 95.75772 l 0.0 0.0 l 184.53137 -285.95773 l 0.0 -95.09999 l 0.0 -95.1 l 0.0 -95.1 " /> </g> </svg>