<?xml version="1.0" standalone="no"?><!DOCTYPE svg PUBLIC "-//W3C//DTD SVG 1.1//EN" "http://www.w3.org/Graphics/SVG/1.1/DTD/svg11.dtd" ><svg xmlns="http://www.w3.org/2000/svg" xmlns:xlink="http://www.w3.org/1999/xlink" version="1.1" viewBox="-10 0 692 1000"><g transform="matrix(1 0 0 -1 0 800)"><path stroke="black" fill="none" d="M 142.0 1689.0 l 22.5 0.0 l 22.5 0.0 l 22.5 0.0 l 22.5 0.0 l 22.5 0.0 l 22.5 0.0 l 22.5 0.0 l 22.5 0.0 l 22.5 0.0 l 22.5 0.0 l 0.0 -79.599976 l 0.0 -79.599976 l 0.0 -79.6001 l 0.0 -79.599976 l 0.0 -79.599976 l 0.0 -79.599976 l 0.0 -79.599976 l -13.689117 -157.69995 l 11.5156555 -0.08557129 l 0.0 0.0 l -83.56009 -0.014587402 l -0.33044434 0.0 l 86.063995 -95.99304 l 0.0 0.055908203 l 24.25 35.457214 l 24.75 18.359985 l 25.25 16.200012 l 25.75 14.039978 l 26.25 11.880005 l 26.75 9.720032 l 27.25 7.5599976 l 27.75 5.3999634 l 28.25 3.2400513 l 0.0 0.0 l 32.340027 -1.0700073 l 31.019958 -3.210022 l 29.700012 -5.3499756 l 28.380005 -7.4900513 l 27.059998 -9.629944 l 25.73999 -11.77002 l 24.419983 -13.910034 l 23.100037 -16.049988 l 21.779968 -18.190002 l 0.0 0.0 l 15.960022 -19.70996 l 14.280029 -21.929993 l 12.599976 -24.150024 l 10.919983 -26.369995 l 9.23999 -28.590027 l 7.5599976 -30.809998 l 5.880005 -33.02997 l 4.200012 -35.25 l 2.5200195 -37.47003 l 0.0 -59.700012 l 0.0 -59.69995 l 0.0 -59.700012 l 0.0 -59.700012 l 0.0 -59.700012 l 0.0 -59.69998 l 0.0 -59.700012 l 0.0 -59.699997 l 0.0 -59.699997 l 0.0 -59.700005 l -22.5 0.0 l -22.5 0.0 l -22.5 0.0 l -22.5 0.0 l -22.5 0.0 l -22.5 0.0 l -22.5 0.0 l -22.5 0.0 l -22.5 0.0 l -22.5 0.0 l 0.0 57.6 l 0.0 57.600006 l 0.0 57.59999 l 0.0 57.59999 l 0.0 57.600006 l 0.0 57.600006 l 0.0 57.600006 l 0.0 57.599976 l 0.0 57.600037 l 0.0 57.599976 l 0.0 0.0 l -0.41503906 22.755005 l -1.2449951 21.464966 l -2.0749512 20.175049 l -2.9050293 18.884949 l -3.7349854 17.595032 l -4.5650024 16.304993 l -5.3950195 15.015015 l -6.2249756 13.724976 l -7.0549927 12.434998 l 0.0 0.0 l -8.804993 9.975037 l -9.815002 8.924988 l -10.825012 7.875 l -11.835022 6.825012 l -12.844971 5.7749634 l -13.8550415 4.7250366 l -14.86499 3.6749878 l -15.875 2.625 l -16.88501 1.5750122 l 0.0 0.0 l -22.899963 -0.7300415 l -21.5 -2.1900024 l -20.100006 -3.6499634 l -18.700012 -5.1100464 l -17.299988 -6.5699463 l -15.899994 -8.030029 l -14.5 -9.48999 l -13.100006 -10.950012 l -11.700012 -12.409973 l 0.0 0.0 l -30.962555 -7.7052 l 14.042572 -26.134827 l -7.0500183 -20.099976 l -6.1099854 -22.220032 l -3.1404724 -27.850586 l -6.259552 -22.949402 l -3.289978 -28.580017 l 8.70282 -44.87024 l -12.46283 -18.64972 l 0.0 -47.100037 l 12.341888 -34.191284 l -12.341888 -60.008698 l 12.341888 -37.11682 l -12.341888 -57.08316 l 12.341888 -40.042297 l -12.341888 -54.157715 l 12.341888 -42.967773 l -12.341888 -51.232224 l -1.9215393 -143.17851 l 0.0 0.0 l -60.070923 -0.00149646 l 0.0 0.0 l 72.404144 97.28675 l -55.411682 -1.2067413 l -22.5 0.0 l -22.5 0.0 l -22.5 0.0 l -24.494598 -96.07427 l 0.0 0.0 l -53.129623 0.010589491 l 0.0 0.0 l 32.62422 96.06368 l -22.5 0.0 l -30.72792 1.2067413 l -14.272079 -1.2067413 l 13.382675 125.19619 l 0.017684937 -4.075226 l -0.018218994 198.76967 l 0.018218994 -4.160858 l -0.01876831 198.85483 l 0.01876831 -4.2459717 l -0.23956299 192.76459 l 0.0 0.0 l 103.54463 174.77148 l 0.0 0.0 l -81.523605 0.010803223 l 0.0 0.0 l -35.181824 135.51447 l 0.0 168.90002 l 0.0 168.8999 l 0.0 168.90002 l 0.0 168.90002 " /> </g> </svg>