<?xml version="1.0" standalone="no"?><!DOCTYPE svg PUBLIC "-//W3C//DTD SVG 1.1//EN" "http://www.w3.org/Graphics/SVG/1.1/DTD/svg11.dtd" ><svg xmlns="http://www.w3.org/2000/svg" xmlns:xlink="http://www.w3.org/1999/xlink" version="1.1" viewBox="-10 0 692 1000"><g transform="matrix(1 0 0 -1 0 800)"><path stroke="black" fill="none" d="M 322.01068 974.0 l 22.48413 0.0 l 22.505188 0.0 l 0.0 0.0 l 0.0 0.0 l 0.0 0.0 l -67.50101 0.0 l -22.498352 0.0 l 89.99936 -97.39996 l 0.00012207031 -97.400085 l -0.00012207031 -97.39996 l -6.1035156e-05 -97.3999 l 0.0 -97.40015 l 0.0 -97.400024 l 0.0 -97.39996 l 0.0 -97.39998 l -45.010376 -194.79999 l -22.483368 -2.0463631e-10 l 45.029358 6.493792e-10 l 22.450226 -2.1191227e-10 l -112.49626 -8.8220986e-10 l -22.483536 -6.366463e-12 l 44.98944 1.4006218e-10 l 90.004395 97.399994 l -179.99718 -97.399994 l 22.494568 4.512276e-08 l -67.494 1.8733863e-07 l 22.494858 -1.0494023e-07 l -22.498016 97.399994 l -4.5776367e-05 194.79616 l 0.0 -97.39493 l 0.0 292.19495 l 0.0 -97.39496 l 0.0 292.19495 l 0.0 -97.3949 l 0.0 292.18597 l 0.0 -97.38318 l 90.0031 194.79596 l 22.494644 0.0 l -67.48758 0.0 l 22.480164 0.0 l -67.47954 0.0 l 22.484314 0.0 " /> </g> </svg>