<?xml version="1.0" standalone="no"?><!DOCTYPE svg PUBLIC "-//W3C//DTD SVG 1.1//EN" "http://www.w3.org/Graphics/SVG/1.1/DTD/svg11.dtd" ><svg xmlns="http://www.w3.org/2000/svg" xmlns:xlink="http://www.w3.org/1999/xlink" version="1.1" viewBox="-10 0 692 1000"><g transform="matrix(1 0 0 -1 0 800)"><path stroke="black" fill="none" d="M 322.12463 974.0 l 21.86789 0.0 l 22.706573 0.0 l 0.0 0.0 l 0.0 0.0 l 0.0 0.0 l -67.53934 0.0 l -22.43512 0.0 l 89.97446 -97.39697 l 0.0044555664 -97.40466 l -0.004852295 -97.397644 l -0.0018310547 -97.39783 l -0.0002746582 -97.40552 l 0.0 -97.399414 l 0.0 -97.399414 l 0.0 -97.3994 l -45.41339 -194.79916 l -21.837708 -8.128154e-09 l 46.167877 2.582874e-08 l 20.519623 -8.435563e-09 l -112.351395 -3.511832e-08 l -21.844147 -2.419256e-10 l 44.57997 5.5915734e-09 l 90.17502 97.39976 l -179.88863 -97.39976 l 22.284058 1.79584e-06 l -67.26123 7.4558693e-06 l 22.295639 -4.176516e-06 l -22.421524 97.39975 l -0.0019226074 194.64737 l 4.5776367e-05 -97.19862 l -4.5776367e-05 291.9984 l 4.5776367e-05 -97.19885 l -4.5776367e-05 291.99863 l 4.5776367e-05 -97.198975 l -6.1035156e-05 291.6435 l 6.1035156e-05 -96.730286 l 90.12343 194.63904 l 22.286896 6.1035156e-05 l -67.00554 0.0 l 21.710434 0.0 l -66.68555 0.0 l 21.87558 0.0 " /> </g> </svg>