<?xml version="1.0" standalone="no"?><!DOCTYPE svg PUBLIC "-//W3C//DTD SVG 1.1//EN" "http://www.w3.org/Graphics/SVG/1.1/DTD/svg11.dtd" ><svg xmlns="http://www.w3.org/2000/svg" xmlns:xlink="http://www.w3.org/1999/xlink" version="1.1" viewBox="-10 0 692 1000"><g transform="matrix(1 0 0 -1 0 800)"><path stroke="black" fill="none" d="M 322.42554 974.0 l 20.341827 0.0 l 23.2052 -6.1035156e-05 l 0.0 0.0 l 0.0 0.0 l 0.0 0.0 l -67.634155 0.0 l -22.278473 0.0 l 89.91275 -97.38965 l 0.0152282715 -97.415955 l -0.01663208 -97.39197 l -0.006225586 -97.39264 l -0.00088500977 -97.4187 l 0.0 -97.39801 l 0.0 -97.39798 l 0.0 -97.397964 l -46.41147 -194.79715 l -20.238708 -2.7751412e-08 l 48.987366 8.818279e-08 l 15.738495 -2.879824e-08 l -111.992584 -1.1990323e-07 l -20.260773 -8.240022e-10 l 43.56595 1.9088475e-08 l 90.5975 97.39917 l -179.61972 -97.39916 l 21.762726 6.131382e-06 l -66.684814 2.545593e-05 l 21.802277 -1.425952e-05 l -22.232056 97.39915 l -0.0065460205 194.27888 l 0.0001373291 -96.71242 l -0.0001373291 291.51166 l 0.0001373291 -96.713165 l -0.0001373291 291.5124 l 0.0001373291 -96.713806 l -0.00021362305 290.3001 l 0.00021362305 -95.113464 l 90.4214 194.25055 l 21.772446 6.1035156e-05 l -65.811844 6.1035156e-05 l 19.804276 0.0 l -64.7193 0.0 l 20.368134 0.0 " /> </g> </svg>