<?xml version="1.0" standalone="no"?><!DOCTYPE svg PUBLIC "-//W3C//DTD SVG 1.1//EN" "http://www.w3.org/Graphics/SVG/1.1/DTD/svg11.dtd" ><svg xmlns="http://www.w3.org/2000/svg" xmlns:xlink="http://www.w3.org/1999/xlink" version="1.1" viewBox="-10 0 692 1000"><g transform="matrix(1 0 0 -1 0 800)"><path stroke="black" fill="none" d="M 322.0365 974.0 l 22.31485 0.0 l 22.560516 0.0 l 0.0 0.0 l 0.0 0.0 l 0.0 0.0 l -67.511536 0.0 l -22.480988 0.0 l 89.99252 -97.39911 l 0.0013122559 -97.40137 l -0.0014343262 -97.39929 l -0.0005187988 -97.39935 l -9.1552734e-05 -97.40164 l 0.0 -97.39984 l 0.0 -97.39984 l 0.0 -97.39981 l -45.121094 -194.79976 l -22.306 -2.3801476e-09 l 45.34207 7.565177e-09 l 21.919952 -2.471097e-09 l -112.45648 -1.0285476e-08 l -22.307907 -7.094059e-11 l 44.87697 1.6370905e-09 l 90.05127 97.39993 l -179.96738 -97.39993 l 22.436752 5.259899e-07 l -67.43007 2.1837732e-06 l 22.440155 -1.2232731e-06 l -22.47702 97.39993 l -0.0005645752 194.7553 l 1.5258789e-05 -97.34102 l -1.5258789e-05 292.141 l 1.5258789e-05 -97.341125 l -1.5258789e-05 292.14102 l 1.5258789e-05 -97.341064 l -1.5258789e-05 292.03693 l 1.5258789e-05 -97.2038 l 90.03615 194.75287 l 22.437592 0.0 l -67.35518 0.0 l 22.268738 0.0 l -67.26146 0.0 l 22.317123 0.0 " /> </g> </svg>