<?xml version="1.0" standalone="no"?><!DOCTYPE svg PUBLIC "-//W3C//DTD SVG 1.1//EN" "http://www.w3.org/Graphics/SVG/1.1/DTD/svg11.dtd" ><svg xmlns="http://www.w3.org/2000/svg" xmlns:xlink="http://www.w3.org/1999/xlink" version="1.1" viewBox="-10 0 692 1000"><g transform="matrix(1 0 0 -1 0 800)"><path stroke="black" fill="none" d="M 322.01068 974.0 l 22.44577 0.0 l 22.51773 0.0 l 0.0 0.0 l 0.0 0.0 l 0.0 0.0 l -67.50339 0.0 l -22.494415 0.0 l 89.9978 -97.39978 l 0.00039672852 -97.40033 l -0.0004272461 -97.39984 l -0.00015258789 -97.39978 l -3.0517578e-05 -97.40048 l 0.0 -97.399994 l 0.0 -97.39993 l 0.0 -97.39995 l -45.03546 -194.79993 l -22.443176 -6.9758244e-10 l 45.10019 2.215529e-09 l 22.330109 -7.230483e-10 l -112.48726 -3.013156e-09 l -22.44374 -2.0918378e-11 l 44.96396 4.802132e-10 l 90.015015 97.39998 l -179.99043 -97.39998 l 22.481476 1.5405931e-07 l -67.47952 6.3961215e-07 l 22.482468 -3.5828816e-07 l -22.49327 97.39998 l -0.00015258789 194.7869 l 0.0 -97.382706 l 0.0 292.18274 l 0.0 -97.38278 l 0.0 292.1827 l 0.0 -97.38269 l 0.0 292.15222 l 0.0 -97.34253 l 90.01059 194.7862 l 22.48172 0.0 l -67.45758 0.0 l 22.432266 0.0 l -67.430145 0.0 l 22.446442 0.0 " /> </g> </svg>