<?xml version="1.0" standalone="no"?><!DOCTYPE svg PUBLIC "-//W3C//DTD SVG 1.1//EN" "http://www.w3.org/Graphics/SVG/1.1/DTD/svg11.dtd" ><svg xmlns="http://www.w3.org/2000/svg" xmlns:xlink="http://www.w3.org/1999/xlink" version="1.1" viewBox="-10 0 692 1000"><g transform="matrix(1 0 0 -1 0 800)"><path stroke="black" fill="none" d="M 323.45285 974.00006 l 15.131622 -6.1035156e-05 l 24.906708 -0.00018310547 l 0.0 0.0 l 0.0 0.0 l -6.1035156e-05 0.0 l -67.95703 0.0 l -21.743622 0.0 l 89.70209 -97.364685 l 0.051940918 -97.45453 l -0.056732178 -97.3725 l -0.021270752 -97.37488 l -0.0030517578 -97.46384 l 0.0 -97.39313 l 0.0 -97.3931 l 0.0 -97.39311 l -49.81903 -194.79025 l -14.779449 -9.475025e-08 l 58.613678 3.010773e-07 l 0.7661743 -6.2720574e-08 l -112.11894 -4.4497938e-07 l -14.854797 -2.8121576e-09 l 40.103867 6.517166e-08 l 92.04001 97.397156 l -178.70164 -97.39713 l 1.5475006 2.8871214e-05 l 18.435257 -7.937368e-06 l -64.71675 8.691198e-05 l 20.117828 -4.8685048e-05 l -21.58519 97.39707 l -0.022338867 193.0208 l 0.00044250488 -95.05243 l -0.00045776367 289.8498 l 0.00045776367 -95.05493 l -0.00047302246 289.85226 l 0.00047302246 -95.05731 l -0.0007171631 285.71362 l 0.0007171631 -89.593445 l 91.43877 192.92413 l 20.015945 0.00018310547 l -61.736237 0.00012207031 l 13.296204 6.1035156e-05 l -58.006073 0.0 l 15.221329 0.0 " /> </g> </svg>