<?xml version="1.0" standalone="no"?><!DOCTYPE svg PUBLIC "-//W3C//DTD SVG 1.1//EN" "http://www.w3.org/Graphics/SVG/1.1/DTD/svg11.dtd" ><svg xmlns="http://www.w3.org/2000/svg" xmlns:xlink="http://www.w3.org/1999/xlink" version="1.1" viewBox="-10 0 692 1000"><g transform="matrix(1 0 0 -1 0 800)"><path stroke="black" fill="none" d="M 338.9355 974.0008 l 0.0 0.0 l 26.21759 -0.0073242188 l 0.0 0.0 l -0.0029907227 0.0 l -72.654785 -0.0012817383 l -13.683014 0.0 l 86.52725 -96.987976 l 0.6055298 -98.03613 l -0.6613159 -97.07941 l -0.24798584 -97.106995 l -0.03543091 -98.14429 l 0.0 -97.31961 l 0.0 -97.31958 l 0.0 -97.319595 l -57.239746 -194.68642 l 0.0 0.0 l 31.006226 4.995089e-05 l -99.542465 -6.106708e-05 l 0.0 0.0 l 11.430313 4.882777e-07 l 113.780334 97.36684 l -171.90439 -97.36634 l 0.0 0.0 l 0.22673035 1.7281272e-05 l -35.08702 0.0010128666 l 0.4196167 -0.000116557814 l -17.524261 97.36543 l -0.26049805 174.06006 l 0.005218506 -70.03467 l -0.0053710938 264.80377 l 0.0053710938 -70.06354 l -0.0055389404 264.83246 l 0.0055236816 -70.091675 l -0.008422852 216.58954 l 0.008377075 -6.400696 l 106.76982 172.93384 l 0.30630493 0.00018310547 l -60.112488 0.0015869141 l 0.0 0.0 l -26.04097 0.0020141602 l 0.0 0.0 " /> </g> </svg>