<?xml version="1.0" standalone="no"?><!DOCTYPE svg PUBLIC "-//W3C//DTD SVG 1.1//EN" "http://www.w3.org/Graphics/SVG/1.1/DTD/svg11.dtd" ><svg xmlns="http://www.w3.org/2000/svg" xmlns:xlink="http://www.w3.org/1999/xlink" version="1.1" viewBox="-10 0 692 1000"><g transform="matrix(1 0 0 -1 0 800)"><path stroke="black" fill="none" d="M 142.0 1689.0 l 22.5 0.0 l 22.5 0.0 l 22.5 0.0 l 22.5 0.0 l 22.5 0.0 l 22.5 0.0 l 22.5 0.0 l 22.5 0.0 l 22.5 0.0 l 22.5 0.0 l 0.0 -79.599976 l 0.0 -79.599976 l 0.0 -79.6001 l 0.0 -79.599976 l 0.0 -79.599976 l 0.0 -79.599976 l 0.0 -79.599976 l -1.3648682 -155.8352 l 0.0 0.0 l -96.98151 -1.9656982 l 0.0 0.0 l 98.346375 -92.5957 l 0.0 0.01159668 l 24.25 32.10498 l 24.75 18.359985 l 25.25 16.200012 l 25.75 14.039978 l 26.25 11.880005 l 26.75 9.720032 l 27.25 7.5599976 l 27.75 5.3999634 l 28.25 3.2400513 l 0.0 0.0 l 32.340027 -1.0700073 l 31.019958 -3.210022 l 29.700012 -5.3499756 l 28.380005 -7.4900513 l 27.059998 -9.629944 l 25.73999 -11.77002 l 24.419983 -13.910034 l 23.100037 -16.049988 l 21.779968 -18.190002 l 0.0 0.0 l 15.960022 -19.70996 l 14.280029 -21.929993 l 12.599976 -24.150024 l 10.919983 -26.369995 l 9.23999 -28.590027 l 7.5599976 -30.809998 l 5.880005 -33.02997 l 4.200012 -35.25 l 2.5200195 -37.47003 l 0.0 -59.700012 l 0.0 -59.69995 l 0.0 -59.700012 l 0.0 -59.700012 l 0.0 -59.700012 l 0.0 -59.69998 l 0.0 -59.700012 l 0.0 -59.699997 l 0.0 -59.699997 l 0.0 -59.700005 l -22.5 0.0 l -22.5 0.0 l -22.5 0.0 l -22.5 0.0 l -22.5 0.0 l -22.5 0.0 l -22.5 0.0 l -22.5 0.0 l -22.5 0.0 l -22.5 0.0 l 0.0 57.6 l 0.0 57.600006 l 0.0 57.59999 l 0.0 57.59999 l 0.0 57.600006 l 0.0 57.600006 l 0.0 57.600006 l 0.0 57.599976 l 0.0 57.600037 l 0.0 57.599976 l 0.0 0.0 l -0.41503906 22.755005 l -1.2449951 21.464966 l -2.0749512 20.175049 l -2.9050293 18.884949 l -3.7349854 17.595032 l -4.5650024 16.304993 l -5.3950195 15.015015 l -6.2249756 13.724976 l -7.0549927 12.434998 l 0.0 0.0 l -8.804993 9.975037 l -9.815002 8.924988 l -10.825012 7.875 l -11.835022 6.825012 l -12.844971 5.7749634 l -13.8550415 4.7250366 l -14.86499 3.6749878 l -15.875 2.625 l -16.88501 1.5750122 l 0.0 0.0 l -22.899963 -0.7300415 l -21.5 -2.1900024 l -20.100006 -3.6499634 l -18.700012 -5.1100464 l -17.299988 -6.5699463 l -15.899994 -8.030029 l -14.5 -9.48999 l -13.100006 -10.950012 l -11.700012 -12.409973 l 0.0 0.0 l -25.971283 -9.552612 l 9.0513 -24.287415 l -7.0500183 -20.099976 l -6.1099854 -22.220032 l -3.6002502 -27.055298 l -5.799774 -23.74469 l -3.289978 -28.580017 l 6.1989136 -41.660095 l -9.958923 -21.859863 l 0.0 -47.100037 l 9.545929 -37.11563 l -9.545929 -57.08435 l 9.545929 -39.378418 l -9.545929 -54.821564 l 9.545929 -41.641174 l -9.545929 -52.558838 l 9.545929 -43.903885 l -9.545929 -50.296112 l -104.04379 -143.16226 l 0.0 0.0 l 106.99963 96.99562 l -47.95584 -0.93336487 l -22.5 0.0 l -22.5 0.0 l -22.5 0.0 l -72.008026 -95.37294 l 0.0 0.0 l 27.008026 95.37294 l -22.5 0.0 l -28.863968 0.93336487 l -16.136032 -0.93336487 l 12.341888 124.91268 l 0.0 0.0 l 0.0 192.57811 l 0.0 0.0 l 0.0 192.57819 l 0.0 0.0 l -2.7959442 170.84845 l 20.564117 190.84833 l 0.0 0.0 l -30.110062 141.63422 l 0.0 168.90002 l 0.0 168.8999 l 0.0 168.90002 l 0.0 168.90002 " /> </g> </svg>