<?xml version="1.0" standalone="no"?><!DOCTYPE svg PUBLIC "-//W3C//DTD SVG 1.1//EN" "http://www.w3.org/Graphics/SVG/1.1/DTD/svg11.dtd" ><svg xmlns="http://www.w3.org/2000/svg" xmlns:xlink="http://www.w3.org/1999/xlink" version="1.1" viewBox="-10 0 692 1000"><g transform="matrix(1 0 0 -1 0 800)"><path stroke="black" fill="none" d="M 326.9603 974.00024 l 0.5769348 -6.1035156e-05 l 27.471588 -0.00061035156 l 0.0 0.0 l -0.00018310547 0.0 l -0.00076293945 0.0 l -69.04834 -0.00012207031 l -19.917572 0.0 l 88.98285 -97.27936 l 0.17736816 -97.5863 l -0.19369507 -97.30609 l -0.072631836 -97.31415 l -0.010406494 -97.61801 l 0.0 -97.376465 l 0.0 -97.376465 l 0.0 -97.376434 l -61.453247 -194.76674 l -0.44128418 -7.3425326e-08 l 55.054413 4.280644e-06 l 0.0 0.0 l -122.17639 -5.2361693e-06 l -0.46733093 -2.4219844e-09 l 32.353165 2.1532924e-07 l 96.96512 97.39029 l -175.56718 -97.39021 l 0.27053833 4.8595684e-06 l 13.63504 6.661305e-05 l -57.997375 0.00029673608 l 14.3667755 -0.00016622114 l -19.376633 97.39001 l -0.076309204 188.72542 l 0.0015411377 -89.38489 l -0.0015869141 284.17584 l 0.0015869141 -89.39334 l -0.0016326904 284.1842 l 0.0016174316 -89.40155 l -0.002456665 270.0542 l 0.0024414062 -70.746826 l 94.91226 188.39545 l 14.018921 0.0005493164 l -47.950424 0.00048828125 l 0.104400635 0.0 l -43.98471 0.00018310547 l 0.6185303 0.0 " /> </g> </svg>