<?xml version="1.0" standalone="no"?><!DOCTYPE svg PUBLIC "-//W3C//DTD SVG 1.1//EN" "http://www.w3.org/Graphics/SVG/1.1/DTD/svg11.dtd" ><svg xmlns="http://www.w3.org/2000/svg" xmlns:xlink="http://www.w3.org/1999/xlink" version="1.1" viewBox="-10 0 692 1000"><g transform="matrix(1 0 0 -1 0 800)"><path stroke="black" fill="none" d="M 367.0 974.0 l 0.0 0.0 l 0.0 0.0 l 0.0 0.0 l 0.0 -151.51562 l 0.0 -149.0683 l 0.0 -151.51556 l 0.0 -149.06833 l 0.0 -151.5156 l 0.0 -149.0683 l 0.0 -182.11789 l 0.0 -147.4353 l 0.0 0.0 l -14.761688 -272.6893 l 0.0 0.0 l -102.81262 -0.0057373047 l 0.0 0.0 l -80.5925 0.22558594 l 0.0 0.0 l -22.088516 106.35855 l 0.0 0.0 l 1.8454285 367.6958 l -6.590103 -129.15822 l 0.0 -33.929214 l 0.0 291.05573 l 0.0 149.0683 l 0.0 151.5156 l 0.0 149.06833 l 0.0 151.51556 l 0.0 149.0683 l 0.0 151.51562 l 22.5 0.0 l 22.5 0.0 l 22.5 0.0 l 22.5 0.0 l 22.5 0.0 l 22.5 0.0 l 22.5 0.0 l 22.5 0.0 l 22.5 0.0 " /> </g> </svg>