<?xml version="1.0" standalone="no"?><!DOCTYPE svg PUBLIC "-//W3C//DTD SVG 1.1//EN" "http://www.w3.org/Graphics/SVG/1.1/DTD/svg11.dtd" ><svg xmlns="http://www.w3.org/2000/svg" xmlns:xlink="http://www.w3.org/1999/xlink" version="1.1" viewBox="-10 0 692 1000"><g transform="matrix(1 0 0 -1 0 800)"><path stroke="black" fill="none" d="M 367.0 974.0 l 0.0 0.0 l 0.0 0.0 l 0.0 0.0 l 0.0 -150.4082 l 0.0 -150.3902 l 0.0 -150.40814 l 0.0 -150.39026 l 0.0 -150.4082 l 0.0 -150.3902 l 0.0 -150.63342 l 0.0 -298.17493 l 0.0 147.16153 l -85.14133 -299.95795 l 16.329346 0.0 l 22.920471 0.0 l 28.116486 0.0 l 16.190704 0.0 l -157.31406 0.0 l -20.454956 0.0 l 65.4373 0.0 l -20.524155 0.0 l -90.11957 0.0005493164 l 21.888855 -0.00012207031 l -22.29419 150.07712 l 0.013580322 301.2923 l -0.04849243 -150.49338 l 0.0 300.72827 l 0.0 150.3902 l 0.0 150.4082 l 0.0 150.39026 l 0.0 150.40814 l 0.0 150.3902 l 0.0 150.4082 l 22.5 0.0 l 22.5 0.0 l 22.5 0.0 l 22.5 0.0 l 22.5 0.0 l 22.5 0.0 l 22.5 0.0 l 22.5 0.0 l 22.5 0.0 " /> </g> </svg>