<?xml version="1.0" standalone="no"?><!DOCTYPE svg PUBLIC "-//W3C//DTD SVG 1.1//EN" "http://www.w3.org/Graphics/SVG/1.1/DTD/svg11.dtd" ><svg xmlns="http://www.w3.org/2000/svg" xmlns:xlink="http://www.w3.org/1999/xlink" version="1.1" viewBox="-10 0 692 1000"><g transform="matrix(1 0 0 -1 0 800)"><path stroke="black" fill="none" d="M 367.0 974.0 l 0.0 0.0 l 0.0 0.0 l 0.0 0.0 l 0.0 -150.4002 l 0.0 -150.39972 l 0.0 -150.4002 l 0.0 -150.39975 l 0.0 -150.4002 l 0.0 -150.39975 l 0.0 -150.40585 l 0.0 -300.73404 l 0.0 150.31862 l -89.87793 -300.7788 l 22.34497 0.0 l 22.51056 0.0 l 22.641113 0.0 l 22.341461 0.0 l -157.49532 0.0 l -22.448608 0.0 l 67.448166 0.0 l -22.450348 0.0 l -90.003006 0.0 l 22.48465 0.0 l -22.494843 150.39188 l 0.00035095215 300.81238 l -0.0012207031 -150.40234 l 0.0 300.7982 l 0.0 150.39975 l 0.0 150.4002 l 0.0 150.39975 l 0.0 150.4002 l 0.0 150.39972 l 0.0 150.4002 l 22.5 0.0 l 22.5 0.0 l 22.5 0.0 l 22.5 0.0 l 22.5 0.0 l 22.5 0.0 l 22.5 0.0 l 22.5 0.0 l 22.5 0.0 " /> </g> </svg>