<?xml version="1.0" standalone="no"?><!DOCTYPE svg PUBLIC "-//W3C//DTD SVG 1.1//EN" "http://www.w3.org/Graphics/SVG/1.1/DTD/svg11.dtd" ><svg xmlns="http://www.w3.org/2000/svg" xmlns:xlink="http://www.w3.org/1999/xlink" version="1.1" viewBox="-10 0 692 1000"><g transform="matrix(1 0 0 -1 0 800)"><path stroke="black" fill="none" d="M 367.0 974.0 l 0.0 0.0 l 0.0 0.0 l 0.0 0.0 l 0.0 -150.7268 l 0.0 -150.00989 l 0.0 -150.72675 l 0.0 -150.00995 l 0.0 -150.72676 l 0.0 -150.00995 l 0.0 -159.68996 l 0.0 -196.32407 l 0.0 21.511902 l -57.58368 -267.28766 l 0.0 0.0 l 36.0831 0.00024414062 l -147.81654 -0.00030517578 l 0.0 0.0 l 40.886948 0.0 l 0.0 0.0 l -79.048355 0.022460938 l 0.70080566 -0.0030517578 l -16.832596 137.54721 l 0.0063171387 -0.05822754 l 0.53419495 320.45154 l -1.930191 -112.83821 l 0.0 -41.277847 l 0.0 297.94595 l 0.0 150.00995 l 0.0 150.72676 l 0.0 150.00995 l 0.0 150.72675 l 0.0 150.00989 l 0.0 150.7268 l 22.5 0.0 l 22.5 0.0 l 22.5 0.0 l 22.5 0.0 l 22.5 0.0 l 22.5 0.0 l 22.5 0.0 l 22.5 0.0 l 22.5 0.0 " /> </g> </svg>