<?xml version="1.0" standalone="no"?><!DOCTYPE svg PUBLIC "-//W3C//DTD SVG 1.1//EN" "http://www.w3.org/Graphics/SVG/1.1/DTD/svg11.dtd" ><svg xmlns="http://www.w3.org/2000/svg" xmlns:xlink="http://www.w3.org/1999/xlink" version="1.1" viewBox="-10 0 692 1000"><g transform="matrix(1 0 0 -1 0 800)"><path stroke="black" fill="none" d="M 367.0 974.0 l 0.0 0.0 l 0.0 0.0 l 0.0 0.0 l 0.0 -150.42804 l 0.0 -150.36652 l 0.0 -150.42798 l 0.0 -150.36658 l 0.0 -150.42802 l 0.0 -150.36655 l 0.0 -151.19695 l 0.0 -291.83737 l 0.0 139.34315 l -73.41144 -297.9251 l 1.4958801 0.0 l 23.871796 0.0 l 41.675873 0.0 l 1.1594849 0.0 l -157.06596 0.0 l -15.517761 0.0 l 60.457504 0.0 l -15.754044 0.0 l -90.40822 0.001953125 l 20.413422 -0.0005493164 l -21.797318 149.29767 l 0.04637146 302.48083 l -0.16558838 -150.71878 l 0.0 300.55515 l 0.0 150.36655 l 0.0 150.42802 l 0.0 150.36658 l 0.0 150.42798 l 0.0 150.36652 l 0.0 150.42804 l 22.5 0.0 l 22.5 0.0 l 22.5 0.0 l 22.5 0.0 l 22.5 0.0 l 22.5 0.0 l 22.5 0.0 l 22.5 0.0 l 22.5 0.0 " /> </g> </svg>