<?xml version="1.0" standalone="no"?><!DOCTYPE svg PUBLIC "-//W3C//DTD SVG 1.1//EN" "http://www.w3.org/Graphics/SVG/1.1/DTD/svg11.dtd" ><svg xmlns="http://www.w3.org/2000/svg" xmlns:xlink="http://www.w3.org/1999/xlink" version="1.1" viewBox="-10 0 692 1000"><g transform="matrix(1 0 0 -1 0 800)"><path stroke="black" fill="none" d="M 367.0 974.0 l 0.0 0.0 l 0.0 0.0 l 0.0 -97.400024 l 0.0 -56.8089 l 0.0 -145.85333 l 0.0 -89.53772 l 0.0 -64.67114 l 0.0 -145.85333 l 0.0 -81.67557 l 0.0 -72.53334 l 0.0 -145.85332 l 0.0 -258.69147 l 0.0 -8.839478 l -117.5406 -336.21515 l 0.0 0.0 l -81.43309 9.262634 l 0.0 0.0 l 153.9737 520.67017 l -22.5 6.334267e-08 l -22.5 0.0 l -22.5 0.0 l -22.5 0.0 l -22.5 0.0 l -22.5 0.0 l -22.5 -9.418727e-09 l -22.5 -184.87814 l 0.0 -8.839478 l 0.0 267.53094 l 0.0 145.85332 l 0.0 72.53334 l 0.0 81.67557 l 0.0 145.85333 l 0.0 64.67114 l 0.0 89.53772 l 0.0 145.85333 l 0.0 56.8089 l 0.0 97.400024 l 22.5 0.0 l 22.5 0.0 l 22.5 0.0 l 22.5 0.0 l 22.5 0.0 l 22.5 0.0 l 22.5 0.0 l 22.5 0.0 l 22.5 0.0 l 22.5 0.0 " /> </g> </svg>