<?xml version="1.0" standalone="no"?><!DOCTYPE svg PUBLIC "-//W3C//DTD SVG 1.1//EN" "http://www.w3.org/Graphics/SVG/1.1/DTD/svg11.dtd" ><svg xmlns="http://www.w3.org/2000/svg" xmlns:xlink="http://www.w3.org/1999/xlink" version="1.1" viewBox="-10 0 692 1000"><g transform="matrix(1 0 0 -1 0 800)"><path stroke="black" fill="none" d="M 367.0 974.0 l 0.0 0.0 l 0.0 -97.400024 l 0.0 -66.004456 l 0.0 -134.87665 l 0.0 -91.31885 l 0.0 -72.08557 l 0.0 -134.87668 l 0.0 -85.23779 l 0.0 -78.16666 l 0.0 -134.87665 l 0.0 -257.54553 l 0.0 0.0 l -118.34587 -351.6051 l 0.0 0.0 l 73.34587 529.99396 l -22.5 6.334267e-08 l -22.5 0.0 l -22.5 0.0 l -22.5 0.0 l -22.5 0.0 l -22.5 0.0 l -22.5 -9.418727e-09 l -22.5 -178.38884 l 0.0 0.0 l 0.0 257.54553 l 0.0 134.87665 l 0.0 78.16666 l 0.0 85.23779 l 0.0 134.87668 l 0.0 72.08557 l 0.0 91.31885 l 0.0 134.87665 l 0.0 66.004456 l 0.0 97.400024 l 22.5 0.0 l 22.5 0.0 l 22.5 0.0 l 22.5 0.0 l 22.5 0.0 l 22.5 0.0 l 22.5 0.0 l 22.5 0.0 l 22.5 0.0 l 22.5 0.0 " /> </g> </svg>