<?xml version="1.0" standalone="no"?><!DOCTYPE svg PUBLIC "-//W3C//DTD SVG 1.1//EN" "http://www.w3.org/Graphics/SVG/1.1/DTD/svg11.dtd" ><svg xmlns="http://www.w3.org/2000/svg" xmlns:xlink="http://www.w3.org/1999/xlink" version="1.1" viewBox="-10 0 692 1000"><g transform="matrix(1 0 0 -1 0 800)"><path stroke="black" fill="none" d="M 367.0 974.0 l 0.0 0.0 l 0.0 0.0 l 0.0 0.0 l 0.0 -150.4007 l 0.0 -150.39917 l 0.0 -150.40063 l 0.0 -150.3992 l 0.0 -150.4007 l 0.0 -150.39915 l 0.0 -150.42001 l 0.0 -300.57477 l 0.0 150.12216 l -89.58319 -300.72775 l 21.970642 0.0 l 22.536072 0.0 l 22.981812 0.0 l 21.95874 0.0 l -157.48404 0.0 l -22.324554 0.0 l 67.323044 0.0 l -22.330505 0.0 l -90.010254 6.1035156e-05 l 22.44757 0.0 l -22.482346 150.37225 l 0.0011749268 300.84222 l -0.0041656494 -150.408 l 0.0 300.79382 l 0.0 150.39915 l 0.0 150.4007 l 0.0 150.3992 l 0.0 150.40063 l 0.0 150.39917 l 0.0 150.4007 l 22.5 0.0 l 22.5 0.0 l 22.5 0.0 l 22.5 0.0 l 22.5 0.0 l 22.5 0.0 l 22.5 0.0 l 22.5 0.0 l 22.5 0.0 " /> </g> </svg>