<?xml version="1.0" standalone="no"?><!DOCTYPE svg PUBLIC "-//W3C//DTD SVG 1.1//EN" "http://www.w3.org/Graphics/SVG/1.1/DTD/svg11.dtd" ><svg xmlns="http://www.w3.org/2000/svg" xmlns:xlink="http://www.w3.org/1999/xlink" version="1.1" viewBox="-10 0 692 1000"><g transform="matrix(1 0 0 -1 0 800)"><path stroke="black" fill="none" d="M 367.0 974.0 l 0.0 0.0 l 0.0 0.0 l 0.0 0.0 l 0.0 -150.49573 l 0.0 -150.2857 l 0.0 -150.49567 l 0.0 -150.2858 l 0.0 -150.4957 l 0.0 -150.28577 l 0.0 -153.12096 l 0.0 -270.1997 l 0.0 112.649536 l -64.82562 -290.98447 l 0.0 0.0 l 9.433563 0.0 l 48.887695 0.0 l 0.0 0.0 l -167.29636 0.0 l -0.62861633 0.0 l 45.422897 0.0 l -0.77770996 0.0 l -90.08392 0.006591797 l 15.375992 -0.0017089844 l -20.100891 146.63629 l 0.12942505 -1.1950989 l 0.028884888 307.73386 l -0.56533813 -151.4884 l 0.0 299.96405 l 0.0 150.28577 l 0.0 150.4957 l 0.0 150.2858 l 0.0 150.49567 l 0.0 150.2857 l 0.0 150.49573 l 22.5 0.0 l 22.5 0.0 l 22.5 0.0 l 22.5 0.0 l 22.5 0.0 l 22.5 0.0 l 22.5 0.0 l 22.5 0.0 l 22.5 0.0 " /> </g> </svg>