<?xml version="1.0" standalone="no"?><!DOCTYPE svg PUBLIC "-//W3C//DTD SVG 1.1//EN" "http://www.w3.org/Graphics/SVG/1.1/DTD/svg11.dtd" ><svg xmlns="http://www.w3.org/2000/svg" xmlns:xlink="http://www.w3.org/1999/xlink" version="1.1" viewBox="-10 0 692 1000"><g transform="matrix(1 0 0 -1 0 800)"><path stroke="black" fill="none" d="M 367.0 974.0 l 0.0 0.0 l 0.0 0.0 l 0.0 0.0 l 0.0 -150.4024 l 0.0 -150.3971 l 0.0 -150.4024 l 0.0 -150.39716 l 0.0 -150.40239 l 0.0 -150.39713 l 0.0 -150.46835 l 0.0 -300.03113 l 0.0 149.45146 l -88.576935 -300.55334 l 20.692657 0.0 l 22.623169 0.0 l 24.14502 0.0 l 20.652039 0.0 l -157.44553 0.0 l -21.901016 0.0 l 66.89584 0.0 l -21.92128 0.0 l -90.03502 0.00018310547 l 22.321 -6.1035156e-05 l -22.439728 150.30542 l 0.003982544 300.94418 l -0.014205933 -150.42734 l 0.0 300.779 l 0.0 150.39713 l 0.0 150.40239 l 0.0 150.39716 l 0.0 150.4024 l 0.0 150.3971 l 0.0 150.4024 l 22.5 0.0 l 22.5 0.0 l 22.5 0.0 l 22.5 0.0 l 22.5 0.0 l 22.5 0.0 l 22.5 0.0 l 22.5 0.0 l 22.5 0.0 " /> </g> </svg>