<?xml version="1.0" standalone="no"?><!DOCTYPE svg PUBLIC "-//W3C//DTD SVG 1.1//EN" "http://www.w3.org/Graphics/SVG/1.1/DTD/svg11.dtd" ><svg xmlns="http://www.w3.org/2000/svg" xmlns:xlink="http://www.w3.org/1999/xlink" version="1.1" viewBox="-10 0 692 1000"><g transform="matrix(1 0 0 -1 0 800)"><path stroke="black" fill="none" d="M 349.92422 1688.6592 l 0.0 0.0 l -118.63095 44.49402 l 0.0 0.0 l 641.92615 -715.21326 l 0.0 0.0 l -86.459656 -173.06006 l 0.0 0.0 l -229.08942 61.70465 l 0.0 0.0 l 178.52142 107.51886 l 0.0 0.0 l -268.6006 -669.77124 l 0.0 0.0 l -89.50375 98.657135 l 0.0 0.0 l 185.59433 178.16791 l 0.0 0.0 l 96.103455 88.76788 l 0.0 0.0 l 50.033875 -301.04077 l 0.0 0.0 l 136.97632 -170.4065 l 0.0 0.0 l -65.10443 -194.30771 l 0.0 0.0 l 136.18933 91.59427 l 0.0 0.0 l -297.05322 23.58886 l 0.0 0.0 l -88.61786 113.09206 l 0.0 0.0 l -179.26025 -457.49194 l 0.0 -150.4 l 0.0 -150.4 l -22.5 0.0 l -22.5 0.0 l -22.5 0.0 l -22.5 0.0 l -22.5 0.0 l -22.5 0.0 l -22.5 0.0 l -22.5 0.0 l -22.5 0.0 l -22.5 0.0 l 0.0 150.4 l 0.0 150.4 l 174.99011 229.19518 l 0.0 0.0 l -123.38501 0.0012613684 l 0.0 0.0 l 172.94656 243.59192 l 0.0 0.0 l 0.40374756 -189.52849 l 0.0 0.0 l -224.95538 119.39531 l 0.0 167.31296 l 0.0 167.31293 l 0.0 167.31299 l 0.0 167.31293 l 0.0 553.7754 l 0.0 -15.933594 l 1.930191 -251.09851 l 43.06978 -155.45032 l 22.5 0.0 l 22.5 0.0 l 22.5 0.0 l 22.5 0.0 l 88.303986 -72.43323 l 0.0 0.0 l 23.961365 -194.5907 l 0.0 0.0 l 42.234924 24.133728 l 0.0 0.0 l -64.51428 478.46893 l 0.0 0.0 l 0.009429932 120.79187 l 523.5523 -445.81537 l 1.7463989 1.2398682 " /> </g> </svg>