<?xml version="1.0" standalone="no"?><!DOCTYPE svg PUBLIC "-//W3C//DTD SVG 1.1//EN" "http://www.w3.org/Graphics/SVG/1.1/DTD/svg11.dtd" ><svg xmlns="http://www.w3.org/2000/svg" xmlns:xlink="http://www.w3.org/1999/xlink" version="1.1" viewBox="-10 0 692 1000"><g transform="matrix(1 0 0 -1 0 800)"><path stroke="black" fill="none" d="M 360.0199 1688.9999 l 0.0 0.0 l -73.77307 0.006225586 l 0.0 0.0 l 80.63458 -172.40869 l 0.039764404 -8.970581 l -127.57158 181.38 l 0.0 0.0 l 0.4063568 0.0 l -58.307343 0.0 l -19.426132 0.0 l 0.0 0.0 l 696.70123 -715.0659 l 1.3022461 0.012817383 l 46.791504 -2.2978516 l 0.0 0.0 l 48.25482 -6.3098755 l 0.0 0.0 l -171.59259 -187.01941 l 30.284119 29.257507 l -232.83887 63.96576 l 1.821106 1.8096313 l 60.638184 60.255615 l 1.158081 1.1508179 l 62.625183 39.227966 l 1.2175903 0.0021362305 l 69.96991 0.010681152 l 0.0 0.0 l 12.519348 -0.00048828125 l -316.72015 -654.0744 l 22.835815 -29.106262 l -80.34515 81.42224 l 0.0 0.0 l -49.123383 -23.498688 l 0.0 0.0 l 29.362427 56.10742 l 0.0 0.0 l -17.006317 -17.007416 l 0.0 0.0 l 195.64722 188.37128 l -2.736206 -2.459961 l 34.22815 -43.35388 l 94.35315 168.33429 l -3.1020508 -2.9927368 l -44.84955 -43.5083 l 4.9747925 -205.91003 l 0.020690918 -0.025787354 l 74.98212 -93.31323 l 0.0 0.0 l 66.95569 -83.32602 l 66.79138 -83.121185 l 2.9771118 -3.7049255 l -107.118835 -182.83165 l 0.0 0.0 l -23.798218 -1.557122e-05 l 119.67511 -1.907938e-07 l 0.0 0.0 l -32.79962 -6.7316705e-06 l 155.98071 0.008382937 l 0.0 0.0 l -70.29132 -0.006927569 l 0.0 0.0 l 27.990356 95.80578 l -2.9075317 3.6942444 l -251.84967 -48.39972 l -47.418945 60.52028 l -1.5683594 2.001686 l -47.408997 60.51716 l -47.61615 60.77278 l -1.5574341 1.9878693 l -195.70432 -236.90155 l -14.232574 2.6290327e-06 l 0.0 0.0 l -59.374756 -1.3173267e-06 l 0.0 0.0 l 18.681244 1.4128491e-06 l -74.262314 -8.3412015e-06 l -0.6964874 1.2380697e-06 l -49.59131 5.8436635e-06 l -14.597168 1.5665373e-06 l 0.0 0.0 l 217.37543 217.2291 l 0.0 0.0 l 0.003326416 54.989075 l 6.1035156e-05 -1.61969 l -9.1552734e-05 -130.93959 l 3.0517578e-05 1.1959839 l 0.00030517578 -93.03319 l 0.0 -1.2137566 l -224.99997 122.68284 l 0.0 168.76385 l 0.0 168.76385 l 0.0 168.76389 l 0.0 168.7638 l 0.0 665.1491 l 0.0 -155.77759 l 0.16558838 -175.95154 l 3.6947937 -167.74615 l 221.08618 -63.208313 l 0.010650635 -74.65088 l 54.404358 -158.53345 l 1.4679871 1.3626709 l -55.66461 23.443604 l 0.0 0.0 l 149.28699 69.10095 l 1.0250244 1.0157471 l -53.544403 -53.035034 l -96.933105 337.65247 l 0.00015258789 75.49109 l 0.00030517578 177.72693 l 3.0517578e-05 10.1171875 l 494.79788 -502.3501 l 38.74414 37.417847 " /> </g> </svg>