<?xml version="1.0" standalone="no"?><!DOCTYPE svg PUBLIC "-//W3C//DTD SVG 1.1//EN" "http://www.w3.org/Graphics/SVG/1.1/DTD/svg11.dtd" ><svg xmlns="http://www.w3.org/2000/svg" xmlns:xlink="http://www.w3.org/1999/xlink" version="1.1" viewBox="-10 0 692 1000"><g transform="matrix(1 0 0 -1 0 800)"><path stroke="black" fill="none" d="M 366.99997 1689.0 l 0.0 0.0 l 0.0 0.0 l 0.0 0.0 l -22.618164 -0.00012207031 l -22.34024 0.0 l -22.576813 0.0 l -22.449371 0.0 l 89.98453 -103.0437 l 3.0517578e-05 -102.940674 l -134.99266 205.98438 l 22.483429 0.0 l -45.110092 0.0 l -22.342697 0.0 l -45.001816 0.0 l 22.4514 0.0 l 670.52747 -714.99994 l 30.181213 0.0 l 60.357056 -0.0004272461 l -30.136719 6.1035156e-05 l 90.425964 -0.0064697266 l -29.996521 0.001953125 l -12.125 -40.87085 l -169.21527 -163.61865 l 42.29242 40.8927 l -259.58313 37.61664 l 31.681152 31.481201 l 31.7182 31.518188 l 31.680542 31.48059 l 31.719727 31.505127 l 30.181091 0.0 l 30.252869 0.0 l 30.138489 0.0 l 30.204163 0.0 l -337.38693 -645.2056 l 32.19409 -41.092438 l -64.410095 82.19949 l -68.18793 -32.39435 l 32.478485 69.97168 l 3.4601746 3.4601746 l -10.667633 -10.667603 l 3.4828491 3.4828186 l -7.2253723 -7.2253723 l -3.482727 -3.482727 l -3.6316223 -3.6316223 l -14.394226 -14.394226 l 3.526062 3.526062 l 3.7234802 3.7235107 l 3.4762878 3.4762573 l 227.53516 220.1352 l -42.275085 -40.87567 l 45.392944 -56.49173 l 123.78143 220.06729 l -42.27527 -40.876038 l -42.301575 -40.901672 l 6.1992188 -194.80698 l 45.462402 -56.577667 l 45.312378 -56.39099 l 45.428833 -56.53589 l 45.413513 -56.516815 l 45.37323 -56.46666 l -126.548584 -169.50842 l 29.133728 -8.894858e-10 l -58.369446 2.3119355e-09 l 145.9834 -1.209628e-10 l -29.343628 -6.287337e-09 l -28.999634 -5.638867e-11 l 204.30365 2.02535e-06 l -29.140503 -4.740832e-07 l -29.262268 -1.1777056e-06 l -29.300781 -3.4437835e-07 l -28.998352 -5.9726517e-09 l 71.32904 56.524815 l -45.37317 56.466663 l -233.41162 -71.88516 l -32.209595 41.112263 l -32.180664 41.07527 l -32.209656 41.112297 l -32.209717 41.11241 l -32.180603 41.07527 l -164.81955 -246.59384 l -22.520752 2.1027518e-09 l -22.450073 4.1836756e-11 l -45.049164 -2.8740033e-10 l -22.444702 1.2187229e-10 l 44.972626 -2.582965e-10 l -67.50427 -5.2659743e-09 l -22.48462 1.4933903e-09 l -22.518723 2.9776857e-09 l -22.521072 1.2623786e-09 l -22.449997 2.5465852e-11 l 224.98546 187.55786 l 0.0 37.42392 l 0.0 75.00067 l 0.0 -37.47705 l 0.0 -149.98825 l 0.0 37.476295 l 0.0 -75.0106 l 0.0 -37.476337 l -225.0 131.39374 l 0.0 168.8999 l 0.0 168.8999 l 0.0 168.89996 l 0.0 168.8999 l 0.0 675.5934 l 0.0 -168.89172 l 0.00010681152 -168.90442 l 0.0023345947 -168.89929 l 224.9975 -45.411194 l 0.0 -102.98212 l 31.714355 -174.48993 l 31.680786 31.480896 l -63.39505 -62.855774 l -3.0517578e-05 102.81006 l 126.81427 23.064453 l 31.680267 31.480408 l -63.393402 -62.993347 l -95.101166 317.51276 l 0.0 102.982544 l 0.0 103.04724 l 0.0 102.941284 l 492.10175 -528.6833 l 42.29773 40.897827 " /> </g> </svg>