<?xml version="1.0" standalone="no"?><!DOCTYPE svg PUBLIC "-//W3C//DTD SVG 1.1//EN" "http://www.w3.org/Graphics/SVG/1.1/DTD/svg11.dtd" ><svg xmlns="http://www.w3.org/2000/svg" xmlns:xlink="http://www.w3.org/1999/xlink" version="1.1" viewBox="-10 0 692 1000"><g transform="matrix(1 0 0 -1 0 800)"><path stroke="black" fill="none" d="M 366.9956 1689.0 l 0.0 0.0 l -0.0015258789 0.0 l -0.10671997 -0.00012207031 l -27.045746 0.0 l -16.141907 0.0 l -25.557068 0.0 l -20.484283 0.0 l 89.38483 -104.7439 l 0.0009765625 -100.63733 l -134.70885 205.38123 l 21.840408 0.0 l -49.3815 0.0 l -16.239594 0.0 l -45.071884 0.0 l 20.565704 0.0 l 671.5938 -715.0015 l 29.452393 0.00036621094 l 58.689636 -0.019042969 l -27.680786 0.0032348633 l 83.67468 -0.2565918 l -22.101013 0.07745361 l -13.096436 -39.740112 l -169.80896 -164.34204 l 41.99817 40.607483 l -258.92767 38.26245 l 30.94812 30.752808 l 32.428223 32.223694 l 30.923096 30.727966 l 32.486572 31.703674 l 29.44629 6.1035156e-05 l 32.30243 0.00024414062 l 27.753418 0.0 l 30.365845 0.0 l -336.88037 -645.423 l 31.964722 -40.798645 l -64.80066 82.18042 l -67.72067 -32.17633 l 34.9834 72.213196 l 0.03829956 0.03829956 l -7.0134277 -7.0134277 l 0.095336914 0.095336914 l -9.329346 -9.329346 l -0.09439087 -0.09439087 l -3.716156 -3.716156 l -14.199799 -14.199799 l 0.6856384 0.6856384 l 8.409363 8.409363 l 0.06573486 0.06573486 l 227.61414 220.21716 l -41.305847 -39.93402 l 45.1192 -56.16977 l 123.06012 218.79929 l -41.315063 -39.94745 l -42.364075 -40.965576 l 6.1691895 -195.07916 l 47.88379 -59.591034 l 41.913757 -52.161346 l 46.54712 -57.927643 l 45.9375 -57.168915 l 44.334106 -55.173447 l -124.55182 -169.83499 l 26.560547 -3.5412086e-08 l -57.183533 9.199903e-08 l 145.33862 -4.7939466e-09 l -34.917664 -2.5022655e-07 l -21.224487 -2.2646418e-09 l 200.5647 8.06069e-05 l -26.83191 -1.8868042e-05 l -31.676697 -4.6871464e-05 l -33.211792 -1.3705924e-05 l -21.173523 -2.3771099e-07 l 68.575806 57.487644 l -44.332336 55.173176 l -233.86353 -71.30951 l -32.582397 41.587955 l -31.4292 40.11609 l -32.583313 41.589394 l -32.587402 41.5943 l -31.428772 40.115677 l -165.57773 -246.35474 l -23.326355 8.366442e-08 l -20.51236 1.6807462e-09 l -46.9563 -1.148328e-08 l -20.299698 4.8767106e-09 l 43.91063 -1.0280928e-08 l -67.66991 -2.0958214e-07 l -21.88823 5.9437298e-08 l -23.244629 1.18499884e-07 l -23.338852 5.023503e-08 l -20.509888 1.038643e-09 l 224.42113 189.80286 l 0.0 34.472046 l 3.0517578e-05 75.02704 l 0.0 -36.586365 l 0.0 -149.53317 l 0.0 36.55658 l 0.0 -75.421875 l 0.0 -36.55825 l -225.0 131.15094 l 0.0 168.89659 l 0.0 168.89658 l 0.0 168.8966 l 0.0 168.89655 l 0.0 675.3374 l 0.0 -168.57031 l 0.0041656494 -169.07715 l 0.09283447 -168.87103 l 224.90163 -45.847412 l 0.0002746582 -102.28766 l 32.270477 -174.09882 l 30.93628 30.738586 l -63.203705 -57.258728 l -0.00076293945 95.43884 l 127.36792 25.566406 l 30.914612 30.719421 l -63.137695 -62.734985 l -95.14606 318.00635 l 0.0 102.308716 l 0.0 104.877686 l 0.0 100.66614 l 492.16785 -528.03784 l 42.210632 40.8125 " /> </g> </svg>