<?xml version="1.0" standalone="no"?><!DOCTYPE svg PUBLIC "-//W3C//DTD SVG 1.1//EN" "http://www.w3.org/Graphics/SVG/1.1/DTD/svg11.dtd" ><svg xmlns="http://www.w3.org/2000/svg" xmlns:xlink="http://www.w3.org/1999/xlink" version="1.1" viewBox="-10 0 692 1000"><g transform="matrix(1 0 0 -1 0 800)"><path stroke="black" fill="none" d="M 366.4012 1689.0 l 0.0 0.0 l -29.676758 -0.00012207031 l 0.0 0.0 l -47.21335 0.0 l -0.685791 0.0 l 84.51172 -123.329346 l 0.011657715 -75.45947 l -131.60648 198.78894 l 0.20172119 0.0 l 14.609436 0.0 l -58.99115 0.0 l 0.0 0.0 l -32.444702 0.0 l 0.89819336 0.0 l 682.30457 -715.0192 l 21.485352 0.004272461 l 40.46234 -0.22161865 l -1.2644043 0.03387451 l 53.292297 -7.5531006 l 0.0 0.0 l -2.4959106 -21.910767 l -176.2981 -172.25012 l 38.7807 37.49005 l -251.7619 45.322327 l 22.93512 22.790405 l 40.18933 39.93579 l 22.643188 22.500305 l 40.86908 33.874084 l 21.41388 0.00079345703 l 54.70746 0.0030517578 l 1.7836304 0.0 l 32.0307 -0.00024414062 l -331.343 -647.7992 l 29.457306 -37.587128 l -69.07025 81.9722 l -0.03048706 0.0038452148 l -62.582092 -29.796722 l 0.00079345703 0.018463135 l 29.69989 64.03265 l 0.0 0.0 l -16.98877 -16.9888 l 0.0 0.0 l -10.832214 -10.832245 l 0.0 0.0 l 0.57580566 0.57577515 l 226.9708 219.60638 l -30.710754 -29.639832 l 42.126587 -52.65088 l 115.17517 204.93817 l -30.818848 -29.796936 l -43.04706 -41.664246 l 5.8411865 -198.05405 l 0.25250244 -0.31433105 l 74.10083 -92.21744 l 4.760681 -5.9246826 l 58.772583 -73.14215 l 51.665405 -64.297165 l 32.974487 -41.03653 l -102.72449 -173.4049 l 0.66619873 -1.7763887e-07 l -46.453552 8.372717e-07 l 138.28967 -5.5882992e-08 l -0.019958496 1.7002094e-08 l -47.61914 -2.7405986e-06 l 0.0 0.0 l 175.2511 0.00093940314 l -1.7166138 -0.00021623063 l -57.948486 -0.0005500852 l -25.31366 -0.00013653425 l 0.0 0.0 l 52.190918 68.01279 l -32.954163 41.033386 l -238.8039 -65.01677 l -36.65753 46.788067 l -23.214355 29.630714 l -36.668457 46.80481 l -36.71527 46.862015 l -23.210571 29.625946 l -173.86609 -243.74101 l -32.13266 9.752621e-07 l -0.7484741 1.2114469e-08 l -66.38617 -1.2638338e-07 l -0.4128723 1.2742021e-08 l 35.862976 -7.5731805e-08 l -69.48064 -2.4430828e-06 l -15.368561 6.9285306e-07 l -31.180191 1.3813387e-06 l -32.278214 5.855982e-07 l -0.7425995 7.39783e-09 l 219.69308 214.34404 l 9.1552734e-05 2.2371063 l 0.00021362305 75.28174 l 0.0 -26.849823 l -3.0517578e-05 -144.55841 l 3.0517578e-05 26.502731 l 9.1552734e-05 -79.917725 l 0.0 -26.522194 l -225.0 128.49698 l 0.0 168.86012 l 0.0 168.8601 l 0.0 168.86014 l 0.0 168.8601 l 0.0 672.539 l 0.0 -165.05652 l 0.04849243 -170.96533 l 1.0821838 -168.56207 l 223.85364 -50.615906 l 0.0031433105 -94.69672 l 38.349945 -169.82349 l 22.79773 22.624695 l -61.11203 3.9248657 l -0.008911133 14.861084 l 133.42038 52.91571 l 22.544281 22.401062 l -60.342133 -59.91101 l -95.6369 323.40253 l 3.0517578e-05 94.94275 l 9.1552734e-05 124.887085 l 3.0517578e-05 75.79529 l 492.8902 -520.98236 l 41.258545 39.880127 " /> </g> </svg>