<?xml version="1.0" standalone="no"?><!DOCTYPE svg PUBLIC "-//W3C//DTD SVG 1.1//EN" "http://www.w3.org/Graphics/SVG/1.1/DTD/svg11.dtd" ><svg xmlns="http://www.w3.org/2000/svg" xmlns:xlink="http://www.w3.org/1999/xlink" version="1.1" viewBox="-10 0 692 1000"><g transform="matrix(1 0 0 -1 0 800)"><path stroke="black" fill="none" d="M 366.99997 1689.0 l 0.0 0.0 l 0.0 0.0 l -3.0517578e-05 0.0 l -22.903229 -0.00012207031 l -21.95456 0.0 l -22.762268 0.0 l -22.327057 0.0 l 89.947174 -103.149536 l 9.1552734e-05 -102.79724 l -134.97499 205.94678 l 22.44342 0.0 l -45.375885 0.0 l -21.962936 0.0 l -45.006165 0.0 l 22.33406 0.0 l 670.5938 -715.0 l 30.135864 0.0 l 60.253296 -0.0016479492 l -29.983887 0.00030517578 l 90.00586 -0.022033691 l -29.505249 0.006652832 l -12.185425 -40.800537 l -169.25226 -163.66364 l 42.27417 40.87494 l -259.54236 37.65686 l 31.635498 31.435852 l 31.76239 31.562073 l 31.633423 31.433777 l 31.767456 31.517517 l 30.135376 0.0 l 30.380371 0.0 l 29.990112 0.0 l 30.214172 0.0 l -337.35538 -645.2191 l 32.17981 -41.074158 l -64.43439 82.1983 l -68.158844 -32.3808 l 32.66797 70.144806 l 3.1225586 3.1225586 l -10.348053 -10.348022 l 3.2000732 3.2000427 l -7.2866516 -7.2866516 l -3.1996155 -3.1996155 l -3.7079468 -3.7079468 l -14.380341 -14.380341 l 3.3475342 3.3475342 l 4.021698 4.0217285 l 3.1775513 3.1775208 l 227.6199 220.22018 l -42.21472 -40.81714 l 45.375916 -56.47165 l 123.73651 219.98837 l -42.215515 -40.818237 l -42.30548 -40.90564 l 6.1973877 -194.82394 l 45.613037 -56.765167 l 45.100952 -56.127808 l 45.498352 -56.622467 l 45.446167 -56.557404 l 45.308594 -56.3862 l -126.42438 -169.52873 l 28.973633 -3.0377123e-09 l -58.295654 7.892595e-09 l 145.9433 -4.110916e-10 l -29.69049 -2.1466803e-08 l -28.51587 -1.9372237e-10 l 204.07104 6.91498e-06 l -28.996887 -1.6186232e-06 l -29.412476 -4.020937e-06 l -29.54419 -1.175782e-06 l -28.511414 -2.039269e-08 l 71.157715 56.58473 l -45.30841 56.386173 l -233.4397 -71.84934 l -32.23285 41.141853 l -32.13391 41.015594 l -32.23285 41.141983 l -32.233276 41.142395 l -32.13379 41.015564 l -164.86673 -246.57896 l -22.570892 7.177732e-09 l -22.329498 1.4370016e-10 l -45.167816 -9.840733e-10 l -22.311234 4.1836756e-10 l 44.90654 -8.8220986e-10 l -67.51457 -1.7978891e-08 l -22.447525 5.0986273e-09 l -22.563873 1.0164513e-08 l -22.57196 4.309186e-09 l -22.329285 8.913048e-11 l 224.95035 187.69756 l 0.0 37.24025 l 0.0 75.00232 l 0.0 -37.42163 l 0.0 -149.95996 l 0.0 37.419075 l 0.0 -75.036194 l 0.0 -37.419216 l -225.0 131.37863 l 0.0 168.8997 l 0.0 168.89969 l 0.0 168.89972 l 0.0 168.89972 l 0.0 675.5775 l 0.0 -168.8717 l 0.00035095215 -168.91528 l 0.007965088 -168.89752 l 224.99153 -45.438293 l 3.0517578e-05 -102.9389 l 31.748962 -174.46558 l 31.63446 31.434692 l -63.38315 -62.507507 l -6.1035156e-05 102.35138 l 126.848694 23.220154 l 31.63263 31.433044 l -63.377502 -62.977295 l -95.10394 317.5434 l 0.0 102.940796 l 0.0 103.16101 l 0.0 102.799805 l 492.10583 -528.6432 l 42.29236 40.892517 " /> </g> </svg>