<?xml version="1.0" standalone="no"?><!DOCTYPE svg PUBLIC "-//W3C//DTD SVG 1.1//EN" "http://www.w3.org/Graphics/SVG/1.1/DTD/svg11.dtd" ><svg xmlns="http://www.w3.org/2000/svg" xmlns:xlink="http://www.w3.org/1999/xlink" version="1.1" viewBox="-10 0 692 1000"><g transform="matrix(1 0 0 -1 0 800)"><path stroke="black" fill="none" d="M 366.99963 1689.0 l 0.0 0.0 l -9.1552734e-05 0.0 l -0.00036621094 0.0 l -23.873291 -0.00012207031 l -20.637756 0.0 l -23.395386 0.0 l -21.909607 0.0 l 89.81979 -103.51074 l 0.0002746582 -102.30798 l -134.9147 205.81873 l 22.306808 0.0 l -46.28331 0.0 l -20.666367 0.0 l -45.021057 0.0 l 21.933456 0.0 l 670.8204 -715.00037 l 29.981018 0.00012207031 l 59.899048 -0.0056152344 l -29.462158 0.0009765625 l 88.571655 -0.07513428 l -27.82788 0.022644043 l -12.391846 -40.560303 l -169.37836 -163.81732 l 42.21161 40.814392 l -259.40308 37.794006 l 31.479736 31.281128 l 31.913269 31.711975 l 31.472473 31.273865 l 31.93042 31.559692 l 29.979248 0.0 l 30.815796 6.1035156e-05 l 29.483398 0.0 l 30.248535 0.0 l -337.24777 -645.2653 l 32.131104 -41.01175 l -64.517365 82.194244 l -68.0596 -32.334473 l 33.31491 70.73578 l 1.9699097 1.9699097 l -9.256866 -9.256836 l 2.234558 2.2345276 l -7.495941 -7.495941 l -2.2329102 -2.2329102 l -3.968567 -3.968567 l -14.332947 -14.332947 l 2.7380066 2.7380066 l 5.039917 5.0399475 l 2.1576233 2.1575928 l 227.90936 220.51025 l -42.00885 -40.617065 l 45.31775 -56.40329 l 123.58331 219.71902 l -42.011536 -40.62097 l -42.318726 -40.91925 l 6.190979 -194.88174 l 46.12744 -57.405334 l 44.378906 -55.229248 l 45.735962 -56.91815 l 45.557434 -56.695923 l 45.08783 -56.111465 l -126.00012 -169.59811 l 28.42694 -1.0371878e-08 l -58.0437 2.69456e-08 l 145.80634 -1.4042598e-09 l -30.874695 -7.328981e-08 l -26.864014 -6.6302164e-10 l 203.27667 2.3609216e-05 l -28.506409 -5.5263226e-06 l -29.925415 -1.3728336e-05 l -30.375061 -4.0143723e-06 l -26.849121 -6.962364e-08 l 70.572876 56.789276 l -45.08734 56.11138 l -233.5357 -71.72705 l -32.31201 41.242912 l -31.974243 40.81182 l -32.312317 41.24334 l -32.313477 41.244766 l -31.97406 40.811707 l -165.0278 -246.52817 l -22.742035 2.4503606e-08 l -21.917847 4.9294613e-10 l -45.572968 -3.3633114e-09 l -21.855545 1.4279067e-09 l 44.680923 -3.0104275e-09 l -67.54976 -6.1385435e-08 l -22.320816 1.7407729e-08 l -22.71811 3.4708137e-08 l -22.745682 1.4713805e-08 l -21.917114 3.0377123e-10 l 224.83046 188.17448 l 0.0 36.613144 l 0.0 75.007904 l 0.0 -37.23239 l 0.0 -149.86327 l 0.0 37.22368 l 0.0 -75.123566 l 0.0 -37.22417 l -225.0 131.32704 l 0.0 168.89902 l 0.0 168.89899 l 0.0 168.89902 l 0.0 168.89899 l 0.0 675.52313 l 0.0 -168.80347 l 0.0012207031 -168.9519 l 0.027191162 -168.89154 l 224.97116 -45.531006 l 9.1552734e-05 -102.79138 l 31.867096 -174.38245 l 31.476288 31.276978 l -63.3425 -61.31842 l -0.00021362305 100.7854 l 126.96631 23.751648 l 31.46997 31.271362 l -63.32315 -62.922363 l -95.113495 317.64825 l 0.0 102.79761 l 0.0 103.54993 l 0.0 102.31641 l 492.11987 -528.50604 l 42.273865 40.87439 " /> </g> </svg>