<?xml version="1.0" standalone="no"?><!DOCTYPE svg PUBLIC "-//W3C//DTD SVG 1.1//EN" "http://www.w3.org/Graphics/SVG/1.1/DTD/svg11.dtd" ><svg xmlns="http://www.w3.org/2000/svg" xmlns:xlink="http://www.w3.org/1999/xlink" version="1.1" viewBox="-10 0 692 1000"><g transform="matrix(1 0 0 -1 0 800)"><path stroke="black" fill="none" d="M 359.98734 1688.9929 l 0.0 0.0 l 15.783081 -167.04102 l 0.0 0.0 l -102.73386 167.38171 l 0.0 0.0 l -100.242065 0.0 l 0.0 0.0 l 714.4939 -715.6175 l 0.0 0.0 l 76.16553 -7.8530273 l 0.0 0.0 l -148.34338 -165.91718 l 1.6286011 1.4971924 l -213.52399 82.615845 l 0.0 0.0 l 44.79059 44.508057 l 0.0 0.0 l 80.84601 45.640137 l 0.0 0.0 l 69.09259 0.11779785 l 0.0 0.0 l -297.53217 -675.4928 l 1.0460815 -1.2248535 l -123.39035 52.213745 l 0.0 0.0 l 24.137085 49.352173 l 0.0 0.0 l 182.6 169.62714 l 0.0 0.0 l 28.824097 14.803223 l 81.5896 99.630615 l 0.0 0.0 l -17.802002 -17.551453 l 2.0169678 -232.73215 l 0.0 0.0 l 53.850647 -67.01297 l 102.01019 -126.94997 l 40.16327 -49.982193 l 0.0 0.0 l -121.2077 -188.67134 l 0.0 0.0 l 71.52881 -0.00026855682 l 0.0 0.0 l 67.3219 0.19731788 l 0.0 0.0 l 57.47229 91.69471 l 0.0 0.0 l -274.44843 -16.643997 l -26.92871 34.35681 l 0.0 0.0 l -68.97571 88.052536 l -27.422974 34.99002 l 0.0 0.0 l -217.67459 -232.64758 l 0.0 0.0 l -34.913544 6.66915e-06 l 0.0 0.0 l -84.611786 -5.851753e-05 l 0.0 0.0 l -54.16681 6.779868e-05 l 0.0 0.0 l 215.59009 224.94872 l 0.039215088 41.57289 l 0.0 0.0 l -0.00048828125 -132.68883 l 0.0 0.0 l 0.0034179688 -80.5971 l 0.0 0.0 l -224.9996 116.99856 l 0.0 168.43517 l 0.0 168.43515 l 0.0 168.43518 l 0.0 168.43512 l 0.0 639.9184 l 0.0 -124.09717 l 0.56533813 -192.97534 l 12.614853 -164.9607 l 211.63747 -106.20166 l 0.0362854 -6.210327 l 51.739166 -173.23132 l 0.0 0.0 l -49.669952 19.736877 l 139.51758 63.85846 l 0.0 0.0 l -40.083923 -39.43152 l -101.35864 386.3048 l 0.000579834 9.078613 l 0.0008239746 198.64648 l 0.0 0.0 l 501.31125 -493.37018 l 30.159729 29.01117 " /> </g> </svg>