<?xml version="1.0" standalone="no"?><!DOCTYPE svg PUBLIC "-//W3C//DTD SVG 1.1//EN" "http://www.w3.org/Graphics/SVG/1.1/DTD/svg11.dtd" ><svg xmlns="http://www.w3.org/2000/svg" xmlns:xlink="http://www.w3.org/1999/xlink" version="1.1" viewBox="-10 0 692 1000"><g transform="matrix(1 0 0 -1 0 800)"><path stroke="black" fill="none" d="M 366.94864 1689.0 l 0.0 0.0 l -0.06594849 0.0 l -37.90039 -0.00012207031 l -1.067627 0.0 l -32.661957 0.0 l -15.617981 0.0 l 87.89972 -108.95422 l 0.0034179688 -94.93359 l -134.00604 203.88782 l 1.1697235 0.0 l 19.078262 0.0 l -59.959366 0.0 l -1.2653046 0.0 l -45.105774 0.0 l 15.89592 0.0 l 674.2345 -715.00555 l 27.647583 0.0012817383 l 54.560425 -0.064941406 l -21.598877 0.011047363 l 66.955444 -0.8760376 l -2.550293 0.2644043 l -15.500122 -36.93994 l -171.27899 -166.13354 l 41.269287 39.901245 l -257.30432 39.861816 l 29.132874 28.949036 l 34.1864 33.970764 l 29.047363 28.864075 l 34.38556 32.195374 l 27.626587 0.00018310547 l 37.378113 0.00091552734 l 21.846924 0.0 l 30.766235 -6.1035156e-05 l -335.6259 -645.9613 l 31.396698 -40.071106 l -65.767914 82.13324 l -0.3456421 0.043548584 l -66.217834 -31.679932 l 0.0057678223 0.1326294 l 33.37378 69.82443 l 0.0 0.0 l -3.9414978 -3.9414978 l 0.0 0.0 l -12.067291 -12.067291 l 0.0 0.0 l -1.0640564 -1.0640564 l -15.715881 -15.715912 l 0.0071411133 0.0071411133 l 8.771698 8.7717285 l 0.0 0.0 l 226.3313 218.94171 l -38.90558 -37.60199 l 44.441223 -55.37259 l 121.273865 215.65921 l -38.937256 -37.64801 l -42.5188 -41.12384 l 6.0949097 -195.75308 l 53.880188 -67.05347 l 33.49707 -41.68683 l 49.31671 -61.37436 l 47.235107 -58.783752 l 41.76068 -51.970856 l -119.607056 -170.64372 l 20.188477 -1.2090368e-07 l -54.246826 3.1410582e-07 l 143.74176 -1.6367267e-08 l -0.15356445 1.3087902e-07 l -48.567688 -9.852074e-07 l -1.9838867 -7.716153e-09 l 191.3194 0.00027520914 l -21.114746 -6.4419524e-05 l -37.655823 -0.00016002917 l -42.897278 -4.679495e-05 l -1.8207397 -8.0803966e-07 l 61.782593 59.872025 l -41.7547 51.969936 l -234.98279 -69.88395 l -33.505554 42.76599 l -29.568176 37.740723 l -33.50879 42.770897 l -33.522522 42.78766 l -29.567017 37.73932 l -167.45538 -245.76262 l -25.32135 2.8564682e-07 l -15.713776 5.7389116e-09 l -51.67923 -3.9206498e-08 l -14.987671 1.664921e-08 l 41.28067 -3.509922e-08 l -68.08011 -7.155613e-07 l -20.411255 2.0293191e-07 l -25.042358 4.0458508e-07 l -25.363983 1.7151615e-07 l -15.705338 3.5433914e-09 l 223.02357 195.36244 l 3.0517578e-05 27.161911 l 6.1035156e-05 75.09235 l 0.0 -34.380646 l 0.0 -148.40619 l 0.0 34.278976 l 3.0517578e-05 -76.44037 l 0.0 -34.284676 l -225.0 130.54971 l 0.0 168.88832 l 0.0 168.8883 l 0.0 168.88834 l 0.0 168.8883 l 0.0 674.7034 l 0.0 -167.77429 l 0.014205933 -169.50488 l 0.31695557 -168.80103 l 224.66423 -46.927673 l 0.00091552734 -100.56799 l 33.647736 -173.13031 l 29.09256 28.900513 l -62.72986 -43.398193 l -0.0026245117 77.18469 l 128.73907 31.762146 l 29.018372 28.83496 l -62.504395 -62.095215 l -95.25723 319.22882 l 0.0 100.640015 l 3.0517578e-05 109.410645 l 0.0 95.03186 l 492.33148 -526.4395 l 41.994934 40.601257 " /> </g> </svg>