<?xml version="1.0" standalone="no"?><!DOCTYPE svg PUBLIC "-//W3C//DTD SVG 1.1//EN" "http://www.w3.org/Graphics/SVG/1.1/DTD/svg11.dtd" ><svg xmlns="http://www.w3.org/2000/svg" xmlns:xlink="http://www.w3.org/1999/xlink" version="1.1" viewBox="-10 0 692 1000"><g transform="matrix(1 0 0 -1 0 800)"><path stroke="black" fill="none" d="M 363.97522 1644.5059 l 0.0 0.0 l 540.2263 -831.54675 l 0.0 0.0 l -234.83582 -3.7651367 l 0.0 0.0 l -173.514 -480.46283 l 0.0 0.0 l 207.15543 211.61469 l 0.0 0.0 l 181.5285 -289.2602 l 0.0 0.0 l 153.51239 -203.64738 l 0.0 0.0 l -260.0598 -2.567299 l 0.0 0.0 l -304.0564 -318.2374 l 0.0 -150.4 l 0.0 -150.4 l -22.5 0.0 l -22.5 0.0 l -22.5 0.0 l -22.5 0.0 l -22.5 0.0 l -22.5 0.0 l -22.5 0.0 l -22.5 0.0 l -22.5 0.0 l -22.5 0.0 l 0.0 150.4 l 0.0 150.4 l 47.729736 222.43996 l 0.0 0.0 l 116.34375 6.7732067 l 0.0 0.0 l -164.07347 184.43939 l 0.0 163.48148 l 0.0 163.48148 l 0.0 163.48148 l 0.0 163.48145 l 1.5258789e-05 447.8725 l 0.0 0.0 l 22.49997 -312.25098 l 22.5 0.0 l 22.5 0.0 l 22.5 0.0 l 22.5 0.0 l 22.5 0.0 l 22.5 0.0 l 63.639618 -78.31726 l 0.0 0.0 l 3.6947937 418.09143 l 0.0 0.0 l 530.4269 -397.68658 l 0.0 0.0 " /> </g> </svg>