<?xml version="1.0" standalone="no"?><!DOCTYPE svg PUBLIC "-//W3C//DTD SVG 1.1//EN" "http://www.w3.org/Graphics/SVG/1.1/DTD/svg11.dtd" ><svg xmlns="http://www.w3.org/2000/svg" xmlns:xlink="http://www.w3.org/1999/xlink" version="1.1" viewBox="-10 0 692 1000"><g transform="matrix(1 0 0 -1 0 800)"><path stroke="black" fill="none" d="M 367.0 1689.0 l 0.0 0.0 l 0.0 0.0 l 0.0 -103.0 l 0.0 -69.08264 l 0.0 -163.2467 l 0.0 -76.670654 l 0.0 -95.41199 l 0.0 -110.58801 l 0.0 -61.49469 l 0.0 -163.2467 l 0.0 -84.258606 l 0.0 -87.824036 l 31.700012 16.324036 l 31.699982 31.5 l 31.700012 31.5 l 31.699982 31.5 l 31.700012 31.5 l 31.700012 31.5 l 31.700012 31.5 l 31.699951 31.5 l 31.700012 31.5 l 31.700012 31.5 l 30.200012 0.0 l 30.200012 0.0 l 30.200012 0.0 l 30.199951 0.0 l 30.200012 0.0 l 30.200012 0.0 l 30.200012 0.0 l 30.200012 0.0 l 30.199951 0.0 l 30.200012 0.0 l -42.299988 -40.900024 l -42.299988 -40.899963 l -42.299988 -40.900024 l -42.299988 -40.899963 l -42.30005 -40.900024 l -42.299988 -40.900024 l -42.299988 -40.899963 l -42.299988 -40.900024 l -42.299988 -40.900024 l -42.30005 -40.899963 l 45.400024 -56.5 l 45.400024 -56.5 l 45.399963 -56.5 l 45.400024 -56.5 l 45.399963 -56.5 l 45.400024 -56.500015 l 45.400024 -56.5 l 45.399963 -56.5 l 45.400024 -56.5 l 45.400024 -56.5 l -29.200012 0.0 l -29.200012 0.0 l -29.200012 0.0 l -29.200012 0.0 l -29.199951 0.0 l -29.200012 0.0 l -29.200012 0.0 l -29.200012 0.0 l -29.200012 0.0 l -29.200012 0.0 l -32.19995 41.1 l -32.200012 41.1 l -32.200012 41.1 l -32.200012 41.1 l -32.200012 41.09999 l -32.19995 41.100006 l -32.200012 41.100006 l -32.200012 41.100006 l -32.200012 41.099976 l -32.19998 41.100037 l -3.6008606 -3.5973816 l -3.7242737 -3.155548 l -26.513062 93.31671 l 19.34436 -100.48541 l -3.5066528 -4.0753784 l -3.5995178 -3.6029968 l -3.600006 -3.6000366 l -3.600006 -3.5999756 l -3.5999756 -3.600006 l -3.600006 -3.600006 l -3.0517578e-05 -37.225677 l 3.0517578e-05 -37.774323 l 0.0 -37.5 l 0.0 -37.5 l -3.0517578e-05 -54.504303 l 3.0517578e-05 -20.495697 l 0.0 -37.5 l 0.0 -37.5 l 0.0 -37.5 l -3.0517578e-05 -37.499916 l -22.5 0.0 l -22.5 0.0 l -22.5 0.0 l -22.5 0.0 l -22.5 0.0 l -22.5 0.0 l -22.5 0.0 l -22.5 0.0 l -22.5 0.0 l -22.5 0.0 l 0.0 168.9 l 0.0 168.90001 l 0.0 168.9 l 0.0 168.9 l 0.0 168.89996 l 0.0 168.90002 l 0.0 168.90002 l 0.0 168.8999 l 0.0 168.90002 l 0.0 168.90002 l 22.5 0.0 l 22.5 0.0 l 22.5 0.0 l 22.5 0.0 l 22.5 0.0 l 22.5 0.0 l 22.5 0.0 l 22.5 0.0 l 22.5 0.0 l 22.50003 -0.00012207031 " /> </g> </svg>