<?xml version="1.0" standalone="no"?><!DOCTYPE svg PUBLIC "-//W3C//DTD SVG 1.1//EN" "http://www.w3.org/Graphics/SVG/1.1/DTD/svg11.dtd" ><svg xmlns="http://www.w3.org/2000/svg" xmlns:xlink="http://www.w3.org/1999/xlink" version="1.1" viewBox="-10 0 692 1000"><g transform="matrix(1 0 0 -1 0 800)"><path stroke="black" fill="none" d="M 367.0 1689.0 l 0.0 0.0 l 0.0 0.0 l 0.0 0.0 l 0.0 -168.90063 l 0.0 -168.89893 l 0.0 -168.90051 l 0.0 -168.90063 l 0.0 -168.89899 l 0.0 -168.90051 l 0.00039672852 -168.90143 l -0.00039672852 -168.89832 l 0.0 -168.8997 l 0.0 -168.90028 l -22.5 0.0 l -22.5 0.0 l -22.5 0.0 l -22.5 0.0 l -22.5 0.0 l -22.5 0.0 l -22.5 0.0 l -22.5 0.0 l -22.5 0.0 l -22.5 0.0 l 0.0 168.9 l 0.0 168.9 l 0.0 168.9 l 0.0 168.9 l 0.0 168.89996 l 0.0 168.90002 l 0.0 168.90002 l 0.0 168.8999 l 0.0 168.90002 l 0.0 168.90002 l 22.5 0.0 l 22.5 0.0 l 22.5 0.0 l 22.5 0.0 l 22.5 0.0 l 22.5 0.0 l 22.5 0.0 l 22.5 0.0 l 22.5 0.0 " /> </g> </svg>