<?xml version="1.0" standalone="no"?><!DOCTYPE svg PUBLIC "-//W3C//DTD SVG 1.1//EN" "http://www.w3.org/Graphics/SVG/1.1/DTD/svg11.dtd" ><svg xmlns="http://www.w3.org/2000/svg" xmlns:xlink="http://www.w3.org/1999/xlink" version="1.1" viewBox="-10 0 692 1000"><g transform="matrix(1 0 0 -1 0 800)"><path stroke="black" fill="none" d="M 647.86884 568.1697 l 0.0012817383 5.2821045 l -0.23217773 72.007996 l 0.0 0.0 l -0.8605957 28.446411 l -10.772644 87.9364 l 5.416931 -28.12915 l 6.451111 -326.9251 l 0.0 5.294586 l 0.0 56.03537 l 0.0 -169.68872 l 0.0 3.1625977 l 0.0 -131.22589 l 0.0 -3.9625397 l -34.600647 660.41406 l 9.35144 -19.821045 l -43.49408 62.874634 l -1.0080566 0.9810791 l -52.21643 24.230225 l 0.0 0.0 l -44.727753 -5.0687866 l 0.0 0.0 l -0.48495483 59.375366 l 0.0 0.0 l -8.781677 -3.8912354 l 0.0 0.0 l -18.492218 -11.528198 l 0.0 0.0 l -42.697754 -34.280884 l 0.0 0.0 l 220.98062 64.42285 l 1.4777222 -0.19537354 l 69.97858 -21.111084 l -23.953247 9.408569 l 0.0 0.0 l 489.90833 -328.85938 l 0.0 0.0 l -4.185791 74.68408 l 0.0 0.0 l 4.505615 -159.6258 l 0.0 0.0 l 0.00024414062 -64.97476 l 0.00012207031 -117.42337 l 0.0 -5.339264 l 0.0 -114.96008 l 0.0 0.0 l 0.0 25.17154 l 47.390015 -190.97342 l 0.0 0.0 l -43.601196 40.112144 l 175.09717 -40.557564 l 0.0 0.0 l 43.77368 97.60262 l 0.0 0.0 l 3.3173828 100.38583 l 0.009155273 -6.9745483 l 0.013671875 166.29407 l 0.0 0.0 l -0.00024414062 -28.692505 l -521.5555 193.95096 l -0.0009765625 -36.48871 l 3.7999878 105.23346 l 0.0 0.0 l 1.3441772 10.14801 l 42.976196 133.08698 l 0.0 0.0 l -33.36328 -77.77948 l 0.0 0.0 l 499.95245 -9.081299 l -0.7338867 5.3690186 l 7.5811768 -153.27661 l 0.0 -6.6972046 l -69.960815 318.68097 l -1.9206543 2.9172363 l 42.441162 -79.24396 l -492.1198 -688.77014 l 0.0 0.0 l 0.0 2.6097717 l 6.1035156e-05 119.62416 l 0.0 0.0 l 0.0 248.54773 l 0.0 3.2369385 l 0.0 -142.89941 l 0.0 0.0 l 0.0 -21.36261 l -117.97705 -225.98236 l 1.107666 0.0 l 35.629395 0.0 l 0.0 0.0 l 48.408386 0.0 l -175.90857 7.6293945e-06 l 1.0507202 0.0 l 44.0036 -7.6293945e-06 l 1.0155029 0.0 l 488.5368 873.4415 l 67.41211 -34.05359 l 3.0576172 -1.9745483 l -253.9339 48.25049 l 0.0 0.0 l 98.95001 6.127014 l -189.30035 -41.671448 l 0.0 0.0 l 24.273315 12.690674 l 191.47882 -166.64722 l 0.0 0.0 l -4.746338 7.109741 l 0.0 0.0 l -21.85144 23.929504 l -4.9959717 4.0094604 l 0.0 0.0 l 42.87451 -65.72302 l 0.0009765625 -0.0049438477 l 6.9519043 -30.344543 l 0.10229492 -0.5090332 l -805.99 -327.0731 l 0.0 -3.2783813 l 0.0 126.3165 l 0.0 0.0 l 0.0 -234.00311 l 0.0 0.030731201 l 0.0 36.365112 l 5.274414 378.0742 l 0.0 0.0 l 10.68512 59.129944 l 0.0 0.0 l 2.321289 7.524597 l -18.250702 -168.96252 l -0.006286621 -3.288086 l -0.3515625 -367.69775 l 0.08602905 -46.18416 l -83.55615 -50.914032 l -0.6251831 0.0 l 73.648895 0.0 l 0.0 0.0 l -23.563965 0.0 l -82.967926 0.0 l -14.568375 0.0 l -76.45151 0.0059814453 l 0.86964417 -0.0008544922 l 44.963898 -0.002670288 l -15.197601 -0.00064086914 l -47.30974 96.29501 l 918.52075 616.81604 l 0.0 0.0 l 36.88562 -8.726196 l 0.0 0.0 l -71.24213 7.026367 l 0.0 0.0 l -14.148743 -2.4605103 l -38.73407 -13.797913 l 0.0 0.0 l -18.023926 -12.009766 l 0.0 0.0 l -181.52283 84.3385 l 0.0 0.0 l 105.53302 -2.0442505 l 0.0 0.0 l -440.52444 -40.78412 l 0.0 0.0 l 26.40332 15.334045 l 0.0 0.0 l -70.87576 -6.797058 l 0.0 0.0 l 14.4133 -38.935364 l 0.0 0.0 l 178.36221 133.7406 l 0.0 0.0 l -2.9693604 -0.16113281 l -27.331299 -2.59375 l 0.0 0.0 l -38.6745 -7.845398 l 0.0 0.0 l -376.07138 -155.21753 l -1.5258789e-05 -72.10925 l 0.0 -122.432434 l -1.5258789e-05 -71.06763 l 0.0 -110.25348 l 0.0 -89.488525 l 95.99753 609.8214 l -31.982086 0.0004272461 l -0.7515564 0.0 l -44.7137 -0.57647705 l -1.004776 0.10021973 l -15.013123 -24.552673 l 219.13849 24.435913 l 0.0 0.0 l 0.4986267 -0.051635742 l 15.873169 -12.128357 l 0.0 0.0 l 0.004425049 -37.355774 l 0.0 0.0 l -62.165802 50.128662 l -1.0215149 6.1035156e-05 l -43.22989 0.0 l -0.6695862 0.0 l -130.9571 75.88391 l -0.0007019043 89.596924 " /> </g> </svg>