<?xml version="1.0" standalone="no"?><!DOCTYPE svg PUBLIC "-//W3C//DTD SVG 1.1//EN" "http://www.w3.org/Graphics/SVG/1.1/DTD/svg11.dtd" ><svg xmlns="http://www.w3.org/2000/svg" xmlns:xlink="http://www.w3.org/1999/xlink" version="1.1" viewBox="-10 0 692 1000"><g transform="matrix(1 0 0 -1 0 800)"><path stroke="black" fill="none" d="M 647.86993 557.3586 l 6.1035156e-05 52.580994 l -6.1035156e-05 54.07245 l 0.0 0.0 l 0.0 0.00012207031 l -6.1035156e-05 0.0004272461 l -1.489624 49.057922 l -11.969177 83.31903 l 7.447632 -38.726868 l 6.0113525 -361.70358 l 0.0 52.581238 l 0.0 53.85614 l 0.0 -214.05646 l 0.0 52.527588 l 0.0 -108.19354 l 0.0 -52.54776 l -37.427124 678.72797 l 13.395752 -28.379456 l -30.33905 52.273254 l -19.030457 17.762817 l -24.177979 13.575623 l -23.909851 7.3171997 l 0.0 0.0 l 0.00024414062 -6.1035156e-05 l 0.0025024414 -0.00079345703 l -19.732086 -0.8736572 l -19.629791 -2.7019043 l -11.837891 -2.5579224 l 13.349945 63.54431 l -9.525024 -3.83667 l -19.21225 -10.411377 l 0.010070801 0.006286621 l 1.1304016 0.70684814 l 7.5148926 4.7095947 l -29.842651 -20.575806 l 0.08291626 0.05999756 l 10.140625 7.5753784 l -30.532837 -24.365662 l 7.909729 6.7543335 l -21.447601 -18.852905 l 205.16855 72.73358 l 30.184082 -4.215576 l 84.15076 -30.011414 l -27.939331 13.310913 l -25.906738 9.270569 l 499.00964 -345.06195 l 0.0 0.0 l 0.0 0.0015869141 l -0.0015869141 0.11785889 l -0.54382324 32.125916 l -0.7442627 18.647278 l -1.9171143 27.04065 l -2.178833 20.382202 l 5.3862305 -152.90918 l 0.0 -63.211853 l 0.0 -40.92804 l 0.0 -58.66507 l 0.0 -52.874817 l 0.0 -159.50873 l 0.0 50.110474 l 0.0 54.40152 l 75.56067 -215.77168 l -2.6627197 -0.00022125244 l -45.53723 1.5258789e-05 l 16.662354 -0.00016784668 l -43.816772 9.563118 l -0.08532715 40.890778 l 172.9928 -50.454178 l 2.19812 0.0 l -54.608765 0.0 l -2.2495117 0.0 l 102.92224 0.0 l -16.575806 0.0 l 21.163574 63.534805 l 0.01159668 55.629776 l 0.024169922 120.55975 l 0.00024414062 -58.86264 l 0.00036621094 237.20093 l 0.0 -55.82492 l 0.0 -60.543793 l -521.55994 231.4729 l -6.1035156e-05 -49.95294 l 1.4089966 80.33917 l 1.9562378 24.632019 l 6.062256 44.125122 l -2.803894 -17.112427 l 27.943115 99.23871 l 7.821411 14.225098 l 0.0 0.0 l 0.0625 0.07421875 l 8.843811 10.507996 l -24.721924 -42.975708 l -0.04309082 -0.13250732 l -9.802612 -30.768494 l -0.5941162 -2.142456 l 505.2553 -60.07666 l -9.640503 66.26056 l 9.8125 -128.66437 l 0.0 -58.85559 l -49.86792 300.4206 l -28.914307 42.860474 l 52.38379 -95.34497 l -495.16162 -698.9766 l 0.0 49.10138 l 0.0 53.94542 l 0.0 46.46187 l 0.0 203.0604 l 0.0 49.1174 l 0.0 -103.17706 l 0.0 -46.5571 l 0.0 -50.53766 l -135.15717 -201.82266 l 22.046082 0.0 l 43.92932 0.0 l -20.723328 0.0 l 49.292175 0.0 l 16.504578 0.0 l -201.45801 0.0 l 22.042664 0.0 l 23.153687 0.0 l 22.040222 0.0 l 472.9107 878.6556 l 49.803833 -20.304321 l 41.772095 -27.277832 l -246.18628 58.924316 l -29.84906 -6.6220093 l 66.062195 11.352966 l 0.0 0.0 l 0.048461914 -0.003112793 l 57.37268 -3.6621094 l -237.29218 -64.27942 l 24.399902 17.2771 l 39.6485 21.105896 l -4.659668 -2.050354 l 197.948 -180.6828 l -5.6412354 13.723816 l 0.0 0.0 l -0.00024414062 0.00048828125 l -0.0072021484 0.010681152 l -7.1728516 10.791138 l -10.57959 12.304443 l -6.581299 6.29718 l -21.160522 14.389526 l 10.063843 -5.9091187 l 46.33435 -67.68445 l 4.4836426 -17.666931 l 3.637329 -18.458252 l -806.8756 -288.63965 l 0.0 -49.1185 l 0.0 103.150604 l 0.0 46.461548 l 0.0 -250.39023 l 0.0 49.950623 l 1.3755188 330.9481 l 0.01763916 0.19641113 l 4.0567017 41.581116 l 0.38327026 3.1359253 l 4.9118347 30.246399 l 4.399292 19.842957 l 10.91452 34.828186 l -4.753784 -13.330322 l -21.30423 -146.30292 l -0.00015258789 -49.118713 l -0.008850098 -352.49194 l 0.002166748 -50.19658 l -67.90344 -50.31543 l -21.900452 0.0 l 68.681885 0.0 l 20.611694 0.0 l -44.21573 0.0 l -67.888626 0.0 l -22.300705 0.0 l -89.65958 0.00015258789 l 21.930847 -3.0517578e-05 l 45.02475 -6.1035156e-05 l -22.316513 -1.5258789e-05 l -45.058044 97.37225 l 913.4426 616.50494 l 0.0 0.0 l 0.0007324219 -0.00012207031 l 0.01574707 -0.0018920898 l 14.009644 -1.6934204 l 15.186157 -3.2937012 l 11.704956 -3.7611084 l -75.0741 6.078369 l 15.472656 1.9025269 l -32.39618 -5.493408 l -16.174438 -5.347351 l -12.855774 -5.7615356 l -14.079895 -8.394714 l -10.929565 -8.263245 l -164.53375 78.869385 l -22.082642 17.20398 l 93.93555 -32.318726 l 17.285461 18.050293 l -44.136047 -49.709534 l 0.0 0.0 l -0.0803833 0.0947876 l -19.058044 22.02295 l -368.51968 -5.463928 l -11.142334 -8.356567 l 26.126862 17.132446 l 13.05069 5.8063354 l -91.18793 -24.669128 l 0.0 0.0 l 0.00039672852 2.5584106 l -0.0005187988 20.010986 l -3.0517578e-05 0.38006592 l 22.620087 -1.894104 l -9.008026 -8.913391 l 24.54834 -23.922852 l -7.885437 -9.286133 l 0.0 0.0 l -6.043976 -10.90387 l -1.8354187 -3.3031006 l 187.66235 144.92395 l 0.0 0.0 l -6.1035156e-05 0.0 l -6.1035156e-05 0.0 l -13.844727 -0.7391968 l -38.302185 -5.083313 l 14.249878 2.4403687 l 9.242493 1.239685 l -37.318756 -6.8125 l -10.4039 -2.927185 l -371.66077 -134.9707 l 0.0 -96.76459 l 0.0 -98.02899 l 0.0 -96.73834 l 0.0 -97.72296 l 0.0 -97.2012 l 102.80455 611.7991 l -22.73825 0.0 l -21.918198 0.0 l -23.09349 -0.014465332 l -21.942352 0.0029907227 l -13.04863 -27.377686 l 215.64034 27.37677 l 21.878784 -0.0037841797 l 0.3977356 -17.413757 l -0.00021362305 8.021057 l -0.00012207031 -24.687744 l -6.1035156e-05 5.886902 l -6.1035156e-05 -18.71045 l 0.0 -5.98761 l -45.429657 52.907776 l -21.943176 0.0 l -23.038025 0.0 l -21.907288 0.0 l -125.661804 70.099 l -1.5258789e-05 97.20398 " /> </g> </svg>