<?xml version="1.0" standalone="no"?><!DOCTYPE svg PUBLIC "-//W3C//DTD SVG 1.1//EN" "http://www.w3.org/Graphics/SVG/1.1/DTD/svg11.dtd" ><svg xmlns="http://www.w3.org/2000/svg" xmlns:xlink="http://www.w3.org/1999/xlink" version="1.1" viewBox="-10 0 692 1000"><g transform="matrix(1 0 0 -1 0 800)"><path stroke="black" fill="none" d="M 367.0 1689.0 l 0.0 -168.90002 l 0.0 -168.90002 l 0.0 -168.8999 l 278.0204 -622.65063 l 0.0 0.0 l -176.91602 406.4416 l 0.0 0.0 l 873.2705 -842.0214 l 0.0 0.0 l -173.80408 403.96948 l 0.0 0.0 l -322.77167 -222.53336 l 0.0 0.0 l 351.96222 625.0039 l 0.0 0.0 l -829.76135 -930.5096 l -22.5 0.0 l -22.5 0.0 l -22.5 0.0 l -22.5 0.0 l -22.5 0.0 l -22.5 0.0 l -22.5 0.0 l -22.5 0.0 l -22.5 0.0 l -22.5 0.0 l 210.95776 379.49188 l 0.0 0.0 l -118.964676 -211.8859 l 0.0 0.0 l -104.87756 232.78806 l 0.0 0.0 l 236.41899 354.07227 l 0.0 0.0 l -235.401 25.412537 l 0.0 0.0 l 132.69138 194.08258 l 0.0 0.0 l -130.00313 179.3825 l 9.178238 197.85596 l 0.0 168.90002 l 0.0 168.90002 l 22.5 0.0 l 22.5 0.0 l 22.5 0.0 l 22.5 0.0 l 22.5 0.0 l 22.5 0.0 l 22.5 0.0 l 22.5 0.0 l 22.5 0.0 l 22.5 0.0 " /> </g> </svg>