<?xml version="1.0" standalone="no"?><!DOCTYPE svg PUBLIC "-//W3C//DTD SVG 1.1//EN" "http://www.w3.org/Graphics/SVG/1.1/DTD/svg11.dtd" ><svg xmlns="http://www.w3.org/2000/svg" xmlns:xlink="http://www.w3.org/1999/xlink" version="1.1" viewBox="-10 0 692 1000"><g transform="matrix(1 0 0 -1 0 800)"><path stroke="black" fill="none" d="M 367.0 1689.0 l 0.0 -168.90002 l 0.0 -168.90002 l 0.0 -168.8999 l 262.5655 -378.8194 l 0.0 0.0 l 18.302673 -372.62726 l 0.0 0.0 l -3.7294312 554.1914 l 0.0 0.0 l -155.20618 -9.899597 l 0.0 0.0 l 680.51373 -686.8561 l 0.0 0.0 l 165.55908 -188.15549 l 0.0 0.0 l -455.57245 590.0673 l 0.0 0.0 l 510.77997 -232.92722 l 0.0 0.0 l -516.4986 -101.19507 l 0.0 0.0 l -99.22711 -226.0871 l 0.0 0.0 l 422.98682 800.57825 l 0.0 0.0 l -29.693726 -402.8628 l 0.0 0.0 l -800.7803 -527.7069 l -22.5 0.0 l -22.5 0.0 l -22.5 0.0 l -22.5 0.0 l -22.5 0.0 l -22.5 0.0 l -22.5 0.0 l -22.5 0.0 l -22.5 0.0 l -22.5 0.0 l 212.01706 395.43674 l 0.0 0.0 l 0.00064086914 200.9047 l 0.0 0.0 l -32.862183 -418.57385 l 0.0 0.0 l -111.83807 -10.417572 l 0.0 0.0 l -64.38513 11.763763 l 0.0 0.0 l -15.901367 41.730865 l 703.8658 711.4662 l 0.0 0.0 l -463.92822 -111.29022 l 0.0 0.0 l -239.91559 -80.18854 l 0.0 0.0 l -0.03050232 -338.06763 l 0.0 0.0 l 22.474487 569.5703 l 0.0 0.0 l 137.01805 1.6651611 l 0.0 0.0 l -159.16881 148.20667 l 0.0 0.0 l 12.653854 228.99329 l 0.0 168.90002 l 0.0 168.90002 l 22.5 0.0 l 22.5 0.0 l 22.5 0.0 l 22.5 0.0 l 22.5 0.0 l 22.5 0.0 l 22.5 0.0 l 22.5 0.0 l 22.5 0.0 l 22.5 0.0 " /> </g> </svg>