<?xml version="1.0" standalone="no"?><!DOCTYPE svg PUBLIC "-//W3C//DTD SVG 1.1//EN" "http://www.w3.org/Graphics/SVG/1.1/DTD/svg11.dtd" ><svg xmlns="http://www.w3.org/2000/svg" xmlns:xlink="http://www.w3.org/1999/xlink" version="1.1" viewBox="-10 0 692 1000"><g transform="matrix(1 0 0 -1 0 800)"><path stroke="black" fill="none" d="M 647.87 557.16156 l 0.0 53.695496 l 0.0 53.822998 l 0.0 0.0 l 0.0 0.0 l 0.0 0.0 l -1.4991455 49.371033 l -11.997314 83.210205 l 7.4954834 -38.976562 l 6.0009766 -362.52307 l 0.0 53.695435 l 0.0 53.80478 l 0.0 -215.10187 l 0.0 53.690826 l 0.0 -107.65091 l 0.0 -53.692566 l -37.493713 679.15955 l 13.491028 -28.581116 l -30.029114 52.023438 l -19.459717 18.162537 l -22.64392 13.049377 l -25.364502 7.75885 l 0.0 0.0 l 0.0 0.0 l 6.1035156e-05 -6.1035156e-05 l -18.590881 -0.7243042 l -17.641602 -2.1790771 l -16.031464 -3.4649048 l 15.045837 64.0249 l -10.462067 -4.2145386 l -19.767853 -10.830627 l 9.686737 6.067932 l 0.0 0.0 l -3.0517578e-05 0.0 l -30.410217 -20.971375 l 10.503693 7.859009 l -32.541504 -26.115784 l 11.0000305 9.392456 l -22.830261 -20.047852 l 205.08755 73.18744 l 30.866028 -4.311096 l 84.47919 -30.220337 l -26.88855 12.990051 l -27.975891 10.010559 l 499.5312 -345.29205 l 0.0 0.0 l 0.0 0.0 l 0.0 6.1035156e-05 l -0.3577881 27.617798 l -0.9963379 24.94867 l -1.7186279 24.169495 l -2.362671 22.098877 l 5.435425 -152.97394 l 0.0 -54.881653 l 0.0 -52.97003 l 0.0 -54.491608 l 0.0 -53.994904 l 0.0 -162.06053 l 0.0 53.757736 l 0.0 54.125885 l 89.12695 -216.3461 l -20.889648 -1.5258789e-05 l -45.22888 0.0 l 22.090576 -1.5258789e-05 l -45.0813 0.8203888 l -0.0073242188 52.966835 l 159.469 -53.787247 l 20.849731 0.0 l -46.00708 0.0 l -20.854126 0.0 l 112.135376 0.0 l -22.083252 0.0 l 22.476929 60.486084 l 0.0009765625 59.807938 l 0.0020751953 120.41371 l 0.0 -60.085266 l 0.0 240.49124 l 0.0 -59.824677 l 0.0 -60.229492 l -521.56006 232.35703 l 0.0 -50.270203 l 1.286499 78.88629 l 2.1105347 26.56836 l 6.7366943 48.033203 l -3.7374268 -22.81488 l 27.652344 99.70618 l 8.028687 14.767212 l 0.0 0.0 l 6.1035156e-05 6.1035156e-05 l 0.00030517578 0.0004272461 l 9.944092 11.815613 l -25.26416 -43.272156 l -6.6727295 -19.335327 l -5.1019897 -18.422302 l 506.56238 -56.98053 l -9.850342 67.69531 l 9.865112 -128.08441 l 0.0 -60.084595 l -49.39453 299.9903 l -29.550293 43.801697 l 52.618042 -95.72443 l -495.23328 -699.2174 l 0.0 50.197166 l 0.0 50.612732 l 0.0 49.97075 l 0.0 201.35959 l 0.0 50.198547 l 0.0 -100.821075 l 0.0 -49.978912 l 0.0 -50.320404 l -135.56201 -201.25339 l 22.55249 0.0 l 45.091003 0.0 l -22.438965 0.0 l 45.550964 0.0 l 22.077148 0.0 l -203.2334 0.0 l 22.552185 0.0 l 22.64746 0.0 l 22.552002 0.0 l 472.52606 878.77844 l 49.388916 -19.980347 l 42.68445 -27.874023 l -244.65381 59.468872 l -32.226868 -7.1504517 l 66.34479 11.507324 l 0.0 0.0 l 0.00012207031 0.0 l 0.00024414062 0.0 l 62.099243 -3.9638062 l -243.15936 -65.05701 l 26.27417 18.596252 l 55.877075 28.139954 l -27.323303 -12.024109 l 204.1665 -178.33075 l -5.767212 14.029785 l 0.0 0.0 l 0.0 0.0 l 0.0 0.0 l -7.4277344 11.176392 l -8.541382 10.225159 l -9.020996 8.630981 l -21.196533 14.1796875 l 10.965454 -6.4401855 l 46.101685 -67.53406 l 4.425537 -17.368103 l 3.7312012 -18.935242 l -806.9071 -287.68002 l 0.0 -50.19867 l 0.0 100.81888 l 0.0 49.970703 l 0.0 -251.40482 l 0.0 50.27002 l 1.3110657 330.02646 l 2.3379211 27.810608 l 2.816681 22.996338 l 4.0004883 23.822815 l 4.7519226 21.43097 l 12.071472 37.947266 l -6.3730774 -17.873657 l -20.916412 -144.41693 l 0.0 -50.19867 l -0.00076293945 -352.1336 l 0.00018310547 -50.291122 l -67.53461 -50.30133 l -22.448578 0.0 l 67.60141 0.0 l 22.337982 0.0 l -44.93271 0.0 l -67.533325 0.0 l -22.482895 0.0 l -89.97081 1.5258789e-05 l 22.451187 0.0 l 45.00212 -1.5258789e-05 l -22.484268 0.0 l -45.004974 97.39763 l 913.42017 616.48236 l 0.0 0.0 l 0.0 0.0 l 0.00012207031 0.0 l 14.598145 -1.763855 l 13.873169 -2.9794312 l 12.751831 -4.0983887 l -76.31372 6.052429 l 16.946655 2.0830688 l -33.094482 -5.5908813 l -15.160156 -4.9383545 l -13.952148 -6.253784 l -13.133728 -7.7596436 l -11.940186 -9.028198 l -162.88934 78.092896 l -23.862915 18.589905 l 90.246216 -37.00067 l 22.921143 23.928467 l -45.263428 -51.69043 l 0.0 0.0 l -0.00012207031 0.00012207031 l -0.0004272461 0.00048828125 l -21.114685 24.309875 l -366.20706 -6.7127686 l -12.205231 -9.15509 l 25.681732 17.047913 l 14.252258 6.339966 l -91.57382 -26.689941 l 0.0 0.0 l 0.0 0.00061035156 l 0.0 0.012878418 l 6.1035156e-05 8.579773 l -3.0517578e-05 9.944641 l -3.0517578e-05 8.207642 l 25.015259 -1.5358276 l -12.136444 -11.991211 l 27.265106 -20.81189 l -10.057526 -11.848633 l 0.0 0.0 l 3.0517578e-05 6.1035156e-05 l 0.00015258789 0.00018310547 l -8.217163 -14.933044 l 188.19058 145.87115 l 0.0 0.0 l 0.0 0.0 l 0.0 0.0 l -14.032532 -0.7490845 l -39.07733 -5.235718 l 12.695801 2.2663574 l 12.72345 1.7062378 l -37.621613 -6.755371 l -11.45166 -3.222351 l -371.27612 -134.41235 l 0.0 -97.34552 l 0.0 -97.45398 l 0.0 -97.3432 l 0.0 -97.427734 l 0.0 -97.382935 l 102.96495 611.84564 l -22.520447 0.0 l -22.450089 0.0 l -22.550903 -0.0012207031 l -22.452164 0.00024414062 l -12.985886 -27.443787 l 215.49376 27.443726 l 22.446686 -0.00036621094 l 0.034118652 -17.949707 l 0.0 8.916016 l -3.0517578e-05 -26.801636 l 0.0 8.732971 l 0.0 -18.060974 l 0.0 -8.741577 l -45.036865 53.90631 l -22.45221 0.0 l -22.546173 0.0 l -22.449158 0.0 l -125.49559 69.96277 l 0.0 97.38318 " /> </g> </svg>