<?xml version="1.0" standalone="no"?><!DOCTYPE svg PUBLIC "-//W3C//DTD SVG 1.1//EN" "http://www.w3.org/Graphics/SVG/1.1/DTD/svg11.dtd" ><svg xmlns="http://www.w3.org/2000/svg" xmlns:xlink="http://www.w3.org/1999/xlink" version="1.1" viewBox="-10 0 692 1000"><g transform="matrix(1 0 0 -1 0 800)"><path stroke="black" fill="none" d="M 647.8394 616.2271 l 0.0 0.0 l -4.6558228 115.61456 l 0.0 0.0 l 5.5074463 -321.12225 l 0.0 0.0 l 0.0 -222.36316 l 0.0 0.0 l -29.298279 637.5325 l 0.0 0.0 l -60.454773 62.973083 l 0.0 0.0 l -125.34067 37.95105 l 0.0 0.0 l 216.68692 40.260498 l 0.0 0.0 l 519.967 -487.10083 l 0.0 0.0 l 0.0 -134.29117 l 0.0 0.0 l 160.05737 -264.4346 l 0.0 0.0 l 64.06958 254.5293 l 0.0 0.0 l -519.55884 220.84247 l 0.0 0.0 l 5.779724 125.177734 l 0.0 0.0 l 515.6359 -212.36273 l 0.0 0.0 l -20.65039 311.34692 l 0.0 0.0 l -500.89746 -543.43756 l 0.0 0.0 l 0.0037841797 117.889725 l 0.0 0.0 l -24.587402 -246.87521 l 0.0 0.0 l -104.93823 0.0013580322 l 0.0 0.0 l 539.9933 823.19806 l 0.0 0.0 l -260.70984 61.27002 l 0.0 0.0 l 91.150024 -159.2268 l 0.0 0.0 l 41.014893 -77.976135 l 0.0 0.0 l -801.7727 -233.19745 l 0.0 0.0 l 0.00012207031 -144.4202 l 0.0 0.0 l 13.346893 388.35074 l 0.0 0.0 l -13.105713 -147.10474 l -4.0614624 -410.44562 l 0.9906006 -2.5122833 l -32.662903 -57.267654 l 0.0 0.0 l -87.14848 0.0 l 0.0 0.0 l -67.04884 0.6931915 l 11.971832 -0.6062927 l 0.0 0.0 l -47.2787 84.45355 l 850.4592 618.64886 l 0.0 0.0 l -145.92957 61.447205 l 0.0 0.0 l -453.25534 -105.2619 l 0.0 0.0 l 110.471466 148.26874 l 0.0 0.0 l -361.7478 -232.2378 l 0.0 0.0 l -0.00033569336 -143.29816 l 0.0 0.0 l -0.000579834 -208.48883 l -4.5776367e-05 -5.1801147 l 56.96335 588.1931 l 0.0 0.0 l -43.622086 -5.6713257 l 0.0 0.0 l 233.1241 -49.115356 l 0.0 0.0 l -85.80963 54.753418 l 0.0 0.0 l -160.61972 139.17169 l -0.008132935 6.4401855 " /> </g> </svg>