<?xml version="1.0" standalone="no"?><!DOCTYPE svg PUBLIC "-//W3C//DTD SVG 1.1//EN" "http://www.w3.org/Graphics/SVG/1.1/DTD/svg11.dtd" ><svg xmlns="http://www.w3.org/2000/svg" xmlns:xlink="http://www.w3.org/1999/xlink" version="1.1" viewBox="-10 0 692 1000"><g transform="matrix(1 0 0 -1 0 800)"><path stroke="black" fill="none" d="M 647.87 557.16156 l 6.1035156e-05 53.442993 l 0.0 53.878845 l 0.0 0.0 l 0.0 0.0 l 0.0 0.0 l -1.4970093 49.300903 l -11.990967 83.23486 l 7.48468 -38.919983 l 6.003296 -362.33743 l 0.0 53.443024 l 0.0 53.816437 l 0.0 -214.86505 l 0.0 53.427307 l 0.0 -107.773834 l 0.0 -53.433228 l -37.478638 679.06177 l 13.469421 -28.535461 l -30.099304 52.08008 l -19.362427 18.07196 l -22.991516 13.168579 l -25.03656 7.6593018 l 0.0 0.0 l 0.0 0.0 l 6.1035156e-05 0.0 l -18.847168 -0.75891113 l -18.09201 -2.2974854 l -15.081451 -3.2593994 l 14.661652 63.916016 l -10.249786 -4.1289673 l -19.641998 -10.735657 l 0.048858643 0.030517578 l 9.427338 5.9057617 l 0.0 0.0 l -30.30478 -20.89624 l 10.440247 7.8083496 l -32.086456 -25.7193 l 10.299927 8.7948 l -22.516998 -19.77716 l 205.1059 73.084595 l 30.711548 -4.2894287 l 84.404785 -30.173035 l -27.126648 13.062744 l -27.507141 9.842957 l 499.4132 -345.24615 l 0.0 0.0 l 0.0 0.00012207031 l -0.00012207031 0.00036621094 l -0.40026855 28.671936 l -0.939209 23.521118 l -1.7636719 24.819885 l -2.321045 21.710022 l 5.4243164 -152.95929 l 0.0 -56.7688 l 0.0 -50.242004 l 0.0 -55.437042 l 0.0 -53.74118 l 0.0 -161.48244 l 0.0 52.931473 l 0.0 54.188324 l 86.05359 -216.21597 l -16.760498 -6.1035156e-05 l -45.298706 0.0 l 20.86084 -4.5776367e-05 l -44.7948 2.800972 l -0.025024414 50.23111 l 162.53271 -53.032166 l 16.62439 0.0 l -47.95569 0.0 l -16.639404 0.0 l 110.04822 0.0 l -20.835693 0.0 l 22.179443 61.176743 l 0.0034179688 58.86142 l 0.007080078 120.44679 l 0.0 -59.80829 l 0.00012207031 239.74588 l 0.0 -58.91861 l 0.0 -60.30069 l -521.56 232.15674 l -6.1035156e-05 -50.198364 l 1.31427 79.215454 l 2.0755615 26.1297 l 6.5839233 47.14789 l -3.52594 -21.523071 l 27.7182 99.60028 l 7.935852 14.589966 l 0.0 0.0 l 0.0013427734 0.0015869141 l 0.13928223 0.16522217 l 9.614502 11.424194 l -25.141296 -43.205017 l -7.3915405 -21.955383 l -4.0807495 -14.734253 l 506.26624 -57.681946 l -9.802734 67.3703 l 9.853149 -128.21582 l 0.0 -59.806152 l -49.50171 300.08777 l -29.40625 43.58844 l 52.56494 -95.63843 l -495.21704 -699.16284 l 0.0 49.948936 l 0.0 51.36772 l 0.0 49.175842 l 0.0 201.74487 l 0.0 49.953613 l 0.0 -101.3548 l 0.0 -49.203705 l 0.0 -50.36963 l -135.47028 -201.38235 l 22.437744 0.0 l 44.82782 0.0 l -22.050293 0.0 l 46.3985 0.0 l 20.814758 0.0 l -202.83124 0.0 l 22.436768 0.0 l 22.762146 0.0 l 22.436035 0.0 l 472.61328 878.7506 l 49.48291 -20.05371 l 42.477783 -27.739014 l -245.00098 59.34552 l -31.688293 -7.0307617 l 66.231995 11.475525 l 0.0 0.0 l 0.0010986328 -6.1035156e-05 l 0.06604004 -0.004211426 l 61.021484 -3.8950195 l -241.83026 -64.88086 l 25.849548 18.297424 l 52.200684 26.546448 l -22.189087 -9.764648 l 202.75781 -178.86359 l -5.7369385 13.957886 l 0.0 0.0 l -0.00012207031 6.1035156e-05 l 0.0 6.1035156e-05 l -7.373291 11.094116 l -9.003174 10.696167 l -8.468384 8.102295 l -21.188354 14.227234 l 10.76123 -6.3198853 l 46.15442 -67.568115 l 4.4387207 -17.435791 l 3.7098389 -18.82721 l -806.8999 -287.8974 l 0.0 -49.95398 l 0.0 101.34711 l 0.0 49.17572 l 0.0 -251.17496 l 0.0 50.197662 l 1.3256836 330.2353 l 2.7312927 30.97467 l 2.2654114 18.497131 l 4.2069397 25.278015 l 4.6720276 21.071228 l 11.809357 37.24066 l -6.0062256 -16.844421 l -21.004272 -144.84418 l -3.0517578e-05 -49.95398 l -0.0025939941 -352.2148 l 0.00064086914 -50.269714 l -67.618164 -50.30452 l -22.324402 0.0 l 67.84616 0.0 l 21.94693 0.0 l -44.770294 0.0 l -67.613815 0.0 l -22.44162 0.0 l -89.9003 4.5776367e-05 l 22.333298 -1.5258789e-05 l 45.007248 -1.5258789e-05 l -22.446259 0.0 l -45.017 97.39188 l 913.422 616.48785 l 0.0 0.0 l 0.0 0.0 l 0.00024414062 0.0 l 14.47168 -1.7487183 l 14.170532 -3.0506592 l 12.5147705 -4.0219727 l -76.03296 6.0583496 l 16.612793 2.0421143 l -32.93628 -5.5687866 l -15.389954 -5.031006 l -13.703796 -6.142273 l -13.3480835 -7.9035034 l -11.711243 -8.854919 l -163.26184 78.2688 l -23.459595 18.27594 l 91.08197 -35.940002 l 21.64447 22.596802 l -44.955505 -51.30359 l 0.0 0.0 l -0.0016479492 0.0018920898 l -0.20465088 0.24121094 l -20.513672 23.632568 l -366.73096 -6.4298706 l -11.964447 -8.974182 l 25.782593 17.067078 l 13.9800415 6.219055 l -91.48645 -26.504517 l 0.0 0.0 l 0.0 0.018737793 l 0.00018310547 7.4797974 l -0.00015258789 12.225037 l -3.0517578e-05 6.294861 l 24.472656 -1.477478 l -11.427704 -11.293945 l 26.649628 -21.516663 l -9.593292 -11.300781 l 0.0 0.0 l 0.00064086914 0.00079345703 l -5.8707886 -10.700867 l -2.2425232 -4.0356445 l 188.07117 145.65662 l 0.0 0.0 l 0.0 0.0 l 0.0 0.0 l -13.990295 -0.7468872 l -38.901672 -5.201172 l 13.047852 2.3057861 l 11.9348755 1.6005249 l -37.55301 -6.7683105 l -11.214325 -3.1554565 l -371.36322 -134.53888 l 0.0 -97.21387 l 0.0 -97.58429 l 0.0 -97.20618 l 0.0 -97.4946 l 0.0 -97.34177 l 102.928604 611.8351 l -22.569778 0.0 l -22.32959 0.0 l -22.673828 -0.004211426 l -22.33667 0.0008544922 l -13.000107 -27.428833 l 215.52698 27.428589 l 22.318024 -0.001159668 l 0.11651611 -17.828247 l -6.1035156e-05 8.713257 l -6.1035156e-05 -26.322754 l 0.0 8.088196 l -3.0517578e-05 -18.208069 l 0.0 -8.117737 l -45.125824 53.680115 l -22.336914 0.0 l -22.657593 0.0 l -22.3264 0.0 l -125.53325 69.99365 l 0.0 97.34253 " /> </g> </svg>