<?xml version="1.0" standalone="no"?><!DOCTYPE svg PUBLIC "-//W3C//DTD SVG 1.1//EN" "http://www.w3.org/Graphics/SVG/1.1/DTD/svg11.dtd" ><svg xmlns="http://www.w3.org/2000/svg" xmlns:xlink="http://www.w3.org/1999/xlink" version="1.1" viewBox="-10 0 692 1000"><g transform="matrix(1 0 0 -1 0 800)"><path stroke="black" fill="none" d="M 647.8661 594.9427 l 0.0 0.0 l -1.036377 81.25305 l 0.0 0.0 l -6.861145 70.217896 l 0.42016602 -2.05542 l 7.5079346 -310.45428 l 0.0 0.0 l 0.0 19.450928 l 0.0 -160.56018 l 0.0 0.0 l 0.0 -115.28073 l 0.0 0.0 l -27.601074 640.0918 l 0.3538208 -0.76641846 l -49.505127 64.38635 l 0.0 0.0 l -52.263916 18.85968 l 0.0 0.0 l -52.519592 47.850037 l 0.0 0.0 l -34.07251 -24.362732 l 0.0 0.0 l 199.54327 45.435974 l 0.0 0.0 l 45.61255 -10.950195 l 0.0 0.0 l 491.3448 -323.77112 l 0.0 0.0 l 0.6635742 -151.03769 l 0.0 0.0 l 0.004272461 -143.24255 l 0.0 0.0 l 0.0 -79.05847 l 0.0 0.0 l 2.1864014 -125.322464 l 0.0 0.0 l 161.66052 -60.35733 l 0.0 0.0 l 61.992554 156.82549 l 0.0 0.0 l 0.15600586 175.6084 l 0.0 0.0 l -521.5411 163.57187 l -0.0034179688 -3.1635742 l 4.3516846 102.857605 l 0.0 0.0 l 8.494263 50.94861 l 0.0 0.0 l 501.7237 -9.114624 l 0.0 0.0 l 6.979004 -167.34369 l 0.0 0.0 l -67.82654 335.33136 l 0.0 0.0 l 30.85376 -56.502686 l -484.58728 -651.1853 l 0.0 0.0 l 0.00024414062 59.613586 l 0.00012207031 254.65173 l 0.0 0.0 l 0.0 -134.45334 l 0.0 0.0 l -103.72229 -247.51874 l 0.0 0.0 l 82.47351 0.0 l 0.0 0.0 l -177.7428 7.6293945e-05 l 0.0 0.0 l 43.10321 -6.866455e-05 l 0.0 0.0 l 509.70282 860.5292 l 38.262573 -21.13031 l 0.0 0.0 l -157.69507 51.271362 l 0.0 0.0 l -126.36432 -16.796387 l 0.0 0.0 l 158.25201 -175.48126 l 0.0 0.0 l -28.932617 31.547974 l 0.0 0.0 l 42.19397 -66.60394 l 0.0 0.0 l 5.8220215 -25.76178 l 0.0 0.0 l -805.203 -325.5211 l 0.0 0.0 l 0.0 107.032745 l 0.0 -210.40085 l 0.0 0.0 l 0.0 2.8587036 l 7.129883 413.09866 l 8.756409 44.96826 l 0.0 0.0 l -15.609955 -156.50427 l 0.0 0.0 l -1.3952637 -383.7929 l 0.2937622 -36.247665 l -78.418915 -52.396408 l 0.0 0.0 l 44.077545 0.0 l 0.0 0.0 l -93.742294 0.0 l -0.37496948 0.0 l -76.77716 0.0594635 l 0.0 0.0 l 31.5159 -0.051086426 l -0.60713196 -0.00088500977 l -49.846848 93.62604 l 923.9041 618.0233 l 0.0 0.0 l -55.052002 -3.1358643 l 0.0 0.0 l -43.7984 -17.77118 l 0.0 0.0 l -120.52222 73.887146 l 0.0 0.0 l -367.51797 -16.973022 l 0.0 0.0 l -70.62683 -53.602173 l 0.0 0.0 l 175.8627 133.67603 l 0.0 0.0 l -75.74112 -13.360657 l 0.0 0.0 l -366.50903 -199.56598 l -6.1035156e-05 -11.051941 l 0.0 -182.86603 l -1.5258789e-05 -7.4957886 l 0.0 -141.28442 l -1.5258789e-05 -70.38852 l 79.140335 604.92395 l -13.801575 0.001159668 l 0.0 0.0 l -53.32869 -5.5213013 l 0.0 0.0 l -3.3642883 -13.662415 l 224.67961 12.270447 l 0.0 0.0 l 13.159149 -47.949036 l 0.0 0.0 l -79.12717 54.861267 l 0.0 0.0 l -32.24283 0.00024414062 l 0.0 0.0 l -135.104 90.21063 l -0.002380371 70.75842 " /> </g> </svg>