<?xml version="1.0" standalone="no"?><!DOCTYPE svg PUBLIC "-//W3C//DTD SVG 1.1//EN" "http://www.w3.org/Graphics/SVG/1.1/DTD/svg11.dtd" ><svg xmlns="http://www.w3.org/2000/svg" xmlns:xlink="http://www.w3.org/1999/xlink" version="1.1" viewBox="-10 0 692 1000"><g transform="matrix(1 0 0 -1 0 800)"><path stroke="black" fill="none" d="M 647.8696 560.32806 l 0.00036621094 39.589478 l -0.019348145 57.568787 l 0.0 0.0 l -0.002380371 0.076538086 l -1.3589478 44.75049 l -11.640564 84.58728 l 6.8898926 -35.81604 l 6.132141 -352.15103 l 0.0 39.59308 l 0.0 54.454742 l 0.0 -201.87006 l 0.0 38.96768 l 0.0 -114.518906 l 0.0 -39.20285 l -36.650818 673.6977 l 12.284912 -26.028748 l -33.95233 55.18512 l -14.026245 13.103516 l -42.06012 19.71045 l -5.5648193 1.7355957 l 0.0 0.0 l -34.38907 -2.1920776 l -13.874115 -2.6138306 l 0.0 0.0 l 1.6951294 59.773987 l -0.31848145 -0.12652588 l -12.121155 -5.5543823 l 0.0 0.0 l 0.018249512 0.008361816 l -25.509827 -17.346558 l 0.0 0.0 l 6.957672 5.0286865 l -29.848846 -23.451843 l 0.0 0.0 l -10.712433 -9.43457 l 206.11215 67.44336 l 22.23523 -3.102234 l 80.322266 -27.575867 l -40.18799 17.051086 l -1.8040771 0.6505127 l 492.87372 -337.13605 l 0.0 0.0 l -0.9592285 37.44934 l 0.0 0.0 l -3.7369385 49.19104 l -0.09069824 0.8812866 l 4.867798 -152.66486 l 0.0 -0.036376953 l 0.00012207031 -89.53259 l 0.0 0.0 l 0.0 -78.617645 l 0.0 -39.8183 l 0.0 -129.76247 l 0.0 7.594681 l 0.0 57.614838 l 72.118774 -209.02495 l -19.448853 -0.04724884 l 0.0 0.0 l -47.894043 39.26226 l 0.0 0.0 l 119.27551 -39.27356 l 0.0 0.0 l 80.67493 3.0517578e-05 l 0.0 0.0 l 20.849976 99.073364 l 0.13513184 6.925354 l 0.28186035 122.26236 l 0.0026855469 -44.610626 l 0.0040283203 198.84628 l 0.0 -9.200745 l -0.00012207031 -64.20734 l -521.5587 221.16681 l -0.00024414062 -46.2547 l 2.836731 97.275085 l 0.1583252 2.0707397 l 4.065857 34.130188 l 0.0 0.0 l 33.544617 107.57849 l 8.451965 11.432556 l 0.0 0.0 l -24.64325 -46.848022 l 0.0 0.0 l -6.953064 -22.521545 l 502.0924 -51.73706 l -7.194092 49.535645 l 9.199585 -135.42456 l 0.0 -44.529358 l -55.38684 305.4361 l -21.499756 31.8891 l 49.652588 -90.9223 l -494.32605 -696.1695 l 0.0 0.03388977 l 0.0 36.29402 l 0.0 92.79402 l 0.0 5.5594788 l 0.0 222.88635 l 0.0 36.5148 l 0.0 -130.64072 l 0.0 -6.6694946 l 0.0 -53.07016 l -130.43835 -208.45856 l 16.143677 0.0 l 30.387207 0.0 l -1.0340576 0.0 l 56.783203 0.0 l 0.0 0.0 l -192.78638 0.0 l 16.1026 0.0 l 29.054749 0.0 l 16.074524 0.0 l 477.3935 877.22345 l 54.64026 -24.08081 l 31.138306 -20.327698 l -264.05078 52.57666 l -2.1382446 -0.46447754 l 103.924255 6.927185 l 0.0 0.0 l -207.16309 -52.77191 l 2.5523682 1.9000854 l 39.189697 22.116394 l 196.27039 -176.8941 l -0.012084961 0.028564453 l -5.614746 12.309387 l 0.0 0.0 l -2.8410645 4.261841 l -18.841553 21.675903 l 0.0 0.0 l -14.380249 10.794006 l 0.47680664 -0.2664795 l 48.12317 -68.8891 l 0.0025634766 -0.012329102 l 5.159424 -21.138062 l 2.5430908 -12.898682 l -806.50916 -299.82562 l 0.0 -36.52704 l 0.0 130.3316 l 0.0 5.5560303 l 0.0 -238.56387 l 0.0 0.31976318 l 0.0 45.907776 l 2.126648 341.69113 l 0.0 0.0 l 3.14328 30.231567 l 8.725037 51.10742 l 0.30532837 1.4067993 l 7.7080994 27.120178 l 0.0 0.0 l -21.999573 -157.3822 l -0.0018310547 -36.529907 l -0.10296631 -356.66913 l 0.025177002 -49.094482 l -72.20273 -50.479843 l -15.511261 0.0 l 81.2771 0.0 l 0.93045044 0.0 l -36.299957 0.0 l -72.03044 0.0 l -20.17688 0.0 l -86.03174 0.0017547607 l 15.865463 -0.00033569336 l 45.288574 -0.0007019043 l -20.361176 -0.00018310547 l -45.676514 97.076355 l 916.49384 616.4276 l 0.0 0.0 l 4.568115 -0.5570679 l 30.490967 -6.9574585 l 0.52697754 -0.16259766 l -61.649353 6.7141113 l 0.40203857 0.05218506 l -26.368225 -4.6116333 l -27.997803 -10.114624 l -0.6713867 -0.29223633 l -24.513062 -15.529236 l -0.3746338 -0.27874756 l -182.47705 88.85364 l -1.3579712 1.0699463 l 99.37396 -17.318665 l 0.0 0.0 l -40.01361 -35.7229 l 0.0 0.0 l -393.36676 3.840149 l -0.32162476 -0.23596191 l 32.885162 19.305298 l 0.43722534 0.199646 l -87.62225 -22.933472 l 0.0 0.0 l 13.828369 14.405029 l 0.0 0.0 l 16.299042 -35.565063 l 0.0 0.0 l -5.76651 -10.410461 l 0.0 0.0 l 184.97769 140.89166 l 0.0 0.0 l -0.014282227 -0.00079345703 l -11.409973 -0.6104126 l -29.26654 -3.307373 l 8.952332 1.3049316 l 0.0 0.0 l -41.709503 -8.5130005 l -0.29266357 -0.08135986 l -374.04257 -140.88477 l 0.0 -89.99249 l 0.0 -104.73187 l -1.5258789e-05 -89.68738 l 0.0 -101.164734 l 0.0 -95.08276 l 100.934875 611.25586 l -25.277237 0.00012207031 l -15.718124 0.0 l -29.418137 -0.16888428 l -15.999588 0.03479004 l -13.78009 -26.606812 l 217.34908 26.596191 l 0.16036987 -0.008666992 l 15.098053 -0.035461426 l 4.6365967 -11.1710205 l -0.00039672852 0.17529297 l -0.00012207031 -20.77008 l 0.0 0.0 l -0.004699707 -18.261047 l 0.0 0.0 l -50.008698 50.215637 l -16.009216 0.0 l -28.771515 0.0 l -15.590912 0.0 l -127.59932 71.68805 l -0.00021362305 95.1145 " /> </g> </svg>