<?xml version="1.0" standalone="no"?><!DOCTYPE svg PUBLIC "-//W3C//DTD SVG 1.1//EN" "http://www.w3.org/Graphics/SVG/1.1/DTD/svg11.dtd" ><svg xmlns="http://www.w3.org/2000/svg" xmlns:xlink="http://www.w3.org/1999/xlink" version="1.1" viewBox="-10 0 692 1000"><g transform="matrix(1 0 0 -1 0 800)"><path stroke="black" fill="none" d="M 647.8699 558.0313 l 0.00012207031 49.63788 l -0.0014648438 54.769653 l 0.0 0.0 l -6.1035156e-05 0.0017089844 l -0.004333496 0.13879395 l -1.4591675 48.05426 l -11.894714 83.60632 l 7.321289 -38.067444 l 6.0386963 -359.53955 l 0.0 49.638885 l 0.0 53.99176 l 0.0 -211.29575 l 0.0 49.45572 l 0.0 -109.626495 l 0.0 -49.524597 l -37.25128 677.58844 l 13.144104 -27.846924 l -31.157593 52.93286 l -17.89679 16.707275 l -28.229004 14.965454 l -19.97815 6.1226807 l 0.0 0.0 l 0.0067749023 -0.0021362305 l -22.832947 -1.2408447 l -24.880157 -4.0824585 l -0.91293335 -0.19519043 l 9.020721 62.307495 l -7.0505676 -2.8389282 l -17.744965 -9.304138 l 0.0 0.0 l 0.11846924 0.074157715 l 4.546295 2.8499146 l -27.076813 -18.73639 l 0.013092041 0.009460449 l 9.470581 7.0354004 l -25.228363 -19.744019 l 0.3864441 0.3312378 l -18.433746 -16.240906 l 205.3823 71.535095 l 28.383362 -3.9633179 l 83.28345 -29.459717 l -30.714172 14.158264 l -20.442627 7.3164062 l 497.62762 -344.11218 l 0.0 0.0 l -0.0009765625 0.06866455 l -1.0354004 44.054688 l -0.07861328 2.00885 l -2.44104 34.620728 l -1.6933594 15.848816 l 5.2563477 -152.73822 l 0.0 -0.47473145 l 0.0 -84.735016 l 0.0 -9.128174 l 0.0 -69.68619 l 0.0 -49.916992 l 0.0 -152.76997 l 0.0 40.478897 l 0.0 55.129486 l 72.851074 -214.25203 l 0.0 0.0 l -33.99707 -0.0034942627 l 2.328125 -0.0005493164 l -40.477783 32.650528 l -0.2911377 9.00087 l 170.83789 -41.652374 l 0.0 0.0 l -49.09839 0.0 l 0.0 0.0 l 88.059326 0.0 l -2.0333252 0.0 l 17.697144 71.585754 l 0.03967285 44.596222 l 0.08251953 120.945465 l 0.0007324219 -55.633972 l 0.0012207031 228.51205 l 0.0 -45.262665 l 0.0 -61.37375 l -521.5597 229.13815 l -6.1035156e-05 -49.115112 l 1.7324219 84.17584 l 1.5487671 19.518799 l 4.281189 33.804688 l -0.3388672 -2.0549927 l 28.711182 98.005554 l 9.790283 15.779419 l 0.0 0.0 l 3.6485596 4.3380127 l -23.289978 -42.192993 l -0.00592041 -0.018127441 l -9.836731 -31.203552 l 0.0 0.0 l 504.73145 -57.62555 l -9.086182 62.47174 l 9.673584 -130.19586 l 0.0 -55.610107 l -51.118164 301.55682 l -27.23462 40.375 l 51.765015 -94.34308 l -494.9723 -698.3407 l 0.0 0.4035492 l 0.0 45.804123 l 0.0 62.746216 l 0.0 37.1958 l 0.0 207.55179 l 0.0 46.26236 l 0.0 -109.39868 l 0.0 -37.520905 l 0.0 -51.11139 l -134.0882 -203.32596 l 20.708984 0.0 l 40.86145 0.0 l -16.192566 0.0 l 59.17169 0.0 l 1.7937012 0.0 l -196.77441 0.0 l 20.697021 0.0 l 24.490479 0.0 l 20.68872 0.0 l 473.9262 878.3312 l 50.899536 -21.159851 l 39.36316 -25.70337 l -250.2334 57.48633 l -23.569702 -5.2267456 l 67.99768 10.773987 l 0.0 0.0 l 42.38452 -2.7053223 l -221.79822 -62.226074 l 19.4505 13.793518 l 35.948914 19.76001 l 0.0 0.0 l 197.55957 -179.83551 l -0.13757324 0.32305908 l -5.265503 12.734924 l 0.0 0.0 l -0.010864258 0.016113281 l -6.4212646 9.656433 l -15.962036 17.79535 l -0.4567871 0.4381714 l -20.747314 14.639526 l 7.6828613 -4.506653 l 46.94873 -68.08154 l 4.637329 -18.456055 l 3.3894043 -17.198792 l -806.7926 -291.17374 l 0.0 -46.26602 l 0.0 109.30823 l 0.0 37.194763 l 0.0 -247.71109 l 0.0 49.10721 l 1.5456848 333.38184 l 0.0020446777 0.022827148 l 4.238983 42.481018 l 0.0 0.0 l 5.694519 34.055786 l 3.468048 15.649536 l 7.8593445 26.59143 l -0.484375 -1.3515625 l -22.321655 -151.26422 l -0.0005493164 -46.266846 l -0.030151367 -353.43826 l 0.0073547363 -49.9469 l -68.87738 -50.352676 l -20.453033 0.0 l 71.53522 0.0 l 16.052887 0.0 l -42.322296 0.0 l -68.82692 0.0 l -21.81958 0.0 l -88.83772 0.0005187988 l 20.556793 -0.00010681152 l 45.08452 -0.00019836426 l -21.87355 -6.1035156e-05 l -45.19815 97.30522 l 913.6837 616.54236 l 0.0 0.0 l 0.021850586 -0.0026245117 l 12.311768 -1.4898682 l 18.65332 -4.1237183 l 8.940308 -2.8704224 l -71.800415 6.1469116 l 11.580078 1.4258423 l -30.552185 -5.236145 l -18.852905 -6.427307 l -9.960449 -4.461548 l -16.578491 -10.07196 l -8.26062 -6.243225 l -168.87646 80.920044 l -17.381287 13.544006 l 103.678345 -19.954895 l 2.402832 2.5274658 l -44.042053 -41.079285 l 0.0 0.0 l -11.034851 12.9279785 l -374.62695 -2.1657715 l -8.335449 -6.247986 l 27.302338 17.355774 l 9.877655 4.3970947 l -90.157776 -24.172058 l 0.0 0.0 l -0.010375977 21.242249 l 0.0 0.0 l 16.293762 -6.3182983 l -0.7921753 -0.829834 l 17.419556 -32.09369 l -0.67993164 -0.7970581 l -7.9871216 -13.165649 l -0.4703369 -0.8467407 l 186.25226 142.42175 l 0.0 0.0 l -0.00048828125 0.0 l -0.0076293945 -0.0004272461 l -13.325989 -0.711792 l -36.255188 -4.6810303 l 18.353699 2.9000854 l 0.5841675 0.07891846 l -37.052887 -7.034729 l -7.6369934 -2.1478882 l -372.67664 -136.44507 l 0.0 -95.23041 l 0.0 -99.547485 l 0.0 -95.14099 l 0.0 -98.502716 l 0.0 -96.72128 l 102.381 611.67596 l -23.31343 6.1035156e-05 l -20.513641 0.0 l -24.526276 -0.049438477 l -20.59607 0.010192871 l -13.21434 -27.203064 l 216.02744 27.199951 l 0.90075684 -0.049804688 l 19.478241 0.036865234 l 1.3580322 -15.998352 l -0.0007324219 5.657654 l -0.00048828125 -19.105408 l -3.0517578e-05 0.21533203 l -0.00039672852 -22.269775 l 0.0 -0.25933838 l -46.46692 51.815186 l -20.598877 0.0 l -24.336884 0.0 l -20.47638 0.0 l -126.10072 70.458984 l -7.6293945e-05 96.73059 " /> </g> </svg>