<?xml version="1.0" standalone="no"?><!DOCTYPE svg PUBLIC "-//W3C//DTD SVG 1.1//EN" "http://www.w3.org/Graphics/SVG/1.1/DTD/svg11.dtd" ><svg xmlns="http://www.w3.org/2000/svg" xmlns:xlink="http://www.w3.org/1999/xlink" version="1.1" viewBox="-10 0 692 1000"><g transform="matrix(1 0 0 -1 0 800)"><path stroke="black" fill="none" d="M 130.20088 972.7301 l 11.79866 1.2698364 l 22.600464 6.1035156e-05 l 22.59999 0.0 l 22.600006 0.0 l 22.59999 0.0 l 22.600006 0.0 l 22.600006 0.0 l 22.600006 0.0 l 22.599976 0.0 l 22.600006 0.0 l 22.600006 0.0 l 0.0 -9.0 l 0.0 -9.0 l 0.0 -9.0 l 0.0 -9.0 l 0.0 -9.0 l 0.0 -9.0 l 0.0 -9.0 l 0.0 -9.0 l 0.0 -9.0 l 0.0 -9.0 l 0.0 0.0 l 0.0 0.0 l 0.0 0.0 l 23.899994 22.22998 l 24.5 19.890015 l 25.099976 17.549988 l 25.700043 15.210083 l 26.299957 12.869995 l 26.900055 10.529968 l 27.5 8.189941 l 28.099976 5.8500366 l 28.700012 3.5100098 l 0.0 0.0 l 0.0 0.0 l 0.0 0.0 l 33.25 -1.0700684 l 31.75 -3.210022 l 30.25 -5.3499756 l 28.751099 -7.4903564 l 27.248108 -9.6293335 l 49.997375 -25.678284 l -24.244751 13.906921 l 83.82825 -67.499084 l 13.939697 -21.649597 l -29.519775 40.999756 l 0.0 0.0 l 0.0 0.0 l 0.0 0.0 l -21.250244 18.190186 l 63.070312 -83.14026 l 10.659973 -26.250061 l 9.019897 -28.549866 l 7.379944 -30.849915 l 5.739929 -33.150085 l 4.1002197 -35.451477 l 2.4599 -37.74762 l -0.00018310547 -59.700928 l 0.0 -59.700012 l 0.0 -59.69995 l 0.0 -59.69992 l 0.0 -59.69998 l 0.0 -59.700195 l 0.0 -59.69995 l 0.0 -59.699966 l -45.196472 -119.39998 l 22.59491 0.0 l 22.601013 3.8146973e-06 l 0.0004272461 59.700035 l -112.99933 -59.70004 l 22.602783 0.0 l 22.594666 0.0 l -67.80841 3.0517578e-05 l -22.584045 -7.6293945e-06 l -67.80481 54.40018 l -0.0004272461 54.399605 l 0.010681152 -108.799805 l 22.584045 0.0 l 22.604797 3.8146973e-06 l -45.199585 163.2022 l 0.0 54.396927 l -0.00024414062 54.40094 l 0.0 54.399963 l 0.0 54.400024 l 0.0 54.399994 l 0.0 54.400024 l 0.00024414062 54.399963 l 0.0 0.0 l 0.0 0.0 l 0.0 0.0 l -0.40020752 27.913574 l -1.199646 26.124084 l -8.40033 67.713196 l -4.399658 19.008484 l 10.798523 -62.358704 l -2.7980347 22.554016 l -19.199768 72.483154 l 5.998413 -15.445984 l -12.799316 29.118164 l 0.0 0.0 l 0.0 0.0 l 0.0 0.0 l -8.439148 10.638977 l -20.719055 17.919678 l 10.996826 -8.397644 l -36.832092 21.835999 l 13.549011 -6.1550293 l -44.51477 15.117798 l 16.117737 -3.9194946 l -33.522156 6.7200317 l -18.67633 1.6796875 l 0.0 0.0 l 0.0 0.0 l 0.0 0.0 l -21.74884 -0.7399292 l -20.45398 -2.220642 l -19.145508 -3.6991577 l -17.878326 -5.19104 l -16.511353 -6.644409 l -15.261017 -8.144348 l -13.951599 -9.621033 l -12.648987 -11.09906 l -11.350403 -12.580383 l 0.0 0.0 l 0.0 0.0 l 0.0 0.0 l -8.7388 -15.687866 l -7.8215027 -17.872986 l -6.899475 -20.048462 l -11.040009 -46.63971 l 5.0596313 24.408203 l -9.19986 -50.999146 l -5.5198975 -59.71875 l 2.2998657 30.947876 l -3.6799316 -64.07916 l 0.0 -47.0 l 0.0 -47.0 l 0.0 -47.00003 l 0.0 -47.0 l 0.0 -47.00003 l 0.0 -93.99803 l 0.0 46.997208 l 0.0 -140.97757 l 0.0 46.971725 l -67.803345 -93.99328 l -22.59494 0.0 l -22.604843 0.0 l -22.59462 0.0 l 135.5946 7.6293945e-05 l -22.594788 -3.0517578e-05 l -22.602081 0.0002822876 l -158.20303 -0.00032806396 l -22.5943 0.0 l 67.79404 0.0 l -22.594925 0.0 l -45.201782 97.39988 l 0.0 97.399994 l 0.0 97.400024 l 0.0 97.399994 l 0.0 97.399994 l 0.0 97.400024 l 0.0 97.39996 l 0.0 97.400024 l 0.0 194.79999 " /> </g> </svg>