<?xml version="1.0" standalone="no"?><!DOCTYPE svg PUBLIC "-//W3C//DTD SVG 1.1//EN" "http://www.w3.org/Graphics/SVG/1.1/DTD/svg11.dtd" ><svg xmlns="http://www.w3.org/2000/svg" xmlns:xlink="http://www.w3.org/1999/xlink" version="1.1" viewBox="-10 0 692 1000"><g transform="matrix(1 0 0 -1 0 800)"><path stroke="black" fill="none" d="M 130.31958 972.7429 l 11.180283 1.2032471 l 22.811218 0.022766113 l 22.599777 0.0 l 22.599792 0.0 l 22.599762 0.0 l 22.599792 0.0 l 22.599808 0.0 l 22.599792 0.0 l 22.599731 0.0 l 22.599792 0.0 l 22.599792 0.0 l 0.0 -9.0 l 0.0 -9.0 l 0.0 -9.0 l 0.0 -9.0 l 0.0 -9.0 l 0.0 -9.0 l 0.0 -9.0 l 0.0 -9.0 l 0.0 -9.0 l 0.002166748 -9.0 l 0.0 0.0 l 0.0 0.0 l 0.0 0.0 l 23.900726 22.236877 l 24.498322 19.89441 l 25.09375 17.551819 l 25.710266 15.222534 l 26.28769 12.861633 l 26.916718 10.528259 l 27.49591 8.180969 l 28.098877 5.841736 l 28.697754 3.5117798 l 0.0 0.0 l 0.0 0.0 l 0.0 0.0 l 33.255066 -1.0894165 l 31.74524 -3.218628 l 30.245544 -5.3601685 l 29.27008 -7.638916 l 26.367859 -9.316223 l 48.793762 -24.912903 l -21.820312 12.518799 l 83.00055 -67.08331 l 13.799988 -21.456848 l -29.407837 40.887512 l 0.0 0.0 l 0.0 0.0 l 0.0 0.0 l -21.346313 18.273193 l 63.197876 -83.278015 l 10.668518 -26.285461 l 8.956665 -28.460266 l 7.350403 -30.822815 l 5.7056274 -33.168213 l 4.2234497 -36.17218 l 2.3900146 -36.626343 l -0.08959961 -60.14673 l 0.0 -59.67975 l 0.0 -59.67975 l 0.0 -59.679718 l 0.0 -59.67975 l 0.0 -59.788177 l 0.0 -59.679733 l 0.0 -59.679733 l -43.555237 -119.39612 l 20.240784 -0.0001335144 l 23.078491 0.002407074 l 0.18725586 59.714104 l -112.68787 -59.716484 l 23.900452 -0.00016784668 l 20.103455 -3.8146973e-05 l -71.70947 0.013786316 l -15.171143 -0.003692627 l -70.01941 54.48603 l -0.2211914 54.214745 l 4.95813 -108.71075 l 15.208984 -4.5776367e-05 l 24.818237 0.00079345703 l -45.019775 164.2179 l 0.0020751953 52.9664 l -0.11376953 54.8378 l 0.0 54.39868 l 0.0 54.398743 l 0.0 54.39868 l 0.0 54.398712 l 0.12322998 54.38916 l 0.0 0.0 l 0.0 0.00012207031 l 0.0 0.00024414062 l -0.47711182 29.572083 l -1.0737915 23.387451 l -8.539429 69.16876 l -4.2366333 18.30719 l 10.112061 -57.101257 l -1.8797607 15.153503 l -19.11267 73.92926 l 5.277649 -13.58728 l -12.513428 28.327332 l 0.0 0.0 l -0.0008544922 0.0010986328 l -0.042785645 0.053771973 l -7.9645996 10.039856 l -20.283508 17.776306 l 9.53125 -7.275818 l -33.175354 19.975769 l 8.466431 -3.8451538 l -42.104004 14.056763 l 0.014282227 -0.005126953 l 15.062744 -3.6482544 l -34.53058 6.717407 l -0.010192871 0.0008544922 l -16.091125 1.4540405 l -22.069885 -0.6374512 l -22.306183 -2.4970093 l -17.062012 -3.2941895 l -30.992676 -10.309998 l -0.50827026 -0.20361328 l -18.478943 -9.385376 l 0.024169922 0.012268066 l -14.701202 -10.106995 l -12.184662 -10.689575 l -11.55249 -12.768555 l 0.0 0.0 l -0.00021362305 -0.00036621094 l -0.0022583008 -0.0040283203 l -8.178467 -14.680969 l -8.503357 -19.237793 l -6.656616 -19.349792 l -11.051422 -46.485718 l 4.8912964 23.58966 l -9.144775 -50.621887 l -5.4576416 -59.154907 l 2.2277527 29.97229 l -3.655243 -63.684082 l 0.0 -47.00714 l 0.0 -47.00711 l 0.0 -47.00711 l 0.0 -47.00711 l 0.0 -47.00711 l 0.004272461 -93.085205 l 9.1552734e-05 45.70816 l -0.00015258789 -130.59996 l 9.1552734e-05 33.885483 l -69.33655 -90.880714 l -20.252167 0.0 l -24.85196 0.0 l -20.10379 0.0 l 133.08337 0.036575317 l -20.172546 -0.014251709 l -23.570251 0.13118744 l -159.60506 -0.1531601 l -19.955032 -0.00018310547 l 65.03752 4.5776367e-05 l -20.24562 -7.6293945e-05 l -46.03009 97.34344 l 0.0 97.399994 l 0.0 97.400024 l 0.0 97.399994 l 0.0 97.39996 l 0.0 97.400024 l 0.0 97.39996 l 0.0 97.400024 l 0.0 194.80005 " /> </g> </svg>