<?xml version="1.0" standalone="no"?><!DOCTYPE svg PUBLIC "-//W3C//DTD SVG 1.1//EN" "http://www.w3.org/Graphics/SVG/1.1/DTD/svg11.dtd" ><svg xmlns="http://www.w3.org/2000/svg" xmlns:xlink="http://www.w3.org/1999/xlink" version="1.1" viewBox="-10 0 692 1000"><g transform="matrix(1 0 0 -1 0 800)"><path stroke="black" fill="none" d="M 131.59401 972.88007 l 4.5772095 0.49261475 l 25.060822 0.26513672 l 22.597488 0.0 l 22.597488 0.0 l 22.597473 0.0 l 22.597504 0.0 l 22.597488 0.0 l 22.597504 0.0 l 22.597443 0.0 l 22.597504 0.0 l 22.597504 -0.00012207031 l 0.0 -8.999939 l 0.0 -8.999939 l 0.0 -8.999939 l 0.0 -9.000061 l 0.0 -9.000061 l 0.0 -8.999939 l 0.0 -8.999939 l 0.0 -9.000061 l 0.0 -9.000122 l 0.024475098 -8.999878 l 0.0 0.0 l 0.0 0.0 l 0.0 0.0 l 23.90918 22.310669 l 24.480408 19.940979 l 25.02713 17.57135 l 25.819366 15.35553 l 26.156769 12.772705 l 27.094727 10.510376 l 27.45227 8.084778 l 28.087402 5.753296 l 28.67633 3.5267334 l 0.0 0.0 l 6.1035156e-05 -6.1035156e-05 l 6.1035156e-05 -6.1035156e-05 l 33.30597 -1.2926636 l 31.694763 -3.3103027 l 30.197693 -5.468811 l 34.812866 -9.225952 l 16.967041 -5.97229 l 35.939087 -16.73767 l -0.48944092 0.288208 l 78.72308 -65.237976 l 0.12719727 -0.36816406 l 12.180115 -19.029846 l -28.217651 39.684753 l 0.0 0.0 l 0.0 0.0 l -0.00018310547 -0.00012207031 l -22.367004 19.163391 l -0.0692749 0.059753418 l 64.630005 -84.809204 l 0.012634277 -0.022033691 l 10.746704 -26.640808 l 8.28186 -27.503601 l 7.034363 -30.533386 l 5.3394775 -33.362366 l 5.539551 -43.86847 l 1.6438599 -24.651611 l -1.0444946 -64.90753 l 0.0 -59.463806 l 0.0 -59.463837 l 0.0 -59.463806 l 0.0 -59.463806 l 0.0 -60.72769 l 0.0 -59.463806 l 0.0 -59.463806 l -26.027283 -119.35474 l 0.46392822 -0.00038909912 l 22.812683 0.026889801 l 2.1828003 59.864426 l -109.36127 -59.892166 l 0.0060424805 1.1444092e-05 l 37.751465 -0.0019416809 l 0.3043213 -5.722046e-05 l -80.1358 0.4954567 l 0.0 0.0 l -69.71521 55.024696 l -2.578125 52.24031 l 18.373535 -107.75519 l 0.0 0.0 l 24.324463 0.004447937 l -0.008239746 3.8146973e-05 l -43.09088 175.06534 l 0.024230957 37.68878 l -1.3266602 59.503143 l 0.0 54.38492 l 0.0 54.38495 l 0.0 54.38492 l 0.0 54.38495 l 1.4138794 55.13983 l 0.0 0.0 l -0.0012817383 0.048217773 l -1.2749634 46.374817 l -0.019165039 0.42803955 l -9.735046 78.44617 l -2.4954224 10.817322 l 7.7509766 -41.17798 l 0.0 0.0 l -15.357727 66.05469 l 0.05895996 -0.14971924 l -17.181274 32.71112 l 0.0 0.0 l -0.22259521 0.28179932 l -14.9210205 14.617981 l 0.08728027 -0.06518555 l -22.935852 14.632751 l 0.0 0.0 l -38.08673 12.668274 l 0.0 0.0 l 3.965393 -0.8123779 l -58.074707 6.2454834 l 0.0 0.0 l -1.7442017 -0.05871582 l -41.670105 -5.43396 l -0.35876465 -0.06341553 l -42.808197 -15.363403 l -5.1402893 -2.5787354 l 0.0 0.0 l -22.424469 -15.153931 l -7.225586 -6.315857 l -15.402557 -17.805847 l 0.0 0.0 l -0.666626 -1.1933594 l -15.650085 -33.5719 l -4.0631714 -11.887878 l -11.173096 -44.841064 l 3.0935059 14.847595 l -8.556488 -46.592896 l -4.792816 -53.13257 l 1.4576111 19.552856 l -3.3914185 -59.465027 l 0.0 -47.082886 l 0.0 -47.082947 l 0.0 -47.082916 l 0.0 -47.082916 l 0.0 -47.082886 l 0.0496521 -83.33644 l 0.0011291504 31.941238 l -0.012054443 -98.81268 l 0.0 0.0 l -85.699615 -84.46849 l -0.4812622 -7.6293945e-06 l -43.599503 7.6293945e-06 l -0.3048401 0.0 l 113.06511 0.4263153 l -0.3738098 -0.026779175 l -27.839783 1.3899307 l -174.50787 -1.7853928 l -0.17858887 -9.918213e-05 l 43.93805 -0.0015563965 l -0.4709015 -0.00022888184 l -49.560593 96.73998 l 0.0 97.399994 l 0.0 97.400024 l 0.0 97.399994 l 0.0 97.39996 l 0.0 97.400024 l 0.0 97.39996 l 0.0 97.400024 l 0.0 194.79999 " /> </g> </svg>