<?xml version="1.0" standalone="no"?><!DOCTYPE svg PUBLIC "-//W3C//DTD SVG 1.1//EN" "http://www.w3.org/Graphics/SVG/1.1/DTD/svg11.dtd" ><svg xmlns="http://www.w3.org/2000/svg" xmlns:xlink="http://www.w3.org/1999/xlink" version="1.1" viewBox="-10 0 692 1000"><g transform="matrix(1 0 0 -1 0 800)"><path stroke="black" fill="none" d="M 130.23502 972.7338 l 11.6185 1.2504272 l 22.661865 0.006652832 l 22.59993 0.0 l 22.599945 0.0 l 22.599915 0.0 l 22.599945 0.0 l 22.59996 0.0 l 22.599945 0.0 l 22.599884 0.0 l 22.599945 0.0 l 22.599945 0.0 l 0.0 -9.0 l 0.0 -9.0 l 0.0 -9.0 l 0.0 -9.0 l 0.0 -9.0 l 0.0 -9.0 l 0.0 -9.0 l 0.0 -9.0 l 0.0 -9.0 l 0.00064086914 -9.0 l 0.0 0.0 l 0.0 0.0 l 0.0 0.0 l 23.900208 22.231995 l 24.499512 19.891296 l 25.098175 17.550537 l 25.703003 15.213684 l 26.296387 12.867554 l 26.904938 10.52948 l 27.49878 8.187317 l 28.09967 5.8476562 l 28.69934 3.510498 l 0.0 0.0 l 0.0 0.0 l 0.0 0.0 l 33.251465 -1.0756836 l 31.748596 -3.2125244 l 30.248718 -5.3529663 l 28.902344 -7.5336304 l 26.991638 -9.538086 l 49.646667 -25.455322 l -23.53833 13.502502 l 83.587036 -67.37793 l 13.898987 -21.593445 l -29.487122 40.96704 l 0.0 0.0 l 0.0 0.0 l 0.0 0.0 l -21.278198 18.214355 l 63.10742 -83.18042 l 10.662476 -26.260376 l 9.001465 -28.523743 l 7.371338 -30.842041 l 5.7299194 -33.155334 l 4.1361694 -35.6615 l 2.4395142 -37.4209 l -0.026245117 -59.83081 l 0.0 -59.69409 l 0.0 -59.69406 l 0.0 -59.69406 l 0.0 -59.69406 l 0.0 -59.72586 l 0.0 -59.694046 l 0.0 -59.69406 l -44.71826 -119.398865 l 21.908997 -3.8146973e-05 l 22.740112 0.000705719 l 0.054870605 59.704132 l -112.90857 -59.70483 l 22.980896 -4.9591064e-05 l 21.868774 -1.1444092e-05 l -68.94507 0.0040397644 l -20.424133 -0.001083374 l -68.45007 54.4252 l -0.0647583 54.34574 l 1.4522095 -108.773865 l 20.43518 -1.5258789e-05 l 23.249756 0.00023269653 l -45.147217 163.49814 l 0.00061035156 53.980118 l -0.033325195 54.52823 l 0.0 54.399597 l 0.0 54.39966 l 0.0 54.399597 l 0.0 54.39966 l 0.036132812 54.395386 l 0.0 0.0 l 0.0 0.0 l 0.0 0.0 l -0.42266846 28.398315 l -1.1629639 25.326721 l -8.440857 68.13727 l -4.352173 18.8042 l 10.598511 -60.826843 l -2.5305176 20.397766 l -19.174377 72.90448 l 5.788452 -14.904419 l -12.707153 28.876526 l 0.0 0.0 l -6.1035156e-05 0.00012207031 l -0.00018310547 0.00018310547 l -8.322266 10.491272 l -20.592102 17.87793 l 10.569824 -8.07074 l -35.766724 21.293945 l 12.068176 -5.4819946 l -43.812378 14.808655 l 15.814514 -3.84198 l -33.81598 6.7192993 l -0.04156494 0.0034179688 l -18.06305 1.6280518 l 0.0 0.0 l -21.663818 -0.727417 l -20.993652 -2.3011475 l -18.538452 -3.5811157 l -21.699402 -6.682556 l -11.298676 -4.5462036 l -16.748535 -8.727539 l -14.162933 -9.759033 l -12.513702 -10.979736 l -11.406494 -12.630188 l 0.0 0.0 l 0.0 0.0 l -3.0517578e-05 -6.1035156e-05 l -8.579041 -15.400757 l -8.020172 -18.27063 l -6.828705 -19.84491 l -11.043335 -46.594788 l 5.010559 24.169678 l -9.183807 -50.88922 l -5.5017395 -59.554504 l 2.278839 30.663635 l -3.6727295 -63.96405 l 0.0 -47.002075 l 0.0 -47.002075 l 0.0 -47.002075 l 0.0 -47.002075 l 0.0 -47.002106 l 0.0012512207 -93.732056 l 3.0517578e-05 46.621643 l -6.1035156e-05 -137.9539 l 3.0517578e-05 43.158844 l -68.25006 -93.08639 l -21.912323 0.0 l -23.259583 0.0 l -21.868881 0.0 l 134.8629 0.01071167 l -21.889008 -0.004173279 l -22.884186 0.03842163 l -158.61153 -0.04486084 l -21.825317 -5.340576e-05 l 66.99089 1.5258789e-05 l -21.910416 -2.2888184e-05 l -45.44313 97.38344 l 0.0 97.39998 l 0.0 97.400024 l 0.0 97.399994 l 0.0 97.399994 l 0.0 97.400024 l 0.0 97.39996 l 0.0 97.400024 l 0.0 194.80005 " /> </g> </svg>