<?xml version="1.0" standalone="no"?><!DOCTYPE svg PUBLIC "-//W3C//DTD SVG 1.1//EN" "http://www.w3.org/Graphics/SVG/1.1/DTD/svg11.dtd" ><svg xmlns="http://www.w3.org/2000/svg" xmlns:xlink="http://www.w3.org/1999/xlink" version="1.1" viewBox="-10 0 692 1000"><g transform="matrix(1 0 0 -1 0 800)"><path stroke="black" fill="none" d="M 130.203 972.73035 l 11.784439 1.2683105 l 22.605316 0.0005493164 l 22.599976 0.0 l 22.600006 0.0 l 22.59999 0.0 l 22.59999 0.0 l 22.600006 0.0 l 22.600006 0.0 l 22.599976 0.0 l 22.599976 0.0 l 22.600006 0.0 l 0.0 -9.0 l 0.0 -9.0 l 0.0 -9.0 l 0.0 -9.0 l 0.0 -9.0 l 0.0 -9.0 l 0.0 -9.0 l 0.0 -9.0 l 0.0 -9.0 l 6.1035156e-05 -9.0 l 0.0 0.0 l 0.0 0.0 l 0.0 0.0 l 23.900024 22.230164 l 24.499939 19.890137 l 25.099854 17.549988 l 25.700256 15.210388 l 26.299683 12.869751 l 26.900452 10.529907 l 27.499878 8.189819 l 28.099976 5.8497925 l 28.699951 3.5100708 l 0.0 0.0 l 0.0 0.0 l 0.0 0.0 l 33.250122 -1.0704956 l 31.749878 -3.210205 l 30.249878 -5.350281 l 28.763062 -7.4937134 l 27.227844 -9.622131 l 49.969727 -25.660706 l -24.188965 13.875 l 83.80914 -67.4895 l 13.936523 -21.645203 l -29.517212 40.997192 l 0.0 0.0 l 0.0 0.0 l 0.0 0.0 l -21.252441 18.192078 l 63.073242 -83.14343 l 10.660156 -26.250854 l 9.018433 -28.54779 l 7.3792725 -30.849304 l 5.7391357 -33.15045 l 4.1030884 -35.46814 l 2.458252 -37.72174 l -0.0022583008 -59.711243 l 0.0 -59.699524 l 0.0 -59.699493 l 0.0 -59.699463 l 0.0 -59.699524 l 0.0 -59.70221 l 0.0 -59.699493 l 0.0 -59.699493 l -45.15869 -119.3999 l 22.540771 -3.8146973e-06 l 22.612 6.1035156e-05 l 0.004699707 59.700356 l -112.99213 -59.700413 l 22.63263 -3.8146973e-06 l 22.537292 -3.8146973e-06 l -67.89819 0.00034713745 l -22.413391 -9.1552734e-05 l -67.855774 54.40216 l -0.005554199 54.395348 l 0.12463379 -108.79776 l 22.414246 0.0 l 22.655762 1.9073486e-05 l -45.195496 163.22559 l 6.1035156e-05 54.363968 l -0.0028686523 54.41101 l 0.0 54.399963 l 0.0 54.399994 l 0.0 54.399963 l 0.0 54.399933 l 0.003112793 54.399597 l 0.0 0.0 l 0.0 0.0 l 0.0 0.0 l -0.40197754 27.951904 l -1.1967773 26.061096 l -8.403503 67.746704 l -4.395935 18.99231 l 10.782776 -62.23761 l -2.7769165 22.383606 l -19.197754 72.51648 l 5.9818115 -15.403198 l -12.791748 29.098755 l 0.0 0.0 l 0.0 0.0 l 0.0 0.0 l -8.430237 10.6276245 l -20.708984 17.916382 l 10.963074 -8.371765 l -36.747925 21.793152 l 13.432007 -6.1018677 l -44.45929 15.093323 l 16.093811 -3.91333 l -33.54541 6.7199707 l -18.636475 1.6763916 l 0.0 0.0 l 0.0 0.0 l 6.1035156e-05 0.0 l -21.736816 -0.7394409 l -20.496674 -2.2269897 l -19.097534 -3.6898193 l -18.180206 -5.308899 l -16.099518 -6.4786377 l -15.37854 -8.19043 l -13.968292 -9.631897 l -12.638275 -11.089661 l -11.354767 -12.5841675 l 0.0 0.0 l 0.0 0.0 l 0.0 0.0 l -8.726288 -15.665405 l -7.8371887 -17.904358 l -6.89386 -20.032349 l -11.040314 -46.63617 l 5.0557556 24.389343 l -9.198578 -50.99048 l -5.518463 -59.70575 l 2.2982178 30.925415 l -3.6793823 -64.07007 l 0.0 -47.000183 l 0.0 -47.000153 l 0.0 -47.000183 l 0.0 -47.000183 l 0.0 -47.000183 l 0.00012207031 -93.977005 l 0.0 46.967545 l 0.0 -140.7387 l 0.0 46.670486 l -67.83862 -93.92164 l -22.541016 0.0 l -22.656586 0.0 l -22.537292 0.0 l 135.5368 0.00091552734 l -22.539032 -0.00035095215 l -22.62439 0.0032958984 l -158.23529 -0.0038528442 l -22.533539 0.0 l 67.73059 0.0 l -22.540848 -7.6293945e-06 l -45.220856 97.39858 l 0.0 97.39998 l 0.0 97.400024 l 0.0 97.399994 l 0.0 97.400024 l 0.0 97.400024 l 0.0 97.39996 l 0.0 97.400024 l 0.0 194.79993 " /> </g> </svg>