<?xml version="1.0" standalone="no"?><!DOCTYPE svg PUBLIC "-//W3C//DTD SVG 1.1//EN" "http://www.w3.org/Graphics/SVG/1.1/DTD/svg11.dtd" ><svg xmlns="http://www.w3.org/2000/svg" xmlns:xlink="http://www.w3.org/1999/xlink" version="1.1" viewBox="-10 0 692 1000"><g transform="matrix(1 0 0 -1 0 800)"><path stroke="black" fill="none" d="M 139.27403 973.7066 l 0.0 0.0 l 25.014572 0.2630005 l 22.57071 0.0 l 22.57071 0.0 l 22.57071 0.0 l 22.57071 0.0 l 22.57071 0.0 l 22.57074 0.0 l 22.570679 0.0 l 22.57071 0.0 l 22.57074 -0.00079345703 l 3.0517578e-05 -8.999756 l 0.0 -8.999451 l 0.0 -8.999451 l 0.0 -9.000549 l 0.0 -9.000549 l 0.0 -8.999451 l 0.0 -8.999451 l 0.0 -9.000488 l 3.0517578e-05 -9.0008545 l 0.20703125 -8.998962 l 0.0 0.0 l -0.0005493164 0.0 l 11.896332 13.159729 l 12.189575 10.010193 l 12.290436 13.669861 l 11.98111 6.8146973 l 10.978882 13.345276 l 13.2717285 4.4537354 l 8.168274 12.186279 l 10.150055 6.999939 l 8.772919 -2.2803955 l 0.0010070801 0.008422852 l 11.0460205 13.141846 l 13.583496 -1.4137573 l 8.0164795 9.413879 l 11.550049 3.250061 l 9.603424 -2.3624268 l 14.99646 7.3624268 l 11.9470215 -0.3996582 l 14.653076 3.3996582 l 13.300476 1.3227539 l 0.0007324219 -0.0005493164 l 28.789429 3.253662 l 0.0 0.0 l 33.53766 -3.2148438 l 31.105652 -4.378662 l 29.640747 -6.7353516 l 48.250244 -11.09668 l 0.0 0.0 l 2.585083 -30.240356 l 29.297913 6.9904175 l 17.38208 -47.310425 l 67.45422 -15.305481 l 0.0 0.0 l -0.13781738 -0.60546875 l -15.10968 25.126465 l 0.0 0.0 l -33.502014 30.078674 l 0.0 0.0 l 72.91528 9.6658325 l 26.450012 18.720032 l 27.949951 15.839966 l 29.450012 12.960022 l 30.950012 10.079956 l 32.450012 7.200012 l 33.94995 4.3200073 l 0.0 0.0 l 62.51001 -3.9899902 l 55.930054 -11.970032 l 49.349976 -19.949951 l 42.77002 -27.929993 l 36.18994 -35.910034 l 29.609985 -43.890015 l 23.03003 -51.869995 l 16.450073 -59.849976 l 9.869995 -67.83002 l 0.0 -60.200012 l 0.0 -60.19995 l 0.0 -60.200012 l 0.0 -60.200012 l 0.0 -60.200012 l 0.0 -60.19998 l 0.0 -60.200012 l 0.0 -60.199997 l 0.0 -60.200012 l 0.0 -60.199997 l -22.600098 0.0 l -22.599976 0.0 l -22.599976 0.0 l -22.599976 0.0 l -22.599976 0.0 l -22.600098 0.0 l -22.599976 0.0 l -22.599976 0.0 l -22.599976 0.0 l -22.599976 0.0 l 0.0 54.100006 l 0.0 54.09999 l 0.0 54.09999 l 0.0 54.100006 l 0.0 54.100006 l 0.0 54.100006 l 0.0 54.099976 l 0.0 54.100006 l 0.0 54.099976 l 0.0 54.100037 l 0.0 0.0 l -0.3400879 27.179993 l -1.0200195 25.539978 l -1.6999512 23.900024 l -2.380005 22.26001 l -3.0599365 20.619995 l -3.7399902 18.97998 l -4.420044 17.340027 l -5.0999756 15.700012 l -5.7800293 14.059998 l 0.0 0.0 l -7.449951 11.209961 l -8.350098 10.030029 l -9.25 8.849976 l -10.149902 7.669983 l -11.050049 6.4900513 l -11.949951 5.3099976 l -12.850098 4.130005 l -13.75 2.9499512 l -14.649902 1.7700195 l 0.0 0.0 l -18.095093 -0.7000122 l -17.08496 -2.0999756 l -16.075012 -3.5 l -15.065002 -4.9000244 l -14.054993 -6.299988 l -13.044983 -7.700012 l -12.035034 -9.099976 l -11.024963 -10.5 l -29.908386 4.3120728 l 0.0 0.0 l 0.113342285 -0.19213867 l 11.705017 -30.869873 l 0.4152832 -16.352112 l 3.3512573 -27.159485 l -22.89154 -11.238464 l 23.96283 -24.386536 l -32.46283 -20.613464 l 45.755066 -43.4422 l 0.0 0.0 l -50.85504 -8.357788 l -1.2750244 -28.450012 l 40.488953 -38.187256 l 0.0 -56.94684 l 0.0 -56.946777 l 0.0 -56.946808 l 0.0 -56.946808 l -40.488953 -35.82553 l 40.488953 -35.85379 l 0.0 -56.946808 l 0.0 -56.946808 l -3.3901367 -117.22731 l 0.0 0.0 l -3.229248 60.28051 l -79.06958 5.494217 l -0.2980957 -66.973465 l 0.0 0.0 l -52.354797 19.264969 l -15.147095 47.708496 l -22.599976 0.0 l -30.052917 29.224724 l 33.466003 -95.23167 l 0.0 0.0 l -71.21307 66.00694 l -22.600037 0.0 l 0.0 53.799995 l 52.3479 81.41492 l 0.0 0.0 l -52.3479 26.18509 l 40.488953 46.255157 l 0.0 54.224274 l 0.0 54.224274 l 0.0 54.224274 l 0.0 54.224274 l 15.994019 64.91931 l 0.0 0.0 l -12.349976 119.77545 l 0.0 0.0 l 2.7331543 -31.804749 l -48.36615 9.957703 l -4.5 44.200012 l 25.670532 37.663696 l 0.0 0.0 l -55.882996 37.839966 l 0.0 0.0 l -51.94696 10.641846 l 0.0 0.0 l 34.159424 38.65448 l -19.5 18.200012 l -22.5 13.0 l -25.5 7.799988 l 0.0 0.0 l -49.577057 -87.73163 l 0.0 0.0 l 13.637054 84.89166 l -16.424988 -3.5499878 l -15.394989 -4.9700317 l -14.365021 -6.3900146 l -13.334991 -7.8099976 l -12.304993 -9.22998 l -11.274994 -10.650024 l -10.245026 -12.069946 l 0.0 0.0 l -8.264984 -15.02002 l -7.394989 -16.660034 l 22.894531 -43.832092 l 0.0 0.0 l -35.074554 5.592102 l 15.3958435 -23.658875 l -6.4532166 -33.115295 l 0.0 0.0 l -20.687622 -12.885803 l 12.295807 -21.051147 l 0.0 0.0 l -9.355286 -41.628662 l -1.5395813 -39.381714 l 0.0 0.0 l -3.339447 -55.73822 l 0.0 -47.96649 l 0.0 -47.966583 l 0.0 -47.966553 l 0.0 -47.966522 l 0.0 -47.966553 l 0.45150757 -54.34958 l 0.0 0.0 l -0.45150757 -74.817535 l -103.35913 -102.05043 l 0.0 0.0 l 79.31763 71.20999 l -21.099915 -50.360138 l -23.900085 50.360138 l -22.5 0.0 l -22.499985 0.0 l -22.5 0.0 l -22.5 0.0 l -22.5 0.0 l -9.952164 -69.430504 l 0.0 0.0 l -34.213455 87.94256 l 0.0 97.40001 l 0.0 97.400024 l 0.0 97.399994 l 0.0 97.39996 l 0.0 97.400024 l 0.0 97.39996 l 0.0 97.400024 l -0.8343811 78.88794 l 0.8343811 115.91205 l -0.8343811 78.88794 " /> </g> </svg>