<?xml version="1.0" standalone="no"?><!DOCTYPE svg PUBLIC "-//W3C//DTD SVG 1.1//EN" "http://www.w3.org/Graphics/SVG/1.1/DTD/svg11.dtd" ><svg xmlns="http://www.w3.org/2000/svg" xmlns:xlink="http://www.w3.org/1999/xlink" version="1.1" viewBox="-10 0 692 1000"><g transform="matrix(1 0 0 -1 0 800)"><path stroke="black" fill="none" d="M 130.60829 972.774 l 9.684158 1.0422363 l 23.321106 0.077697754 l 22.599258 0.0 l 22.599258 0.0 l 22.599258 0.0 l 22.599274 0.0 l 22.599258 0.0 l 22.599274 0.0 l 22.599243 0.0 l 22.599274 0.0 l 22.599274 -6.1035156e-05 l 0.0 -8.999939 l 0.0 -9.0 l 0.0 -9.0 l 0.0 -9.0 l 0.0 -9.0 l 0.0 -9.0 l 0.0 -9.0 l 0.0 -9.0 l 0.0 -9.000061 l 0.007293701 -8.999939 l 0.0 0.0 l 0.0 0.0 l 0.0 0.0 l 23.902557 22.253601 l 24.494263 19.904968 l 25.078674 17.556213 l 25.734955 15.252686 l 26.258057 12.841492 l 26.957031 10.524231 l 27.486023 8.15918 l 28.096313 5.8216553 l 28.692444 3.515686 l 0.0 0.0 l 0.0 0.0 l 0.0 0.0 l 33.26703 -1.1359863 l 31.733826 -3.239441 l 30.23468 -5.3847656 l 30.525757 -7.998413 l 24.23822 -8.558716 l 45.881653 -23.060852 l -15.954712 9.160156 l 80.99823 -66.07733 l 13.461792 -20.990479 l -29.137268 40.615723 l 0.0 0.0 l 0.0 0.0 l 0.0 0.0 l -21.578491 18.474121 l 63.506653 -83.61133 l 10.689026 -26.37091 l 8.803833 -28.243591 l 7.2788086 -30.757202 l 5.6226807 -33.21222 l 4.5216064 -37.91571 l 2.2209473 -33.913574 l -0.3059082 -61.22522 l 0.0 -59.63086 l 0.0 -59.63083 l 0.0 -59.63083 l 0.0 -59.63083 l 0.0 -60.001007 l 0.0 -59.630814 l 0.0 -59.630814 l -39.584473 -119.38675 l 14.545166 -0.00045013428 l 24.233643 0.008213043 l 0.63934326 59.74816 l -111.934265 -59.756287 l 0.017028809 3.4332275e-05 l 27.02301 -0.00059890747 l 14.076172 -0.0001411438 l -81.147705 0.047073364 l -0.56469727 -0.00447464 l -72.04913 54.685608 l -0.75512695 53.767456 l 16.927979 -108.49525 l 0.5812378 -5.722046e-05 l 26.957947 0.0026130676 l -0.029785156 0.0001449585 l -44.55487 166.67514 l 0.007080078 49.505386 l -0.3885498 55.894684 l 0.0 54.39557 l 0.0 54.39563 l 0.0 54.39557 l 0.0 54.39557 l 0.4192505 54.42047 l 0.0 0.0 l -6.1035156e-05 0.0012207031 l -0.0014648438 0.05645752 l -0.6602783 33.470886 l -0.76916504 16.766235 l -8.875977 72.69043 l -3.842163 16.610413 l 8.451111 -44.381226 l -0.06933594 0.56121826 l -18.490662 74.115234 l 3.5338135 -9.090149 l -12.178284 26.862183 l 0.0 0.0 l -0.033081055 0.041625977 l -6.575989 8.288147 l -19.229675 17.429382 l 5.9852905 -4.5617676 l -24.33191 15.476685 l 0.23724365 -0.10723877 l -40.335327 13.338928 l 0.0053100586 -0.0018920898 l 12.553894 -3.0076904 l -36.954895 6.7095947 l 0.0 0.0 l -2.7330322 0.21966553 l -30.000427 0.30322266 l -26.787415 -3.1656494 l -12.021118 -2.314331 l -34.053528 -11.212402 l 0.0 0.0 l -16.722809 -8.491089 l 0.006958008 0.003540039 l -16.439209 -11.244446 l -11.061218 -9.6987915 l -12.154755 -13.426575 l 0.0 0.0 l -0.0052490234 -0.009338379 l -6.712616 -12.047668 l -10.153076 -22.54004 l -6.0691223 -17.659363 l -11.0789795 -46.1131 l 4.484009 21.609192 l -9.011505 -49.709167 l -5.307007 -57.79059 l 2.0532837 27.611877 l -3.5954895 -62.728333 l 0.0 -47.02423 l 0.0 -47.024323 l 0.0 -47.024292 l 0.0 -47.02426 l 0.0 -47.024292 l 0.014556885 -90.87671 l 0.00033569336 42.589386 l -0.0005187988 -105.492065 l 0.00030517578 2.3370667 l -73.04602 -83.46289 l -14.584015 -7.6293945e-06 l -30.288666 7.6293945e-06 l -14.077393 0.0 l 127.0076 0.12486267 l -14.312073 -0.04864502 l -25.912628 0.4479065 l -162.9972 -0.52293396 l -13.569519 -0.00061798096 l 58.368317 0.0001373291 l -14.561615 -0.0002593994 l -48.03412 97.20687 l 0.0 97.40001 l 0.0 97.400024 l 0.0 97.399994 l 0.0 97.39996 l 0.0 97.400024 l 0.0 97.39996 l 0.0 97.400024 l 0.0 194.80005 " /> </g> </svg>