<?xml version="1.0" standalone="no"?><!DOCTYPE svg PUBLIC "-//W3C//DTD SVG 1.1//EN" "http://www.w3.org/Graphics/SVG/1.1/DTD/svg11.dtd" ><svg xmlns="http://www.w3.org/2000/svg" xmlns:xlink="http://www.w3.org/1999/xlink" version="1.1" viewBox="-10 0 692 1000"><g transform="matrix(1 0 0 -1 0 800)"><path stroke="black" fill="none" d="M 134.95946 973.24225 l 0.07484436 0.008056641 l 25.242554 0.28533936 l 22.591415 0.0 l 22.591415 0.0 l 22.591415 0.0 l 22.59143 0.0 l 22.591415 0.0 l 22.59143 0.0 l 22.5914 0.0 l 22.59143 0.0 l 22.59143 -0.00036621094 l 0.0 -8.999878 l 0.0 -8.999756 l 0.0 -8.999756 l 0.0 -9.000244 l 0.0 -9.000244 l 0.0 -8.999756 l 0.0 -8.999756 l 0.0 -9.000244 l 3.0517578e-05 -9.000366 l 0.07839966 -8.999573 l 0.0 0.0 l -6.1035156e-05 0.0 l -9.1552734e-05 0.0 l 11.817505 13.159912 l 12.119171 9.345398 l 12.36084 14.334656 l 12.072235 5.729492 l 10.887756 14.430481 l 13.96347 3.1924438 l 7.476532 13.447571 l 10.1501465 6.999878 l 8.480804 -4.7407227 l 0.0037231445 0.03112793 l 11.335327 15.579529 l 14.471985 -3.0726929 l 7.1279907 11.072815 l 11.550079 3.250061 l 8.88678 -3.8598022 l 15.713074 8.859802 l 11.623962 -1.0292358 l 14.976135 4.029236 l 13.080933 1.4905396 l 0.0007324219 -0.00061035156 l 28.6427 3.5377197 l 0.0 0.0 l 0.00024414062 -0.00036621094 l 33.416992 -1.8002319 l 31.56128 -3.5523071 l 30.071533 -5.7557373 l 49.44879 -13.416443 l 0.36468506 -0.119140625 l 0.62213135 -31.47345 l 36.315125 13.845581 l 0.0 0.0 l 10.364868 -54.16559 l 69.73645 -12.753296 l 0.034301758 -0.096069336 l 8.331421 -13.865112 l -25.124512 36.47345 l 0.0 0.0 l -0.0006713867 -0.0004272461 l -25.012512 21.549438 l -0.011413574 0.009887695 l 63.66693 17.64215 l 26.450012 18.720032 l 27.949951 15.839966 l 29.450012 12.960022 l 30.950012 10.079956 l 32.450012 7.200012 l 33.94995 4.3200073 l 0.0 0.0 l 62.51001 -3.9899902 l 55.930054 -11.970032 l 49.349976 -19.949951 l 42.77002 -27.929993 l 36.18994 -35.910034 l 29.609985 -43.890015 l 23.03003 -51.869995 l 16.450073 -59.849976 l 9.869995 -67.83002 l 0.0 -60.200012 l 0.0 -60.19995 l 0.0 -60.200012 l 0.0 -60.200012 l 0.0 -60.200012 l 0.0 -60.19998 l 0.0 -60.200012 l 0.0 -60.199997 l 0.0 -60.200012 l 0.0 -60.199997 l -22.600098 0.0 l -22.599976 0.0 l -22.599976 0.0 l -22.599976 0.0 l -22.599976 0.0 l -22.600098 0.0 l -22.599976 0.0 l -22.599976 0.0 l -22.599976 0.0 l -22.599976 0.0 l 0.0 54.100006 l 0.0 54.09999 l 0.0 54.09999 l 0.0 54.100006 l 0.0 54.100006 l 0.0 54.100006 l 0.0 54.099976 l 0.0 54.100006 l 0.0 54.099976 l 0.0 54.100037 l 0.0 0.0 l -0.3400879 27.179993 l -1.0200195 25.539978 l -1.6999512 23.900024 l -2.380005 22.26001 l -3.0599365 20.619995 l -3.7399902 18.97998 l -4.420044 17.340027 l -5.0999756 15.700012 l -5.7800293 14.059998 l 0.0 0.0 l -7.449951 11.209961 l -8.350098 10.030029 l -9.25 8.849976 l -10.149902 7.669983 l -11.050049 6.4900513 l -11.949951 5.3099976 l -12.850098 4.130005 l -13.75 2.9499512 l -14.649902 1.7700195 l 0.0 0.0 l -18.095093 -0.7000122 l -17.08496 -2.0999756 l -16.075012 -3.5 l -15.065002 -4.9000244 l -14.054993 -6.299988 l -13.044983 -7.700012 l -12.035034 -9.099976 l -11.024963 -10.5 l -32.935974 9.592712 l 0.0037841797 -0.0065307617 l 0.78338623 -1.3638306 l 10.212097 -26.289062 l 6.499756 -24.977356 l 6.200012 -29.769043 l -27.978088 -8.68689 l 32.350647 -25.18805 l -40.850647 -19.81195 l 49.86566 -44.380676 l 0.0690918 -0.6463623 l -55.03473 -6.772949 l -1.2750244 -28.450012 l 52.3479 -34.639526 l 0.0 -58.893616 l 0.0 -58.893616 l 0.0 -58.893585 l 0.0 -58.893616 l -52.3479 -31.58606 l 52.3479 -31.62262 l 0.0 -58.8936 l 0.0 -58.8936 l -14.535522 -119.21471 l 0.0 0.0 l 5.15271 0.059734344 l 7.444031 60.26136 l -95.60913 7.1034393 l -4.967407 -67.45953 l 0.0 0.0 l 29.95813 0.0020523071 l 0.0 0.0 l -79.82654 5.7755013 l -12.964172 61.681984 l -46.03351 -9.241882 l -8.802307 47.02633 l 30.077026 -105.180405 l 6.581787 -0.03717041 l 0.0 0.0 l -72.22296 67.43313 l -22.600037 0.0 l 0.0 53.799995 l 56.79474 82.47781 l 0.04260254 1.3161621 l -56.83734 23.80603 l 52.3479 44.04535 l 0.0 54.34851 l 0.0 54.34854 l 0.0 54.34854 l 0.0 54.34854 l 4.6224976 64.73688 l 0.0 0.0 l -0.9439087 33.263245 l 0.0 0.0 l -12.112915 91.67334 l -0.03387451 0.15283203 l 7.2175903 -39.85431 l -52.59729 14.588501 l -4.5 44.200012 l 40.665833 9.938171 l 0.0 0.0 l -14.959473 27.796814 l 0.0 0.0 l -18.829834 18.273132 l 0.0 0.0 l -13.0685425 8.863037 l -43.7229 16.257141 l 0.0 0.0 l -55.937805 5.7391357 l 0.0 0.0 l 57.852722 37.932556 l -19.5 18.200012 l -22.5 13.0 l -25.5 7.799988 l 0.0 0.0 l -41.80493 -84.630554 l 0.0 0.0 l -38.29297 -15.213196 l 0.0 0.0 l 44.157898 97.003784 l -16.424988 -3.5499878 l -15.394989 -4.9700317 l -14.365021 -6.3900146 l -13.334991 -7.8099976 l -12.304993 -9.22998 l -11.274994 -10.650024 l -10.245026 -12.069946 l 0.0 0.0 l -8.264984 -15.02002 l -7.394989 -16.660034 l 33.679443 -32.874634 l -0.1524353 -0.123046875 l -45.70703 -5.2423096 l 30.255249 -12.452087 l 0.0 0.0 l -19.736267 -45.144165 l -0.06463623 -0.20880127 l -22.19934 -11.854919 l 13.473358 -20.86554 l 0.06451416 0.28649902 l -8.716797 -44.455566 l -3.037201 -37.22937 l 0.036132812 0.45544434 l -3.3070068 -56.740906 l 0.0 -47.28308 l 0.0 -47.28311 l 0.0 -47.28311 l 0.0 -47.28308 l 0.0 -47.28308 l 0.16946411 -57.592285 l 0.0014648438 1.0182495 l -0.17092896 -80.960205 l -95.67636 -96.360634 l 0.0 0.0 l -30.151932 3.8146973e-05 l 0.0 0.0 l 109.414566 4.6402664 l 0.0 0.0 l -28.769135 1.4691925 l -24.31015 65.11028 l -22.5 0.0 l -22.499985 0.0 l -22.5 0.0 l -22.5 0.0 l -22.5 0.0 l -27.672775 -71.17357 l 0.0 0.0 l 25.074432 -0.020751953 l 0.0 0.0 l -41.32289 95.12843 l 0.0 97.40001 l 0.0 97.400024 l 0.0 97.399994 l 0.0 97.39996 l 0.0 97.400024 l 0.0 97.39996 l 0.0 97.400024 l -1.0787659 73.46588 l 1.0787659 121.33417 l -1.0787659 73.46582 " /> </g> </svg>