<?xml version="1.0" standalone="no"?><!DOCTYPE svg PUBLIC "-//W3C//DTD SVG 1.1//EN" "http://www.w3.org/Graphics/SVG/1.1/DTD/svg11.dtd" ><svg xmlns="http://www.w3.org/2000/svg" xmlns:xlink="http://www.w3.org/1999/xlink" version="1.1" viewBox="-10 0 692 1000"><g transform="matrix(1 0 0 -1 0 800)"><path stroke="black" fill="none" d="M 130.20088 972.7301 l 11.795441 1.2694702 l 22.601562 0.00018310547 l 22.59999 0.0 l 22.600006 0.0 l 22.59999 0.0 l 22.59999 0.0 l 22.600021 0.0 l 22.600006 0.0 l 22.599976 0.0 l 22.599976 0.0 l 22.600006 0.0 l 0.0 -9.0 l 0.0 -9.0 l 0.0 -9.0 l 0.0 -9.0 l 0.0 -9.0 l 0.0 -9.0 l 0.0 -9.0 l 0.0 -9.0 l 0.0 -9.0 l 3.0517578e-05 -9.0 l 0.0 0.0 l 0.0 0.0 l 0.0 0.0 l 23.899994 22.230042 l 24.5 19.890015 l 25.099945 17.549988 l 25.700104 15.210144 l 26.299896 12.869934 l 26.900146 10.529968 l 27.499939 8.189941 l 28.099976 5.8499756 l 28.700012 3.5100098 l 0.0 0.0 l 0.0 0.0 l 0.0 0.0 l 33.25006 -1.0701294 l 31.749939 -3.210083 l 30.249939 -5.3500977 l 28.753845 -7.491089 l 27.24353 -9.627686 l 49.99109 -25.674316 l -24.232117 13.899719 l 83.82391 -67.49695 l 13.939026 -21.64862 l -29.519226 40.999207 l 0.0 0.0 l 0.0 0.0 l 0.0 0.0 l -21.250732 18.190613 l 63.070984 -83.14099 l 10.660034 -26.250244 l 9.019531 -28.549377 l 7.379822 -30.849792 l 5.739685 -33.150146 l 4.100891 -35.45526 l 2.4595337 -37.74176 l -0.0006713867 -59.703247 l 0.0 -59.69989 l 0.0 -59.69986 l 0.0 -59.69983 l 0.0 -59.69986 l 0.0 -59.700684 l 0.0 -59.69983 l 0.0 -59.69986 l -45.187927 -119.39996 l 22.582703 -3.8146973e-06 l 22.603516 1.9073486e-05 l 0.0013427734 59.700104 l -112.99768 -59.70012 l 22.609558 -3.8146973e-06 l 22.581665 0.0 l -67.8288 0.000102996826 l -22.54535 -2.670288e-05 l -67.816345 54.40063 l -0.0015869141 54.398643 l 0.036499023 -108.79935 l 22.545532 0.0 l 22.616394 7.6293945e-06 l -45.19867 163.20749 l 0.0 54.389465 l -0.0008544922 54.40323 l 0.0 54.399963 l 0.0 54.400024 l 0.0 54.399994 l 0.0 54.399963 l 0.00091552734 54.399902 l 0.0 0.0 l 0.0 0.0 l 0.0 0.0 l -0.40057373 27.922241 l -1.1990356 26.109863 l -8.401062 67.720764 l -4.3988037 19.004822 l 10.794983 -62.3313 l -2.793274 22.515442 l -19.19934 72.49072 l 5.99469 -15.43634 l -12.797607 29.11377 l 0.0 0.0 l 0.0 0.0 l 0.0 0.0 l -8.437134 10.636414 l -20.716736 17.918945 l 10.989136 -8.391785 l -36.81305 21.826294 l 13.522522 -6.1430054 l -44.502197 15.112244 l 16.112366 -3.9180908 l -33.527466 6.7200317 l -18.667358 1.6789551 l 0.0 0.0 l 0.0 0.0 l 0.0 0.0 l -21.746033 -0.73986816 l -20.463654 -2.222046 l -19.134644 -3.6970215 l -17.946716 -5.2177734 l -16.41806 -6.6068726 l -15.287628 -8.154724 l -13.955383 -9.623535 l -12.646545 -11.096924 l -11.35141 -12.581238 l 0.0 0.0 l 0.0 0.0 l 0.0 0.0 l -8.735962 -15.6828 l -7.8250427 -17.880066 l -6.898224 -20.0448 l -11.04007 -46.638916 l 5.0587463 24.40393 l -9.199585 -50.997192 l -5.519562 -59.71582 l 2.2994995 30.94281 l -3.6798096 -64.07709 l 0.0 -47.00006 l 0.0 -47.00003 l 0.0 -47.00006 l 0.0 -47.00006 l 0.0 -47.00006 l 3.0517578e-05 -93.993256 l 0.0 46.99048 l 0.0 -140.92345 l 0.0 46.90349 l -67.81134 -93.97706 l -22.582703 0.0 l -22.616577 0.0 l -22.581635 0.0 l 135.58151 0.0002670288 l -22.582153 -9.918213e-05 l -22.607147 0.0009613037 l -158.21034 -0.0011291504 l -22.580536 0.0 l 67.77968 0.0 l -22.582687 0.0 l -45.2061 97.39959 l 0.0 97.39998 l 0.0 97.400024 l 0.0 97.399994 l 0.0 97.399994 l 0.0 97.400024 l 0.0 97.39996 l 0.0 97.400024 l 0.0 194.79993 " /> </g> </svg>