<?xml version="1.0" standalone="no"?><!DOCTYPE svg PUBLIC "-//W3C//DTD SVG 1.1//EN" "http://www.w3.org/Graphics/SVG/1.1/DTD/svg11.dtd" ><svg xmlns="http://www.w3.org/2000/svg" xmlns:xlink="http://www.w3.org/1999/xlink" version="1.1" viewBox="-10 0 692 1000"><g transform="matrix(1 0 0 -1 0 800)"><path stroke="black" fill="none" d="M 130.21025 972.73114 l 11.746841 1.2642212 l 22.618134 0.001953125 l 22.599976 0.0 l 22.599976 0.0 l 22.599976 0.0 l 22.59999 0.0 l 22.599976 0.0 l 22.600006 0.0 l 22.599945 0.0 l 22.599976 0.0 l 22.600006 0.0 l 0.0 -9.0 l 0.0 -9.0 l 0.0 -9.0 l 0.0 -9.0 l 0.0 -9.0 l 0.0 -9.0 l 0.0 -9.0 l 0.0 -9.0 l 0.0 -9.0 l 0.00018310547 -9.0 l 0.0 0.0 l 0.0 0.0 l 0.0 0.0 l 23.900055 22.23059 l 24.499847 19.89038 l 25.099487 17.55011 l 25.700867 15.211121 l 26.29895 12.869263 l 26.90149 10.529846 l 27.499634 8.189209 l 28.099854 5.849365 l 28.69983 3.5101318 l 0.0 0.0 l 0.0 0.0 l 0.0 0.0 l 33.250427 -1.0716553 l 31.749573 -3.2107544 l 30.249634 -5.350891 l 28.794617 -7.5027466 l 27.174316 -9.603088 l 49.896545 -25.614197 l -24.041565 13.790649 l 83.75885 -67.46423 l 13.9279785 -21.633484 l -29.510376 40.990356 l 0.0 0.0 l 0.0 0.0 l 0.0 0.0 l -21.25824 18.197144 l 63.080933 -83.151794 l 10.660706 -26.253052 l 9.014587 -28.542358 l 7.3775024 -30.847656 l 5.7369995 -33.15155 l 4.1105957 -35.5119 l 2.4540405 -37.653625 l -0.0076904297 -59.738342 l 0.0 -59.698242 l 0.0 -59.698303 l 0.0 -59.698242 l 0.0 -59.698273 l 0.0 -59.70758 l 0.0 -59.698257 l 0.0 -59.698257 l -45.05896 -119.39966 l 22.397644 -1.1444092e-05 l 22.641052 0.00020599365 l 0.016052246 59.70121 l -112.973206 -59.701412 l 22.711548 -1.5258789e-05 l 22.385864 -3.8146973e-06 l -68.135376 0.0011825562 l -21.962769 -0.00031661987 l -67.99036 54.407383 l -0.018981934 54.38411 l 0.425354 -108.79234 l 21.965881 -3.8146973e-06 l 22.790344 6.866455e-05 l -45.18451 163.28732 l 0.00018310547 54.277023 l -0.009765625 54.43756 l 0.0 54.39987 l 0.0 54.399902 l 0.0 54.399902 l 0.0 54.39987 l 0.010559082 54.39856 l 0.0 0.0 l 0.0 0.0 l 0.0 0.0 l -0.40667725 28.0531 l -1.1890869 25.894775 l -8.411987 67.835144 l -4.3859863 18.949707 l 10.740967 -61.91803 l -2.7210693 21.933777 l -19.192444 72.60431 l 5.9379883 -15.290161 l -12.772034 29.047668 l 0.0 0.0 l 0.0 0.0 l 0.0 6.1035156e-05 l -8.406372 10.597473 l -20.682495 17.907654 l 10.873962 -8.303589 l -36.525635 21.680115 l 13.123047 -5.961426 l -44.312744 15.028809 l 16.030518 -3.8971558 l -33.60669 6.7197876 l -18.526855 1.6672974 l 0.0 0.0 l 0.00012207031 0.0 l -21.709473 -0.73779297 l -20.609253 -2.2437744 l -18.970886 -3.6652222 l -18.977448 -5.620056 l -15.011932 -6.0408936 l -15.688904 -8.312073 l -14.01236 -9.660706 l -12.610077 -11.064758 l -11.3663025 -12.594299 l 0.0 0.0 l -3.0517578e-05 0.0 l 0.0 0.0 l -8.693085 -15.605774 l -7.8786316 -17.987305 l -6.87912 -19.98993 l -11.040985 -46.62677 l 5.045532 24.3396 l -9.195251 -50.96753 l -5.514679 -59.67151 l 2.2938232 30.866089 l -3.6778564 -64.04602 l 0.0 -47.00061 l 0.0 -47.00061 l 0.0 -47.00061 l 0.0 -47.00061 l 0.0 -47.00061 l 0.00036621094 -93.921524 l 0.0 46.889175 l 0.0 -140.10782 l 0.0 45.874954 l -67.93182 -93.732414 l -22.39859 0.0 l -22.793198 0.0 l -22.385864 0.0 l 135.38414 0.0031356812 l -22.391785 -0.0012207031 l -22.683228 0.011253357 l -158.32053 -0.013137817 l -22.373108 -1.5258789e-05 l 67.56302 0.0 l -22.398026 -7.6293945e-06 l -45.27121 97.39516 l 0.0 97.39998 l 0.0 97.400024 l 0.0 97.399994 l 0.0 97.400024 l 0.0 97.400024 l 0.0 97.39996 l 0.0 97.400024 l 0.0 194.79993 " /> </g> </svg>