<?xml version="1.0" standalone="no"?><!DOCTYPE svg PUBLIC "-//W3C//DTD SVG 1.1//EN" "http://www.w3.org/Graphics/SVG/1.1/DTD/svg11.dtd" ><svg xmlns="http://www.w3.org/2000/svg" xmlns:xlink="http://www.w3.org/1999/xlink" version="1.1" viewBox="-10 0 692 1000"><g transform="matrix(1 0 0 -1 0 800)"><path stroke="black" fill="none" d="M 142.0 974.0 l 22.600006 0.0 l 22.59999 0.0 l 22.600006 0.0 l 22.59999 0.0 l 22.600006 0.0 l 22.600006 0.0 l 22.600006 0.0 l 22.599976 0.0 l 22.600006 0.0 l 22.600006 0.0 l 0.0 -9.0 l 0.0 -9.0 l 0.0015563965 -9.00116 l 12.5920105 -11.989868 l -12.593597 -6.0095215 l -12.961212 -10.774292 l 12.959656 -7.2246094 l 0.0015869141 -9.000549 l -0.0075683594 -9.001465 l -55.868896 -1.420166 l 0.36587524 0.85302734 l 79.41058 13.798584 l 24.5 19.890015 l 12.209442 19.968323 l 34.948944 11.780518 l 36.058075 9.002136 l 20.78357 15.408997 l 23.541443 -11.173035 l 0.0 0.0 l 39.490234 5.0463867 l 21.26831 23.676697 l 0.0 0.0 l 26.306213 -26.122803 l 38.693787 21.842773 l 9.506958 -38.885925 l 0.0 0.0 l 49.493042 26.04596 l 27.25 -9.630005 l -0.21136475 -41.923523 l 0.0 0.0 l 50.211365 16.24353 l 14.0737915 -40.848267 l 29.926208 6.6082153 l 0.0 0.0 l 15.580017 -19.349976 l -6.8065186 -20.398438 l 24.580872 -24.845032 l 0.0 0.0 l 25.192627 -29.321838 l 20.673096 -30.876343 l 18.071472 -32.51172 l -22.67157 -26.446655 l 53.081665 -20.436157 l 0.0 0.0 l 8.194275 -60.464172 l -54.715942 -51.999634 l 97.48511 -57.604187 l 0.0 0.0 l -10.757141 -86.5802 l 0.0 0.0 l -21.878967 -113.53772 l 0.0 0.0 l -64.849 18.922089 l 27.734497 -93.22281 l 0.0 0.0 l -30.088867 -49.158813 l 0.0 0.0 l -70.894714 -70.154724 l 0.0 0.0 l 73.249084 -26.263657 l 0.0 -59.7 l -22.599976 0.0 l -22.600037 0.0 l -22.599976 0.0 l -22.600037 0.0 l -27.436584 38.501972 l -17.763367 -38.501972 l -20.38678 24.989155 l -32.50653 -11.433914 l -33.48242 -9.355019 l -134.56903 -19.488377 l 0.0 0.0 l 130.54474 69.688156 l 0.0 54.40001 l 0.0 54.399994 l 0.0 54.40001 l 0.0 54.399994 l 0.0 54.399994 l 0.0 54.400024 l 0.0 54.399994 l 0.0 54.399994 l 0.0 54.400024 l 0.0 0.0 l -0.4000244 27.909973 l -1.1999512 26.130005 l -2.0 24.349976 l -2.8000488 22.570007 l -3.5999756 20.79004 l -4.4000244 19.01001 l -5.199951 17.22998 l -6.0 15.450012 l -6.800049 13.669983 l 0.0 0.0 l -8.440002 10.640015 l -9.719971 9.5199585 l -11.0 8.400024 l -12.280029 7.2799683 l -13.559998 6.160034 l -14.839966 5.039978 l -16.119995 3.920044 l -17.400024 2.7999878 l -18.679993 1.6799927 l 0.0 0.0 l -21.75 -0.73999023 l -20.450012 -2.2200317 l -19.149994 -3.7000122 l -17.850006 -5.1799927 l -16.549988 -6.659973 l -15.25 -8.140015 l -13.950012 -9.619995 l -12.649994 -11.099976 l -11.350006 -12.580017 l 0.0 0.0 l -8.73999 -15.690002 l -7.8200073 -17.869995 l -6.899994 -20.049988 l -5.980011 -22.230042 l -5.0599976 -24.409973 l -4.139984 -26.590027 l -3.2200012 -28.769958 l -2.3000183 -30.950012 l -1.3799744 -33.130005 l 0.0 -47.0 l 0.0 -47.0 l 0.0 -47.0 l 0.0 -47.0 l 0.0 -47.0 l 0.0 -47.0 l 0.0 -47.0 l 0.0 -47.0 l 0.0 -47.0 l 120.42517 -89.899994 l 0.0 0.0 l -137.10669 43.585884 l -31.064087 13.788582 l -20.054413 -14.47448 l -22.600006 0.0 l -41.234085 87.88705 l 0.0 0.0 l -3.9659119 -87.88705 l -22.59999 0.0 l -22.600006 0.0 l -22.59999 0.0 l -22.600006 0.0 l 38.27739 151.46982 l 0.0 0.0 l -25.55893 54.74431 l 0.0 0.0 l -25.834656 77.002686 l 0.0 0.0 l -20.732895 112.159485 l 0.0 0.0 l 10.607414 102.838745 l 0.0 0.0 l 53.335594 145.81372 l 0.0 0.0 l 73.87253 95.64331 l 0.0 0.0 l -103.966446 39.527954 l 0.0 97.400024 l 0.0 97.39996 " /> </g> </svg>