<?xml version="1.0" standalone="no"?><!DOCTYPE svg PUBLIC "-//W3C//DTD SVG 1.1//EN" "http://www.w3.org/Graphics/SVG/1.1/DTD/svg11.dtd" ><svg xmlns="http://www.w3.org/2000/svg" xmlns:xlink="http://www.w3.org/1999/xlink" version="1.1" viewBox="-10 0 692 1000"><g transform="matrix(1 0 0 -1 0 800)"><path stroke="black" fill="none" d="M 385.80902 933.77026 l -36.1333 -16.280334 l -68.49765 -41.57721 l -31.930649 -24.964966 l 65.599014 47.295715 l 108.42923 48.845398 l 38.777588 10.36084 l 40.097473 7.401001 l 41.4216 4.4387207 l 0.0 0.0 l 0.0 0.0 l 0.0 0.0 l 42.93805 -1.4847412 l 41.62378 -4.468689 l 79.21509 -17.868958 l -38.883057 10.40387 l 112.88739 -40.194153 l -36.249207 16.348755 l 71.3302 -35.739563 l 33.703186 -22.356812 l 32.374573 -25.329712 l 0.0 0.0 l 0.0 0.0 l 0.0 0.0 l 28.498413 -30.479248 l 25.496948 -31.839355 l 22.497192 -33.199585 l 19.506897 -34.56781 l 16.573486 -36.118958 l 13.39679 -36.994385 l 22.530273 -120.08057 l 0.0 0.0 l 0.0 0.0 l 0.0 0.0 l -11.862488 80.62555 l 7.317688 -39.027405 l -9.003113 -166.38022 l 7.494446 39.953644 l 4.5358887 41.69507 l -22.664734 -120.7666 l -13.555176 -37.314606 l -16.65503 -36.081207 l -19.580627 -34.48349 l -48.336792 -64.91072 l 0.0 0.0 l 0.0 0.0 l 0.0 0.0 l 25.654907 31.711472 l -56.796997 -59.68164 l -32.387573 -24.92659 l -33.87915 -22.083397 l -35.23181 -19.10646 l -36.60742 -16.167015 l -77.14551 -23.460075 l 39.07202 10.212158 l -80.2428 -17.639606 l -41.925293 -4.388878 l 0.0 0.0 l 0.0 0.0 l 0.0 3.8146973e-06 l -43.0448 1.5009995 l -120.70743 22.476974 l 38.96048 -10.518627 l 39.939575 -7.4421883 l -152.1919 47.892677 l 35.711487 -16.372307 l -70.4772 35.958633 l -33.156006 22.476662 l -31.724747 25.527222 l 0.0 0.0 l 0.0 0.0 l 0.0 0.0 l -28.103195 30.341858 l -25.213608 31.951431 l -22.144241 33.316696 l -35.512634 71.330444 l 16.239594 -36.349365 l -39.928734 113.78479 l 10.334267 -39.382263 l -20.689941 165.73798 l -1.5014267 -42.207703 l 7.6293945e-06 0.77822876 l 0.0 0.037384033 l 0.0 0.004699707 l 0.0 0.0 l 4.432472 -43.830048 l 9.2137985 165.01431 l 10.472961 37.44397 l -18.070007 -76.65253 l 31.719131 113.368225 l 16.568787 35.18225 l 42.180313 66.63202 l -22.472427 -32.493164 l 48.264893 64.160645 l 0.0 0.0 l 0.0 0.0 l 0.0 0.0 " /> </g> </svg>