<?xml version="1.0" standalone="no"?><!DOCTYPE svg PUBLIC "-//W3C//DTD SVG 1.1//EN" "http://www.w3.org/Graphics/SVG/1.1/DTD/svg11.dtd" ><svg xmlns="http://www.w3.org/2000/svg" xmlns:xlink="http://www.w3.org/1999/xlink" version="1.1" viewBox="-10 0 692 1000"><g transform="matrix(1 0 0 -1 0 800)"><path stroke="black" fill="none" d="M 142.0 974.0 l 22.600006 0.0 l 22.59999 0.0 l 22.600006 0.0 l 22.59999 0.0 l 22.600006 0.0 l 22.600006 0.0 l 22.600006 0.0 l 22.599976 0.0 l 22.600006 0.0 l 22.600006 0.0 l 0.0 -9.0 l 0.0 -9.0 l 0.0015563965 -9.00116 l 16.280579 -12.865967 l -16.282166 -5.133423 l -16.757477 -11.294128 l 16.75592 -6.704773 l 0.0015869141 -9.000549 l -0.0075683594 -9.001465 l -106.75717 -33.407227 l 0.0 0.0 l 50.875427 35.877136 l 79.78931 10.761536 l 24.5 19.890015 l 8.433868 20.676636 l 37.65793 10.776062 l 38.916138 7.8692017 l 18.992096 16.838074 l 23.201843 -12.834106 l 0.0 0.0 l 0.00036621094 0.0016479492 l 42.006165 0.7991333 l 19.091614 29.583374 l 0.0 0.0 l 24.2724 -33.46057 l 40.7276 29.180542 l 8.451721 -41.931274 l -0.7314453 0.17132568 l 51.279724 28.919983 l 27.25 -9.630005 l -1.7660522 -44.786743 l -0.6790161 0.2803955 l 52.44507 18.826355 l 11.532593 -48.11145 l 32.467407 13.871399 l 0.0 0.0 l 15.580017 -19.349976 l -12.883057 -20.03186 l 29.931213 -25.18103 l 0.0 0.0 l 0.00048828125 0.0 l 27.695312 -30.147705 l 24.086243 -31.55774 l 21.20288 -32.998413 l -30.993103 -24.483276 l 53.6886 -13.685974 l -0.0007324219 -0.008300781 l 25.511902 -62.401123 l 0.0 0.0 l -72.63977 -56.804565 l 98.21338 -57.663635 l 0.0 0.0 l -6.0323486 41.06714 l 1.8226318 -133.63791 l 0.0 0.0 l 0.8392334 15.863464 l -29.45929 -128.45023 l -0.20855713 -0.61416626 l -65.17505 24.635315 l 30.445068 -95.463104 l -0.33587646 -0.6415405 l -38.57892 -55.64041 l 0.0 0.0 l 4.741699 5.83374 l -73.91797 -69.6982 l -0.53131104 -0.40699768 l 78.17731 -22.783493 l 0.0 -59.7 l -22.599976 0.0 l -22.600037 0.0 l -22.599976 0.0 l -22.600037 0.0 l -28.85321 49.778934 l -16.34674 -49.778934 l -19.738525 32.308315 l -35.408142 -14.782837 l -46.417114 -13.865845 l 0.0 0.0 l -117.93591 -19.11031 l 0.0 0.0 l -18.737183 1.3299904 l 147.83685 68.52068 l 0.0 54.40001 l 0.0 54.399994 l 0.0 54.40001 l 0.0 54.399994 l 0.0 54.399994 l 0.0 54.400024 l 0.0 54.399994 l 0.0 54.399994 l 0.0 54.400024 l 0.0 0.0 l -0.4000244 27.909973 l -1.1999512 26.130005 l -2.0 24.349976 l -2.8000488 22.570007 l -3.5999756 20.79004 l -4.4000244 19.01001 l -5.199951 17.22998 l -6.0 15.450012 l -6.800049 13.669983 l 0.0 0.0 l -8.440002 10.640015 l -9.719971 9.5199585 l -11.0 8.400024 l -12.280029 7.2799683 l -13.559998 6.160034 l -14.839966 5.039978 l -16.119995 3.920044 l -17.400024 2.7999878 l -18.679993 1.6799927 l 0.0 0.0 l -21.75 -0.73999023 l -20.450012 -2.2200317 l -19.149994 -3.7000122 l -17.850006 -5.1799927 l -16.549988 -6.659973 l -15.25 -8.140015 l -13.950012 -9.619995 l -12.649994 -11.099976 l -11.350006 -12.580017 l 0.0 0.0 l -8.73999 -15.690002 l -7.8200073 -17.869995 l -6.899994 -20.049988 l -5.980011 -22.230042 l -5.0599976 -24.409973 l -4.139984 -26.590027 l -3.2200012 -28.769958 l -2.3000183 -30.950012 l -1.3799744 -33.130005 l 0.0 -47.0 l 0.0 -47.0 l 0.0 -47.0 l 0.0 -47.0 l 0.0 -47.0 l 0.0 -47.0 l 0.0 -47.0 l 0.0 -47.0 l 0.0 -47.0 l 100.106384 -86.22548 l 24.56723 -5.0566063 l 0.0 0.0 l -113.66516 33.560448 l 0.0 0.0 l -59.499634 29.435585 l -19.308838 -18.713951 l -16.624939 30.384384 l -46.05919 56.22953 l 0.0 0.0 l -3.564148 3.847763 l -1.5517273 -90.46168 l -22.59999 0.0 l -22.600006 0.0 l -22.59999 0.0 l -22.600006 0.0 l 41.92949 155.48386 l -0.37371826 0.6297302 l -28.061676 51.759018 l 0.31834412 -0.6867981 l -28.238556 76.00345 l 0.18708801 -0.7506714 l -19.858765 115.255585 l 0.0 0.0 l 3.1376648 -28.751099 l 0.0 0.0 l 13.475517 156.97998 l 0.0 0.0 l -6.3961334 -27.639893 l 33.147896 106.50879 l 0.0 0.0 l 0.29161072 0.5940552 l 39.184113 69.403625 l 0.0 0.0 l 23.707504 32.383423 l -72.45038 72.02698 l 0.0 97.400024 l 0.0 97.39996 " /> </g> </svg>