<?xml version="1.0" standalone="no"?><!DOCTYPE svg PUBLIC "-//W3C//DTD SVG 1.1//EN" "http://www.w3.org/Graphics/SVG/1.1/DTD/svg11.dtd" ><svg xmlns="http://www.w3.org/2000/svg" xmlns:xlink="http://www.w3.org/1999/xlink" version="1.1" viewBox="-10 0 692 1000"><g transform="matrix(1 0 0 -1 0 800)"><path stroke="black" fill="none" d="M 385.67892 933.80115 l -35.231903 -16.323242 l -92.456665 -60.083557 l -0.8105469 -0.6273804 l 57.184296 40.5932 l 109.68036 49.568787 l 38.451355 10.481873 l 39.753265 7.5373535 l 41.640106 4.2800293 l 0.0 0.0 l 0.0 0.00012207031 l 0.00012207031 0.00036621094 l 42.673035 -0.78723145 l 42.13086 -4.2963867 l 70.463684 -16.377625 l -25.803772 6.876465 l 100.39899 -35.365906 l -24.01178 10.799316 l 67.31439 -32.991272 l 34.128906 -23.275696 l 31.648682 -25.285767 l 0.0 0.0 l 0.0 0.0 l 0.00012207031 0.0 l 28.278442 -30.38324 l 25.085938 -31.757324 l 22.120056 -33.14093 l 20.435974 -35.617126 l -0.002746582 -0.030456543 l 26.48462 -62.922302 l 0.39190674 -1.0308228 l 25.556885 -127.23712 l 0.0 0.0 l -0.0087890625 0.070739746 l -6.1760254 49.5484 l 0.0 0.0 l -1.5426636 -144.80695 l 0.28320312 1.4361572 l 5.0441284 43.61676 l -24.64441 -123.00534 l -8.859192 -24.447052 l -22.728699 -48.379486 l -12.921936 -22.816956 l -49.41504 -67.579575 l 0.0 0.0 l 0.1126709 0.1399231 l 22.318787 27.595367 l -61.78546 -62.600082 l -21.276855 -16.37265 l -37.80493 -26.5878 l -35.48047 -18.629837 l -36.257996 -15.76371 l -48.205322 -15.377995 l 1.1552734 0.30544662 l -99.08453 -18.1792 l 0.0 0.0 l -5.7944946 -0.6225662 l -45.47284 0.71930313 l -114.96149 19.370502 l 56.55847 -13.030678 l 1.0392151 -0.19560242 l -116.305145 33.968056 l 0.93933105 -0.42952728 l -62.10141 31.6596 l -33.965332 19.328094 l -32.446686 30.742752 l 0.0 0.0 l -0.1493988 0.16130066 l -24.257187 26.189636 l -32.443405 41.58864 l -14.622925 22.0811 l -34.51982 67.33972 l 10.790054 -24.123108 l -35.711975 100.94119 l 6.8639526 -26.198547 l -20.684021 129.05148 l -0.24967194 -6.6745605 l 0.0 0.0 l 3.2102127 -35.25952 l 0.11425781 -1.126709 l 17.817253 181.77869 l 0.097465515 0.3590088 l -14.039856 -60.956604 l 32.95143 113.13745 l 0.102874756 0.21435547 l 10.907303 23.122253 l 28.733414 49.36853 l -0.5437012 -0.7816162 l 41.521927 54.730835 " /> </g> </svg>