<?xml version="1.0" standalone="no"?><!DOCTYPE svg PUBLIC "-//W3C//DTD SVG 1.1//EN" "http://www.w3.org/Graphics/SVG/1.1/DTD/svg11.dtd" ><svg xmlns="http://www.w3.org/2000/svg" xmlns:xlink="http://www.w3.org/1999/xlink" version="1.1" viewBox="-10 0 692 1000"><g transform="matrix(1 0 0 -1 0 800)"><path stroke="black" fill="none" d="M 385.8099 933.77 l -36.139404 -16.28003 l -68.335266 -41.451782 l -32.158615 -25.14325 l 65.67305 47.354492 l 108.42078 48.840454 l 38.779816 10.360046 l 40.099792 7.4000854 l 41.420135 4.4398804 l 0.0 0.0 l 0.0 0.0 l 0.0 0.0 l 42.93982 -1.489563 l 41.62036 -4.4698486 l 79.27435 -17.879028 l -38.97162 10.427734 l 112.971985 -40.22693 l -36.332153 16.386414 l 71.35742 -35.75818 l 33.700317 -22.350586 l 32.379517 -25.330017 l 0.0 0.0 l 0.0 0.0 l 0.0 0.0 l 28.499878 -30.47992 l 25.499756 -31.839905 l 22.499695 -33.200012 l 19.50061 -34.560608 l 16.506348 -35.937134 l 13.49115 -37.255493 l 22.502563 -120.0069 l 0.0 0.0 l 0.0 0.0 l 0.0 0.0 l -11.98822 81.297 l 7.484436 -39.916565 l -9.082642 -166.37088 l 7.545288 40.22458 l 4.5305176 41.67215 l -22.651306 -120.7514 l -13.586975 -37.401825 l -16.613953 -35.997864 l -19.625671 -34.56256 l -48.321472 -64.88263 l 0.0 0.0 l 0.0 0.0 l 0.0 0.0 l 25.668701 31.728409 l -56.763184 -59.66185 l -32.46289 -24.984573 l -33.85254 -22.052856 l -35.230164 -19.109703 l -36.60974 -16.169739 l -77.341675 -23.514854 l 39.34442 10.283325 l -80.13049 -17.639973 l -42.112488 -4.4081917 l 0.0 0.0 l 0.0 0.0 l 0.0 0.0 l -43.08606 1.5000916 l -120.74634 22.498024 l 38.841187 -10.501598 l 40.22336 -7.495041 l -152.45526 47.990795 l 35.966095 -16.489044 l -70.55289 35.996452 l -33.150513 22.497993 l -31.729553 25.502335 l 0.0 0.0 l 0.0 0.0 l 0.0 0.0 l -28.11856 30.35846 l -25.164597 31.886108 l -22.19522 33.392853 l -35.519363 71.35748 l 16.27652 -36.43222 l -39.957314 113.871826 l 10.357796 -39.47162 l -20.689987 165.98666 l -1.5092773 -42.93756 l 1.5258789e-05 1.3872375 l 0.0 3.0517578e-05 l 0.0 3.0517578e-05 l 0.0 0.0 l 4.4393463 -43.95291 l 9.155487 164.90063 l 10.561676 37.760315 l -18.115715 -76.82391 l 31.710777 113.36987 l 16.60646 35.26245 l 42.271454 66.74902 l -22.634766 -32.727966 l 48.315277 64.233215 l 0.0 0.0 l 0.0 0.0 l 0.0 0.0 " /> </g> </svg>