<?xml version="1.0" standalone="no"?><!DOCTYPE svg PUBLIC "-//W3C//DTD SVG 1.1//EN" "http://www.w3.org/Graphics/SVG/1.1/DTD/svg11.dtd" ><svg xmlns="http://www.w3.org/2000/svg" xmlns:xlink="http://www.w3.org/1999/xlink" version="1.1" viewBox="-10 0 692 1000"><g transform="matrix(1 0 0 -1 0 800)"><path stroke="black" fill="none" d="M 385.79877 933.7727 l -36.062073 -16.283691 l -70.390625 -43.039368 l -29.273453 -22.886414 l 64.73573 46.610474 l 108.52811 48.902527 l 38.7518 10.370483 l 40.07025 7.411743 l 41.43866 4.425232 l 0.0 0.0 l 0.0 0.0 l 0.0 0.0 l 42.91736 -1.4286499 l 41.66382 -4.455078 l 78.52362 -17.751099 l -37.84961 10.125122 l 111.900696 -39.812683 l -35.28241 15.910339 l 71.01294 -35.52246 l 33.736816 -22.429443 l 32.316833 -25.326172 l 0.0 0.0 l 0.0 0.0 l 0.0 0.0 l 28.481445 -30.47168 l 25.464478 -31.832886 l 22.467407 -33.194946 l 19.580322 -34.650696 l 17.356262 -38.239075 l 12.297241 -33.950745 l 22.851807 -120.9314 l 0.0 0.0 l -0.00012207031 6.1035156e-05 l 0.0 0.0004272461 l -10.395691 72.79059 l 5.374695 -28.663147 l -8.0772705 -166.48859 l 6.9034424 36.79535 l 4.59729 41.961945 l -22.821106 -120.94345 l -13.184143 -36.297974 l -17.134949 -37.052856 l -19.054504 -33.561752 l -48.507874 -65.22821 l 0.0 0.0 l 0.00012207031 0.00015258789 l 0.0005493164 0.0007019043 l 25.485413 31.503082 l -57.1911 -59.912216 l -31.509766 -24.250763 l -34.18927 -22.43927 l -35.251465 -19.06881 l -36.579834 -16.135147 l -74.85895 -22.821522 l 35.89624 9.382549 l -81.55145 -17.63535 l -0.49938965 -0.051525116 l -39.186768 -4.1060295 l 0.0 0.0 l 0.001159668 0.00012207031 l -42.622314 1.5053711 l -120.25342 22.231533 l 40.35086 -10.717098 l 36.631622 -6.8260956 l -149.12204 46.74896 l 32.74362 -15.01149 l -69.59488 35.517776 l -33.21994 22.22789 l -31.678421 25.827698 l 0.0 0.0 l -0.0001373291 0.0001373291 l -0.00077819824 0.0008392334 l -27.91359 30.137161 l -25.784805 32.71286 l -21.549988 32.428986 l -35.434204 71.01514 l 15.809036 -35.383392 l -39.59558 112.77005 l 10.060089 -38.340637 l -20.689476 162.83945 l -1.409874 -38.897156 l -1.5258789e-05 0.012481689 l 0.0 0.0054016113 l 0.0 0.0 l 3.3993454 -33.59854 l 0.9529495 -9.408905 l 9.893547 166.3388 l 9.438789 33.75702 l -17.53717 -74.65546 l 31.816498 113.35004 l 16.129608 34.246277 l 41.11789 65.26807 l -20.580032 -29.756165 l 47.668625 63.303833 l 0.0 0.0 l -0.00012207031 -0.00018310547 " /> </g> </svg>