<?xml version="1.0" standalone="no"?><!DOCTYPE svg PUBLIC "-//W3C//DTD SVG 1.1//EN" "http://www.w3.org/Graphics/SVG/1.1/DTD/svg11.dtd" ><svg xmlns="http://www.w3.org/2000/svg" xmlns:xlink="http://www.w3.org/1999/xlink" version="1.1" viewBox="-10 0 692 1000"><g transform="matrix(1 0 0 -1 0 800)"><path stroke="black" fill="none" d="M 385.80972 933.7701 l -36.138 -16.280151 l -68.37204 -41.480164 l -32.10698 -25.102844 l 65.656265 47.341125 l 108.4227 48.841614 l 38.779297 10.3602295 l 40.099274 7.4002686 l 41.42047 4.439636 l 0.0 0.0 l 0.0 0.0 l 0.0 0.0 l 42.939453 -1.4884644 l 41.621094 -4.4696045 l 79.260925 -17.87677 l -38.951538 10.422363 l 112.95282 -40.219482 l -36.313354 16.377869 l 71.35126 -35.753967 l 33.700928 -22.35199 l 32.378418 -25.329956 l 0.0 0.0 l 0.0 0.0 l 0.0 0.0 l 28.499512 -30.479736 l 25.499146 -31.839844 l 22.499146 -33.19989 l 19.502014 -34.562256 l 16.521545 -35.978333 l 13.469788 -37.19629 l 22.50885 -120.02362 l 0.0 0.0 l 0.0 0.0 l 0.0 0.0 l -11.959717 81.1449 l 7.4466553 -39.71515 l -9.064636 -166.37299 l 7.5337524 40.163208 l 4.5317383 41.677338 l -22.654358 -120.75485 l -13.579773 -37.38205 l -16.62323 -36.016754 l -19.615479 -34.544647 l -48.32495 -64.88901 l 0.0 0.0 l 0.0 0.0 l 0.0 0.0 l 25.665588 31.724594 l -56.770874 -59.666336 l -32.4458 -24.971436 l -33.85858 -22.059784 l -35.23053 -19.108963 l -36.60919 -16.16912 l -77.29724 -23.502449 l 39.282715 10.267204 l -80.155945 -17.639889 l -42.07013 -4.403824 l 0.0 0.0 l 0.0 0.0 l 0.0 0.0 l -43.07666 1.5003052 l -120.73752 22.493252 l 38.868195 -10.505451 l 40.15909 -7.4830666 l -152.3956 47.968567 l 35.908417 -16.4626 l -70.53577 35.987885 l -33.151733 22.493164 l -31.728455 25.507965 l 0.0 0.0 l 0.0 0.0 l 0.0 0.0 l -28.115097 30.354706 l -25.175705 31.90091 l -22.18367 33.375595 l -35.517838 71.35135 l 16.268158 -36.413452 l -39.950836 113.85211 l 10.352463 -39.451385 l -20.68998 165.93033 l -1.5074997 -42.766357 l 1.5258789e-05 1.2575989 l 0.0 0.0013122559 l 0.0 0.00018310547 l 0.0 0.0 l 4.43779 -43.931183 l 9.168694 164.92642 l 10.54158 37.6886 l -18.105362 -76.785034 l 31.71267 113.369446 l 16.59793 35.244324 l 42.25081 66.722534 l -22.597992 -32.674805 l 48.30388 64.2168 l 0.0 0.0 l 0.0 0.0 l 0.0 0.0 " /> </g> </svg>