<?xml version="1.0" standalone="no"?><!DOCTYPE svg PUBLIC "-//W3C//DTD SVG 1.1//EN" "http://www.w3.org/Graphics/SVG/1.1/DTD/svg11.dtd" ><svg xmlns="http://www.w3.org/2000/svg" xmlns:xlink="http://www.w3.org/1999/xlink" version="1.1" viewBox="-10 0 692 1000"><g transform="matrix(1 0 0 -1 0 800)"><path stroke="black" fill="none" d="M 385.8067 933.7708 l -36.117188 -16.281128 l -68.92648 -41.908447 l -31.32869 -24.49408 l 65.40346 47.140503 l 108.45163 48.858337 l 38.77176 10.363037 l 40.091278 7.4033813 l 41.425476 4.435669 l 0.0 0.0 l 0.0 0.0 l 0.0 0.0 l 42.93335 -1.4719849 l 41.632874 -4.465637 l 79.05841 -17.842224 l -38.648926 10.340698 l 112.66388 -40.107727 l -36.030212 16.24945 l 71.25836 -35.69037 l 33.710754 -22.373291 l 32.36151 -25.328918 l 0.0 0.0 l 0.0 0.0 l 0.0 0.0 l 28.494568 -30.47754 l 25.489624 -31.83789 l 22.490417 -33.198547 l 19.52356 -34.586548 l 16.750793 -36.599304 l 13.147705 -36.30481 l 22.60321 -120.2746 l 0.0 0.0 l 0.0 0.0 l 0.0 0.0 l -11.530334 78.85199 l 6.8775024 -36.679504 l -8.793335 -166.40475 l 7.3605957 39.23816 l 4.5496826 41.755524 l -22.700073 -120.80667 l -13.47113 -37.08429 l -16.763794 -36.30133 l -19.461365 -34.274673 l -48.376892 -64.98424 l 0.0 0.0 l 0.0 0.0 l 6.1035156e-05 3.0517578e-05 l 25.61792 31.666016 l -56.88629 -59.73387 l -32.18872 -24.773499 l -33.9494 -22.16401 l -35.236267 -19.09793 l -36.601196 -16.15979 l -76.62744 -23.315422 l 38.35254 10.024216 l -80.539246 -17.638641 l -41.427307 -4.337467 l 0.0 0.0 l 6.1035156e-05 7.6293945e-06 l 0.00024414062 2.670288e-05 l -42.93988 1.5029831 l -120.60455 22.421371 l 39.27542 -10.563591 l 39.190216 -7.302616 l -151.49646 47.63358 l 35.039154 -16.064026 l -70.27734 35.858757 l -33.17047 22.420311 l -31.712708 25.593597 l 0.0 0.0 l 0.0 1.5258789e-05 l -3.0517578e-05 3.0517578e-05 l -28.061966 30.297348 l -25.343002 32.12393 l -22.009613 33.1156 l -35.494873 71.259 l 16.142044 -36.130524 l -39.853256 113.5549 l 10.272156 -39.1463 l -20.689835 165.08136 l -1.48069 -40.98642 l -7.6293945e-06 0.09561157 l 0.0 0.042053223 l 0.0 0.0076293945 l 0.0 0.0 l 4.414322 -43.621765 l 9.36779 165.31433 l 10.238678 36.608765 l -17.949295 -76.200134 l 31.741188 113.364136 l 16.4693 34.970154 l 41.93962 66.32306 l -22.043716 -31.873108 l 48.131256 63.968323 l 0.0 0.0 l 0.0 0.0 l -3.0517578e-05 -6.1035156e-05 " /> </g> </svg>