<?xml version="1.0" standalone="no"?><!DOCTYPE svg PUBLIC "-//W3C//DTD SVG 1.1//EN" "http://www.w3.org/Graphics/SVG/1.1/DTD/svg11.dtd" ><svg xmlns="http://www.w3.org/2000/svg" xmlns:xlink="http://www.w3.org/1999/xlink" version="1.1" viewBox="-10 0 692 1000"><g transform="matrix(1 0 0 -1 0 800)"><path stroke="black" fill="none" d="M 385.7716 933.7791 l -35.874023 -16.292664 l -75.389465 -46.900574 l -22.256424 -17.39746 l 62.45601 44.800903 l 108.78912 49.053528 l 38.683746 10.395691 l 39.998444 7.4401855 l 41.483917 4.390381 l 0.0 0.0 l 0.0 0.0 l 0.0 0.0 l 42.862427 -1.28125 l 41.769592 -4.4191284 l 76.697754 -17.440002 l -35.12079 9.389221 l 109.295105 -38.80536 l -32.729126 14.752502 l 70.17505 -34.949036 l 33.825684 -22.621155 l 32.16455 -25.316956 l 0.0 0.0 l 0.0 0.0 l 0.0 0.0 l 28.436401 -30.451721 l 25.378723 -31.815735 l 22.388672 -33.18274 l 19.77417 -34.86963 l 19.423584 -43.837708 l 9.393433 -25.91333 l 23.692322 -123.10956 l 0.0 0.0 l -0.00024414062 0.0016479492 l -0.013916016 0.1126709 l -6.499878 51.91931 l 0.31835938 -1.692749 l -5.706909 -166.37585 l 5.3426514 28.45517 l 4.7595215 42.666718 l -23.23413 -121.41055 l -12.204346 -33.61325 l -18.40216 -39.618805 l -17.665222 -31.12761 l -48.888794 -65.97867 l 0.0 0.0 l 0.0021362305 0.0026245117 l 0.36114502 0.44839478 l 24.606201 30.416946 l -58.231934 -60.521133 l -29.19159 -22.46605 l -35.00836 -23.379082 l -35.303345 -18.969368 l -36.506897 -16.051003 l -68.82086 -21.135254 l 27.509888 7.19178 l -85.007324 -17.624126 l -0.036865234 -0.0038032532 l -33.228577 -3.488243 l 0.0 0.0 l -42.01001 1.4627075 l -119.054565 21.58339 l 44.022552 -11.241219 l 27.896118 -5.1991386 l -141.01532 43.728687 l 24.90625 -11.417908 l -67.26489 34.35357 l -33.388794 21.570969 l -31.641373 26.713211 l 0.0 0.0 l -0.0027008057 0.0029296875 l -0.54037476 0.58343506 l -26.787842 28.921768 l -27.293259 34.723587 l -19.980728 30.084763 l -35.22705 70.182495 l 14.672028 -32.83246 l -38.715782 110.0903 l 9.336037 -35.589935 l -20.68824 155.18509 l -1.1659241 -32.11093 l -0.00010681152 0.0016784668 l 0.0 0.0 l 3.3970337 -33.662018 l 0.74139404 -7.3197937 l 11.688591 169.83661 l 6.707794 24.02063 l -16.130081 -69.381775 l 32.07361 113.30188 l 0.6949005 1.4472656 l 14.274948 30.327515 l 38.312286 61.6662 l -15.582672 -22.52832 l 46.014572 60.94232 l 0.0 0.0 " /> </g> </svg>