<?xml version="1.0" standalone="no"?><!DOCTYPE svg PUBLIC "-//W3C//DTD SVG 1.1//EN" "http://www.w3.org/Graphics/SVG/1.1/DTD/svg11.dtd" ><svg xmlns="http://www.w3.org/2000/svg" xmlns:xlink="http://www.w3.org/1999/xlink" version="1.1" viewBox="-10 0 692 1000"><g transform="matrix(1 0 0 -1 0 800)"><path stroke="black" fill="none" d="M 385.8099 933.77 l -36.1398 -16.28003 l -68.32449 -41.44342 l -32.17372 -25.15509 l 65.67796 47.3584 l 108.42023 48.84015 l 38.779938 10.359985 l 40.099945 7.4000244 l 41.420044 4.4399414 l 0.0 0.0 l 0.0 0.0 l 0.0 0.0 l 42.93994 -1.4898682 l 41.620117 -4.4699097 l 79.27832 -17.87976 l -38.97754 10.429321 l 112.97766 -40.229065 l -36.337708 16.388916 l 71.35925 -35.7594 l 33.700073 -22.35022 l 32.379883 -25.330017 l 0.0 0.0 l 0.0 0.0 l 0.0 0.0 l 28.499939 -30.47998 l 25.499939 -31.839905 l 22.499939 -33.200012 l 19.500183 -34.56018 l 16.501831 -35.92505 l 13.497437 -37.272827 l 22.500732 -120.002014 l 0.0 0.0 l 0.0 0.0 l 0.0 0.0 l -11.996521 81.34155 l 7.4954224 -39.975586 l -9.087891 -166.37024 l 7.548584 40.242554 l 4.5302734 41.670624 l -22.650452 -120.7504 l -13.589111 -37.407623 l -16.611145 -35.99231 l -19.628723 -34.56781 l -48.320435 -64.88077 l 0.0 0.0 l 0.0 0.0 l 0.0 0.0 l 25.669617 31.729538 l -56.760925 -59.660553 l -32.467896 -24.988419 l -33.85077 -22.050827 l -35.23004 -19.109917 l -36.609924 -16.169922 l -77.354675 -23.51849 l 39.362488 10.288044 l -80.12305 -17.639992 l -42.124878 -4.4094696 l 0.0 0.0 l 0.0 0.0 l 0.0 0.0 l -43.088806 1.5000267 l -120.74893 22.499424 l 38.833252 -10.500469 l 40.242188 -7.4985504 l -152.47272 47.997303 l 35.98297 -16.496788 l -70.55789 35.998962 l -33.150146 22.499413 l -31.729889 25.500687 l 0.0 0.0 l 0.0 0.0 l 0.0 0.0 l -28.119568 30.359543 l -25.161362 31.88179 l -22.198593 33.39789 l -35.51982 71.35928 l 16.278992 -36.437714 l -39.95922 113.877594 l 10.35936 -39.47754 l -20.689987 166.00317 l -1.5098038 -42.988678 l 1.5258789e-05 1.4245911 l 0.0 0.0 l 0.0 0.0 l 0.0 0.0 l 4.4397964 -43.95807 l 9.151619 164.89313 l 10.567566 37.78125 l -18.118752 -76.835266 l 31.710228 113.369995 l 16.608963 35.26776 l 42.277496 66.756836 l -22.645523 -32.74353 l 48.318604 64.237976 l 0.0 0.0 l 0.0 0.0 l 0.0 0.0 " /> </g> </svg>