<?xml version="1.0" standalone="no"?><!DOCTYPE svg PUBLIC "-//W3C//DTD SVG 1.1//EN" "http://www.w3.org/Graphics/SVG/1.1/DTD/svg11.dtd" ><svg xmlns="http://www.w3.org/2000/svg" xmlns:xlink="http://www.w3.org/1999/xlink" version="1.1" viewBox="-10 0 692 1000"><g transform="matrix(1 0 0 -1 0 800)"><path stroke="black" fill="none" d="M 141.99759 522.8006 l 0.0066986084 150.40063 l 0.010894775 150.39105 l 202.36859 150.40594 l -22.082336 0.0 l -23.213654 0.0 l -21.84616 0.0 l -134.79787 0.0 l 21.88684 0.0 l 22.588287 0.0 l 24.015182 0.0 l 20.552734 0.0 l 22.967072 0.0 l 139.4549 -80.70538 l -26.9021 -3.3829956 l -0.00033569336 9.452881 l 0.0050354004 10.854065 l -0.005554199 -31.69043 l 0.0 -10.527893 l 0.0 0.0 l 0.0 0.0 l 0.0 0.0 l 0.0 53.69153 l 0.0 9.42981 l 0.0 10.971497 l 0.0 10.730774 l 0.0 20.485657 l 0.0 -9.42688 l 54.686035 -47.969788 l 28.325714 19.897644 l 29.14508 17.310303 l 29.841888 14.628662 l 30.562012 11.968567 l 31.282166 9.308105 l 104.13385 9.1657715 l -39.417725 1.4779663 l 0.0 0.0 l -6.1035156e-05 0.0 l 0.0 0.0 l -32.653015 -3.9818726 l 146.92053 -9.354736 l 35.137024 -10.332642 l -71.84711 17.718872 l 105.74591 -31.076965 l 32.307007 -16.237854 l 60.387268 -41.333252 l -29.319275 22.026978 l 57.61267 -47.30841 l 0.0 0.0 l 0.0 0.0 l 0.0 0.0 l 25.073364 -30.16394 l 42.2135 -64.91235 l -19.750122 33.16681 l 51.43872 -104.2818 l -14.483276 36.239075 l 35.61206 -113.51398 l -9.216919 39.312134 l 19.792725 -122.815796 l 0.0 0.0 l 0.0 0.0 l 0.0 0.0 l -3.9577637 42.464844 l -1.2764893 -127.077576 l 3.9204102 41.507385 l -10.491577 -81.78717 l -9.1467285 -38.59247 l -11.803589 -37.263397 l -14.409851 -35.770325 l -17.029907 -34.310303 l -19.650024 -32.85031 l -22.264526 -31.390808 l 0.0 0.0 l 0.0 0.0 l 0.0 0.0 l -26.693909 -27.560867 l -28.016907 -24.63028 l -29.409668 -21.755722 l -30.760315 -18.851143 l -32.1203 -15.951126 l -33.480347 -13.051125 l -34.840332 -10.151115 l -36.200317 -7.2511063 l -71.33618 -2.9800797 l 33.77832 -1.3674393 l 0.0 0.0 l 0.0 0.0 l 0.0 0.0 l -66.95764 5.4740524 l -95.09088 28.800156 l -30.158173 15.029198 l 92.25864 -36.79544 l -30.883118 9.348778 l -147.80777 -102.92678 l -0.00015258789 -63.44463 l 28.62143 231.77585 l 28.199677 -20.100037 l -56.67505 43.650253 l -0.14364624 -63.379044 l -0.003326416 -256.31555 l 0.0 -63.454727 l 0.0 -64.33153 l 0.0 -63.443542 l -0.0345459 383.30807 l -249.9089 -587.395 l 16.244568 0.0 l 45.063538 0.0 l -20.565231 0.0 l 87.8463 0.0 l -25.558456 0.0 l -16.16246 0.0 l 115.55258 0.0 l 16.009796 0.0 l -47.891357 0.0 l -16.137207 0.0 l 95.53226 76.50882 l 0.0012817383 63.445435 l -254.69109 10.674194 l -0.00019836426 150.09445 l 0.0005340576 300.64865 l -0.0002593994 -150.09438 l 0.0075683594 300.7237 l -0.013122559 150.39857 " /> </g> </svg>