<?xml version="1.0" standalone="no"?><!DOCTYPE svg PUBLIC "-//W3C//DTD SVG 1.1//EN" "http://www.w3.org/Graphics/SVG/1.1/DTD/svg11.dtd" ><svg xmlns="http://www.w3.org/2000/svg" xmlns:xlink="http://www.w3.org/1999/xlink" version="1.1" viewBox="-10 0 692 1000"><g transform="matrix(1 0 0 -1 0 800)"><path stroke="black" fill="none" d="M 141.9998 522.8 l 0.000579834 150.40009 l 0.00093078613 150.39929 l 202.48872 150.40045 l -22.464172 0.0 l -22.561218 0.0 l -22.443909 0.0 l -134.98267 0.0 l 22.447403 0.0 l 22.507568 0.0 l 22.62999 0.0 l 22.332947 0.0 l 22.54007 0.0 l 139.45956 -80.727844 l -26.955048 -4.0111084 l -3.0517578e-05 10.501587 l 0.00045776367 10.621826 l -0.00048828125 -31.79065 l 0.0 -10.593811 l 0.0 0.0 l 0.0 0.0 l 0.0 0.0 l 0.0 53.059326 l 0.0 10.499634 l 0.0 10.631897 l 0.0 10.611206 l 0.0 21.138672 l 0.0 -10.499329 l 54.64395 -47.558594 l 28.393646 19.945496 l 29.122131 17.291748 l 29.840149 14.629883 l 30.56018 11.969849 l 31.280212 9.3098755 l 104.20343 9.160522 l -39.483704 1.4797974 l 0.0 0.0 l 0.0 0.0 l 0.0 0.0 l -32.714294 -3.9893188 l 146.92914 -9.332092 l 35.222046 -10.357666 l -71.8772 17.75647 l 105.694824 -31.079773 l 32.382874 -16.276306 l 60.508606 -41.430847 l -29.530212 22.18512 l 57.674194 -47.35559 l 0.0 0.0 l 0.0 0.0 l 0.0 0.0 l 25.079468 -30.169495 l 42.23767 -64.95587 l -19.795715 33.24286 l 51.4765 -104.36243 l -14.516968 36.322205 l 35.637695 -113.601746 l -9.238037 39.40155 l 19.799438 -122.847046 l 0.0 0.0 l 0.0 0.0 l 0.0 0.0 l -3.9598389 42.487854 l -1.2796631 -127.16208 l 3.9290771 41.601196 l -10.480957 -81.76233 l -9.167969 -38.68164 l -11.791138 -37.23285 l -14.410034 -35.77005 l -17.029968 -34.310028 l -19.650024 -32.850006 l -22.269531 -31.390076 l 0.0 0.0 l 0.0 0.0 l 0.0 0.0 l -26.681213 -27.550934 l -28.037964 -24.6483 l -29.400879 -21.750488 l -30.76001 -18.850113 l -32.119995 -15.9500885 l -33.48004 -13.050102 l -34.840027 -10.150101 l -36.200012 -7.2500916 l -71.39453 -2.9800034 l 33.834717 -1.3697815 l 0.0 0.0 l 0.0 0.0 l 0.0 0.0 l -66.95984 5.479492 l -95.04431 28.772583 l -30.233002 15.066498 l 92.82663 -36.973305 l -31.611633 9.569305 l -147.61777 -102.67375 l 0.0 -63.860935 l 28.126434 232.26416 l 28.748474 -20.511383 l -56.862396 43.823715 l -0.012329102 -63.85531 l -0.0002746582 -255.6614 l 0.0 -63.861786 l 0.0 -63.93701 l 0.0 -63.86087 l -0.002960205 383.39215 l -254.289 -587.3721 l 21.963364 0.0 l 45.005447 0.0 l -22.334015 0.0 l 89.81525 0.0 l -22.762375 0.0 l -21.95633 0.0 l 112.761856 0.0 l 21.943237 0.0 l -45.248047 0.0 l -21.954132 0.0 l 97.056915 76.199005 l 0.00012207031 63.860992 l -254.69925 10.359589 l -1.5258789e-05 150.3738 l 4.5776367e-05 300.787 l -3.0517578e-05 -150.37378 l 0.00065612793 300.79346 l -0.0011291504 150.39989 " /> </g> </svg>