<?xml version="1.0" standalone="no"?><!DOCTYPE svg PUBLIC "-//W3C//DTD SVG 1.1//EN" "http://www.w3.org/Graphics/SVG/1.1/DTD/svg11.dtd" ><svg xmlns="http://www.w3.org/2000/svg" xmlns:xlink="http://www.w3.org/1999/xlink" version="1.1" viewBox="-10 0 692 1000"><g transform="matrix(1 0 0 -1 0 800)"><path stroke="black" fill="none" d="M 96.0 494.0 l 0.0 0.0 l 32.969177 32.540222 l -26.929176 49.339783 l 7.550003 39.049988 l 10.57 37.789978 l 19.42363 25.180908 l 10.776367 46.61914 l 19.630005 34.01001 l -13.157898 55.603638 l 136.07533 159.8581 l 0.0 0.0 l -121.31674 -1.4075928 l 0.0 0.0 l 77.5793 -121.69415 l 32.180008 25.159973 l 33.5 22.200012 l 52.625793 -23.076721 l 0.0 0.0 l -0.46392822 71.57745 l 0.0 0.0 l 74.84979 -14.086609 l 0.0 0.0 l 32.286926 21.72406 l 32.845093 12.51239 l 33.740814 9.764465 l 0.0028686523 -0.007385254 l 34.69232 6.154175 l 36.80713 13.123657 l 0.0 0.0 l 158.29523 -16.476196 l 0.0 0.0 l -63.12207 -34.009277 l 37.660034 -13.410034 l 36.339966 -16.389954 l 60.09906 29.812866 l 0.0 0.0 l 31.276672 -33.900696 l 65.89984 -33.020935 l 0.0 0.0 l 15.749817 -19.345642 l 0.0 0.0 l -43.425354 -41.075623 l 76.097595 -9.809814 l 0.0 0.0 l -28.097595 -55.230164 l 64.39642 -13.423706 l 0.0 0.0 l -28.396423 -57.056335 l 54.01172 -17.69574 l 0.0 0.0 l -30.011719 -58.224243 l 47.61377 -23.466858 l 0.0 0.0 l -35.61377 -57.893127 l 0.0 0.0 l 33.988647 -26.548615 l 0.0 0.0 l -15.639893 -97.061066 l 0.0 0.0 l -31.938782 -1.4003296 l 11.300842 -45.483917 l -14.169861 -36.250336 l -16.906982 -34.802094 l -19.644104 -33.35376 l -16.157776 -32.446045 l 0.0 0.0 l -46.12628 -44.974304 l -0.300354 -0.36479187 l -35.90338 -23.884903 l -31.260803 -20.648361 l -32.62671 -17.736649 l -33.992554 -14.824936 l -35.35846 -11.913216 l -36.724243 -9.001503 l -36.59497 -0.8280792 l 0.0 0.0 l -60.778442 -3.5395203 l -116.7431 47.230125 l 0.0 0.0 l 47.064575 -22.73162 l -6.3773804 -50.15609 l -41.670013 4.5 l -80.90863 8.044426 l -12.7547 110.84935 l 0.0 0.0 l -4.1270447 -444.50027 l 0.0 0.0 l -54.689606 373.6065 l -34.570007 19.5 l -33.149994 22.500008 l -49.385345 -668.6262 l 0.0 0.0 l -78.10434 246.29266 l 0.0 0.0 l 1.4506226 259.06726 l 0.0 0.0 l 7.6253357 247.58385 l 11.20372 36.822403 l -19.240005 34.920013 l -16.279999 36.440002 l 3.5091553 39.96814 l -27.189156 37.471863 l -7.4000015 41.0 l -4.4400024 42.51999 " /> </g> </svg>