<?xml version="1.0" standalone="no"?><!DOCTYPE svg PUBLIC "-//W3C//DTD SVG 1.1//EN" "http://www.w3.org/Graphics/SVG/1.1/DTD/svg11.dtd" ><svg xmlns="http://www.w3.org/2000/svg" xmlns:xlink="http://www.w3.org/1999/xlink" version="1.1" viewBox="-10 0 692 1000"><g transform="matrix(1 0 0 -1 0 800)"><path stroke="black" fill="none" d="M 141.97191 522.808 l 0.078125 150.4071 l 0.12693787 150.29578 l 200.96811 150.4696 l -17.631287 0.0 l -30.818787 0.0 l -14.878479 0.0 l -132.64363 0.0 l 15.352356 0.0 l 23.529205 -6.1035156e-05 l 40.16234 6.1035156e-05 l 0.85720825 0.0 l 26.88832 0.0 l -0.037750244 0.0 l 139.43831 -80.44324 l -0.048095703 0.020751953 l -26.236877 3.914795 l -0.0009765625 0.24151611 l 0.055480957 10.55072 l -0.06460571 -30.521729 l 0.0 -9.623108 l 0.0 -0.10308838 l 0.0 0.0 l 0.0 0.0005493164 l 0.0 61.016724 l 0.0 0.20489502 l 0.0 11.69458 l 0.0 12.125 l 0.0 0.0095825195 l 0.0 12.87384 l 0.0 -0.20092773 l 55.176575 -49.497986 l 27.534088 19.339722 l 29.412476 17.526733 l 29.862091 14.61438 l 30.583435 11.953796 l 31.305115 9.286743 l 103.32251 9.227844 l -38.77063 1.4414673 l 0.0 0.0 l -0.0034179688 -0.0004272461 l -0.60217285 -0.0736084 l -31.211304 -3.8060913 l 146.81927 -9.618774 l 34.14685 -10.0408325 l -71.49695 17.2807 l 106.3421 -31.044617 l 31.422241 -15.789246 l 58.972534 -40.19525 l -26.860352 20.182495 l 56.895447 -46.757996 l 0.0 0.0 l 0.0 0.0 l 0.0 0.0 l 25.002869 -30.099426 l 41.930603 -64.40466 l -19.218506 32.280212 l 50.999695 -103.34131 l -14.0928955 35.27002 l 35.314087 -112.491394 l -8.969849 38.269836 l 19.712646 -122.43799 l 0.0 0.0 l 0.0 0.00018310547 l -0.00012207031 0.0010375977 l -3.9320068 42.18164 l -1.239624 -126.092285 l 3.8189697 40.413727 l -10.615356 -82.0766 l -8.89856 -37.55316 l -11.948486 -37.619446 l -14.408264 -35.77356 l -17.029114 -34.31363 l -19.649963 -32.8537 l -22.206177 -31.399399 l 0.0 0.0 l 0.0 0.0 l 0.0 0.0 l -26.84198 -27.676605 l -27.771057 -24.420319 l -29.512634 -21.816666 l -30.763672 -18.863235 l -32.12372 -15.963142 l -33.483765 -13.063065 l -34.843872 -10.162979 l -36.203796 -7.2628937 l -70.65619 -2.9810028 l 33.119385 -1.3400574 l 0.0 0.0 l 0.0 0.0 l -6.1035156e-05 0.0 l -66.93054 5.4106064 l -95.63379 29.121582 l -29.285767 14.59436 l 85.63727 -34.722115 l -22.390991 6.7781525 l -150.02237 -105.87639 l -0.0017089844 -58.59188 l 34.39145 226.08365 l 21.80243 -15.305054 l -54.49112 41.628296 l 0.0095825195 -0.010345459 l -1.684021 -57.816956 l -0.038909912 -263.94086 l 0.0 -58.70961 l 0.0 -68.93048 l 0.0 -58.57892 l -0.402771 382.3283 l -235.6945 -587.6623 l 0.0 0.0 l 32.16577 0.0 l -0.8965912 0.0 l 65.84448 0.0 l -18.093536 0.0 l 0.0 0.0 l 115.70593 0.0 l 0.0 0.0 l -47.343567 0.0 l 0.0 0.0 l 88.60852 80.12036 l 0.014862061 58.601227 l -254.59589 14.341614 l -0.0024261475 146.83827 l 0.00630188 299.03583 l -0.0031738281 -146.83751 l 0.088394165 299.9106 l -0.15312195 150.38342 " /> </g> </svg>