<?xml version="1.0" standalone="no"?><!DOCTYPE svg PUBLIC "-//W3C//DTD SVG 1.1//EN" "http://www.w3.org/Graphics/SVG/1.1/DTD/svg11.dtd" ><svg xmlns="http://www.w3.org/2000/svg" xmlns:xlink="http://www.w3.org/1999/xlink" version="1.1" viewBox="-10 0 692 1000"><g transform="matrix(1 0 0 -1 0 800)"><path stroke="black" fill="none" d="M 96.0 494.0 l 0.0 0.0 l 42.183365 29.895447 l -36.143364 51.98456 l 7.550003 39.049988 l 10.57 37.789978 l 21.132263 21.856873 l 9.067734 49.943176 l 19.630005 34.01001 l -23.645782 62.297302 l 186.2675 153.17236 l 0.0 0.0 l -9.65509 -0.00012207031 l -151.06873 -0.009399414 l 0.0 0.0 l 95.59369 0.006713867 l 0.0 0.0 l -18.3116 -123.10687 l 32.180008 25.159973 l 33.5 22.200012 l 57.735382 -0.55773926 l 0.0 0.0 l -5.5820923 -28.17694 l 0.0 0.0 l -0.0032653809 62.656433 l 0.0 0.0 l 3.0517578e-05 17.135742 l 0.0 0.0 l 75.993866 -18.190369 l 0.46783447 0.3137207 l 34.23044 22.060547 l 30.720154 14.009766 l 31.491638 11.323975 l 0.0099487305 -0.025878906 l 32.270386 8.409485 l 68.8902 11.861694 l -28.122437 -2.2756958 l 0.0 0.0 l 163.005 -18.216919 l 0.51068115 -0.14642334 l -65.0202 1.171814 l 33.622437 -47.563232 l 36.339966 -16.389954 l 61.67816 34.281982 l 0.578125 -0.25427246 l 43.818665 -28.462769 l 0.0 0.0 l 52.265137 -41.532166 l 0.0 0.0 l -0.0009765625 -0.0010986328 l 22.107117 -27.257141 l -0.009155273 0.008361816 l -50.837036 -34.312927 l 80.77301 -8.552856 l -0.33996582 0.63897705 l -32.433044 -57.1261 l 68.483765 -12.287048 l -0.2397461 0.6832886 l -32.24402 -58.87628 l 57.63086 -16.755066 l -0.14660645 0.7467041 l -33.484253 -59.91162 l 49.23828 -29.835999 l 0.0 0.0 l -0.6248779 6.84906 l -36.613403 -58.373047 l 0.0 0.0 l 36.938354 -25.906433 l 0.095458984 0.78466797 l -16.453003 -101.145874 l -0.14221191 -0.6815491 l -34.028625 1.9391785 l 17.706726 -47.4328 l -14.339722 -35.910706 l -16.993958 -34.454132 l -19.648315 -32.997528 l -19.945862 -31.745682 l 0.0 0.0 l -0.0028076172 0.00024414062 l -32.907043 -32.60753 l -17.338135 -15.509354 l -33.881653 -24.402771 l -30.906677 -19.37674 l -32.268433 -16.47329 l -33.630066 -13.56987 l -34.991882 -10.666435 l -36.353516 -7.763008 l -41.796936 -3.020195 l 3.1079712 -0.107414246 l 0.0 0.0 l -63.737854 2.6474075 l -118.671814 42.762802 l -0.40368652 0.2006607 l 60.29016 -25.866875 l -14.586487 -49.416786 l -41.670013 4.5 l -96.30521 -95.351776 l 0.0 0.0 l 33.154785 187.36522 l 0.0 0.0 l -30.680603 27.660278 l 0.0 0.0 l -3.9203186 -375.77637 l 0.0 0.0 l 0.00036621094 -92.93089 l 0.0 0.0 l -16.029053 368.94012 l -73.26996 47.5934 l -33.149994 22.500008 l -49.726562 -669.1 l 0.0 0.0 l 159.71997 114.82007 l 0.0 0.0 l -241.73663 141.5723 l -0.09718323 8.648041 l 0.25097656 230.58743 l -0.12617493 -8.616631 l 3.518158 265.40396 l 20.987442 37.824814 l -19.240005 34.920013 l -16.279999 36.440002 l 8.438293 40.556335 l -32.118294 36.883667 l -7.4000015 41.0 l -4.4400024 42.51999 " /> </g> </svg>