<?xml version="1.0" standalone="no"?><!DOCTYPE svg PUBLIC "-//W3C//DTD SVG 1.1//EN" "http://www.w3.org/Graphics/SVG/1.1/DTD/svg11.dtd" ><svg xmlns="http://www.w3.org/2000/svg" xmlns:xlink="http://www.w3.org/1999/xlink" version="1.1" viewBox="-10 0 692 1000"><g transform="matrix(1 0 0 -1 0 800)"><path stroke="black" fill="none" d="M 141.9041 522.82745 l 0.26669312 150.42413 l 0.4333954 150.04407 l 197.2698 150.63782 l -5.877136 0.0 l -50.9021 0.0 l -0.47579956 0.0 l -122.95758 0.0 l 0.68704224 0.0 l 23.423279 -0.00024414062 l 44.463837 0.00024414062 l 0.0 0.0 l 24.42871 0.0 l -0.009384155 0.0 l 139.26646 -79.75104 l -0.010284424 0.0044555664 l -24.573761 6.984558 l 0.0 0.0 l 0.11621094 2.02771 l -0.22195435 -27.524048 l -3.0517578e-05 -7.175598 l 0.0 -0.13909912 l 0.0 0.0 l 0.0 61.42285 l 0.0 0.0 l 0.0 8.093994 l 0.0 15.806641 l 0.0 0.004333496 l 0.0 11.622681 l 0.0 0.0 l 56.471893 -48.190308 l 25.443665 17.866333 l 30.11853 18.098389 l 29.915497 14.576782 l 30.639954 11.914551 l 31.365784 9.230591 l 101.18005 9.391724 l -38.141235 1.2131348 l 0.0 0.0 l -0.18487549 -0.022583008 l -28.344543 -3.4569702 l 146.55182 -10.315857 l 31.531982 -9.270386 l -70.57202 16.123535 l 107.91626 -30.959106 l 29.085999 -14.604675 l 55.23639 -37.190125 l -20.3667 15.311829 l 55.000793 -45.305115 l 0.0 0.0 l 0.0 0.0 l 0.0 0.0 l 24.817078 -29.928589 l 41.183655 -63.063904 l -17.814514 29.938965 l 49.84027 -100.85773 l -13.062012 32.710815 l 34.527466 -109.79077 l -8.317871 35.517212 l 19.489868 -121.31836 l 0.0 0.0 l -0.00036621094 0.0037841797 l -0.06982422 0.7359009 l -3.7827148 40.576843 l -1.1422119 -123.49051 l 3.5510254 37.525696 l -10.942383 -82.841 l -8.242798 -34.808594 l -12.331543 -38.559692 l -14.403931 -35.782074 l -17.026917 -34.322357 l -19.649841 -32.862656 l -22.053345 -31.422028 l 0.0 0.0 l 0.0 0.0 l -6.1035156e-05 0.0 l -27.23169 -27.982346 l -27.121887 -23.865845 l -29.784485 -21.97757 l -30.772583 -18.895195 l -32.13275 -15.994888 l -33.49286 -13.094597 l -34.85309 -10.194305 l -36.213074 -7.294014 l -68.86047 -2.9834442 l 31.366638 -1.2673035 l 0.0010375977 -3.8146973e-05 l 0.0 0.0 l -0.00018310547 7.6293945e-06 l -66.84747 5.242653 l -97.06729 29.97039 l -26.982025 13.446053 l 68.15192 -29.246964 l -1.1164551 0.33813477 l -154.71957 -114.01395 l -0.00579834 -45.77695 l 49.628693 211.05191 l 4.9088745 -2.6426544 l -48.724 36.28882 l 0.0 0.0 l -5.716919 -43.166534 l -0.13284302 -284.07745 l 0.0 -46.17891 l 0.0 -81.075195 l 0.0 -45.732574 l -1.3751221 379.7409 l -221.93495 -588.3682 l 16.193115 0.0 l 0.0 0.0 l 51.899384 0.0 l 0.0 0.0 l 73.91695 0.0 l 0.0 0.0 l 80.93787 89.65753 l 0.05078125 45.80887 l -254.34453 24.026306 l -0.008331299 138.23958 l 0.021530151 294.77673 l -0.01083374 -138.2369 l 0.30181885 297.7635 l -0.5228119 150.34348 " /> </g> </svg>