<?xml version="1.0" standalone="no"?><!DOCTYPE svg PUBLIC "-//W3C//DTD SVG 1.1//EN" "http://www.w3.org/Graphics/SVG/1.1/DTD/svg11.dtd" ><svg xmlns="http://www.w3.org/2000/svg" xmlns:xlink="http://www.w3.org/1999/xlink" version="1.1" viewBox="-10 0 692 1000"><g transform="matrix(1 0 0 -1 0 800)"><path stroke="black" fill="none" d="M 141.99178 522.8023 l 0.022888184 150.4021 l 0.03717041 150.3695 l 202.05132 150.42035 l -21.073975 0.0 l -24.936523 0.0 l -20.2677 0.0 l -134.30984 0.0 l 20.40651 0.0 l 22.801453 0.0 l 27.673172 0.0 l 15.851624 0.0 l 24.094666 0.0 l 139.44257 -80.645996 l -26.762268 -1.7244263 l -0.0012207031 6.683655 l 0.017181396 11.467163 l -0.018920898 -31.425598 l 0.0 -10.351624 l 0.0 0.0 l 0.0 0.0 l 0.0 0.00012207031 l 0.0 55.35846 l 0.0 6.6048584 l 0.0 11.868286 l 0.0 11.046631 l 0.0 18.760986 l 0.0 -6.5947876 l 54.79718 -49.055603 l 28.146362 19.771301 l 29.205658 17.359314 l 29.846466 14.625427 l 30.566895 11.96521 l 31.287354 9.303223 l 103.95001 9.179871 l -39.251465 1.4721069 l 0.0 0.0 l -0.00018310547 0.0 l -0.00091552734 -0.00012207031 l -32.482178 -3.9611206 l 146.89758 -9.414551 l 34.91272 -10.266541 l -71.76782 17.619629 l 105.88098 -31.069641 l 32.106567 -16.13623 l 60.066772 -41.07544 l -28.762207 21.60913 l 57.450195 -47.183716 l 0.0 0.0 l 0.0 0.0 l 0.0 0.0 l 25.057373 -30.149353 l 42.149414 -64.79736 l -19.6297 32.966003 l 51.339294 -104.068726 l -14.394897 36.01953 l 35.544556 -113.28235 l -9.160889 39.07605 l 19.77478 -122.73248 l 0.0 0.0 l 0.0 6.1035156e-05 l 0.0 0.0 l -3.9521484 42.403137 l -1.2681885 -126.85434 l 3.897461 41.259613 l -10.519653 -81.85272 l -9.090454 -38.357025 l -11.836426 -37.344055 l -14.409485 -35.771057 l -17.029724 -34.311066 l -19.650024 -32.851074 l -22.251282 -31.392761 l 0.0 0.0 l 0.0 0.0 l 0.0 0.0 l -26.727478 -27.587082 l -27.961182 -24.582718 l -29.433044 -21.769531 l -30.761047 -18.853882 l -32.121094 -15.953842 l -33.48108 -13.053833 l -34.841187 -10.153801 l -36.20105 -7.2537766 l -71.18219 -2.9802933 l 33.629272 -1.3612366 l 0.0 0.0 l 0.0 0.0 l 0.0 0.0 l -66.95172 5.4596863 l -95.21387 28.87297 l -29.96054 14.930687 l 90.75864 -36.325745 l -28.95929 8.766426 l -148.30951 -103.59499 l -0.00048828125 -62.345284 l 29.928558 230.48633 l 26.750458 -19.013779 l -56.180298 43.1922 l 0.05444336 -0.058746338 l -0.54489136 -62.0626 l -0.011383057 -258.043 l 0.0 -62.37976 l 0.0 -65.37338 l 0.0 -62.341522 l -0.11798096 383.08612 l -238.3421 -587.45557 l 1.2768707 0.0 l 45.082657 0.0 l -15.894272 0.0 l 82.646774 0.0 l -32.9422 0.0 l -1.1047363 0.0 l 123.16464 0.0 l 0.87561035 0.0 l -55.40631 0.0 l -1.0594482 0.0 l 91.78937 77.326965 l 0.0043640137 62.348022 l -254.66953 11.505035 l -0.0007019043 149.3568 l 0.0018463135 300.28326 l -0.00093078613 -149.35657 l 0.025878906 300.5395 l -0.04484558 150.39514 " /> </g> </svg>