<?xml version="1.0" standalone="no"?><!DOCTYPE svg PUBLIC "-//W3C//DTD SVG 1.1//EN" "http://www.w3.org/Graphics/SVG/1.1/DTD/svg11.dtd" ><svg xmlns="http://www.w3.org/2000/svg" xmlns:xlink="http://www.w3.org/1999/xlink" version="1.1" viewBox="-10 0 692 1000"><g transform="matrix(1 0 0 -1 0 800)"><path stroke="black" fill="none" d="M 141.9993 522.8001 l 0.0019683838 150.4002 l 0.003189087 150.3974 l 202.46152 150.40173 l -22.377686 0.0 l -22.709015 0.0 l -22.308502 0.0 l -134.9408 0.0 l 22.32042 0.0 l 22.525848 0.0 l 22.943787 0.0 l 21.929672 0.0 l 22.636795 0.0 l 139.45851 -80.72278 l -26.943054 -3.8687744 l -9.1552734e-05 10.263977 l 0.0014648438 10.674438 l -0.0016174316 -31.767944 l 0.0 -10.578918 l 0.0 0.0 l 0.0 0.0 l 0.0 0.0 l 0.0 53.202637 l 0.0 10.257202 l 0.0 10.708862 l 0.0 10.638306 l 0.0 20.990723 l 0.0 -10.256348 l 54.653503 -47.651733 l 28.378235 19.934631 l 29.12735 17.29596 l 29.840546 14.629578 l 30.560608 11.9696045 l 31.28064 9.309448 l 104.18768 9.161682 l -39.468628 1.4794312 l 0.0 0.0 l 0.0 0.0 l 0.0 0.0 l -32.700623 -3.987671 l 146.92725 -9.337219 l 35.20276 -10.35199 l -71.87036 17.747986 l 105.70636 -31.079163 l 32.365723 -16.26764 l 60.48114 -41.40869 l -29.482483 22.149292 l 57.66028 -47.34491 l 0.0 0.0 l 0.0 0.0 l 0.0 0.0 l 25.078064 -30.168213 l 42.23224 -64.946045 l -19.7854 33.225647 l 51.467896 -104.34418 l -14.509277 36.303345 l 35.631836 -113.58185 l -9.233154 39.381348 l 19.797852 -122.84003 l 0.0 0.0 l 0.0 0.0 l 0.0 0.0 l -3.9593506 42.482666 l -1.2789307 -127.142944 l 3.927124 41.579956 l -10.483398 -81.767975 l -9.163208 -38.661438 l -11.793945 -37.239746 l -14.409973 -35.77011 l -17.029907 -34.31009 l -19.650024 -32.850082 l -22.268433 -31.390244 l 0.0 0.0 l 0.0 0.0 l 0.0 0.0 l -26.684082 -27.553192 l -28.033203 -24.64421 l -29.402832 -21.751678 l -30.760132 -18.850342 l -32.120056 -15.950325 l -33.480103 -13.050331 l -34.840088 -10.15033 l -36.200073 -7.2503204 l -71.38135 -2.9800186 l 33.82196 -1.3692551 l 0.0 0.0 l 0.0 0.0 l 0.0 0.0 l -66.95935 5.478264 l -95.05487 28.778824 l -30.216034 15.058052 l 92.69797 -36.933014 l -31.446594 9.519348 l -147.66083 -102.73107 l -3.0517578e-05 -63.766624 l 28.238556 232.15355 l 28.624176 -20.418198 l -56.819946 43.784424 l -0.04208374 -63.74742 l -0.0009765625 -255.80959 l 0.0 -63.769577 l 0.0 -64.0264 l 0.0 -63.766327 l -0.010131836 383.3731 l -253.29672 -587.37726 l 20.667831 0.0 l 45.018616 0.0 l -21.93332 0.0 l 89.36919 0.0 l -23.395798 0.0 l -20.643784 0.0 l 113.39407 0.0 l 20.59909 0.0 l -45.846863 0.0 l -20.636383 0.0 l 96.71152 76.269196 l 0.00039672852 63.766846 l -254.6974 10.430878 l -6.1035156e-05 150.31049 l 0.00015258789 300.75568 l -7.6293945e-05 -150.31049 l 0.0022277832 300.77765 l -0.0038452148 150.39958 " /> </g> </svg>