<?xml version="1.0" standalone="no"?><!DOCTYPE svg PUBLIC "-//W3C//DTD SVG 1.1//EN" "http://www.w3.org/Graphics/SVG/1.1/DTD/svg11.dtd" ><svg xmlns="http://www.w3.org/2000/svg" xmlns:xlink="http://www.w3.org/1999/xlink" version="1.1" viewBox="-10 0 692 1000"><g transform="matrix(1 0 0 -1 0 800)"><path stroke="black" fill="none" d="M 141.67259 522.8939 l 0.91056824 150.48242 l 1.4796906 149.1847 l 197.7456 151.21198 l -0.012817383 0.0 l -55.460876 6.1035156e-05 l 0.0 0.0 l -117.93384 -0.00024414062 l 0.0 0.0 l 7.5770264 -0.0005493164 l 64.55188 0.00061035156 l 7.702545 0.00012207031 l 0.0 0.0 l 138.76724 -77.38751 l 0.0 0.0 l -15.277618 3.0196533 l 0.0 0.0 l -3.931427 -30.69336 l -3.0517578e-05 -0.2584839 l 0.0 0.0 l -9.1552734e-05 60.67163 l 0.0 0.10534668 l 0.0 26.586365 l 0.0 0.0 l 0.0 4.8165283 l 60.89444 -40.517212 l 18.306488 12.835876 l 32.529175 20.050049 l 30.097778 14.448303 l 30.832886 11.780762 l 31.572998 9.038696 l 93.86505 9.951294 l -47.792114 -1.0085449 l 0.0 0.0 l -5.5059204 -0.66986084 l 145.63928 -12.695862 l 22.604248 -6.6398926 l -67.414185 12.172791 l 113.29077 -30.667358 l 21.109558 -10.56012 l 42.48047 -26.929993 l -0.77264404 0.5991821 l 51.10315 -42.267456 l 0.0 0.0 l -6.1035156e-05 -6.1035156e-05 l -0.00024414062 -0.00024414062 l 24.188599 -29.33899 l -0.04675293 0.042663574 l 38.680298 -58.52899 l -13.021179 21.945557 l 45.881714 -92.37848 l -9.542114 23.973389 l 31.841675 -100.57037 l -6.091919 26.11914 l 18.602783 -116.16345 l 0.0 0.0 l -0.01977539 0.20892334 l -3.435913 36.817444 l -0.8099365 -114.60745 l 2.6362305 27.665314 l -12.058838 -85.450775 l -6.0040283 -25.438019 l -13.639038 -41.769897 l -14.389465 -35.81125 l -17.01941 -34.352203 l -19.649536 -32.893204 l -21.543518 -31.498154 l 0.0 0.0 l -0.00012207031 1.5258789e-05 l -0.0007324219 6.1035156e-05 l -28.549622 -29.027344 l -24.905457 -21.972763 l -30.712646 -22.526978 l -30.802979 -19.00428 l -32.163513 -16.103271 l -33.523926 -13.202263 l -34.88452 -10.301262 l -36.244873 -7.400261 l -62.729492 -2.991768 l 25.254944 -1.0144577 l 0.0041503906 -0.0001449585 l 0.0 0.0 l -66.436584 4.664757 l -101.96155 32.8684 l -19.116577 9.525497 l 63.783203 -27.312164 l 0.0 0.0 l -154.56744 -146.68823 l -0.018859863 -2.3994255 l 48.184143 201.07585 l 0.69747925 -0.38069153 l -48.607605 22.258453 l -0.06097412 2.7249146 l -0.33758545 -352.86432 l 3.0517578e-05 -3.4513397 l 3.0517578e-05 -122.48494 l 0.0 -2.3127747 l -4.6950073 371.34738 l -193.37509 -590.77826 l 0.0 0.0 l 116.66098 0.0 l 0.0 0.0 l 80.17059 122.21951 l 0.16607666 2.4623718 l -253.47903 56.762573 l -0.0284729 108.881744 l 0.073516846 280.23526 l -0.036956787 -108.87256 l 1.0304413 290.43268 l -1.7849731 150.20703 " /> </g> </svg>