<?xml version="1.0" standalone="no"?><!DOCTYPE svg PUBLIC "-//W3C//DTD SVG 1.1//EN" "http://www.w3.org/Graphics/SVG/1.1/DTD/svg11.dtd" ><svg xmlns="http://www.w3.org/2000/svg" xmlns:xlink="http://www.w3.org/1999/xlink" version="1.1" viewBox="-10 0 692 1000"><g transform="matrix(1 0 0 -1 0 800)"><path stroke="black" fill="none" d="M 141.9998 522.8 l 0.00016784668 150.40002 l 0.0002746582 150.39984 l 202.4967 150.40009 l -22.489532 0.0 l -22.517914 0.0 l -22.483582 0.0 l -134.99492 0.0 l 22.484604 0.0 l 22.502213 0.0 l 22.53807 0.0 l 22.451065 0.0 l 22.511734 0.0 l 139.45987 -80.72937 l -26.958527 -4.0527344 l -3.0517578e-05 10.571167 l 0.00015258789 10.606384 l -0.00015258789 -31.797302 l 0.0 -10.598145 l 0.0 0.0 l 0.0 0.0 l 0.0 0.0 l 0.0 53.017395 l 0.0 10.570557 l 0.0 10.609375 l 0.0 10.6032715 l 0.0 21.182068 l 0.0 -10.570496 l 54.641174 -47.531372 l 28.398132 19.94873 l 29.120605 17.290466 l 29.840057 14.630005 l 30.560028 11.96991 l 31.28009 9.309998 l 104.20807 9.160156 l -39.48816 1.4799194 l 0.0 0.0 l 0.0 0.0 l 0.0 0.0 l -32.718323 -3.9898071 l 146.92975 -9.330627 l 35.22766 -10.359314 l -71.87915 17.758972 l 105.69141 -31.079895 l 32.38788 -16.27893 l 60.516724 -41.437317 l -29.54425 22.195679 l 57.678284 -47.358765 l 0.0 0.0 l 0.0 0.0 l 0.0 0.0 l 25.079834 -30.16986 l 42.23932 -64.9588 l -19.798706 33.247925 l 51.478943 -104.3678 l -14.519165 36.32776 l 35.639404 -113.607605 l -9.239502 39.40753 l 19.799927 -122.84912 l 0.0 0.0 l 0.0 0.0 l 0.0 0.0 l -3.959961 42.48938 l -1.2799072 -127.167694 l 3.9296875 41.60742 l -10.480225 -81.76068 l -9.169434 -38.68756 l -11.790283 -37.230835 l -14.410034 -35.77002 l -17.029968 -34.309998 l -19.650024 -32.850006 l -22.269897 -31.390015 l 0.0 0.0 l 0.0 0.0 l 0.0 0.0 l -26.680359 -27.550278 l -28.039368 -24.64949 l -29.400269 -21.750153 l -30.76001 -18.850037 l -32.119995 -15.95002 l -33.48004 -13.050034 l -34.840027 -10.150032 l -36.19995 -7.250023 l -71.39844 -2.9799957 l 33.8385 -1.3699417 l 0.0 0.0 l 0.0 0.0 l 0.0 0.0 l -66.95996 5.479851 l -95.04126 28.77076 l -30.237946 15.06897 l 92.86435 -36.985107 l -31.659973 9.583939 l -147.6052 -102.65696 l 0.0 -63.888557 l 28.093597 232.29657 l 28.784882 -20.538681 l -56.874817 43.835236 l -0.0036010742 -63.886917 l -9.1552734e-05 -255.618 l 0.0 -63.888794 l 0.0 -63.910828 l 0.0 -63.88858 l -0.0008544922 383.39774 l -254.57964 -587.37054 l 22.34282 0.0 l 45.001587 0.0 l -22.451385 0.0 l 89.94589 0.0 l -22.576843 0.0 l -22.34076 0.0 l 112.57669 0.0 l 22.336914 0.0 l -45.07263 0.0 l -22.340118 0.0 l 97.15808 76.17844 l 6.1035156e-05 63.88858 l -254.6998 10.338715 l -1.5258789e-05 150.39232 l 1.5258789e-05 300.7962 l 0.0 -150.39232 l 0.00018310547 300.79807 l -0.00032043457 150.39998 " /> </g> </svg>