<?xml version="1.0" standalone="no"?><!DOCTYPE svg PUBLIC "-//W3C//DTD SVG 1.1//EN" "http://www.w3.org/Graphics/SVG/1.1/DTD/svg11.dtd" ><svg xmlns="http://www.w3.org/2000/svg" xmlns:xlink="http://www.w3.org/1999/xlink" version="1.1" viewBox="-10 0 692 1000"><g transform="matrix(1 0 0 -1 0 800)"><path stroke="black" fill="none" d="M 189.42162 255.12854 l -11.694031 36.926636 l 26.259033 -73.081116 l 16.89215 -34.032562 l -52.474762 146.64612 l -6.391144 39.176086 l -3.9684906 41.84494 l 0.0 0.0 l 0.0 0.0 l 0.0 0.0 l 5.2192535 85.653625 l -3.8990784 -41.87729 l 10.464478 82.81262 l 9.19455 39.396057 l 11.7621155 37.739746 l 189.68019 231.49133 l -60.777832 -41.425903 l 29.67743 22.145813 l -144.13136 -175.75574 l 16.989105 34.826355 l 68.83864 93.410034 l -26.91278 -27.954224 l 0.0 0.0 l -0.00012207031 -0.00018310547 l -0.0005493164 -0.00079345703 l -22.111465 -31.76239 l 239.687 166.43353 l -35.023743 -10.334595 l -33.790253 -13.295349 l 105.59317 31.077637 l 37.525757 4.409546 l 0.0 0.0 l 6.1035156e-05 0.0 l 0.00030517578 0.0 l 33.173035 -1.3200684 l 64.9256 -10.638428 l -31.918335 6.6332397 l 63.406616 -16.014404 l 30.251038 -11.849487 l 29.965515 -14.676514 l 29.222595 -17.339478 l 28.388794 -19.917786 l 27.6203 11.5685425 l 0.0 6.0548096 l 0.0 -18.601074 l 0.0 -11.704956 l 0.0 -9.376953 l 0.0 95.082275 l 0.0 10.19165 l 0.0 -21.74292 l 0.0 -9.45874 l 0.0 -11.697266 l 0.0 -9.393188 l 22.580933 52.44525 l 67.68848 0.025756836 l -22.397583 0.0 l -22.64215 0.00030517578 l 67.80737 -0.00030517578 l 22.532349 -6.1035156e-05 l 67.86774 -6.1035156e-05 l 22.531006 0.0 l -45.293884 0.0 l -22.391113 6.1035156e-05 l 67.71088 -150.39954 l 0.0076904297 -150.40082 l -0.0013427734 -150.4031 l -0.00061035156 -301.5463 l 0.00012207031 -149.38513 l -0.10913086 300.5038 l 0.10839844 -601.3286 l 0.00024414062 150.10344 l -197.03064 200.08913 l 0.0053710938 63.751385 l 0.0 0.0 l -0.00012207031 -0.00010681152 l -0.00048828125 -0.00051116943 l -26.987915 -25.848679 l 26.994629 -293.30508 l -6.1035156e-05 63.444397 l -0.00012207031 -128.8211 l 0.0 -62.395935 l -0.0004272461 319.1162 l -0.0008544922 -63.80758 l -83.77228 121.78832 l 28.625977 20.496693 l -88.921875 -53.636913 l -30.188293 -12.015007 l 60.947388 27.296766 l -234.98312 -42.09571 l -35.750305 7.189456 l 112.058685 -13.029277 l 0.0 0.0 l -0.00012207031 3.8146973e-06 l -0.00030517578 1.1444092e-05 l -38.235596 1.4322319 l 72.09558 2.8046627 l 31.661255 6.6729183 l -412.87885 167.68196 l 22.103561 -31.155533 l 24.930328 -29.987167 l 0.0 0.0 l 3.0517578e-05 -1.5258789e-05 l 3.0517578e-05 -2.2888184e-05 l 27.952637 -24.599434 l 29.457031 -21.83007 l 30.610992 -18.801716 l 65.37378 -28.99699 l -33.283997 13.016491 l 537.7407 -615.5975 l 20.710876 0.0 l 27.845642 0.0 l 16.404602 0.0 l 28.630676 0.0 l 16.17334 0.0 l -219.0484 0.0 l 32.99005 0.0 l 1.6522217 0.0 l 32.623657 0.0 l 16.137268 0.0 l -59.697266 75.43152 l 196.11151 74.88043 l -196.04346 -9.290344 l -0.0068359375 62.395264 " /> </g> </svg>