<?xml version="1.0" standalone="no"?><!DOCTYPE svg PUBLIC "-//W3C//DTD SVG 1.1//EN" "http://www.w3.org/Graphics/SVG/1.1/DTD/svg11.dtd" ><svg xmlns="http://www.w3.org/2000/svg" xmlns:xlink="http://www.w3.org/1999/xlink" version="1.1" viewBox="-10 0 692 1000"><g transform="matrix(1 0 0 -1 0 800)"><path stroke="black" fill="none" d="M 367.0 -530.0 l -22.5 0.0 l -22.5 0.0 l -22.5 0.0 l -22.5 0.0 l -22.5 0.0 l -22.5 0.0 l -22.5 0.0 l -22.5 0.0 l -22.5 0.0 l -22.5 0.0 l 0.0 150.4 l 0.0 150.4 l 0.0 150.4 l 0.0 150.4 l 68.267365 138.84985 l 0.0 0.0 l -51.960526 198.02652 l 0.0 0.0 l 12.425735 133.1625 l 0.0 0.0 l 18.819748 87.25769 l 0.0 0.0 l -47.552322 194.70343 l 0.0 150.39996 l 22.5 0.0 l 22.5 0.0 l 22.5 0.0 l 22.5 0.0 l 22.5 0.0 l 22.5 0.0 l 22.5 0.0 l 22.5 0.0 l 22.5 0.0 l 22.5 0.0 l 0.0 -10.599976 l 0.0 -10.600037 l 0.0 -10.599976 l 0.0 -10.600037 l 0.0 -10.599976 l 0.0 -10.599976 l 0.0 -10.600037 l -0.00030517578 -10.601013 l 5.8391113 -42.613586 l 0.0 0.0 l -142.62033 -145.86993 l 0.0 0.0 l 78.10269 95.587524 l 126.79648 79.82788 l 0.0 0.0 l -13.477631 39.749146 l 28.399994 19.950012 l 30.944336 -28.827454 l 123.50839 -10.981445 l 0.0 0.0 l -64.93274 83.69885 l 31.28003 9.310059 l 32.0 6.6499634 l 32.71997 3.9899902 l 0.0 0.0 l 39.48999 -1.4799805 l 51.92865 -137.33844 l 0.0 0.0 l 22.791382 125.49841 l 79.57007 -165.82727 l 0.0 0.0 l -10.53009 142.14728 l 12.760071 -87.43286 l 0.0 0.0 l 61.14099 25.272766 l 0.0 0.0 l 65.107056 -2.3254395 l 0.0 0.0 l 87.53027 -0.56921387 l 0.0 0.0 l -47.112427 -0.1217041 l -33.30597 -47.873535 l 22.440002 -31.710022 l 19.799988 -33.25 l 40.27533 -36.38794 l -8.595337 -34.732056 l 11.880005 -37.869995 l 9.23999 -39.409973 l -0.15283203 -39.606445 l 10.712891 -43.833557 l 0.0 0.0 l -1.3100586 -43.070007 l -3.9299316 -41.610016 l -7.7662354 -26.842163 l -7.9538574 -51.997833 l -11.789917 -37.22998 l 9.384155 -49.83429 l -40.824158 -20.245728 l -19.650024 -32.84999 l -22.27002 -31.39 l 0.0 0.0 l 89.60297 -314.47614 l 0.0 0.0 l -144.32294 262.27615 l -29.400024 -21.75 l -8.349304 -434.8307 l 0.0 0.0 l -18.64972 304.27155 l 0.0 0.0 l -56.161316 45.294662 l 0.0 0.0 l -48.039673 27.264496 l -11.540039 -62.691467 l 0.0 0.0 l -62.21991 51.09147 l 0.0 0.0 l -33.840027 1.3700027 l -33.119995 4.1100006 l 62.386047 -89.39981 l 0.0 0.0 l -126.466064 105.839806 l -30.95996 12.330002 l -30.24002 15.07 l -29.52002 17.810005 l -28.799988 20.549988 l -28.079987 23.290009 l -120.00659 -78.06731 l 0.0 0.0 l 94.48859 -74.90065 l 0.0 0.0 l 42.5495 -26.670166 l 0.0 0.0 l -17.031494 -75.96188 l 0.0 -63.90001 l 0.0 -63.899994 l 0.0 -63.899994 l 0.0 -63.900024 l 0.0 -63.899994 l 510.9879 -214.33664 l 0.0 0.0 " /> </g> </svg>