<?xml version="1.0" standalone="no"?><!DOCTYPE svg PUBLIC "-//W3C//DTD SVG 1.1//EN" "http://www.w3.org/Graphics/SVG/1.1/DTD/svg11.dtd" ><svg xmlns="http://www.w3.org/2000/svg" xmlns:xlink="http://www.w3.org/1999/xlink" version="1.1" viewBox="-10 0 692 1000"><g transform="matrix(1 0 0 -1 0 800)"><path stroke="black" fill="none" d="M 189.43462 255.08716 l -11.761887 37.141174 l 26.2173 -73.02377 l 16.989624 -34.228745 l -52.421906 146.18925 l -6.5034637 39.864746 l -3.9412842 41.678802 l 0.0 0.0 l 0.0 0.0 l 0.0 0.0 l 5.2339325 85.81369 l -3.9209442 -42.11255 l 10.475449 82.91684 l 9.177185 39.321045 l 11.78183 37.80359 l 189.68007 231.45502 l -60.821808 -41.435852 l 29.72876 22.184143 l -144.16576 -175.80829 l 17.01802 34.88556 l 68.94565 93.51605 l -27.022827 -28.069885 l 0.0 0.0 l 0.0 0.0 l -3.0517578e-05 0.0 l -22.224838 -31.92517 l 239.83763 166.60071 l -35.084747 -10.352539 l -33.77594 -13.312805 l 105.407104 31.079285 l 37.71161 4.4311523 l 0.0 0.0 l 6.1035156e-05 0.0 l 0.0 0.0 l 33.362793 -1.3270874 l 64.78027 -10.639587 l -31.976074 6.6451416 l 63.317017 -15.975952 l 30.469543 -11.934753 l 29.87677 -14.643616 l 29.150024 -17.304504 l 28.396729 -19.940552 l 27.662537 9.886658 l 0.0 9.268799 l 0.0 -20.438843 l 0.0 -10.923645 l 0.0 -10.24176 l 0.0 95.306946 l 0.0 10.480408 l 0.0 -21.359009 l 0.0 -10.265747 l 0.0 -10.921387 l 0.0 -10.246521 l 22.594421 52.837524 l 67.767334 0.007507324 l -22.54071 0.0 l -22.612366 0.00012207031 l 67.802185 -0.00012207031 l 22.58014 0.0 l 67.819885 0.0 l 22.579834 0.0 l -45.22754 0.0 l -22.538818 0.0 l 67.773926 -150.39984 l 0.0021972656 -150.40027 l -0.00036621094 -150.40088 l -0.00024414062 -301.0186 l 0.00012207031 -150.10275 l -0.031982422 300.71326 l 0.03173828 -601.5205 l 0.00012207031 150.31314 l -197.0232 199.94829 l 0.0028076172 63.857666 l 0.0 0.0 l 0.0 -1.5258789e-05 l -6.1035156e-05 -2.2888184e-05 l -27.125061 -25.978226 l 27.125671 -293.42172 l 0.0 63.76657 l -6.1035156e-05 -128.09909 l 0.0 -63.459442 l -0.00012207031 319.38757 l -0.00024414062 -63.872932 l -83.80603 121.817795 l 28.678345 20.53439 l -88.5387 -53.4906 l -30.748108 -12.2377405 l 61.125977 27.369762 l -234.86777 -42.1341 l -35.96222 7.2322674 l 112.13846 -13.043972 l 0.0 0.0 l 0.0 0.0 l 0.0 1.9073486e-06 l -38.586426 1.4448395 l 72.020996 2.7023716 l 32.254333 6.798134 l -413.14133 167.77249 l 22.221252 -31.321327 l 24.901642 -29.946594 l 0.0 0.0 l 0.0 0.0 l 0.0 0.0 l 27.993408 -24.635345 l 29.381348 -21.773457 l 30.66684 -18.835855 l 65.392334 -28.999119 l -33.34482 13.040186 l 536.68665 -615.6063 l 22.04663 0.0 l 24.136475 0.0 l 20.7854 0.0 l 24.366333 0.0 l 20.717651 0.0 l -223.96393 0.0 l 25.643188 0.0 l 16.461914 0.0 l 25.538513 0.0 l 20.707092 0.0 l -60.915466 75.826355 l 196.7539 74.54785 l -196.73395 -10.152832 l -0.0020141602 63.45929 " /> </g> </svg>