<?xml version="1.0" standalone="no"?><!DOCTYPE svg PUBLIC "-//W3C//DTD SVG 1.1//EN" "http://www.w3.org/Graphics/SVG/1.1/DTD/svg11.dtd" ><svg xmlns="http://www.w3.org/2000/svg" xmlns:xlink="http://www.w3.org/1999/xlink" version="1.1" viewBox="-10 0 692 1000"><g transform="matrix(1 0 0 -1 0 800)"><path stroke="black" fill="none" d="M 186.94258 263.02414 l -0.2336731 0.72216797 l 35.703903 -88.73816 l 0.34739685 -0.7117462 l -53.42267 169.59001 l 0.0 0.0 l -5.2716217 49.316925 l 0.0 0.0 l 0.0008392334 -0.0079956055 l 2.3826904 55.46826 l -0.08918762 -0.9213562 l 8.731598 66.85275 l 12.5065 53.70569 l 8.002304 25.558105 l 189.70651 238.41772 l -52.394897 -39.52704 l 19.88916 14.838623 l -137.57123 -165.7384 l 11.472885 23.545105 l 48.425186 73.17926 l -20.366364 -26.839539 l 0.0 0.0 l 224.79395 154.5951 l -23.390411 -6.9177856 l -36.52292 -9.963074 l 141.09406 30.757507 l 0.0 0.0 l 22.773315 -0.88616943 l 0.0 0.0 l 68.97937 -9.215698 l -20.904297 4.3634644 l 68.96985 -18.89508 l 0.0 0.0 l 0.13372803 -0.05456543 l 46.85785 -20.933594 l 43.056396 -24.021973 l 0.03540039 -0.017700195 l 26.838196 -15.553162 l 0.0 0.0 l 19.572876 -5.5775146 l 0.0 0.0 l 0.0030517578 84.08307 l 0.0 0.0 l -0.0018920898 -29.829712 l 0.0 0.0 l 20.0141 31.645264 l 52.645264 3.5005493 l -0.46429443 -0.00061035156 l -22.967896 0.0413208 l 68.80365 -0.042541504 l 13.410339 -0.0024414062 l 77.003296 -0.012329102 l 13.231323 0.005554199 l -57.964478 0.0005493164 l -0.36932373 0.00030517578 l 61.83551 -150.33942 l 1.0614014 -150.50452 l -0.19677734 -150.82513 l -0.071777344 -402.20883 l 0.0072021484 -12.500458 l -14.82251 260.55862 l 14.731812 -564.7292 l 0.036499023 110.10397 l -198.4737 226.95337 l 0.0 0.0 l -17.842346 22.225746 l 0.0 0.0 l 19.401306 -251.05301 l -0.0038452148 2.3792114 l -0.0034179688 -160.07973 l 0.0 0.0 l -0.07598877 300.9643 l -0.00018310547 -0.008270264 l -0.11218262 -51.332592 l -77.33075 116.1663 l 18.637634 13.306091 l -104.60254 -58.531425 l 0.0 0.0 l 46.069397 20.82995 l -256.98837 -34.773354 l -0.6642456 0.12382126 l 97.127045 -10.636854 l 0.0 0.0 l 58.08954 8.116962 l 0.0 0.0 l -382.39645 145.7394 l 0.7453003 -1.0675812 l 44.057434 -49.148666 l 0.0 0.0 l 5.442047 -4.795212 l 43.89093 -32.630135 l 19.954498 -12.289448 l 61.84131 -28.590782 l -21.687408 8.496641 l 609.2961 -613.91595 l 0.0 0.0 l -136.46594 4.609558 l 0.0 0.0 l 43.91626 133.82635 l -56.815674 46.38083 l 0.0 0.0 " /> </g> </svg>