<?xml version="1.0" standalone="no"?><!DOCTYPE svg PUBLIC "-//W3C//DTD SVG 1.1//EN" "http://www.w3.org/Graphics/SVG/1.1/DTD/svg11.dtd" ><svg xmlns="http://www.w3.org/2000/svg" xmlns:xlink="http://www.w3.org/1999/xlink" version="1.1" viewBox="-10 0 692 1000"><g transform="matrix(1 0 0 -1 0 800)"><path stroke="black" fill="none" d="M 367.0 -530.0 l -22.5 0.0 l -22.5 0.0 l -22.5 0.0 l -22.5 0.0 l -22.5 0.0 l -22.5 0.0 l -22.5 0.0 l -22.5 0.0 l -22.5 0.0 l -22.5 0.0 l 0.0 150.4 l 0.0 150.4 l 0.0 150.4 l 0.0 150.4 l 42.520035 201.51462 l 0.0 0.0 l 29.072662 -71.698044 l 0.0 0.0 l -51.41008 172.80922 l -3.7559814 34.51779 l 0.0 0.0 l 3.302002 68.54169 l 0.0 0.0 l 5.577652 43.03659 l 20.561554 88.5083 l 0.34033203 0.9113159 l -46.208176 213.85852 l 0.0 150.39996 l 22.5 0.0 l 22.5 0.0 l 22.5 0.0 l 22.5 0.0 l 22.5 0.0 l 22.5 0.0 l 22.5 0.0 l 22.5 0.0 l 22.5 0.0 l 22.5 0.0 l 0.0 -10.599976 l 0.0 -10.600037 l 0.0 -10.599976 l 0.0 -10.600037 l 0.0 -10.599976 l 0.0 -10.599976 l 3.0517578e-05 -10.600098 l 9.496307 -39.77539 l -32.00659 -34.90869 l 0.71832275 0.53100586 l -126.25159 -144.83942 l 0.4016266 0.8644409 l 29.810959 49.744568 l 0.0 0.0 l 204.52838 148.40082 l -0.7954407 -0.25543213 l -37.470398 -0.21087646 l 34.6084 56.479065 l 111.6423 -36.39087 l 0.0 0.0 l 66.23645 -6.420288 l -0.6779175 0.16345215 l -87.68085 86.53766 l 31.28003 9.310059 l 32.0 6.6499634 l 32.71997 3.9899902 l 0.0 0.0 l 39.48999 -1.4799805 l 42.733826 -133.77869 l 0.0 0.0 l 13.345093 -5.9699097 l 18.641113 127.90857 l 58.06073 -168.18317 l 0.0 0.0 l 23.16394 0.29229736 l 0.0 0.0 l -12.184692 144.21088 l 12.611938 -88.05591 l 0.0 0.0 l 13.373108 11.466248 l 50.80414 11.9973755 l 0.0 0.0 l -5.630066 0.09326172 l 71.00586 -0.1453247 l 0.21282959 -0.0005493164 l 89.973206 -0.049926758 l 0.17993164 0.0009765625 l -56.66687 -0.010375977 l 0.0 0.0 l -29.74408 -48.345764 l 22.440002 -31.710022 l 19.799988 -33.25 l 47.045715 -36.856018 l -15.365723 -34.263977 l 11.880005 -37.869995 l 9.23999 -39.409973 l -2.1307373 -39.21295 l 12.690796 -44.22705 l 0.0 0.0 l -1.3100586 -43.070007 l -3.9299316 -41.610016 l -8.122437 -22.944397 l -7.5976562 -55.8956 l -11.789917 -37.22998 l 18.99231 -299.3601 l 0.0 0.0 l -50.432312 229.28009 l -19.650024 -32.84999 l -22.27002 -31.39 l 0.0 0.0 l 92.21747 -411.47516 l 0.12463379 12.82077 l -147.06207 346.4544 l -68.40912 -74.08153 l 0.0 0.0 l 19.0094 -262.6839 l 0.0 0.0 l -0.038208008 -131.4993 l -0.44488525 276.23676 l 0.0 0.0 l -0.38354492 -21.02041 l -61.66443 102.492905 l 0.5081787 0.336277 l -49.17743 30.469193 l -9.931946 -67.66135 l 0.51275635 0.21806145 l -64.34076 55.84329 l 0.0 0.0 l -33.840027 1.3700027 l -33.119995 4.1100006 l -113.36203 -95.45607 l 0.0 0.0 l 175.86642 6.039522 l 0.0 0.0 l -126.58441 105.856544 l -30.95996 12.330002 l -30.24002 15.07 l -29.52002 17.810005 l -28.799988 20.549988 l -28.079987 23.290009 l -130.11493 -68.57306 l 0.0 0.0 l 39.99295 -41.998734 l 0.0 0.0 l 61.897095 -44.211987 l 0.5244446 -0.3463707 l 46.762115 -23.707344 l -0.57611084 0.23640585 l -18.485565 -76.99892 l 0.0 -63.90001 l 0.0 -63.899994 l 0.0 -63.899994 l 0.0 -63.900024 l 0.0 -63.899994 l 514.5874 -216.05124 l 0.0 0.0 l -50.609253 104.43616 l 0.0 0.0 " /> </g> </svg>