<?xml version="1.0" standalone="no"?><!DOCTYPE svg PUBLIC "-//W3C//DTD SVG 1.1//EN" "http://www.w3.org/Graphics/SVG/1.1/DTD/svg11.dtd" ><svg xmlns="http://www.w3.org/2000/svg" xmlns:xlink="http://www.w3.org/1999/xlink" version="1.1" viewBox="-10 0 692 1000"><g transform="matrix(1 0 0 -1 0 800)"><path stroke="black" fill="none" d="M 189.22575 255.75237 l -10.671463 33.69348 l 26.888153 -73.945465 l 15.4231415 -31.075775 l -53.271606 153.53159 l -4.6982574 28.797241 l -4.3782196 44.34668 l 0.0 0.0 l 0.0 -3.0517578e-05 l 0.0 -6.1035156e-05 l 4.997818 83.24353 l -3.569641 -38.33185 l 10.299149 81.242065 l 9.456223 40.526672 l 11.465073 36.777283 l 189.68225 232.03857 l -60.11551 -41.27588 l 28.904083 21.568481 l -143.61307 -174.9643 l 16.553284 33.93506 l 67.2258 91.811646 l -25.898865 -27.138306 l 0.0 0.0 l -0.10397339 -0.14953613 l -19.66455 -28.247925 l 237.41708 163.914 l -34.104645 -10.064636 l -34.006165 -13.032043 l 108.39807 31.052307 l 0.84472656 0.09503174 l 34.42682 3.967102 l 0.0 0.0 l 0.04711914 -0.001953125 l 29.723328 -1.1893921 l 67.116455 -10.621399 l -31.048096 6.4538574 l 64.75604 -16.593384 l 4.0116577 -1.5818481 l 22.947266 -8.983276 l 31.302856 -15.171936 l 30.315552 -17.867493 l 28.269104 -19.57434 l 0.048583984 -0.0025024414 l 26.935913 10.030518 l 0.0 0.0 l 0.0 -6.398926 l 0.0 -23.402466 l 0.0 -0.14245605 l 6.1035156e-05 95.417725 l 0.0 5.840088 l -6.1035156e-05 -27.526794 l 0.0 -0.2532959 l 0.0 -20.391846 l 0.0 -0.15893555 l 22.378235 50.11566 l 66.49994 0.30029297 l -20.240967 -0.00018310547 l -23.091614 0.0036621094 l 67.88605 -0.0036621094 l 21.811646 -0.00018310547 l 68.5896 -0.0010375977 l 21.796265 0.00048828125 l -46.295044 0.0 l -20.165344 0.00012207031 l 66.7608 -150.39484 l 0.09106445 -150.409 l -0.016967773 -150.43646 l -0.0061035156 -309.4995 l 0.00061035156 -138.57008 l -1.2716064 297.3478 l 1.263794 -598.43695 l 0.0031738281 146.94315 l -197.14471 202.21164 l -0.019897461 0.2521515 l -0.64276123 61.202934 l 0.0 0.0 l -0.10168457 -0.099845886 l -24.121216 -23.111252 l 25.019287 -291.54727 l -0.00036621094 58.58893 l -0.0014648438 -139.70273 l -0.00018310547 -46.367615 l -0.005126953 315.02625 l -0.009643555 -62.822598 l -83.263306 121.34413 l 27.836792 19.928574 l -94.6969 -55.84196 l -21.751282 -8.658176 l 58.256104 26.19663 l -236.72171 -41.51718 l -32.556854 6.544239 l 110.241455 -12.783775 l 0.0 0.0 l -0.05847168 0.0022830963 l -32.28192 1.2161312 l 73.22009 4.346302 l 22.723206 4.785776 l -408.92358 166.31747 l 20.329483 -28.656784 l 25.460663 -30.68444 l 0.0 0.0 l 0.002960205 -0.0025939941 l 0.56625366 -0.49767303 l 26.672394 -23.472687 l 30.597443 -22.683369 l 29.769043 -18.287191 l 65.094696 -28.964895 l -32.367798 12.659384 l 553.62683 -615.4646 l 1.1177979 0.0 l 51.629944 0.0 l 0.0 0.0 l 32.834656 0.0 l 0.0 0.0 l -177.26349 0.0004272461 l 0.0 0.0 l 40.68744 -0.00030517578 l 0.0 0.0 l -51.179382 69.480896 l -0.002319336 -0.036499023 l 186.43158 79.92911 l -185.63654 3.7080994 l -0.07946777 46.359528 " /> </g> </svg>