<?xml version="1.0" standalone="no"?><!DOCTYPE svg PUBLIC "-//W3C//DTD SVG 1.1//EN" "http://www.w3.org/Graphics/SVG/1.1/DTD/svg11.dtd" ><svg xmlns="http://www.w3.org/2000/svg" xmlns:xlink="http://www.w3.org/1999/xlink" version="1.1" viewBox="-10 0 692 1000"><g transform="matrix(1 0 0 -1 0 800)"><path stroke="black" fill="none" d="M 189.43843 255.07503 l -11.781754 37.20398 l 26.205063 -73.00696 l 17.018173 -34.28621 l -52.406418 146.05544 l -6.536377 40.066467 l -3.9333038 41.630127 l 0.0 0.0 l 0.0 0.0 l 0.0 0.0 l 5.23822 85.860596 l -3.9273376 -42.181458 l 10.478668 82.94733 l 9.172104 39.299072 l 11.787598 37.822327 l 189.68001 231.4444 l -60.834656 -41.43878 l 29.743774 22.195312 l -144.17583 -175.82361 l 17.02649 34.902832 l 68.977005 93.54712 l -27.05606 -28.105164 l 0.0 0.0 l 0.0 0.0 l -3.0517578e-05 0.0 l -22.256851 -31.97113 l 239.88173 166.64966 l -35.1026 -10.357788 l -33.77173 -13.317871 l 105.35257 31.079712 l 37.766968 4.437439 l 0.0 0.0 l 0.0 0.0 l 0.0 0.0 l 33.41748 -1.3291016 l 64.73767 -10.639893 l -31.993042 6.6485596 l 63.290833 -15.964661 l 30.533508 -11.959717 l 29.850769 -14.633972 l 29.128845 -17.29425 l 28.399048 -19.947205 l 27.674866 9.394043 l 0.0 10.210083 l 0.0 -20.97705 l 0.0 -10.694824 l 0.0 -10.495056 l 0.0 95.37274 l 0.0 10.565002 l 0.0 -21.246582 l 0.0 -10.502075 l 0.0 -10.694153 l 0.0 -10.49646 l 22.598328 52.952393 l 67.79047 0.0021972656 l -22.582642 0.0 l -22.603577 6.1035156e-05 l 67.8006 -6.1035156e-05 l 22.594177 0.0 l 67.80585 0.0 l 22.594116 0.0 l -45.20813 0.0 l -22.582031 0.0 l 67.79236 -150.3999 l 0.00061035156 -150.40015 l -0.00012207031 -150.40024 l 0.0 -300.864 l 0.0 -150.31293 l -0.009399414 300.7746 l 0.009277344 -601.5767 l 0.00012207031 150.37457 l -197.021 199.90704 l 0.00091552734 63.8877 l 0.0 0.0 l 0.0 0.0 l 0.0 0.0 l -27.164001 -26.014946 l 27.164062 -293.45587 l 0.0 63.860916 l 0.0 -127.8876 l 0.0 -63.770966 l -6.1035156e-05 319.4671 l -6.1035156e-05 -63.892075 l -83.81592 121.82643 l 28.693665 20.54543 l -88.42645 -53.44775 l -30.912048 -12.3029785 l 61.178284 27.391144 l -234.83401 -42.14534 l -36.02426 7.2448063 l 112.16083 -13.048239 l 0.0 0.0 l 0.0 0.0 l 0.0 0.0 l -38.68805 1.448492 l 71.999146 2.672411 l 32.42804 6.8348093 l -413.2182 167.79901 l 22.255753 -31.36988 l 24.893372 -29.934853 l 0.0 0.0 l 0.0 0.0 l 0.0 0.0 l 28.005157 -24.645721 l 29.359192 -21.756866 l 30.683228 -18.845858 l 65.397736 -28.999743 l -33.36261 13.047126 l 536.37787 -615.6089 l 22.437927 0.0 l 23.050049 0.0 l 22.068481 0.0 l 23.117432 0.0 l 22.048584 0.0 l -225.40363 0.0 l 23.491333 0.0 l 20.802185 0.0 l 23.460693 0.0 l 22.045532 0.0 l -61.272217 75.94202 l 196.94214 74.45044 l -196.93628 -10.405457 l -0.00061035156 63.770905 " /> </g> </svg>