<?xml version="1.0" standalone="no"?><!DOCTYPE svg PUBLIC "-//W3C//DTD SVG 1.1//EN" "http://www.w3.org/Graphics/SVG/1.1/DTD/svg11.dtd" ><svg xmlns="http://www.w3.org/2000/svg" xmlns:xlink="http://www.w3.org/1999/xlink" version="1.1" viewBox="-10 0 692 1000"><g transform="matrix(1 0 0 -1 0 800)"><path stroke="black" fill="none" d="M 188.70853 257.39972 l -7.9711 25.155518 l 28.5495 -76.22801 l 11.543854 -23.26764 l -55.375824 171.7144 l -0.28623962 1.7481384 l -5.3996277 50.573975 l 0.0 0.0 l 3.0517578e-05 -0.00033569336 l 0.00032043457 -0.0029907227 l 4.4105835 76.902405 l -2.6996765 -28.969269 l 9.862534 77.09473 l 10.147247 43.512268 l 10.680603 34.235657 l 189.68774 233.4837 l -58.366486 -40.8797 l 26.861847 20.043884 l -142.24434 -172.8742 l 15.402359 31.581299 l 62.966705 87.59064 l -29.03209 -33.338196 l 0.0 0.0 l -7.7688904 -11.154419 l 231.42271 157.26062 l -31.67743 -9.351746 l -34.576294 -12.336792 l 115.80505 30.985474 l 0.04852295 0.005493164 l 34.20642 2.935913 l 0.0 0.0 l 15.847961 -0.64819336 l 72.90198 -10.576477 l -28.750122 5.9803467 l 68.3197 -18.122437 l 0.65686035 -0.25897217 l 17.608337 -6.9144287 l 34.83435 -16.480225 l 33.201904 -19.261719 l 0.51293945 -0.25585938 l 27.440002 -18.41156 l 0.0107421875 -0.0005493164 l 25.294739 1.0772095 l 0.0 0.0 l 0.0 -18.143799 l 0.0 0.0 l 0.00024414062 97.83508 l 0.0 0.09790039 l -0.00024414062 -32.105835 l 0.0 0.0 l 0.0 -13.673828 l 0.0 0.0 l 21.842896 47.40497 l 63.361267 1.0253296 l -14.545776 -0.0006713867 l -24.278503 0.012573242 l 68.09393 -0.012451172 l 19.908386 -0.0007324219 l 70.495605 -0.0036010742 l 19.855957 0.0016479492 l -48.93866 0.00012207031 l -14.287659 0.00048828125 l 64.25195 -150.38263 l 0.3109131 -150.4306 l -0.057617188 -150.5245 l -0.021118164 -330.50195 l 0.0021972656 -110.01015 l -4.3414307 289.01355 l 4.3148193 -590.8008 l 0.0107421875 138.59755 l -197.4458 207.81665 l -0.0020751953 0.025806427 l -8.803528 49.102352 l 0.0 0.0 l -10.54071 -9.9813 l 19.802917 -286.90533 l -0.0012207031 45.76686 l -0.005065918 -168.4385 l -0.00048828125 -4.043518 l -0.01763916 304.22855 l -0.0007324219 -0.03002739 l -0.032165527 -60.19149 l -81.91937 120.17114 l 25.752808 18.42831 l -109.94708 -61.664955 l -0.9641113 -0.38637972 l 52.641907 23.884212 l -241.31296 -39.989433 l -24.123749 4.8403807 l 99.89838 -11.918847 l 0.0 0.0 l -11.227173 0.4371109 l 76.1897 8.4174 l 0.9492798 0.1926918 l -400.30798 162.3238 l 15.644623 -22.058205 l 27.741516 -33.29957 l 0.0 0.0 l 0.1611023 -0.14159393 l 24.322327 -21.403076 l 33.608948 -24.936726 l 27.545654 -16.928457 l 64.357666 -28.880142 l -29.948242 11.716352 l 568.3731 -615.1138 l 0.0 0.0 l 44.309387 0.0 l 0.0 0.0 l -134.93945 0.013305664 l 0.0 0.0 l -28.163269 53.753784 l 0.0 0.0 l 160.86084 93.12869 l -158.1543 38.033722 l -0.2711792 4.016144 " /> </g> </svg>