<?xml version="1.0" standalone="no"?><!DOCTYPE svg PUBLIC "-//W3C//DTD SVG 1.1//EN" "http://www.w3.org/Graphics/SVG/1.1/DTD/svg11.dtd" ><svg xmlns="http://www.w3.org/2000/svg" xmlns:xlink="http://www.w3.org/1999/xlink" version="1.1" viewBox="-10 0 692 1000"><g transform="matrix(1 0 0 -1 0 800)"><path stroke="black" fill="none" d="M 189.37724 255.26987 l -11.462372 36.1942 l 26.40155 -73.27693 l 16.559357 -33.362732 l -52.65529 148.20598 l -6.0076294 36.82483 l -4.0613556 42.41208 l 0.0 0.0 l 0.0 0.0 l 0.0 0.0 l 5.1691284 85.10724 l -3.8244476 -41.074097 l 10.427032 82.45682 l 9.25383 39.65222 l 11.694824 37.521667 l 189.68065 231.6153 l -60.627777 -41.391907 l 29.502228 22.015015 l -144.01395 -175.57642 l 16.890366 34.62445 l 68.47328 93.04791 l -26.57721 -27.617126 l 0.0 0.0 l -0.001953125 -0.0028686523 l -0.3310547 -0.47595215 l -21.354095 -30.674255 l 239.17279 165.86273 l -34.81555 -10.2734375 l -33.839172 -13.235718 l 106.22861 31.0719 l 36.92511 4.3345337 l 0.0 0.0 l 0.0012207031 0.0 l 0.056762695 -0.002380371 l 32.43445 -1.2921753 l 65.421936 -10.6345825 l -31.721191 6.5925903 l 63.71234 -16.145569 l 29.505249 -11.558533 l 30.268494 -14.788757 l 29.470154 -17.459106 l 28.361694 -19.839966 l 27.476257 16.70935 l 0.0 0.055908203 l 0.0 -16.69934 l 0.0 -14.372559 l 0.0 -6.4241943 l 0.0 94.315125 l 0.0 9.205872 l 0.0 -23.05365 l 0.0 -6.7035522 l 0.0 -14.346313 l 0.0 -6.4796143 l 22.535034 51.105896 l 67.41919 0.08795166 l -21.908997 -6.1035156e-05 l -22.744019 0.0010375977 l 67.825195 -0.0010375977 l 22.36908 -6.1035156e-05 l 68.03137 -0.00030517578 l 22.364502 0.00012207031 l -45.52069 0.0 l -21.886902 6.1035156e-05 l 67.495605 -150.3985 l 0.026611328 -150.40265 l -0.0048828125 -150.41064 l -0.0018310547 -303.34802 l 0.00024414062 -146.93509 l -0.37243652 299.78885 l 0.3701172 -600.6735 l 0.0008544922 149.3875 l -197.05646 200.56996 l -0.029724121 63.34532 l 0.0 0.0 l -0.0020141602 -0.0019836426 l -0.28149414 -0.27641296 l -26.194763 -25.08738 l 26.54712 -292.90686 l -6.1035156e-05 62.34442 l -0.0004272461 -131.28622 l -6.1035156e-05 -58.764893 l -0.0015258789 318.18967 l -0.0028076172 -63.584442 l -83.65698 121.6877 l 28.447205 20.367989 l -90.23016 -54.136448 l -28.276978 -11.254547 l 60.337708 27.04754 l -235.37698 -41.964653 l -35.026855 7.0432873 l 111.74802 -12.977608 l 0.0 0.0 l -0.0014038086 5.340576e-05 l -0.08343506 0.0032615662 l -36.916565 1.3844376 l 72.35028 3.1539059 l 29.636475 6.2454042 l -411.98285 167.37285 l 21.701645 -30.589462 l 25.034454 -30.131027 l 0.0 0.0 l 0.00015258789 -0.0001296997 l 0.0008239746 -0.00074005127 l 27.806671 -24.470772 l 29.715363 -22.023376 l 30.420258 -18.685156 l 65.31058 -28.98972 l -33.076447 12.935591 l 541.3395 -615.5674 l 16.150208 0.0 l 40.509644 0.0 l 1.5089111 0.0 l 43.1286 0.0 l 1.0032959 0.0 l -202.6109 6.1035156e-05 l 19.744019 -6.1035156e-05 l 0.0 0.0 l 46.232666 0.0 l 0.94989014 0.0 l -55.953247 74.083496 l -0.030578613 -0.48345947 l 193.94867 76.49933 l -193.68585 -6.345642 l -0.02331543 58.762512 " /> </g> </svg>