<?xml version="1.0" standalone="no"?><!DOCTYPE svg PUBLIC "-//W3C//DTD SVG 1.1//EN" "http://www.w3.org/Graphics/SVG/1.1/DTD/svg11.dtd" ><svg xmlns="http://www.w3.org/2000/svg" xmlns:xlink="http://www.w3.org/1999/xlink" version="1.1" viewBox="-10 0 692 1000"><g transform="matrix(1 0 0 -1 0 800)"><path stroke="black" fill="none" d="M 189.43843 255.07503 l -11.787582 37.222397 l 26.201477 -73.002045 l 17.026535 -34.30304 l -52.40187 146.01624 l -6.5460205 40.12555 l -3.9309692 41.615875 l 0.0 0.0 l 0.0 0.0 l 0.0 0.0 l 5.2394867 85.87433 l -3.9292145 -42.20163 l 10.479599 82.95627 l 9.170624 39.292664 l 11.789291 37.82776 l 189.68 231.44128 l -60.83844 -41.439636 l 29.748169 22.198608 l -144.17876 -175.82812 l 17.028976 34.907898 l 68.986176 93.556274 l -27.065887 -28.115662 l 0.0 0.0 l 0.0 0.0 l 0.0 0.0 l -22.266174 -31.984497 l 239.89465 166.66406 l -35.10785 -10.359375 l -33.770477 -13.319397 l 105.33661 31.079895 l 37.783203 4.43927 l 0.0 0.0 l 0.0 0.0 l 0.0 0.0 l 33.43341 -1.3297119 l 64.72522 -10.639954 l -31.997986 6.649597 l 63.283142 -15.961426 l 30.552246 -11.96698 l 29.8432 -14.631165 l 29.122559 -17.29126 l 28.39978 -19.949158 l 27.678467 9.249756 l 0.0 10.48584 l 0.0 -21.134705 l 0.0 -10.627808 l 0.0 -10.569275 l 0.0 95.39203 l 0.0 10.589722 l 0.0 -21.213623 l 0.0 -10.571289 l 0.0 -10.6276245 l 0.0 -10.569641 l 22.599487 52.986023 l 67.79718 0.0006713867 l -22.594849 0.0 l -22.601074 0.0 l 67.80017 0.0 l 22.598267 0.0 l 67.80182 0.0 l 22.598267 0.0 l -45.202454 0.0 l -22.594727 0.0 l 67.79779 -150.39996 l 0.00012207031 -150.40002 l 0.0 -150.40009 l 0.0 -300.81873 l 0.0 -150.37448 l -0.0028076172 300.79257 l 0.0028076172 -601.59314 l 0.0 150.39253 l -197.02032 199.89497 l 0.00030517578 63.896404 l 0.0 0.0 l 0.0 0.0 l 0.0 0.0 l -27.175354 -26.025597 l 27.175354 -293.46588 l 0.0 63.88855 l 0.0 -127.82565 l 0.0 -63.862213 l 0.0 319.49036 l -6.1035156e-05 -63.89768 l -83.81879 121.82895 l 28.698181 20.548664 l -88.393616 -53.4352 l -30.960083 -12.322085 l 61.193604 27.397406 l -234.8241 -42.148636 l -36.04245 7.248479 l 112.16733 -13.049485 l 0.0 0.0 l 0.0 0.0 l 0.0 0.0 l -38.717773 1.4495602 l 71.99274 2.6636333 l 32.478943 6.8455515 l -413.24072 167.80678 l 22.265823 -31.38411 l 24.890991 -29.93142 l 0.0 0.0 l 0.0 0.0 l 0.0 0.0 l 28.008575 -24.64875 l 29.352722 -21.75201 l 30.688019 -18.848785 l 65.39932 -28.999926 l -33.36783 13.049159 l 536.2874 -615.6096 l 22.552551 0.0 l 22.731812 0.0 l 22.444336 0.0 l 22.751526 0.0 l 22.438477 0.0 l -225.82526 0.0 l 22.861023 0.0 l 22.073486 0.0 l 22.85205 0.0 l 22.437561 0.0 l -61.37671 75.97589 l 196.99725 74.421906 l -196.99554 -10.479431 l -0.00012207031 63.862183 " /> </g> </svg>