<?xml version="1.0" standalone="no"?><!DOCTYPE svg PUBLIC "-//W3C//DTD SVG 1.1//EN" "http://www.w3.org/Graphics/SVG/1.1/DTD/svg11.dtd" ><svg xmlns="http://www.w3.org/2000/svg" xmlns:xlink="http://www.w3.org/1999/xlink" version="1.1" viewBox="-10 0 692 1000"><g transform="matrix(1 0 0 -1 0 800)"><path stroke="black" fill="none" d="M 338.79013 108.33802 l -6.1035156e-05 -50.105698 l -44.589203 -0.1144104 l 21.727478 -3.8146973e-06 l -68.53322 0.0 l -20.089905 0.0 l 43.72502 0.0 l -112.59029 1.1444092e-05 l -21.773361 1.1444092e-05 l -22.794945 3.4332275e-05 l 89.85598 3.0517578e-05 l -22.382172 -4.5776367e-05 l 157.4426 101.34433 l 0.0015563965 51.08525 l 3.0517578e-05 49.23668 l -224.93228 -104.24756 l -0.019851685 97.38274 l -0.0132369995 97.38643 l 224.95496 10.53598 l 0.0020141602 -50.10434 l -224.96275 136.98608 l 0.006614685 97.39087 l 0.01322937 97.38721 l 224.95142 -128.96002 l 0.0 49.22058 l 0.0 -101.56854 l 0.0 -49.22226 l -224.99187 328.46683 l -0.0011978149 96.711426 l 289.35007 85.53711 l 10.879272 9.65332 l -0.023895264 -0.02130127 l -47.000824 -44.95337 l 0.0 0.0 l 6.1035156e-05 0.007080078 l 0.0049743652 6.671509 l 0.10635376 17.041138 l -0.00881958 0.19030762 l 14.628296 -8.750061 l 0.0 0.0 l -125.807755 71.67322 l 20.25859 -0.00018310547 l -49.030518 -0.00030517578 l -15.788544 -6.1035156e-05 l -42.15616 -0.0005493164 l 14.902893 0.00012207031 l -41.18779 -0.00024414062 l -29.121666 39.776733 l -0.0042877197 -72.8009 l 229.20724 33.02472 l -20.406433 0.0 l -22.80957 -0.00018310547 l 67.21158 -6.569824 l 0.0 -0.20977783 l 0.0 -10.323425 l 0.0 -0.022277832 l 0.0 -33.022583 l 0.0 5.297241 l 0.0 12.06073 l 0.0 5.0793457 l -13.649475 -295.16534 l -8.942474 -40.525024 l 38.22873 107.41974 l -16.115173 -29.757874 l 123.819244 292.49048 l 5.6920776 1.9985962 l -18.38266 -7.0531006 l -10.440247 -4.9368286 l 0.0 0.0 l -0.001159668 -0.0007324219 l -0.06790161 -0.04083252 l -9.540863 -5.7417603 l -13.001709 -8.765015 l -6.843231 -4.9606323 l -12.159088 -9.427063 l 29.740356 -164.68408 l 30.44806 8.119934 l -59.115845 -22.54364 l -23.216858 -18.886536 l 214.75232 9.172791 l -8.281555 5.0910645 l 31.765503 0.4631958 l -7.915283 -15.88623 l 0.0 0.0 l 0.0018310547 0.0037231445 l -50.135437 29.020752 l 0.52020264 -0.24841309 l 10.741333 -5.1017456 l -73.89111 21.748596 l 0.0 0.0 l 0.0014038086 -0.00018310547 l 0.085998535 -0.009643555 l 11.784424 -1.3234253 l 15.5354 -3.0789795 l 8.111511 -2.1027832 l 13.235901 -4.2980957 l -37.748047 214.3971 l -0.04321289 -0.009277344 l -19.65686 -4.1638794 l -0.3223877 -0.07733154 l 42.000366 7.0423584 l 0.41558838 0.041870117 l 15.621155 1.0283813 l 0.0 0.0 l -0.00012207031 0.0 l -0.00061035156 -6.1035156e-05 l 32.16046 -1.9655762 l -11.245422 1.0888672 l 32.47577 -4.244995 l 20.327087 -4.506714 l 16.686462 -4.7023315 l -5.911499 -197.0426 l 9.987183 19.974304 l 10.3619995 20.724121 l 30.283386 60.56671 l -9.31958 -18.639221 l -10.590454 -21.180664 l 31.075623 62.15631 l 9.988098 19.974365 l 6.253174 22.956482 l -13.426636 6.909729 l -38.134216 16.535034 l 17.039246 -6.8181763 " /> </g> </svg>