<?xml version="1.0" standalone="no"?><!DOCTYPE svg PUBLIC "-//W3C//DTD SVG 1.1//EN" "http://www.w3.org/Graphics/SVG/1.1/DTD/svg11.dtd" ><svg xmlns="http://www.w3.org/2000/svg" xmlns:xlink="http://www.w3.org/1999/xlink" version="1.1" viewBox="-10 0 692 1000"><g transform="matrix(1 0 0 -1 0 800)"><path stroke="black" fill="none" d="M 338.79 108.41794 l 0.0 -50.490086 l -44.989655 -0.0028762817 l 22.48056 0.0 l -67.52597 0.0 l -22.439438 0.0 l 44.96797 0.0 l -112.50227 0.0 l -22.481735 0.0 l -22.507408 0.0 l 89.996376 3.8146973e-06 l -22.49704 -3.8146973e-06 l 157.49858 101.00865 l 3.0517578e-05 50.51471 l 0.0 50.46826 l -224.9983 -104.59114 l -0.00050354004 97.39955 l -0.00032806396 97.39966 l 224.99887 10.793396 l 6.1035156e-05 -50.49008 l -224.99907 137.09717 l 0.00016021729 97.39975 l 0.00033569336 97.39966 l 224.99878 -129.8764 l 0.0 50.467896 l 0.0 -101.01428 l 0.0 -50.467896 l -224.9998 328.3042 l -3.0517578e-05 97.38269 l 289.15503 85.19873 l 11.406403 10.117981 l -47.351593 -45.419556 l 0.0 0.0 l 0.0 0.0004272461 l 0.0 0.00579834 l 0.0 8.261719 l 11.952118 4.164795 l -11.94928 5.1174316 l -0.001159668 8.425842 l 23.99942 -1.855896 l -136.4653 62.866943 l 22.443695 0.0 l -45.101288 0.0 l -22.33136 0.0 l -44.928543 0.0 l 22.309113 0.0 l -44.90422 0.0 l -28.232903 57.46411 l -0.00010681152 -96.78192 l 230.67224 39.31781 l -22.447418 0.0 l -22.507751 0.0 l 67.49274 -0.1651001 l 0.0 -8.429565 l 0.0 -8.798462 l 0.0 -34.75531 l 0.0 8.614502 l 0.0 8.784424 l 0.0 8.60907 l -13.493988 -295.99854 l -9.1935425 -41.67047 l 38.62967 108.39484 l -16.548828 -30.559326 l 121.25604 291.7881 l 10.574188 3.7059937 l -20.973236 -7.9762573 l -9.990326 -4.7539062 l 0.0 0.0 l 0.0 0.0 l 0.0 0.0 l -10.010956 -6.024536 l -10.367859 -6.8981323 l -10.4861145 -7.6019287 l -10.892639 -8.51355 l 29.223328 -164.76782 l 31.259094 8.334473 l -58.885925 -22.24762 l -23.902313 -19.445618 l 217.68445 7.7175293 l -12.598755 7.751404 l 35.67914 3.9501343 l -10.241394 -20.484253 l 0.0 0.0 l 0.0 0.0 l 0.0 0.0 l -50.70398 29.432251 l 12.556641 -5.9641113 l -74.62262 22.071777 l 0.0 0.0 l 0.0 0.0 l 0.0 0.0 l 12.280884 -1.3790283 l 12.430115 -2.319519 l 12.301941 -3.1918945 l 12.489197 -4.143982 l -37.925415 214.72162 l -11.978943 -2.2983398 l -11.093201 -2.6712646 l 35.45935 6.7457886 l 12.1571045 1.2156982 l 12.968872 0.7609253 l 0.0 0.0 l 0.0 0.0 l 0.0 0.0 l 35.825317 -2.3110352 l -17.869324 1.7236328 l 36.145447 -4.630127 l 18.409485 -4.071228 l 18.473877 -5.2070312 l -6.699707 -197.27399 l 10.292175 20.584229 l 10.301514 20.60321 l 30.884521 61.768982 l -10.27533 -20.550781 l -10.307312 -20.614563 l 30.904419 61.80896 l 10.292114 20.58429 l 10.198364 20.65918 l -19.01593 9.785889 l -37.84735 16.247375 l 18.794678 -7.5218506 " /> </g> </svg>