<?xml version="1.0" standalone="no"?><!DOCTYPE svg PUBLIC "-//W3C//DTD SVG 1.1//EN" "http://www.w3.org/Graphics/SVG/1.1/DTD/svg11.dtd" ><svg xmlns="http://www.w3.org/2000/svg" xmlns:xlink="http://www.w3.org/1999/xlink" version="1.1" viewBox="-10 0 692 1000"><g transform="matrix(1 0 0 -1 0 800)"><path stroke="black" fill="none" d="M 860.0 -530.0 l 0.0 63.899994 l 0.0 63.899994 l 0.0 63.900024 l 0.0 63.899994 l 0.0 63.899994 l 0.0 63.90001 l 0.0 63.9 l 0.0 63.9 l 0.0 63.9 l 0.0 63.9 l 0.0 0.0 l -27.179993 -26.029999 l -27.940002 -23.29 l -28.700012 -20.550003 l -29.460022 -17.809998 l -30.21997 -15.07 l -30.97998 -12.33 l -31.73999 -9.59 l -32.5 -6.8500004 l -33.26001 -4.1100006 l 0.0 0.0 l -38.73004 1.4500008 l -37.389984 4.3500004 l -36.049988 7.25 l -34.70999 10.15 l -33.369995 13.05 l -32.03 15.95 l -36.412994 41.650764 l 0.0 0.0 l -59.35547 -9.240063 l 0.0 0.0 l -148.64764 0.24255371 l 0.0 0.0 l 57.24086 -0.065841675 l 0.0 0.0 l 74.235245 62.592587 l 73.52109 119.87631 l 0.0 0.0 l -191.16516 -76.61618 l 58.69406 55.28987 l -67.90263 34.108276 l 41.702637 38.891724 l -47.841675 52.21695 l 193.8095 -18.429108 l 0.0 0.0 l -165.61783 86.66214 l 0.0 0.0 l -30.877495 37.37677 l 36.1175 48.503235 l -33.04799 44.66736 l 48.76799 35.37262 l -42.628952 56.087524 l 202.49509 -199.1127 l 0.0 0.0 l -116.63614 252.13522 l -97.41505 119.22601 l 0.0 0.0 l 139.33505 -53.78601 l 0.0 0.0 l 27.069977 28.119995 l 28.410004 25.159973 l 29.75 22.200012 l -156.59724 145.18225 l 0.0 0.0 l 165.9359 -46.29132 l 0.0 0.0 l 18.048798 -223.99579 l 0.0 0.0 l 102.871 272.4358 l 0.0 0.0 l 38.591553 -80.73096 l -19.097748 -109.44415 l 0.0 0.0 l 114.12259 -30.14978 l 0.0 0.0 l -29.656677 238.35419 l 0.0 0.0 l 38.58185 -99.6402 l 43.30957 -88.17584 l 0.0 0.0 l 23.158203 46.90802 l 0.0 0.0 l 16.384155 108.93286 l 0.0 0.0 l 40.828064 -110.2251 l 29.119995 -17.289978 l 28.400024 -19.950012 l 27.679993 -22.609985 l 0.0 10.599976 l 0.0 10.600037 l 0.0 10.599976 l 0.0 10.600037 l 0.0 10.599976 l 0.0 10.599976 l 0.0 10.600037 l 0.0 10.599976 l 0.0 10.600037 l 0.0 10.599976 l 22.599976 0.0 l 22.600037 0.0 l 22.599976 0.0 l 22.599976 0.0 l 22.600037 0.0 l 22.599976 0.0 l 22.600037 0.0 l 22.599976 0.0 l 22.600037 0.0 l 22.599976 0.0 l 0.0 -150.39996 l 0.0 -150.40002 l 0.0 -150.4 l 0.0 -150.4 l 0.0 -150.4 l 0.0 -150.4 l 0.0 -150.4 l 0.0 -150.4 l 0.0 -150.4 l 0.0 -150.4 l -22.599976 0.0 l -22.600037 0.0 l -22.599976 0.0 l -22.600037 0.0 l -22.599976 0.0 l -22.600037 0.0 l -22.599976 0.0 l -22.599976 0.0 l -22.600037 0.0 l -22.599976 0.0 " /> </g> </svg>