<?xml version="1.0" standalone="no"?><!DOCTYPE svg PUBLIC "-//W3C//DTD SVG 1.1//EN" "http://www.w3.org/Graphics/SVG/1.1/DTD/svg11.dtd" ><svg xmlns="http://www.w3.org/2000/svg" xmlns:xlink="http://www.w3.org/1999/xlink" version="1.1" viewBox="-10 0 692 1000"><g transform="matrix(1 0 0 -1 0 800)"><path stroke="black" fill="none" d="M 338.79 108.41794 l 0.0 -50.497093 l -44.99698 -0.0008430481 l 22.494324 0.0 l -67.50763 0.0 l -22.482254 0.0 l 44.990616 0.0 l -112.50067 0.0 l -22.494644 0.0 l -22.502167 0.0 l 89.99893 0.0 l -22.49913 0.0 l 157.4996 101.00253 l 0.0 50.504303 l 0.0 50.490707 l -224.99951 -104.5974 l -0.0001449585 97.39987 l -9.918213e-05 97.39989 l 224.99966 10.798096 l 3.0517578e-05 -50.4971 l -224.99973 137.09915 l 4.5776367e-05 97.39993 l 9.918213e-05 97.3999 l 224.99965 -129.89313 l 0.0 50.4906 l 0.0 -101.00415 l 0.0 -50.4906 l -224.99994 328.30127 l -7.6293945e-06 97.3949 l 289.1515 85.192566 l 11.415985 10.126465 l -47.357513 -45.436707 l 0.0 0.0 l 0.0 6.1035156e-05 l 0.0 6.1035156e-05 l 0.0 8.57605 l 12.16983 3.970459 l -12.169006 4.9000854 l -0.00033569336 8.619629 l 24.169525 -1.7739258 l -136.65953 62.706482 l 22.483505 0.0 l -45.029663 0.0 l -22.450607 0.0 l -44.979065 0.0 l 22.444092 0.0 l -44.971954 0.0 l -28.216705 57.7865 l -3.0517578e-05 -97.218994 l 230.69893 39.432495 l -22.484589 0.0 l -22.502258 0.0 l 67.49786 -0.048339844 l 0.0 -8.620789 l 0.0 -8.728882 l 0.0 -34.786926 l 0.0 8.674988 l 0.0 8.724731 l 0.0 8.673401 l -13.49115 -296.01373 l -9.19812 -41.691345 l 38.636963 108.4126 l -16.556702 -30.573914 l 121.20932 291.77527 l 10.663147 3.7371216 l -21.020447 -7.993042 l -9.983002 -4.7511597 l 0.0 0.0 l 0.0 0.0 l 0.0 0.0 l -10.0173645 -6.0283813 l -10.319885 -6.8641357 l -10.55249 -7.6500244 l -10.869568 -8.496887 l 29.213898 -164.76941 l 31.273895 8.33844 l -58.881744 -22.242249 l -23.914825 -19.45581 l 217.73788 7.690979 l -12.677429 7.7999268 l 35.75049 4.013672 l -10.282898 -20.566101 l 0.0 0.0 l 0.0 0.0 l 0.0 0.0 l -50.71527 29.437744 l 12.580261 -5.975342 l -74.63495 22.077576 l 0.0 0.0 l 0.0 0.0 l 0.0 0.0 l 12.2873535 -1.3796997 l 12.373474 -2.305725 l 12.378357 -3.211731 l 12.475586 -4.1411743 l -37.92865 214.72754 l -11.838257 -2.2641602 l -11.32431 -2.7269897 l 35.37497 6.7487793 l 12.399536 1.2399902 l 12.891907 0.7531738 l 0.0 0.0 l 0.0 0.0 l 0.0 0.0 l 35.892273 -2.3173218 l -17.98999 1.7351685 l 36.21228 -4.637085 l 18.374512 -4.0632935 l 18.50647 -5.2162476 l -6.7140503 -197.2782 l 10.2977295 20.595337 l 10.300415 20.601013 l 30.895508 61.790894 l -10.292786 -20.585632 l -10.302185 -20.604248 l 30.901306 61.802612 l 10.2977295 20.595459 l 10.270264 20.61731 l -19.117859 9.838257 l -37.842102 16.242188 l 18.82666 -7.534668 " /> </g> </svg>