<?xml version="1.0" standalone="no"?><!DOCTYPE svg PUBLIC "-//W3C//DTD SVG 1.1//EN" "http://www.w3.org/Graphics/SVG/1.1/DTD/svg11.dtd" ><svg xmlns="http://www.w3.org/2000/svg" xmlns:xlink="http://www.w3.org/1999/xlink" version="1.1" viewBox="-10 0 692 1000"><g transform="matrix(1 0 0 -1 0 800)"><path stroke="black" fill="none" d="M 338.7913 107.46442 l -0.0008544922 -45.903744 l -40.211243 -1.3336449 l 13.494598 -2.2888184e-05 l -79.54372 -1.1444092e-05 l -0.29467773 -3.8146973e-06 l 36.02617 3.8146973e-06 l -113.55211 0.0001335144 l -0.25157166 7.6293945e-06 l -13.778137 0.00011444092 l -25.938202 0.0004005432 l 88.3212 0.00036621094 l -21.12645 -0.0005187988 l 0.02923584 2.670288e-05 l 156.80153 105.013756 l 0.018066406 57.322296 l 0.0002746582 35.77353 l -224.2104 -100.49176 l -0.23137665 97.19893 l -0.1542511 97.24193 l 224.47476 7.7219543 l 0.023651123 -45.887848 l -224.56589 135.77219 l 0.07712555 97.2937 l 0.1542511 97.25079 l 224.43372 -118.94232 l 0.0 35.58606 l -9.1552734e-05 -107.62793 l 0.0 -35.605682 l -224.90514 330.24454 l -0.013923645 89.37402 l 291.4819 89.23566 l 5.117035 4.5736694 l 0.0 0.0 l -42.767334 -39.258728 l 0.0 0.0 l -0.14639282 20.23236 l 0.0 0.0 l -96.448975 64.06616 l 0.46463013 -0.00061035156 l -56.309998 -0.0013427734 l 0.0 0.0 l -44.37059 -0.022033691 l 0.0 0.0 l -18.13028 0.009521484 l -38.68663 -17.284546 l 0.0 0.0 l 212.99213 17.290894 l -0.68704224 6.1035156e-05 l -23.517395 -0.0020141602 l 64.13794 -13.025818 l 3.0517578e-05 -1.491272 l 0.0 0.0 l 0.0 -26.27716 l 0.0 0.0 l 0.0 11.004395 l 0.0 0.0 l -15.348999 -301.14185 l -6.197998 -28.003235 l 33.84555 96.76062 l -11.374603 -20.997253 l 120.81287 289.1042 l 0.0 0.0 l -6.7142944 -2.5631714 l -21.554596 -10.667053 l 0.0 0.0 l -0.46783447 -0.28131104 l -21.873993 -14.929382 l 0.0 0.0 l -11.500305 -8.873901 l -0.006011963 -0.004638672 l 35.392365 -163.7685 l 21.582245 5.774414 l -61.62912 -25.779297 l -15.723877 -12.775085 l 206.99759 10.453491 l 0.0 0.0 l 20.173523 -12.400879 l 0.0 0.0 l -46.08008 25.797058 l 0.0 0.0 l 0.24139404 -0.11645508 l -58.531677 17.392212 l 0.0 0.0 l 0.8607788 -0.09613037 l 29.743896 -6.5117188 l 0.0 0.0 l 2.6141968 -0.95910645 l -35.82666 210.85504 l 0.0 0.0 l -4.81073 -1.0358276 l 40.2417 5.5516357 l 6.9318237 0.46606445 l 0.0 0.0 l 33.665955 -2.279602 l 0.0 0.0 l 13.081665 -1.7203369 l 41.28949 -9.267761 l 0.4744873 -0.12994385 l -0.62280273 -193.56818 l 6.6534424 13.306824 l 11.022583 22.046387 l 23.712341 47.423645 l -0.26904297 -0.53808594 l -12.287842 -24.574158 l 0.013671875 0.02746582 l 32.93329 65.92615 l 6.6642456 13.307007 l -3.9776611 31.112732 l 0.0 0.0 l -26.492432 12.1050415 l 0.5595093 -0.2175293 " /> </g> </svg>