<?xml version="1.0" standalone="no"?><!DOCTYPE svg PUBLIC "-//W3C//DTD SVG 1.1//EN" "http://www.w3.org/Graphics/SVG/1.1/DTD/svg11.dtd" ><svg xmlns="http://www.w3.org/2000/svg" xmlns:xlink="http://www.w3.org/1999/xlink" version="1.1" viewBox="-10 0 692 1000"><g transform="matrix(1 0 0 -1 0 800)"><path stroke="black" fill="none" d="M 338.79 108.412964 l 0.0 -50.46617 l -44.964752 -0.009815216 l 22.433716 0.0 l -67.58865 0.0 l -22.293243 0.0 l 44.890625 0.0 l -112.50774 0.0 l -22.437668 3.8146973e-06 l -22.5253 0.0 l 89.98764 3.8146973e-06 l -22.489899 -3.8146973e-06 l 157.49509 101.02953 l 0.00015258789 50.5502 l 0.0 50.391647 l -224.9942 -104.56978 l -0.001701355 97.39851 l -0.0011367798 97.398834 l 224.99612 10.777374 l 0.00018310547 -50.466064 l -224.99681 137.09024 l 0.0005645752 97.39917 l 0.0011367798 97.398926 l 224.99585 -129.8194 l 0.0 50.39026 l 0.0 -101.04874 l 0.0 -50.39041 l -224.9993 328.31433 l -0.00010681152 97.34088 l 289.16718 85.21979 l 11.373596 10.089111 l -47.33136 -45.263794 l 0.0 0.0 l 0.0 0.011779785 l 6.1035156e-05 1.8370972 l -3.0517578e-05 5.26947 l 11.208801 4.828308 l -11.199158 5.859558 l -0.0039367676 7.764038 l 23.41864 -2.1357422 l -0.2796631 -0.26568604 l -135.52249 63.680603 l 22.307709 0.0 l -45.345764 -6.1035156e-05 l -21.92424 0.0 l -44.756042 -6.1035156e-05 l 21.848267 6.1035156e-05 l -44.67296 -6.1035156e-05 l -28.288208 56.363586 l -0.00036621094 -95.289734 l 230.58109 38.92621 l -22.320404 0.0 l -22.52655 0.0 l 67.47525 -0.56378174 l 0.0 -7.7764893 l 0.0 -9.036194 l 0.0 -34.647522 l 0.0 8.408081 l 0.0 8.988342 l 0.0 8.389404 l -13.503662 -295.94672 l -9.1779175 -41.599182 l 38.604736 108.33417 l -16.52185 -30.50946 l 121.41553 291.8318 l 10.270386 3.5997314 l -20.812042 -7.918762 l -10.015533 -4.763672 l 0.0 0.0 l 0.0 0.0 l -3.0517578e-05 0.0 l -9.988739 -6.0111694 l -10.531738 -7.014282 l -10.25946 -7.437561 l -10.971436 -8.570374 l 29.255493 -164.76263 l 31.208618 8.321106 l -58.900238 -22.266052 l -23.85965 -19.410767 l 217.50201 7.8080444 l -12.330139 7.5858765 l 35.435608 3.7331543 l -10.099609 -20.204285 l 0.0 0.0 l 6.1035156e-05 6.1035156e-05 l 0.0 0.0 l -50.66559 29.412964 l 12.476074 -5.9259644 l -74.580444 22.052063 l 0.0 0.0 l 0.0 0.0 l 0.0 0.0 l 12.258789 -1.3765259 l 12.623291 -2.3668213 l 12.04126 -3.1240845 l 12.535645 -4.1536255 l -37.914368 214.70148 l -12.459412 -2.415039 l -10.304169 -2.4812012 l 35.747528 6.7355957 l 11.329285 1.1329956 l 13.231628 0.7872925 l 0.0 0.0 l 0.0 0.0 l 0.0 0.0 l 35.59674 -2.2896118 l -17.457153 1.6841431 l 35.917053 -4.60614 l 18.528809 -4.0983276 l 18.36267 -5.175598 l -6.650635 -197.25958 l 10.273193 20.546265 l 10.305298 20.610718 l 30.847107 61.694153 l -10.215881 -20.431824 l -10.324951 -20.64978 l 30.9151 61.830566 l 10.273193 20.546326 l 9.952881 20.802185 l -18.668152 9.606873 l -37.865234 16.26532 l 18.685486 -7.4780884 " /> </g> </svg>