<?xml version="1.0" standalone="no"?><!DOCTYPE svg PUBLIC "-//W3C//DTD SVG 1.1//EN" "http://www.w3.org/Graphics/SVG/1.1/DTD/svg11.dtd" ><svg xmlns="http://www.w3.org/2000/svg" xmlns:xlink="http://www.w3.org/1999/xlink" version="1.1" viewBox="-10 0 692 1000"><g transform="matrix(1 0 0 -1 0 800)"><path stroke="black" fill="none" d="M 338.79004 108.39599 l -3.0517578e-05 -50.384506 l -44.87967 -0.033512115 l 22.273712 0.0 l -67.80263 0.0 l -21.794098 0.0 l 44.62657 0.0 l -112.52644 3.8146973e-06 l -22.28717 3.8146973e-06 l -22.586388 7.6293945e-06 l 89.95782 1.1444092e-05 l -22.4655 -1.5258789e-05 l 157.48322 101.100845 l 0.00045776367 50.671417 l 0.0 50.12999 l -224.98016 -104.496765 l -0.0058135986 97.39493 l -0.0038833618 97.39603 l 224.98682 10.722687 l 0.000579834 -50.384125 l -224.98909 137.06665 l 0.0019378662 97.39728 l 0.0038757324 97.3963 l 224.98578 -129.6247 l 0.0 50.125244 l 0.0 -101.166504 l 0.0 -50.125763 l -224.99762 328.3489 l -0.00035095215 97.19824 l 289.20862 85.29169 l 11.261597 9.9904175 l -47.262207 -43.59668 l 0.0 0.0 l 3.0517578e-05 0.45550537 l 3.0517578e-05 1.6029663 l 8.67099 7.0930786 l -8.6380005 8.393433 l -0.013519287 5.5045776 l 21.43573 -3.0912476 l -0.023773193 -0.022583008 l -133.51424 65.30835 l 21.84349 -6.1035156e-05 l -46.180496 -6.1035156e-05 l -20.534271 0.0 l -44.167053 -0.00018310547 l 20.274857 6.1035156e-05 l -43.883423 -0.00012207031 l -28.47702 52.606018 l -0.0012588501 -90.19513 l 230.26984 37.589294 l -21.88681 0.0 l -22.590668 -6.1035156e-05 l 67.41553 -1.9247437 l 0.0 -5.547058 l 0.0 -9.847778 l 0.0 -34.279358 l 0.0 7.703369 l 0.0 9.684326 l 0.0 7.6395264 l -13.536713 -295.76965 l -9.124573 -41.355896 l 38.51956 108.127014 l -16.429718 -30.339172 l 121.96005 291.98102 l 9.233246 3.2369995 l -20.261688 -7.7226562 l -10.104462 -4.798462 l 0.0 0.0 l -6.1035156e-05 -6.1035156e-05 l -0.0002746582 -0.00018310547 l -9.909912 -5.963745 l -11.091309 -7.4108887 l -9.485535 -6.876465 l -11.2404785 -8.764465 l 29.365326 -164.74481 l 31.036346 8.275574 l -58.949097 -22.32898 l -23.71405 -19.291992 l 216.87909 8.1171875 l -11.412964 7.020752 l 34.604187 2.9923096 l -9.612488 -19.242188 l 0.0 0.0 l 0.00012207031 0.00018310547 l 0.00048828125 0.0010986328 l -50.537903 29.339905 l 12.200928 -5.795532 l -74.43298 21.984314 l 0.0 0.0 l 6.1035156e-05 0.0 l 0.00030517578 -6.1035156e-05 l 12.179443 -1.3676758 l 13.28302 -2.5281372 l 11.151001 -2.8927612 l 12.694275 -4.1863403 l -37.87671 214.6325 l -14.09967 -2.8132935 l -7.6102905 -1.8323364 l 36.731445 6.7008057 l 8.502991 0.85046387 l 14.128174 0.87731934 l 0.0 0.0 l 0.0 0.0 l 0.0 0.0 l 34.816772 -2.2163086 l -16.049927 1.5493164 l 35.13745 -4.524353 l 18.936218 -4.190796 l 17.98291 -5.0684204 l -6.4831543 -197.21045 l 10.208374 20.416748 l 10.318115 20.636353 l 30.719421 61.43878 l -10.012817 -20.025757 l -10.385132 -20.77002 l 30.951477 61.904358 l 10.208618 20.416748 l 9.114746 21.290222 l -17.480713 8.99585 l -37.926147 16.326416 l 18.3125 -7.3285522 " /> </g> </svg>