<?xml version="1.0" standalone="no"?><!DOCTYPE svg PUBLIC "-//W3C//DTD SVG 1.1//EN" "http://www.w3.org/Graphics/SVG/1.1/DTD/svg11.dtd" ><svg xmlns="http://www.w3.org/2000/svg" xmlns:xlink="http://www.w3.org/1999/xlink" version="1.1" viewBox="-10 0 692 1000"><g transform="matrix(1 0 0 -1 0 800)"><path stroke="black" fill="none" d="M 338.7944 105.15743 l -0.00289917 -34.807404 l -28.72882 -4.5533447 l 0.1758728 -3.8146973e-06 l -68.90407 -7.247925e-05 l 0.0 0.0 l 19.61589 -3.8146973e-05 l -109.43527 0.0008354187 l 0.0 0.0 l -0.2538452 3.0517578e-05 l -34.22242 0.001373291 l 84.26826 0.0012550354 l -17.810425 -0.0017700195 l 0.008148193 7.6293945e-06 l 155.20691 114.703896 l 0.061676025 73.7928 l 0.0007019043 1.589325 l -222.3039 -91.942276 l -0.7899704 96.71355 l -0.5266495 96.86029 l 223.20667 0.29089355 l 0.08074951 -34.753143 l -223.51782 132.56656 l 0.26332855 97.03711 l 0.52664185 96.8905 l 223.06659 -92.48804 l -3.0517578e-05 1.4252319 l -0.00024414062 -125.47391 l 0.0 -1.4407654 l -224.67612 336.7323 l -0.047538757 69.99762 l 295.33667 98.14569 l 0.0 0.0 l -42.327606 -19.234009 l 0.0 0.0 l -99.09265 64.748474 l 0.0 0.0 l -45.638077 -0.0154418945 l -70.26398 -0.3126831 l 0.0 0.0 l -34.976562 -15.728638 l 201.74239 15.970032 l 0.0 0.0 l -7.867981 -0.0049438477 l 56.019684 -16.387878 l 0.0 0.0 l 0.0004272461 -21.90387 l 0.0 0.0 l -19.835815 -313.91327 l -0.1675415 -0.68621826 l 23.487701 74.36243 l -0.44677734 -0.8129883 l 103.87286 279.1767 l 0.0 0.0 l -13.237061 -7.0843506 l 0.0 0.0 l -29.267609 -20.455322 l -2.1562805 -1.6542358 l 0.0 0.0 l 50.39279 -161.29437 l 0.9547119 0.29638672 l -71.050964 -35.039917 l -0.43411255 -0.34069824 l 221.3352 -3.338379 l 0.0 0.0 l -27.338928 17.182312 l 0.0 0.0 l -72.373535 24.793213 l 0.0 0.0 l 25.072266 -5.5200806 l 0.0 0.0 l -48.84955 204.2749 l 0.0 0.0 l 61.319153 9.734131 l 0.0 0.0 l 49.84778 -4.3740234 l 0.0 0.0 l 44.044495 -10.650024 l 0.0 0.0 l 0.23028564 -180.44061 l 0.21533203 0.43066406 l 10.401672 20.807068 l 24.315979 48.631348 l 0.0 0.0 l -11.095337 -22.188171 l 0.0037231445 0.007507324 l 37.88501 75.97394 l 0.22406006 0.4286499 l -11.185303 36.185608 l -8.190796 3.8965454 l 0.0 0.0 " /> </g> </svg>