<?xml version="1.0" standalone="no"?><!DOCTYPE svg PUBLIC "-//W3C//DTD SVG 1.1//EN" "http://www.w3.org/Graphics/SVG/1.1/DTD/svg11.dtd" ><svg xmlns="http://www.w3.org/2000/svg" xmlns:xlink="http://www.w3.org/1999/xlink" version="1.1" viewBox="-10 0 692 1000"><g transform="matrix(1 0 0 -1 0 800)"><path stroke="black" fill="none" d="M 860.0 -530.0 l 0.0 63.899994 l 0.0 63.899994 l 0.0 63.900024 l 0.0 63.899994 l 0.0 63.899994 l 0.0 63.90001 l 0.0 63.9 l 0.0 63.9 l 0.0 63.9 l 0.0 63.9 l 0.0 0.0 l -27.179993 -26.029999 l -27.940002 -23.29 l -28.700012 -20.550003 l -29.460022 -17.809998 l -30.21997 -15.07 l -30.97998 -12.33 l -31.73999 -9.59 l -32.5 -6.8500004 l -33.26001 -4.1100006 l 0.0 0.0 l -38.73004 1.4500008 l -37.389984 4.3500004 l -36.049988 7.25 l -34.70999 10.15 l -33.369995 13.05 l -32.03 15.95 l -36.898987 44.818703 l -0.0048217773 -1.2224731 l -38.667725 -11.244659 l 0.0 0.0 l -25.501343 -0.0006599426 l 0.0 0.0 l -146.23654 0.009105682 l 0.0 0.0 l -3.5483704 -0.0022659302 l 70.466675 0.0042533875 l -6.489334 -0.006034851 l 0.0 0.0 l 73.940445 62.82403 l 75.75876 84.964035 l 0.16900635 37.141724 l 0.0 0.0 l -215.75092 -84.99048 l 80.87313 61.434723 l -83.57026 33.621582 l 57.370262 39.378418 l -59.16835 56.178894 l 218.87714 -25.080292 l 0.12576294 -1.1845093 l -179.48456 90.53589 l 0.0 0.0 l -40.305 35.53351 l 45.545006 50.346497 l -44.645966 45.814697 l 60.365967 34.22528 l -58.567886 61.434998 l 218.401 -98.886475 l 0.0 0.0 l -0.0027770996 -108.53516 l 0.0 0.0 l -116.60034 255.09668 l -107.29408 122.63489 l -0.16075134 3.9666748 l 149.37485 -61.16156 l 0.0 0.0 l 27.069977 28.119995 l 28.410004 25.159973 l 47.694336 102.9906 l 0.0 0.0 l -155.0614 67.84735 l 0.0 0.0 l -59.96747 -3.738037 l 0.0 0.0 l 159.77286 0.30004883 l 0.0 0.0 l 54.763428 -36.025635 l 0.0 0.0 l -13.389648 -301.00806 l 0.0 0.0 l 15.56366 54.716064 l 0.0 0.0 l 116.64215 286.82257 l 0.0 0.0 l -52.16028 -30.86377 l 0.0 0.0 l 84.74237 -52.24115 l -19.725098 -109.51727 l 0.0 0.0 l -83.96094 -35.07306 l 0.0 0.0 l 200.13373 4.275635 l 0.0 0.0 l -48.717896 23.498047 l 0.0 0.0 l 3.8380127 216.95667 l 0.0 0.0 l 65.4693 -8.032959 l 0.0 0.0 l -13.087097 -92.987 l 43.909058 -87.19592 l 0.0 0.0 l 2.3692627 4.746582 l 23.343018 46.71399 l -3.074707 -6.1708374 l 0.0 0.0 l 38.409058 79.01062 l 0.0 0.0 l -21.959534 31.43927 l 0.0 0.0 l 40.683838 -111.10376 l 29.119995 -17.289978 l 28.400024 -19.950012 l 27.679993 -22.609985 l 0.0 10.599976 l 0.0 10.600037 l 0.0 10.599976 l 0.0 10.600037 l 0.0 10.599976 l 0.0 10.599976 l 0.0 10.600037 l 0.0 10.599976 l 0.0 10.600037 l 0.0 10.599976 l 22.599976 0.0 l 22.600037 0.0 l 22.599976 0.0 l 22.599976 0.0 l 22.600037 0.0 l 22.599976 0.0 l 22.600037 0.0 l 22.599976 0.0 l 22.600037 0.0 l 22.599976 0.0 l 0.0 -150.39996 l 0.0 -150.40002 l 0.0 -150.4 l 0.0 -150.4 l 0.0 -150.4 l 0.0 -150.4 l 0.0 -150.4 l 0.0 -150.4 l 0.0 -150.4 l 0.0 -150.4 l -22.599976 0.0 l -22.600037 0.0 l -22.599976 0.0 l -22.600037 0.0 l -22.599976 0.0 l -22.600037 0.0 l -22.599976 0.0 l -22.599976 0.0 l -22.600037 0.0 l -22.599976 0.0 " /> </g> </svg>