<?xml version="1.0" standalone="no"?><!DOCTYPE svg PUBLIC "-//W3C//DTD SVG 1.1//EN" "http://www.w3.org/Graphics/SVG/1.1/DTD/svg11.dtd" ><svg xmlns="http://www.w3.org/2000/svg" xmlns:xlink="http://www.w3.org/1999/xlink" version="1.1" viewBox="-10 0 692 1000"><g transform="matrix(1 0 0 -1 0 800)"><path stroke="black" fill="none" d="M 338.79037 108.140114 l -0.00024414062 -49.153786 l -43.597412 -0.39061737 l 19.862396 -7.6293945e-06 l -71.02756 0.0 l -14.271454 -3.8146973e-06 l 40.64688 3.8146973e-06 l -112.80815 3.8146973e-05 l -1.432373 4.9591064e-05 l -18.586746 -1.5258789e-05 l -23.507019 0.000118255615 l 89.508286 0.00010681152 l -22.097687 -0.00015258789 l 157.304 102.17561 l 0.005279541 52.4982 l 9.1552734e-05 46.186737 l -224.76874 -103.39674 l -0.06777191 97.34111 l -0.045181274 97.3537 l 224.84618 9.898468 l 0.0069274902 -49.14914 l -224.87286 136.71112 l 0.022590637 97.368805 l 0.045173645 97.35632 l 224.83415 -126.69055 l 0.0 46.131775 l -3.0517578e-05 -102.94125 l 0.0 -46.137543 l -224.97223 328.86957 l -0.0040740967 95.049194 l 289.83298 86.37494 l 9.573914 8.5026245 l -0.0064086914 -0.0057373047 l -46.195984 -42.568604 l 0.0 0.0 l 0.0063476562 0.73968506 l 1.1809998 20.897095 l 0.0 0.0 l 10.95282 -7.40094 l -119.79425 70.91766 l 14.84729 -0.0006713867 l -58.761 -0.0010375977 l -0.8042755 -6.1035156e-05 l -34.071915 -0.001953125 l 0.38702393 6.1035156e-05 l -35.80945 -0.0005493164 l -31.32264 -4.0249634 l -0.014640808 -13.413513 l 225.5793 17.440369 l -15.352203 0.0 l -23.556915 -0.00061035156 l 66.51529 -7.268799 l 0.0 0.0 l 0.0 -9.183838 l 0.0 -0.009338379 l 0.0 -28.776611 l 0.0 0.17480469 l 0.0 16.738037 l 0.0 0.11029053 l -14.034485 -296.4854 l -8.32074 -37.688354 l 37.23575 105.005066 l -15.041229 -27.773254 l 128.35626 293.59393 l 0.05029297 0.0178833 l -16.605103 -6.378601 l -11.963409 -5.6359863 l 0.0 0.0 l -0.04864502 -0.029296875 l -8.15918 -4.9104614 l -19.5242 -13.388123 l -0.24685669 -0.1786499 l -12.852997 -9.916992 l -0.017486572 -0.0134887695 l 31.020752 -164.47668 l 28.439606 7.588623 l -59.68521 -23.276672 l -21.519379 -17.502014 l 207.49121 12.776794 l -0.27746582 0.1673584 l 24.760681 -9.836548 l -1.7225952 -3.5969849 l 0.0 0.0 l -49.15332 27.112 l 0.111572266 -0.05328369 l 7.942749 -3.776245 l -71.59235 20.89325 l 0.0 0.0 l 0.059265137 -0.006713867 l 10.312317 -1.1583862 l 23.225525 -4.9595947 l 0.33648682 -0.08514404 l 12.482483 -4.000305 l -37.308655 213.5935 l -0.010009766 -0.0021362305 l -17.982727 -3.816101 l 0.0 0.0 l 42.23419 6.961548 l 0.0 0.0 l 14.940247 0.9845581 l 0.0 0.0 l -0.0024414062 -0.00018310547 l 23.159729 -1.1052246 l -0.1885376 0.019226074 l 28.734558 -3.793518 l 25.075867 -5.585266 l 12.260071 -3.4524536 l -3.9596558 -196.46954 l 9.231995 18.463867 l 10.511597 21.02362 l 28.7948 57.589294 l -6.9526367 -13.905273 l -11.291626 -22.582764 l 31.499573 63.01654 l 9.235107 18.46399 l -3.5169067 28.645569 l -0.69610596 0.35876465 l -37.733337 16.67572 l 12.691772 -5.0755005 " /> </g> </svg>