<?xml version="1.0" standalone="no"?><!DOCTYPE svg PUBLIC "-//W3C//DTD SVG 1.1//EN" "http://www.w3.org/Graphics/SVG/1.1/DTD/svg11.dtd" ><svg xmlns="http://www.w3.org/2000/svg" xmlns:xlink="http://www.w3.org/1999/xlink" version="1.1" viewBox="-10 0 692 1000"><g transform="matrix(1 0 0 -1 0 800)"><path stroke="black" fill="none" d="M 389.1599 939.99 l -21.979889 -7.4699707 l -41.677155 -19.918457 l 20.455353 10.787476 l -116.42949 -109.52185 l -9.567642 -20.55487 l 33.922775 59.02887 l -13.040741 -18.786743 l 64.95421 66.59357 l -18.93573 -14.106812 l -18.18158 -15.771179 l 0.0 0.0 l 0.0 0.0 l 0.0 0.0 l 143.21997 75.52991 l 23.5 4.1500854 l 24.26001 2.4899902 l 0.0 0.0 l 0.0 0.0 l 0.0 0.0 l 36.440002 -1.9298706 l 97.798065 -28.94934 l -30.682495 13.510559 l -32.593323 9.64801 l 118.87665 -61.758484 l -26.838135 21.228577 l 51.759277 -46.31952 l 23.00061 -28.951172 l 21.07434 -32.8031 l -10.491638 11.880493 l -18.605957 -9.897583 l -18.595642 -9.897583 l -18.601746 -9.901001 l -18.599976 -9.899963 l 101.12659 -338.23163 l -6.8150024 17.037415 l -8.060791 16.152374 l 20.461304 -51.157623 l 4.336914 -18.836487 l 4.9609375 -40.404022 l 0.0 0.0 l 0.0 0.0 l 0.0 0.0 l -1.8588867 20.637787 l 0.8189087 -48.37097 l -38.037537 153.40689 l -10.516113 14.317505 l -11.786377 13.45874 l 0.0 0.0 l 0.0 0.0 l 0.0 0.0 l -15.918518 13.366364 l -18.236694 13.590088 l -43.522705 27.922241 l 22.925232 -14.077026 l -18.477356 211.28833 l -18.600708 -9.900452 l -18.598633 -9.89917 l -64.80914 -12.603149 l 9.008545 -17.097229 l 0.0 0.0 l 0.0 0.0 l 0.0 0.0 l 18.60254 9.901428 l 18.595581 9.897583 l -86.447754 47.700623 l 10.689209 -9.899231 l 10.275116 -11.706787 l 9.842224 -13.48938 l -8.122314 -121.39636 l 32.283783 -15.037109 l 29.955383 -14.802795 l 27.604065 -14.556824 l -135.16751 215.2887 l 11.529419 -6.2997437 l -23.48059 10.800049 l -12.369141 2.699829 l 0.0 0.0 l 0.0 0.0 l 0.0 0.0 l -6.11261 -0.2052002 l -5.921997 -0.6141968 l -50.548767 -34.01422 l 2.8493347 4.88678 l 3.302002 4.678894 l 7.9220276 8.662964 l 0.0 0.0 l 0.0 0.0 l 0.0 0.0 l -4.1776733 -4.2126465 l 8.855316 7.7024536 l 4.8295593 3.0620117 l 5.0406494 2.672058 l 5.2206726 2.2589722 l 5.367035 1.8371582 l 5.5822754 1.4393921 l -47.21878 -38.137024 l -1.9770203 -5.3568726 l -1.5432129 -5.6068115 l -1.0982971 -5.815918 l -0.66052246 -6.0577393 l 0.0 0.0 l 0.0 0.0 l 0.0 0.0 l 1.2997742 -11.188232 l 3.9012146 -11.173523 l 6.4982605 -11.146973 l 20.78186 -22.223328 l -11.671661 11.083069 l 25.991028 -22.191345 l 16.897827 -11.0685425 l 19.505127 -11.052856 l 22.096558 -11.02832 l 0.0 0.0 l 0.0 0.0 l 0.0 0.0 l -254.93964 -10.331116 l 10.169388 -31.315979 l -5.568283 15.23584 l -8.172684 32.839905 l -2.548111 17.437012 l -1.5306549 18.154358 l 0.0 0.0 l 0.0 0.0 l 0.0 0.0 l 0.8698425 24.955688 l 59.365555 -172.71045 l 10.891296 -9.592285 l 12.061737 -9.601685 l -51.06198 54.605286 l -7.643738 13.938538 l 16.32254 -27.201843 l 9.684753 -12.543213 l 0.0 0.0 l 0.0 0.0 l 0.0 0.0 l 150.27448 -96.45218 l 6.9027405 -3.306549 l 6.904999 -3.2970886 l 6.8490906 -3.2601013 l 6.896454 -3.2719727 l 6.76355 -3.1985474 l 34.07675 -16.282104 l 6.7352905 -3.2785034 l 6.8641663 -3.3614807 l 6.7322083 -3.3165894 l -33.844543 16.474884 l 6.593048 -3.1705017 l -13.561493 6.5012817 l -6.7566833 3.209381 l 0.0 0.0 l 0.0 0.0 l 0.0 0.0 l 54.44342 -26.421722 l 6.7564697 -3.3681946 l 0.0 0.0 l 0.0 0.0 l 0.0 0.0 l 14.942932 -10.628357 l 24.637207 -21.75296 l -11.41333 10.93457 l 15.769775 -138.29478 l 10.234741 11.411774 l 7.98822 13.528976 l -12.866638 91.26227 l 7.9000244 -11.251373 l 6.174011 -11.468597 l 4.3878784 -11.567841 l 0.10723877 -41.362396 l 3.4179688 17.66867 l 0.0 0.0 l 0.0 0.0 l 0.0 3.0517578e-05 l -0.8789673 11.905426 l -277.1038 197.00974 l 14.369263 -9.592834 l 32.216827 -19.186981 l -16.661743 9.577972 l 53.56842 -28.793335 l 0.0 0.0 l 0.0 0.0 l 0.0 0.0 l 6.9854126 -3.377411 l 6.923767 -3.3373718 l -32.92755 16.313995 l -42.72162 -132.44922 l 0.0 0.0 l 0.0 0.0 l 0.0 0.0 l -19.19223 -8.896423 l 27.01242 -4.6106873 l 7.408905 -12.434509 l 7.0586853 -11.464722 l -79.88501 10.707611 l 19.195557 8.897949 l 203.4412 -103.46765 l 19.366058 3.117752 l 17.111328 5.204117 l 14.807983 7.2740784 l -72.954895 -16.637512 l 0.0 0.0 l 0.0 0.0 l 0.0 0.0 l -10.977722 1.1503754 l -10.508087 1.8834991 l -10.315887 2.6668854 l -9.95517 3.4182892 l 305.61124 6.729706 l -11.432495 -23.124847 l -13.520691 -22.221771 l 46.796265 120.28528 l -5.1966553 -25.883179 l -7.2802124 -24.98198 l -342.94592 -15.978256 l -8.670776 6.453125 l 26.991333 -17.094559 l -9.311829 4.9356537 l -30.824493 24.72551 l -5.1310425 6.326584 l 9.91217 -11.670319 l 0.0 0.0 l 0.0 0.0 l 0.0 0.0 l -15.458405 19.06195 l -5.8927307 8.365509 l -6.296997 9.4198 l 337.69962 -125.27704 l -17.671509 -20.370209 l 0.0 0.0 l 0.0 0.0 l 0.0 0.0 l -20.616943 -17.097443 l -21.466125 -15.304382 l -22.2948 -13.496864 l -151.44211 -43.201313 l 0.0 0.0 l 0.0 0.0 l 0.0 0.0 l 27.381653 2.7070808 l 26.444122 4.490505 l 25.71344 6.3152275 l 24.76764 8.082909 l 23.991577 9.903679 l -175.87036 -29.109093 l -44.707428 7.169586 l -41.856018 11.9524 l -38.982666 16.726852 l -36.133316 21.511894 l -33.26793 26.288368 l -30.411865 31.072037 l -27.54834 35.847855 l 52.140167 76.24492 l 19.157501 8.88031 l 19.210602 8.904907 l -76.78984 -35.595276 l 19.185638 8.893341 l -38.42508 -17.81163 l -19.157036 -8.880096 l 77.2996 485.44525 l 4.346985 23.183838 l 6.0908356 22.324707 " /> </g> </svg>