<?xml version="1.0" standalone="no"?><!DOCTYPE svg PUBLIC "-//W3C//DTD SVG 1.1//EN" "http://www.w3.org/Graphics/SVG/1.1/DTD/svg11.dtd" ><svg xmlns="http://www.w3.org/2000/svg" xmlns:xlink="http://www.w3.org/1999/xlink" version="1.1" viewBox="-10 0 692 1000"><g transform="matrix(1 0 0 -1 0 800)"><path stroke="black" fill="none" d="M 389.15967 939.99 l -21.97879 -7.4700317 l -41.646484 -19.902283 l 20.405365 10.76123 l -116.4238 -109.54126 l -9.542511 -20.500732 l 33.845703 58.90979 l -12.942032 -18.64447 l 64.892624 66.524414 l -18.890198 -14.072815 l -18.19867 -15.783752 l 0.0 0.0 l 0.0 0.0 l 0.0 0.0 l 143.2201 75.529236 l 23.499939 4.150757 l 24.259949 2.4899902 l 0.0 0.0 l 0.0 0.0 l 0.0 0.0 l 36.440125 -1.9282227 l 97.77707 -28.942627 l -30.70935 13.516235 l -32.52185 9.626892 l 118.84149 -61.742126 l -26.818848 21.213196 l 51.751953 -46.314026 l 23.006897 -28.963257 l 21.0141 -32.72992 l -10.402161 11.779297 l -18.669922 -9.871582 l -18.548767 -9.872742 l -18.620605 -9.910828 l -18.59961 -9.900574 l 101.09015 -338.142 l -6.7613525 16.903442 l -8.069275 16.17746 l 20.474854 -51.23871 l 4.303894 -18.692444 l 4.970581 -40.440857 l 0.0 0.0 l 0.0 0.00015258789 l -6.1035156e-05 0.0007324219 l -1.8465576 20.500702 l 0.80737305 -48.168213 l -38.22455 153.58691 l -10.261658 13.971405 l -11.853882 13.551575 l 0.0 0.0 l 0.0 0.0 l 0.0 0.0 l -16.0094 13.4340515 l -18.095215 13.48468 l -43.551147 27.94629 l 22.874146 -14.045715 l -18.448792 211.27087 l -18.608704 -9.904846 l -18.583557 -9.891235 l -64.80017 -12.635986 l 8.992798 -17.067993 l 0.0 0.0 l 0.0 0.0 l 0.0 0.0 l 18.629944 9.916077 l 18.547913 9.872192 l -86.42352 47.707764 l 10.680695 -9.891357 l 10.32962 -11.779541 l 9.7595215 -13.375977 l -8.040283 -121.464294 l 32.217773 -15.006348 l 30.012207 -14.831726 l 27.540466 -14.523254 l -135.14038 215.27423 l 11.523193 -6.2963257 l -23.487274 10.800171 l -12.359863 2.6983643 l 0.0 0.0 l 0.0 0.0 l 0.0 0.0 l -6.140381 -0.20812988 l -5.8364563 -0.60528564 l -50.535706 -33.89917 l 2.7357483 4.6921997 l 3.3233643 4.72052 l 7.9431458 8.694641 l 0.0 0.0 l 0.0 0.0 l 0.0 -6.1035156e-05 l -4.152588 -4.187317 l 8.912231 7.728943 l 4.6114807 2.923462 l 5.1543274 2.746399 l 5.334259 2.3025513 l 5.122162 1.7530518 l 5.7130127 1.486084 l -47.20572 -38.158325 l -1.9450684 -5.270569 l -1.5777283 -5.732788 l -1.0800171 -5.719116 l -0.66607666 -6.087097 l 0.0 0.0 l 0.0 0.0 l 0.0 0.0 l 1.2975769 -11.1692505 l 3.9142456 -11.210876 l 6.4795837 -11.115051 l 20.58844 -22.045593 l -11.369751 10.796387 l 25.895416 -22.098938 l 16.87497 -11.053223 l 19.559692 -11.083435 l 22.059814 -11.01001 l 0.0 0.0 l 0.0 0.0 l 0.0 0.0 l -254.9358 -10.343445 l 9.84285 -30.420593 l -5.123657 14.019287 l -8.307846 33.265503 l -2.527893 17.298218 l -1.5375977 18.201782 l 0.0 0.0 l 0.0 0.0 l 0.0 6.1035156e-05 l 0.86824036 24.908936 l 59.424835 -172.71515 l 10.798492 -9.51062 l 12.080383 -9.619293 l -51.08351 54.66153 l -7.576782 13.816284 l 16.349518 -27.221619 l 9.628738 -12.470764 l 0.0 0.0 l 0.0 0.0 l 0.0 0.0 l 150.32233 -96.47513 l 6.8255615 -3.2695618 l 7.0643005 -3.3730469 l 6.6266174 -3.1541748 l 7.3912964 -3.5062866 l 6.0554504 -2.863678 l 34.788147 -16.624176 l 6.045868 -2.9429016 l 7.5477295 -3.6965942 l 6.009857 -2.9607239 l -32.187805 15.674347 l 4.3876343 -2.1099243 l -13.151489 6.3014526 l -6.2838135 2.9847717 l -0.0036621094 0.001739502 l 0.0 0.0 l 0.00018310547 -9.1552734e-05 l 54.898743 -26.64975 l 6.282379 -3.1310425 l 0.0032043457 -0.0015869141 l 0.0 0.0 l -0.00018310547 9.1552734e-05 l 14.767731 -10.50769 l 24.608154 -21.677673 l -11.129272 10.663361 l 15.874084 -138.02605 l 9.965027 11.110916 l 8.076294 13.624756 l -12.723938 91.0733 l 7.686035 -10.94632 l 6.3237915 -11.773224 l 4.258484 -11.225494 l 0.18469238 -41.387634 l 3.3964844 17.54956 l 0.0 0.0 l 0.0 3.0517578e-05 l 0.0 9.1552734e-05 l -0.8677368 11.748535 l -277.03778 197.11362 l 14.25473 -9.516449 l 31.969666 -19.048431 l -16.253967 9.343567 l 53.445404 -28.722687 l 0.0 0.0 l 0.0 0.0 l 0.0 0.0 l 7.149414 -3.4564514 l 6.644043 -3.2025452 l -32.79477 16.249725 l -42.739075 -132.44073 l 0.0 0.0 l 0.0 -3.0517578e-05 l 0.0 0.0 l -19.109283 -8.858154 l 27.038452 -4.8311768 l 7.1835938 -12.056183 l 7.151428 -11.621674 l -79.831696 10.681915 l 19.148132 8.876099 l 203.56052 -103.4424 l 19.217499 3.0937195 l 17.232208 5.2480316 l 14.67981 7.2109222 l -72.90082 -16.610931 l 0.0 0.0 l -3.0517578e-05 0.0 l 0.0 0.0 l -11.592712 1.2608032 l -9.528595 1.7078705 l -10.698273 2.7401733 l -9.903778 3.4000244 l 305.51855 6.620056 l -11.352661 -22.963516 l -13.528381 -22.240616 l 46.75647 120.12857 l -5.1605835 -25.703796 l -7.28302 -25.00319 l -343.00876 -15.959808 l -8.572632 6.379883 l 26.898895 -17.036545 l -9.224731 4.889328 l -30.978943 24.890823 l -4.9289246 6.0772095 l 9.828369 -11.5672 l 0.0 0.0 l 0.0 1.5258789e-05 l 0.0 0.0 l -15.547638 19.18895 l -5.708832 8.104706 l -6.3714905 9.524109 l 337.5888 -125.3519 l -17.580505 -20.265686 l 0.0 0.0 l 0.0 0.0 l 0.0 1.5258789e-05 l -20.584412 -17.07042 l -21.531311 -15.351135 l -22.23944 -13.463455 l -151.46506 -43.215313 l 0.0 0.0 l 0.0 0.0 l 0.0 0.0 l 27.825653 2.782566 l 25.84842 4.3893356 l 26.283173 6.477463 l 24.209656 7.9007874 l 24.115356 9.942863 l -175.87463 -29.099411 l -44.680145 7.1652107 l -41.920135 11.977917 l -38.904358 16.693268 l -36.16873 21.532219 l -33.24565 26.270828 l -30.431915 31.093796 l -27.530716 35.825012 l 52.46173 76.403946 l 18.704666 8.67041 l 19.323486 8.957214 l -76.68141 -35.544983 l 19.032486 8.822327 l -38.692383 -17.935532 l -18.699127 -8.667831 l 77.188675 485.50092 l 4.314789 23.012146 l 6.099884 22.374817 " /> </g> </svg>