<?xml version="1.0" standalone="no"?><!DOCTYPE svg PUBLIC "-//W3C//DTD SVG 1.1//EN" "http://www.w3.org/Graphics/SVG/1.1/DTD/svg11.dtd" ><svg xmlns="http://www.w3.org/2000/svg" xmlns:xlink="http://www.w3.org/1999/xlink" version="1.1" viewBox="-10 0 692 1000"><g transform="matrix(1 0 0 -1 0 800)"><path stroke="black" fill="none" d="M 389.14603 939.9895 l -21.932526 -7.472595 l -40.34543 -19.214539 l 18.28476 9.643799 l -116.18257 -110.36487 l -8.475464 -18.201355 l 30.574509 53.857178 l -8.752548 -12.608582 l 62.2787 63.59027 l -16.958344 -12.630127 l -18.921204 -16.316101 l 0.0 0.0 l 3.0517578e-05 6.1035156e-05 l 3.0517578e-05 0.0 l 143.22311 75.499756 l 23.496765 4.1794434 l 24.257935 2.489441 l 0.0 0.0 l 0.0 0.0 l 0.0 0.0 l 36.444702 -1.8588867 l 96.88571 -28.656982 l -31.847473 13.758789 l -29.489136 8.729614 l 117.34827 -61.049255 l -26.00061 20.5625 l 51.441772 -46.082397 l 23.276123 -29.476868 l 18.457153 -29.623352 l -6.6084595 7.482544 l -21.38153 -8.767822 l -16.560364 -8.815979 l -19.42157 -10.3302 l -18.582153 -9.923035 l 99.54236 -334.33917 l -4.484009 11.217529 l -8.430603 17.241852 l 21.05194 -54.680206 l 2.9015503 -12.580383 l 4.460327 -31.818207 l 0.0 0.0 l -0.40753174 4.5361023 l 0.3196411 -39.562286 l -46.16101 161.22604 l -0.38323975 0.5301819 l -13.664978 16.081177 l 0.0 0.0 l 0.004638672 -0.00579834 l -20.005432 16.475616 l -12.089905 9.010986 l -44.758484 28.967224 l 0.7714844 -0.47875977 l 19.935974 -12.238953 l -17.239746 210.52966 l -18.94806 -10.091003 l -17.942444 -9.551758 l -64.4198 -14.031494 l 8.315796 -15.808533 l 0.0015869141 -0.0032348633 l 0.0 0.0 l -0.00012207031 0.00024414062 l 19.80017 10.522888 l 16.52539 8.794128 l -85.3952 48.009888 l 10.319794 -9.554871 l 12.6427 -14.868652 l 6.248932 -8.564575 l -4.5596924 -124.34497 l 29.416687 -13.701294 l 32.425476 -16.06073 l 24.839905 -13.098755 l -133.98883 214.66046 l 11.259216 -6.1504517 l -23.770294 10.804016 l -11.987762 2.6359863 l 0.0 0.0 l -0.00030517578 0.0 l -0.0022277832 -0.00012207031 l -7.289337 -0.32910156 l -2.212494 -0.23028564 l -50.787384 -30.398499 l 0.037231445 0.06500244 l 2.9147034 4.2406616 l 8.432587 9.626709 l 0.0 0.0 l -0.035888672 -0.036193848 l -2.6459045 -2.668274 l 9.384979 7.604004 l 0.0 0.0 l 0.04724121 0.028869629 l 7.2308655 4.168152 l 7.9832153 3.3893433 l 0.0 0.0 l 0.051574707 0.016723633 l 8.112061 2.3948975 l -46.64444 -39.040894 l -0.016448975 -0.04498291 l -0.5808716 -1.5837402 l -3.0415344 -11.080383 l -0.30975342 -1.6364746 l -0.8906555 -7.355957 l 0.0 0.0 l 9.1552734e-05 -0.0008544922 l 0.004547119 -0.03894043 l 1.1937256 -10.273376 l 4.4672546 -12.796875 l 5.6874084 -9.759949 l 12.378723 -14.502319 l -0.32562256 0.3086548 l 23.607727 -19.858154 l 0.007171631 -0.0043945312 l 15.897339 -10.397461 l 21.875336 -12.382019 l 20.487396 -10.226013 l 0.0009460449 -0.0004272461 l 0.0 0.0 l -0.00015258789 6.1035156e-05 l -254.76163 -10.872009 l 0.0121154785 -0.0390625 l 5.658951 -18.871887 l 0.0 0.0 l -9.983566 40.206055 l -1.6703186 11.407898 l -1.7921448 21.35913 l 0.0 0.0 l 0.005569458 0.15856934 l 0.75413513 21.623047 l 61.93994 -172.91327 l 6.860718 -6.044922 l 12.871704 -10.366455 l -51.996414 57.048096 l -4.7358856 8.628479 l 17.49495 -28.05951 l 7.1566925 -9.273499 l 0.0059051514 -0.0076904297 l 0.0 0.0 l 152.44148 -97.565186 l 3.5501404 -1.7007141 l 13.588745 -6.482239 l 0.11654663 -0.055480957 l 12.543732 -5.946045 l 0.0 0.0 l 42.147858 -20.180084 l 0.0 0.0 l 11.25473 -5.52417 l 0.0 0.0 l -40.536285 19.619263 l -2.9407043 1.3989258 l 0.0 0.0 l 61.302734 -30.044006 l 0.0 0.0 l 6.252655 -4.6605835 l 23.373413 -18.483795 l -0.39868164 0.40673828 l 21.62622 -127.87424 l 0.27197266 0.30099487 l 10.060303 15.731689 l -0.010314941 -0.0154418945 l -6.6584473 83.069214 l 0.2033081 -0.28536987 l 11.080933 -22.41153 l 0.072753906 -0.1845398 l 2.1672974 -38.975677 l 0.0051879883 0.029449463 l 2.286377 14.988312 l 0.0 0.0 l -0.1963501 2.57312 l -274.23676 201.5195 l 9.393341 -6.2738647 l 21.481049 -13.168396 l -0.52957153 0.3040161 l 50.077667 -26.764038 l 0.0 0.0 l 0.012420654 -0.006011963 l 11.404083 -5.5064697 l 0.050872803 -0.024536133 l 0.0 0.0 l -30.017303 14.899719 l -43.815002 -132.23898 l 0.0 0.0 l -0.017852783 -0.008392334 l -15.235962 -7.0698547 l 25.710724 -10.098541 l 0.0 0.0 l 0.07046509 -0.11767578 l 11.071991 -18.254333 l -77.569916 9.591003 l 17.13623 7.9490967 l 208.62396 -102.37109 l 12.913086 2.0735168 l 22.361664 7.1115723 l 9.238831 4.53096 l -71.191315 -15.420959 l 0.0 0.0 l -0.04559326 0.004837036 l -17.473175 2.3848572 l 0.0 0.0 l -14.474335 3.600418 l -0.0044555664 0.0019836426 l -7.718048 2.6233673 l 301.5841 1.966156 l -7.963867 -16.116135 l -13.85498 -23.040833 l 45.067505 113.47728 l -3.6290894 -18.091248 l -7.4032593 -25.902908 l -345.67502 -15.176056 l -4.4069214 3.271347 l 22.975555 -14.574692 l -5.52713 2.9229126 l -36.09326 30.133286 l -0.036315918 0.04446411 l 8.347534 -9.768707 l 0.0 0.0 l -0.006958008 0.008148193 l -17.153046 21.536285 l 0.0 0.0 l -0.06863403 0.09844971 l -9.374664 13.725372 l 332.88788 -128.5292 l -13.323669 -15.37027 l 0.0 0.0 l -16.398865 -13.706299 l -3.2034912 -2.6762695 l -24.295898 -17.335495 l -19.891296 -12.045403 l -152.4172 -43.80714 l 0.0 0.0 l 0.0002746582 3.0517578e-05 l 0.0020751953 0.00023651123 l 46.64618 5.9836082 l 1.1208496 0.18974304 l 49.908203 13.268677 l 1.0690308 0.34799957 l 28.82965 11.429504 l -0.05291748 -0.02091217 l -176.00397 -28.667702 l -43.522705 6.979431 l -44.64099 13.060913 l -35.580475 15.268074 l -37.67177 22.394447 l -32.300827 25.526512 l -31.282364 32.017593 l -26.782257 34.85524 l 66.108475 83.15364 l 0.686615 0.31829834 l 22.914429 10.621765 l -0.03565979 -0.01651001 l -72.045166 -33.395935 l 12.533081 5.809601 l -50.035995 -23.193771 l -0.6409302 -0.29710388 l 73.85611 488.4991 l 2.9482574 15.726929 l 6.4840393 24.501465 " /> </g> </svg>