<?xml version="1.0" standalone="no"?><!DOCTYPE svg PUBLIC "-//W3C//DTD SVG 1.1//EN" "http://www.w3.org/Graphics/SVG/1.1/DTD/svg11.dtd" ><svg xmlns="http://www.w3.org/2000/svg" xmlns:xlink="http://www.w3.org/1999/xlink" version="1.1" viewBox="-10 0 692 1000"><g transform="matrix(1 0 0 -1 0 800)"><path stroke="black" fill="none" d="M 142.0 974.0 l 22.5 0.0 l 22.5 0.0 l 22.5 0.0 l 22.5 0.0 l 22.5 0.0 l 22.5 0.0 l 22.5 0.0 l 22.5 0.0 l 22.5 0.0 l 22.5 0.0 l 0.0 -8.700012 l 0.0 -8.700012 l 0.0025939941 -8.700867 l 20.256378 -7.9769897 l -20.0914 -7.57428 l -24.916443 -11.232422 l 0.0 0.0 l -115.48175 -115.11218 l 0.0 0.0 l 21.510391 37.468384 l 118.71535 60.929382 l -0.004547119 -8.702148 l -77.49249 -8.928162 l 0.0 0.0 l -17.499237 -14.342468 l 107.26117 27.161804 l 11.97998 11.7699585 l 11.700012 10.950012 l 9.1710205 22.343872 l 13.388977 -2.9038696 l 9.982361 8.224915 l 11.457703 7.9350586 l 12.702118 -5.3792725 l 0.0 0.0 l -0.00015258789 0.00079345703 l 7.6179504 18.258362 l 0.0 0.0 l 9.980011 4.750122 l 10.340057 4.249756 l 8.70697 -26.446228 l 13.052887 33.446228 l 11.420105 2.7502441 l 11.779968 2.25 l 12.140015 1.75 l 12.5 1.25 l 12.859985 0.75 l 0.0 0.0 l -12.340393 -59.486084 l -16.190918 5.210449 l 0.0 0.0 l 64.451355 51.95569 l 18.199951 -2.9000244 l 18.360046 -4.0599976 l 18.519958 -5.2200317 l 18.680054 -6.380005 l 18.839966 -7.539978 l 19.0 -8.700012 l 19.160034 -9.859985 l -10.300049 -20.599976 l -10.299988 -20.600037 l -86.43671 -8.349365 l -0.37927246 0.28094482 l 66.216 -33.13159 l -20.173523 -9.346008 l 33.988525 -49.919556 l 0.0 0.0 l 1.9696045 -1.7650757 l -36.80774 -14.4729 l 0.0 0.0 l -22.11499 -11.888062 l -17.888 -10.817871 l 92.2923 -318.94705 l 0.0 0.0 l 18.956543 -72.2059 l 0.0 0.0 l -52.59381 122.649536 l 0.0 0.0 l -47.043762 38.887634 l 0.0 0.0 l -25.155151 212.96521 l -6.529907 7.253235 l -32.134644 -17.329163 l -0.17529297 -0.098083496 l 0.88983154 30.874084 l -12.530029 5.0599976 l -12.469971 4.1400146 l -12.410034 3.2197876 l -21.462585 -73.36011 l 0.0 0.0 l 28.073364 14.490295 l 0.0 0.0 l -76.2052 48.133484 l 0.17971802 -0.16345215 l 23.287872 -26.409851 l 32.944763 -144.5326 l 0.0 0.0 l 40.69629 -20.740723 l 0.0 0.0 l -116.72003 205.4458 l 1.318573 -0.666626 l 0.0 0.0 l -35.59735 11.275757 l 0.0 0.0 l -1.6955261 -0.015136719 l 0.0 0.0 l -51.495453 -26.274841 l 0.0 0.0 l 36.000397 23.70404 l 0.0 0.0 l -48.525604 -53.871887 l 0.0 0.0 l -0.5076904 -7.76178 l 0.0 0.0 l 12.833405 -33.55603 l 0.0 0.0 l 1.2983398 -1.4474487 l 38.251526 -33.946228 l 0.0 0.0 l 49.53131 -27.770874 l 0.0 0.0 l -113.486084 -26.771606 l -125.4917 -20.468079 l 0.0 0.0 l -19.823288 103.751526 l 0.0 0.0 l 68.770706 -171.75476 l 0.0 0.0 l -8.788544 8.536438 l 0.0 0.0 l 152.45917 -93.488434 l 0.0 0.0 l 69.999756 -33.572357 l 0.0 0.0 l 84.53589 -134.47433 l 0.0 0.0 l -12.77832 75.19586 l 0.0 0.0 l -236.7463 142.8429 l 0.0 0.0 l 59.19272 -32.605743 l 0.0 0.0 l -54.59018 -133.0102 l 0.0 0.0 l -42.008484 -10.369171 l 0.0 0.0 l 244.13937 -89.95343 l 0.0 0.0 l -98.61688 -5.956604 l 0.0 0.0 l 282.82135 -19.843246 l 0.0 0.0 l 28.840515 66.02281 l 0.0 0.0 l -340.78046 -32.59868 l 0.0 0.0 l -43.22577 44.34456 l 0.0 0.0 l -13.429535 -164.35905 l 321.6556 24.000443 l 0.0 0.0 l -48.539307 -34.1184 l 0.0 0.0 l -119.74106 -45.1277 l 0.0 0.0 l 74.73642 21.739273 l 0.0 0.0 l -200.3519 -19.492016 l -1.245758 0.19591522 l -80.92807 25.783115 l 0.0 0.0 l -68.996735 45.027023 l -0.5661621 0.46891785 l 11.476944 -68.97656 l -22.5 0.0 l -22.5 0.0 l -22.5 0.0 l -22.5 0.0 l -22.499992 0.0 l 41.762276 133.19452 l -0.5529938 0.7791748 l 74.66998 97.82228 l 0.0 0.0 l -89.02992 -41.26906 l 0.0 0.0 l -26.849342 101.67308 l 0.0 97.400024 l 0.0 97.39996 l 0.0 97.400024 l 0.0 97.400024 l 94.67454 17.910522 l 1.7414093 6.8061523 l 0.0 0.0 l -96.41595 170.08331 l 0.0 97.400024 " /> </g> </svg>