<?xml version="1.0" standalone="no"?><!DOCTYPE svg PUBLIC "-//W3C//DTD SVG 1.1//EN" "http://www.w3.org/Graphics/SVG/1.1/DTD/svg11.dtd" ><svg xmlns="http://www.w3.org/2000/svg" xmlns:xlink="http://www.w3.org/1999/xlink" version="1.1" viewBox="-10 0 692 1000"><g transform="matrix(1 0 0 -1 0 800)"><path stroke="black" fill="none" d="M 389.1599 939.99 l -21.979645 -7.4700317 l -41.670197 -19.914795 l 20.444 10.781555 l -116.42818 -109.526245 l -9.561951 -20.542603 l 33.905304 59.001892 l -13.018372 -18.754517 l 64.94026 66.57794 l -18.925415 -14.099121 l -18.185455 -15.774048 l 0.0 0.0 l 0.0 0.0 l 0.0 0.0 l 143.22 75.529724 l 23.5 4.1502686 l 24.25998 2.4899902 l 0.0 0.0 l 0.0 0.0 l 0.0 0.0 l 36.440033 -1.9295044 l 97.793274 -28.947815 l -30.688538 13.511841 l -32.57715 9.6432495 l 118.86871 -61.75476 l -26.833801 21.225037 l 51.75763 -46.318237 l 23.002014 -28.953918 l 21.06073 -32.78656 l -10.4713745 11.857605 l -18.620422 -9.891663 l -18.585022 -9.892029 l -18.606018 -9.903198 l -18.599915 -9.900085 l 101.118286 -338.21133 l -6.8027954 17.00705 l -8.062744 16.158081 l 20.464417 -51.175995 l 4.3294067 -18.803864 l 4.963196 -40.41333 l 0.0 0.0 l 0.0 0.0 l 0.0 3.0517578e-05 l -1.8562012 20.60788 l 0.8163452 -48.325043 l -38.079956 153.44766 l -10.458435 14.239105 l -11.801697 13.479797 l 0.0 0.0 l 0.0 0.0 l 0.0 0.0 l -15.939087 13.381683 l -18.20465 13.566162 l -43.529114 27.927734 l 22.913635 -14.069946 l -18.470886 211.28436 l -18.60254 -9.901428 l -18.595215 -9.8974 l -64.80707 -12.610535 l 9.004944 -17.090637 l 0.0 0.0 l 0.0 0.0 l 0.0 0.0 l 18.608765 9.904724 l 18.584778 9.891846 l -86.44226 47.70227 l 10.687256 -9.897461 l 10.287476 -11.723267 l 9.823486 -13.463684 l -8.103729 -121.411804 l 32.26883 -15.03009 l 29.968262 -14.809326 l 27.58966 -14.549255 l -135.16138 215.2854 l 11.528015 -6.29895 l -23.482117 10.80011 l -12.367035 2.699463 l 0.0 0.0 l 0.0 0.0 l 0.0 0.0 l -6.1188965 -0.20587158 l -5.9026184 -0.6121826 l -50.545807 -33.98816 l 2.8236084 4.8427124 l 3.3068237 4.6882935 l 7.9268494 8.670227 l 0.0 0.0 l 0.0 0.0 l 0.0 0.0 l -4.1720276 -4.20697 l 8.868225 7.708435 l 4.7801514 3.0306396 l 5.0664062 2.6889038 l 5.246399 2.2688599 l 5.311554 1.8181152 l 5.6118774 1.4499512 l -47.21582 -38.141846 l -1.9697571 -5.3373413 l -1.5510559 -5.635315 l -1.0941467 -5.7940063 l -0.6617737 -6.064392 l 0.0 0.0 l 0.0 0.0 l 0.0 0.0 l 1.2992859 -11.18396 l 3.9041748 -11.182007 l 6.4940186 -11.139709 l 20.738037 -22.183044 l -11.6032715 11.018127 l 25.96936 -22.17041 l 16.89267 -11.0651245 l 19.517487 -11.059753 l 22.088226 -11.02417 l 0.0 0.0 l 0.0 0.0 l 0.0 0.0 l -254.93877 -10.333923 l 10.095413 -31.11316 l -5.46756 14.960266 l -8.203308 32.93634 l -2.5435333 17.405579 l -1.5322266 18.164978 l 0.0 0.0 l 0.0 0.0 l 0.0 0.0 l 0.8694916 24.945251 l 59.378998 -172.71155 l 10.87027 -9.5737915 l 12.0659485 -9.605652 l -51.066864 54.618042 l -7.6285706 13.910828 l 16.32866 -27.20636 l 9.672073 -12.526794 l 0.0 0.0 l 0.0 0.0 l 0.0 0.0 l 150.28531 -96.45737 l 6.885254 -3.2981567 l 6.9410706 -3.3143005 l 6.798706 -3.2361145 l 7.008545 -3.3250427 l 6.6031494 -3.1227112 l 34.237915 -16.359589 l 6.5791016 -3.2024841 l 7.0190125 -3.437378 l 6.568573 -3.2359924 l -33.469208 16.293549 l 6.0934143 -2.9302368 l -13.468628 6.4559937 l -6.6515503 3.1594543 l 0.0 0.0 l 3.0517578e-05 0.0 l 3.0517578e-05 0.0 l 54.54773 -26.473938 l 6.6509094 -3.3153687 l 0.0 0.0 l -3.0517578e-05 0.0 l -3.0517578e-05 0.0 l 14.90213 -10.600464 l 24.630676 -21.7359 l -11.348999 10.873138 l 15.793396 -138.23392 l 10.173645 11.343613 l 8.008179 13.550674 l -12.83429 91.21945 l 7.8515015 -11.182251 l 6.207947 -11.537598 l 4.3585815 -11.490295 l 0.12475586 -41.368103 l 3.413147 17.641449 l 0.0 0.0 l 0.0 0.0 l 0.0 0.0 l -0.87646484 11.870148 l -277.0888 197.0333 l 14.343292 -9.575531 l 32.160828 -19.15561 l -16.569366 9.524872 l 53.540558 -28.777313 l 0.0 0.0 l 0.0 0.0 l 0.0 0.0 l 7.022583 -3.3953552 l 6.860382 -3.3067932 l -32.89746 16.299408 l -42.725555 -132.44727 l 0.0 0.0 l 0.0 0.0 l 0.0 0.0 l -19.173462 -8.887787 l 27.018341 -4.660614 l 7.357849 -12.348816 l 7.0796814 -11.500275 l -79.872925 10.701782 l 19.184814 8.893005 l 203.46823 -103.461945 l 19.332397 3.11232 l 17.138733 5.2140656 l 14.778931 7.2597656 l -72.9426 -16.6315 l 0.0 0.0 l 0.0 0.0 l 0.0 0.0 l -11.117096 1.1753998 l -10.286194 1.8437195 l -10.402527 2.683487 l -9.943512 3.4141388 l 305.59024 6.7048798 l -11.414429 -23.088303 l -13.5224 -22.226044 l 46.78723 120.24977 l -5.1884766 -25.84253 l -7.2808228 -24.986786 l -342.96017 -15.974075 l -8.64856 6.4365234 l 26.970398 -17.081406 l -9.292114 4.9251556 l -30.859467 24.762955 l -5.085266 6.270111 l 9.893219 -11.646988 l 0.0 0.0 l 0.0 0.0 l 0.0 0.0 l -15.478638 19.090744 l -5.851074 8.306427 l -6.3138733 9.44342 l 337.6745 -125.29399 l -17.65094 -20.346573 l 0.0 0.0 l 0.0 0.0 l 0.0 0.0 l -20.609497 -17.091278 l -21.480896 -15.314972 l -22.282288 -13.489296 l -151.4473 -43.204487 l 0.0 0.0 l 0.0 0.0 l 0.0 0.0 l 27.482239 2.7241821 l 26.309174 4.4675865 l 25.842468 6.3519783 l 24.641235 8.041653 l 24.019653 9.912552 l -175.87134 -29.106895 l -44.701233 7.1685944 l -41.870544 11.958176 l -38.964935 16.719246 l -36.141342 21.516502 l -33.26288 26.284386 l -30.416397 31.076965 l -27.544357 35.842697 l 52.213013 76.28093 l 19.054916 8.832764 l 19.236176 8.916748 l -76.765274 -35.583862 l 19.15094 8.877228 l -38.48564 -17.839691 l -19.053291 -8.832001 l 77.27447 485.4579 l 4.339691 23.144897 l 6.0928955 22.33606 " /> </g> </svg>