<?xml version="1.0" standalone="no"?><!DOCTYPE svg PUBLIC "-//W3C//DTD SVG 1.1//EN" "http://www.w3.org/Graphics/SVG/1.1/DTD/svg11.dtd" ><svg xmlns="http://www.w3.org/2000/svg" xmlns:xlink="http://www.w3.org/1999/xlink" version="1.1" viewBox="-10 0 692 1000"><g transform="matrix(1 0 0 -1 0 800)"><path stroke="black" fill="none" d="M 389.1588 939.9899 l -21.975922 -7.470215 l -41.56552 -19.859497 l 20.273407 10.69165 l -116.40878 -109.59247 l -9.476105 -20.357666 l 33.64215 58.595398 l -12.681335 -18.26886 l 64.72998 66.3418 l -18.769989 -13.983032 l -18.243744 -15.816956 l 0.0 0.0 l 0.0 0.0 l 0.0 0.0 l 143.2204 75.52753 l 23.499725 4.152527 l 24.259827 2.4899292 l 0.0 0.0 l 0.0 0.0 l 0.0 0.0 l 36.4404 -1.9238892 l 97.72162 -28.924866 l -30.780151 13.531372 l -32.33319 9.571045 l 118.7486 -61.699036 l -26.767944 21.17273 l 51.732666 -46.29962 l 23.023682 -28.99524 l 20.85498 -32.53662 l -10.166138 11.511902 l -18.838623 -9.802856 l -18.425049 -9.807007 l -18.670471 -9.93689 l -18.59845 -9.901978 l 100.993774 -337.90536 l -6.619629 16.549622 l -8.091736 16.243713 l 20.510742 -51.45288 l 4.216675 -18.312134 l 4.991272 -40.484955 l 0.0 0.0 l -0.00024414062 0.0028076172 l -0.03527832 0.39022827 l -1.7740479 19.69577 l 0.7770386 -47.63272 l -38.718384 154.06226 l -9.589722 13.057404 l -12.031433 13.795959 l 0.0 0.0 l 6.1035156e-05 0.0 l 6.1035156e-05 -6.1035156e-05 l -16.250244 13.613647 l -17.721558 13.206299 l -43.62628 28.009827 l 22.739319 -13.963074 l -18.373596 211.22473 l -18.629822 -9.916443 l -18.54364 -9.870056 l -64.77649 -12.722839 l 8.951172 -16.990662 l 0.0 0.0 l 0.0 0.0 l 0.0 0.0 l 18.702332 9.954651 l 18.422058 9.805115 l -86.3595 47.726624 l 10.658234 -9.870422 l 10.473541 -11.971802 l 9.541077 -13.076599 l -7.8237305 -121.64349 l 32.043518 -14.925171 l 30.162354 -14.908203 l 27.372375 -14.434631 l -135.0687 215.23602 l 11.506775 -6.2872314 l -23.504883 10.800415 l -12.335541 2.69458 l 0.0 0.0 l 0.0 0.0 l 0.0 0.0 l -6.213562 -0.21575928 l -5.610565 -0.5819702 l -50.50125 -33.595154 l 2.4357605 4.1782837 l 3.3798828 4.8305054 l 7.9967957 8.776001 l 0.0 0.0 l -6.1035156e-05 -6.1035156e-05 l -0.00015258789 -0.00018310547 l -4.0840454 -4.118225 l 9.0624695 7.79895 l 0.18191528 0.114746094 l 3.8537598 2.442871 l 5.4544983 2.94281 l 5.6341553 2.4174194 l 0.19995117 0.06793213 l 4.2756653 1.4631348 l 6.058258 1.609314 l -47.171265 -38.214478 l -1.8607483 -5.0426636 l -1.6687927 -6.065613 l -1.0317688 -5.463318 l -0.6807251 -6.164856 l 0.0 0.0 l 0.0 -6.1035156e-05 l 0.0 0.0 l 1.291748 -11.118835 l 3.9486694 -11.30957 l 6.430298 -11.030701 l 20.077576 -21.576233 l -10.572449 10.039124 l 25.642975 -21.854858 l 16.814606 -11.012695 l 19.703766 -11.164246 l 21.962677 -10.961548 l 0.0 0.0 l 0.0 0.0 l 0.0 0.0 l -254.92563 -10.375977 l 8.980606 -28.056091 l -3.9495392 10.80658 l -8.664749 34.389404 l -2.4745483 16.931702 l -1.5557251 18.333008 l 0.0 0.0 l 0.0 0.00012207031 l 3.0517578e-05 0.0008544922 l 0.8637543 24.778625 l 59.58133 -172.72748 l 10.553467 -9.294983 l 12.129639 -9.6657715 l -51.14032 54.809998 l -7.4000244 13.49353 l 16.420807 -27.273743 l 9.480347 -12.278931 l 0.0 0.0 l -1.5258789e-05 0.0 l -3.0517578e-05 6.1035156e-05 l 150.44914 -96.53641 l 6.6217957 -3.171936 l 7.4850464 -3.5735474 l 6.039032 -2.8745117 l 8.69809 -4.1250305 l 4.1855164 -1.9793701 l 36.66678 -17.527466 l 4.2252197 -2.0567017 l 9.352875 -4.5816345 l 4.102356 -2.020874 l -27.813293 13.560516 l 0.16815186 -0.080841064 l -13.67276 6.545166 l -4.971466 2.3614502 l -0.012969971 0.006134033 l 0.0 0.0 l 56.03784 -27.221802 l 4.9697876 -2.4748535 l 0.011779785 -0.0058288574 l 0.0 0.0 l 14.36496 -10.218567 l 24.531311 -21.478943 l -10.379089 9.947205 l 16.149536 -137.31642 l 9.252869 10.316467 l 8.308777 13.87767 l -12.347168 90.57431 l 7.1210327 -10.140808 l 6.7192993 -12.577637 l 3.9169312 -10.321381 l 0.3890381 -41.454346 l 3.3388062 17.248138 l 0.0 0.0 l -6.1035156e-05 0.0004272461 l -0.00036621094 0.005126953 l -0.83654785 11.315887 l -276.86353 197.38791 l 13.952209 -9.314667 l 31.317047 -18.682556 l -15.177185 8.724518 l 53.12198 -28.536743 l 0.0 0.0 l 3.0517578e-05 0.0 l 9.1552734e-05 -6.1035156e-05 l 7.580963 -3.6644287 l 5.49765 -2.6499634 l 0.40777588 -0.19656372 l -32.444214 16.080078 l -42.786896 -132.41925 l 0.0 0.0 l -6.1035156e-05 -3.0517578e-05 l -9.1552734e-05 -3.0517578e-05 l -18.888367 -8.756317 l 27.107239 -5.413452 l 0.71255493 -1.1947327 l 5.876068 -9.862427 l 7.3963623 -12.036011 l -79.69098 10.614014 l 19.02295 8.81842 l 203.87558 -103.37573 l 18.825226 3.030243 l 17.551392 5.363983 l 14.341248 7.044159 l -72.76102 -16.54042 l 0.0 0.0 l -9.1552734e-05 0.0 l -0.00024414062 3.0517578e-05 l -13.21347 1.5520782 l -6.941925 1.2440796 l -11.70813 2.9337006 l -9.768036 3.351822 l 305.2737 6.330475 l -11.141785 -22.537445 l -13.548706 -22.29042 l 46.651367 119.71471 l -5.0652466 -25.230133 l -7.2905273 -25.059158 l -343.17465 -15.911026 l -8.313446 6.186447 l 26.654785 -16.883347 l -8.994629 4.7669525 l -31.38681 25.327438 l -4.395294 5.4186707 l 9.606293 -11.293854 l 0.0 0.0 l -3.0517578e-05 3.0517578e-05 l -3.0517578e-05 6.1035156e-05 l -15.782379 19.523224 l -0.3873291 0.5510864 l -4.835846 6.8649597 l -6.5682373 9.799561 l 337.2963 -125.54961 l -17.338196 -19.98732 l 0.0 0.0 l 6.1035156e-05 6.1035156e-05 l 0.00018310547 0.00019836426 l -20.500977 -17.001625 l -21.703308 -15.474617 l -22.093384 -13.375214 l -151.52539 -43.25227 l 0.0 0.0 l 0.0 0.0 l 0.0 3.8146973e-06 l 28.998016 2.9818878 l 24.27533 4.1221733 l 27.787628 6.9058876 l 22.736145 7.4198456 l 24.442322 10.046349 l -175.88596 -29.073853 l -44.608154 7.153652 l -42.089447 12.0453 l -38.69751 16.604591 l -36.262253 21.585869 l -33.186874 26.22451 l -30.484818 31.15129 l -27.484146 35.764664 l 53.310883 76.823944 l 17.50879 8.116058 l 19.621658 9.095428 l -76.39516 -35.412292 l 18.628067 8.634888 l -39.39821 -18.262726 l -17.489952 -8.10733 l 76.895775 485.6478 l 4.2297516 22.558838 l 6.1237946 22.507202 " /> </g> </svg>