<?xml version="1.0" standalone="no"?><!DOCTYPE svg PUBLIC "-//W3C//DTD SVG 1.1//EN" "http://www.w3.org/Graphics/SVG/1.1/DTD/svg11.dtd" ><svg xmlns="http://www.w3.org/2000/svg" xmlns:xlink="http://www.w3.org/1999/xlink" version="1.1" viewBox="-10 0 692 1000"><g transform="matrix(1 0 0 -1 0 800)"><path stroke="black" fill="none" d="M 389.11224 939.9883 l -21.817963 -7.478943 l -37.123444 -17.511414 l 13.033203 6.876587 l -115.58516 -112.40442 l -5.833008 -12.507141 l 22.473648 41.344727 l -0.31860352 -0.45843506 l 57.74643 59.1214 l -12.174164 -9.057495 l -20.69342 -17.623169 l 0.0 0.0 l 0.0002746582 0.00018310547 l 143.21338 75.41559 l 23.488983 4.2504883 l 24.252808 2.4885254 l 0.0 0.0 l 0.0 0.0 l 0.0 0.0 l 36.456177 -1.6876221 l 94.67844 -27.949646 l -34.666077 14.359436 l -21.978699 6.5075073 l 113.65027 -59.333374 l -23.974243 18.95105 l 50.673706 -45.508606 l 23.942688 -30.748901 l 0.13092041 -0.24206543 l 11.995178 -21.688965 l -0.18713379 0.21142578 l -25.124268 -9.403015 l -11.636169 -6.1989136 l -21.40503 -11.368835 l -18.53894 -9.978699 l 95.70935 -324.9217 l -0.16912842 0.43164062 l -8.000488 16.582855 l 22.480835 -63.20282 l 0.12915039 -0.5288696 l 4.4450073 -29.626495 l 0.0 0.0 l 0.31933594 -31.00534 l -50.388794 158.7851 l 0.0 0.0 l -8.376465 9.568268 l 0.0 0.0 l -31.004944 25.367615 l -0.3887329 0.2911377 l -44.57788 29.136658 l 0.13061523 -0.08105469 l 15.211243 -9.3479 l -14.245544 208.69403 l -19.788452 -10.552002 l -16.354797 -8.711121 l -63.477966 -17.487488 l 6.5774536 -12.563416 l 0.0057373047 -0.011657715 l 0.0 0.0 l 22.759521 11.90094 l 11.516663 6.1242676 l -82.84863 48.757996 l 9.425995 -8.721558 l 18.370605 -22.518066 l 0.18136597 -0.24859619 l 1.43396 -127.88025 l 22.479858 -10.46936 l 38.401794 -19.104248 l 18.15216 -9.570923 l -131.13708 213.1405 l 10.581421 -5.7769775 l 0.024047852 -0.012451172 l -24.47116 10.813599 l -0.119140625 0.018493652 l -11.120178 2.4523926 l 0.0 0.0 l -0.0065612793 -0.0004272461 l -7.0250854 -0.3178711 l -0.05718994 -0.006225586 l -51.87143 -28.918213 l 0.0 0.0 l 0.32958984 0.4381714 l 9.47287 11.311218 l 0.0 0.0 l -0.114593506 -0.115722656 l 12.793854 8.650818 l 0.0 0.0 l 0.34002686 0.19610596 l 15.443268 6.005188 l 0.0 0.0 l 0.47790527 0.14093018 l -45.180267 -39.183655 l 0.0 0.0 l -0.015106201 -0.044189453 l -3.6884766 -13.45636 l -0.007171631 -0.036987305 l -0.86434937 -8.072876 l 0.0 0.0 l 0.0050964355 -0.043762207 l 0.8979492 -7.724365 l 5.836792 -16.724365 l 3.725586 -6.404175 l 12.520508 -15.22406 l 0.0 0.0 l 24.494293 -20.570496 l 0.0034179688 -0.0020751953 l 13.497772 -8.786621 l 27.609894 -15.597778 l 16.495728 -8.235535 l 0.003753662 -0.0018920898 l 0.0 0.0 l -254.23358 -12.229553 l 0.0032653809 -0.010559082 l 5.0157776 -16.74884 l -11.12413 49.027344 l -0.06666565 0.43170166 l -1.5639343 35.19098 l 0.0 0.0 l 0.15245056 4.4137573 l 68.16728 -173.40338 l 0.22198486 -0.19732666 l 11.7196045 -9.482727 l -54.253235 62.95117 l -0.10939026 0.19659424 l 22.73639 -34.542908 l 0.71725464 -0.9382324 l 0.0 0.0 l 156.6585 -100.052795 l 0.087249756 -0.0418396 l 15.836151 -7.549988 l 0.0 0.0 l 0.9378052 -0.44430542 l 49.39966 -23.593506 l 0.0 0.0 l -31.999817 15.363312 l 0.0 0.0 l 61.69696 -30.05899 l 0.0 0.0 l 22.468079 -17.010376 l 0.0 0.0 l 30.215515 -133.76633 l 0.0 0.0 l 9.372192 14.536774 l -0.003540039 -0.0052490234 l -5.289795 82.2988 l 0.0 0.0 l 9.011169 -18.66092 l 0.0 0.0 l 5.927368 -28.9245 l 0.0 0.0 l -0.5899048 7.171509 l 0.0 0.0 l -265.68875 193.85733 l 0.3635254 -0.24612427 l 21.93805 -13.50412 l 0.0 0.0 l 52.999084 -28.201874 l 0.0 0.0 l 2.1247559 -1.0257263 l 0.0 0.0 l -21.84784 10.929657 l -49.30136 -133.06052 l 0.0 0.0 l -2.887085 -1.3505249 l 23.613953 -25.010406 l 0.0 0.0 l 2.0481567 -3.363922 l -71.9689 6.889923 l 12.153809 5.653412 l 221.16333 -99.71805 l 0.5229492 0.0770874 l 31.838959 11.194962 l 0.2218628 0.105911255 l -76.34552 -14.161987 l 0.0 0.0 l -1.0073242 0.10316467 l -26.481293 6.0609894 l 0.0 0.0 l -2.3336487 0.71177673 l 291.8531 -9.563583 l -0.3895874 -0.8045654 l -13.845947 -23.376984 l 40.884888 97.0058 l -0.17687988 -0.91729736 l -7.3605957 -26.452988 l -350.1073 -14.845444 l -0.056671143 0.041122437 l 17.21045 -11.417755 l -0.14978027 0.07611084 l -33.81241 27.356506 l 0.0 0.0 l 4.016144 -4.7210846 l 0.0 0.0 l -21.114868 27.871796 l 0.0 0.0 l -1.5332336 2.242981 l 321.25055 -136.4042 l -0.60388184 -0.7033844 l -18.818604 -16.780518 l -0.5296631 -0.4423523 l -31.142273 -22.249619 l -14.076172 -8.533699 l -154.60855 -45.25371 l 0.0 0.0 l 0.006164551 0.0007019043 l 46.935303 6.0798035 l 0.0 0.0 l 52.220184 13.942425 l 0.0 0.0 l 26.499573 10.501228 l -0.010925293 -0.0043029785 l -176.49728 -27.667007 l -40.656372 6.519367 l -51.37903 15.742893 l -27.34903 11.73867 l -41.394012 24.529709 l -29.961014 23.68328 l -33.388443 34.305267 l -24.928772 32.45366 l 66.91078 84.57524 l 0.0 0.0 l 20.86621 9.672333 l -0.00869751 -0.0040283203 l -60.679016 -28.127228 l 0.37472534 0.17370605 l -47.79779 -22.156296 l 0.0 0.0 l 75.41528 500.4723 l 0.11566162 0.6209717 l 6.8838654 26.832397 l -0.007522583 -0.0289917 " /> </g> </svg>