<?xml version="1.0" standalone="no"?><!DOCTYPE svg PUBLIC "-//W3C//DTD SVG 1.1//EN" "http://www.w3.org/Graphics/SVG/1.1/DTD/svg11.dtd" ><svg xmlns="http://www.w3.org/2000/svg" xmlns:xlink="http://www.w3.org/1999/xlink" version="1.1" viewBox="-10 0 692 1000"><g transform="matrix(1 0 0 -1 0 800)"><path stroke="black" fill="none" d="M 389.1559 939.98987 l -21.966095 -7.470764 l -41.289124 -19.713379 l 19.822906 10.454285 l -116.357544 -109.767456 l -9.24942 -19.86914 l 32.947205 57.521973 l -11.791306 -16.986572 l 64.17467 65.718445 l -18.359589 -13.676514 l -18.397522 -15.930237 l 0.0 0.0 l 0.0 0.0 l 0.0 0.0 l 143.22134 75.52142 l 23.499054 4.1586304 l 24.2594 2.4898071 l 0.0 0.0 l 0.0 0.0 l 0.0 0.0 l 36.441376 -1.9091187 l 97.53223 -28.864197 l -31.021912 13.582886 l -31.688904 9.380432 l 118.4314 -61.55188 l -26.594177 21.034485 l 51.66681 -46.250366 l 23.080872 -29.10437 l 20.311768 -31.876648 l -9.360168 10.599121 l -19.414673 -9.56842 l -18.002625 -9.5824585 l -18.840637 -10.026001 l -18.594788 -9.906738 l 100.66498 -337.0975 l -6.135803 15.341705 l -8.168518 16.469818 l 20.633362 -52.18399 l 3.9187012 -17.013672 l 5.0095215 -40.0549 l 0.0 0.0 l -0.012756348 0.14126587 l -1.6177368 17.95752 l 0.6734619 -45.804413 l -40.40442 155.68515 l -7.2957153 9.93689 l -12.629944 14.620941 l 0.0 0.0 l 0.00024414062 -0.00024414062 l 0.0017089844 -0.0021362305 l -17.081726 14.238312 l -16.44574 12.255859 l -43.88275 28.226746 l 22.278992 -13.680969 l -18.1167 211.06726 l -18.701904 -9.955933 l -18.40747 -9.797974 l -64.69568 -13.019287 l 8.808655 -16.72583 l 0.0 0.0 l 0.0 0.0 l 0.0 6.1035156e-05 l 18.949951 10.085632 l 17.99237 9.57605 l -86.14105 47.79077 l 10.5815735 -9.79895 l 10.964935 -12.627991 l 8.795258 -12.054504 l -7.084259 -122.25549 l 31.448425 -14.647888 l 30.675049 -15.1692505 l 26.798645 -14.132019 l -134.82404 215.10565 l 11.450684 -6.2562866 l -23.565002 10.80127 l -12.253662 2.6814575 l 0.0 0.0 l -3.0517578e-05 0.0 l -6.1035156e-05 0.0 l -6.4621277 -0.24182129 l -4.8394775 -0.50213623 l -50.383484 -32.557312 l 1.4115906 2.423767 l 3.5726929 5.2059326 l 8.156799 9.030518 l 0.0 0.0 l -0.0008239746 -0.00079345703 l -0.041748047 -0.042114258 l -3.7852478 -3.8170166 l 9.575043 8.037659 l 0.056243896 0.03552246 l 2.013977 1.2731934 l 6.4793396 3.6135254 l 6.657501 2.8095093 l 0.062072754 0.021118164 l 2.2066345 0.7520752 l 7.2369995 2.0302124 l -47.05362 -38.40631 l -0.050048828 -0.13702393 l -1.5227356 -4.1275635 l -1.9797974 -7.201782 l -0.8670654 -4.59021 l -0.73031616 -6.4332275 l 0.0 0.0 l 0.0 -6.1035156e-05 l 3.0517578e-05 -0.00018310547 l 1.2714539 -10.943726 l 4.0661316 -11.646484 l 6.2619934 -10.742859 l 18.333496 -19.973694 l -7.8502502 7.4539185 l 24.781036 -21.021667 l 16.608429 -10.874268 l 20.19571 -11.440186 l 21.630432 -10.795898 l 0.0 0.0 l -3.0517578e-05 6.1035156e-05 l -3.0517578e-05 0.0 l -254.8902 -10.487488 l 6.036682 -19.983093 l -0.22909546 0.62664795 l -9.595062 37.437683 l -2.2923431 15.680298 l -1.6153412 18.846313 l 0.0 0.0 l 0.00010681152 0.0030517578 l 0.016448975 0.4680786 l 0.82969666 23.801575 l 60.11566 -172.76959 l 9.716888 -8.558716 l 12.29776 -9.824493 l -51.33426 55.317047 l -6.7964783 12.391357 l 16.664139 -27.451721 l 8.967102 -11.615234 l 0.0015563965 -0.0020141602 l 0.0 0.0 l -0.0001373291 0.00018310547 l 150.8872 -96.7522 l 5.925934 -2.838623 l 8.921631 -4.258148 l 4.0328674 -1.9195862 l 13.114502 -6.2161255 l 0.121917725 -0.057678223 l 40.78775 -19.526947 l 0.14401245 -0.07009888 l 13.296295 -6.5221252 l 0.10110474 -0.04977417 l -28.346039 13.808228 l 0.0 0.0 l -16.631104 7.946533 l -0.49050903 0.23300171 l 0.0 0.0 l 59.881226 -29.15326 l 0.4987793 -0.24273682 l 0.0 0.0 l 13.021057 -9.243774 l 24.268982 -20.800446 l -7.817932 7.5020447 l 17.090088 -134.89351 l 6.821411 7.604019 l 9.102417 14.741211 l -11.06073 88.870605 l 5.1920166 -7.390564 l 8.069641 -15.324127 l 2.7507324 -7.234619 l 1.086792 -41.682068 l 0.057556152 0.32565308 l 3.0732422 16.037292 l 0.0 0.0 l -0.0008544922 0.011169434 l -0.7201538 9.707855 l -276.2685 198.3244 l 12.919434 -8.625824 l 29.088806 -17.43335 l -11.500824 6.6109924 l 52.033203 -27.909424 l 0.0 0.0 l 0.0004272461 -0.00021362305 l 0.006378174 -0.0030517578 l 9.032623 -4.364044 l 3.279419 -1.5808105 l 0.104156494 -0.050201416 l -31.247314 15.500824 l -42.96927 -132.35477 l 0.0 0.0 l -0.000579834 -0.00024414062 l -0.011444092 -0.0053710938 l -18.103607 -8.394226 l 27.34198 -7.401428 l 0.14019775 -0.2350769 l 4.4171143 -7.411255 l 8.232605 -13.450714 l -79.21048 10.382263 l 18.59555 8.6214905 l 204.9513 -103.14815 l 17.48587 2.813507 l 18.641083 5.7598877 l 13.185364 6.474823 l -72.31711 -16.296173 l 0.0 0.0 l -0.001159668 0.00012207031 l -0.053863525 0.005706787 l -18.659943 2.537323 l -0.27072144 0.048324585 l -12.995758 3.2067108 l -0.010772705 0.0047912598 l -9.293854 3.1824646 l 304.4379 5.3417664 l -10.421875 -21.082748 l -13.618103 -22.460419 l 46.29254 118.30167 l -4.739868 -23.612885 l -7.316101 -25.25029 l -343.7411 -15.744537 l -7.4284363 5.526062 l 25.82129 -16.360352 l -8.209106 4.3492126 l -32.779297 26.818085 l -2.5732727 3.1702423 l 8.838318 -10.349213 l 0.0 0.0 l -0.00024414062 0.00030517578 l -0.0030822754 0.0036010742 l -16.571167 20.649689 l -0.08709717 0.123931885 l -3.4779053 4.9407654 l -7.239929 10.73999 l 336.29764 -126.224594 l -16.488403 -19.01062 l 0.0 0.0 l 0.00079345703 0.00091552734 l -16.027405 -13.274872 l -4.2109985 -3.5179749 l -22.290588 -15.896179 l -21.594543 -13.073959 l -151.73041 -43.378307 l 0.0 0.0 l 3.0517578e-05 3.8146973e-06 l 6.1035156e-05 7.6293945e-06 l 32.99948 3.6622925 l 18.904541 3.2100105 l 32.924194 8.368626 l 17.7052 5.777794 l 25.558716 10.399681 l -175.92471 -28.98658 l -44.362244 7.1141815 l -42.66748 12.275383 l -37.991364 16.301811 l -36.581573 21.769043 l -32.986145 26.066391 l -30.665497 31.347534 l -27.325134 35.55864 l 56.210052 78.257904 l 13.425842 6.223419 l 20.639648 9.567322 l -75.417786 -34.95926 l 17.2473 7.9948425 l -41.808105 -19.379807 l -13.361534 -6.193634 l 75.895744 486.1494 l 3.9394379 21.011108 l 6.205414 22.958984 " /> </g> </svg>