<?xml version="1.0" standalone="no"?><!DOCTYPE svg PUBLIC "-//W3C//DTD SVG 1.1//EN" "http://www.w3.org/Graphics/SVG/1.1/DTD/svg11.dtd" ><svg xmlns="http://www.w3.org/2000/svg" xmlns:xlink="http://www.w3.org/1999/xlink" version="1.1" viewBox="-10 0 692 1000"><g transform="matrix(1 0 0 -1 0 800)"><path stroke="black" fill="none" d="M 142.0 974.0 l 22.5 0.0 l 22.5 0.0 l 22.5 0.0 l 22.5 0.0 l 22.5 0.0 l 22.5 0.0 l 22.5 0.0 l 22.5 0.0 l 22.5 0.0 l 22.5 0.0 l 0.0 -8.700012 l 0.0 -8.700012 l 0.0025939941 -8.700867 l 15.666901 -8.140747 l -15.531982 -7.826294 l -15.016449 -9.00769 l -89.76221 -61.099304 l 0.0 0.0 l 104.63626 42.575928 l -0.004547119 -8.702148 l -56.65811 -9.3776245 l 0.056640625 0.0006713867 l 68.87091 13.268127 l 11.97998 11.7699585 l 11.700012 10.950012 l 9.680511 19.576965 l 12.879486 -0.13696289 l 10.181183 8.284973 l 11.258881 7.875 l 12.512329 -4.413086 l 0.0 0.0 l 7.8075867 17.292969 l 0.0 0.0 l 9.980011 4.750122 l 10.340057 4.249756 l 9.158478 -19.605469 l 12.601379 26.605469 l 11.420105 2.7502441 l 11.779968 2.25 l 12.140015 1.75 l 12.5 1.25 l 12.859985 0.75 l 0.0 0.0 l -27.389954 -52.96106 l 0.0 0.0 l 63.309998 50.641113 l 18.199951 -2.9000244 l 18.360046 -4.0599976 l 18.519958 -5.2200317 l 18.680054 -6.380005 l 18.839966 -7.539978 l 19.0 -8.700012 l 19.160034 -9.859985 l -10.300049 -20.599976 l -10.299988 -20.600037 l -80.76721 -9.062134 l 0.0 0.0 l 60.167236 -32.13788 l -17.936768 -11.895508 l 26.77008 -48.53955 l 0.0 0.0 l -35.363403 -12.791748 l -16.169006 -13.033997 l -16.169006 -13.033936 l 96.476135 -340.25235 l 0.0 0.0 l -71.14935 100.10281 l 0.0 0.0 l -41.028687 224.58423 l -7.9299927 7.381653 l -29.841675 -15.587524 l 0.0 0.0 l -0.17834473 28.905945 l -12.530029 5.0599976 l -12.469971 4.1400146 l -12.410034 3.2197876 l 3.67865 -54.75177 l 0.0 0.0 l -70.16974 45.776733 l 0.0 0.0 l 0.48461914 -0.074401855 l 65.45892 -179.07025 l 0.0 0.0 l -88.43323 190.55939 l 0.0 0.0 l -44.868256 9.621155 l 0.0 0.0 l -40.66739 -23.429993 l 0.0 0.0 l -15.063599 -37.715393 l 0.0 0.0 l 14.316101 -37.56488 l 0.0 0.0 l 40.14627 -34.37372 l 0.0 0.0 l -66.16232 -53.216675 l -126.44321 -17.005676 l 0.0 0.0 l 59.42569 -78.680786 l 0.0 0.0 l 205.10828 -111.91562 l 0.0 0.0 l 78.33258 -84.35895 l 0.0 0.0 l -159.02142 123.1702 l 0.0 0.0 l -94.352295 -116.71866 l 0.0 0.0 l 136.18991 -106.89308 l 0.0 0.0 l 292.42502 42.98204 l 0.0 0.0 l -381.72034 10.094971 l 0.0 0.0 l -15.464203 -162.43443 l 305.12814 13.695717 l 0.0 0.0 l -167.7294 -68.795204 l 0.0 0.0 l -133.03189 6.123642 l 0.0 0.0 l -68.23233 18.020287 l -57.421646 43.979004 l 0.0 0.0 l 8.787109 -63.52344 l -22.5 0.0 l -22.5 0.0 l -22.5 0.0 l -22.5 0.0 l -22.499992 0.0 l 37.95925 131.07828 l 0.0 0.0 l -8.512039 60.66339 l 0.0 0.0 l -29.447212 100.45833 l 0.0 97.400024 l 0.0 97.39996 l 0.0 97.400024 l 0.0 97.400024 l 97.13912 30.054321 l 0.0 0.0 l -97.13912 164.74567 l 0.0 97.400024 " /> </g> </svg>