<?xml version="1.0" standalone="no"?><!DOCTYPE svg PUBLIC "-//W3C//DTD SVG 1.1//EN" "http://www.w3.org/Graphics/SVG/1.1/DTD/svg11.dtd" ><svg xmlns="http://www.w3.org/2000/svg" xmlns:xlink="http://www.w3.org/1999/xlink" version="1.1" viewBox="-10 0 692 1000"><g transform="matrix(1 0 0 -1 0 800)"><path stroke="black" fill="none" d="M 388.99692 939.9842 l -21.42685 -7.5004883 l -26.122925 -11.696594 l 0.35629272 0.18988037 l -118.78998 -122.1109 l -0.094451904 -0.19744873 l 21.655685 39.640198 l 0.0 0.0 l 47.1837 50.986206 l -0.36090088 -0.26019287 l -22.039062 -18.565613 l 0.0 0.0 l 142.99707 75.009155 l 23.462341 4.493042 l 24.234344 2.4904175 l 0.0 0.0 l -3.0517578e-05 0.00012207031 l 0.0 0.00012207031 l 36.496338 -1.1080933 l 87.142395 -25.534729 l -44.289368 16.410217 l -0.7088623 0.21154785 l 105.39685 -54.76581 l -17.055725 13.44928 l 48.05127 -43.549744 l 26.218445 -35.091797 l 0.012878418 -0.023742676 l 9.520508 -17.128357 l 0.0 0.0 l -35.18756 -14.700439 l -0.29101562 -0.15759277 l -22.711304 -12.021545 l -18.39148 -10.168823 l 92.854065 -318.90067 l 0.0 0.0 l -2.2017822 4.074127 l 20.989197 -66.279236 l 0.0 0.0 l 3.1777344 -52.590576 l 0.0 0.0 l -50.780396 160.63821 l 0.0 0.0 l -36.99353 32.870453 l 0.0 0.0 l -42.557983 28.323975 l 0.0 0.0 l 0.5038452 -0.31591797 l -4.022827 202.42682 l -22.657715 -12.126038 l -10.934326 -5.8410034 l -60.262146 -29.286804 l 0.5319824 -1.1740723 l 0.0 0.0 l 32.98993 16.252686 l 0.25317383 0.13256836 l -79.987366 48.190613 l 6.3743896 -5.876526 l 20.030487 -24.101196 l 0.0 0.0 l 19.259369 -136.34009 l 1.0183716 -0.47155762 l 56.583923 -28.458862 l 0.49194336 -0.25830078 l -126.57373 210.6831 l 8.363586 -4.5514526 l 0.009857178 -0.005126953 l -26.864166 10.846313 l -0.01727295 0.0026855469 l -10.520294 1.7891235 l 0.0 0.0 l -2.6019897 -0.04559326 l 0.0 0.0 l -52.865997 -27.926697 l 0.0 0.0 l 8.475586 10.111328 l 0.0 0.0 l 12.667206 8.608032 l 0.0 0.0 l 16.34198 6.650757 l 0.0 0.0 l -46.769287 -45.637695 l 0.0 0.0 l -1.4543457 -5.9295654 l 0.0 0.0 l -0.93548584 -10.82074 l 0.0 0.0 l 0.03463745 -0.29333496 l 10.095215 -28.565186 l 0.07861328 -0.1395874 l 8.373077 -10.789856 l 30.504456 -26.262573 l 0.0 0.0 l 5.295868 -3.281128 l 47.188843 -26.57727 l 2.0371704 -1.022583 l 0.0 0.0 l -251.63074 -17.154358 l 0.0 0.0 l 0.7725525 -2.480774 l -8.914825 46.00598 l 0.0 0.0 l -0.7035675 31.963379 l 0.0 0.0 l 72.13875 -175.66162 l 0.0 0.0 l 2.0757446 -1.5803223 l -46.725662 55.694336 l 0.0 0.0 l 19.578323 -29.759705 l 0.0 0.0 l 163.8342 -105.49997 l 0.0 0.0 l 11.553192 -5.4977417 l 0.0 0.0 l 17.62976 -8.34494 l 0.0 0.0 l 42.44278 -20.499939 l 0.0 0.0 l 73.60275 -155.90686 l 5.8113403 7.3201447 l 0.0 0.0 l -8.489014 90.94179 l 0.0 0.0 l 19.911438 -50.497437 l 0.0 0.0 l -258.40454 193.16794 l 0.0 0.0 l 15.174774 -8.81366 l 49.139954 -26.621307 l 0.0 0.0 l -10.339142 5.242859 l -55.109955 -130.52005 l 0.0 0.0 l 20.768616 -27.428253 l 0.0 0.0 l -59.74875 9.909943 l 0.34735107 0.17428589 l 229.26498 -97.34758 l 0.0 0.0 l 22.615692 8.776245 l 0.0 0.0 l -77.83597 -12.464935 l 0.0 0.0 l -24.397339 5.924713 l 0.0 0.0 l 286.42032 -17.641388 l 0.0 0.0 l -5.1463623 -7.778137 l 34.061157 79.50523 l 0.0 0.0 l -3.0618286 -9.349426 l -348.22516 -25.938843 l 0.0 0.0 l 8.958252 -6.309952 l 0.0 0.0 l -26.585327 21.088425 l 0.0 0.0 l -21.303802 28.365662 l 0.0 0.0 l 315.78598 -140.86398 l 0.0 0.0 l -12.915527 -10.6577 l 0.0 0.0 l -44.89453 -31.293488 l -0.3001709 -0.18675995 l -154.22241 -46.345497 l 0.0 0.0 l 37.40152 5.014221 l 66.70944 17.757202 l 13.221802 5.1732483 l 0.0 0.0 l -178.04901 -24.19802 l -30.869995 4.9486084 l -74.384186 24.89975 l -1.1716003 0.5110092 l -52.17607 30.997467 l -21.972412 17.390076 l -40.57904 42.11592 l -18.60057 24.25415 l 73.09064 91.02365 l 8.088333 3.7492676 l 0.0 0.0 l -58.742706 -27.229706 l 0.0 0.0 l -35.990723 -16.683182 l 67.052704 498.07843 l 0.0 0.0 l 6.21933 24.254272 l -0.0020751953 -0.0079956055 " /> </g> </svg>