<?xml version="1.0" standalone="no"?><!DOCTYPE svg PUBLIC "-//W3C//DTD SVG 1.1//EN" "http://www.w3.org/Graphics/SVG/1.1/DTD/svg11.dtd" ><svg xmlns="http://www.w3.org/2000/svg" xmlns:xlink="http://www.w3.org/1999/xlink" version="1.1" viewBox="-10 0 692 1000"><g transform="matrix(1 0 0 -1 0 800)"><path stroke="black" fill="none" d="M 548.9992 764.0 l -17.495056 0.0 l -34.99936 0.0 l 17.495087 0.0 l -34.997803 6.1035156e-05 l -17.502838 -6.1035156e-05 l -17.495056 0.0 l -70.00217 0.0 l 0.0 0.0 l 0.0 0.0 l 0.0 0.0 l 17.49176 0.0 l 17.511108 0.0 l 17.494934 0.0 l -52.49817 -76.39923 l 0.00036621094 -76.399536 l -22.493774 -611.20056 l 22.483185 0.00034804386 l -67.47891 -0.0010444667 l 22.481445 -2.3156645e-08 l -45.002625 4.5387424e-08 l -22.482025 -2.9813236e-08 l 112.48187 76.398605 l -224.97798 -76.398605 l 22.482712 -1.1436168e-07 l 67.46852 -1.8044648e-07 l -22.447403 -6.0435923e-09 l -22.507736 1.764638e-07 l -45.007004 76.39941 l 0.00016784668 76.40078 l -0.0005340576 76.40013 l 0.00010681152 76.41002 l 0.0 76.38614 l 224.99931 -76.396515 l 0.00061035156 -76.39909 l 9.1552734e-05 -76.39961 l 0.000579834 305.59827 l -0.000579834 -76.398315 l -0.0002746582 152.79764 l -224.99973 -0.009155273 l -1.5258789e-05 -76.38605 l 0.0030670166 152.79712 l -0.0023040771 76.39905 l -96.00078 139.2901 l 0.0 -20.782104 l 0.0 41.87018 l 0.0 21.069641 l 0.0 21.065674 l 0.0 20.837341 l 0.0015182495 -125.98523 l -0.0004081726 -20.949768 l 38.991325 -0.015625 l 8.640541 0.0 l -18.724487 0.0 l -9.88607 0.0 l -9.29948 0.0 l 57.296917 0.0 l -9.307411 0.0 l 36.261375 0.0 l -6.8636627 0.0 l -10.22937 0.0 l -76.69382 210.0 l 9.31855 0.0 l 9.871826 0.0 l 9.298576 0.0 l 9.777634 0.0 l 9.503685 0.0 l -47.957077 -21.002502 l -0.00011444092 -20.982239 l 95.999756 77.74768 l 0.00018310547 35.824585 l 0.0 35.449707 l -19.060654 -107.03723 l 9.302063 0.0 l 9.722961 0.0 l -38.30999 0.0 l 9.506851 0.0 l 28.838783 178.48853 l 0.0 -35.67334 l 0.0 71.443115 l 0.0 35.625732 l 0.0 35.704712 l 0.002960205 35.717896 l 0.016830444 35.69336 l 22.452286 0.0 l 44.907425 0.0 l -22.327148 0.0 l 44.91716 0.0 l 22.552612 0.0 l 22.447113 0.0 l 89.99536 0.0 l -22.397644 0.0 l -22.687744 0.0 l -22.328278 0.0 l 67.44888 -71.382324 l 3.0517578e-05 35.67688 l 0.00015258789 -142.77234 l 0.0 35.73401 l 0.0 35.62329 l 0.0 -107.08923 l 0.0 -35.878662 l 0.0 -35.451294 l 0.00091552734 -71.40399 l -0.00015258789 35.62372 l 17.595428 -35.680054 l 17.359314 0.0 l 17.531525 0.0 l 87.52127 0.0 l 17.484741 0.0 l -52.464447 0.0 l 17.45398 0.0 l -34.989807 0.0 l -17.485352 0.0 l 104.99246 -20.996948 l 6.1035156e-05 20.99469 l 6.1035156e-05 -63.010498 l 0.0 -20.977417 l 0.0 41.988403 l 0.0 -146.96307 l 0.0 20.949646 l 0.0 21.008057 l 0.0 21.016968 l 0.0 20.98236 " /> </g> </svg>