<?xml version="1.0" standalone="no"?><!DOCTYPE svg PUBLIC "-//W3C//DTD SVG 1.1//EN" "http://www.w3.org/Graphics/SVG/1.1/DTD/svg11.dtd" ><svg xmlns="http://www.w3.org/2000/svg" xmlns:xlink="http://www.w3.org/1999/xlink" version="1.1" viewBox="-10 0 692 1000"><g transform="matrix(1 0 0 -1 0 800)"><path stroke="black" fill="none" d="M 708.0 808.0 l -18.599976 -9.900024 l -18.600037 -9.899963 l -18.599976 -9.900024 l -18.600037 -9.899963 l -18.599976 -9.900024 l -18.599976 -9.900024 l -18.600037 -9.899963 l -40.91809 25.689392 l 0.0 0.0 l 3.7180786 -45.48938 l -18.599976 -9.900024 l 0.0 0.0 l -9.01001 17.099976 l -9.429993 15.300049 l 5.075012 21.819336 l 0.0 0.0 l -28.334564 1.5421753 l -7.5505066 11.738464 l -23.612305 -10.732788 l 0.0 0.0 l 0.9723816 25.132751 l -11.950012 4.500061 l -12.369995 2.6999512 l 0.0 0.0 l -6.110016 -0.20495605 l -5.9299927 -0.61499023 l -5.75 -1.0250244 l -5.5700073 -1.4349976 l -5.389984 -1.8450317 l -5.210022 -2.2549438 l -5.029999 -2.665039 l -4.850006 -3.0750122 l -4.669983 -3.4849854 l 0.0 0.0 l -4.1799927 -4.215088 l -3.729004 -4.4657593 l 2.3172913 -7.5999756 l 47.66562 -1.2196655 l 0.0 0.0 l -58.541718 -5.8602295 l -2.012085 -5.3792114 l -1.5401001 -5.5950317 l -1.1000061 -5.825012 l -0.66000366 -6.0549927 l 0.0 0.0 l 1.2999878 -11.190002 l 3.899994 -11.170044 l 6.5 -11.149963 l 6.9973145 -67.93219 l 0.0 0.0 l 13.802704 45.6922 l 14.299988 -11.090027 l 16.899994 -11.070007 l 19.5 -11.049988 l 22.100006 -11.030029 l 0.0 0.0 l 34.630005 -15.279968 l 32.289978 -15.039978 l 29.950012 -14.800049 l 27.610046 -14.559998 l 25.269958 -14.320007 l 22.929993 -14.079956 l 20.590027 -13.840027 l 18.25 -13.599976 l 15.909973 -13.360016 l 0.0 0.0 l 11.780029 -13.450012 l 10.539978 -14.349976 l 9.299988 -15.25 l 8.059998 -16.150024 l 6.8200073 -17.049988 l 5.580017 -17.950012 l 4.340027 -18.849976 l 3.0999756 -19.75 l 1.8599854 -20.650024 l 0.0 0.0 l -1.039978 -27.73999 l -3.119995 -26.820007 l -5.200012 -25.899994 l -7.2799683 -24.979996 l -9.360046 -24.059998 l -11.440002 -23.14 l -13.5199585 -22.220001 l -15.600037 -21.300003 l -17.679993 -20.37999 l 0.0 0.0 l -20.619995 -17.100006 l -21.460022 -15.299995 l -22.299988 -13.5 l -23.140015 -11.700005 l -23.97998 -9.899994 l -24.820007 -8.100002 l -25.659973 -6.300003 l -26.5 -4.5 l -27.339996 -2.699997 l 0.0 0.0 l -67.35486 21.262661 l -101.59485 -68.46008 l 0.0 0.0 l 34.819702 68.70742 l -108.72449 -68.6456 l 0.0 0.0 l 33.604477 106.8856 l -86.32181 -41.606583 l 0.0 0.0 l 3.1115265 90.74292 l -8.019714 44.07367 l -24.690002 40.62999 l 23.032516 -5.673477 l 2.7696228 120.36391 l 0.0 0.0 l 31.797867 -87.99042 l 19.199997 8.899994 l 19.199997 8.899994 l 19.199997 8.899994 l 19.199997 8.900024 l 19.200012 8.899994 l 19.200012 8.899994 l 19.199982 8.899994 l 0.0 0.0 l 7.810028 -13.48999 l 37.397156 -11.303314 l -22.917145 -12.616699 l 6.6699524 -10.429993 l 6.2900085 -9.410004 l 5.9100037 -8.389984 l 5.529999 -7.3700256 l 5.149994 -6.349991 l 4.7700195 -5.330246 l 0.0 0.0 l 1.6405029 -69.28781 l 0.0 0.0 l 15.399261 55.607986 l 9.000214 -5.6999207 l 9.320007 -4.9400024 l 9.640015 -4.180008 l 9.959991 -3.4199982 l 10.279999 -2.6600037 l 10.600006 -1.8999939 l 10.919983 -1.1399994 l 0.0 0.0 l 21.660004 1.0399933 l 19.380005 3.1200104 l 17.100006 5.199997 l 14.820007 7.279999 l 12.539978 9.360001 l 10.26001 11.440002 l 7.9799805 13.519989 l 5.700012 15.600006 l 3.419983 17.679993 l 0.0 0.0 l -0.8800049 11.920013 l -2.6399536 11.76001 l -4.4000244 11.599976 l -6.159973 11.440002 l -7.920044 11.279999 l -9.679993 11.119995 l -11.440002 10.960022 l -13.199951 10.799988 l -14.960022 10.640015 l 0.0 0.0 l -6.8000183 3.3899841 l -6.799988 3.369995 l -6.799988 3.350006 l -6.8000183 3.330017 l -6.799988 3.3099976 l -6.8000183 3.289978 l -6.799988 3.2700195 l -6.799988 3.25 l -6.8000183 3.2299805 l 0.0 0.0 l -6.8099976 3.210022 l -6.8299866 3.2299805 l -6.850006 3.25 l -6.869995 3.2700195 l -6.8900146 3.289978 l -6.9100037 3.3099976 l -6.9299927 3.330017 l -6.95343 3.3525696 l -10.728088 -45.18643 l -0.004211426 -0.31411743 l -4.718384 109.690796 l -28.395874 -41.622803 l -16.700012 9.599976 l -15.540009 9.600006 l -14.380005 9.600006 l -13.220001 9.600006 l -12.059998 9.600006 l -10.899994 9.599976 l -9.73999 9.600037 l 0.0 0.0 l -9.690002 12.549988 l -8.669998 13.25 l -7.650009 13.950012 l -6.6299896 14.649963 l -65.51601 -106.28641 l 0.0 0.0 l 55.315994 137.68643 l -3.569992 16.75 l -2.550003 17.450012 l -36.326736 25.426086 l 0.03479004 -0.0072631836 l 35.631943 17.691162 l 2.6100006 24.080017 l 4.350006 23.199951 l -86.47351 15.942505 l 0.0 0.0 l 100.39351 27.817505 l 9.570007 20.559998 l 11.309998 19.679993 l 13.050003 18.800049 l -112.73764 196.9743 l 0.0 0.0 l 7.74794 176.91357 l 0.0 0.0 l 137.9597 -340.19788 l 18.940002 14.109985 l 19.699982 12.450012 l 20.460022 10.789978 l -125.495804 406.9756 l 0.0 0.0 l 153.56847 -91.13037 l 0.0 0.0 l 0.14007568 -214.6997 l 0.0 0.0 l 41.238037 -51.13983 l 0.0 0.0 l 70.680084 -1.2452393 l 0.0 0.0 l -0.40704346 -0.0769043 l 55.93567 1.7536011 l 0.0 0.0 l 5.803772 -36.38672 l 0.0 0.0 l 1.5856934 -120.41632 l 0.0 0.0 l 44.891052 104.53589 l 28.76001 -17.369995 l 26.839966 -21.22998 l 24.919983 -25.090027 l 23.0 -28.950012 l 21.080017 -32.809998 " /> </g> </svg>