<?xml version="1.0" standalone="no"?><!DOCTYPE svg PUBLIC "-//W3C//DTD SVG 1.1//EN" "http://www.w3.org/Graphics/SVG/1.1/DTD/svg11.dtd" ><svg xmlns="http://www.w3.org/2000/svg" xmlns:xlink="http://www.w3.org/1999/xlink" version="1.1" viewBox="-10 0 692 1000"><g transform="matrix(1 0 0 -1 0 800)"><path stroke="black" fill="none" d="M 547.7083 764.00287 l -9.66272 -0.005554199 l -34.021637 -0.02368164 l 9.669128 0.010986328 l -31.463104 0.073791504 l -21.991028 -0.020996094 l -9.708374 -0.024963379 l -69.723114 -0.018554688 l 0.0 0.0 l 1.1413879 0.00018310547 l 34.7193 -0.0010986328 l 9.454956 6.1035156e-05 l -49.588043 -75.18439 l 0.60028076 -75.67352 l 0.0013122559 0.15234375 l -17.27533 -611.7892 l 0.0 0.0 l 0.49331665 0.14925098 l -34.131073 -1.6543937 l 0.27236938 -3.4540572e-06 l -56.31186 3.8663085e-05 l -0.34951782 -6.8541267e-06 l 90.12616 74.1827 l -190.13156 -74.182304 l 0.4656067 -4.6508037e-05 l 46.175705 -0.00034670028 l 0.0 0.0 l -7.83107 0.00019618211 l -56.093933 75.46149 l 0.019195557 -0.042182922 l 0.24772644 77.672615 l -0.8301697 76.625626 l 0.16972351 92.27591 l -0.004333496 54.378326 l 223.90594 -70.81354 l 0.97821045 -74.98427 l 0.14071655 -75.78987 l 0.004333496 0.15866089 l 0.8926697 302.68423 l -0.7644348 -64.06546 l -0.15625 -9.683777 l -0.40478516 149.1018 l -224.58203 -14.536072 l -0.0055389404 -54.30893 l 4.8397675 148.24557 l -3.6413422 74.961 l -97.23584 146.7821 l 0.0 0.0 l -0.00060653687 67.31677 l 0.0 0.0 l 7.2329063 -137.4403 l 0.0 0.0 l 66.254684 0.0 l 0.0 0.0 l -29.519035 209.9414 l 0.0 0.0 l -43.038185 -34.07184 l 0.0 0.0 l 94.23571 125.3244 l 0.0 0.0 l -22.264618 -91.1369 l 0.0 0.0 l 23.098389 167.12848 l 0.0 0.0 l -1.5258789e-05 -0.48779297 l 0.00015258789 87.72644 l 0.0 0.0 l -1.5258789e-05 13.42395 l 4.6827087 63.850708 l 0.0 0.0 l 39.327896 25.160767 l 0.0 0.0 l 71.50629 0.14025879 l 0.0 0.0 l 31.681732 0.0 l 0.0 0.0 l 65.801025 -0.064453125 l 0.0 0.0 l -16.009827 -0.06628418 l 27.711731 -43.299683 l 0.043945312 1.1763916 l 0.25463867 -100.96704 l -9.1552734e-05 24.46582 l 0.0 0.0 l -3.0517578e-05 -110.91443 l 0.0 0.0 l 0.0 -40.41504 l 4.2934265 -61.67206 l 0.0 0.0 l 33.815857 -25.244385 l 0.43252563 -0.00018310547 l 114.446655 -0.0065307617 l 0.17529297 0.00024414062 l -33.67627 0.0045776367 l 0.0 0.0 l -37.78073 0.0020141602 l 0.0 0.0 l -0.2006836 -6.1035156e-05 l 93.29776 -16.177979 l 0.097473145 12.614563 l 0.09094238 -74.34326 l 0.0 -0.055236816 l -0.004699707 33.134094 l 0.012451172 -120.245605 l 0.0 0.0 l 0.0 6.74646 l 0.0 47.82538 l 0.0 0.23474121 " /> </g> </svg>