<?xml version="1.0" standalone="no"?><!DOCTYPE svg PUBLIC "-//W3C//DTD SVG 1.1//EN" "http://www.w3.org/Graphics/SVG/1.1/DTD/svg11.dtd" ><svg xmlns="http://www.w3.org/2000/svg" xmlns:xlink="http://www.w3.org/1999/xlink" version="1.1" viewBox="-10 0 692 1000"><g transform="matrix(1 0 0 -1 0 800)"><path stroke="black" fill="none" d="M 708.0 808.0 l -18.599976 -9.900024 l -18.600037 -9.899963 l -18.599976 -9.900024 l -18.600037 -9.899963 l -18.599976 -9.900024 l -18.599976 -9.900024 l -18.600037 -9.899963 l -42.074097 25.334534 l -0.14294434 -0.0010375977 l 5.017029 -45.133484 l -18.599976 -9.900024 l 0.0 0.0 l -9.01001 17.099976 l -9.429993 15.300049 l 6.2150574 22.5307 l 0.14343262 0.0021362305 l -30.537598 0.29016113 l -6.630951 12.276978 l -24.541473 -12.343079 l -0.1465149 -0.0048828125 l 2.0480652 26.747925 l -11.950012 4.500061 l -12.369995 2.6999512 l 0.0 0.0 l -6.110016 -0.20495605 l -5.9299927 -0.61499023 l -5.75 -1.0250244 l -5.5700073 -1.4349976 l -5.389984 -1.8450317 l -5.210022 -2.2549438 l -5.029999 -2.665039 l -4.850006 -3.0750122 l -4.669983 -3.4849854 l 0.0 0.0 l -4.1799927 -4.215088 l -3.7286682 -4.4661865 l 8.194946 -8.783203 l 0.0 0.0 l 44.570374 -0.03100586 l 0.12857056 0.0 l -61.453033 -5.8652344 l -2.012085 -5.3792114 l -1.5401001 -5.5950317 l -1.1000061 -5.825012 l -0.66000366 -6.0549927 l 0.0 0.0 l 1.2999878 -11.190002 l 3.899994 -11.170044 l 11.30835 -21.169678 l 2.049469 -73.91986 l 0.00015258789 0.01977539 l 13.942047 61.67981 l 14.299988 -11.090027 l 16.899994 -11.070007 l 19.5 -11.049988 l 22.100006 -11.030029 l 0.0 0.0 l 34.630005 -15.279968 l 32.289978 -15.039978 l 29.950012 -14.800049 l 27.610046 -14.559998 l 25.269958 -14.320007 l 22.929993 -14.079956 l 20.590027 -13.840027 l 18.25 -13.599976 l 15.909973 -13.360016 l 0.0 0.0 l 11.780029 -13.450012 l 10.539978 -14.349976 l 9.299988 -15.25 l 8.059998 -16.150024 l 6.8200073 -17.049988 l 5.580017 -17.950012 l 4.340027 -18.849976 l 3.0999756 -19.75 l 1.8599854 -20.650024 l 0.0 0.0 l -1.039978 -27.73999 l -3.119995 -26.820007 l -5.200012 -25.899994 l -7.2799683 -24.979996 l -9.360046 -24.059998 l -11.440002 -23.14 l -13.5199585 -22.220001 l -15.600037 -21.300003 l -17.679993 -20.37999 l 0.0 0.0 l -20.619995 -17.100006 l -21.460022 -15.299995 l -22.299988 -13.5 l -23.140015 -11.700005 l -23.97998 -9.899994 l -24.820007 -8.100002 l -25.659973 -6.300003 l -26.5 -4.5 l -27.339996 -2.699997 l 0.0 0.0 l -91.254 -29.773842 l 0.0 0.0 l -40.558014 -17.54527 l 0.0 0.0 l -49.695312 0.00036943378 l 0.0 0.0 l 47.37732 68.82874 l -140.097 -68.82471 l 0.0 0.0 l 31.537369 -0.0013875626 l 0.0 0.0 l 33.43962 107.066086 l -89.84192 -33.87327 l 0.004333496 -0.009536743 l 0.90701294 80.61048 l -2.2994232 46.48233 l -24.690002 40.62999 l 24.15503 -9.941956 l 0.5794983 130.60373 l -0.012817383 2.353302 l 32.878296 -96.31506 l 19.199997 8.899994 l 19.199997 8.899994 l 19.199997 8.899994 l 19.199997 8.900024 l 19.200012 8.899994 l 19.200012 8.899994 l 19.199982 8.899994 l 0.0 0.0 l 7.810028 -13.48999 l 46.174347 -10.961578 l -31.694336 -12.958435 l 6.6699524 -10.429993 l 6.2900085 -9.410004 l 5.9100037 -8.389984 l 5.529999 -7.3700256 l 5.1506042 -6.352188 l 5.4835815 -16.655746 l -0.00088500977 0.013977051 l 0.48135376 -74.33086 l 0.0005493164 0.020187378 l 15.844574 71.944565 l 9.000214 -5.6999207 l 9.320007 -4.9400024 l 9.640015 -4.180008 l 9.959991 -3.4199982 l 10.279999 -2.6600037 l 10.600006 -1.8999939 l 10.919983 -1.1399994 l 0.0 0.0 l 21.660004 1.0399933 l 19.380005 3.1200104 l 17.100006 5.199997 l 14.820007 7.279999 l 12.539978 9.360001 l 10.26001 11.440002 l 7.9799805 13.519989 l 5.700012 15.600006 l 3.419983 17.679993 l 0.0 0.0 l -0.8800049 11.920013 l -2.6399536 11.76001 l -4.4000244 11.599976 l -6.159973 11.440002 l -7.920044 11.279999 l -9.679993 11.119995 l -11.440002 10.960022 l -13.199951 10.799988 l -14.960022 10.640015 l 0.0 0.0 l -6.8000183 3.3899841 l -6.799988 3.369995 l -6.799988 3.350006 l -6.8000183 3.330017 l -6.799988 3.3099976 l -6.8000183 3.289978 l -6.799988 3.2700195 l -6.799988 3.25 l -6.8000183 3.2299805 l 0.0 0.0 l -6.8099976 3.210022 l -6.8299866 3.2299805 l -6.850006 3.25 l -6.869995 3.2700195 l -6.8900146 3.289978 l -6.9100037 3.3099976 l -6.930908 3.330658 l -14.791901 9.72113 l -3.0604858 -62.196777 l -0.08294678 -5.1529846 l -1.3819885 140.17361 l -31.48175 -56.62561 l -16.700012 9.599976 l -15.540009 9.600006 l -14.380005 9.600006 l -13.220001 9.600006 l -12.059998 9.600006 l -10.899994 9.599976 l -9.73999 9.600037 l 0.0 0.0 l -9.690002 12.549988 l -8.669998 13.25 l -7.650009 13.950012 l -6.6299896 14.649963 l -66.911224 -114.60358 l -0.015930176 -2.2686462 l 16.521042 138.54245 l 36.63611 26.479797 l -2.550003 17.450012 l -46.518463 27.55719 l 0.4608307 -0.09631348 l 45.39763 15.649109 l 2.6100006 24.080017 l 4.350006 23.199951 l -153.01454 114.02197 l 0.0 0.0 l 67.34857 -99.56952 l 0.0 0.0 l 99.58597 29.307556 l 9.570007 20.559998 l 11.309998 19.679993 l 13.050003 18.800049 l -197.11014 87.60791 l 0.0 0.0 l 71.04567 38.39319 l 0.0 0.0 l 21.17279 128.44464 l 0.0 0.0 l 0.001449585 120.51221 l 0.0 0.0 l 137.86023 -341.26794 l 18.940002 14.109985 l 19.699982 12.450012 l 20.460022 10.789978 l -163.37978 400.21582 l 0.0 0.0 l 80.314865 7.3895264 l 0.0 0.0 l 52.940216 -2.2473145 l 0.0 0.0 l 55.20865 -23.82898 l 0.0 0.0 l 2.957306 -78.52661 l 0.0 0.0 l -0.0011291504 -200.42712 l 0.0 0.0 l 26.627106 -51.990295 l 2.7894592 0.00970459 l 0.0 0.0 l 119.751434 -0.074401855 l 0.0 0.0 l -19.535858 0.052612305 l -67.41458 0.02355957 l 0.0 0.0 l 112.11139 -4.6106567 l 0.035888672 0.26538086 l 0.545105 -59.963745 l 0.0 0.0 l 0.04736328 12.663574 l 0.04260254 -109.409424 l 0.0 0.0 l 0.00018310547 45.32013 l 0.0 0.0 l 44.89978 63.308228 l 28.76001 -17.369995 l 26.839966 -21.22998 l 24.919983 -25.090027 l 23.0 -28.950012 l 21.080017 -32.809998 " /> </g> </svg>