<?xml version="1.0" standalone="no"?><!DOCTYPE svg PUBLIC "-//W3C//DTD SVG 1.1//EN" "http://www.w3.org/Graphics/SVG/1.1/DTD/svg11.dtd" ><svg xmlns="http://www.w3.org/2000/svg" xmlns:xlink="http://www.w3.org/1999/xlink" version="1.1" viewBox="-10 0 692 1000"><g transform="matrix(1 0 0 -1 0 800)"><path stroke="black" fill="none" d="M 548.9992 764.0 l -17.498596 0.0 l -34.999786 0.0 l 17.498566 0.0 l -34.99936 0.0 l -17.500854 0.0 l -17.498535 0.0 l -70.00064 0.0 l 0.0 0.0 l 0.0 0.0 l 0.0 0.0 l 17.49759 0.0 l 17.503265 0.0 l 17.498505 0.0 l -52.49948 -76.39978 l 0.00012207031 -76.39984 l -22.498169 -611.2002 l 22.495056 0.00010193972 l -67.493805 -0.00030591726 l 22.494568 -6.782102e-09 l -45.000793 1.3294084e-08 l -22.49472 -8.732968e-09 l 112.49469 76.39959 l -224.99355 -76.39959 l 22.494934 -3.349578e-08 l 67.49078 -5.2851647e-08 l -22.484604 -1.7707862e-09 l -22.502258 5.1685674e-08 l -45.00206 76.399826 l 4.5776367e-05 76.40024 l -0.00015258789 76.400024 l 3.0517578e-05 76.40292 l 0.0 76.395966 l 224.99982 -76.39899 l 0.00015258789 -76.399734 l 3.0517578e-05 -76.39989 l 0.00018310547 305.5995 l -0.00018310547 -76.399506 l -6.1035156e-05 152.79929 l -224.99992 -0.0026245117 l -1.5258789e-05 -76.395935 l 0.00090026855 152.7992 l -0.0006713867 76.39966 l -96.00023 139.36786 l 0.0 -20.936218 l 0.0 41.961975 l 0.0 21.020386 l 0.0 21.019287 l 0.0 20.952332 l 0.00044631958 -125.99567 l -0.00012207031 -20.98529 l 38.573196 -0.0045776367 l 9.318985 0.0 l -19.06073 0.0 l -9.6837845 0.0 l -9.511982 0.0 l 57.511227 0.0 l -9.5142975 0.0 l 37.773605 0.0 l -8.798538 0.0 l -9.784332 0.0 l -76.768906 210.0 l 9.517567 0.0 l 9.679611 0.0 l 9.511719 0.0 l 9.652023 0.0 l 9.571793 0.0 l -47.987427 -21.000732 l -3.4332275e-05 -20.994812 l 95.99992 77.71399 l 6.1035156e-05 35.73651 l 0.0 35.626587 l -19.159195 -107.08154 l 9.512741 0.0 l 9.636017 0.0 l -38.373642 0.0 l 9.572716 0.0 l 28.811363 178.49658 l 0.0 -35.69214 l 0.0 71.4126 l 0.0 35.678345 l 0.0 35.701294 l 0.000869751 35.705322 l 0.004928589 35.697998 l 22.486023 0.0 l 44.972885 0.0 l -22.449371 0.0 l 44.97574 0.0 l 22.515396 0.0 l 22.484528 0.0 l 89.99863 0.0 l -22.470001 0.0 l -22.554993 0.0 l -22.449707 0.0 l 67.485016 -71.3949 l 3.0517578e-05 35.69336 l 3.0517578e-05 -142.79199 l 0.0 35.70996 l 0.0 35.677612 l 0.0 -107.0968 l 0.0 -35.75244 l 0.0 -35.627075 l 0.0002746582 -71.401245 l -6.1035156e-05 35.677673 l 17.527954 -35.694153 l 17.458801 0.0 l 17.509247 0.0 l 87.506226 0.0 l 17.495544 0.0 l -52.489624 0.0 l 17.486542 0.0 l -34.99701 0.0 l -17.495728 0.0 l 104.99777 -20.999084 l 6.1035156e-05 20.998413 l 0.0 -63.00305 l 0.0 -20.993408 l 0.0 41.996643 l 0.0 -146.9892 l 0.0 20.98523 l 0.0 21.00238 l 0.0 21.004944 l 0.0 20.994873 " /> </g> </svg>