<?xml version="1.0" standalone="no"?><!DOCTYPE svg PUBLIC "-//W3C//DTD SVG 1.1//EN" "http://www.w3.org/Graphics/SVG/1.1/DTD/svg11.dtd" ><svg xmlns="http://www.w3.org/2000/svg" xmlns:xlink="http://www.w3.org/1999/xlink" version="1.1" viewBox="-10 0 692 1000"><g transform="matrix(1 0 0 -1 0 800)"><path stroke="black" fill="none" d="M 548.9675 764.00006 l -17.3031 -0.00012207031 l -34.975433 -0.00061035156 l 17.303253 0.00024414062 l -34.911133 0.0018920898 l -17.612854 -0.0005493164 l -17.30423 -0.00061035156 l -70.08334 -0.00048828125 l 0.0 0.0 l 3.0517578e-05 0.0 l 6.1035156e-05 0.0 l 17.16922 0.0 l 17.942627 0.0 l 17.297852 0.0 l -52.42682 -76.36951 l 0.015075684 -76.381714 l -22.252869 -611.22107 l 21.831238 0.013851792 l -66.66147 -0.041568723 l 21.762115 -9.215819e-07 l -45.10495 1.8063774e-06 l -21.784637 -1.1865422e-06 l 111.77902 76.34429 l -224.12387 -76.34428 l 21.812134 -4.551486e-06 l 66.24736 -7.181613e-06 l -20.406677 -2.4052224e-07 l -22.80835 7.023091e-06 l -45.278748 76.37642 l 0.006713867 76.430916 l -0.020858765 76.40567 l 0.004257202 76.798904 l -0.00010681152 75.84668 l 224.9725 -76.25964 l 0.024597168 -76.364426 l 0.003540039 -76.38466 l 0.022521973 305.53073 l -0.023132324 -76.333405 l -0.0101623535 152.70709 l -224.9895 -0.36523438 l -0.0001373291 -75.84494 l 0.12159729 152.68558 l -0.0914917 76.36383 l -96.03107 135.02509 l 0.0 -12.328857 l 0.0 36.832947 l 0.0 23.771118 l 0.0 23.615417 l 0.0 14.526001 l 0.0603981 -125.41339 l -0.016300201 -18.998901 l 42.407154 -0.6229248 l 0.0 0.0 l -9.333519 0.0 l -20.983772 0.0 l -0.19615173 0.0 l 48.092934 0.0 l -0.23397827 0.0 l 25.182396 0.0 l -4.9639587 0.0 l 0.0 0.0 l -72.574 210.0 l 0.29787064 0.0 l 18.517284 0.0 l 0.19213104 0.0 l 14.08297 0.0 l 5.7666397 0.0 l -46.29154 -21.099854 l -0.004547119 -20.29187 l 0.00018692017 0.05609131 l 95.9899 79.53912 l 0.0072631836 40.65747 l 0.00010681152 25.740479 l -16.081528 -104.60144 l 0.0 0.0 l 0.17755127 0.0 l 14.485855 0.0 l -34.817764 0.0 l 5.892967 0.0 l 30.343452 178.04333 l 0.0 -34.642822 l 0.0 73.11975 l 0.0 32.743652 l 0.0 35.890015 l 0.11766052 36.40735 l 0.67004395 35.437744 l 0.23480225 -0.00024414062 l 20.366379 0.0 l 41.315536 0.0012207031 l -15.620682 0.0 l 41.702713 0.0 l 24.594742 0.0 l 0.68743896 0.0 l 19.707184 0.0 l 89.81552 -0.00048828125 l -18.426025 -0.0008544922 l -29.97232 0.0012207031 l -15.665283 0.0 l 65.46478 -70.69714 l 0.0016174316 34.776245 l 0.0058898926 -141.6925 l 0.0 37.05139 l 0.0 32.647705 l 0.0 -106.674194 l 0.0 -42.809082 l 0.0 -25.801392 l 0.036468506 -71.55896 l -0.005859375 32.664062 l 21.297913 -34.906006 l 11.901123 0.0 l 18.754272 0.0 l 88.34781 -0.00018310547 l 16.89148 0.00012207031 l -51.085083 6.1035156e-05 l 15.668854 0.0 l -34.594574 0.0 l -16.917816 -6.1035156e-05 l 104.70047 -20.878784 l 0.0024414062 20.789307 l 0.002319336 -63.41736 l 0.00012207031 -20.102234 l -0.00024414062 41.538025 l 0.00030517578 -145.52979 l 0.0 18.99707 l 0.0 21.319214 l 0.0 21.6745 l 0.0 20.2984 " /> </g> </svg>