<?xml version="1.0" standalone="no"?><!DOCTYPE svg PUBLIC "-//W3C//DTD SVG 1.1//EN" "http://www.w3.org/Graphics/SVG/1.1/DTD/svg11.dtd" ><svg xmlns="http://www.w3.org/2000/svg" xmlns:xlink="http://www.w3.org/1999/xlink" version="1.1" viewBox="-10 0 692 1000"><g transform="matrix(1 0 0 -1 0 800)"><path stroke="black" fill="none" d="M 548.6217 764.00085 l -15.204529 -0.0016479492 l -34.71344 -0.0068969727 l 15.206421 0.0031738281 l -33.96408 0.021606445 l -18.8154 -0.0061035156 l -15.2178955 -0.0073242188 l -70.67676 -0.0056152344 l 0.0 0.0 l 0.010437012 0.0 l 13.339752 0.00018310547 l 22.65976 -0.00030517578 l 15.143677 6.1035156e-05 l -51.647125 -76.04401 l 0.17584229 -76.187195 l -19.619324 -611.4457 l 0.12863159 0.013877451 l 14.575714 0.1475909 l -57.72519 -0.48456052 l 13.898621 -1.074275e-05 l -46.22354 2.1056685e-05 l -14.161163 -1.3831357e-05 l 104.09592 75.75058 l -214.78728 -75.75046 l 14.48172 -5.3056006e-05 l 52.898193 -8.3715015e-05 l -0.68740845 -1.4317466e-06 l -23.505447 8.0495156e-05 l -48.249344 76.125114 l 0.078186035 76.76038 l -0.2431488 76.46608 l 0.049713135 81.04996 l -0.0012664795 69.95001 l 224.67955 -74.763794 l 0.28649902 -75.98534 l 0.041229248 -76.22128 l 0.26272583 304.79248 l -0.26965332 -75.6236 l -0.11856079 151.71683 l -224.87758 -4.2575684 l -0.0016326904 -69.92963 l 1.4175415 151.46606 l -1.0665283 75.978455 l -96.36212 138.82928 l 0.0 0.0 l -1.9073486e-05 11.419495 l -1.5258789e-05 53.302612 l 0.0 12.790894 l 0.0 0.0 l 0.70404816 -134.93158 l -0.0807457 -0.5938721 l 24.084625 -4.3410645 l 0.0 0.0 l 48.80539 0.0 l 0.0 0.0 l -56.513634 209.99585 l 0.0 0.0 l 27.025406 0.0040283203 l 0.0 0.0 l -43.9486 -22.16394 l -0.05300522 -12.745117 l 0.0 0.0 l 95.88446 99.79175 l 0.070999146 30.099243 l 0.0 0.0 l -8.3802185 -94.98108 l 0.0 0.0 l -21.41449 -0.00030517578 l 0.0 0.0 l 29.815735 173.17621 l 0.0 -0.33666992 l -1.5258789e-05 -23.040405 l 4.5776367e-05 91.447266 l 0.0 1.663208 l 0.0 37.4906 l 1.3715363 43.94519 l 0.006210327 0.013793945 l 7.057663 32.628296 l 0.0 0.0 l 1.1125641 -0.0015869141 l 44.613464 0.013671875 l 0.0 0.0 l 21.692474 0.0 l 44.282654 0.0 l 0.0 0.0 l 0.5934448 0.0 l 100.75516 -0.018920898 l -0.015960693 -0.00012207031 l -55.58737 0.01574707 l 0.0 0.0 l 59.03076 -63.204712 l 0.018585205 24.930786 l 0.068847656 -129.8899 l -3.0517578e-05 51.4541 l 0.0 1.2287598 l 0.0 -103.246704 l 0.0 -0.020629883 l 0.0 -58.123657 l 0.0 0.0 l 0.4249878 -53.990906 l -0.054992676 1.2852173 l 31.27237 -27.41919 l 0.0 0.0 l 14.841858 -0.00018310547 l 97.38254 -0.0020141602 l 10.406555 0.0012207031 l -36.006683 0.00079345703 l 0.35620117 6.1035156e-05 l -34.475403 6.1035156e-05 l -0.17877197 0.0 l -10.53479 -0.00018310547 l 101.5087 -19.587646 l 0.028503418 18.543945 l 0.026855469 -67.864746 l 0.0012817383 -10.535217 l -0.0028686523 36.615417 l 0.0036621094 -129.86188 l 0.0 0.60150146 l 0.0 21.770996 l 0.0 28.86267 l 0.0 12.821472 " /> </g> </svg>