<?xml version="1.0" standalone="no"?><!DOCTYPE svg PUBLIC "-//W3C//DTD SVG 1.1//EN" "http://www.w3.org/Graphics/SVG/1.1/DTD/svg11.dtd" ><svg xmlns="http://www.w3.org/2000/svg" xmlns:xlink="http://www.w3.org/1999/xlink" version="1.1" viewBox="-10 0 692 1000"><g transform="matrix(1 0 0 -1 0 800)"><path stroke="black" fill="none" d="M 548.8892 764.00024 l -16.827698 -0.00048828125 l -34.916077 -0.0020141602 l 16.828247 0.00091552734 l -34.696594 0.0063476562 l -17.885284 -0.0018310547 l -16.831573 -0.0021362305 l -70.265045 -0.0016479492 l 0.0 0.0 l 0.00039672852 0.0 l 0.0044555664 0.0 l 16.346527 6.1035156e-05 l 19.01123 -6.1035156e-05 l 16.809875 0.0 l -52.250214 -76.29578 l 0.051513672 -76.33765 l -21.65628 -611.272 l 0.594635 0.06633207 l 19.62207 -0.01903908 l -64.637024 -0.1419245 l 19.980713 -3.1464788e-06 l -45.358368 6.167359e-06 l -20.057617 -4.0511095e-06 l 110.03851 76.20979 l -222.00876 -76.209755 l 20.15149 -1.553975e-05 l 63.223236 -2.4519559e-05 l -15.352966 -8.2119277e-07 l -23.552765 2.3978328e-05 l -45.951706 76.319496 l 0.022903442 76.505554 l -0.07122803 76.41934 l 0.014572144 77.76195 l -0.00038146973 74.510864 l 224.90616 -75.92081 l 0.08389282 -76.278534 l 0.012084961 -76.34764 l 0.07696533 305.36346 l -0.07897949 -76.17261 l -0.034729004 152.48276 l -224.96416 -1.2470093 l -0.00047302246 -74.50488 l 0.41519165 152.4093 l -0.31237793 76.27655 l -96.10608 124.58905 l 0.0 -0.071899414 l 0.0 32.909607 l -3.8146973e-06 30.461243 l 0.0 29.929626 l 0.0 0.6500244 l 0.20621109 -125.75079 l -0.055656433 -14.167786 l 26.515694 -2.126892 l 0.0 0.0 l -12.953331 0.0 l 0.0 0.0 l 46.36721 0.0 l 0.0 0.0 l 19.313873 0.0 l 0.0 0.0 l -68.38622 209.99988 l 0.0 0.0 l 13.520668 6.1035156e-05 l 0.0 0.0 l 21.010254 6.1035156e-05 l 0.13478851 0.0 l -45.651085 -21.340942 l -0.015525818 -18.582214 l 3.8146973e-05 0.011657715 l 95.966125 84.158875 l 0.024780273 52.625793 l 0.00036621094 1.8049316 l -6.029312 -98.6781 l 0.0 0.0 l 1.2755737 0.0 l -26.292336 6.1035156e-05 l 0.176651 0.0 l 30.871223 176.94073 l 0.0 -2.274292 l 0.0 -29.816406 l 1.5258789e-05 77.27173 l 0.0 25.606323 l 0.0 36.349 l 0.40171814 38.11499 l 0.037643433 0.083618164 l 2.2500153 34.720825 l 0.04170227 0.0 l 15.975357 -0.00061035156 l 32.420425 0.0040283203 l -0.68743896 0.0 l 35.417282 0.0 l 29.651932 0.0 l 0.12072754 0.0 l 15.19104 0.0 l 89.37009 -0.0018310547 l -8.590546 -0.0025634766 l -48.012146 0.0040283203 l -0.7156372 0.00012207031 l 62.102234 -69.00037 l 0.0054626465 32.545776 l 0.020141602 -139.01868 l 0.0 40.31421 l 0.0 25.278564 l 0.0 -105.64636 l 0.0 -0.16369629 l 0.0 -59.808105 l 0.0 -1.9718018 l 0.1244812 -71.87488 l -0.019958496 25.334778 l 30.466858 -32.989197 l 0.52301025 0.0 l 19.643616 -6.1035156e-05 l 90.39456 -0.00061035156 l 15.422363 0.00036621094 l -47.66919 0.00024414062 l 11.248138 0.0 l -33.615814 0.0 l -0.9048157 -6.1035156e-05 l -14.607483 0.0 l 103.97739 -20.586304 l 0.008361816 20.28064 l 0.007873535 -64.424866 l 0.00036621094 -17.934937 l -0.0008544922 40.422913 l 0.0010986328 -141.98041 l 0.0 14.161438 l 0.0 22.089844 l 0.0 23.302917 l 0.0 18.604553 " /> </g> </svg>