<?xml version="1.0" standalone="no"?><!DOCTYPE svg PUBLIC "-//W3C//DTD SVG 1.1//EN" "http://www.w3.org/Graphics/SVG/1.1/DTD/svg11.dtd" ><svg xmlns="http://www.w3.org/2000/svg" xmlns:xlink="http://www.w3.org/1999/xlink" version="1.1" viewBox="-10 0 692 1000"><g transform="matrix(1 0 0 -1 0 800)"><path stroke="black" fill="none" d="M 548.9905 764.0 l -17.442322 0.0 l -34.992798 -0.00018310547 l 17.442383 6.1035156e-05 l -34.97397 0.0005493164 l -17.53305 -0.00018310547 l -17.442657 -0.00018310547 l -70.0249 -0.00012207031 l 0.0 0.0 l 0.0 0.0 l 0.0 0.0 l 17.403625 0.0 l 17.629639 0.0 l 17.440796 0.0 l -52.478577 -76.39111 l 0.004425049 -76.39459 l -22.427612 -611.2062 l 22.304108 0.0040570963 l -67.254395 -0.012175197 l 22.283875 -2.699253e-07 l -45.03073 5.290758e-07 l -22.290466 -3.4752975e-07 l 112.28882 76.38368 l -224.74338 -76.38368 l 22.298523 -1.3331e-06 l 67.13312 -2.1034448e-06 l -21.886887 -7.044764e-08 l -22.590317 2.057015e-06 l -45.081635 76.3931 l 0.0019683838 76.40906 l -0.0061187744 76.40166 l 0.0012512207 76.516815 l -3.0517578e-05 76.237976 l 224.99194 -76.35892 l 0.0072021484 -76.38957 l 0.0010375977 -76.39551 l 0.006591797 305.5797 l -0.0067749023 -76.38049 l -0.002960205 152.7728 l -224.99693 -0.10699463 l -4.5776367e-05 -76.23743 l 0.035629272 152.76648 l -0.026809692 76.389404 l -96.009094 138.11865 l 0.0 -18.460327 l 0.0 40.486633 l 0.0 21.811646 l 0.0 21.766052 l 0.0 19.10376 l 0.017688751 -125.828186 l -0.0047721863 -20.41388 l 45.293087 -0.18243408 l 0.23273468 0.0 l -15.474106 0.0 l -12.934692 0.0 l -6.0968704 0.0 l 54.066986 0.0 l -6.1893845 0.0 l 29.35566 0.0 l 0.0 0.0 l -10.524612 0.0 l 0.008026123 0.0 l -75.57025 210.0 l 6.3191643 0.0 l 12.768646 0.0 l 6.086319 0.0 l 11.67067 0.0 l 8.4772415 0.0 l -47.499607 -21.029236 l -0.0013313293 -20.792603 l 95.99709 78.25513 l 0.0021362305 37.15204 l 3.0517578e-05 32.782837 l -17.575714 -106.368164 l 0.13383484 0.0 l 5.9933014 0.0 l 11.033218 0.0 l -37.350792 0.0 l 8.514236 0.0 l 29.252068 178.36621 l 0.0 -35.39026 l 0.0 71.903564 l 0.0 34.83423 l 0.0 35.755615 l 0.034454346 35.907227 l 0.19625854 35.62317 l 21.943848 -0.00012207031 l 43.920853 0.00036621094 l -20.485092 0.0 l 44.03424 0.0 l 23.113525 0.0 l 21.883362 0.0 l 89.94595 -0.00012207031 l -21.306763 -0.00024414062 l -24.688568 0.00036621094 l -20.498169 0.0 l 66.9039 -71.194214 l 0.00045776367 35.429565 l 0.001739502 -142.47571 l 0.0 36.095825 l 0.0 34.80603 l 0.0 -106.97534 l 0.0 -37.782227 l 0.0 -32.80066 l 0.010681152 -71.446594 l -0.0017089844 34.81079 l 18.612366 -35.46747 l 15.860138 0.0 l 17.86737 0.0 l 87.74832 -6.1035156e-05 l 17.321777 6.1035156e-05 l -52.0856 0.0 l 16.963684 0.0 l -34.881256 0.0 l -17.329498 0.0 l 104.91226 -20.964539 l 0.0007324219 20.938293 l 0.0006713867 -63.122192 l 6.1035156e-05 -20.73706 l -6.1035156e-05 41.864685 l 6.1035156e-05 -146.5694 l 0.0 20.41333 l 0.0 21.093506 l 0.0 21.19757 l 0.0 20.794495 " /> </g> </svg>