<?xml version="1.0" standalone="no"?><!DOCTYPE svg PUBLIC "-//W3C//DTD SVG 1.1//EN" "http://www.w3.org/Graphics/SVG/1.1/DTD/svg11.dtd" ><svg xmlns="http://www.w3.org/2000/svg" xmlns:xlink="http://www.w3.org/1999/xlink" version="1.1" viewBox="-10 0 692 1000"><g transform="matrix(1 0 0 -1 0 800)"><path stroke="black" fill="none" d="M 548.9972 764.0 l -17.483093 0.0 l -34.997894 -6.1035156e-05 l 17.483124 6.1035156e-05 l -34.99237 0.00012207031 l -17.509674 -6.1035156e-05 l -17.483215 0.0 l -70.007324 -6.1035156e-05 l 0.0 0.0 l 0.0 0.0 l 0.0 0.0 l 17.471802 0.0 l 17.537964 0.0 l 17.482666 0.0 l -52.493713 -76.3974 l 0.0012817383 -76.39838 l -22.47879 -611.20184 l 22.442627 0.0011882959 l -67.42807 -0.0035660323 l 22.436707 -7.9059646e-08 l -45.009003 1.5496244e-07 l -22.43863 -1.0178883e-07 l 112.43814 76.395226 l -224.92484 -76.395226 l 22.440994 -3.9045608e-07 l 67.39253 -6.1608444e-07 l -22.32042 -2.0633706e-08 l -22.526459 6.0248567e-07 l -45.02391 76.39798 l 0.000579834 76.40265 l -0.0017852783 76.40048 l 0.00036621094 76.43422 l -1.5258789e-05 76.35257 l 224.99765 -76.388 l 0.002105713 -76.39694 l 0.00030517578 -76.39868 l 0.0019226074 305.5941 l -0.0019836426 -76.39429 l -0.0008544922 152.79202 l -224.99911 -0.03137207 l -1.5258789e-05 -76.352356 l 0.010437012 152.79022 l -0.007843018 76.39685 l -96.00267 139.02472 l 0.0 -20.256165 l 0.0 41.556763 l 0.0 21.237732 l 0.0 21.224365 l 0.0 20.44458 l 0.005180359 -125.949646 l -0.0013961792 -20.82837 l 40.418934 -0.05340576 l 6.324173 0.0 l -17.576492 0.0 l -10.576706 0.0 l -8.573956 0.0 l 56.565205 0.0 l -8.601051 0.0 l 31.098297 0.0 l -0.5408478 0.0 l -11.465515 0.0 l 0.028335571 0.0 l -76.465805 210.0 l 8.639065 0.0 l 10.528076 0.0 l 8.570862 0.0 l 10.20649 0.0 l 9.271156 0.0 l -47.853443 -21.008545 l -0.00039291382 -20.93927 l 95.999146 77.86261 l 0.00062561035 36.125244 l 1.5258789e-05 34.84558 l -18.724258 -106.88562 l 0.5927887 0.0 l 7.990036 0.0 l 10.019775 0.0 l -38.09269 0.0 l 9.281982 0.0 l 28.932411 178.46082 l 0.0 -35.609253 l 0.0 71.547485 l 0.0 35.44641 l 0.0 35.71631 l 0.01008606 35.760742 l 0.057495117 35.67737 l 22.337097 0.0 l 44.68393 0.00012207031 l -21.909851 0.0 l 44.717133 0.0 l 22.679703 0.0 l 22.319397 0.0 l 89.98416 0.0 l -22.150513 -0.00012207031 l -23.141022 0.00012207031 l -21.913666 0.0 l 67.32541 -71.33972 l 0.00012207031 35.62085 l 0.0005187988 -142.70508 l 0.0 35.815918 l 0.0 35.438232 l 0.0 -107.06348 l 0.0 -36.309937 l 0.0 -34.85083 l 0.0031433105 -71.413635 l -0.0005187988 35.439575 l 17.825806 -35.631897 l 17.019684 0.0 l 17.607605 0.0 l 87.57272 0.0 l 17.447815 0.0 l -52.37863 0.0 l 17.342926 0.0 l -34.96521 0.0 l -17.450073 0.0 l 104.974304 -20.989624 l 0.00018310547 20.981934 l 0.00024414062 -63.035767 l 0.0 -20.923035 l 0.0 41.96039 l 0.0 -146.8739 l 0.0 20.828186 l 0.0 21.027405 l 0.0 21.057861 l 0.0 20.93982 " /> </g> </svg>