<?xml version="1.0" standalone="no"?><!DOCTYPE svg PUBLIC "-//W3C//DTD SVG 1.1//EN" "http://www.w3.org/Graphics/SVG/1.1/DTD/svg11.dtd" ><svg xmlns="http://www.w3.org/2000/svg" xmlns:xlink="http://www.w3.org/1999/xlink" version="1.1" viewBox="-10 0 692 1000"><g transform="matrix(1 0 0 -1 0 800)"><path stroke="black" fill="none" d="M 367.00443 750.4086 l -0.013549805 -108.29944 l -0.00024414062 51.248352 l 0.0002746582 -221.12851 l -0.0014343262 58.052277 l 0.0 51.209656 l 568.79987 79.555725 l 0.0 82.52893 l 0.0 4.338562 l 0.0 -167.6496 l 0.0 -40.716614 l -6.1035156e-05 332.66388 l -6.1035156e-05 -0.2939453 l 0.0 -51.638245 l -568.7994 -405.30865 l 0.0 0.0 l 0.0 -9.1552734e-05 l 0.0 -0.00033569336 l 2.2740479 -48.568146 l 5.2135315 -37.435425 l 561.3104 105.58017 l 0.00024414062 40.65445 l -0.014343262 -109.35428 l 0.0 0.0 l -0.0010986328 -0.041259766 l -0.916687 -38.750153 l -0.023925781 -0.647522 l -2.1497803 -31.495056 l -0.0028076172 -0.023468018 l -2.0681763 -21.075745 l 0.0 0.0 l -6.24469 -41.282196 l 0.118652344 0.6047058 l -537.40515 51.61023 l 9.488617 -22.329163 l 45.90796 -55.25148 l -1.2755737 0.8598633 l -25.64505 24.732956 l 117.02469 -56.584747 l 0.0 0.0 l 15.485046 1.0069885 l -56.364624 4.9384003 l 104.88159 5.569275 l 19.890137 8.396042 l 94.31647 275.50516 l 0.0 -40.28244 l 0.0 146.32294 l 0.0 4.6627197 l -50.354492 -350.8988 l -14.196411 -14.756027 l 39.64862 54.979553 l -0.56066895 -1.3595581 l 23.685608 89.01831 l 0.32806396 2.2441406 l -356.57114 -350.80954 l -16.63565 9.547958 l 48.000977 -24.969522 l 415.82776 39.373875 l -17.08844 -11.663811 l 48.471436 36.76649 l 0.0 0.0 l 3.4447021 3.4717484 l 26.252258 29.202908 l 0.2678833 0.32350922 l 50.617676 88.06165 l 0.0 0.0 l 4.854553 17.28012 l -0.0025634766 -0.008926392 l -19.59314 -50.339157 l 0.04437256 0.08226013 l -16.171997 -27.872086 l 0.28961182 0.42834473 l -309.52148 -161.27364 l 0.0 0.0 l -0.2331543 0.007095337 l -29.933105 0.86392593 l 90.01843 5.9278374 l -22.768799 -3.51231 l 138.1662 40.599983 l 1.1143188 0.5241957 l -55.379333 -22.60848 l -20.662964 -6.2164936 l -168.68466 -11.296547 l -29.05783 4.495476 l -54.47046 13.985643 l 20.73117 -6.2596607 l -133.05399 63.69578 l 0.0 0.0 l -0.0014038086 0.0012626648 l -0.12054443 0.1091156 l -13.005676 11.817543 l -24.929352 25.761639 l 11.591827 -12.560654 l -43.27417 54.339607 l -7.6327515 12.45443 l 27.31607 -39.88424 l -9.122818 11.988815 l -53.8322 137.88748 l 2.0560303 -13.056839 l 4.8663483 -23.889954 l 2.6376038 -10.621017 l 15.995926 -43.507767 l -5.213318 10.93544 l -0.0024261475 0.005050659 l 0.0 0.0 l -5.060272 13.586075 l -20.347656 112.6736 l 1.7242126 -19.522552 l -3.3013916 45.993988 l -0.7501526 22.154968 l -0.119522095 57.458893 l 0.0 56.443085 l 0.07444763 57.439117 l 0.0013275146 54.93286 l -0.0016479492 60.34778 l 0.0011901855 51.682983 l -0.0010681152 61.098755 l 0.0010986328 51.650635 l 107.544586 114.02948 l -15.13681 0.0 l -24.72084 -0.00030517578 l -51.046616 -0.0007324219 l 0.84976196 0.00012207031 l 26.864792 -0.0032348633 l -0.04321289 -0.00024414062 l -44.312424 -55.64331 l 179.86142 69.145325 l 0.0031738281 -0.32885742 l 0.096221924 -9.491272 l -0.13729858 -41.367065 l -39.885498 37.689697 l 15.059723 0.0 l 47.935303 -0.014404297 l 21.709564 0.0076904297 l -44.724396 72.90668 l 472.3266 -43.559998 l 0.4430542 0.0 l -35.92804 0.0 l -30.45343 0.0 l -14.6502075 0.0 l 114.59601 -0.0026245117 l 15.371399 0.0006713867 l 29.35852 -0.00036621094 l 14.80304 0.0006713867 l -204.63818 -0.3657837 l -15.456848 0.08709717 l -2.0200195 -67.268005 l -0.0071411133 -40.328125 l -0.030822754 -167.34454 l -0.0041503906 63.29669 l -6.1035156e-05 40.38147 l -343.78516 47.311646 " /> </g> </svg>