<?xml version="1.0" standalone="no"?><!DOCTYPE svg PUBLIC "-//W3C//DTD SVG 1.1//EN" "http://www.w3.org/Graphics/SVG/1.1/DTD/svg11.dtd" ><svg xmlns="http://www.w3.org/2000/svg" xmlns:xlink="http://www.w3.org/1999/xlink" version="1.1" viewBox="-10 0 692 1000"><g transform="matrix(1 0 0 -1 0 800)"><path stroke="black" fill="none" d="M 367.00012 750.40027 l -0.00033569336 -111.7121 l 0.0 55.783142 l 0.0 -223.5379 l -3.0517578e-05 55.9541 l 0.0 55.782166 l 568.8 66.0871 l 0.0 57.05652 l 0.0 55.09192 l 0.0 -169.16107 l 0.0 -56.00592 l 0.0 338.25586 l 0.0 -56.28772 l -568.8 -402.70685 l 0.0 0.0 l 0.0 0.0 l 0.0 0.0 l 1.9191589 -46.045258 l 5.717041 -41.046936 l 561.1637 95.22687 l 0.0 56.004364 l 6.1035156e-05 -112.69943 l 0.0 0.0 l 0.0 0.0 l 0.0 -3.0517578e-05 l -0.30615234 -23.488739 l -0.8468628 -21.845673 l -1.4694824 -22.090332 l -4.465332 -40.299194 l 2.3948364 18.828033 l -9.44696 -58.866074 l 3.6694336 18.726868 l -541.0666 54.00435 l 13.272461 -31.23056 l 62.599792 -65.08653 l -24.233978 16.533127 l -21.130646 21.85704 l 106.94635 -58.061417 l 0.0 0.0 l 0.00018310547 1.5258789e-05 l 0.00079345703 6.1035156e-05 l 36.032837 2.4033966 l -68.44858 4.8424835 l 101.32181 2.4991302 l 28.42987 12.0069275 l 91.746216 285.7753 l 0.0 -55.50757 l 0.0 112.66745 l 0.0 54.61255 l -45.95337 -358.91342 l -20.838867 -21.603516 l 51.270508 79.23486 l -13.045471 -30.69751 l 22.936523 68.287964 l 5.5941772 40.161835 l -352.7289 -363.50198 l -25.6185 14.716781 l 52.796417 -27.650892 l 419.93417 43.45482 l -24.469788 -16.700193 l 48.02484 35.602722 l 0.0 0.0 l 0.0 3.8146973e-05 l 0.00012207031 9.536743e-05 l 12.40564 12.484833 l 12.11438 13.358368 l 10.617981 12.871689 l 42.854553 71.8711 l 5.612854 14.055313 l 0.0 0.0 l -6.1035156e-05 -0.00016784668 l -0.00036621094 -0.0008544922 l 4.921936 17.927872 l -25.2724 -61.909653 l 7.3842163 13.946426 l -25.104431 -41.943443 l 9.034485 13.468903 l -309.99152 -164.14218 l 0.0 0.0 l 0.0 0.0 l -6.1035156e-05 3.8146973e-06 l -34.319153 0.9880867 l 99.583496 6.9048195 l -31.8656 -4.9138794 l 121.392395 31.904125 l 26.475342 12.554714 l -55.505737 -23.725986 l -29.394958 -8.842321 l -163.98126 -10.900215 l -31.87732 4.9385777 l -60.09503 15.793407 l 29.289429 -8.843407 l -135.29068 64.332085 l 0.0 0.0 l 0.0 0.0 l 0.0 0.0 l -13.580017 12.34087 l -24.72528 25.604065 l 11.94104 -12.940224 l -42.889923 53.61859 l -8.643936 14.107391 l 28.440994 -41.50814 l -10.280167 13.510765 l -54.034775 141.60422 l 3.0542755 -19.377121 l 3.670807 -18.362457 l 4.1607513 -16.742233 l 17.082 -44.562805 l -6.9857025 14.656967 l 0.0 0.0 l 0.0 0.0 l 0.0 0.0 l -5.312195 14.240387 l -20.164703 113.264786 l 1.954071 -22.11325 l -3.3585358 45.687897 l -0.83773804 24.753021 l -0.0030059814 56.426605 l 0.0 56.401093 l 0.001876831 56.426117 l 3.0517578e-05 56.36313 l -3.0517578e-05 56.499207 l 3.0517578e-05 56.281494 l -3.0517578e-05 56.518066 l 3.0517578e-05 56.28064 l 112.37546 112.83087 l -22.314972 0.0 l -22.555801 0.0 l -67.08658 0.0 l 21.928925 0.0 l 22.63675 -0.00012207031 l -44.98381 -56.38092 l 179.82104 73.29303 l 0.177948 -16.81958 l -0.17892456 -38.961975 l -44.696014 38.869568 l 22.31305 0.0 l 45.07376 -0.00036621094 l 22.480133 0.00018310547 l -45.168518 72.90021 l 456.70267 -43.559998 l 21.863464 0.0 l -44.68976 0.0 l -22.69983 0.0 l -22.302734 0.0 l 112.55267 -6.1035156e-05 l 22.320862 0.0 l 22.672302 0.0 l 22.30664 0.0 l -202.55371 -0.009155273 l -22.32306 0.0021972656 l -0.050720215 -56.18567 l -0.00024414062 -55.508728 l -0.0007324219 -167.6911 l -0.00012207031 56.085876 l 0.0 55.51007 l -343.79962 43.654297 " /> </g> </svg>