<?xml version="1.0" standalone="no"?><!DOCTYPE svg PUBLIC "-//W3C//DTD SVG 1.1//EN" "http://www.w3.org/Graphics/SVG/1.1/DTD/svg11.dtd" ><svg xmlns="http://www.w3.org/2000/svg" xmlns:xlink="http://www.w3.org/1999/xlink" version="1.1" viewBox="-10 0 692 1000"><g transform="matrix(1 0 0 -1 0 800)"><path stroke="black" fill="none" d="M 367.00128 750.4025 l -0.003967285 -110.77478 l -9.1552734e-05 54.537598 l 9.1552734e-05 -222.87613 l -0.0004272461 56.530365 l 0.0 54.526245 l 568.7999 69.78656 l 0.0 64.05292 l 0.0 41.15155 l 0.0 -168.74585 l 0.0 -51.806396 l 0.0 336.7199 l -6.1035156e-05 -55.09143 l -568.7999 -403.4199 l 0.0 0.0 l 0.0 -3.0517578e-05 l 0.0 0.0 l 2.0167542 -46.73987 l 5.5787354 -40.054993 l 561.20404 98.07062 l 6.1035156e-05 51.788208 l -0.0009765625 -111.67233 l 0.0 0.0 l 0.0 -0.0010681152 l -0.0012207031 -0.04486084 l -0.47583008 -27.754272 l -0.600708 -15.511932 l -1.6764526 -25.184814 l -0.024963379 -0.2098999 l -2.5794678 -25.373932 l 0.13452148 1.0558777 l -8.168152 -50.877365 l 2.5980225 13.258545 l -539.9648 53.83751 l 12.233154 -28.785645 l 58.015076 -62.385147 l -17.882507 12.196991 l -22.416138 22.678146 l 107.6543 -57.802567 l 0.0 0.0 l 0.15185547 0.010818481 l 32.298096 2.155838 l -65.129486 4.86882 l 102.29959 3.3424072 l 26.084229 11.015121 l 92.45221 282.9544 l 0.0 -51.325714 l 0.0 121.91156 l 0.0 40.892883 l -47.16223 -356.71204 l -19.014343 -19.722733 l 48.07831 72.57271 l -9.58728 -22.571625 l 23.113281 73.914246 l 4.1464844 29.738007 l -353.78302 -360.00674 l -23.151184 13.297068 l 51.47928 -26.914404 l 418.80624 42.33391 l -22.442383 -15.316858 l 47.644714 35.41548 l 0.0 0.0 l 0.015075684 0.01524353 l 10.43219 10.500965 l 15.99762 17.710365 l 7.293152 8.840111 l 48.23163 83.81838 l 1.0395508 2.6018372 l 0.0 0.0 l 5.171936 18.42688 l -0.010009766 -0.03553772 l -23.68982 -58.673264 l 4.551758 8.579834 l -21.847961 -36.545197 l 6.3117065 9.407623 l -309.26837 -162.88315 l 0.0 0.0 l -0.004272461 0.0001296997 l -0.82733154 0.025184631 l -32.620056 0.9389343 l 96.95624 6.6364746 l -29.367004 -4.5289116 l 125.99963 34.292603 l 19.3927 9.194767 l -55.354248 -23.363499 l -26.996582 -8.12109 l -165.2731 -11.009075 l -31.102875 4.8168716 l -58.55017 15.296873 l 26.938751 -8.133734 l -134.6637 64.14589 l 0.0 0.0 l -9.1552734e-05 8.010864e-05 l -0.00033569336 0.0002937317 l -13.467957 12.2385025 l -24.781311 25.647346 l 11.845093 -12.835968 l -42.995453 53.816628 l -8.366196 13.653381 l 28.132004 -41.06211 l -9.962265 13.092735 l -53.97914 140.58334 l 2.7800903 -17.641129 l 3.9991913 -19.880692 l 3.7423859 -15.060928 l 16.783691 -44.273026 l -6.5089264 13.655762 l -0.0005645752 0.0011901855 l 0.0 0.0 l 7.6293945e-05 -0.00015258789 l -5.233139 14.040039 l -20.21495 113.1024 l 1.8909302 -21.401672 l -3.3428345 45.771973 l -0.8136749 24.039429 l -0.03501892 56.710144 l 0.0 56.41263 l 0.02180481 56.704346 l 0.00039672852 55.970306 l -0.00048828125 57.556213 l 0.00035095215 55.018433 l -0.00030517578 57.776306 l 0.00032043457 55.00891 l 111.048584 113.160095 l -20.343384 0.0 l -23.150452 -0.00012207031 l -62.68091 -0.00018310547 l 15.84317 6.1035156e-05 l 24.094025 -0.0009765625 l -44.811264 -56.178406 l 179.83214 72.15381 l 0.01687622 -1.7536011 l 0.13949585 -13.143494 l -0.16748047 -39.62256 l -43.374725 38.54547 l 20.3208 0.0 l 45.85971 -0.004211426 l 22.268494 0.0022583008 l -45.04654 72.90198 l 460.99405 -43.559998 l 15.079895 0.0 l -41.383118 0.0 l -24.829468 0.0 l -20.200867 0.0 l 113.11389 -0.00079345703 l 20.41211 0.00024414062 l 24.50879 -0.00012207031 l 20.245605 0.00018310547 l -203.12622 -0.1071167 l -20.437134 0.025512695 l -0.59161377 -59.229614 l -0.0021362305 -51.33911 l -0.009033203 -167.59589 l -0.0012207031 58.066406 l 0.0 51.354736 l -343.79562 44.658813 " /> </g> </svg>