<?xml version="1.0" standalone="no"?><!DOCTYPE svg PUBLIC "-//W3C//DTD SVG 1.1//EN" "http://www.w3.org/Graphics/SVG/1.1/DTD/svg11.dtd" ><svg xmlns="http://www.w3.org/2000/svg" xmlns:xlink="http://www.w3.org/1999/xlink" version="1.1" viewBox="-10 0 692 1000"><g transform="matrix(1 0 0 -1 0 800)"><path stroke="black" fill="none" d="M 367.01508 750.4293 l -0.046325684 -99.84827 l -0.00079345703 40.01819 l 0.00091552734 -215.1618 l -0.0048828125 63.24829 l -6.1035156e-05 39.88611 l 568.7996 112.90991 l 0.0 50.54486 l 0.0 0.0 l 0.0 -190.19043 l 0.0 -2.890625 l -0.00030517578 318.8526 l 0.0 -0.028015137 l -6.1035156e-05 -41.118042 l -568.7941 -411.81958 l 0.0 0.0 l 9.1552734e-05 -0.0015258789 l 0.0057373047 -0.100494385 l 3.1433105 -54.647522 l 3.9665833 -28.49179 l 561.67377 131.21942 l 0.00079345703 2.6985474 l -0.17706299 -105.80707 l 0.0 0.0 l -0.7124634 -28.739838 l 0.0 0.0 l -3.41333 -46.204712 l 0.0 0.0 l -0.30438232 -5.4151306 l -6.8150024 -46.804657 l 0.0 0.0 l -530.2798 35.712463 l 0.49679565 -1.1751709 l 44.89267 -57.430573 l 0.0 0.0 l -21.944855 21.325684 l 127.25482 -53.304 l 0.0 0.0 l -47.11386 3.1007233 l 113.69711 13.172302 l 0.79888916 0.32948303 l 98.62463 249.19621 l 0.0 -2.6427307 l 0.0 140.52075 l 0.0 0.0 l -61.25348 -360.87378 l -0.40777588 -0.4633026 l 37.931396 56.823242 l 0.0 0.0 l 20.653992 78.33823 l 0.0 0.0 l -367.95813 -336.96835 l -0.30111694 0.16984749 l 42.036194 -21.751432 l 405.6586 29.267681 l -0.6930542 -0.47530937 l 46.845703 36.44258 l 0.0 0.0 l 26.336243 28.972744 l 0.0 0.0 l 52.37268 90.86098 l 3.6916504 12.524673 l 0.0 0.0 l -23.753784 -55.223053 l 0.0 0.0 l -9.436523 -16.633736 l 0.0 0.0 l -326.0573 -162.81293 l 0.0 0.0 l -8.079407 0.22188568 l 66.33118 3.5084076 l -1.2294312 -0.1930275 l 130.67444 38.763626 l 0.0 0.0 l -66.73755 -25.586964 l -0.88861084 -0.2690525 l -178.48264 -11.72278 l -22.075562 3.3981514 l -40.541443 9.508833 l 0.9918823 -0.30011177 l -129.51514 63.05276 l 0.0 0.0 l -0.0637207 0.057685852 l -11.398102 10.353779 l -25.434845 26.15186 l 0.23944092 -0.25711823 l 10.487701 -11.363548 l -44.225754 56.12516 l -5.1286163 8.360954 l 24.530228 -35.862724 l -6.256668 8.219788 l -53.33055 128.68323 l 0.08227539 -0.54026794 l 7.3284454 -34.442154 l 0.06448364 -0.26301575 l 12.107727 -36.095367 l -0.5939636 1.239624 l 0.0 0.0 l -4.675003 12.462982 l -20.800735 111.20964 l 1.155014 -13.106934 l -3.1599274 46.751984 l -0.5332489 15.721069 l -0.40808105 60.01523 l 0.0 56.54718 l 0.25419617 59.947693 l 0.0045166016 51.390778 l -0.0055999756 69.878784 l 0.0040283203 40.295044 l -0.0036315918 72.44238 l 0.003753662 40.184875 l 95.58125 116.99762 l -0.57922363 0.0 l -26.86377 -0.0010375977 l 0.026489258 -6.1035156e-05 l -49.904266 -0.009643555 l 0.0 0.0 l 24.536926 -0.0032958984 l -0.010101318 -6.1035156e-05 l -42.789917 -53.817444 l 179.87381 65.67883 l 0.0 0.0 l 0.00033569336 -0.08746338 l -0.042114258 -46.52722 l -27.972504 34.76776 l 0.54599 0.0 l 51.57306 -0.049194336 l 19.801239 0.026306152 l -43.62442 72.92279 l 463.5291 -43.559998 l 0.0 0.0 l -19.34436 0.0 l -49.654724 0.0 l -0.3996582 0.0 l 124.35681 -0.008911133 l 0.697937 0.001159668 l 43.379944 -0.00024414062 l 0.44934082 0.0005493164 l -214.02881 -1.2470703 l -0.7183838 0.15716553 l -4.6314697 -94.57257 l -0.024291992 -2.781189 l -0.105285645 -166.43951 l -0.014160156 81.15393 l -0.00018310547 2.9484253 l -343.7494 56.336975 " /> </g> </svg>