<?xml version="1.0" standalone="no"?><!DOCTYPE svg PUBLIC "-//W3C//DTD SVG 1.1//EN" "http://www.w3.org/Graphics/SVG/1.1/DTD/svg11.dtd" ><svg xmlns="http://www.w3.org/2000/svg" xmlns:xlink="http://www.w3.org/1999/xlink" version="1.1" viewBox="-10 0 692 1000"><g transform="matrix(1 0 0 -1 0 800)"><path stroke="black" fill="none" d="M 367.00003 750.4001 l -0.00012207031 -111.77429 l 0.0 55.865784 l 0.0 -223.58185 l 0.0 55.915833 l 0.0 55.86554 l 568.8 65.84161 l 0.0 56.592285 l 0.0 56.016907 l 0.0 -169.1886 l 0.0 -56.284546 l 0.0 338.35773 l 0.0 -56.367065 l -568.8 -402.6596 l 0.0 0.0 l 0.0 0.0 l 0.0 0.0 l 1.9126892 -45.999115 l 5.7261963 -41.112762 l 561.16113 95.03818 l 0.0 56.28412 l 0.0 -112.77048 l 0.0 0.0 l 0.0 0.0 l 0.0 0.0 l -0.29473877 -23.199799 l -0.8632202 -22.26593 l -1.4556885 -21.88501 l -4.588867 -41.275604 l 2.546997 20.024445 l -9.533936 -59.413315 l 3.7405396 19.089706 l -541.1398 54.01541 l 13.341431 -31.392792 l 62.90399 -65.26576 l -24.655396 16.820831 l -21.04535 21.802567 l 106.95462 -58.07466 l 0.0 0.0 l 0.0 0.0 l 6.1035156e-05 0.0 l 36.21631 2.4152527 l -68.66882 4.840744 l 101.2569 2.4431763 l 28.58551 12.072723 l 91.6994 285.9625 l 0.0 -55.785065 l 0.0 112.05411 l 0.0 55.52289 l -45.87317 -359.0595 l -20.9599 -21.728302 l 51.4823 79.676926 l -13.274963 -31.236694 l 22.924866 67.91464 l 5.6901855 40.853485 l -352.65897 -363.73392 l -25.782196 14.810981 l 52.88382 -27.699759 l 420.009 43.529194 l -24.60431 -16.79198 l 48.063477 35.62873 l 0.0 0.0 l 0.0 3.8146973e-06 l 0.0 7.6293945e-06 l 12.522278 12.602001 l 11.8567505 13.069611 l 10.838562 13.139191 l 42.497803 71.07837 l 5.894226 14.760071 l 0.0 0.0 l 0.0 -1.5258789e-05 l 0.0 -3.0517578e-05 l 4.926941 17.948929 l -25.37677 -62.12204 l 7.5722046 14.302521 l -25.320557 -42.301643 l 9.215149 13.73838 l -310.04675 -164.2255 l 0.0 0.0 l 0.0 0.0 l -6.1035156e-05 0.0 l -34.369446 0.98944473 l 99.75781 6.9226265 l -32.031372 -4.9394226 l 121.08667 31.745646 l 26.945374 12.777655 l -55.51587 -23.750036 l -29.554077 -8.890179 l -163.89554 -10.892992 l -31.92868 4.9466553 l -60.19757 15.826353 l 29.445404 -8.890495 l -135.33261 64.34475 l 0.0 0.0 l 0.0 0.0 l 0.0 0.0 l -13.587097 12.347332 l -24.721527 25.601192 l 11.947388 -12.947144 l -42.88292 53.605453 l -8.662369 14.13752 l 28.461487 -41.537743 l -10.301254 13.538506 l -54.038452 141.67195 l 3.072464 -19.492294 l 3.6490173 -18.261734 l 4.188507 -16.85379 l 17.101791 -44.58203 l -7.017029 14.722778 l 0.0 0.0 l 0.0 0.0 l 0.0 -1.5258789e-05 l -5.3177032 14.254242 l -20.161377 113.27556 l 1.958252 -22.160461 l -3.359558 45.682312 l -0.8393402 24.800385 l -0.00088500977 56.407806 l 0.0 56.4003 l 0.0005493164 56.407654 l 1.5258789e-05 56.38925 l -1.5258789e-05 56.429016 l 1.5258789e-05 56.365295 l -1.5258789e-05 56.43457 l 1.5258789e-05 56.36505 l 112.4635 112.80902 l -22.4458 0.0 l -22.516327 0.0 l -67.37892 0.0 l 22.332748 0.0 l 22.54004 -6.1035156e-05 l -44.995255 -56.39435 l 179.8203 73.36865 l 0.17941284 -16.947205 l -0.1796875 -38.91809 l -44.78369 38.891052 l 22.445251 0.0 l 45.021606 -0.00012207031 l 22.494171 6.1035156e-05 l -45.176636 72.900085 l 456.4179 -43.559998 l 22.313599 0.0 l -44.90912 0.0 l -22.558533 0.0 l -22.44226 0.0 l 112.51544 0.0 l 22.44751 0.0 l 22.550476 0.0 l 22.44336 0.0 l -202.51569 -0.0026855469 l -22.448181 0.00061035156 l -0.014892578 -55.983643 l -6.1035156e-05 -55.7854 l -0.00018310547 -167.69739 l -6.1035156e-05 55.954407 l 0.0 55.785828 l -343.79987 43.587585 " /> </g> </svg>