<?xml version="1.0" standalone="no"?><!DOCTYPE svg PUBLIC "-//W3C//DTD SVG 1.1//EN" "http://www.w3.org/Graphics/SVG/1.1/DTD/svg11.dtd" ><svg xmlns="http://www.w3.org/2000/svg" xmlns:xlink="http://www.w3.org/1999/xlink" version="1.1" viewBox="-10 0 692 1000"><g transform="matrix(1 0 0 -1 0 800)"><path stroke="black" fill="none" d="M 367.17587 750.74176 l -0.42462158 -68.81738 l 0.0 0.0 l -0.11392212 -158.13159 l -0.046813965 40.0849 l 0.0 0.0 l 568.7836 15.199707 l 0.0 0.0 l -0.011108398 184.7821 l 0.0 0.0 l -568.03906 -362.8205 l 0.0 0.0 l 5.099945 -58.606293 l 0.0 0.0 l 559.3823 -43.09906 l 0.0 0.0 l -13.707825 -94.00473 l 0.0 0.0 l -516.505 48.69513 l 6.766327 -11.383667 l 0.0 0.0 l 200.09637 -49.7007 l 0.0 0.0 l 101.90564 425.39838 l 0.0 0.0 l -3.1834106 -263.58392 l 0.0 0.0 l -335.2476 -352.2656 l 0.0 0.0 l 413.20554 21.859194 l 0.0 0.0 l 80.05548 73.86624 l 0.0 0.0 l -275.9201 -137.5067 l 0.0 0.0 l 80.55127 13.547007 l 0.0 0.0 l -218.00473 -0.90369034 l 0.0 0.0 l -7.1780396 0.7499981 l -147.01431 72.11 l 0.0 0.0 l -23.788635 25.029266 l 0.0 0.0 l 0.30441284 -0.3224411 l -13.066315 -71.742386 l -22.5 -7.683411e-09 l -22.5 0.0 l -22.5 0.0 l -22.5 0.0 l -22.5 0.0 l 0.0 76.4 l 84.78772 49.77729 l 0.0 0.0 l 15.35434 -23.47805 l 0.0 0.0 l -50.11409 114.477715 l 0.0 0.0 l 15.157593 -53.698685 l 0.0 0.0 l -24.105194 120.42894 l 0.0 0.0 l -2.4368744 42.92386 l 0.0 0.0 l -3.7388153 65.6824 l 0.0 58.115723 l 2.9632263 97.75528 l 0.030288696 1.4381714 l -0.6775055 108.959656 l 0.0 0.0 l 0.0 108.46417 l 0.0 0.0 l 80.89949 133.82452 l -5.284973 0.014160156 l 0.0 0.0 l -38.205658 -1.9186401 l 0.0 0.0 l -36.756363 -24.529297 l -57.070435 -110.63873 l -9.602753 0.0015258789 l -9.599998 0.0 l -9.599998 0.0 l -9.600006 0.0 l -9.599998 0.0 l -9.599998 0.0 l -9.599998 0.0 l -9.600002 0.0 l 0.0 21.0 l 0.0 21.0 l 0.0 21.0 l 0.0 21.0 l 0.0 21.0 l 0.0 21.0 l 0.0 21.0 l 0.0 21.0 l 0.0 21.0 l 0.0 21.0 l 9.600002 0.0 l 9.599998 0.0 l 9.599998 0.0 l 9.599998 0.0 l 9.600006 0.0 l 9.599998 0.0 l 9.599998 0.0 l 9.600006 0.0 l 9.599991 0.0 l 9.600006 0.0 l 0.0 35.700012 l 0.0 35.700012 l 0.0 35.69995 l 0.0 35.700073 l 0.0 35.69995 l 0.0 35.69995 l 0.0 35.700073 l 0.0 35.69995 l 0.0 35.700073 l 0.0 35.69995 l 22.5 0.0 l 22.5 0.0 l 22.5 0.0 l 22.5 0.0 l 22.5 0.0 l 22.5 0.0 l 22.5 0.0 l 22.5 0.0 l 22.5 0.0 l 22.5 0.0 l 0.0 -35.69995 l 0.0 -35.700073 l 0.0 -35.69995 l 0.0 -35.700073 l 0.0 -35.69995 l 0.0 -35.69995 l 0.0 -35.700073 l 0.0 -35.69995 l 0.0 -35.700012 l -9.195465 -132.58527 l 0.0 0.0 l -29.333435 24.003296 l 70.77194 -0.59332275 l 0.19439697 0.016967773 l -35.83441 73.45831 l 55.896973 0.0 l 17.5 0.0 l 17.5 0.0 l 17.5 0.0 l 17.5 0.0 l 17.5 0.0 l 17.5 0.0 l 17.5 0.0 l 0.0 -21.0 l 245.23419 -22.56073 l 0.0 0.0 l 108.687744 -3.4210205 l 0.0 0.0 l -353.92194 -16.01825 l 0.0 -21.0 l 163.2301 26.251526 l 0.0 0.0 l -1.0114746 -131.2193 l 0.0 0.0 l -162.21863 62.967773 l 0.0 -21.0 l 0.0 -21.0 l 0.0 -21.0 l 0.0 -21.0 l -17.5 0.0 l -17.5 0.0 l -17.5 0.0 l -17.5 0.0 l -17.5 0.0 l -17.5 0.0 l -17.5 0.0 l -17.5 0.0 l -17.5 0.0 l -23.899506 38.671204 " /> </g> </svg>