<?xml version="1.0" standalone="no"?><!DOCTYPE svg PUBLIC "-//W3C//DTD SVG 1.1//EN" "http://www.w3.org/Graphics/SVG/1.1/DTD/svg11.dtd" ><svg xmlns="http://www.w3.org/2000/svg" xmlns:xlink="http://www.w3.org/1999/xlink" version="1.1" viewBox="-10 0 692 1000"><g transform="matrix(1 0 0 -1 0 800)"><path stroke="black" fill="none" d="M 367.0515 750.5001 l -0.1581726 -70.99408 l -0.0025634766 2.1809082 l 0.0030212402 -195.29504 l -0.016662598 80.98859 l -0.00018310547 1.9686279 l 568.7987 166.60345 l 0.0 0.0 l -6.1035156e-05 -180.6239 l 0.0 0.0 l -0.0009765625 297.40765 l 0.0 0.0 l -0.00024414062 -4.3270874 l -568.7345 -434.77777 l 0.0 0.0 l 0.0037841797 -0.066467285 l 6.0914 -75.0578 l 0.14144897 -1.0374146 l 562.4505 118.30646 l 0.0 0.0 l -3.6329346 -165.55688 l 0.0 0.0 l -7.447815 -56.051666 l 0.0 0.0 l -1.7077637 -8.118011 l -527.7894 39.89206 l 0.0 0.0 l 24.042053 -36.935287 l -0.63442993 0.60601807 l 68.15234 -45.15593 l 0.0 0.0 l 120.523926 8.333099 l 0.0 0.0 l 103.5423 257.48758 l 0.0 0.0 l -6.1035156e-05 120.63556 l -57.037598 -340.37003 l 0.0 0.0 l 53.455322 123.17471 l 0.0 0.0 l -353.99625 -342.5305 l 0.0 0.0 l 19.253174 -10.03713 l 416.83572 26.246052 l 0.0 0.0 l 69.63721 62.6814 l 0.0 0.0 l 56.52722 103.45034 l 0.0 0.0 l -32.686707 -70.80567 l 0.0 0.0 l -329.83905 -162.67766 l 0.0 0.0 l 56.362427 2.4316902 l 0.0 0.0 l 87.85748 20.10085 l -17.924194 -5.795452 l 0.0 0.0 l -199.70044 -9.613697 l -1.0204163 0.10790253 l -41.421417 9.266823 l 0.0 0.0 l -138.47034 70.7068 l 0.0 0.0 l -0.8070679 0.7374077 l -26.272339 26.679295 l 0.054718018 -0.058792114 l 7.720215 -8.352562 l -47.320114 61.96955 l -0.089157104 0.14334106 l 18.401886 -27.675041 l -0.14433289 0.1884613 l -52.371582 121.3998 l 0.0 0.0 l 5.338745 -23.973465 l 0.0 0.0 l 11.573624 -36.73561 l 0.0 0.0 l -1.497467 4.55336 l -22.36818 106.45187 l 0.012130737 -0.14169312 l -3.4561005 58.036713 l -0.013076782 0.36975098 l -1.1729279 62.127808 l 0.0 56.902496 l 0.86790466 68.512665 l 0.015380859 39.297302 l -0.019073486 102.41962 l 0.012512207 2.0543823 l -0.011199951 110.5318 l 0.011199951 1.8948975 l 93.879486 126.273254 l 0.0 0.0 l -24.1987 -0.0018310547 l 0.0077209473 0.0 l -42.48198 -0.12384033 l 10.274979 0.07940674 l 0.0 0.0 l -37.48877 -47.582825 l 179.79584 45.60608 l 0.0 0.0 l 0.065216064 -22.765808 l -27.7211 24.792847 l 0.0 0.0 l 55.408264 -0.16900635 l 13.285889 0.08972168 l -39.868958 72.97778 l 441.1574 -43.559998 l 0.0 0.0 l -41.94409 0.0 l 0.0 0.0 l 127.5387 -0.089782715 l 0.0 0.0 l 31.415344 0.003479004 l 0.0 0.0 l -213.96985 -12.647583 l 0.0 0.0 l -0.053955078 -78.25574 l 0.0 0.0 l -1.3466797 -138.63092 l -0.041625977 44.133972 l 0.0 0.0 l -343.63467 60.28369 " /> </g> </svg>