<?xml version="1.0" standalone="no"?><!DOCTYPE svg PUBLIC "-//W3C//DTD SVG 1.1//EN" "http://www.w3.org/Graphics/SVG/1.1/DTD/svg11.dtd" ><svg xmlns="http://www.w3.org/2000/svg" xmlns:xlink="http://www.w3.org/1999/xlink" version="1.1" viewBox="-10 0 692 1000"><g transform="matrix(1 0 0 -1 0 800)"><path stroke="black" fill="none" d="M 367.00003 750.4001 l -3.0517578e-05 -111.79248 l 0.0 55.889954 l 0.0 -223.59467 l 0.0 55.904663 l 0.0 55.889893 l 568.8 65.769775 l 0.0 56.4563 l 0.0 56.28778 l 0.0 -169.19666 l 0.0 -56.36615 l 0.0 338.38757 l 0.0 -56.39032 l -568.8 -402.64575 l 0.0 0.0 l 0.0 0.0 l 0.0 0.0 l 1.9107971 -45.985596 l 5.728882 -41.13205 l 561.1603 94.98291 l 0.0 56.36606 l 0.0 -112.79135 l 0.0 0.0 l 0.0 0.0 l 0.0 0.0 l -0.29138184 -23.115082 l -0.86798096 -22.389038 l -1.4517212 -21.82489 l -4.625 -41.561554 l 2.5915527 20.374878 l -9.559448 -59.573624 l 3.7613525 19.195984 l -541.16113 54.01866 l 13.361633 -31.440308 l 62.993073 -65.31827 l -24.77884 16.90509 l -21.020355 21.786606 l 106.95831 -58.078445 l 0.0 0.0 l 0.0 0.0 l 0.0 0.0 l 36.268555 2.4186249 l -68.73331 4.840225 l 101.237885 2.4267883 l 28.631104 12.091995 l 91.68567 286.01733 l 0.0 -55.866333 l 0.0 111.87442 l 0.0 55.78955 l -45.84967 -359.1023 l -20.995361 -21.764862 l 51.54431 79.8064 l -13.342163 -31.394623 l 22.921448 67.8053 l 5.7183228 41.05609 l -352.6385 -363.80185 l -25.83014 14.838572 l 52.909424 -27.714071 l 420.03094 43.550976 l -24.643738 -16.818865 l 48.075134 35.636665 l 0.0 0.0 l 0.0 0.0 l 0.0 3.8146973e-06 l 12.556091 12.635971 l 11.78125 12.985031 l 10.903198 13.217545 l 42.39325 70.84619 l 5.9761963 14.965195 l 0.0 0.0 l 0.0 -1.5258789e-05 l 0.0 0.0 l 4.929016 17.956635 l -25.407288 -62.184235 l 7.6271973 14.406799 l -25.38385 -42.40654 l 9.268066 13.8173065 l -310.0631 -164.2499 l 0.0 0.0 l 0.0 0.0 l 0.0 0.0 l -34.384033 0.98984146 l 99.8089 6.9278374 l -32.079956 -4.9468994 l 120.99713 31.699224 l 27.083008 12.842953 l -55.5188 -23.757082 l -29.600708 -8.904194 l -163.87042 -10.890877 l -31.943726 4.9490204 l -60.2276 15.836002 l 29.491089 -8.904285 l -135.34491 64.348465 l 0.0 0.0 l 0.0 0.0 l 0.0 0.0 l -13.589142 12.34922 l -24.720459 25.600346 l 11.949249 -12.949165 l -42.88086 53.6016 l -8.66777 14.146355 l 28.467514 -41.546417 l -10.307449 13.546631 l -54.039536 141.69179 l 3.0777893 -19.526031 l 3.6426392 -18.232224 l 4.19664 -16.88646 l 17.10759 -44.58766 l -7.0261993 14.74202 l 0.0 0.0 l 0.0 0.0 l 0.0 0.0 l -5.319336 14.258301 l -20.160385 113.27872 l 1.9594727 -22.174286 l -3.3598633 45.680695 l -0.83981323 24.81424 l -0.0002593994 56.402283 l 0.0 56.400085 l 0.00016784668 56.402252 l 0.0 56.39688 l 0.0 56.408447 l 0.0 56.38983 l 0.0 56.410156 l 0.0 56.38977 l 112.48929 112.80261 l -22.4841 0.0 l -22.504791 0.0 l -67.46452 0.0 l 22.451004 0.0 l 22.511734 0.0 l -44.99861 -56.398315 l 179.82007 73.39075 l 0.17984009 -16.984497 l -0.17990112 -38.905273 l -44.809387 38.89734 l 22.483978 0.0 l 45.006317 -6.1035156e-05 l 22.498291 6.1035156e-05 l -45.179016 72.900024 l 456.33453 -43.559998 l 22.445435 0.0 l -44.97339 0.0 l -22.51715 0.0 l -22.483093 0.0 l 112.50452 0.0 l 22.48462 0.0 l 22.51477 0.0 l 22.48346 0.0 l -202.50464 -0.00079345703 l -22.484802 0.00018310547 l -0.0043945312 -55.9245 l 0.0 -55.866394 l -6.1035156e-05 -167.69928 l 0.0 55.915894 l 0.0 55.866577 l -343.79996 43.568115 " /> </g> </svg>