<?xml version="1.0" standalone="no"?><!DOCTYPE svg PUBLIC "-//W3C//DTD SVG 1.1//EN" "http://www.w3.org/Graphics/SVG/1.1/DTD/svg11.dtd" ><svg xmlns="http://www.w3.org/2000/svg" xmlns:xlink="http://www.w3.org/1999/xlink" version="1.1" viewBox="-10 0 692 1000"><g transform="matrix(1 0 0 -1 0 800)"><path stroke="black" fill="none" d="M 367.00037 750.40076 l -0.001159668 -111.499756 l 0.0 55.500977 l 0.0 -223.38797 l -0.00012207031 56.084625 l 0.0 55.49768 l 568.8 66.92517 l 0.0 58.64148 l 0.0 51.933838 l 0.0 -169.06702 l 0.0 -55.054504 l 0.0 337.9079 l 0.0 -56.016724 l -568.8 -402.8683 l 0.0 0.0 l 0.0 0.0 l 0.0 0.0 l 1.9412842 -46.20273 l 5.6856995 -40.822205 l 561.17285 95.87109 l 0.0 55.049225 l 0.0 -112.459564 l 0.0 0.0 l 0.0 -6.1035156e-05 l 0.0 -0.00024414062 l -0.34503174 -24.472351 l -0.7911377 -20.410828 l -1.5163574 -22.791382 l -4.043762 -36.965546 l 1.8753052 14.743225 l -9.14978 -56.99762 l 3.4267578 17.488068 l -540.817 53.966553 l 13.037018 -30.676697 l 61.561157 -64.47455 l -22.795105 15.550812 l -21.421844 22.04306 l 106.97003 -58.012512 l 0.0 0.0 l 0.0029907227 0.00021362305 l 0.4356079 0.031021118 l 34.919983 2.3283234 l -67.696655 4.8484497 l 101.543335 2.6901703 l 27.898438 11.782242 l 91.90619 285.13626 l 0.0 -54.56021 l 0.0 114.76163 l 0.0 51.504456 l -46.227234 -358.4147 l -20.425537 -21.177444 l 50.547363 77.72563 l -12.262085 -28.85669 l 22.976624 69.56256 l 5.2661743 37.800415 l -352.9677 -362.71017 l -25.05954 14.395157 l 52.498047 -27.484047 l 419.67862 43.20089 l -24.010498 -16.386812 l 47.905334 35.526672 l 0.0 0.0 l 0.00048828125 0.00047683716 l 0.010437012 0.01052475 l 11.984558 12.061588 l 12.99408 14.344276 l 9.864807 11.958374 l 44.07263 74.57765 l 4.6314697 11.597275 l 0.0 0.0 l -0.0012817383 -0.0030822754 l 4.9248657 17.906555 l -24.916138 -61.184525 l 6.7425537 12.730682 l -24.3667 -40.720528 l 8.417664 12.548859 l -309.80957 -163.85751 l 0.0 0.0 l -0.00018310547 3.8146973e-06 l -0.0012817383 3.8146973e-05 l -34.139343 0.98319626 l 98.98834 6.8440285 l -31.29956 -4.826668 l 122.4361 32.445213 l 24.87085 11.793549 l -55.471436 -23.643867 l -28.851624 -8.678932 l -164.2739 -10.924877 l -31.701874 4.911007 l -59.745087 15.680922 l 28.756897 -8.682636 l -135.1478 64.28915 l 0.0 0.0 l 0.0 7.6293945e-06 l -3.0517578e-05 1.9073486e-05 l -13.555542 12.318497 l -24.737946 25.613869 l 11.919281 -12.916603 l -42.91382 53.663452 l -8.581009 14.0045395 l 28.370987 -41.407097 l -10.208145 13.416069 l -54.02217 141.37294 l 2.992157 -18.98384 l 3.7452087 -18.706406 l 4.0659637 -16.361343 l 17.01442 -44.49716 l -6.878479 14.431808 l 0.0 0.0 l 1.5258789e-05 -1.5258789e-05 l 1.5258789e-05 -3.0517578e-05 l -5.29364 14.193619 l -20.176086 113.22801 l 1.9397736 -21.952057 l -3.3549805 45.70694 l -0.83229065 24.59137 l -0.010253906 56.490845 l 0.0 56.403717 l 0.0063934326 56.489136 l 0.00010681152 56.27414 l -0.0001373291 56.738647 l 0.00010681152 55.99536 l -9.1552734e-05 56.8031 l 9.1552734e-05 55.992554 l 112.07489 112.90546 l -21.868347 0.0 l -22.690506 -6.1035156e-05 l -66.08852 0.0 l 20.550247 0.0 l 22.966888 -0.00030517578 l -44.944717 -56.335083 l 179.82355 73.03497 l 0.17306519 -16.384033 l -0.17633057 -39.111633 l -44.396698 38.796143 l 21.861725 0.0 l 45.25183 -0.0012207031 l 22.43219 0.0006713867 l -45.1409 72.90057 l 457.67484 -43.559998 l 20.326721 0.0 l -43.940674 0.0 l -23.182251 0.0 l -21.8266 0.0 l 112.67981 -0.00024414062 l 21.888428 6.1035156e-05 l 23.088379 0.0 l 21.839722 6.1035156e-05 l -202.68341 -0.03137207 l -21.895813 0.007446289 l -0.17327881 -56.875244 l -0.0006713867 -54.564087 l -0.0026245117 -167.66956 l -0.00036621094 56.534546 l 0.0 54.568726 l -343.7987 43.881836 " /> </g> </svg>