<?xml version="1.0" standalone="no"?><!DOCTYPE svg PUBLIC "-//W3C//DTD SVG 1.1//EN" "http://www.w3.org/Graphics/SVG/1.1/DTD/svg11.dtd" ><svg xmlns="http://www.w3.org/2000/svg" xmlns:xlink="http://www.w3.org/1999/xlink" version="1.1" viewBox="-10 0 692 1000"><g transform="matrix(1 0 0 -1 0 800)"><path stroke="black" fill="none" d="M 367.6005 751.5667 l 0.0 -61.904358 l -1.4497681 -95.756836 l 0.0 0.0 l 567.7091 109.29297 l 0.0 0.0 l -562.4966 -361.75662 l 0.0 0.0 l 541.24426 -114.95825 l 0.0 0.0 l -521.2874 41.236877 l 0.0 0.0 l 10.044769 -38.2966 l 302.06992 285.206 l 0.0 0.0 l -330.88452 -441.04654 l 379.52533 -66.492874 l 0.0 0.0 l -173.84467 -47.31927 l 0.0 0.0 l -208.4559 38.806007 l 0.0 0.0 l -64.72476 -1.3938618 l -9.062256 48.1778 l 0.0 0.0 l -35.937744 -48.1778 l -22.5 -7.683411e-09 l -22.5 0.0 l -22.5 0.0 l -22.5 0.0 l -22.5 0.0 l 0.0 76.4 l 113.03046 10.314842 l 0.0 0.0 l -60.48427 122.464645 l 0.0 0.0 l -14.178619 117.41324 l 0.0 0.0 l -11.370224 63.539 l 0.0 62.257874 l 7.9073334 96.236145 l 0.0 0.0 l -7.9073334 68.1604 l 0.0 62.257874 l 69.51474 221.46698 l 0.0 0.0 l -62.430756 -125.976074 l 0.0 0.0 l -53.27858 -10.536438 l -9.602753 0.0015258789 l -9.599998 0.0 l -9.599998 0.0 l -9.600006 0.0 l -9.599998 0.0 l -9.599998 0.0 l -9.599998 0.0 l -9.600002 0.0 l 0.0 21.0 l 0.0 21.0 l 0.0 21.0 l 0.0 21.0 l 0.0 21.0 l 0.0 21.0 l 0.0 21.0 l 0.0 21.0 l 0.0 21.0 l 0.0 21.0 l 9.600002 0.0 l 9.599998 0.0 l 9.599998 0.0 l 9.599998 0.0 l 9.600006 0.0 l 9.599998 0.0 l 9.599998 0.0 l 9.600006 0.0 l 9.599991 0.0 l 9.600006 0.0 l 0.0 35.700012 l 0.0 35.700012 l 0.0 35.69995 l 0.0 35.700073 l 0.0 35.69995 l 0.0 35.69995 l 0.0 35.700073 l 0.0 35.69995 l 0.0 35.700073 l 0.0 35.69995 l 22.5 0.0 l 22.5 0.0 l 22.5 0.0 l 22.5 0.0 l 22.5 0.0 l 22.5 0.0 l 22.5 0.0 l 22.5 0.0 l 22.5 0.0 l 22.5 0.0 l 0.0 -35.69995 l 0.0 -35.700073 l 0.0 -35.69995 l 0.0 -35.700073 l 0.0 -35.69995 l 0.0 -35.69995 l 0.0 -35.700073 l 0.0 -35.69995 l 0.0 -35.700012 l -38.693695 -108.44287 l 0.0 0.0 l 64.22403 -6.645874 l 0.0 0.0 l -20.22882 79.38873 l 47.198486 0.0 l 17.5 0.0 l 17.5 0.0 l 17.5 0.0 l 17.5 0.0 l 17.5 0.0 l 17.5 0.0 l 17.5 0.0 l 0.0 -21.0 l 326.43652 -23.566345 l 0.0 0.0 l -326.43652 -18.433655 l 0.0 -21.0 l 164.42755 2.4342651 l 0.0 0.0 l -164.42755 -44.434265 l 0.0 -21.0 l 0.0 -21.0 l 0.0 -21.0 l 0.0 -21.0 l -17.5 0.0 l -17.5 0.0 l -17.5 0.0 l -17.5 0.0 l -17.5 0.0 l -17.5 0.0 l -17.5 0.0 l -17.5 0.0 l -17.5 0.0 l -22.449738 29.910583 " /> </g> </svg>