<?xml version="1.0" standalone="no"?><!DOCTYPE svg PUBLIC "-//W3C//DTD SVG 1.1//EN" "http://www.w3.org/Graphics/SVG/1.1/DTD/svg11.dtd" ><svg xmlns="http://www.w3.org/2000/svg" xmlns:xlink="http://www.w3.org/1999/xlink" version="1.1" viewBox="-10 0 692 1000"><g transform="matrix(1 0 0 -1 0 800)"><path stroke="black" fill="none" d="M 338.60526 809.89935 l 25.184052 -54.700806 l 25.184113 -54.700745 l 25.184082 -54.700745 l 25.36322 -54.995056 l 25.010132 -54.286194 l 76.01242 -53.81482 l 24.487305 53.364014 l -73.69891 -57.70294 l 23.168945 -50.293915 l -202.2775 -78.654144 l 50.1864 -104.10304 l 50.192413 -104.064835 l 201.5885 -0.009170532 l 50.596985 104.05873 l 50.596985 104.11984 l 50.568054 104.06955 l 50.568115 104.10483 l -201.26495 87.91254 l -24.910278 -54.284607 l 50.18634 109.28778 l 25.084167 54.700745 l 25.084167 54.700806 l 25.084106 54.700684 l 25.09845 54.700745 l 176.62415 54.692993 l -43.055664 0.0 l -1.5231323 0.0 l -54.595642 0.0 l 23.067566 0.0 l -51.70685 0.0 l -22.866577 0.0 l 176.73291 -0.00024414062 l 24.509155 0.00012207031 l 50.807495 0.00012207031 l -25.07019 0.0 l -25.439026 -104.09735 l -50.568115 -104.10553 l -50.567993 -104.10547 l -303.6372 -624.64087 l -50.610718 -104.03177 l -50.188477 104.0374 l -200.85419 416.44135 l -50.16829 104.10547 l -50.16832 104.10553 l -50.168297 104.10547 l -50.168304 104.069885 l 74.04934 104.115906 l -22.946007 0.0 l -27.3704 0.0 l -22.770996 0.0 l -50.752655 0.0 l 24.451323 0.0 l 175.21733 0.0 l -3.4236298 0.0 l -18.82866 0.0 l -26.39592 0.0 l 100.487305 0.0 l 0.0 0.0 l -3.0517578e-05 0.0 l -0.00012207031 0.0 l -24.823212 0.0 l 50.019836 -54.711487 l 25.212494 -54.665466 " /> </g> </svg>