<?xml version="1.0" standalone="no"?><!DOCTYPE svg PUBLIC "-//W3C//DTD SVG 1.1//EN" "http://www.w3.org/Graphics/SVG/1.1/DTD/svg11.dtd" ><svg xmlns="http://www.w3.org/2000/svg" xmlns:xlink="http://www.w3.org/1999/xlink" version="1.1" viewBox="-10 0 692 1000"><g transform="matrix(1 0 0 -1 0 800)"><path stroke="black" fill="none" d="M 367.0 974.0 l 0.0 -55.900024 l 0.0 -55.899963 l -20.081818 -53.35443 l 17.819061 -55.051453 l 17.819092 -55.051514 l 17.819122 -55.051453 l 50.63269 -91.99048 l 0.0 0.0 l -84.00815 -24.900696 l 187.15826 -9.818848 l 0.0 0.0 l -187.15826 -101.98114 l 0.0 0.0 l -38.190002 -59.853424 l 45.830017 -27.266602 l 9.549988 -36.299988 l -11.491852 -41.9393 l 42.05185 -16.140701 l 4.633423 -71.64516 l 41.206573 32.925156 l 28.649994 -12.099991 l 32.47003 -7.26001 l 0.0 0.0 l 36.289978 2.4199982 l 32.47003 7.26001 l 25.17102 -27.49797 l 28.30896 56.537964 l 20.89685 28.41269 l 17.303162 19.987305 l 13.369995 31.460022 l 9.549988 36.299988 l 8.982727 25.55539 l 35.77954 89.982544 l -39.032288 37.40207 l 74.81195 68.953186 l -74.81195 42.8468 l -104.964355 12.522217 l 0.0 0.0 l 55.25476 94.79474 l 17.748413 55.051514 l 17.748352 55.051453 l 17.748352 55.051453 l -3.5355225 62.92865 l 27.874023 -7.8771973 l 17.125977 7.8771973 l 22.5 0.0 l 22.5 0.0 l -23.635376 43.23944 l 0.0 0.0 l 68.635376 -43.23944 l 21.722229 30.801575 l 109.84424 12.730957 l 0.0 0.0 l -64.06647 -43.53253 l 22.5 0.0 l 23.051697 -59.327393 l -23.051697 -53.472595 l -12.727905 -53.1756 l 12.727905 -59.62445 l -48.507507 -47.023743 l 48.507507 -65.776245 l 0.0 -56.399963 l 0.0 -56.400024 l 0.0 -56.399994 l 0.0 -56.400024 l 0.0 0.0 l -0.28997803 -23.079987 l -0.8699951 -22.440002 l -1.4500122 -21.799988 l -2.0299683 -21.160004 l -2.6100464 -20.52002 l -3.1900024 -19.87999 l -3.7699585 -19.23999 l -4.3500366 -18.600006 l -4.9299927 -17.960007 l 0.0 0.0 l -6.01001 -15.049988 l -6.829956 -14.75 l -7.6500244 -14.450012 l -8.470032 -14.149994 l -9.289978 -13.849998 l -10.109985 -13.550003 l -10.929993 -13.25 l -11.75 -12.949997 l -12.570007 -12.650002 l 0.0 0.0 l -23.419983 -18.809998 l -24.660034 -16.83 l -25.899963 -14.85 l -27.140015 -12.87 l -28.380005 -10.89 l -29.619995 -8.91 l -30.859985 -6.9299984 l -32.100037 -4.950001 l -40.184753 52.18435 l 0.0068359375 -0.05512619 l -27.552063 -54.109222 l -28.022278 -18.285614 l -44.854675 75.05964 l -22.973053 -41.924026 l -29.51001 8.91 l -28.289978 10.89 l -27.070007 12.87 l -25.850006 14.85 l -24.630005 16.830002 l 0.0 0.0 l -13.589996 12.349998 l -12.769989 12.649998 l -11.950012 12.950005 l -11.130005 13.25 l -10.309998 13.549995 l -9.48999 13.850006 l -8.669998 14.150002 l -7.850006 14.449997 l -7.029999 14.75 l 0.0 0.0 l -5.3200073 14.2599945 l -4.7599945 15.580002 l -4.199997 16.899994 l -3.6399994 18.220001 l -3.0800018 19.540009 l -2.5200043 20.859985 l -1.9599915 22.180023 l -1.4000092 23.5 l -0.83999634 24.819977 l 0.0 56.400024 l 52.905716 58.945587 l -52.905716 53.8544 l 17.408981 52.793762 l -17.408981 60.006226 l -18.0878 46.641968 l 18.0878 66.15808 l -53.58455 40.49005 l -35.496758 90.12903 l -6.8491745 111.46741 l 0.0 0.0 l 118.43048 -72.886536 l 22.5 0.0 l -43.979294 72.74286 l 0.0 0.0 l 96.77161 -59.873535 l 14.707672 -12.869324 l 16.291595 -25.809387 l 28.708405 25.809387 l 22.5 0.0 l 22.5 0.0 l 22.5 0.0 " /> </g> </svg>