<?xml version="1.0" standalone="no"?><!DOCTYPE svg PUBLIC "-//W3C//DTD SVG 1.1//EN" "http://www.w3.org/Graphics/SVG/1.1/DTD/svg11.dtd" ><svg xmlns="http://www.w3.org/2000/svg" xmlns:xlink="http://www.w3.org/1999/xlink" version="1.1" viewBox="-10 0 692 1000"><g transform="matrix(1 0 0 -1 0 800)"><path stroke="black" fill="none" d="M 338.66122 809.8923 l 25.014526 -54.708862 l 25.014557 -54.7088 l 25.014557 -54.708862 l 27.10263 -58.138733 l 22.98648 -49.877075 l 81.47278 -44.381256 l 17.958252 39.126617 l -55.570557 -89.70474 l 1.526825 -3.3449402 l -196.7117 -89.88248 l 50.041412 -104.135315 l 50.111664 -103.690094 l 201.46576 -0.1068573 l 50.56494 103.61885 l 50.565002 104.33124 l 50.2276 103.74527 l 50.22766 104.15662 l -201.95648 84.84924 l -22.88855 -49.858337 l 50.040955 108.09161 l 24.915344 54.708862 l 24.915283 54.708862 l 24.915222 54.7088 l 25.080933 54.7088 l 173.685 54.61786 l -0.028686523 0.0 l -38.772217 0.00012207031 l -38.787964 6.1035156e-05 l 0.9458008 0.0 l -65.17059 0.0 l -0.56555176 0.0 l 176.453 -0.0025024414 l 16.08014 0.0009765625 l 53.01941 0.0014038086 l -0.9692383 -6.1035156e-05 l -21.652039 -6.1035156e-05 l -26.921082 -104.069275 l -50.22766 -104.16406 l -50.2276 -104.164 l -304.03357 -625.0764 l -50.724854 -103.30475 l -50.065674 103.37032 l -201.43137 416.88196 l -49.830536 104.164 l -49.83058 104.16406 l -49.83056 104.164 l -49.83056 103.74902 l 55.392845 104.2854 l -0.862175 0.0 l -48.563385 0.0 l -0.5586853 0.0 l -50.83765 0.0 l 16.47276 0.0 l 171.87576 0.0 l 0.0 0.0 l -0.126297 0.0 l -39.115265 0.0 l 96.73161 0.0 l 0.0 0.0 l -0.019256592 0.0 l -20.367004 0.0 l 45.968536 -54.833984 l 25.345673 -54.297424 " /> </g> </svg>