<?xml version="1.0" standalone="no"?><!DOCTYPE svg PUBLIC "-//W3C//DTD SVG 1.1//EN" "http://www.w3.org/Graphics/SVG/1.1/DTD/svg11.dtd" ><svg xmlns="http://www.w3.org/2000/svg" xmlns:xlink="http://www.w3.org/1999/xlink" version="1.1" viewBox="-10 0 692 1000"><g transform="matrix(1 0 0 -1 0 800)"><path stroke="black" fill="none" d="M 367.0 974.0 l 0.0 -55.900024 l 0.0 -55.899963 l -25.963654 -52.608826 l 23.038147 -54.80298 l 23.038208 -54.802917 l 23.038177 -54.80298 l 47.37906 -94.78485 l 0.68792725 -1.3662109 l -91.217865 -22.231262 l 188.50592 -9.175354 l 0.0 0.0 l -42.113647 -71.25595 l -146.39227 -31.368683 l 0.0 0.0 l -49.935028 -63.91684 l 57.575043 -23.203186 l 9.549988 -36.299988 l -18.773712 -45.00862 l 49.33371 -13.071381 l -0.16317749 -86.25032 l 46.003174 47.53032 l 28.649994 -12.099991 l 32.47003 -7.26001 l 0.0 0.0 l 36.289978 2.4199982 l 32.47003 7.26001 l 24.152039 -39.095947 l 29.327942 68.13594 l 20.863708 30.355362 l 17.336304 18.044632 l 13.369995 31.460022 l 9.549988 36.299988 l 9.935425 20.990753 l 46.259155 99.96509 l -50.4646 31.984161 l 96.723816 72.77637 l -96.723816 39.02362 l -113.29425 10.116943 l -0.677063 -1.3257446 l 49.702087 97.21271 l 22.946838 54.80298 l 22.946716 54.802917 l 22.946716 54.802917 l -4.571045 64.987305 l 29.44806 -10.184387 l 15.551941 10.184387 l 22.5 0.0 l 22.5 0.0 l 53.77832 43.553345 l 0.0 0.0 l -77.84985 0.0040283203 l 0.0 0.0 l 69.07153 -43.557373 l 112.19989 43.466125 l 0.0 0.0 l 52.18872 0.0914917 l 0.0 0.0 l -0.40039062 -6.1035156e-05 l -96.48822 -43.557556 l 22.5 0.0 l 29.803406 -60.184814 l -29.803406 -52.615173 l -16.45581 -52.2312 l 16.45581 -60.568848 l -62.715027 -44.277466 l 62.715027 -68.52252 l 0.0 -56.399963 l 0.0 -56.400024 l 0.0 -56.399994 l 0.0 -56.400024 l 0.0 0.0 l -0.28997803 -23.079987 l -0.8699951 -22.440002 l -1.4500122 -21.799988 l -2.0299683 -21.160004 l -2.6100464 -20.52002 l -3.1900024 -19.87999 l -3.7699585 -19.23999 l -4.3500366 -18.600006 l -4.9299927 -17.960007 l 0.0 0.0 l -6.01001 -15.049988 l -6.829956 -14.75 l -7.6500244 -14.450012 l -8.470032 -14.149994 l -9.289978 -13.849998 l -10.109985 -13.550003 l -10.929993 -13.25 l -11.75 -12.949997 l -12.570007 -12.650002 l 0.0 0.0 l -23.419983 -18.809998 l -24.660034 -16.83 l -25.899963 -14.85 l -27.140015 -12.87 l -28.380005 -10.89 l -29.619995 -8.91 l -30.859985 -6.9299984 l -32.100037 -4.950001 l -42.189575 68.338684 l 0.13757324 -1.1080875 l -25.677979 -69.210594 l -26.514526 -24.511238 l -48.6344 95.59428 l -20.70108 -56.23304 l -29.51001 8.91 l -28.289978 10.89 l -27.070007 12.87 l -25.850006 14.85 l -24.630005 16.830002 l 0.0 0.0 l -13.589996 12.349998 l -12.769989 12.649998 l -11.950012 12.950005 l -11.130005 13.25 l -10.309998 13.549995 l -9.48999 13.850006 l -8.669998 14.150002 l -7.850006 14.449997 l -7.029999 14.75 l 0.0 0.0 l -5.3200073 14.2599945 l -4.7599945 15.580002 l -4.199997 16.899994 l -3.6399994 18.220001 l -3.0800018 19.540009 l -2.5200043 20.859985 l -1.9599915 22.180023 l -1.4000092 23.5 l -0.83999634 24.819977 l 0.0 56.400024 l 68.40144 59.691162 l -68.40144 53.108826 l 22.50795 51.737488 l -22.50795 61.0625 l -23.38559 43.783875 l 23.38559 69.016174 l -69.2791 35.83014 l -45.893524 100.00806 l 27.165726 106.26172 l 0.0 0.0 l -62.939884 -6.1035156e-05 l 0.0 0.0 l 173.44678 -72.8999 l 22.5 0.0 l -52.97667 72.89966 l 0.0 0.0 l 73.10132 -0.0004272461 l 0.0 0.0 l 34.94998 -56.26056 l 12.425354 -16.638672 l 14.473206 -33.368774 l 30.526794 33.368774 l 22.5 0.0 l 22.5 0.0 l 22.5 0.0 " /> </g> </svg>