<?xml version="1.0" standalone="no"?><!DOCTYPE svg PUBLIC "-//W3C//DTD SVG 1.1//EN" "http://www.w3.org/Graphics/SVG/1.1/DTD/svg11.dtd" ><svg xmlns="http://www.w3.org/2000/svg" xmlns:xlink="http://www.w3.org/1999/xlink" version="1.1" viewBox="-10 0 692 1000"><g transform="matrix(1 0 0 -1 0 800)"><path stroke="black" fill="none" d="M 338.61795 809.89777 l 25.14566 -54.702637 l 25.14569 -54.702576 l 25.14569 -54.702576 l 25.757263 -55.707214 l 24.551697 -53.287354 l 77.24939 -51.677734 l 23.00824 50.13867 l -69.5921 -64.95267 l 18.265503 -39.65674 l -201.01599 -81.19913 l 50.153534 -104.11035 l 50.174133 -103.97995 l 201.5607 -0.031295776 l 50.58972 103.959076 l 50.58972 104.16774 l 50.490967 103.99606 l 50.490967 104.11658 l -201.42163 87.21857 l -24.45227 -53.28186 l 50.153442 109.016785 l 25.045898 54.702576 l 25.045898 54.702637 l 25.045837 54.702515 l 25.094482 54.702576 l 175.95831 54.675964 l -0.1638794 0.0 l -43.506714 6.1035156e-05 l 0.0 0.0 l -50.61383 0.0 l 17.67804 0.0 l -54.378906 0.0 l -16.991821 0.0 l 175.84686 -0.0007324219 l 22.59961 0.00030517578 l 51.308594 0.00036621094 l -24.51538 0.0 l -25.77478 -104.091 l -50.490967 -104.118774 l -50.490906 -104.11871 l -303.727 -624.73956 l -50.636597 -103.86707 l -50.160645 103.88628 l -200.98495 416.54117 l -50.091766 104.11871 l -50.091812 104.118774 l -50.09178 104.118774 l -50.091793 103.99719 l 69.82289 104.1543 l -17.50441 0.0 l -32.61019 0.0 l -16.906868 0.0 l -51.604042 0.0 l 22.643852 0.0 l 172.36209 0.0 l -0.6134033 0.0 l -14.522491 0.0 l -29.283081 0.0 l 99.70436 0.0 l 0.0 0.0 l -0.00061035156 0.0 l -0.011932373 0.0 l -23.873505 0.0 l 49.10205 -54.739258 l 25.242645 -54.582092 " /> </g> </svg>