<?xml version="1.0" standalone="no"?><!DOCTYPE svg PUBLIC "-//W3C//DTD SVG 1.1//EN" "http://www.w3.org/Graphics/SVG/1.1/DTD/svg11.dtd" ><svg xmlns="http://www.w3.org/2000/svg" xmlns:xlink="http://www.w3.org/1999/xlink" version="1.1" viewBox="-10 0 692 1000"><g transform="matrix(1 0 0 -1 0 800)"><path stroke="black" fill="none" d="M 338.60013 809.9 l 25.199585 -54.700012 l 25.199615 -54.700012 l 25.199585 -54.700073 l 25.204102 -54.707397 l 25.19522 -54.689575 l 75.51294 -54.677795 l 25.084595 54.666443 l -75.3573 -54.775482 l 25.148987 -54.589264 l -202.78687 -77.626465 l 50.199646 -104.10007 l 50.1998 -104.09914 l 201.5997 -0.00022888184 l 50.599915 104.09897 l 50.599976 104.100494 l 50.599182 104.09924 l 50.599182 104.10007 l -201.2016 88.19281 l -25.095276 -54.689575 l 50.199646 109.39722 l 25.09967 54.700012 l 25.099548 54.700012 l 25.09961 54.700012 l 25.099976 54.700012 l 176.89307 54.69983 l -25.746155 0.0 l -24.700989 0.0 l -50.701965 0.0 l 25.243896 0.0 l -50.627808 0.0 l -25.238892 0.0 l 177.09076 0.0 l 25.280212 0.0 l 50.605164 0.0 l -25.29419 0.0 l -25.303467 -104.099915 l -50.599243 -104.10016 l -50.599182 -104.10016 l -303.60095 -624.601 l -50.60028 -104.09828 l -50.199677 104.09842 l -200.80139 416.40103 l -50.199173 104.1001 l -50.19922 104.10022 l -50.199203 104.1001 l -50.199203 104.099304 l 75.75601 104.10034 l -25.143356 0.0 l -25.25454 0.0 l -25.138973 0.0 l -50.40886 0.0 l 25.181187 0.0 l 176.3703 0.0 l -25.125946 0.0 l -25.230057 0.0 l 100.79222 0.0 l 0.0 0.0 l 0.0 0.0 l 0.0 0.0 l -25.190613 0.0 l 50.39044 -54.700317 l 25.200317 -54.699097 " /> </g> </svg>