<?xml version="1.0" standalone="no"?><!DOCTYPE svg PUBLIC "-//W3C//DTD SVG 1.1//EN" "http://www.w3.org/Graphics/SVG/1.1/DTD/svg11.dtd" ><svg xmlns="http://www.w3.org/2000/svg" xmlns:xlink="http://www.w3.org/1999/xlink" version="1.1" viewBox="-10 0 692 1000"><g transform="matrix(1 0 0 -1 0 800)"><path stroke="black" fill="none" d="M 338.60153 809.89984 l 25.195312 -54.700256 l 25.195374 -54.700195 l 25.195343 -54.700256 l 25.247803 -54.786438 l 25.144379 -54.578735 l 75.650116 -54.440765 l 24.920532 54.308746 l -74.901764 -55.57959 l 24.605072 -53.409485 l -202.64691 -77.90872 l 50.196014 -104.10089 l 50.197754 -104.08971 l 201.59665 -0.0026855469 l 50.59912 104.087906 l 50.59912 104.105835 l 50.590637 104.091064 l 50.5907 104.10138 l -201.21906 88.115845 l -25.044434 -54.57837 l 50.195984 109.36713 l 25.095398 54.700256 l 25.095337 54.700256 l 25.095337 54.700134 l 25.099548 54.700256 l 176.81921 54.697937 l -30.50055 0.0 l -18.317505 0.0 l -51.788635 0.0 l 24.646118 0.0 l -50.924255 0.0 l -24.58722 0.0 l 176.99243 -6.1035156e-05 l 25.06842 0.0 l 50.660767 6.1035156e-05 l -25.232666 0.0 l -25.34076 -104.09918 l -50.5907 -104.101685 l -50.590576 -104.10156 l -303.6109 -624.612 l -50.60315 -104.08002 l -50.196625 104.081665 l -200.81586 416.41208 l -50.190704 104.10162 l -50.190735 104.10162 l -50.190712 104.10156 l -50.190716 104.09125 l 75.28725 104.104614 l -24.539825 0.0 l -25.835701 0.0 l -24.48856 0.0 l -50.50329 0.0 l 24.980719 0.0 l 176.0536 0.0 l -24.336624 0.0 l -25.550293 0.0 l 100.70914 0.0 l 0.0 0.0 l 0.0 0.0 l -3.0517578e-05 0.0 l -25.090363 0.0 l 50.288635 -54.70337 l 25.203644 -54.68988 " /> </g> </svg>