<?xml version="1.0" standalone="no"?><!DOCTYPE svg PUBLIC "-//W3C//DTD SVG 1.1//EN" "http://www.w3.org/Graphics/SVG/1.1/DTD/svg11.dtd" ><svg xmlns="http://www.w3.org/2000/svg" xmlns:xlink="http://www.w3.org/1999/xlink" version="1.1" viewBox="-10 0 692 1000"><g transform="matrix(1 0 0 -1 0 800)"><path stroke="black" fill="none" d="M 338.60013 809.9 l 25.19989 -54.700012 l 25.19989 -54.700012 l 25.19989 -54.700073 l 25.201172 -54.70215 l 25.198608 -54.6969 l 75.503815 -54.693542 l 25.095459 54.690186 l -75.38748 -54.722107 l 25.185028 -54.667572 l -202.79611 -77.60773 l 50.19989 -104.10002 l 50.19995 -104.09976 l 201.59988 -6.1035156e-05 l 50.599976 104.0997 l 50.600037 104.10014 l 50.59973 104.09976 l 50.599792 104.10004 l -201.2005 88.197876 l -25.098633 -54.69696 l 50.19989 109.39923 l 25.099976 54.700012 l 25.099792 54.700012 l 25.099915 54.69995 l 25.099976 54.700012 l 176.89795 54.69995 l -25.430664 0.0 l -25.124512 0.0 l -50.629883 0.0 l 25.28357 0.0 l -50.608154 0.0 l -25.282104 0.0 l 177.09729 0.0 l 25.29425 0.0 l 50.6015 0.0 l -25.29834 0.0 l -25.300964 -104.099976 l -50.599854 -104.10004 l -50.59973 -104.10004 l -303.60022 -624.6003 l -50.60016 -104.0995 l -50.19986 104.09954 l -200.80042 416.40027 l -50.199753 104.100006 l -50.199783 104.1001 l -50.199768 104.10004 l -50.199764 104.09979 l 75.787125 104.1001 l -25.18341 0.0 l -25.215973 0.0 l -25.182129 0.0 l -50.402596 0.0 l 25.194492 0.0 l 176.3913 0.0 l -25.178299 0.0 l -25.208817 0.0 l 100.797714 0.0 l 0.0 0.0 l 0.0 0.0 l 0.0 0.0 l -25.197235 0.0 l 50.397186 -54.700073 l 25.200073 -54.699768 " /> </g> </svg>