<?xml version="1.0" standalone="no"?><!DOCTYPE svg PUBLIC "-//W3C//DTD SVG 1.1//EN" "http://www.w3.org/Graphics/SVG/1.1/DTD/svg11.dtd" ><svg xmlns="http://www.w3.org/2000/svg" xmlns:xlink="http://www.w3.org/1999/xlink" version="1.1" viewBox="-10 0 692 1000"><g transform="matrix(1 0 0 -1 0 800)"><path stroke="black" fill="none" d="M 338.80902 809.87354 l 24.566803 -54.730164 l 24.566833 -54.730164 l 24.566803 -54.730164 l 31.696106 -66.44061 l 17.642487 -38.23358 l 95.89224 -19.469482 l 0.9299927 1.996521 l -49.53189 -83.48163 l 0.0 0.0 l -196.01804 -90.09729 l 49.65854 -104.22061 l 49.898468 -102.700485 l 201.14166 -0.3648224 l 50.480408 102.457245 l 50.480408 104.889465 l 49.328613 102.888916 l 49.328613 104.29346 l -203.78271 76.759766 l -17.54956 -38.169495 l 49.656982 104.93286 l 24.469421 54.730164 l 24.4693 54.730164 l 24.4693 54.730103 l 25.034668 54.730164 l 166.42761 54.419556 l 0.0 0.0 l -1.6039429 -0.00012207031 l -49.522644 0.00061035156 l 0.0 0.0 l -79.33484 6.1035156e-05 l 0.0 0.0 l 185.21295 -0.008544922 l 0.38452148 0.00048828125 l 52.29712 0.0076293945 l -0.1749878 0.0 l -15.979187 -0.00030517578 l -30.834717 -103.99524 l -49.328674 -104.3186 l -49.328613 -104.3186 l -305.08038 -626.2267 l -51.026184 -101.38486 l -49.741425 101.608734 l -202.9556 418.0455 l -48.938644 104.31854 l -48.938675 104.318665 l -48.93866 104.31854 l -48.93866 102.90155 l 43.355827 104.733154 l 0.0 0.0 l -35.570625 0.0 l 0.0 0.0 l -41.69617 0.0 l 0.53728104 0.0 l 154.39735 -6.1035156e-05 l 0.0 0.0 l -10.880722 6.1035156e-05 l 83.0903 0.0 l 0.0 0.0 l -4.9461823 -6.1035156e-05 l 35.270645 -55.157288 l 25.69748 -53.32556 " /> </g> </svg>