<?xml version="1.0" standalone="no"?><!DOCTYPE svg PUBLIC "-//W3C//DTD SVG 1.1//EN" "http://www.w3.org/Graphics/SVG/1.1/DTD/svg11.dtd" ><svg xmlns="http://www.w3.org/2000/svg" xmlns:xlink="http://www.w3.org/1999/xlink" version="1.1" viewBox="-10 0 692 1000"><g transform="matrix(1 0 0 -1 0 800)"><path stroke="black" fill="none" d="M 338.60046 809.89996 l 25.198639 -54.700073 l 25.198639 -54.700073 l 25.198639 -54.700073 l 25.21399 -54.72534 l 25.183716 -54.66443 l 75.54401 -54.624146 l 25.047424 54.58545 l -75.25409 -54.957672 l 25.025757 -54.32199 l -202.75516 -77.6904 l 50.198822 -104.100266 l 50.19934 -104.097 l 201.599 -0.00077819824 l 50.59973 104.096466 l 50.599792 104.1017 l 50.59723 104.09738 l 50.59729 104.1004 l -201.20557 88.175354 l -25.08374 -54.66443 l 50.19879 109.39044 l 25.098694 54.700073 l 25.098633 54.700073 l 25.098633 54.700012 l 25.099854 54.700073 l 176.87634 54.6994 l -26.823181 0.0 l -23.254883 0.0 l -50.94812 0.0 l 25.10846 0.0 l -50.695007 0.0 l -25.091248 0.0 l 177.06848 0.0 l 25.232239 0.0 l 50.617798 0.0 l -25.280273 0.0 l -25.31195 -104.09973 l -50.59729 -104.100525 l -50.59723 -104.100464 l -303.6032 -624.6035 l -50.60089 -104.09415 l -50.199036 104.09462 l -200.80466 416.40353 l -50.19725 104.100464 l -50.197296 104.100464 l -50.19728 104.100464 l -50.197277 104.09747 l 75.649826 104.10132 l -25.006638 0.0 l -25.3862 0.0 l -24.991623 0.0 l -50.430252 0.0 l 25.135773 0.0 l 176.29855 0.0 l -24.947128 0.0 l -25.302597 0.0 l 100.77342 0.0 l 0.0 0.0 l 0.0 0.0 l 0.0 0.0 l -25.167938 0.0 l 50.36737 -54.70099 l 25.20108 -54.69702 " /> </g> </svg>