<?xml version="1.0" standalone="no"?><!DOCTYPE svg PUBLIC "-//W3C//DTD SVG 1.1//EN" "http://www.w3.org/Graphics/SVG/1.1/DTD/svg11.dtd" ><svg xmlns="http://www.w3.org/2000/svg" xmlns:xlink="http://www.w3.org/1999/xlink" version="1.1" viewBox="-10 0 692 1000"><g transform="matrix(1 0 0 -1 0 800)"><path stroke="black" fill="none" d="M 289.49976 918.4002 l 25.499817 -55.599426 l 25.499817 -55.599426 l 25.499817 -55.599487 l 25.499786 -55.599365 l 25.499817 -55.599426 l 25.499817 -55.599487 l 25.499817 -55.599426 l 25.499817 -55.599396 l 25.499817 -55.599457 l 27.498474 64.493805 l 27.498474 64.493805 l 27.498474 64.493835 l 27.514343 64.52832 l 27.498474 64.493835 l 27.498474 64.493835 l 27.498535 64.493774 l 27.498474 64.493835 l 27.498474 64.493835 l 27.498596 64.45929 l 27.698486 -64.45929 l 27.698486 -64.45929 l 54.899475 -127.843445 l -27.038452 62.958557 l 596.63617 -102.63641 l 49.851685 102.31836 l -180.87122 105.17767 l -17.651367 0.0 l 53.79492 0.0 l 18.102173 0.0 l 171.6654 0.0 l -36.873047 0.0 l -1.3815918 0.0 l -99.35486 0.0 l -1.2503662 0.0 l 51.344727 0.0 l -1.682373 0.0 l -252.35559 -211.29993 l 18.373413 40.537964 l -47.74475 -105.34143 l 76.698975 168.70038 l 23.12268 51.22705 l 123.38074 -259.7295 l -49.803223 -102.27222 l -438.61035 184.32794 l 53.577637 -124.75281 l -25.497131 59.370544 l 210.11395 -36.11432 l -0.25170898 -0.45928955 l -23.137573 -51.01007 l -130.94324 -39.966125 l 54.851196 -128.16696 l 48.450317 108.9025 l -0.4222412 -0.3314209 l -57.840454 -48.194122 l -6.2874756 1.0583191 l -207.59302 -50.73819 l -26.449585 61.211517 l -54.1073 1.4712524 l 26.736938 61.18878 l 526.022 -103.37689 l -50.64392 -103.967926 l -367.3152 -41.947784 l -26.436523 61.165283 l 54.55768 -126.22537 l 28.199219 -65.242935 l 24.919556 -57.65522 l -270.85632 250.66418 l 26.735352 61.179108 l -54.53009 -124.7825 l 483.38806 -165.20164 l 49.80127 102.238235 l -173.99585 -263.5743 l 20.818115 -48.62621 l 45.41272 104.4752 l -96.90613 15.712219 l 0.015319824 -0.02728653 l -356.11737 191.88333 l -27.218445 -62.28453 l -54.40399 -124.489914 l 26.736328 61.180832 l -127.24213 -87.231766 l 4.5032654 -3.337738 l 57.718414 -57.65308 l 3.9690552 8.868286 l -131.9213 179.84329 l -38.411285 79.01126 l -54.249176 111.5863 l -50.899567 104.699615 l -50.899567 104.699646 l -50.89955 104.699646 l -50.89956 104.699524 l -50.89956 104.699646 l -50.89956 104.699646 l 25.299934 0.0 l 25.299938 0.0 l 25.299938 0.0 l 25.299934 0.0 l 25.299927 0.0 l 25.299942 0.0 l 25.299942 0.0 l 25.299927 0.0 l 25.299942 0.0 l 25.300568 0.0 l 0.0 0.0 l 0.0 0.0 l 0.0 0.0 " /> </g> </svg>