<?xml version="1.0" standalone="no"?><!DOCTYPE svg PUBLIC "-//W3C//DTD SVG 1.1//EN" "http://www.w3.org/Graphics/SVG/1.1/DTD/svg11.dtd" ><svg xmlns="http://www.w3.org/2000/svg" xmlns:xlink="http://www.w3.org/1999/xlink" version="1.1" viewBox="-10 0 692 1000"><g transform="matrix(1 0 0 -1 0 800)"><path stroke="black" fill="none" d="M 263.0 974.0 l 26.388489 -55.522766 l 25.474243 -55.522827 l 25.474274 -55.522766 l 25.474274 -55.522827 l 25.474243 -55.522766 l 25.474274 -55.522766 l 25.474274 -55.522827 l 25.474243 -55.522766 l 25.474274 -55.522797 l 25.474274 -55.522797 l 27.294128 63.65927 l 27.294067 63.65927 l 27.294128 63.6593 l 14.86084 36.05005 l 14.586548 32.301758 l 27.294067 63.6593 l 27.294128 63.6593 l 27.294128 63.6593 l 27.294128 63.6593 l 27.294067 63.6593 l 27.31128 58.966736 l 27.49414 -58.966736 l 27.49408 -58.966797 l 33.831482 -78.66412 l 0.0 0.0 l 9.911926 115.232666 l 25.299988 0.0 l 25.299988 0.0 l 25.300049 0.0 l 25.299988 0.0 l 25.299988 0.0 l 509.24072 -74.034485 l 0.0 0.0 l -1.7861328 74.03363 l 0.0 0.0 l -184.22046 -0.2078247 l 0.0 0.0 l 25.888428 -382.39758 l 0.0 0.0 l -415.45325 101.5838 l 0.8171387 -1.8438721 l 168.17957 -134.01044 l 0.0 0.0 l -65.12097 -80.712006 l 0.0 0.0 l -245.65125 8.594055 l 0.0 0.0 l -20.263 45.515656 l 0.0 0.0 l 511.8155 -114.93964 l 0.0 0.0 l -2.6330566 -5.234497 l -411.0224 -76.812164 l 0.0 0.0 l 83.76654 -192.69559 l 0.0 0.0 l -244.6565 261.90204 l 0.0 0.0 l -29.852173 -68.32083 l 499.05872 -134.73756 l 0.0 0.0 l -143.04565 -238.7874 l 0.0 0.0 l -408.39117 253.69331 l 0.0 0.0 l -2.730774 -6.2454987 l -52.182617 -117.78777 l 0.0 0.0 l -173.0376 46.256462 l -50.839935 104.64853 l -50.839966 104.64853 l -50.839966 104.6485 l -50.839935 104.64853 l -50.83995 104.64856 l -50.839943 104.6485 l -50.83995 104.6485 l -50.83995 104.64856 l 25.29142 0.0 l 25.29142 0.0 l 25.291428 0.0 l 25.291412 0.0 l 25.29142 0.0 l 25.291428 0.0 l 25.291428 0.0 l 25.291397 0.0 l 25.291428 0.0 l 25.369858 0.0 l 0.0 0.0 l -6.1035156e-05 0.0 " /> </g> </svg>