<?xml version="1.0" standalone="no"?><!DOCTYPE svg PUBLIC "-//W3C//DTD SVG 1.1//EN" "http://www.w3.org/Graphics/SVG/1.1/DTD/svg11.dtd" ><svg xmlns="http://www.w3.org/2000/svg" xmlns:xlink="http://www.w3.org/1999/xlink" version="1.1" viewBox="-10 0 692 1000"><g transform="matrix(1 0 0 -1 0 800)"><path stroke="black" fill="none" d="M 289.49997 918.4 l 25.49997 -55.599976 l 25.5 -55.599976 l 25.49997 -55.599976 l 25.5 -55.599915 l 25.49997 -55.599915 l 25.49997 -55.599976 l 25.5 -55.599976 l 25.5 -55.599945 l 25.499939 -55.599945 l 27.499878 64.49948 l 27.499878 64.49948 l 27.499878 64.49945 l 27.50122 64.50244 l 27.499878 64.49945 l 27.499878 64.49945 l 27.499878 64.49951 l 27.499878 64.49945 l 27.499878 64.49945 l 27.499878 64.49646 l 27.69983 -64.49646 l 27.69989 -64.49652 l 55.357056 -128.90076 l -27.64325 64.36774 l 595.96313 -104.70581 l 50.90149 104.49573 l -176.23499 104.74097 l -24.55249 0.0 l 50.691284 0.0 l 24.591064 0.0 l 175.9939 0.0 l -26.201416 0.0 l -23.14795 0.0 l -77.64661 0.0 l -23.131592 0.0 l 73.50537 0.0 l -23.179321 0.0 l -252.03369 -221.44775 l 24.61438 54.30786 l -50.17224 -110.69739 l 75.694214 166.96301 l 25.021973 55.224854 l 124.12964 -258.60547 l -50.89734 -104.4917 l -438.50946 185.21661 l 55.243652 -128.63568 l -27.511047 64.05994 l 211.47253 -35.644043 l -25.044678 -55.245728 l -130.99512 -37.98578 l 55.352905 -128.92856 l 50.232788 111.0029 l -28.036377 -54.993103 l -48.901245 8.227295 l -196.17175 -53.628723 l -27.04419 62.572327 l -54.46631 0.12619019 l 27.343079 62.570404 l 526.0019 -103.48953 l -50.969482 -104.63718 l -366.66132 -42.544006 l -27.04303 62.5683 l 54.23065 -125.47078 l 27.194336 -62.91815 l 26.912903 -62.26722 l -271.81042 250.78836 l 27.342957 62.56952 l -54.776855 -125.347015 l 482.66754 -166.6629 l 50.897217 104.488815 l -179.5763 -252.44438 l 26.561035 -61.492664 l 50.52063 104.68072 l -104.4884 20.27212 l -353.9975 188.42221 l -27.3844 -62.664352 l -54.766052 -125.32193 l 27.343079 62.569683 l -132.59747 -83.72872 l 51.871216 -100.95035 l 25.389954 58.081974 l -129.43344 149.54324 l -49.828644 102.49625 l -51.187286 105.29074 l -50.899994 104.69995 l -50.899963 104.69998 l -50.89995 104.70001 l -50.89997 104.69989 l -50.899963 104.70001 l -50.899963 104.69995 l 25.299995 0.0 l 25.299992 0.0 l 25.3 0.0 l 25.299988 0.0 l 25.299988 0.0 l 25.300003 0.0 l 25.300003 0.0 l 25.299973 0.0 l 25.300003 0.0 l 25.300049 0.0 l 0.0 0.0 l 0.0 0.0 l 0.0 0.0 " /> </g> </svg>