<?xml version="1.0" standalone="no"?><!DOCTYPE svg PUBLIC "-//W3C//DTD SVG 1.1//EN" "http://www.w3.org/Graphics/SVG/1.1/DTD/svg11.dtd" ><svg xmlns="http://www.w3.org/2000/svg" xmlns:xlink="http://www.w3.org/1999/xlink" version="1.1" viewBox="-10 0 692 1000"><g transform="matrix(1 0 0 -1 0 800)"><path stroke="black" fill="none" d="M 289.49918 918.4006 l 25.49936 -55.598083 l 25.49936 -55.598083 l 25.49936 -55.598083 l 25.499329 -55.598022 l 25.49936 -55.598022 l 25.49936 -55.598083 l 25.49936 -55.598083 l 25.49936 -55.598053 l 25.49936 -55.598053 l 27.494812 64.47885 l 27.494812 64.47891 l 27.494812 64.47882 l 27.54895 64.5968 l 27.494812 64.47888 l 27.494873 64.47888 l 27.494812 64.47888 l 27.494812 64.47888 l 27.494812 64.47888 l 27.4953 64.3609 l 27.694824 -64.3609 l 27.694824 -64.36096 l 53.691162 -125.05121 l -25.441284 59.237183 l 598.41327 -97.17163 l 47.07959 96.56854 l -193.1145 106.33087 l -0.7952881 0.0 l 63.35913 0.0 l 1.3067627 0.0 l 159.8949 0.0 l -20.781128 0.0 l 0.0 0.0 l -98.54578 0.0 l 0.0 0.0 l 41.860596 0.0 l 0.0 0.0 l -236.93433 -184.50189 l 1.892334 4.174988 l -41.33423 -91.19769 l 79.35193 173.28827 l 18.107422 40.66974 l 121.402954 -262.69763 l -46.91394 -96.41107 l -438.87665 181.9812 l 49.17798 -114.499084 l -20.178772 46.98694 l 206.52625 -37.35608 l -0.018310547 -0.03338623 l -18.999512 -41.463623 l -130.80603 -45.19574 l 53.526245 -126.15582 l 43.743286 103.355896 l -0.030273438 -0.023864746 l -60.640503 -44.453094 l 0.0 0.0 l -208.92114 -47.94757 l -24.879333 57.61798 l -53.1593 5.023224 l 25.13617 57.540405 l 526.0753 -103.07962 l -49.784668 -102.20062 l -369.04175 -40.37317 l -24.834717 57.460205 l 55.421387 -128.21806 l 30.852783 -71.38214 l 19.655518 -45.47603 l -268.3366 250.33633 l 25.130737 57.507263 l -53.87854 -123.29175 l 485.2907 -161.34279 l 46.907227 96.29501 l -159.25903 -292.96576 l 5.6520996 -14.649075 l 31.924194 103.93248 l -76.8833 3.6706467 l 0.0 0.0 l -361.65955 200.92392 l -26.780151 -61.281494 l -53.447998 -122.29276 l 25.134155 57.51323 l -113.1001 -96.48245 l 0.108795166 -0.08063507 l 49.943512 -43.618874 l 0.0 0.0 l -151.58688 226.99725 l -8.260864 16.99321 l -62.33484 128.21135 l -50.8985 104.6987 l -50.8985 104.69873 l -50.898483 104.69873 l -50.89849 104.69861 l -50.89849 104.69873 l -50.89849 104.69873 l 25.299782 0.0 l 25.299786 0.0 l 25.299786 0.0 l 25.299782 0.0 l 25.299774 0.0 l 25.29979 0.0 l 25.29979 0.0 l 25.299774 0.0 l 25.29979 0.0 l 25.30194 0.0 l 0.0 0.0 l 0.0 0.0 l 0.0 0.0 " /> </g> </svg>