<?xml version="1.0" standalone="no"?><!DOCTYPE svg PUBLIC "-//W3C//DTD SVG 1.1//EN" "http://www.w3.org/Graphics/SVG/1.1/DTD/svg11.dtd" ><svg xmlns="http://www.w3.org/2000/svg" xmlns:xlink="http://www.w3.org/1999/xlink" version="1.1" viewBox="-10 0 692 1000"><g transform="matrix(1 0 0 -1 0 800)"><path stroke="black" fill="none" d="M 289.49045 918.4067 l 25.492462 -55.577454 l 25.492462 -55.57733 l 25.492462 -55.577454 l 25.492462 -55.57733 l 25.492462 -55.577393 l 25.492462 -55.577393 l 25.492462 -55.577393 l 25.492462 -55.577393 l 25.492432 -55.577393 l 27.439697 64.25375 l 27.439697 64.25375 l 27.439697 64.253784 l 28.070374 65.628174 l 27.439697 64.25372 l 27.439697 64.253784 l 27.439697 64.253784 l 27.439697 64.253784 l 27.439697 64.25372 l 27.444702 62.879395 l 27.63977 -62.879395 l 27.639648 -62.879333 l 35.480896 -82.969604 l -1.3918457 3.2023926 l 625.2176 -14.861389 l 5.300537 9.912842 l -29.104492 123.71069 l 0.0 0.0 l 46.834717 0.0 l 0.0 0.0 l -348.13635 -308.0183 l 0.0 0.0 l 158.76843 307.88232 l 0.0 0.0 l 42.486572 -385.81982 l -3.3690186 -8.076782 l -442.8911 146.61359 l 26.894714 -62.50287 l 0.0 0.0 l 137.27863 -126.74347 l 0.0 0.0 l -50.74707 18.349304 l 33.558594 -95.8461 l -29.124634 16.758728 l 0.0 0.0 l -229.21387 -2.2964478 l -1.2285156 3.492096 l -38.856934 58.522217 l 1.0754395 2.6981812 l 526.81384 -98.742004 l -0.01940918 -0.038757324 l -36.813232 -75.52655 l -395.06384 -16.642395 l -0.8955078 2.0845642 l 68.639404 -158.71364 l 23.818542 -55.103928 l 0.0 0.0 l -243.01477 274.66992 l 1.052185 2.4078674 l -44.16339 -101.06348 l 513.9655 -103.18576 l 3.291626 6.7243805 l -141.65527 -268.05786 l 0.0 0.0 l -40.124146 88.02805 l 0.0 0.0 l -370.1938 197.05746 l -0.012207031 -0.027908325 l -20.162231 -46.13672 l -39.04077 -89.17949 l 1.0823364 2.4544678 l -61.822937 -117.06966 l 0.0 0.0 l -166.54886 258.25433 l -50.882416 104.68492 l -50.882446 104.684906 l -50.8824 104.68494 l -50.8824 104.68494 l -50.882416 104.684875 l -50.882412 104.68494 l -50.882412 104.68494 l 25.297485 0.0 l 25.29749 0.0 l 25.29749 0.0 l 25.297485 0.0 l 25.297485 0.0 l 25.297485 0.0 l 25.297485 0.0 l 25.297485 0.0 l 25.297485 0.0 l 25.321976 0.0 l 0.0 0.0 l 0.0 0.0 l 0.0 0.0 " /> </g> </svg>