<?xml version="1.0" standalone="no"?><!DOCTYPE svg PUBLIC "-//W3C//DTD SVG 1.1//EN" "http://www.w3.org/Graphics/SVG/1.1/DTD/svg11.dtd" ><svg xmlns="http://www.w3.org/2000/svg" xmlns:xlink="http://www.w3.org/1999/xlink" version="1.1" viewBox="-10 0 692 1000"><g transform="matrix(1 0 0 -1 0 800)"><path stroke="black" fill="none" d="M 289.49994 918.4001 l 25.499939 -55.599854 l 25.49997 -55.599854 l 25.499939 -55.599854 l 25.499939 -55.599792 l 25.499939 -55.599854 l 25.499939 -55.599854 l 25.499939 -55.599792 l 25.49997 -55.599854 l 25.499939 -55.599854 l 27.499573 64.4982 l 27.499512 64.4982 l 27.499573 64.49817 l 27.504211 64.5083 l 27.499573 64.49823 l 27.499512 64.49817 l 27.499573 64.49817 l 27.499573 64.49817 l 27.499573 64.49823 l 27.499573 64.48804 l 27.699524 -64.48804 l 27.699585 -64.4881 l 55.253357 -128.66125 l -27.506226 64.04852 l 596.1156 -104.237 l 50.663696 104.00244 l -177.28528 104.839905 l -22.989136 0.0 l 51.39441 0.0 l 23.121094 0.0 l 175.0133 0.0 l -28.619019 0.0 l -18.193848 0.0 l -82.587524 0.0 l -18.138184 0.0 l 68.44873 0.0 l -18.30127 0.0 l -252.11487 -219.14886 l 23.200684 51.188416 l -49.622314 -109.48407 l 75.92175 167.35663 l 24.591675 54.319214 l 123.95996 -258.8601 l -50.649414 -103.98895 l -438.53235 185.01532 l 54.866272 -127.75604 l -27.05481 62.99762 l 211.16473 -35.75061 l -24.669678 -54.390198 l -130.98334 -38.43445 l 55.23932 -128.75601 l 49.828857 110.52707 l -34.88379 -53.527924 l -39.247437 6.6032104 l -198.75922 -52.973877 l -26.909485 62.264038 l -54.38495 0.4309082 l 27.20575 62.257416 l 526.0065 -103.46402 l -50.895752 -104.485565 l -366.80945 -42.408936 l -26.90564 62.250458 l 54.30475 -125.64174 l 27.421936 -63.444794 l 26.461365 -61.22242 l -271.5943 250.76022 l 27.205322 62.254547 l -54.720947 -125.21915 l 482.8308 -166.33186 l 50.648926 103.97897 l -178.31213 -254.96577 l 25.26001 -58.57788 l 49.363525 104.634155 l -102.77069 19.239117 l 0.17510986 -0.31160736 l -354.6494 189.51173 l -27.346802 -62.57831 l -54.68402 -125.13345 l 27.205627 62.255047 l -131.38428 -84.5223 l 54.216003 -91.89787 l 20.537292 46.933056 l -129.99707 156.40744 l -47.242157 97.175934 l -51.88092 106.716965 l -50.899902 104.69986 l -50.89987 104.69989 l -50.899857 104.69995 l -50.89988 104.69983 l -50.89987 104.69989 l -50.89987 104.69989 l 25.29998 0.0 l 25.29998 0.0 l 25.299988 0.0 l 25.299973 0.0 l 25.29998 0.0 l 25.299988 0.0 l 25.299988 0.0 l 25.299957 0.0 l 25.299988 0.0 l 25.30017 0.0 l 0.0 0.0 l 0.0 0.0 l 0.0 0.0 " /> </g> </svg>