<?xml version="1.0" standalone="no"?><!DOCTYPE svg PUBLIC "-//W3C//DTD SVG 1.1//EN" "http://www.w3.org/Graphics/SVG/1.1/DTD/svg11.dtd" ><svg xmlns="http://www.w3.org/2000/svg" xmlns:xlink="http://www.w3.org/1999/xlink" version="1.1" viewBox="-10 0 692 1000"><g transform="matrix(1 0 0 -1 0 800)"><path stroke="black" fill="none" d="M 263.0 974.0 l 26.119232 -55.336365 l 25.41214 -55.336426 l 25.41214 -55.336365 l 25.41211 -55.336426 l 25.41214 -55.336426 l 25.41214 -55.336365 l 25.41214 -55.336426 l 25.41211 -55.336365 l 25.41214 -55.336395 l 25.41214 -55.336395 l 26.797058 61.62964 l 26.797058 61.62964 l 26.797058 61.62964 l 17.18042 40.275024 l 16.968262 37.375916 l 26.797058 61.62964 l 26.797058 61.62964 l 26.797058 61.62964 l 26.797058 61.62964 l 26.797058 61.62964 l 26.85559 45.6084 l 26.99707 -45.6084 l 26.99707 -45.6084 l 26.99701 -45.608337 l 18.299683 73.89264 l 25.299988 0.0 l 25.299988 0.0 l 25.300049 0.0 l 25.299988 0.0 l 25.299988 0.0 l 495.33972 -0.01373291 l 0.0 0.0 l -285.3286 -348.20496 l 0.0 0.0 l -280.24524 71.04291 l 0.0 0.0 l 144.12048 -171.79724 l 0.0 0.0 l -337.70233 -85.94751 l 0.0 0.0 l 483.32037 -142.85333 l 0.0 0.0 l -271.36926 -156.23357 l 0.0 0.0 l -319.4815 79.00328 l 0.0 0.0 l 405.47418 -257.7187 l 0.0 0.0 l -462.04358 128.54839 l 0.0 0.0 l -123.82944 -56.543915 l -50.694977 104.52426 l -50.694977 104.52426 l -50.694977 104.52426 l -50.694977 104.52426 l -50.694977 104.52426 l -50.694977 104.52429 l -50.69497 104.52423 l -50.694977 104.52423 l -50.694977 104.52429 l 25.27071 0.0 l 25.27071 0.0 l 25.270714 0.0 l 25.270706 0.0 l 25.270714 0.0 l 25.270706 0.0 l 25.270721 0.0 l 25.27069 0.0 l 25.270721 0.0 l 25.477814 0.0 l 0.0 0.0 " /> </g> </svg>