<?xml version="1.0" standalone="no"?><!DOCTYPE svg PUBLIC "-//W3C//DTD SVG 1.1//EN" "http://www.w3.org/Graphics/SVG/1.1/DTD/svg11.dtd" ><svg xmlns="http://www.w3.org/2000/svg" xmlns:xlink="http://www.w3.org/1999/xlink" version="1.1" viewBox="-10 0 692 1000"><g transform="matrix(1 0 0 -1 0 800)"><path stroke="black" fill="none" d="M 289.5 918.4 l 25.5 -55.600037 l 25.5 -55.599976 l 25.5 -55.600037 l 25.5 -55.599976 l 25.5 -55.599976 l 25.49997 -55.599976 l 25.5 -55.599976 l 25.5 -55.600037 l 25.50003 -55.600006 l 27.499939 64.49997 l 27.5 64.49994 l 27.5 64.5 l 27.500122 64.50018 l 27.5 64.49994 l 27.5 64.49994 l 27.499939 64.5 l 27.5 64.49994 l 27.5 64.49994 l 27.5 64.49963 l 27.700012 -64.49963 l 27.699951 -64.499695 l 55.3963 -128.99152 l -27.69513 64.48871 l 595.90546 -104.88336 l 50.991455 104.682434 l -175.83716 104.70355 l -25.144531 0.0 l 50.42505 0.0 l 25.147705 0.0 l 176.36511 0.0 l -25.285767 0.0 l -25.024048 0.0 l -75.775635 0.0 l -25.02246 0.0 l 75.42029 0.0 l -25.026611 0.0 l -252.00305 -222.3183 l 25.149902 55.489136 l -50.380493 -111.15686 l 75.60803 166.81396 l 25.184814 55.56787 l 124.19385 -258.5091 l -50.99109 -104.68213 l -438.50085 185.29285 l 55.386597 -128.96875 l -27.683777 64.46228 l 211.58905 -35.60382 l -25.186646 -55.56964 l -130.99963 -37.815918 l 55.395996 -128.99387 l 50.38562 111.183136 l -25.44336 -55.547974 l -52.556885 8.842285 l -195.19196 -53.87668 l -27.095215 62.689056 l -54.49707 0.01083374 l 27.39508 62.688873 l 526.0001 -103.499146 l -50.997314 -104.69458 l -366.6053 -42.595184 l -27.095093 62.68869 l 54.202576 -125.40608 l 27.108154 -62.718704 l 27.083923 -62.662872 l -271.89227 250.79898 l 27.39502 62.688843 l -54.797974 -125.39548 l 482.60583 -166.78824 l 50.99109 104.681885 l -180.05505 -251.4896 l 27.053833 -62.596428 l 50.958862 104.69834 l -105.13898 20.663298 l -353.81696 188.12764 l -27.39862 -62.696945 l -54.79712 -125.393295 l 27.39508 62.688824 l -133.05682 -83.42821 l 50.983276 -104.37833 l 27.2276 62.303837 l -129.22006 146.9439 l -50.808075 104.510956 l -50.924652 104.75069 l -50.900024 104.69995 l -50.89998 104.70001 l -50.899994 104.70001 l -50.899994 104.69995 l -50.899998 104.70001 l -50.899998 104.70001 l 25.3 0.0 l 25.3 0.0 l 25.300003 0.0 l 25.299995 0.0 l 25.299995 0.0 l 25.300003 0.0 l 25.300003 0.0 l 25.299988 0.0 l 25.300003 0.0 l 25.300003 0.0 l 0.0 0.0 l 0.0 0.0 l 0.0 0.0 " /> </g> </svg>