<?xml version="1.0" standalone="no"?><!DOCTYPE svg PUBLIC "-//W3C//DTD SVG 1.1//EN" "http://www.w3.org/Graphics/SVG/1.1/DTD/svg11.dtd" ><svg xmlns="http://www.w3.org/2000/svg" xmlns:xlink="http://www.w3.org/1999/xlink" version="1.1" viewBox="-10 0 692 1000"><g transform="matrix(1 0 0 -1 0 800)"><path stroke="black" fill="none" d="M 289.4972 918.402 l 25.497772 -55.593445 l 25.497803 -55.593323 l 25.497803 -55.593445 l 25.497772 -55.593323 l 25.497803 -55.593384 l 25.497803 -55.593384 l 25.497772 -55.593384 l 25.497803 -55.593384 l 25.497803 -55.593384 l 27.4823 64.42789 l 27.48236 64.42789 l 27.4823 64.42786 l 27.667114 64.830444 l 27.4823 64.42786 l 27.48236 64.42792 l 27.4823 64.42786 l 27.48236 64.42792 l 27.48236 64.42786 l 27.483765 64.02527 l 27.682373 -64.02527 l 27.682373 -64.02533 l 49.565796 -115.518005 l -19.988342 46.5318 l 604.4808 -78.513794 l 37.61487 76.9375 l -186.31274 110.26813 l 0.0 0.0 l 69.571045 0.0 l 0.0 0.0 l 125.3595 0.0 l 0.0 0.0 l -42.666016 0.0 l 0.0 0.0 l -250.27808 -190.42975 l 0.0 0.0 l -29.670532 -65.46179 l 88.40967 188.95221 l 0.9844971 4.6254883 l 114.65027 -272.8322 l -37.049194 -76.39972 l -439.78607 173.969 l 34.156494 -79.490906 l -2.020996 4.7070312 l 194.27704 -41.59607 l 0.0 0.0 l -4.092285 -7.44928 l -130.33789 -63.050537 l 49.002808 -119.28943 l 27.672485 84.41846 l 0.0 0.0 l -47.334595 -34.37216 l -213.54688 -38.315033 l -19.518066 45.348816 l -49.922607 17.15036 l 19.670898 45.084137 l 526.2572 -102.06473 l -0.29797363 -0.59262085 l -46.552612 -95.574005 l -374.93677 -34.99716 l -19.366028 44.810303 l 58.3703 -135.02151 l 39.91266 -92.34267 l 1.6837158 -3.8954926 l -259.73456 249.21875 l 19.652283 44.970886 l -51.65399 -118.20203 l 491.78674 -148.16785 l 37.02649 76.003586 l -156.7024 -287.74274 l 1.6300049 -4.215523 l -14.128662 102.07953 l -11.509644 2.8596802 l -377.6454 191.58209 l -0.13897705 -0.3177948 l -25.144714 -57.53911 l -50.184204 -114.79125 l 19.664185 44.99125 l -64.81622 -128.06627 l 0.0 0.0 l -24.747223 -29.088957 l -132.82974 265.96 l 0.0 0.0 l -61.462067 126.40152 l -50.894867 104.69556 l -50.89485 104.69559 l -50.894836 104.69562 l -50.89485 104.69556 l -50.894848 104.69556 l -50.894848 104.69562 l 25.299263 0.0 l 25.299263 0.0 l 25.29927 0.0 l 25.299255 0.0 l 25.299263 0.0 l 25.29927 0.0 l 25.299255 0.0 l 25.299255 0.0 l 25.29927 0.0 l 25.306564 0.0 l 0.0 0.0 l 0.0 0.0 l 0.0 0.0 " /> </g> </svg>