<?xml version="1.0" standalone="no"?><!DOCTYPE svg PUBLIC "-//W3C//DTD SVG 1.1//EN" "http://www.w3.org/Graphics/SVG/1.1/DTD/svg11.dtd" ><svg xmlns="http://www.w3.org/2000/svg" xmlns:xlink="http://www.w3.org/1999/xlink" version="1.1" viewBox="-10 0 692 1000"><g transform="matrix(1 0 0 -1 0 800)"><path stroke="black" fill="none" d="M 289.5 918.4 l 25.5 -55.599976 l 25.5 -55.599976 l 25.5 -55.600037 l 25.5 -55.599976 l 25.5 -55.599976 l 25.49997 -55.599976 l 25.5 -55.599976 l 25.5 -55.600006 l 25.5 -55.599976 l 27.499939 64.49985 l 27.5 64.49982 l 27.499939 64.49988 l 27.500366 64.50067 l 27.499939 64.49988 l 27.5 64.49982 l 27.499939 64.49988 l 27.5 64.49982 l 27.499939 64.49988 l 27.499939 64.4989 l 27.700012 -64.4989 l 27.699951 -64.49902 l 55.38739 -128.97095 l -27.68341 64.4613 l 595.9186 -104.84314 l 50.97107 104.64014 l -175.92737 104.712036 l -25.010376 0.0 l 50.48535 0.0 l 25.021606 0.0 l 176.28113 0.0 l -25.493286 0.0 l -24.598999 0.0 l -76.19946 0.0 l -24.594116 0.0 l 74.98645 0.0 l -24.608154 0.0 l -252.00989 -222.1211 l 25.028442 55.221558 l -50.333252 -111.052795 l 75.62756 166.84772 l 25.14795 55.490173 l 124.17932 -258.53088 l -50.96997 -104.63904 l -438.50275 185.27557 l 55.354248 -128.89331 l -27.644653 64.371155 l 211.56268 -35.612915 l -25.154541 -55.496277 l -130.9986 -37.85437 l 55.38617 -128.9791 l 50.351074 111.1423 l -26.030762 -55.42227 l -51.72876 8.702972 l -195.41394 -53.820526 l -27.083618 62.66263 l -54.490112 0.036956787 l 27.3833 62.66208 l 526.0005 -103.49701 l -50.990967 -104.68158 l -366.61798 -42.583588 l -27.083313 62.661407 l 54.208923 -125.420715 l 27.127686 -62.7639 l 27.045166 -62.573235 l -271.87372 250.79657 l 27.38324 62.661804 l -54.793213 -125.38449 l 482.6198 -166.75986 l 50.96985 104.63815 l -179.94653 -251.70589 l 26.942139 -62.34638 l 50.859497 104.69435 l -104.991516 20.57468 l -353.85785 188.19437 l -27.395447 -62.68956 l -54.79004 -125.37714 l 27.3833 62.66183 l -132.95279 -83.496284 l 51.184418 -103.60175 l 26.81134 61.347416 l -129.2684 147.53276 l -50.586212 104.054535 l -50.98413 104.87303 l -50.900024 104.69995 l -50.89998 104.70004 l -50.89998 104.70001 l -50.899994 104.69989 l -50.89999 104.70001 l -50.89999 104.70001 l 25.3 0.0 l 25.299995 0.0 l 25.3 0.0 l 25.299995 0.0 l 25.299988 0.0 l 25.300003 0.0 l 25.300003 0.0 l 25.299988 0.0 l 25.300003 0.0 l 25.300018 0.0 l 0.0 0.0 l 0.0 0.0 l 0.0 0.0 " /> </g> </svg>