<?xml version="1.0" standalone="no"?><!DOCTYPE svg PUBLIC "-//W3C//DTD SVG 1.1//EN" "http://www.w3.org/Graphics/SVG/1.1/DTD/svg11.dtd" ><svg xmlns="http://www.w3.org/2000/svg" xmlns:xlink="http://www.w3.org/1999/xlink" version="1.1" viewBox="-10 0 692 1000"><g transform="matrix(1 0 0 -1 0 800)"><path stroke="black" fill="none" d="M 362.0031 973.996 l 21.134247 -27.659424 l 21.743195 -28.461487 l 23.17572 -30.325928 l 19.871338 -26.006653 l 22.557098 -29.521729 l 21.098053 -27.612183 l -223.18704 -53.11548 l -34.7296 44.353394 l 70.11192 -89.54291 l 34.735077 -44.36267 l 35.09613 -44.778076 l 34.993988 -44.70685 l 34.993988 -44.70691 l 75.85272 -236.46228 l -28.517395 -35.42784 l 58.890503 73.160995 l 28.555115 35.47458 l -43.59326 383.5806 l -21.092407 27.603088 l 84.2558 -56.54767 l -40.193176 0.0029296875 l 21.088257 -27.803528 l 65.91724 84.4588 l -21.905334 -28.148987 l 66.10437 84.94946 l -21.90509 -28.149231 l 44.249756 56.865295 l 21.90387 28.147766 l 22.295166 28.65271 l 21.904053 28.1474 l 49.62091 28.49591 l -27.335022 -0.00061035156 l 80.99304 -0.00079345703 l -24.718323 0.0 l 53.683594 0.0 l 29.748352 0.0 l 25.192322 0.0 l 27.825195 0.0 l 11.845642 -88.549805 l 35.13733 43.62793 l 35.42798 44.9187 l -28.592407 0.0028076172 l -25.067749 0.00012207031 l -53.78601 -134.34521 l -35.728516 -44.363403 l -71.87134 -89.24579 l 35.72876 44.36377 l 128.18152 -750.4091 l -24.287537 -7.807985e-07 l 52.124695 2.6653866e-05 l 27.794556 -2.4967561e-05 l 32.170166 -3.478609e-06 l 19.084595 -1.4482248e-07 l -239.69226 -1.0765997e-05 l -25.960571 3.8196813e-06 l 55.024353 5.3660615e-06 l 24.443115 1.8682385e-07 l 27.062561 -6.527047e-06 l -135.67712 36.658806 l -28.925232 36.813446 l -27.871094 35.47222 l 270.95868 -4.5109787 l 40.699097 -51.433853 l -83.14441 105.068886 l -41.720215 52.710648 l -41.690796 52.706314 l -41.690796 52.70633 l -41.690735 52.7063 l -41.690796 52.70633 l -11.23468 195.03796 l 35.72162 44.354492 l -72.1095 -89.556946 l -35.737488 -44.37036 l 41.589355 -52.868103 l -121.61487 -182.80023 l -28.365723 36.10086 l 57.277344 -72.90314 l 28.367126 -36.103348 l 57.112488 -72.69479 l -28.372192 36.111572 l -524.3325 -181.9124 l -19.288223 0.0 l 51.43399 0.0 l 30.33992 0.0 l 24.873352 0.0 l -142.6313 0.0 l -19.819557 0.0 l -28.042068 1.8189894e-12 l -81.42986 -4.5474735e-13 l 31.168165 -1.8189894e-12 l 19.579868 0.0 l 251.59795 36.664272 l 29.62735 36.808117 l 28.555664 35.47532 l 58.263794 72.38253 l -28.549896 -35.46811 l 58.126373 72.21193 l -367.5418 755.92596 l 26.799057 0.0 l 8.2108 -44.671814 l 45.24498 44.671814 l -26.541077 0.0 l 53.462494 0.0 l -2.3615112 -133.849 l -34.73813 44.364075 l 90.21945 89.484924 l -26.00206 0.0 l 105.19147 0.0 l -24.374878 0.0 l -27.440704 0.0 " /> </g> </svg>