<?xml version="1.0" standalone="no"?><!DOCTYPE svg PUBLIC "-//W3C//DTD SVG 1.1//EN" "http://www.w3.org/Graphics/SVG/1.1/DTD/svg11.dtd" ><svg xmlns="http://www.w3.org/2000/svg" xmlns:xlink="http://www.w3.org/1999/xlink" version="1.1" viewBox="-10 0 692 1000"><g transform="matrix(1 0 0 -1 0 800)"><path stroke="black" fill="none" d="M 366.90775 967.56885 l 0.6814575 -0.8881836 l 21.921967 -28.883728 l 43.40631 -56.593323 l 0.0 0.0 l 41.75815 -54.64917 l 0.46844482 -0.6130371 l -225.41022 -50.14691 l -24.2379 30.904053 l 74.45418 -95.0863 l 24.45639 -31.274963 l 38.82556 -47.808105 l 34.761322 -44.973877 l 34.76129 -44.973877 l 54.618225 -262.15826 l -0.6109314 -0.7595215 l 72.620026 90.217896 l 0.8583374 1.0655212 l -52.295715 412.37234 l -0.45098877 0.56811523 l 48.26764 -51.903137 l 0.0 0.0 l 21.789185 -3.2835083 l 51.06714 55.699646 l -14.353516 -18.408081 l 58.515686 75.22687 l -14.345642 -18.420105 l 46.18225 59.39978 l 14.294556 18.362244 l 29.868042 38.456787 l 14.298584 18.345032 l 46.555847 32.21881 l -17.055237 -0.024597168 l 71.435425 -0.031188965 l 0.0 0.0 l 21.38507 6.1035156e-05 l 71.96918 0.0 l 0.0 0.0 l 9.47113 0.0 l 52.417297 -55.56128 l 1.7719727 2.1642456 l 13.126831 53.270203 l -15.921509 0.08618164 l 0.0 0.0 l -70.035034 -143.82916 l -25.196228 -31.302612 l -66.87799 -83.26196 l 25.204773 31.317749 l 116.414185 -746.88293 l 0.0 0.0 l 17.051453 0.0007430457 l 66.378174 -0.0009936835 l 0.0 0.0 l 14.5703125 0.00016424726 l -235.5011 -0.0007369322 l -0.37609863 1.9606436e-05 l 77.35492 0.00028028688 l 0.0 0.0 l 10.1675415 -0.00018664428 l -130.91162 46.700138 l -41.5448 52.854538 l -0.8277588 1.0532761 l 293.8756 -33.673973 l 1.9307861 -2.396675 l -73.2962 92.31022 l 0.032409668 -0.07218933 l -42.536438 53.195786 l -41.33319 52.951263 l -41.33313 52.951294 l -41.33313 52.951233 l -41.33313 52.951263 l -4.8183594 204.27063 l 24.9198 30.950378 l -76.357605 -95.64856 l -25.553162 -31.579895 l 37.29608 -59.388885 l -126.07092 -171.17093 l -19.27771 24.49466 l 60.277588 -76.90431 l 19.333496 -24.593185 l 53.716248 -68.6136 l -19.532166 24.921494 l -505.32727 -178.51367 l 0.0 0.0 l 52.765427 -1.5006663e-10 l 0.0 0.0 l -162.40984 1.9645086e-10 l 0.0 0.0 l -51.064106 -5.7752914e-11 l 0.0 0.0 l 265.29376 46.917637 l 42.327667 52.642544 l 0.86276245 1.072464 l 44.033142 54.71096 l -0.8135376 -1.01091 l 41.117737 51.095016 l -357.52368 768.57227 l 26.762314 0.0 l 8.629662 -43.576843 l 39.230774 43.576843 l -16.495346 0.0 l 48.127197 0.0 l -8.627884 -124.11139 l -24.57756 31.332214 l 67.6949 92.779175 l -0.52259827 0.0 l 79.210815 0.0 l 0.0 0.0 l -29.05133 0.0 l 0.009552002 0.0 " /> </g> </svg>