<?xml version="1.0" standalone="no"?><!DOCTYPE svg PUBLIC "-//W3C//DTD SVG 1.1//EN" "http://www.w3.org/Graphics/SVG/1.1/DTD/svg11.dtd" ><svg xmlns="http://www.w3.org/2000/svg" xmlns:xlink="http://www.w3.org/1999/xlink" version="1.1" viewBox="-10 0 692 1000"><g transform="matrix(1 0 0 -1 0 800)"><path stroke="black" fill="none" d="M 362.42102 973.4483 l 19.768433 -25.871521 l 21.847504 -28.609802 l 26.738403 -34.975464 l 15.4565735 -20.228882 l 24.626282 -32.229736 l 19.644806 -25.710205 l -223.15579 -53.15271 l -34.07675 43.51648 l 70.38211 -89.88782 l 34.09549 -43.54834 l 35.328186 -44.966553 l 34.979523 -44.72351 l 34.979523 -44.72351 l 74.53146 -238.06119 l -26.628113 -33.08078 l 59.59192 74.03247 l 26.756836 33.240448 l -44.059875 385.46524 l -19.625671 25.678955 l 77.14813 -55.938354 l -31.485718 0.00982666 l 19.61139 -26.363281 l 64.993225 82.66925 l -21.435486 -27.542847 l 65.6322 84.34448 l -21.434753 -27.543823 l 44.370056 57.02301 l 21.43042 27.538818 l 22.766357 29.262756 l 21.430786 27.537476 l 49.430237 28.72754 l -26.695374 -0.0020751953 l 76.630554 -0.0026855469 l -17.761292 0.0 l 50.022644 0.0 l 34.934998 0.0 l 19.3797 0.0 l 28.368652 0.0 l 14.370178 -86.49713 l 33.054688 41.039734 l 34.046875 45.446533 l -30.98816 0.00970459 l -18.954407 0.00024414062 l -56.166443 -134.9372 l -35.07318 -43.55066 l -71.56061 -88.873474 l 35.073914 43.552002 l 124.27417 -750.18976 l -18.221985 -2.6658126e-06 l 48.56311 9.1001995e-05 l 30.195312 -8.524458e-05 l 0.12890625 1.630382e-06 l 45.006226 -1.3507097e-05 l 1.091919 -4.1779094e-07 l -236.68628 -3.6834073e-05 l -23.93396 1.30412045e-05 l 58.46289 1.832088e-05 l 18.753235 6.3785683e-07 l 27.696533 -2.228473e-05 l -135.38062 37.28361 l -29.71051 37.81158 l -26.111206 33.23236 l 272.3075 -6.227417 l 38.28247 -48.377098 l -82.52728 104.269516 l -41.768982 52.73633 l -41.668518 52.721558 l -41.66858 52.72159 l -41.668457 52.721527 l -41.66858 52.721558 l -10.835388 195.61246 l 35.0495 43.520447 l -72.37384 -89.935974 l -35.10382 -43.574524 l 41.322205 -53.273834 l -121.89209 -182.0766 l -27.800232 35.378662 l 57.46399 -73.1521 l 27.805054 -35.387146 l 56.901123 -72.44084 l -27.822144 35.4153 l -538.41345 -181.70093 l -0.824173 -4.5474735e-13 l 44.185837 4.5474735e-13 l 37.196075 4.5474735e-13 l 18.532104 -4.5474735e-13 l -155.01941 -9.094947e-13 l -1.4928513 0.0 l -29.135193 6.366463e-12 l -78.84632 -9.094947e-13 l 40.023903 -5.9117156e-12 l 1.096859 0.0 l 256.50778 37.302273 l 30.417603 37.793392 l 26.758698 33.24295 l 57.45215 71.37463 l -26.738922 -33.218323 l 56.98291 70.79222 l -366.91846 756.7129 l 26.796768 0.0 l 8.236862 -44.603638 l 44.870758 44.603638 l -25.916 0.0 l 53.13051 0.0 l -2.751419 -133.2431 l -34.105896 43.55316 l 88.81789 89.68994 l -24.075668 0.0 l 100.3425 0.0 l -18.520142 0.0 l -28.98758 0.0 " /> </g> </svg>