<?xml version="1.0" standalone="no"?><!DOCTYPE svg PUBLIC "-//W3C//DTD SVG 1.1//EN" "http://www.w3.org/Graphics/SVG/1.1/DTD/svg11.dtd" ><svg xmlns="http://www.w3.org/2000/svg" xmlns:xlink="http://www.w3.org/1999/xlink" version="1.1" viewBox="-10 0 692 1000"><g transform="matrix(1 0 0 -1 0 800)"><path stroke="black" fill="none" d="M 362.0031 973.996 l 21.6958 -28.394531 l 21.700348 -28.400513 l 21.710846 -28.414185 l 21.686523 -28.382324 l 21.70633 -28.408325 l 21.695587 -28.394165 l -223.19992 -53.100098 l -34.998016 44.69745 l 70.000824 -89.40106 l 34.998047 -44.69757 l 35.0007 -44.7005 l 34.99997 -44.700073 l 34.99997 -44.700073 l 76.395996 -235.80484 l -29.29425 -36.392868 l 58.60211 72.80266 l 29.294495 36.39319 l -43.40143 382.80576 l -21.695496 28.394104 l 87.17828 -56.798096 l -43.773438 0.0 l 21.695496 -28.39563 l 66.29718 85.19458 l -22.09851 -28.398193 l 66.29852 85.19818 l -22.09851 -28.398132 l 44.200317 56.800476 l 22.098572 28.398132 l 22.10144 28.401855 l 22.098572 28.398193 l 49.6994 28.400635 l -27.598083 0.0 l 82.78674 0.0 l -27.578796 0.0 l 55.188843 0.0 l 27.615784 0.0 l 27.582275 0.0 l 27.601685 0.0 l 10.807678 -89.39374 l 35.993652 44.692078 l 35.99585 44.70166 l -27.6073 0.0 l -27.58142 0.0 l -52.80725 -134.1018 l -35.997986 -44.69751 l -71.999084 -89.398865 l 35.998047 44.69751 l 129.78809 -750.4993 l -26.781555 -5.7461875e-09 l 53.589172 1.9615436e-07 l 26.807373 -1.837443e-07 l 26.839478 -2.5600002e-08 l 26.743164 -1.0659278e-09 l -241.18884 -7.923063e-08 l -26.793823 2.8110662e-08 l 53.610474 3.949026e-08 l 26.782654 1.375156e-09 l 26.80194 -4.8034963e-08 l -135.79907 36.401905 l -28.602417 36.40304 l -28.594666 36.39318 l 270.4041 -3.8052368 l 41.692627 -52.690685 l -83.39807 105.39757 l -41.700195 52.700073 l -41.69995 52.700043 l -41.69995 52.700073 l -41.69983 52.700043 l -41.69995 52.700043 l -11.398804 194.80176 l 35.997925 44.69745 l -72.00079 -89.40112 l -35.998108 -44.69763 l 41.69922 -52.701233 l -121.500854 -183.09775 l -28.598206 36.397766 l 57.20056 -72.80075 l 28.598267 -36.397827 l 57.19934 -72.79921 l -28.598328 36.397873 l -518.5429 -181.99936 l -27.43956 0.0 l 54.973755 0.0 l 27.52089 0.0 l 27.480682 0.0 l -137.53777 0.0 l -27.443481 0.0 l -27.50399 0.0 l -82.49213 0.0 l 27.526995 0.0 l 27.44172 0.0 l 249.31691 36.401947 l 29.30243 36.403 l 29.294495 36.393204 l 58.597534 72.79693 l -29.294495 -36.393127 l 58.596527 72.795654 l -367.79813 755.6024 l 26.799995 0.0 l 8.200081 -44.699768 l 45.39885 44.699768 l -26.79808 0.0 l 53.59897 0.0 l -2.2011871 -134.09814 l -34.998062 44.69751 l 90.795715 89.400635 l -26.794113 0.0 l 107.18521 0.0 l -26.782166 0.0 l -26.804688 0.0 " /> </g> </svg>