<?xml version="1.0" standalone="no"?><!DOCTYPE svg PUBLIC "-//W3C//DTD SVG 1.1//EN" "http://www.w3.org/Graphics/SVG/1.1/DTD/svg11.dtd" ><svg xmlns="http://www.w3.org/2000/svg" xmlns:xlink="http://www.w3.org/1999/xlink" version="1.1" viewBox="-10 0 692 1000"><g transform="matrix(1 0 0 -1 0 800)"><path stroke="black" fill="none" d="M 378.75607 952.0427 l 0.0 0.0 l 5.292755 -7.3897095 l -102.10492 -16.112854 l 164.66272 -65.04529 l 29.67218 -38.80957 l 0.0 0.0 l -143.3349 -7.345154 l -96.82599 -23.348755 l -0.8361969 0.98413086 l 87.78783 -112.20062 l 0.89837646 -1.234375 l 46.164795 -52.941467 l 34.185028 -45.63513 l 34.185028 -45.63507 l 47.44113 -53.588715 l 14.45578 -197.77472 l 0.0 0.0 l 61.145172 75.95834 l 0.0 0.0 l -22.600952 130.71637 l 27.5 64.5 l 27.5 64.5 l -76.51343 152.48376 l 0.0 0.0 l 40.340637 -45.72101 l 0.0 0.0 l 63.468323 35.34015 l -0.38452148 -0.46875 l 44.45526 57.332947 l -0.378479 -0.47607422 l 55.721558 71.825745 l 0.36157227 0.460083 l 43.71057 56.40497 l 0.3661499 0.4519043 l -6.147644 59.366272 l 27.5 64.5 l 12.714233 -88.809814 l -0.3531494 -0.009338379 l 94.020996 -0.18139648 l 0.0 0.0 l 66.81891 0.00048828125 l 0.0 0.0 l 76.52728 -38.35199 l 0.0 0.0 l -14.1073 36.739624 l 0.0 0.0 l -88.774536 -165.84393 l -0.9590454 -1.2285156 l -52.667053 -66.17316 l 0.9609375 1.241394 l 72.01874 -64.38336 l 27.700012 -64.5 l 27.699951 -64.5 l 27.700073 -64.5 l 27.699951 -64.5 l 25.199951 55.600006 l 25.200073 55.600006 l 25.199951 55.599976 l 25.200073 55.600037 l 25.199951 55.599976 l 25.199951 55.599976 l 25.200073 55.600037 l 25.199951 55.599976 l 25.200073 55.600037 l 25.199951 55.599976 l 25.200073 0.0 l 25.199951 0.0 l 25.199951 0.0 l 25.200073 0.0 l 25.199951 0.0 l 25.200073 0.0 l 25.199951 0.0 l 25.199951 0.0 l 25.200073 0.0 l 25.199951 0.0 l -51.0 -104.70001 l -51.0 -104.70001 l -51.0 -104.69995 l -51.0 -104.70001 l -51.0 -104.70001 l -51.0 -104.69998 l -51.0 -104.7 l -51.0 -104.7 l -96.77014 -136.3832 l 0.0 0.0 l 49.098145 -0.010333622 l 0.0 0.0 l -240.71246 -0.010922778 l 0.0 0.0 l 78.44287 0.00094891526 l 0.0 0.0 l -148.22766 71.56937 l -19.893433 25.263474 l 0.0 0.0 l 291.70367 -33.222374 l 0.0 0.0 l -70.81952 90.21578 l 0.0057373047 -0.012741089 l -44.450745 54.15901 l -40.44751 53.557877 l -40.44757 53.55786 l -40.44745 53.55786 l -40.44751 53.55786 l 17.51361 69.09955 l -6.4422607 158.03522 l 0.8134155 1.0237427 l -89.52136 -114.00195 l -1.3865967 -1.3134155 l 27.718262 -74.128845 l -40.481445 -95.01477 l -96.62463 -47.356964 l -0.58288574 0.698822 l 71.518616 -91.759125 l 0.5946045 -0.74160767 l 41.67334 -53.85414 l -0.63549805 0.9039612 l -125.54358 -58.690933 l -27.399963 -62.700005 l -27.400024 -62.7 l -27.400024 -62.7 l -277.4477 72.99996 l 0.0 0.0 l -164.10873 2.0263542e-08 l 0.0 0.0 l 265.937 72.309456 l 19.84375 24.810074 l 0.0 0.0 l 50.224487 62.481018 l 0.0 0.0 l 11.656464 14.509277 l -109.70526 171.6902 l -50.900024 104.69998 l -50.899994 104.70001 l -50.899994 104.70001 l -50.9 104.69995 l -50.9 104.70001 l -50.9 104.70001 l 25.3 0.0 l 25.3 0.0 l 31.790909 0.0 l 26.671326 0.0 l 9.666946 -40.865356 l 24.34233 40.865356 l -0.33813477 0.0 l 43.629715 0.0 l -24.146164 -99.99689 l -1.0524902 1.2139282 l 61.65486 98.78296 l 0.0 0.0 l 66.46069 0.0 l -9.794403 0.0 l 0.0 0.0 " /> </g> </svg>