<?xml version="1.0" standalone="no"?><!DOCTYPE svg PUBLIC "-//W3C//DTD SVG 1.1//EN" "http://www.w3.org/Graphics/SVG/1.1/DTD/svg11.dtd" ><svg xmlns="http://www.w3.org/2000/svg" xmlns:xlink="http://www.w3.org/1999/xlink" version="1.1" viewBox="-10 0 692 1000"><g transform="matrix(1 0 0 -1 0 800)"><path stroke="black" fill="none" d="M 386.31216 941.9026 l 0.0 0.0 l -79.83136 -35.51819 l 191.44867 -100.44702 l 0.0 0.0 l -140.44867 -10.752991 l -87.92746 -24.997986 l 0.0 0.0 l 83.682526 -108.8504 l 0.0 0.0 l 50.339355 -49.92218 l 32.2175 -47.892517 l 32.21753 -47.89258 l 42.47055 -54.044342 l 74.36951 -120.19794 l 0.0 0.0 l -21.369507 129.09793 l 27.5 64.5 l 27.5 64.5 l -53.459106 120.14728 l 0.0 0.0 l 82.592834 20.49408 l 0.0 0.0 l 42.767395 57.46057 l 0.0 0.0 l 53.817383 71.66058 l 0.0 0.0 l 42.767334 57.46057 l 0.0 0.0 l -3.4858398 59.776917 l 27.5 64.5 l 13.577698 -86.898254 l 0.0 0.0 l 119.39978 -2.1270142 l 0.0 0.0 l 101.28693 -3.376709 l 0.0 0.0 l -91.14197 -165.29962 l 0.0 0.0 l -45.447083 -64.91394 l 0.0 0.0 l 68.52466 -64.38446 l 27.700012 -64.5 l 27.699951 -64.5 l 27.700073 -64.5 l 27.699951 -64.5 l 25.199951 55.600006 l 25.200073 55.600006 l 25.199951 55.599976 l 25.200073 55.600037 l 25.199951 55.599976 l 25.199951 55.599976 l 25.200073 55.600037 l 25.199951 55.599976 l 25.200073 55.600037 l 25.199951 55.599976 l 25.200073 0.0 l 25.199951 0.0 l 25.199951 0.0 l 25.200073 0.0 l 25.199951 0.0 l 25.200073 0.0 l 25.199951 0.0 l 25.199951 0.0 l 25.200073 0.0 l 25.199951 0.0 l -51.0 -104.70001 l -51.0 -104.70001 l -51.0 -104.69995 l -51.0 -104.70001 l -51.0 -104.70001 l -51.0 -104.69998 l -51.0 -104.7 l -51.0 -104.7 l -73.953735 -135.60353 l 0.0 0.0 l -128.88348 -1.3337333 l 0.0 0.0 l -171.13239 93.01818 l 0.0 0.0 l 274.69177 -39.868805 l -53.26184 90.88451 l 0.0 0.0 l -51.072083 57.63788 l -37.423767 55.628937 l -37.423767 55.628937 l -37.423706 55.628937 l -37.423767 55.628937 l 7.4067993 67.64978 l -9.677185 152.42822 l 0.0 0.0 l -82.44568 -130.70538 l 0.0 0.0 l 10.222839 -84.42285 l -27.399963 -62.700012 l -91.688354 -47.931885 l 0.0 0.0 l 64.24243 -90.133575 l 0.0 0.0 l 35.642456 -53.73355 l 0.0 0.0 l -117.79657 -59.000977 l -27.399963 -62.700005 l -27.400024 -62.7 l -27.400024 -62.7 l -411.53125 73.00001 l 0.0 0.0 l 263.1634 103.99467 l 0.0 0.0 l 96.276855 123.025635 l 0.0 0.0 l -151.50897 118.77968 l -50.900024 104.69998 l -50.899994 104.70001 l -50.899994 104.70001 l -50.9 104.69995 l -50.9 104.70001 l -50.9 104.70001 l 25.3 0.0 l 25.3 0.0 l 30.320457 0.0 l 26.360657 0.0 l 13.208473 -31.607666 l 22.964828 31.607666 l 0.0 0.0 l 33.645584 0.0 l -13.35347 -90.9884 l 0.0 0.0 l 56.38742 90.9884 l 53.948593 0.0 l 0.0 0.0 " /> </g> </svg>