<?xml version="1.0" standalone="no"?><!DOCTYPE svg PUBLIC "-//W3C//DTD SVG 1.1//EN" "http://www.w3.org/Graphics/SVG/1.1/DTD/svg11.dtd" ><svg xmlns="http://www.w3.org/2000/svg" xmlns:xlink="http://www.w3.org/1999/xlink" version="1.1" viewBox="-10 0 692 1000"><g transform="matrix(1 0 0 -1 0 800)"><path stroke="black" fill="none" d="M 362.0031 973.996 l 21.68576 -28.381348 l 21.70111 -28.401611 l 21.73706 -28.448364 l 21.654053 -28.339844 l 21.721558 -28.428223 l 21.684875 -28.380188 l -223.19968 -53.100403 l -34.993225 44.691284 l 70.00281 -89.403564 l 34.993347 -44.69159 l 35.00241 -44.701904 l 34.999847 -44.700134 l 34.999847 -44.700195 l 76.38629 -235.81665 l -29.280334 -36.37558 l 58.6073 72.80908 l 29.28125 36.37671 l -43.404846 382.8196 l -21.684692 28.380005 l 87.12598 -56.79364 l -43.70941 6.1035156e-05 l 21.684631 -28.38501 l 66.290405 85.1814 l -22.095093 -28.393738 l 66.295105 85.193726 l -22.095093 -28.393677 l 44.20117 56.801636 l 22.095154 28.393616 l 22.104858 28.406372 l 22.095093 28.393677 l 49.697998 28.402405 l -27.593323 -6.1035156e-05 l 82.75458 0.0 l -27.527588 0.0 l 55.161926 0.0 l 27.65393 0.0 l 27.53949 0.0 l 27.605713 0.0 l 10.826233 -89.37866 l 35.978394 44.673096 l 35.985596 44.705505 l -27.624878 6.1035156e-05 l -27.536438 0.0 l -52.824768 -134.10614 l -35.993164 -44.69159 l -71.996826 -89.39612 l 35.993225 44.69159 l 129.75934 -750.49774 l -26.736877 -1.961871e-08 l 53.562927 6.6971234e-07 l 26.824951 -6.273417e-07 l 26.935059 -8.7404715e-08 l 26.60608 -3.6388883e-09 l -241.16211 -2.705092e-07 l -26.77893 9.597443e-08 l 53.635803 1.3482895e-07 l 26.740784 4.693902e-09 l 26.80658 -1.6400008e-07 l -135.79688 36.406506 l -28.608154 36.41039 l -28.581726 36.376694 l 270.41394 -3.817871 l 41.674927 -52.668186 l -83.393555 105.39168 l -41.7005 52.70027 l -41.69983 52.700165 l -41.699768 52.700165 l -41.699707 52.700165 l -41.699768 52.700165 l -11.395874 194.806 l 35.99298 44.691284 l -72.00275 -89.40393 l -35.99341 -44.69171 l 41.697266 -52.704254 l -121.50293 -183.09244 l -28.594055 36.392456 l 57.201965 -72.80258 l 28.594116 -36.392548 l 57.197815 -72.79735 l -28.5943 36.392746 l -518.64655 -181.9978 l -27.29367 0.0 l 54.9104 0.0 l 27.57135 0.0 l 27.43399 0.0 l -137.62892 0.0 l -27.307014 0.0 l -27.513618 0.0 l -82.473114 0.0 l 27.592167 0.0 l 27.301003 0.0 l 249.35773 36.406643 l 29.308258 36.41025 l 29.28128 36.37677 l 58.591553 72.78951 l -29.281158 -36.37657 l 58.588104 72.7852 l -367.79355 755.6082 l 26.79998 0.0 l 8.200272 -44.69928 l 45.396103 44.69928 l -26.793488 0.0 l 53.596527 0.0 l -2.2040558 -134.09369 l -34.99341 44.69153 l 90.7854 89.40216 l -26.779938 0.0 l 107.14952 0.0 l -26.739075 0.0 l -26.81607 0.0 " /> </g> </svg>