<?xml version="1.0" standalone="no"?><!DOCTYPE svg PUBLIC "-//W3C//DTD SVG 1.1//EN" "http://www.w3.org/Graphics/SVG/1.1/DTD/svg11.dtd" ><svg xmlns="http://www.w3.org/2000/svg" xmlns:xlink="http://www.w3.org/1999/xlink" version="1.1" viewBox="-10 0 692 1000"><g transform="matrix(1 0 0 -1 0 800)"><path stroke="black" fill="none" d="M 362.0031 973.996 l 21.651428 -28.336487 l 21.703735 -28.405273 l 21.8266 -28.565247 l 21.54309 -28.194641 l 21.77356 -28.496277 l 21.648376 -28.332336 l -223.19891 -53.10138 l -34.976807 44.670288 l 70.00961 -89.41229 l 34.977264 -44.67108 l 35.00824 -44.706665 l 34.99948 -44.70056 l 34.99948 -44.700623 l 76.35309 -235.85681 l -29.23285 -36.316605 l 58.624878 72.83098 l 29.236084 36.320587 l -43.416565 382.86694 l -21.647827 28.331665 l 86.94739 -56.77832 l -43.4906 0.00024414062 l 21.647522 -28.348877 l 66.26715 85.136475 l -22.083252 -28.37854 l 66.2832 85.17853 l -22.083252 -28.378418 l 44.204224 56.805542 l 22.08319 28.378357 l 22.1167 28.421692 l 22.083252 28.378357 l 49.693176 28.408203 l -27.57727 -6.1035156e-05 l 82.64502 -6.1035156e-05 l -27.352783 0.0 l 55.069885 0.0 l 27.784302 0.0 l 27.393433 0.0 l 27.619324 0.0 l 10.889709 -89.32709 l 35.925964 44.608032 l 35.950928 44.71881 l -27.685059 0.00018310547 l -27.382812 6.1035156e-05 l -52.884583 -134.12103 l -35.976685 -44.671143 l -71.98901 -89.38678 l 35.976746 44.671143 l 129.66125 -750.4922 l -26.584534 -6.698201e-08 l 53.47345 2.2865406e-06 l 26.885254 -2.1418787e-06 l 27.260742 -2.984175e-07 l 26.138062 -1.2423698e-08 l -241.07056 -9.2357595e-07 l -26.728027 3.276764e-07 l 53.72223 4.603353e-07 l 26.597778 1.6027116e-08 l 26.82251 -5.5993223e-07 l -135.78943 36.422203 l -28.627869 36.43547 l -28.537537 36.32041 l 270.44794 -3.861 l 41.614136 -52.59138 l -83.37805 105.3716 l -41.70172 52.700912 l -41.69928 52.700546 l -41.69922 52.70056 l -41.699158 52.70053 l -41.69922 52.70053 l -11.385803 194.82047 l 35.976074 44.670288 l -72.00934 -89.41345 l -35.977478 -44.67169 l 41.69049 -52.714447 l -121.50983 -183.07425 l -28.579895 36.37433 l 57.206665 -72.80885 l 28.579956 -36.374557 l 57.192505 -72.79097 l -28.580444 36.375244 l -519.00037 -181.9925 l -26.795547 0.0 l 54.694077 0.0 l 27.743637 0.0 l 27.274658 0.0 l -137.94019 0.0 l -26.841125 0.0 l -27.546501 0.0 l -82.4082 0.0 l 27.814678 0.0 l 26.820564 0.0 l 249.49713 36.422672 l 29.328094 36.43501 l 29.236115 36.32068 l 58.571167 72.7642 l -29.235657 -36.320053 l 58.559387 72.74954 l -367.7779 755.6279 l 26.79992 0.0 l 8.20092 -44.69757 l 45.386703 44.69757 l -26.777786 0.0 l 53.588196 0.0 l -2.213852 -134.07843 l -34.977524 44.671143 l 90.75018 89.40729 l -26.731537 0.0 l 107.02768 0.0 l -26.59195 0.0 l -26.85495 0.0 " /> </g> </svg>