<?xml version="1.0" standalone="no"?><!DOCTYPE svg PUBLIC "-//W3C//DTD SVG 1.1//EN" "http://www.w3.org/Graphics/SVG/1.1/DTD/svg11.dtd" ><svg xmlns="http://www.w3.org/2000/svg" xmlns:xlink="http://www.w3.org/1999/xlink" version="1.1" viewBox="-10 0 692 1000"><g transform="matrix(1 0 0 -1 0 800)"><path stroke="black" fill="none" d="M 363.43744 972.11633 l 15.105255 -19.767395 l 22.203552 -29.11621 l 38.90219 -50.850098 l 0.84783936 -1.1095581 l 31.226715 -40.868042 l 14.683136 -19.216553 l -223.04907 -53.279907 l -31.84784 40.6593 l 71.304596 -91.06555 l 31.911835 -40.767883 l 36.120483 -45.61029 l 34.930115 -44.780212 l 34.930084 -44.780273 l 70.02026 -243.52014 l -20.177582 -25.067444 l 61.986786 77.007904 l 20.617004 25.61261 l -45.652893 391.8997 l -14.61792 19.109863 l 52.88092 -53.858276 l -1.9906006 0.032348633 l 14.803101 -21.445007 l 61.83844 76.55957 l -19.831116 -25.47345 l 64.02002 82.27893 l -19.828796 -25.476929 l 44.78058 57.561462 l 19.813843 25.45996 l 24.375183 31.345581 l 19.815063 25.455017 l 48.779053 29.518433 l -24.511475 -0.0072021484 l 61.73639 -0.009094238 l -0.34692383 0.0 l 43.861633 0.0 l 52.64331 0.0 l 1.0153198 0.0 l 28.743103 0.0 l 22.98944 -79.48889 l 25.943909 32.203064 l 29.331543 47.248657 l -39.167603 0.03326416 l -0.741333 0.0004272461 l -61.634705 -136.95801 l -32.835632 -40.776 l -70.49982 -87.602234 l 32.838135 40.780457 l 110.93353 -749.4407 l -0.65405273 -3.4740442e-06 l 39.544556 0.0003050726 l 38.392212 -0.0002910432 l 0.018188477 2.2910535e-07 l 41.862183 -2.1834341e-05 l 0.0 0.0 l -239.24268 -0.00014613022 l -17.014587 4.4525455e-05 l 70.20294 6.255139e-05 l 0.9606323 1.5222558e-06 l 28.22699 -7.542931e-05 l -134.36823 39.416843 l -32.39142 41.219425 l -20.102661 25.585007 l 276.91272 -12.087715 l 30.031616 -37.940693 l -80.42035 101.54028 l -41.935547 52.824066 l -41.59253 52.77359 l -41.59259 52.77362 l -41.59247 52.77359 l -41.59259 52.77359 l -9.47229 197.57388 l 32.7547 40.67279 l -73.276306 -91.2301 l -32.940186 -40.85724 l 40.410095 -54.65915 l -122.838806 -179.60602 l -25.869507 32.912994 l 58.10138 -74.00212 l 25.885925 -32.94188 l 56.179626 -71.57382 l -25.944153 33.038025 l -531.684 -180.97888 l 0.0 0.0 l 26.850174 -1.1368684e-11 l 60.604523 1.364242e-12 l 0.5883179 -4.5474735e-13 l -161.56969 1.364242e-12 l 0.0 0.0 l -11.240906 1.546141e-11 l -70.02555 -2.2737368e-12 l 20.513351 -1.6370905e-11 l 0.0 0.0 l 261.00888 39.480545 l 33.115723 41.157333 l 20.623413 25.62117 l 54.68097 67.93348 l -20.555878 -25.53711 l 53.07892 65.94508 l -364.79013 759.39954 l 26.788963 0.0 l 8.325851 -44.371033 l 43.593063 44.371033 l -23.78183 0.0 l 51.997055 0.0 l -4.0826874 -131.17438 l -31.947342 40.784607 l 84.03267 90.38977 l -17.498535 0.0 l 83.78703 0.0 l -0.8036804 0.0 l -31.996033 0.0 l 0.039093018 0.0 " /> </g> </svg>