<?xml version="1.0" standalone="no"?><!DOCTYPE svg PUBLIC "-//W3C//DTD SVG 1.1//EN" "http://www.w3.org/Graphics/SVG/1.1/DTD/svg11.dtd" ><svg xmlns="http://www.w3.org/2000/svg" xmlns:xlink="http://www.w3.org/1999/xlink" version="1.1" viewBox="-10 0 692 1000"><g transform="matrix(1 0 0 -1 0 800)"><path stroke="black" fill="none" d="M 362.0031 973.996 l 21.534271 -28.183105 l 21.712677 -28.41803 l 22.132233 -28.964111 l 21.164368 -27.698975 l 21.95105 -28.728577 l 21.523712 -28.16919 l -223.19623 -53.104553 l -34.92079 44.59845 l 70.03279 -89.44183 l 34.922394 -44.601196 l 35.028168 -44.72284 l 34.99823 -44.702026 l 34.99823 -44.702026 l 76.239716 -235.99399 l -29.07077 -36.115265 l 58.68509 72.90573 l 29.081787 36.128937 l -43.456604 383.02863 l -21.521973 28.166626 l 86.337585 -56.726074 l -42.74353 0.0008544922 l 21.520813 -28.225342 l 66.18787 84.98291 l -22.042969 -28.326477 l 66.242676 85.12665 l -22.042847 -28.326538 l 44.21454 56.81909 l 22.042542 28.32611 l 22.157166 28.47406 l 22.042603 28.325989 l 49.67682 28.4281 l -27.522339 -0.00018310547 l 82.27075 -0.00024414062 l -26.755981 0.0 l 54.75586 0.0 l 28.229248 0.0 l 26.894775 0.0 l 27.665955 0.0 l 11.106262 -89.151 l 35.747314 44.385986 l 35.83252 44.7641 l -27.890747 0.00079345703 l -26.858276 6.1035156e-05 l -53.088806 -134.17181 l -35.92047 -44.60144 l -71.96234 -89.35486 l 35.920593 44.601562 l 129.32593 -750.4734 l -26.064087 -2.2869062e-07 l 53.167847 7.806738e-06 l 27.091309 -7.3128303e-06 l 28.372925 -1.018861e-06 l 24.540161 -4.241747e-08 l -240.75836 -3.1532873e-06 l -26.554138 1.1187585e-06 l 54.017212 1.5716832e-06 l 26.10968 5.471884e-08 l 26.876892 -1.911727e-06 l -135.76404 36.475803 l -28.69519 36.521095 l -28.386536 36.128265 l 270.56354 -4.0082474 l 41.406982 -52.32915 l -83.325195 105.303024 l -41.705933 52.70311 l -41.697327 52.701874 l -41.697327 52.701843 l -41.697205 52.701843 l -41.697327 52.701843 l -11.351624 194.86972 l 35.918457 44.598755 l -72.03204 -89.44592 l -35.923096 -44.603455 l 41.667603 -52.749237 l -121.53363 -183.0122 l -28.531372 36.312378 l 57.222656 -72.8302 l 28.531738 -36.31311 l 57.174377 -72.76918 l -28.533264 36.315506 l -520.2083 -181.97433 l -25.094833 0.0 l 53.955536 0.0 l 28.331787 0.0 l 26.730682 0.0 l -139.00291 0.0 l -25.250458 0.0 l -27.658768 4.5474735e-13 l -82.18656 0.0 l 28.574383 -4.5474735e-13 l 25.180252 0.0 l 249.97304 36.477406 l 29.395905 36.519535 l 29.08197 36.129166 l 58.501526 72.677734 l -29.080322 -36.12706 l 58.461304 72.62776 l -367.7244 755.69543 l 26.79972 0.0 l 8.203163 -44.691772 l 45.3546 44.691772 l -26.724167 0.0 l 53.559723 0.0 l -2.2472992 -134.02649 l -34.923294 44.601624 l 90.629944 89.424866 l -26.566284 0.0 l 106.61171 0.0 l -26.089691 0.0 l -26.98764 0.0 " /> </g> </svg>