<?xml version="1.0" standalone="no"?><!DOCTYPE svg PUBLIC "-//W3C//DTD SVG 1.1//EN" "http://www.w3.org/Graphics/SVG/1.1/DTD/svg11.dtd" ><svg xmlns="http://www.w3.org/2000/svg" xmlns:xlink="http://www.w3.org/1999/xlink" version="1.1" viewBox="-10 0 692 1000"><g transform="matrix(1 0 0 -1 0 800)"><path stroke="black" fill="none" d="M 273.79834 498.20316 l -43.709137 79.134674 l 220.93958 60.230347 l 29.592194 -55.609436 l 29.811218 -56.023132 l -89.41553 168.03058 l -29.734253 55.876648 l -248.7471 -13.989258 l 43.708908 -79.13574 l -87.56135 158.56427 l -87.12812 158.59521 l 25.401531 6.1035156e-05 l 26.240685 -0.0028686523 l -8.32103 -79.24689 l 60.445477 79.24994 l -25.86438 0.0 l 78.06326 0.0 l -25.86763 0.0 l 52.113037 0.0 l 26.100128 0.0 l 26.100128 0.0 l 26.100113 0.0 l 29.799469 -55.989624 l 29.84671 -56.09839 l 29.733704 -55.87567 l 347.61853 -112.0246 l 27.799377 56.023193 l 27.948792 56.26703 l 27.603699 55.604004 l 27.849304 56.10443 l 27.799988 55.989624 l 25.40039 0.0 l 25.40039 0.0 l 25.439514 0.0 l 25.32721 0.0 l 25.429443 0.0 l 25.40039 0.0 l 25.40039 0.0 l 25.40039 0.0 l 25.441895 0.0 l 25.326904 0.0 l -77.578735 -150.39697 l -77.60559 -150.39691 l -293.3379 -91.11713 l 27.73944 55.87854 l 187.9862 -115.16669 l -77.56256 -150.40143 l -155.58704 -301.5393 l -77.086914 -149.40323 l 155.06104 300.54248 l -116.048645 248.2998 l 27.60199 55.60083 l -84.81702 -56.897095 l 29.098877 -54.683228 l -208.49728 -74.59448 l -43.708862 79.13425 l 87.59061 -158.56049 l 43.781067 -79.2988 l -45.275696 -560.34906 l 77.45123 150.10527 l -308.898 -300.7563 l 24.981705 0.0 l -71.53047 0.0 l 18.536545 0.0 l -67.120415 0.0 l -2.2674484 0.0 l 223.86378 0.0 l -23.023071 0.0 l 49.97 0.0 l -101.998474 0.0 l 25.015701 0.0 " /> </g> </svg>