<?xml version="1.0" standalone="no"?><!DOCTYPE svg PUBLIC "-//W3C//DTD SVG 1.1//EN" "http://www.w3.org/Graphics/SVG/1.1/DTD/svg11.dtd" ><svg xmlns="http://www.w3.org/2000/svg" xmlns:xlink="http://www.w3.org/1999/xlink" version="1.1" viewBox="-10 0 692 1000"><g transform="matrix(1 0 0 -1 0 800)"><path stroke="black" fill="none" d="M 273.03125 499.66385 l -40.18399 72.71979 l 226.35422 49.770203 l 21.530304 -40.457214 l 30.246124 -56.920715 l -90.01764 169.2185 l -27.1846 51.09015 l -246.69418 -17.45343 l 40.174698 -72.763306 l -86.06137 157.17847 l -68.819855 158.41125 l 0.7583885 0.0009765625 l 29.242302 -0.11376953 l -5.2569084 -77.18628 l 0.05662918 0.24383545 l 54.39337 77.06366 l -16.722733 0.0 l 68.87845 0.0 l -16.852554 0.0 l 48.739227 0.0 l 26.105164 0.0 l 26.105133 0.0 l 26.105148 0.0 l 29.777954 -55.58789 l 31.659271 -59.9151 l 27.160736 -51.052734 l 348.33878 -112.977844 l 27.775757 56.922974 l 33.721924 66.62671 l 19.986511 40.24121 l 29.762878 60.154785 l 27.798523 55.58789 l 25.416199 0.0 l 25.416199 0.0 l 26.971558 0.0 l 22.503296 0.0 l 26.570618 0.0 l 25.416199 0.0 l 25.41626 0.0 l 25.416016 0.0 l 27.07019 0.0 l 22.48999 0.0 l -76.75452 -150.28003 l -77.82379 -150.27997 l -290.9289 -87.89734 l 25.388489 51.16449 l 187.45178 -113.87622 l -76.10828 -150.45663 l -170.60498 -330.22354 l -57.17749 -110.72962 l 149.66656 290.55243 l -110.17389 259.93292 l 19.919556 40.115417 l -62.198975 -91.70529 l 1.8967285 -3.5958862 l -204.51251 -82.13788 l -40.173492 72.70334 l 87.22638 -157.02667 l 43.046387 -79.25217 l -40.45334 -550.6155 l 71.67917 138.6695 l -289.42053 -299.06122 l 0.5913086 0.0 l -102.60791 0.0 l 0.0 0.0 l 207.96477 0.0 l 0.0 0.0 l 16.835846 0.0 l -70.90013 0.0 l 0.7811279 0.0 " /> </g> </svg>