<?xml version="1.0" standalone="no"?><!DOCTYPE svg PUBLIC "-//W3C//DTD SVG 1.1//EN" "http://www.w3.org/Graphics/SVG/1.1/DTD/svg11.dtd" ><svg xmlns="http://www.w3.org/2000/svg" xmlns:xlink="http://www.w3.org/1999/xlink" version="1.1" viewBox="-10 0 692 1000"><g transform="matrix(1 0 0 -1 0 800)"><path stroke="black" fill="none" d="M 273.79834 498.20316 l -43.48979 78.735504 l 221.2765 59.57953 l 29.090546 -54.666626 l 29.838257 -56.07898 l -89.45297 168.10449 l -29.575623 55.578796 l -248.61934 -14.204773 l 43.489 -78.73926 l -87.46802 158.47803 l -85.988914 158.5838 l 23.71528 0.00018310547 l 26.580322 -0.00982666 l -8.130367 -79.11871 l 60.072414 79.12909 l -25.295555 0.0 l 77.49175 0.0 l -25.306686 0.0 l 51.903107 0.0 l 26.100449 0.0 l 26.100433 0.0 l 26.100449 0.0 l 29.798096 -55.96466 l 29.959503 -56.335876 l 29.573608 -55.57556 l 347.66333 -112.08392 l 27.797913 56.079224 l 28.308044 56.91162 l 27.12976 54.648132 l 27.968323 56.356384 l 27.799866 55.96466 l 25.401428 0.0 l 25.401367 0.0 l 25.534851 0.0 l 25.15149 0.0 l 25.500427 0.0 l 25.401428 0.0 l 25.401367 0.0 l 25.401367 0.0 l 25.543213 0.0 l 25.15039 0.0 l -77.527466 -150.38965 l -77.6192 -150.38971 l -293.188 -90.91675 l 27.59314 55.585205 l 187.95294 -115.086426 l -77.472046 -150.40482 l -156.52148 -303.32416 l -75.84808 -146.99681 l 154.72534 299.9209 l -115.683044 249.02367 l 27.123962 54.6373 l -83.40967 -59.06302 l 27.406189 -51.504242 l -208.24927 -75.064026 l -43.48889 78.7341 l 87.56796 -158.46506 l 43.73535 -79.29588 l -44.975647 -559.7434 l 77.09207 149.39369 l -307.68604 -300.65082 l 23.247604 0.0 l -58.084442 0.0 l 1.3557129 0.0 l -64.34405 0.0 l 0.0 0.0 l 219.3728 0.0 l -16.560333 0.0 l 46.51764 0.0 l -100.06343 0.0 l 23.363663 0.0 " /> </g> </svg>