<?xml version="1.0" standalone="no"?><!DOCTYPE svg PUBLIC "-//W3C//DTD SVG 1.1//EN" "http://www.w3.org/Graphics/SVG/1.1/DTD/svg11.dtd" ><svg xmlns="http://www.w3.org/2000/svg" xmlns:xlink="http://www.w3.org/1999/xlink" version="1.1" viewBox="-10 0 692 1000"><g transform="matrix(1 0 0 -1 0 800)"><path stroke="black" fill="none" d="M 273.79834 498.20316 l -43.797714 79.29587 l 220.80351 60.493225 l 29.79477 -55.990234 l 29.800293 -56.00055 l -89.40039 168.00073 l -29.79834 55.99695 l -248.79868 -13.902222 l 43.797714 -79.29584 l -87.59904 158.59906 l -87.58814 158.59985 l 26.082449 0.0 l 26.103535 -6.1035156e-05 l -8.398014 -79.298645 l 60.596115 79.298706 l -26.094078 0.0 l 78.29405 0.0 l -26.094147 0.0 l 52.1978 0.0 l 26.100006 0.0 l 26.100006 0.0 l 26.099976 0.0 l 29.800018 -55.999756 l 29.801178 -56.00244 l 29.79834 -55.996887 l 347.60043 -112.00061 l 27.799988 56.00055 l 27.80371 56.006714 l 27.795105 55.99005 l 27.80127 56.002625 l 27.799988 55.999756 l 25.400024 0.0 l 25.399963 0.0 l 25.401001 0.0 l 25.398132 0.0 l 25.400757 0.0 l 25.400024 0.0 l 25.400085 0.0 l 25.399902 0.0 l 25.401001 0.0 l 25.398315 0.0 l -77.59949 -150.3999 l -77.60022 -150.3999 l -293.39838 -91.19794 l 27.798462 55.99695 l 187.99963 -115.19916 l -77.59906 -150.40002 l -155.20972 -300.81854 l -77.5871 -150.37494 l 155.19653 300.79352 l -116.19623 248.00749 l 27.794983 55.98996 l -85.385315 -56.022522 l 29.78241 -55.96692 l -208.59744 -74.40491 l -43.7977 79.29587 l 87.59976 -158.59906 l 43.79953 -79.29996 l -45.39688 -560.5936 l 77.59625 150.39258 l -309.3874 -300.79886 l 25.681946 0.0 l -76.96005 0.0 l 25.52002 0.0 l -51.795006 0.0 l -25.111206 0.0 l 231.11316 0.0 l -25.632751 0.0 l 51.364075 0.0 l -102.77986 0.0 l 25.682816 0.0 " /> </g> </svg>