<?xml version="1.0" standalone="no"?><!DOCTYPE svg PUBLIC "-//W3C//DTD SVG 1.1//EN" "http://www.w3.org/Graphics/SVG/1.1/DTD/svg11.dtd" ><svg xmlns="http://www.w3.org/2000/svg" xmlns:xlink="http://www.w3.org/1999/xlink" version="1.1" viewBox="-10 0 692 1000"><g transform="matrix(1 0 0 -1 0 800)"><path stroke="black" fill="none" d="M 243.20457 556.45917 l 0.0 0.0 l 223.19992 12.774231 l 0.0 0.0 l -80.074524 158.73279 l 0.0 0.0 l -61.554962 -67.151245 l -35.0 44.700012 l -119.76816 -24.538208 l 0.0 0.0 l 49.768158 113.93823 l -105.993515 27.375916 l 35.993515 62.024048 l -35.0 44.700012 l -88.93497 28.276428 l 0.0 0.0 l 57.34274 16.423584 l 0.0 0.0 l 45.8789 0.0 l 26.305008 0.0 l 26.305038 0.0 l 26.305023 0.0 l 26.305023 0.0 l 26.305008 0.0 l 28.921326 -39.59796 l 49.247528 -102.39197 l 0.0 0.0 l 9.019379 141.98993 l 21.699982 -28.399963 l 21.700012 -28.400024 l 21.700012 -28.400024 l 21.699982 -28.399963 l 21.700012 -28.400024 l 21.700012 -28.399963 l 21.700012 -28.400024 l 21.699951 -28.400024 l 21.700012 -28.399963 l 21.700012 -28.400024 l 22.099976 28.400024 l 22.100037 28.399963 l 86.09296 -34.236145 l 0.0 0.0 l 26.837769 92.733215 l -46.630737 26.702942 l 79.23425 29.531372 l -35.03424 27.268616 l 22.099976 28.400024 l 22.100037 28.400024 l 22.099976 28.399963 l 22.367432 -39.59796 l 27.741394 39.59796 l 26.044373 0.0 l 26.044373 0.0 l 41.14679 0.0 l 0.0 0.0 l 28.902466 0.0 l 26.044373 0.0 l 26.044373 0.0 l 26.044312 0.0 l 44.12915 0.0 l 0.0 0.0 l -54.509033 -44.700012 l -36.0 -44.700012 l 3.8808594 -56.22577 l -75.88086 -33.174194 l -36.0 -44.700012 l 25.376831 -67.75165 l -97.37683 -21.648376 l -36.0 -44.69995 l -106.48389 4.314331 l 0.0 0.0 l 142.81262 -96.68414 l -66.62872 -49.730225 l 41.700012 -52.69998 l 6.698181 -50.225098 l 76.70178 -55.174896 l 41.700012 -52.700012 l 41.700012 -52.700012 l 41.700012 -52.699997 l 41.69995 -52.699997 l 41.700073 -52.7 l 41.69995 -52.7 l -26.799927 0.0 l -26.800049 0.0 l -26.800049 0.0 l -26.799927 0.0 l -26.800049 0.0 l -26.799988 0.0 l -26.799988 0.0 l -26.799988 0.0 l -26.799988 0.0 l -26.800049 0.0 l -28.599976 36.4 l -149.7981 35.55152 l 92.59808 37.24848 l -28.599976 36.40001 l -28.600037 36.399994 l -14.033569 38.945633 l -43.16638 33.85437 l -28.600037 36.40001 l -28.599976 36.399994 l 7.0094604 177.82092 l 0.0 0.0 l -268.0272 -110.776764 l 0.0 0.0 l 173.81772 -103.44415 l -90.04047 -32.510925 l 31.44046 -40.289093 l -17.632751 -37.1071 l -40.967255 -35.692886 l -29.299988 -36.40001 l -29.299988 -36.4 l -29.300018 -36.4 l 204.02597 -139.5888 l 0.0 0.0 l -260.82596 103.18881 l -27.5 1.8462742e-10 l -27.5 0.0 l -27.5 0.0 l -27.5 0.0 l -27.5 -4.2655302e-10 l 138.41791 -529.99915 l 0.0 0.0 l -193.41791 529.99915 l -27.500004 4.2655302e-10 l -27.5 0.0 " /> </g> </svg>