<?xml version="1.0" standalone="no"?><!DOCTYPE svg PUBLIC "-//W3C//DTD SVG 1.1//EN" "http://www.w3.org/Graphics/SVG/1.1/DTD/svg11.dtd" ><svg xmlns="http://www.w3.org/2000/svg" xmlns:xlink="http://www.w3.org/1999/xlink" version="1.1" viewBox="-10 0 692 1000"><g transform="matrix(1 0 0 -1 0 800)"><path stroke="black" fill="none" d="M 273.79834 498.20316 l -43.773376 79.25156 l 220.84088 60.42102 l 29.739136 -55.88556 l 29.803284 -56.006775 l -89.40454 168.00891 l -29.780731 55.963867 l -248.78452 -13.926086 l 43.773315 -79.25189 l -87.58868 158.58954 l -87.46179 158.59857 l 25.895424 0.0 l 26.141205 -0.0008544922 l -8.376869 -79.284424 l 60.55474 79.28534 l -26.030983 0.0 l 78.23066 0.0 l -26.031937 0.0 l 52.17453 0.0 l 26.100037 0.0 l 26.100037 0.0 l 26.100021 0.0 l 29.799866 -55.99695 l 29.81366 -56.02881 l 29.78061 -55.963623 l 347.6054 -112.0072 l 27.799805 56.006836 l 27.843567 56.078186 l 27.742554 55.884033 l 27.814392 56.03058 l 27.799988 55.99695 l 25.400146 0.0 l 25.400085 0.0 l 25.411621 0.0 l 25.378662 0.0 l 25.40863 0.0 l 25.400146 0.0 l 25.400146 0.0 l 25.400024 0.0 l 25.412231 0.0 l 25.378662 0.0 l -77.59375 -150.39911 l -77.601685 -150.39905 l -293.38177 -91.17578 l 27.782227 55.964417 l 187.99597 -115.190186 l -77.58905 -150.40042 l -155.31335 -301.01654 l -77.44971 -150.10805 l 155.1593 300.72458 l -116.1557 248.08778 l 27.742004 55.883057 l -85.22925 -56.262726 l 29.594666 -55.61432 l -208.56992 -74.45697 l -43.773285 79.251465 l 87.59723 -158.58847 l 43.794464 -79.29962 l -45.363586 -560.5265 l 77.55643 150.31367 l -309.253 -300.78717 l 25.489609 0.0 l -75.46872 0.0 l 23.601883 0.0 l -56.004417 0.0 l -18.836555 0.0 l 229.12178 0.0 l -24.915955 0.0 l 50.98117 0.0 l -102.56523 0.0 l 25.499573 0.0 " /> </g> </svg>