<?xml version="1.0" standalone="no"?><!DOCTYPE svg PUBLIC "-//W3C//DTD SVG 1.1//EN" "http://www.w3.org/Graphics/SVG/1.1/DTD/svg11.dtd" ><svg xmlns="http://www.w3.org/2000/svg" xmlns:xlink="http://www.w3.org/1999/xlink" version="1.1" viewBox="-10 0 692 1000"><g transform="matrix(1 0 0 -1 0 800)"><path stroke="black" fill="none" d="M 273.79834 498.20316 l -43.792206 79.2858 l 220.81198 60.476868 l 29.782166 -55.96649 l 29.800964 -56.001953 l -89.40134 168.00256 l -29.794342 55.98944 l -248.79547 -13.907593 l 43.79219 -79.28589 l -87.59669 158.59686 l -87.55952 158.59961 l 26.040081 0.0 l 26.112068 -0.00024414062 l -8.393223 -79.29547 l 60.586742 79.295715 l -26.07978 0.0 l 78.27968 0.0 l -26.080048 0.0 l 52.192535 0.0 l 26.100006 0.0 l 26.100006 0.0 l 26.100006 0.0 l 29.799988 -55.999084 l 29.803986 -56.008484 l 29.794312 -55.98932 l 347.60156 -112.00214 l 27.799927 56.002014 l 27.812805 56.02289 l 27.783203 55.966064 l 27.8042 56.008972 l 27.799988 55.999084 l 25.400024 0.0 l 25.400024 0.0 l 25.403442 0.0 l 25.393677 0.0 l 25.402588 0.0 l 25.400024 0.0 l 25.400024 0.0 l 25.400024 0.0 l 25.403564 0.0 l 25.393799 0.0 l -77.598145 -150.39972 l -77.600586 -150.39972 l -293.3946 -91.19293 l 27.794739 55.989563 l 187.99884 -115.19708 l -77.5968 -150.40012 l -155.23315 -300.8634 l -77.55603 -150.31448 l 155.18811 300.7779 l -116.18707 248.0257 l 27.78302 55.9657 l -85.349976 -56.076904 l 29.739868 -55.887024 l -208.59119 -74.41672 l -43.792175 79.2858 l 87.59921 -158.59665 l 43.79837 -79.29988 l -45.389343 -560.57837 l 77.58725 150.3747 l -309.35693 -300.7962 l 25.638367 0.0 l -76.62221 0.0 l 25.08548 0.0 l -52.748604 0.0 l -23.689743 0.0 l 230.66205 0.0 l -25.470367 0.0 l 51.277313 0.0 l -102.73123 0.0 l 25.641296 0.0 " /> </g> </svg>