<?xml version="1.0" standalone="no"?><!DOCTYPE svg PUBLIC "-//W3C//DTD SVG 1.1//EN" "http://www.w3.org/Graphics/SVG/1.1/DTD/svg11.dtd" ><svg xmlns="http://www.w3.org/2000/svg" xmlns:xlink="http://www.w3.org/1999/xlink" version="1.1" viewBox="-10 0 692 1000"><g transform="matrix(1 0 0 -1 0 800)"><path stroke="black" fill="none" d="M 273.57483 498.62875 l -42.74089 77.37271 l 222.4268 57.3573 l 27.377838 -51.44763 l 29.930664 -56.269653 l -89.5809 168.35687 l -29.033936 54.56195 l -248.18323 -14.940735 l 42.738174 -77.38544 l -87.14935 158.1836 l -82.09943 158.54474 l 17.958055 0.0005493164 l 27.739918 -0.03363037 l -7.479412 -78.68091 l 58.79871 78.71643 l -23.353462 0.0 l 75.54049 0.0 l -23.39148 0.0 l 51.186356 0.0 l 26.101517 0.0 l 26.101501 0.0 l 26.101501 0.0 l 29.793549 -55.879272 l 30.344574 -57.14673 l 29.026978 -54.550964 l 347.81635 -112.28644 l 27.792908 56.270325 l 29.534485 59.112488 l 25.511536 51.3844 l 28.374878 57.21692 l 27.79956 55.879272 l 25.404785 0.0 l 25.404724 0.0 l 25.86029 0.0 l 24.551575 0.0 l 25.742859 0.0 l 25.404785 0.0 l 25.404785 0.0 l 25.404663 0.0 l 25.88916 0.0 l 24.54773 0.0 l -77.35242 -150.3648 l -77.66553 -150.36487 l -292.6762 -90.23273 l 27.093628 54.58374 l 187.83948 -114.812256 l -77.16315 -150.41656 l -159.71198 -309.41797 l -71.61841 -138.7808 l 153.57928 297.79855 l -114.435 251.49506 l 25.491882 51.347473 l -78.60455 -66.457825 l 21.626953 -40.650482 l -207.40244 -76.66708 l -42.737823 77.36789 l 87.49057 -158.13919 l 43.579285 -79.285995 l -43.95117 -557.67554 l 75.865845 146.96422 l -303.54816 -300.2907 l 17.327011 0.0 l -58.441605 0.0 l 0.0 0.0 l -52.386932 0.0 l 198.26463 0.0 l -0.28311157 0.0 l 40.518494 0.0 l -93.45676 0.0 l 17.72322 0.0 " /> </g> </svg>