<?xml version="1.0" standalone="no"?><!DOCTYPE svg PUBLIC "-//W3C//DTD SVG 1.1//EN" "http://www.w3.org/Graphics/SVG/1.1/DTD/svg11.dtd" ><svg xmlns="http://www.w3.org/2000/svg" xmlns:xlink="http://www.w3.org/1999/xlink" version="1.1" viewBox="-10 0 692 1000"><g transform="matrix(1 0 0 -1 0 800)"><path stroke="black" fill="none" d="M 264.8388 515.26373 l -1.7844086 2.8516846 l 242.71826 15.668396 l 0.0 0.0 l 11.364014 -22.05249 l -96.59985 182.20361 l -0.73349 1.4146729 l -59.169098 -75.44507 l -35.0 44.700012 l -128.66302 -27.224731 l 1.633606 -3.2671509 l 57.02942 119.89191 l -126.78703 22.301758 l 56.787033 67.098206 l -35.0 44.700012 l -97.50523 43.16687 l 0.46154404 0.11999512 l 28.238567 -54.6604 l 0.0 0.0 l 0.49607468 2.0947266 l 38.645874 53.97882 l 0.0 0.0 l 49.97856 0.0 l 0.0 0.0 l 45.02803 0.0 l 26.16005 0.0 l 26.16005 0.0 l 26.160034 0.0 l 29.542664 -51.195984 l 51.47342 -101.63812 l 0.67178345 -1.3442383 l 7.4885864 154.17834 l 21.699982 -28.399963 l 21.700012 -28.400024 l 21.700012 -28.400024 l 21.699982 -28.399963 l 21.700012 -28.400024 l 21.700012 -28.399963 l 21.700012 -28.400024 l 21.699951 -28.400024 l 21.700012 -28.399963 l 21.700012 -28.400024 l 22.099976 28.400024 l 22.100037 28.399963 l 85.8858 -47.362793 l 0.00024414062 0.016235352 l 27.517883 66.742676 l -47.103943 65.803894 l 95.11224 18.361816 l 0.0 0.0 l -50.91223 38.43817 l 22.099976 28.400024 l 22.100037 28.400024 l 22.099976 28.399963 l 20.834839 -51.195984 l 27.782837 51.195984 l 25.588745 0.0 l 25.588684 0.0 l 43.704773 0.0 l 0.30786133 0.0 l 30.385864 0.0 l 25.588745 0.0 l 25.588745 0.0 l 25.588623 0.0 l 44.847656 0.0 l 0.29406738 0.0 l -56.10144 -44.700012 l -36.0 -44.700012 l 15.5616455 -59.601624 l -87.561646 -29.79834 l -36.0 -44.700012 l 43.3537 -74.503296 l -115.3537 -14.8967285 l -36.0 -44.69995 l -113.24133 6.8964233 l 0.7180786 1.6325684 l 180.58075 -101.76868 l -98.35748 -48.86035 l 41.700012 -52.69998 l -3.5535889 -49.500214 l 86.95355 -55.89978 l 41.700012 -52.700012 l 41.700012 -52.700012 l 41.700012 -52.699997 l 41.69995 -52.699997 l 41.700073 -52.7 l 41.69995 -52.7 l -26.799927 0.0 l -26.800049 0.0 l -26.800049 0.0 l -26.799927 0.0 l -26.800049 0.0 l -26.799988 0.0 l -26.799988 0.0 l -26.799988 0.0 l -26.799988 0.0 l -26.800049 0.0 l -28.599976 36.4 l -250.56488 -71.11863 l 0.0 0.0 l 193.36487 143.91864 l -28.599976 36.40001 l -28.600037 36.399994 l -9.767212 39.691223 l -47.43274 33.10878 l -28.600037 36.40001 l -28.599976 36.399994 l 7.2296753 179.20834 l 0.0 0.0 l -47.014587 -73.18756 l -236.96405 -35.936584 l -1.6972961 2.7254944 l 191.24625 -109.20969 l -107.83096 -31.371857 l 49.230957 -41.42816 l -14.215485 -37.31421 l -44.38452 -35.48578 l -29.299988 -36.40001 l -29.299988 -36.4 l -29.300018 -36.4 l 144.5469 -299.52725 l 8.581848 13.659149 l -209.92874 249.4681 l -27.5 1.8462742e-10 l -27.5 0.0 l -27.5 0.0 l -27.5 0.0 l -27.5 -4.2655302e-10 l -34.864464 -529.9999 l 0.0 0.0 l 174.15308 0.0 l 0.0 0.0 l -194.2886 529.9999 l -27.500004 4.2655302e-10 l -27.5 0.0 " /> </g> </svg>