<?xml version="1.0" standalone="no"?><!DOCTYPE svg PUBLIC "-//W3C//DTD SVG 1.1//EN" "http://www.w3.org/Graphics/SVG/1.1/DTD/svg11.dtd" ><svg xmlns="http://www.w3.org/2000/svg" xmlns:xlink="http://www.w3.org/1999/xlink" version="1.1" viewBox="-10 0 692 1000"><g transform="matrix(1 0 0 -1 0 800)"><path stroke="black" fill="none" d="M 271.17532 503.19788 l -31.454193 56.8338 l 239.76321 23.86615 l 1.5944519 -2.987854 l 31.294312 -59.089172 l -91.50876 172.16016 l -20.870483 39.236816 l -241.61032 -26.032227 l 31.42244 -56.982483 l -82.34679 153.7467 l -68.98068 157.89777 l 0.0 0.0 l 21.906937 -0.3272705 l 2.3311882 -72.08325 l 0.005809784 0.025024414 l 4.148903 17.822266 l 35.447903 54.64984 l -0.42128754 0.0 l 52.470055 0.0 l -0.46131897 0.0 l 46.318268 0.0 l 26.1176 0.0 l 26.117569 0.0 l 26.117584 0.0 l 29.72464 -54.592957 l 36.14798 -69.367065 l 20.78897 -39.108826 l 350.12234 -115.33862 l 0.0016479492 0.10473633 l 27.71576 59.046448 l 48.018738 92.28186 l 1.2193604 2.3920288 l 34.405273 69.98944 l 27.794983 54.592957 l 25.455322 0.0 l 25.4552 0.0 l 30.765686 0.0 l 15.510193 0.0 l 29.396484 0.0 l 25.455322 0.0 l 25.455322 0.0 l 25.4552 0.0 l 31.102173 0.0 l 15.464478 0.0 l -74.71338 -149.99042 l -78.36389 -149.99042 l -284.9632 -79.923706 l 19.56665 39.490417 l 186.12817 -110.6803 l -72.5069 -150.59348 l -207.79596 -401.25824 l -7.872986 -14.956879 l 136.30762 265.81262 l -95.62555 288.74167 l 1.0669556 2.1159973 l -55.28302 -85.486084 l 0.0 0.0 l -211.18839 -70.6687 l -31.418427 56.77762 l 86.32437 -153.2283 l 41.22705 -79.13667 l -28.511078 -526.511 l 57.38507 110.34953 l -290.54483 -294.86353 l 0.0 0.0 l -100.960434 0.0 l 222.10191 0.0 l 0.0 0.0 l -61.923782 0.0 l 0.0 0.0 " /> </g> </svg>