<?xml version="1.0" standalone="no"?><!DOCTYPE svg PUBLIC "-//W3C//DTD SVG 1.1//EN" "http://www.w3.org/Graphics/SVG/1.1/DTD/svg11.dtd" ><svg xmlns="http://www.w3.org/2000/svg" xmlns:xlink="http://www.w3.org/1999/xlink" version="1.1" viewBox="-10 0 692 1000"><g transform="matrix(1 0 0 -1 0 800)"><path stroke="black" fill="none" d="M 49.24002 10.704704 l 0.0 0.0 l 158.43616 -123.58221 l 0.0 0.0 l 332.1287 211.15375 l 0.0 0.0 l -96.22754 -0.31803894 l 0.0 0.0 l -261.7771 74.92853 l 3.5297546 4.4436646 l 90.83502 111.975586 l 0.0 0.0 l -77.17148 94.81546 l -43.799988 79.29999 l -51.691345 185.78674 l 0.0 0.0 l 50.56198 0.46020508 l -75.8707 65.010315 l 0.0 0.0 l -6.1035156e-05 3.5407715 l 0.0 0.0 l -54.39987 -16.89801 l -43.8 79.29999 l -43.8 79.29999 l 26.099998 0.0 l 26.100002 0.0 l 26.100002 0.0 l 26.099998 0.0 l 37.59526 -84.91211 l 0.0 0.0 l 0.002456665 12.214355 l 0.10972595 62.725403 l 0.0 0.0 l 40.59256 9.972351 l 26.100006 0.0 l 93.976776 0.0 l 0.0 0.0 l 146.49292 0.0 l -4.351074 0.0 l -154.11862 -56.0 l 29.799988 -56.0 l 7.9203796 -97.658264 l 1.1843262 -0.03173828 l 123.12192 -0.34295654 l -1.0713806 0.0026855469 l -59.582397 -5.9747925 l 47.627167 -119.994934 l 69.293976 -29.304932 l -55.1304 -74.650024 l 75.23642 -64.04501 l 29.799988 -56.0 l 27.799988 56.0 l 27.799988 55.99997 l 27.800049 56.0 l 27.799988 56.0 l -83.82544 50.148987 l 9.531128 75.81531 l 0.0 0.0 l 20.044739 -0.06719971 l 137.64954 42.102905 l 27.800049 56.0 l 27.799988 56.0 l -170.19885 56.0 l -3.3695679 0.0 l 183.63489 0.0 l 75.66437 0.0 l 18.269165 0.0 l 25.399963 0.0 l 25.400024 0.0 l 25.765686 0.0 l 25.034363 0.0 l 25.399902 0.0 l 25.400024 0.0 l 19.000488 0.0 l -71.20044 -150.39996 l -77.60004 -150.39996 l -77.599976 -150.40002 l -79.61188 -310.7704 l 0.0 0.0 l -51.31372 0.073516846 l 182.45947 -0.123306274 l 0.0 0.0 l -23.618713 -0.036834717 l 146.88483 -132.3902 l 0.0 0.0 l -21.228638 -73.5037 l 0.0 0.0 l -271.81897 -6.3126965 l -84.19995 0.213651 l 0.0 0.0 l -160.79596 -19.612347 l -102.356476 -359.93765 l -77.600006 -150.39996 l -25.699982 0.0 l -25.700012 0.0 l -25.699997 0.0 l -25.699997 0.0 l -25.700012 0.0 l -25.699997 0.0 l -25.699997 0.0 l -25.700005 0.0 l -25.700005 0.0 l -25.699997 0.0 " /> </g> </svg>