<?xml version="1.0" standalone="no"?><!DOCTYPE svg PUBLIC "-//W3C//DTD SVG 1.1//EN" "http://www.w3.org/Graphics/SVG/1.1/DTD/svg11.dtd" ><svg xmlns="http://www.w3.org/2000/svg" xmlns:xlink="http://www.w3.org/1999/xlink" version="1.1" viewBox="-10 0 692 1000"><g transform="matrix(1 0 0 -1 0 800)"><path stroke="black" fill="none" d="M 121.45647 0.0008080618 l -102.30002 -0.00079652946 l 63.141148 76.509125 l 62.9757 76.24971 l 78.87724 -152.76074 l 102.43883 -1.4357807e-05 l 254.34225 211.99995 l 57.864136 0.0 l -173.66348 -1.5258789e-05 l 57.8649 0.0 l -314.58307 17.210678 l 63.089005 76.3867 l 126.17386 152.76855 l -63.062683 -76.3548 l -131.81364 381.98874 l 49.700165 6.1035156e-05 l -99.395645 0.0073242188 l 0.0 21.106567 l 0.0 20.83899 l 0.0 21.05365 l 0.0 20.98352 l 0.0 41.99579 l 0.0 -20.97583 l 0.0 41.98828 l 0.0 21.034729 l 0.0 20.932068 l 0.0 21.028564 l 94.194916 0.0064086914 l 94.19998 0.0 l 188.39221 0.0 l -94.18335 0.0 l -133.49683 -209.99994 l 49.690186 0.0 l 149.09601 -6.1035156e-05 l -49.690002 0.0 l -49.70282 -0.0010986328 l 122.29901 -152.79938 l -63.09851 -76.39966 l 126.20117 152.80023 l -36.278076 76.3999 l 49.669617 0.0 l 49.70221 0.0 l 68.19165 210.0 l -94.18317 0.0 l 188.39905 0.0 l 94.196594 0.0 l 94.200134 0.0 l 94.200134 0.0 l -340.47357 -762.0 l 57.864197 0.0 l -115.78308 1.5258789e-05 l 289.46478 -1.5258789e-05 l -57.865173 0.0 l -57.902344 -1.5258789e-05 l 173.69507 -42.28116 l 0.0 21.044098 l 0.0 21.21312 l 0.0 -84.74123 l 0.0 21.148514 l 0.0 -105.864334 l 0.0 21.044231 l 0.0 21.350395 l 0.0 21.033356 l -0.00012207031 -84.78028 l 0.00012207031 -21.143637 l -204.85107 -0.023069205 l 102.2984 1.510045e-06 l -204.99286 7.824392e-07 l -102.43933 7.048675e-07 l -204.86618 -0.00044553174 l 102.300995 0.00013492728 " /> </g> </svg>