<?xml version="1.0" standalone="no"?><!DOCTYPE svg PUBLIC "-//W3C//DTD SVG 1.1//EN" "http://www.w3.org/Graphics/SVG/1.1/DTD/svg11.dtd" ><svg xmlns="http://www.w3.org/2000/svg" xmlns:xlink="http://www.w3.org/1999/xlink" version="1.1" viewBox="-10 0 692 1000"><g transform="matrix(1 0 0 -1 0 800)"><path stroke="black" fill="none" d="M 121.45647 0.0008080618 l -101.81722 -0.0027195215 l 63.240494 76.77257 l 62.67563 75.88691 l 79.06372 -152.666 l 102.29117 -4.902063e-05 l 254.4443 211.99986 l 57.777405 -1.5258789e-05 l -173.57523 -4.5776367e-05 l 57.78018 -1.5258789e-05 l -314.5423 17.236465 l 63.062393 76.35457 l 126.11081 152.69272 l -62.972534 -76.24573 l -131.84659 381.96155 l 49.70053 0.00024414062 l -99.38513 0.024902344 l 0.0 21.363953 l 0.0 20.450195 l 0.0 21.183228 l 0.0 20.943787 l 0.0 41.985474 l 0.0 -20.917358 l 0.0 41.9599 l 0.0 21.11853 l 0.0 20.768066 l 0.0 21.097656 l 94.18268 0.021850586 l 94.19989 0.0 l 188.37354 0.0 l -94.14325 0.0 l -133.48923 -209.99976 l 49.666534 -6.1035156e-05 l 149.08643 -0.00018310547 l -49.665955 0.0 l -49.709564 -0.0037841797 l 122.2966 -152.79779 l -63.09497 -76.398926 l 126.20392 152.80084 l -36.225037 76.39966 l 49.596375 0.0 l 49.70752 -6.1035156e-05 l 68.17145 210.00006 l -94.142456 0.0 l 188.39679 0.0 l 94.18829 0.0 l 94.20044 0.0 l 94.20038 0.0 l -340.4098 -762.0 l 57.77771 0.0 l -115.742004 6.1035156e-05 l 289.37952 -6.1035156e-05 l -57.781006 0.0 l -57.907898 -3.0517578e-05 l 173.6831 -41.994278 l 0.0 20.667725 l 0.0 21.244797 l 0.0 -84.59933 l 0.0 21.024208 l 0.0 -105.536804 l 0.0 20.668175 l 0.0 21.713467 l 0.0 20.631027 l -0.00024414062 -84.73265 l 0.00012207031 -21.007565 l -204.49133 -0.07876319 l 101.81171 5.1556162e-06 l -204.97565 2.6714151e-06 l -102.29285 2.4065666e-06 l -204.54321 -0.0015211403 l 101.82068 0.00046067033 " /> </g> </svg>