<?xml version="1.0" standalone="no"?><!DOCTYPE svg PUBLIC "-//W3C//DTD SVG 1.1//EN" "http://www.w3.org/Graphics/SVG/1.1/DTD/svg11.dtd" ><svg xmlns="http://www.w3.org/2000/svg" xmlns:xlink="http://www.w3.org/1999/xlink" version="1.1" viewBox="-10 0 692 1000"><g transform="matrix(1 0 0 -1 0 800)"><path stroke="black" fill="none" d="M 121.45647 0.0008080618 l -102.44143 -0.00023329805 l 63.112053 76.43197 l 63.063583 76.35597 l 78.82263 -152.7885 l 102.482086 -4.2053034e-06 l 254.31235 211.99998 l 57.889526 0.0 l -173.68933 0.0 l 57.88977 0.0 l -314.5951 17.203125 l 63.096786 76.39612 l 126.19232 152.79077 l -63.08905 -76.38675 l -131.80402 381.99667 l 49.700058 6.1035156e-05 l -99.39873 0.0021362305 l 0.0 21.031189 l 0.0 20.95288 l 0.0 21.015686 l 0.0 20.995178 l 0.0 41.99878 l 0.0 -20.99292 l 0.0 41.996582 l 0.0 21.010132 l 0.0 20.980103 l 0.0 21.008362 l 94.1985 0.0018920898 l 94.2 0.0 l 188.3977 0.0 l -94.19513 0.0 l -133.49905 -210.0 l 49.697113 0.0 l 149.09885 0.0 l -49.697052 0.0 l -49.700836 -0.00030517578 l 122.29971 -152.7998 l -63.09955 -76.39996 l 126.20032 152.80011 l -36.29358 76.39996 l 49.6911 0.0 l 49.700623 0.0 l 68.19757 210.0 l -94.19507 0.0 l 188.39972 0.0 l 94.198975 0.0 l 94.20007 0.0 l 94.20001 0.0 l -340.49225 -762.0 l 57.889526 0.0 l -115.795044 0.0 l 289.48975 0.0 l -57.88983 0.0 l -57.900696 0.0 l 173.69855 -42.36519 l 0.0 21.154327 l 0.0 21.203842 l 0.0 -84.78278 l 0.0 21.184914 l 0.0 -105.960266 l 0.0 21.154377 l 0.0 21.24405 l 0.0 21.151192 l 0.0 -84.79423 l 0.0 -21.18349 l -204.95636 -0.0067568137 l 102.44092 4.4228182e-07 l -204.99786 2.2917084e-07 l -102.48224 2.0645075e-07 l -204.96082 -0.00013049322 l 102.44171 3.9519276e-05 " /> </g> </svg>