<?xml version="1.0" standalone="no"?><!DOCTYPE svg PUBLIC "-//W3C//DTD SVG 1.1//EN" "http://www.w3.org/Graphics/SVG/1.1/DTD/svg11.dtd" ><svg xmlns="http://www.w3.org/2000/svg" xmlns:xlink="http://www.w3.org/1999/xlink" version="1.1" viewBox="-10 0 692 1000"><g transform="matrix(1 0 0 -1 0 800)"><path stroke="black" fill="none" d="M 115.582214 0.11083031 l -75.32612 -0.10823417 l 68.69166 91.227776 l 46.21048 55.979813 l 89.295364 -147.46695 l 94.18965 -0.0019509699 l 260.04343 211.9941 l 53.01935 -0.00039672852 l -168.73279 -0.002243042 l 53.131042 -4.5776367e-05 l -312.30365 18.651154 l 61.603073 74.59183 l 122.65115 148.53052 l -58.026917 -70.26047 l -133.65396 380.46875 l 49.721664 0.01159668 l -98.80879 0.9911499 l 0.0 0.09301758 l 0.0 35.39081 l 0.0 0.69073486 l 0.0 26.71997 l 0.0 18.763245 l -3.0517578e-05 41.421265 l 1.5258789e-05 -17.711609 l -4.5776367e-05 40.404114 l 0.00012207031 25.719177 l 0.0 0.54663086 l 7.6293945e-05 11.221741 l 0.00010681152 24.887573 l 93.51128 0.8685303 l 94.19441 0.0 l 187.34698 0.0 l -91.940674 0.0 l -133.07199 -209.9914 l 48.36841 -0.0017089844 l 148.55981 -0.0076904297 l -48.345917 0.00012207031 l -50.080536 -0.15020752 l 122.164825 -152.71204 l -62.89972 -76.35608 l 126.35608 152.83276 l -33.314575 76.385925 l 45.573853 6.1035156e-05 l 49.998352 -0.002319336 l 67.06555 210.00256 l -91.91028 0.0 l 188.27277 0.0 l 93.734314 0.0 l 94.21594 0.0 l 94.216 0.0 l -336.91046 -761.99976 l 53.031067 -3.0517578e-05 l -113.48865 0.002380371 l 284.70197 -0.0027770996 l -53.163696 3.0517578e-05 l -58.21161 -0.0012817383 l 173.02625 -26.252716 l 0.0 0.90722656 l 0.0 22.091934 l 0.0 -76.81343 l 0.0 14.203873 l -0.00012207031 -87.56552 l 0.0 0.91278076 l 0.0 40.756493 l 0.0 0.5968323 l -0.010009766 -84.16095 l 0.0036621094 -13.54118 l -184.75311 -3.134695 l 75.105225 0.00020518829 l -204.03113 0.00010631955 l -94.25421 9.577896e-05 l -186.82007 -0.060539838 l 75.46265 0.018334217 " /> </g> </svg>