<?xml version="1.0" standalone="no"?><!DOCTYPE svg PUBLIC "-//W3C//DTD SVG 1.1//EN" "http://www.w3.org/Graphics/SVG/1.1/DTD/svg11.dtd" ><svg xmlns="http://www.w3.org/2000/svg" xmlns:xlink="http://www.w3.org/1999/xlink" version="1.1" viewBox="-10 0 692 1000"><g transform="matrix(1 0 0 -1 0 800)"><path stroke="black" fill="none" d="M 52.51706 1.2920138 l 0.0 0.0 l 75.827515 114.50082 l 0.0 0.0 l 170.81738 -125.07938 l 5.628998 -0.02274032 l 321.24866 211.9311 l 1.8901367 -0.003967285 l -116.680725 -0.026748657 l 2.5659485 -0.00064086914 l -288.08923 34.115906 l 45.650406 55.32222 l 84.831696 103.03168 l -3.9640503 -4.832855 l -153.41083 364.15097 l -0.026275635 -0.0007324219 l 49.978745 0.13555908 l -92.50841 11.553711 l 0.0 0.0 l 0.0 13.458679 l -1.5258789e-05 42.846252 l 0.0 0.39276123 l -0.00039672852 42.93933 l 0.0 -0.044433594 l -0.0002593994 33.087402 l 0.005996704 45.674927 l 0.0 0.0 l -0.0024871826 10.041321 l 86.171875 10.1241455 l 94.13464 0.0 l -0.029754639 0.0 l 176.15543 0.0 l -67.86371 0.0 l -128.51114 -209.8999 l 34.17804 -0.019836426 l 142.80322 -0.089904785 l -33.916046 0.0020141602 l -54.135437 -1.7512207 l 120.72458 -151.77484 l -60.765747 -75.88745 l 128.01917 153.18195 l -1.4990845 76.23547 l 2.1223145 0.0006713867 l 52.657776 -0.02709961 l 54.976013 210.03015 l -67.50928 0.0 l 186.91724 0.0 l 88.77106 0.0 l 94.385925 0.0 l 94.38599 0.0 l -298.65704 -761.9971 l 1.9437866 -0.00035095215 l -89.656494 0.027679443 l 233.56952 -0.03237915 l -2.8452759 0.0004119873 l -61.376404 -0.0149383545 l 165.84601 -20.878433 l 0.0 0.0 l 0.0 -43.949493 l 0.0 0.0 l -0.053344727 -74.46299 l 0.0 0.0 l -0.32983398 -60.542458 l 0.0 0.0 l -139.69165 -12.1725645 l 0.0 0.0 l -239.52881 0.017196162 l -6.380188 0.001116462 l -149.93591 -1.6824576 l 0.0 0.0 " /> </g> </svg>