<?xml version="1.0" standalone="no"?><!DOCTYPE svg PUBLIC "-//W3C//DTD SVG 1.1//EN" "http://www.w3.org/Graphics/SVG/1.1/DTD/svg11.dtd" ><svg xmlns="http://www.w3.org/2000/svg" xmlns:xlink="http://www.w3.org/1999/xlink" version="1.1" viewBox="-10 0 692 1000"><g transform="matrix(1 0 0 -1 0 800)"><path stroke="black" fill="none" d="M 101.29538 0.37841672 l -9.722549 -0.36953437 l 82.1911 127.02517 l 5.4355927 6.6811523 l 114.63341 -134.59186 l 74.126724 -0.0066610277 l 273.90924 211.97983 l 41.23639 -0.0013427734 l -156.74075 -0.007659912 l 41.617706 -0.00019836426 l -306.75983 22.154556 l 57.98915 70.22649 l 114.083466 138.22318 l -45.77939 -55.438354 l -138.12976 376.772 l -0.2614441 -0.0076293945 l 50.0354 0.04711914 l -97.3815 3.3840332 l 0.0 0.015258789 l 0.0 32.80951 l 0.0 0.0 l 0.0 29.815125 l 0.0 13.363342 l -0.00010681152 40.02411 l 6.1035156e-05 -9.772827 l -0.00015258789 36.55127 l 0.00065612793 28.05426 l 0.0 0.0 l 0.0 0.059509277 l 0.00036621094 32.75287 l 91.84862 2.965271 l 94.18086 0.0 l -0.3315735 0.0 l 185.13647 0.0 l -86.48627 0.0 l -132.03876 -209.9707 l 45.153687 -0.00579834 l 147.25574 -0.026306152 l -45.076965 0.0005493164 l -50.999146 -0.5128784 l 121.83856 -152.49976 l -62.41629 -76.24988 l 126.73282 152.91187 l -26.107056 76.35181 l 35.612427 0.00024414062 l 50.71869 -0.0079956055 l 64.32678 210.00885 l -86.38245 0.0 l 187.9657 0.0 l 92.609924 0.0 l 94.254456 0.0 l 94.254456 0.0 l -328.24445 -761.99915 l 41.276367 -0.00012207031 l -107.908325 0.008117676 l 273.11835 -0.009475708 l -41.72931 0.00012207031 l -58.963806 -0.0043792725 l 171.39966 -18.487778 l 0.0 0.0 l 0.0 7.3794403 l 0.0 -57.532166 l 0.0 0.55570984 l -0.0015869141 -77.25942 l 0.0 0.0 l 0.00024414062 30.267006 l 0.0 0.0 l -0.033447266 -91.16686 l 0.0017089844 -0.3216133 l -135.86176 -5.4320903 l 8.968262 0.0007005567 l -201.69208 0.00036299764 l -74.347046 0.0003270097 l -142.92978 -0.2066959 l 10.188721 0.06259692 " /> </g> </svg>