<?xml version="1.0" standalone="no"?><!DOCTYPE svg PUBLIC "-//W3C//DTD SVG 1.1//EN" "http://www.w3.org/Graphics/SVG/1.1/DTD/svg11.dtd" ><svg xmlns="http://www.w3.org/2000/svg" xmlns:xlink="http://www.w3.org/1999/xlink" version="1.1" viewBox="-10 0 692 1000"><g transform="matrix(1 0 0 -1 0 800)"><path stroke="black" fill="none" d="M 119.76673 0.032456055 l -94.540955 -0.03170106 l 64.737755 80.74295 l 58.153175 70.41907 l 81.87402 -151.23799 l 100.06595 -0.000571426 l 255.98221 211.99828 l 56.47052 -0.00012207031 l -172.24518 -0.00065612793 l 56.503235 -1.5258789e-05 l -313.92743 17.62503 l 62.66156 75.87041 l 125.16055 151.5495 l -61.614136 -74.601776 l -132.343 381.5515 l 49.706345 0.0034179688 l -99.22684 0.2902832 l 0.0 25.242188 l 0.0 14.591309 l 0.0 23.13562 l 0.0 20.344849 l -1.5258789e-05 41.830505 l 1.5258789e-05 -20.036865 l -1.5258789e-05 41.532593 l 3.0517578e-05 22.382202 l 3.0517578e-05 2.9729004 l 0.0 15.323242 l 3.0517578e-05 22.13861 l 93.99826 0.25439453 l 94.19838 0.0 l 188.09155 0.0 l -93.53824 0.0 l -133.37463 -209.9975 l 49.309967 -0.00048828125 l 148.9418 -0.0022583008 l -49.303406 6.1035156e-05 l -49.811462 -0.044006348 l 122.26041 -152.77423 l -63.04132 -76.387146 l 126.24573 152.80957 l -35.4256 76.395935 l 48.491455 0.0 l 49.787415 -0.0006713867 l 67.867676 210.00073 l -93.5293 0.0 l 188.36267 0.0 l 94.0636 0.0 l 94.20471 0.0 l 94.20465 0.0 l -339.4486 -761.99994 l 56.473938 -1.5258789e-05 l -115.12305 0.0007019043 l 288.09473 -0.0008239746 l -56.512817 1.5258789e-05 l -57.991272 -0.00038146973 l 173.50269 -37.670563 l 0.0 14.995316 l 0.0 21.722305 l 0.0 -82.460785 l 0.0 19.150879 l 0.0 -100.60066 l 0.0 15.000618 l 0.0 27.18536 l 0.0 14.56752 l -0.0029296875 -84.01488 l 0.0009765625 -18.956783 l -199.06976 -0.9181309 l 94.47626 6.0098246e-05 l -204.71625 3.1140284e-05 l -100.08484 2.8053008e-05 l -199.67523 -0.017731708 l 94.58093 0.005369967 " /> </g> </svg>