<?xml version="1.0" standalone="no"?><!DOCTYPE svg PUBLIC "-//W3C//DTD SVG 1.1//EN" "http://www.w3.org/Graphics/SVG/1.1/DTD/svg11.dtd" ><svg xmlns="http://www.w3.org/2000/svg" xmlns:xlink="http://www.w3.org/1999/xlink" version="1.1" viewBox="-10 0 692 1000"><g transform="matrix(1 0 0 -1 0 800)"><path stroke="black" fill="none" d="M 124.046486 124.783264 l 0.0 0.0 l 356.79712 91.89181 l 0.0 0.0 l -208.62222 108.19621 l 0.0 0.0 l 81.97931 122.49103 l -100.36856 51.369293 l -43.799988 79.29999 l 6.4277344 177.30371 l 0.0 0.0 l -83.43442 30.338745 l 0.0 0.0 l -54.39331 30.257568 l -43.8 79.29999 l -43.8 79.29999 l 26.099998 0.0 l 26.100002 0.0 l 26.100002 0.0 l 26.099998 0.0 l 37.51535 -58.714783 l 0.0 0.0 l 4.3608856 58.714783 l 36.423767 0.0 l 26.100006 0.0 l 27.01921 0.0 l 198.46538 0.0 l 0.0 0.0 l -143.48459 -56.0 l 29.799988 -56.0 l 10.730316 -94.39697 l 0.0 0.0 l 123.68494 -3.954773 l 0.0 0.0 l -58.803833 -20.150757 l 43.588593 -105.4975 l 60.346985 -35.352478 l -35.890198 -70.42499 l 64.94321 -62.222504 l 29.799988 -56.0 l 27.799988 56.0 l 27.799988 55.99997 l 27.800049 56.0 l 27.799988 56.0 l -58.53772 51.474487 l -0.35925293 73.324524 l 0.0 0.0 l 142.29694 43.20099 l 27.800049 56.0 l 27.799988 56.0 l -159.63391 56.0 l 0.0 0.0 l 212.83392 0.0 l 30.915405 0.0 l 19.884583 0.0 l 25.399963 0.0 l 25.400024 0.0 l 25.682861 0.0 l 25.117188 0.0 l 25.399902 0.0 l 25.400024 0.0 l 20.450317 0.0 l -72.65027 -150.39996 l -77.60004 -150.39996 l -77.599976 -150.40002 l -207.8753 -309.61963 l 0.0 0.0 l 241.98694 -1.8430634 l 0.0 0.0 l 140.34595 -133.14627 l 0.0 0.0 l -445.21088 -80.17107 l 0.0 0.0 l -117.246704 -227.21997 l -77.600006 -150.4 l -77.600006 -150.39996 l -25.699982 0.0 l -25.700012 0.0 l -25.699997 0.0 l -25.699997 0.0 l -25.700012 0.0 l -25.699997 0.0 l -25.699997 0.0 l -25.700005 0.0 l -25.700005 0.0 l -25.699997 0.0 " /> </g> </svg>