<?xml version="1.0" standalone="no"?><!DOCTYPE svg PUBLIC "-//W3C//DTD SVG 1.1//EN" "http://www.w3.org/Graphics/SVG/1.1/DTD/svg11.dtd" ><svg xmlns="http://www.w3.org/2000/svg" xmlns:xlink="http://www.w3.org/1999/xlink" version="1.1" viewBox="-10 0 692 1000"><g transform="matrix(1 0 0 -1 0 800)"><path stroke="black" fill="none" d="M 121.45647 0.0008080618 l -100.16885 -0.009285029 l 63.579685 77.67202 l 61.651108 74.648224 l 79.70036 -152.3425 l 101.78706 -0.00016736682 l 254.79272 211.99951 l 57.481323 -4.5776367e-05 l -173.2739 -0.00018310547 l 57.490875 -1.5258789e-05 l -314.40298 17.324493 l 62.97159 76.24489 l 125.89554 152.43375 l -62.664795 -75.87332 l -131.95906 381.86865 l 49.70186 0.0009765625 l -99.34927 0.08502197 l 0.0 22.242493 l 0.0 19.122986 l 0.0 21.625488 l 0.0 20.808105 l 0.0 41.95038 l 0.0 -20.717896 l 0.0 41.8631 l 0.0 21.404785 l 1.5258789e-05 20.208069 l 0.0 21.333496 l 94.1409 0.074523926 l 94.19954 0.0 l 188.30963 0.0 l -94.006165 0.0 l -133.46326 -209.99927 l 49.585754 -0.00012207031 l 149.05368 -0.0006713867 l -49.58383 0.0 l -49.732666 -0.012878418 l 122.28839 -152.79242 l -63.082794 -76.3963 l 126.21341 152.8028 l -36.043945 76.398865 l 49.34607 0.0 l 49.725586 -0.00024414062 l 68.10266 210.00024 l -94.00354 0.0 l 188.38904 0.0 l 94.160034 0.0 l 94.201416 0.0 l 94.201416 0.0 l -340.19214 -762.0 l 57.48236 0.0 l -115.601746 0.00021362305 l 289.08844 -0.00024414062 l -57.493713 0.0 l -57.926758 -0.00010681152 l 173.64221 -41.014786 l 0.0 19.38269 l 0.0 21.352982 l 0.0 -84.11486 l 0.0 20.59983 l 0.0 -104.41858 l 0.0 19.384243 l 0.0 22.953075 l 0.0 19.257393 l -0.0008544922 -84.57005 l 0.00024414062 -20.542976 l -203.26306 -0.2689143 l 100.1499 1.7602375e-05 l -204.91687 9.120777e-06 l -101.7926 8.216535e-06 l -203.44043 -0.0051934975 l 100.18054 0.0015728269 " /> </g> </svg>